<?xml version="1.0" encoding="utf-8" standalone="no"?>
<!DOCTYPE svg PUBLIC "-//W3C//DTD SVG 1.1//EN"
  "http://www.w3.org/Graphics/SVG/1.1/DTD/svg11.dtd">
<svg xmlns:xlink="http://www.w3.org/1999/xlink" width="81.36pt" height="297.36pt" viewBox="0 0 81.36 297.36" xmlns="http://www.w3.org/2000/svg" version="1.1">
 <metadata>
  <rdf:RDF xmlns:dc="http://purl.org/dc/elements/1.1/" xmlns:cc="http://creativecommons.org/ns#" xmlns:rdf="http://www.w3.org/1999/02/22-rdf-syntax-ns#">
   <cc:Work>
    <dc:type rdf:resource="http://purl.org/dc/dcmitype/StillImage"/>
    <dc:date>2025-02-21T01:03:13.716413</dc:date>
    <dc:format>image/svg+xml</dc:format>
    <dc:creator>
     <cc:Agent>
      <dc:title>Matplotlib v3.10.0, https://matplotlib.org/</dc:title>
     </cc:Agent>
    </dc:creator>
   </cc:Work>
  </rdf:RDF>
 </metadata>
 <defs>
  <style type="text/css">*{stroke-linejoin: round; stroke-linecap: butt}</style>
 </defs>
 <g id="figure_1">
  <g id="patch_1">
   <path d="M 0 297.36 
L 81.36 297.36 
L 81.36 0 
L 0 0 
z
" style="fill: #ffffff"/>
  </g>
  <g id="axes_1">
   <g id="patch_2">
    <path d="M 58.68 40.68 
L 58.965587 40.677734 
L 59.251103 40.670938 
L 59.536474 40.659612 
L 59.821631 40.64376 
L 60.106499 40.623386 
L 60.391009 40.598495 
L 60.675088 40.569092 
L 60.958664 40.535187 
L 61.241667 40.496786 
L 61.524025 40.4539 
L 61.805667 40.40654 
L 62.086522 40.354717 
L 62.36652 40.298444 
L 62.64559 40.237736 
L 62.923661 40.172608 
L 63.200664 40.103077 
L 63.476529 40.029159 
L 63.751186 39.950874 
L 64.024567 39.86824 
L 64.296602 39.78128 
L 64.567223 39.690015 
L 64.836363 39.594467 
L 65.103952 39.494661 
L 65.369924 39.390623 
L 65.634212 39.282377 
L 65.89675 39.169952 
L 66.15747 39.053376 
L 66.416308 38.932678 
L 66.673199 38.807888 
L 66.928077 38.679038 
L 67.180879 38.546161 
L 67.431541 38.409289 
L 67.68 38.268457 
L 67.926193 38.123701 
L 68.170058 37.975058 
L 68.411535 37.822564 
L 68.650561 37.666257 
L 68.887078 37.506178 
L 69.121024 37.342367 
L 69.352343 37.174865 
L 69.580974 37.003713 
L 69.806862 36.828956 
L 70.029948 36.650636 
L 70.250177 36.4688 
L 70.467493 36.283492 
L 70.681842 36.09476 
L 70.893169 35.902651 
L 71.101422 35.707213 
L 71.306548 35.508495 
L 71.508495 35.306548 
L 71.707213 35.101422 
L 71.902651 34.893169 
L 72.09476 34.681842 
L 72.283492 34.467493 
L 72.4688 34.250177 
L 72.650636 34.029948 
L 72.828956 33.806862 
L 73.003713 33.580974 
L 73.174865 33.352343 
L 73.342367 33.121024 
L 73.506178 32.887078 
L 73.666257 32.650561 
L 73.822564 32.411535 
L 73.975058 32.170058 
L 74.123701 31.926193 
L 74.268457 31.68 
L 74.409289 31.431541 
L 74.546161 31.180879 
L 74.679038 30.928077 
L 74.807888 30.673199 
L 74.932678 30.416308 
L 75.053376 30.15747 
L 75.169952 29.89675 
L 75.282377 29.634212 
L 75.390623 29.369924 
L 75.494661 29.103952 
L 75.594467 28.836363 
L 75.690015 28.567223 
L 75.78128 28.296602 
L 75.86824 28.024567 
L 75.950874 27.751186 
L 76.029159 27.476529 
L 76.103077 27.200664 
L 76.172608 26.923661 
L 76.237736 26.64559 
L 76.298444 26.36652 
L 76.354717 26.086522 
L 76.40654 25.805667 
L 76.4539 25.524025 
L 76.496786 25.241667 
L 76.535187 24.958664 
L 76.569092 24.675088 
L 76.598495 24.391009 
L 76.623386 24.106499 
L 76.64376 23.821631 
L 76.659612 23.536474 
L 76.670938 23.251103 
L 76.677734 22.965587 
L 76.68 22.68 
L 76.68 22.68 
L 76.677734 22.394413 
L 76.670938 22.108897 
L 76.659612 21.823526 
L 76.64376 21.538369 
L 76.623386 21.253501 
L 76.598495 20.968991 
L 76.569092 20.684912 
L 76.535187 20.401336 
L 76.496786 20.118333 
L 76.4539 19.835975 
L 76.40654 19.554333 
L 76.354717 19.273478 
L 76.298444 18.99348 
L 76.237736 18.71441 
L 76.172608 18.436339 
L 76.103077 18.159336 
L 76.029159 17.883471 
L 75.950874 17.608814 
L 75.86824 17.335433 
L 75.78128 17.063398 
L 75.690015 16.792777 
L 75.594467 16.523637 
L 75.494661 16.256048 
L 75.390623 15.990076 
L 75.282377 15.725788 
L 75.169952 15.46325 
L 75.053376 15.20253 
L 74.932678 14.943692 
L 74.807888 14.686801 
L 74.679038 14.431923 
L 74.546161 14.179121 
L 74.409289 13.928459 
L 74.268457 13.68 
L 74.123701 13.433807 
L 73.975058 13.189942 
L 73.822564 12.948465 
L 73.666257 12.709439 
L 73.506178 12.472922 
L 73.342367 12.238976 
L 73.174865 12.007657 
L 73.003713 11.779026 
L 72.828956 11.553138 
L 72.650636 11.330052 
L 72.4688 11.109823 
L 72.283492 10.892507 
L 72.09476 10.678158 
L 71.902651 10.466831 
L 71.707213 10.258578 
L 71.508495 10.053452 
L 71.306548 9.851505 
L 71.101422 9.652787 
L 70.893169 9.457349 
L 70.681842 9.26524 
L 70.467493 9.076508 
L 70.250177 8.8912 
L 70.029948 8.709364 
L 69.806862 8.531044 
L 69.580974 8.356287 
L 69.352343 8.185135 
L 69.121024 8.017633 
L 68.887078 7.853822 
L 68.650561 7.693743 
L 68.411535 7.537436 
L 68.170058 7.384942 
L 67.926193 7.236299 
L 67.68 7.091543 
L 67.431541 6.950711 
L 67.180879 6.813839 
L 66.928077 6.680962 
L 66.673199 6.552112 
L 66.416308 6.427322 
L 66.15747 6.306624 
L 65.89675 6.190048 
L 65.634212 6.077623 
L 65.369924 5.969377 
L 65.103952 5.865339 
L 64.836363 5.765533 
L 64.567223 5.669985 
L 64.296602 5.57872 
L 64.024567 5.49176 
L 63.751186 5.409126 
L 63.476529 5.330841 
L 63.200664 5.256923 
L 62.923661 5.187392 
L 62.64559 5.122264 
L 62.36652 5.061556 
L 62.086522 5.005283 
L 61.805667 4.95346 
L 61.524025 4.9061 
L 61.241667 4.863214 
L 60.958664 4.824813 
L 60.675088 4.790908 
L 60.391009 4.761505 
L 60.106499 4.736614 
L 59.821631 4.71624 
L 59.536474 4.700388 
L 59.251103 4.689062 
L 58.965587 4.682266 
L 58.68 4.68 
L 22.68 4.68 
L 22.394413 4.682266 
L 22.108897 4.689062 
L 21.823526 4.700388 
L 21.538369 4.71624 
L 21.253501 4.736614 
L 20.968991 4.761505 
L 20.684912 4.790908 
L 20.401336 4.824813 
L 20.118333 4.863214 
L 19.835975 4.9061 
L 19.554333 4.95346 
L 19.273478 5.005283 
L 18.99348 5.061556 
L 18.71441 5.122264 
L 18.436339 5.187392 
L 18.159336 5.256923 
L 17.883471 5.330841 
L 17.608814 5.409126 
L 17.335433 5.49176 
L 17.063398 5.57872 
L 16.792777 5.669985 
L 16.523637 5.765533 
L 16.256048 5.865339 
L 15.990076 5.969377 
L 15.725788 6.077623 
L 15.46325 6.190048 
L 15.20253 6.306624 
L 14.943692 6.427322 
L 14.686801 6.552112 
L 14.431923 6.680962 
L 14.179121 6.813839 
L 13.928459 6.950711 
L 13.68 7.091543 
L 13.433807 7.236299 
L 13.189942 7.384942 
L 12.948465 7.537436 
L 12.709439 7.693743 
L 12.472922 7.853822 
L 12.238976 8.017633 
L 12.007657 8.185135 
L 11.779026 8.356287 
L 11.553138 8.531044 
L 11.330052 8.709364 
L 11.109823 8.8912 
L 10.892507 9.076508 
L 10.678158 9.26524 
L 10.466831 9.457349 
L 10.258578 9.652787 
L 10.053452 9.851505 
L 9.851505 10.053452 
L 9.652787 10.258578 
L 9.457349 10.466831 
L 9.26524 10.678158 
L 9.076508 10.892507 
L 8.8912 11.109823 
L 8.709364 11.330052 
L 8.531044 11.553138 
L 8.356287 11.779026 
L 8.185135 12.007657 
L 8.017633 12.238976 
L 7.853822 12.472922 
L 7.693743 12.709439 
L 7.537436 12.948465 
L 7.384942 13.189942 
L 7.236299 13.433807 
L 7.091543 13.68 
L 6.950711 13.928459 
L 6.813839 14.179121 
L 6.680962 14.431923 
L 6.552112 14.686801 
L 6.427322 14.943692 
L 6.306624 15.20253 
L 6.190048 15.46325 
L 6.077623 15.725788 
L 5.969377 15.990076 
L 5.865339 16.256048 
L 5.765533 16.523637 
L 5.669985 16.792777 
L 5.57872 17.063398 
L 5.49176 17.335433 
L 5.409126 17.608814 
L 5.330841 17.883471 
L 5.256923 18.159336 
L 5.187392 18.436339 
L 5.122264 18.71441 
L 5.061556 18.99348 
L 5.005283 19.273478 
L 4.95346 19.554333 
L 4.9061 19.835975 
L 4.863214 20.118333 
L 4.824813 20.401336 
L 4.790908 20.684912 
L 4.761505 20.968991 
L 4.736614 21.253501 
L 4.71624 21.538369 
L 4.700388 21.823526 
L 4.689062 22.108897 
L 4.682266 22.394413 
L 4.68 22.68 
L 4.68 22.68 
L 4.682266 22.965587 
L 4.689062 23.251103 
L 4.700388 23.536474 
L 4.71624 23.821631 
L 4.736614 24.106499 
L 4.761505 24.391009 
L 4.790908 24.675088 
L 4.824813 24.958664 
L 4.863214 25.241667 
L 4.9061 25.524025 
L 4.95346 25.805667 
L 5.005283 26.086522 
L 5.061556 26.36652 
L 5.122264 26.64559 
L 5.187392 26.923661 
L 5.256923 27.200664 
L 5.330841 27.476529 
L 5.409126 27.751186 
L 5.49176 28.024567 
L 5.57872 28.296602 
L 5.669985 28.567223 
L 5.765533 28.836363 
L 5.865339 29.103952 
L 5.969377 29.369924 
L 6.077623 29.634212 
L 6.190048 29.89675 
L 6.306624 30.15747 
L 6.427322 30.416308 
L 6.552112 30.673199 
L 6.680962 30.928077 
L 6.813839 31.180879 
L 6.950711 31.431541 
L 7.091543 31.68 
L 7.236299 31.926193 
L 7.384942 32.170058 
L 7.537436 32.411535 
L 7.693743 32.650561 
L 7.853822 32.887078 
L 8.017633 33.121024 
L 8.185135 33.352343 
L 8.356287 33.580974 
L 8.531044 33.806862 
L 8.709364 34.029948 
L 8.8912 34.250177 
L 9.076508 34.467493 
L 9.26524 34.681842 
L 9.457349 34.893169 
L 9.652787 35.101422 
L 9.851505 35.306548 
L 10.053452 35.508495 
L 10.258578 35.707213 
L 10.466831 35.902651 
L 10.678158 36.09476 
L 10.892507 36.283492 
L 11.109823 36.4688 
L 11.330052 36.650636 
L 11.553138 36.828956 
L 11.779026 37.003713 
L 12.007657 37.174865 
L 12.238976 37.342367 
L 12.472922 37.506178 
L 12.709439 37.666257 
L 12.948465 37.822564 
L 13.189942 37.975058 
L 13.433807 38.123701 
L 13.68 38.268457 
L 13.928459 38.409289 
L 14.179121 38.546161 
L 14.431923 38.679038 
L 14.686801 38.807888 
L 14.943692 38.932678 
L 15.20253 39.053376 
L 15.46325 39.169952 
L 15.725788 39.282377 
L 15.990076 39.390623 
L 16.256048 39.494661 
L 16.523637 39.594467 
L 16.792777 39.690015 
L 17.063398 39.78128 
L 17.335433 39.86824 
L 17.608814 39.950874 
L 17.883471 40.029159 
L 18.159336 40.103077 
L 18.436339 40.172608 
L 18.71441 40.237736 
L 18.99348 40.298444 
L 19.273478 40.354717 
L 19.554333 40.40654 
L 19.835975 40.4539 
L 20.118333 40.496786 
L 20.401336 40.535187 
L 20.684912 40.569092 
L 20.968991 40.598495 
L 21.253501 40.623386 
L 21.538369 40.64376 
L 21.823526 40.659612 
L 22.108897 40.670938 
L 22.394413 40.677734 
L 22.68 40.68 
L 58.68 40.68 
z
" clip-path="url(#p59421509a2)" style="fill: none; stroke: #000000; stroke-linecap: round"/>
   </g>
   <g id="patch_3">
    <path d="M 58.68 292.68 
L 58.965587 292.677734 
L 59.251103 292.670938 
L 59.536474 292.659612 
L 59.821631 292.64376 
L 60.106499 292.623386 
L 60.391009 292.598495 
L 60.675088 292.569092 
L 60.958664 292.535187 
L 61.241667 292.496786 
L 61.524025 292.4539 
L 61.805667 292.40654 
L 62.086522 292.354717 
L 62.36652 292.298444 
L 62.64559 292.237736 
L 62.923661 292.172608 
L 63.200664 292.103077 
L 63.476529 292.029159 
L 63.751186 291.950874 
L 64.024567 291.86824 
L 64.296602 291.78128 
L 64.567223 291.690015 
L 64.836363 291.594467 
L 65.103952 291.494661 
L 65.369924 291.390623 
L 65.634212 291.282377 
L 65.89675 291.169952 
L 66.15747 291.053376 
L 66.416308 290.932678 
L 66.673199 290.807888 
L 66.928077 290.679038 
L 67.180879 290.546161 
L 67.431541 290.409289 
L 67.68 290.268457 
L 67.926193 290.123701 
L 68.170058 289.975058 
L 68.411535 289.822564 
L 68.650561 289.666257 
L 68.887078 289.506178 
L 69.121024 289.342367 
L 69.352343 289.174865 
L 69.580974 289.003713 
L 69.806862 288.828956 
L 70.029948 288.650636 
L 70.250177 288.4688 
L 70.467493 288.283492 
L 70.681842 288.09476 
L 70.893169 287.902651 
L 71.101422 287.707213 
L 71.306548 287.508495 
L 71.508495 287.306548 
L 71.707213 287.101422 
L 71.902651 286.893169 
L 72.09476 286.681842 
L 72.283492 286.467493 
L 72.4688 286.250177 
L 72.650636 286.029948 
L 72.828956 285.806862 
L 73.003713 285.580974 
L 73.174865 285.352343 
L 73.342367 285.121024 
L 73.506178 284.887078 
L 73.666257 284.650561 
L 73.822564 284.411535 
L 73.975058 284.170058 
L 74.123701 283.926193 
L 74.268457 283.68 
L 74.409289 283.431541 
L 74.546161 283.180879 
L 74.679038 282.928077 
L 74.807888 282.673199 
L 74.932678 282.416308 
L 75.053376 282.15747 
L 75.169952 281.89675 
L 75.282377 281.634212 
L 75.390623 281.369924 
L 75.494661 281.103952 
L 75.594467 280.836363 
L 75.690015 280.567223 
L 75.78128 280.296602 
L 75.86824 280.024567 
L 75.950874 279.751186 
L 76.029159 279.476529 
L 76.103077 279.200664 
L 76.172608 278.923661 
L 76.237736 278.64559 
L 76.298444 278.36652 
L 76.354717 278.086522 
L 76.40654 277.805667 
L 76.4539 277.524025 
L 76.496786 277.241667 
L 76.535187 276.958664 
L 76.569092 276.675088 
L 76.598495 276.391009 
L 76.623386 276.106499 
L 76.64376 275.821631 
L 76.659612 275.536474 
L 76.670938 275.251103 
L 76.677734 274.965587 
L 76.68 274.68 
L 76.68 274.68 
L 76.677734 274.394413 
L 76.670938 274.108897 
L 76.659612 273.823526 
L 76.64376 273.538369 
L 76.623386 273.253501 
L 76.598495 272.968991 
L 76.569092 272.684912 
L 76.535187 272.401336 
L 76.496786 272.118333 
L 76.4539 271.835975 
L 76.40654 271.554333 
L 76.354717 271.273478 
L 76.298444 270.99348 
L 76.237736 270.71441 
L 76.172608 270.436339 
L 76.103077 270.159336 
L 76.029159 269.883471 
L 75.950874 269.608814 
L 75.86824 269.335433 
L 75.78128 269.063398 
L 75.690015 268.792777 
L 75.594467 268.523637 
L 75.494661 268.256048 
L 75.390623 267.990076 
L 75.282377 267.725788 
L 75.169952 267.46325 
L 75.053376 267.20253 
L 74.932678 266.943692 
L 74.807888 266.686801 
L 74.679038 266.431923 
L 74.546161 266.179121 
L 74.409289 265.928459 
L 74.268457 265.68 
L 74.123701 265.433807 
L 73.975058 265.189942 
L 73.822564 264.948465 
L 73.666257 264.709439 
L 73.506178 264.472922 
L 73.342367 264.238976 
L 73.174865 264.007657 
L 73.003713 263.779026 
L 72.828956 263.553138 
L 72.650636 263.330052 
L 72.4688 263.109823 
L 72.283492 262.892507 
L 72.09476 262.678158 
L 71.902651 262.466831 
L 71.707213 262.258578 
L 71.508495 262.053452 
L 71.306548 261.851505 
L 71.101422 261.652787 
L 70.893169 261.457349 
L 70.681842 261.26524 
L 70.467493 261.076508 
L 70.250177 260.8912 
L 70.029948 260.709364 
L 69.806862 260.531044 
L 69.580974 260.356287 
L 69.352343 260.185135 
L 69.121024 260.017633 
L 68.887078 259.853822 
L 68.650561 259.693743 
L 68.411535 259.537436 
L 68.170058 259.384942 
L 67.926193 259.236299 
L 67.68 259.091543 
L 67.431541 258.950711 
L 67.180879 258.813839 
L 66.928077 258.680962 
L 66.673199 258.552112 
L 66.416308 258.427322 
L 66.15747 258.306624 
L 65.89675 258.190048 
L 65.634212 258.077623 
L 65.369924 257.969377 
L 65.103952 257.865339 
L 64.836363 257.765533 
L 64.567223 257.669985 
L 64.296602 257.57872 
L 64.024567 257.49176 
L 63.751186 257.409126 
L 63.476529 257.330841 
L 63.200664 257.256923 
L 62.923661 257.187392 
L 62.64559 257.122264 
L 62.36652 257.061556 
L 62.086522 257.005283 
L 61.805667 256.95346 
L 61.524025 256.9061 
L 61.241667 256.863214 
L 60.958664 256.824813 
L 60.675088 256.790908 
L 60.391009 256.761505 
L 60.106499 256.736614 
L 59.821631 256.71624 
L 59.536474 256.700388 
L 59.251103 256.689062 
L 58.965587 256.682266 
L 58.68 256.68 
L 22.68 256.68 
L 22.394413 256.682266 
L 22.108897 256.689062 
L 21.823526 256.700388 
L 21.538369 256.71624 
L 21.253501 256.736614 
L 20.968991 256.761505 
L 20.684912 256.790908 
L 20.401336 256.824813 
L 20.118333 256.863214 
L 19.835975 256.9061 
L 19.554333 256.95346 
L 19.273478 257.005283 
L 18.99348 257.061556 
L 18.71441 257.122264 
L 18.436339 257.187392 
L 18.159336 257.256923 
L 17.883471 257.330841 
L 17.608814 257.409126 
L 17.335433 257.49176 
L 17.063398 257.57872 
L 16.792777 257.669985 
L 16.523637 257.765533 
L 16.256048 257.865339 
L 15.990076 257.969377 
L 15.725788 258.077623 
L 15.46325 258.190048 
L 15.20253 258.306624 
L 14.943692 258.427322 
L 14.686801 258.552112 
L 14.431923 258.680962 
L 14.179121 258.813839 
L 13.928459 258.950711 
L 13.68 259.091543 
L 13.433807 259.236299 
L 13.189942 259.384942 
L 12.948465 259.537436 
L 12.709439 259.693743 
L 12.472922 259.853822 
L 12.238976 260.017633 
L 12.007657 260.185135 
L 11.779026 260.356287 
L 11.553138 260.531044 
L 11.330052 260.709364 
L 11.109823 260.8912 
L 10.892507 261.076508 
L 10.678158 261.26524 
L 10.466831 261.457349 
L 10.258578 261.652787 
L 10.053452 261.851505 
L 9.851505 262.053452 
L 9.652787 262.258578 
L 9.457349 262.466831 
L 9.26524 262.678158 
L 9.076508 262.892507 
L 8.8912 263.109823 
L 8.709364 263.330052 
L 8.531044 263.553138 
L 8.356287 263.779026 
L 8.185135 264.007657 
L 8.017633 264.238976 
L 7.853822 264.472922 
L 7.693743 264.709439 
L 7.537436 264.948465 
L 7.384942 265.189942 
L 7.236299 265.433807 
L 7.091543 265.68 
L 6.950711 265.928459 
L 6.813839 266.179121 
L 6.680962 266.431923 
L 6.552112 266.686801 
L 6.427322 266.943692 
L 6.306624 267.20253 
L 6.190048 267.46325 
L 6.077623 267.725788 
L 5.969377 267.990076 
L 5.865339 268.256048 
L 5.765533 268.523637 
L 5.669985 268.792777 
L 5.57872 269.063398 
L 5.49176 269.335433 
L 5.409126 269.608814 
L 5.330841 269.883471 
L 5.256923 270.159336 
L 5.187392 270.436339 
L 5.122264 270.71441 
L 5.061556 270.99348 
L 5.005283 271.273478 
L 4.95346 271.554333 
L 4.9061 271.835975 
L 4.863214 272.118333 
L 4.824813 272.401336 
L 4.790908 272.684912 
L 4.761505 272.968991 
L 4.736614 273.253501 
L 4.71624 273.538369 
L 4.700388 273.823526 
L 4.689062 274.108897 
L 4.682266 274.394413 
L 4.68 274.68 
L 4.68 274.68 
L 4.682266 274.965587 
L 4.689062 275.251103 
L 4.700388 275.536474 
L 4.71624 275.821631 
L 4.736614 276.106499 
L 4.761505 276.391009 
L 4.790908 276.675088 
L 4.824813 276.958664 
L 4.863214 277.241667 
L 4.9061 277.524025 
L 4.95346 277.805667 
L 5.005283 278.086522 
L 5.061556 278.36652 
L 5.122264 278.64559 
L 5.187392 278.923661 
L 5.256923 279.200664 
L 5.330841 279.476529 
L 5.409126 279.751186 
L 5.49176 280.024567 
L 5.57872 280.296602 
L 5.669985 280.567223 
L 5.765533 280.836363 
L 5.865339 281.103952 
L 5.969377 281.369924 
L 6.077623 281.634212 
L 6.190048 281.89675 
L 6.306624 282.15747 
L 6.427322 282.416308 
L 6.552112 282.673199 
L 6.680962 282.928077 
L 6.813839 283.180879 
L 6.950711 283.431541 
L 7.091543 283.68 
L 7.236299 283.926193 
L 7.384942 284.170058 
L 7.537436 284.411535 
L 7.693743 284.650561 
L 7.853822 284.887078 
L 8.017633 285.121024 
L 8.185135 285.352343 
L 8.356287 285.580974 
L 8.531044 285.806862 
L 8.709364 286.029948 
L 8.8912 286.250177 
L 9.076508 286.467493 
L 9.26524 286.681842 
L 9.457349 286.893169 
L 9.652787 287.101422 
L 9.851505 287.306548 
L 10.053452 287.508495 
L 10.258578 287.707213 
L 10.466831 287.902651 
L 10.678158 288.09476 
L 10.892507 288.283492 
L 11.109823 288.4688 
L 11.330052 288.650636 
L 11.553138 288.828956 
L 11.779026 289.003713 
L 12.007657 289.174865 
L 12.238976 289.342367 
L 12.472922 289.506178 
L 12.709439 289.666257 
L 12.948465 289.822564 
L 13.189942 289.975058 
L 13.433807 290.123701 
L 13.68 290.268457 
L 13.928459 290.409289 
L 14.179121 290.546161 
L 14.431923 290.679038 
L 14.686801 290.807888 
L 14.943692 290.932678 
L 15.20253 291.053376 
L 15.46325 291.169952 
L 15.725788 291.282377 
L 15.990076 291.390623 
L 16.256048 291.494661 
L 16.523637 291.594467 
L 16.792777 291.690015 
L 17.063398 291.78128 
L 17.335433 291.86824 
L 17.608814 291.950874 
L 17.883471 292.029159 
L 18.159336 292.103077 
L 18.436339 292.172608 
L 18.71441 292.237736 
L 18.99348 292.298444 
L 19.273478 292.354717 
L 19.554333 292.40654 
L 19.835975 292.4539 
L 20.118333 292.496786 
L 20.401336 292.535187 
L 20.684912 292.569092 
L 20.968991 292.598495 
L 21.253501 292.623386 
L 21.538369 292.64376 
L 21.823526 292.659612 
L 22.108897 292.670938 
L 22.394413 292.677734 
L 22.68 292.68 
L 58.68 292.68 
z
" clip-path="url(#p59421509a2)" style="fill: none; stroke: #000000; stroke-linecap: round"/>
   </g>
   <g id="line2d_1">
    <path d="M 40.68 40.68 
L 40.68 54.18 
L 40.68 58.68 
" clip-path="url(#p59421509a2)" style="fill: none; stroke: #000000; stroke-linecap: round"/>
   </g>
   <g id="patch_4">
    <path d="M 43.38 58.68 
L 40.68 67.68 
L 37.98 58.68 
z
" clip-path="url(#p59421509a2)"/>
   </g>
   <g id="line2d_2">
    <path d="M 4.68 85.68 
L 4.68 67.68 
L 76.68 67.68 
L 76.68 103.68 
L 4.68 103.68 
L 4.68 85.68 
" clip-path="url(#p59421509a2)" style="fill: none; stroke: #000000; stroke-linecap: round"/>
   </g>
   <g id="line2d_3">
    <path d="M 40.68 103.68 
L 40.68 117.18 
L 40.68 121.68 
" clip-path="url(#p59421509a2)" style="fill: none; stroke: #000000; stroke-linecap: round"/>
   </g>
   <g id="patch_5">
    <path d="M 43.38 121.68 
L 40.68 130.68 
L 37.98 121.68 
z
" clip-path="url(#p59421509a2)"/>
   </g>
   <g id="line2d_4">
    <path d="M 4.68 148.68 
L 4.68 130.68 
L 76.68 130.68 
L 76.68 166.68 
L 4.68 166.68 
L 4.68 148.68 
" clip-path="url(#p59421509a2)" style="fill: none; stroke: #000000; stroke-linecap: round"/>
   </g>
   <g id="line2d_5">
    <path d="M 40.68 166.68 
L 40.68 180.18 
L 40.68 184.68 
" clip-path="url(#p59421509a2)" style="fill: none; stroke: #000000; stroke-linecap: round"/>
   </g>
   <g id="patch_6">
    <path d="M 43.38 184.68 
L 40.68 193.68 
L 37.98 184.68 
z
" clip-path="url(#p59421509a2)"/>
   </g>
   <g id="line2d_6">
    <path d="M 4.68 211.68 
L 4.68 193.68 
L 76.68 193.68 
L 76.68 229.68 
L 4.68 229.68 
L 4.68 211.68 
" clip-path="url(#p59421509a2)" style="fill: none; stroke: #000000; stroke-linecap: round"/>
   </g>
   <g id="line2d_7">
    <path d="M 40.68 229.68 
L 40.68 243.18 
L 40.68 247.68 
" clip-path="url(#p59421509a2)" style="fill: none; stroke: #000000; stroke-linecap: round"/>
   </g>
   <g id="patch_7">
    <path d="M 43.38 247.68 
L 40.68 256.68 
L 37.98 247.68 
z
" clip-path="url(#p59421509a2)"/>
   </g>
   <g id="text_1">
    <!-- START -->
    <g transform="translate(19.202031 26.593438) scale(0.14 -0.14)">
     <defs>
      <path id="IPAexGothic-53" d="M 2919 3641 
Q 2563 4259 1853 4259 
Q 1453 4259 1213 4009 
Q 1028 3803 1028 3534 
Q 1028 3238 1266 3047 
Q 1444 2913 1984 2688 
L 2200 2597 
Q 2925 2306 3191 1953 
Q 3422 1644 3422 1259 
Q 3422 644 2969 288 
Q 2559 -31 1931 -31 
Q 881 -31 313 766 
L 753 1100 
Q 1203 459 1938 459 
Q 2288 459 2534 625 
Q 2841 847 2841 1216 
Q 2841 1503 2616 1728 
Q 2375 1959 1728 2206 
L 1541 2278 
Q 453 2694 453 3481 
Q 453 4006 806 4347 
Q 1203 4725 1863 4725 
Q 2841 4725 3359 3956 
L 2919 3641 
z
" transform="scale(0.015625)"/>
      <path id="IPAexGothic-54" d="M 3866 4141 
L 2175 4141 
L 2175 63 
L 1606 63 
L 1606 4141 
L -31 4141 
L -31 4634 
L 3866 4634 
L 3866 4141 
z
" transform="scale(0.015625)"/>
      <path id="IPAexGothic-41" d="M 4056 63 
L 3444 63 
L 2938 1409 
L 1100 1409 
L 603 63 
L -6 63 
L 1806 4666 
L 2259 4666 
L 4056 63 
z
M 2778 1863 
L 2316 3078 
Q 2125 3588 2028 4000 
L 2009 4000 
Q 1897 3563 1716 3078 
L 1263 1863 
L 2778 1863 
z
" transform="scale(0.015625)"/>
      <path id="IPAexGothic-52" d="M 4072 63 
L 3394 63 
Q 3138 641 2828 1197 
Q 2584 1641 2344 1825 
Q 2050 2044 1625 2044 
L 1172 2044 
L 1172 63 
L 609 63 
L 609 4634 
L 2009 4634 
Q 2713 4634 3131 4378 
Q 3688 4044 3688 3381 
Q 3688 2784 3181 2459 
Q 2906 2272 2522 2216 
L 2522 2197 
Q 2941 2050 3247 1581 
Q 3516 1166 4072 63 
z
M 1172 2478 
L 1869 2478 
Q 3106 2478 3106 3369 
Q 3106 4181 1928 4181 
L 1172 4181 
L 1172 2478 
z
" transform="scale(0.015625)"/>
     </defs>
     <use xlink:href="#IPAexGothic-53"/>
     <use xlink:href="#IPAexGothic-54" transform="translate(58.496094 0)"/>
     <use xlink:href="#IPAexGothic-41" transform="translate(118.408203 0)"/>
     <use xlink:href="#IPAexGothic-52" transform="translate(182.128906 0)"/>
     <use xlink:href="#IPAexGothic-54" transform="translate(246.923828 0)"/>
    </g>
   </g>
   <g id="text_2">
    <!-- x = 10 -->
    <g transform="translate(19.912969 89.593438) scale(0.14 -0.14)">
     <defs>
      <path id="IPAexGothic-78" d="M 3050 63 
L 2419 63 
L 1547 1338 
L 691 63 
L 56 63 
L 1247 1675 
L 106 3250 
L 747 3250 
L 1578 2016 
L 2413 3250 
L 3019 3250 
L 1875 1681 
L 3050 63 
z
" transform="scale(0.015625)"/>
      <path id="IPAexGothic-20" transform="scale(0.015625)"/>
      <path id="IPAexGothic-3d" d="M 416 2803 
L 3922 2803 
L 3922 2438 
L 416 2438 
L 416 2803 
z
M 416 1625 
L 3922 1625 
L 3922 1259 
L 416 1259 
L 416 1625 
z
" transform="scale(0.015625)"/>
      <path id="IPAexGothic-31" d="M 2463 63 
L 1900 63 
L 1900 4103 
Q 1372 3922 788 3797 
L 684 4231 
Q 1519 4441 2106 4731 
L 2463 4731 
L 2463 63 
z
" transform="scale(0.015625)"/>
      <path id="IPAexGothic-30" d="M 2038 4725 
Q 2881 4725 3334 3944 
Q 3694 3325 3694 2344 
Q 3694 1372 3334 741 
Q 2888 -31 2016 -31 
Q 1147 -31 700 741 
Q 341 1372 341 2350 
Q 341 3713 1000 4334 
Q 1419 4725 2038 4725 
z
M 2016 4266 
Q 1516 4266 1228 3759 
Q 934 3247 934 2344 
Q 934 1456 1222 947 
Q 1513 447 2016 447 
Q 2619 447 2909 1153 
Q 3100 1622 3100 2375 
Q 3100 3256 2806 3759 
Q 2509 4266 2016 4266 
z
" transform="scale(0.015625)"/>
     </defs>
     <use xlink:href="#IPAexGothic-78"/>
     <use xlink:href="#IPAexGothic-20" transform="translate(48.876953 0)"/>
     <use xlink:href="#IPAexGothic-3d" transform="translate(75.878906 0)"/>
     <use xlink:href="#IPAexGothic-20" transform="translate(143.701172 0)"/>
     <use xlink:href="#IPAexGothic-31" transform="translate(170.703125 0)"/>
     <use xlink:href="#IPAexGothic-30" transform="translate(233.691406 0)"/>
    </g>
   </g>
   <g id="text_3">
    <!-- y = x + 5 -->
    <g transform="translate(12.348594 152.593438) scale(0.14 -0.14)">
     <defs>
      <path id="IPAexGothic-79" d="M 3122 3250 
L 1575 -488 
Q 1278 -1203 550 -1203 
L 478 -1203 
L 344 -703 
L 447 -703 
Q 969 -703 1150 -238 
L 1356 275 
L 38 3250 
L 659 3250 
L 1363 1459 
Q 1528 1025 1606 781 
L 1625 781 
Q 1750 1169 1863 1459 
L 2528 3250 
L 3122 3250 
z
" transform="scale(0.015625)"/>
      <path id="IPAexGothic-2b" d="M 2369 1856 
L 2369 219 
L 1984 219 
L 1984 1856 
L 416 1856 
L 416 2216 
L 1984 2216 
L 1984 3725 
L 2369 3725 
L 2369 2216 
L 3922 2216 
L 3922 1856 
L 2369 1856 
z
" transform="scale(0.015625)"/>
      <path id="IPAexGothic-35" d="M 1178 2603 
Q 1634 2963 2172 2963 
Q 2816 2963 3241 2528 
Q 3638 2113 3638 1497 
Q 3638 938 3297 513 
Q 2869 -31 2031 -31 
Q 959 -31 469 784 
L 938 1028 
Q 1309 434 2013 434 
Q 2466 434 2769 716 
Q 3081 1013 3081 1503 
Q 3081 1966 2806 2241 
Q 2519 2528 2056 2528 
Q 1406 2528 1072 2028 
L 591 2091 
L 884 4634 
L 3406 4634 
L 3406 4153 
L 1341 4153 
L 1134 2603 
L 1178 2603 
z
" transform="scale(0.015625)"/>
     </defs>
     <use xlink:href="#IPAexGothic-79"/>
     <use xlink:href="#IPAexGothic-20" transform="translate(49.21875 0)"/>
     <use xlink:href="#IPAexGothic-3d" transform="translate(76.220703 0)"/>
     <use xlink:href="#IPAexGothic-20" transform="translate(144.042969 0)"/>
     <use xlink:href="#IPAexGothic-78" transform="translate(171.044922 0)"/>
     <use xlink:href="#IPAexGothic-20" transform="translate(219.921875 0)"/>
     <use xlink:href="#IPAexGothic-2b" transform="translate(246.923828 0)"/>
     <use xlink:href="#IPAexGothic-20" transform="translate(314.746094 0)"/>
     <use xlink:href="#IPAexGothic-35" transform="translate(341.748047 0)"/>
    </g>
   </g>
   <g id="text_4">
    <!-- print(y) -->
    <g transform="translate(17.092187 215.719219) scale(0.14 -0.14)">
     <defs>
      <path id="IPAexGothic-70" d="M 1075 2688 
Q 1525 3341 2206 3341 
Q 2769 3341 3172 2938 
Q 3641 2469 3641 1644 
Q 3641 841 3178 372 
Q 2775 -31 2200 -31 
Q 1569 -31 1106 497 
L 1106 -1216 
L 563 -1216 
L 563 3250 
L 1075 3250 
L 1075 2688 
z
M 1106 1950 
L 1106 1291 
Q 1106 897 1516 600 
Q 1791 403 2106 403 
Q 2469 403 2725 659 
Q 3066 997 3066 1631 
Q 3066 2200 2784 2559 
Q 2503 2900 2100 2900 
Q 1656 2900 1338 2484 
Q 1106 2184 1106 1950 
z
" transform="scale(0.015625)"/>
      <path id="IPAexGothic-72" d="M 2309 3316 
L 2213 2769 
Q 2106 2791 2022 2791 
Q 1653 2791 1413 2444 
Q 1113 2006 1113 1675 
L 1113 63 
L 563 63 
L 563 3250 
L 1081 3250 
L 1056 2303 
L 1069 2303 
Q 1422 3341 2097 3341 
Q 2206 3341 2309 3316 
z
" transform="scale(0.015625)"/>
      <path id="IPAexGothic-69" d="M 1178 3928 
L 550 3928 
L 550 4569 
L 1178 4569 
L 1178 3928 
z
M 1138 63 
L 588 63 
L 588 3250 
L 1138 3250 
L 1138 63 
z
" transform="scale(0.015625)"/>
      <path id="IPAexGothic-6e" d="M 3328 63 
L 2778 63 
L 2778 2041 
Q 2778 2853 2106 2853 
Q 1428 2853 1113 2041 
L 1113 63 
L 563 63 
L 563 3250 
L 1075 3250 
L 1075 2675 
Q 1525 3316 2222 3316 
Q 3328 3316 3328 2072 
L 3328 63 
z
" transform="scale(0.015625)"/>
      <path id="IPAexGothic-74" d="M 2125 241 
Q 1769 -6 1397 -6 
Q 653 -6 653 831 
L 653 2859 
L 219 2859 
L 219 3250 
L 653 3250 
L 653 3966 
L 1178 4228 
L 1178 3250 
L 2063 3250 
L 2063 2859 
L 1178 2859 
L 1178 906 
Q 1178 416 1513 416 
Q 1738 416 1941 588 
L 2125 241 
z
" transform="scale(0.015625)"/>
      <path id="IPAexGothic-28" d="M 1928 -1016 
L 1653 -1166 
Q 488 69 488 1875 
Q 488 3678 1653 4909 
L 1928 4763 
Q 1006 3522 1006 1881 
Q 1006 203 1928 -1016 
z
" transform="scale(0.015625)"/>
      <path id="IPAexGothic-29" d="M 466 4909 
Q 1638 3672 1638 1875 
Q 1638 75 466 -1166 
L 191 -1016 
Q 1119 216 1119 1881 
Q 1119 3509 191 4763 
L 466 4909 
z
" transform="scale(0.015625)"/>
     </defs>
     <use xlink:href="#IPAexGothic-70"/>
     <use xlink:href="#IPAexGothic-72" transform="translate(62.109375 0)"/>
     <use xlink:href="#IPAexGothic-69" transform="translate(99.121094 0)"/>
     <use xlink:href="#IPAexGothic-6e" transform="translate(126.123047 0)"/>
     <use xlink:href="#IPAexGothic-74" transform="translate(186.523438 0)"/>
     <use xlink:href="#IPAexGothic-28" transform="translate(221.142578 0)"/>
     <use xlink:href="#IPAexGothic-79" transform="translate(254.443359 0)"/>
     <use xlink:href="#IPAexGothic-29" transform="translate(303.662109 0)"/>
    </g>
   </g>
   <g id="text_5">
    <!-- END -->
    <g transform="translate(25.896875 278.593438) scale(0.14 -0.14)">
     <defs>
      <path id="IPAexGothic-45" d="M 3547 63 
L 609 63 
L 609 4634 
L 3469 4634 
L 3469 4147 
L 1166 4147 
L 1166 2650 
L 3206 2650 
L 3206 2191 
L 1166 2191 
L 1166 556 
L 3547 556 
L 3547 63 
z
" transform="scale(0.015625)"/>
      <path id="IPAexGothic-4e" d="M 4244 63 
L 3731 63 
L 1697 3150 
Q 1466 3500 1141 4097 
L 1116 4097 
L 1128 3797 
Q 1159 2803 1159 2469 
L 1159 63 
L 609 63 
L 609 4634 
L 1366 4634 
L 3113 1978 
Q 3453 1447 3713 966 
L 3738 966 
Q 3694 1897 3694 2469 
L 3694 4634 
L 4244 4634 
L 4244 63 
z
" transform="scale(0.015625)"/>
      <path id="IPAexGothic-44" d="M 609 4634 
L 1984 4634 
Q 3159 4634 3791 4050 
Q 4456 3444 4456 2356 
Q 4456 1047 3516 441 
Q 2925 63 1941 63 
L 609 63 
L 609 4634 
z
M 1172 556 
L 1894 556 
Q 3853 556 3853 2356 
Q 3853 4147 1928 4147 
L 1172 4147 
L 1172 556 
z
" transform="scale(0.015625)"/>
     </defs>
     <use xlink:href="#IPAexGothic-45"/>
     <use xlink:href="#IPAexGothic-4e" transform="translate(59.521484 0)"/>
     <use xlink:href="#IPAexGothic-44" transform="translate(135.498047 0)"/>
    </g>
   </g>
  </g>
 </g>
 <defs>
  <clipPath id="p59421509a2">
   <rect x="0" y="0" width="81.36" height="297.36"/>
  </clipPath>
 </defs>
</svg>