<?xml version="1.0" encoding="utf-8" standalone="no"?>
<!DOCTYPE svg PUBLIC "-//W3C//DTD SVG 1.1//EN"
  "http://www.w3.org/Graphics/SVG/1.1/DTD/svg11.dtd">
<svg xmlns:xlink="http://www.w3.org/1999/xlink" width="365.58pt" height="357.66pt" viewBox="0 0 365.58 357.66" xmlns="http://www.w3.org/2000/svg" version="1.1">
 <metadata>
  <rdf:RDF xmlns:dc="http://purl.org/dc/elements/1.1/" xmlns:cc="http://creativecommons.org/ns#" xmlns:rdf="http://www.w3.org/1999/02/22-rdf-syntax-ns#">
   <cc:Work>
    <dc:type rdf:resource="http://purl.org/dc/dcmitype/StillImage"/>
    <dc:date>2024-03-06T13:34:37.940614</dc:date>
    <dc:format>image/svg+xml</dc:format>
    <dc:creator>
     <cc:Agent>
      <dc:title>Matplotlib v3.8.3, https://matplotlib.org/</dc:title>
     </cc:Agent>
    </dc:creator>
   </cc:Work>
  </rdf:RDF>
 </metadata>
 <defs>
  <style type="text/css">*{stroke-linejoin: round; stroke-linecap: butt}</style>
 </defs>
 <g id="figure_1">
  <g id="patch_1">
   <path d="M 0 357.66 
L 365.58 357.66 
L 365.58 0 
L 0 0 
z
" style="fill: #ffffff"/>
  </g>
  <g id="axes_1">
   <g id="patch_2">
    <path d="M 104.49 55.53 
L 104.775587 55.527734 
L 105.061103 55.520938 
L 105.346474 55.509612 
L 105.631631 55.49376 
L 105.916499 55.473386 
L 106.201009 55.448495 
L 106.485088 55.419092 
L 106.768664 55.385187 
L 107.051667 55.346786 
L 107.334025 55.3039 
L 107.615667 55.25654 
L 107.896522 55.204717 
L 108.17652 55.148444 
L 108.45559 55.087736 
L 108.733661 55.022608 
L 109.010664 54.953077 
L 109.286529 54.879159 
L 109.561186 54.800874 
L 109.834567 54.71824 
L 110.106602 54.63128 
L 110.377223 54.540015 
L 110.646363 54.444467 
L 110.913952 54.344661 
L 111.179924 54.240623 
L 111.444212 54.132377 
L 111.70675 54.019952 
L 111.96747 53.903376 
L 112.226308 53.782678 
L 112.483199 53.657888 
L 112.738077 53.529038 
L 112.990879 53.396161 
L 113.241541 53.259289 
L 113.49 53.118457 
L 113.736193 52.973701 
L 113.980058 52.825058 
L 114.221535 52.672564 
L 114.460561 52.516257 
L 114.697078 52.356178 
L 114.931024 52.192367 
L 115.162343 52.024865 
L 115.390974 51.853713 
L 115.616862 51.678956 
L 115.839948 51.500636 
L 116.060177 51.3188 
L 116.277493 51.133492 
L 116.491842 50.94476 
L 116.703169 50.752651 
L 116.911422 50.557213 
L 117.116548 50.358495 
L 117.318495 50.156548 
L 117.517213 49.951422 
L 117.712651 49.743169 
L 117.90476 49.531842 
L 118.093492 49.317493 
L 118.2788 49.100177 
L 118.460636 48.879948 
L 118.638956 48.656862 
L 118.813713 48.430974 
L 118.984865 48.202343 
L 119.152367 47.971024 
L 119.316178 47.737078 
L 119.476257 47.500561 
L 119.632564 47.261535 
L 119.785058 47.020058 
L 119.933701 46.776193 
L 120.078457 46.53 
L 120.219289 46.281541 
L 120.356161 46.030879 
L 120.489038 45.778077 
L 120.617888 45.523199 
L 120.742678 45.266308 
L 120.863376 45.00747 
L 120.979952 44.74675 
L 121.092377 44.484212 
L 121.200623 44.219924 
L 121.304661 43.953952 
L 121.404467 43.686363 
L 121.500015 43.417223 
L 121.59128 43.146602 
L 121.67824 42.874567 
L 121.760874 42.601186 
L 121.839159 42.326529 
L 121.913077 42.050664 
L 121.982608 41.773661 
L 122.047736 41.49559 
L 122.108444 41.21652 
L 122.164717 40.936522 
L 122.21654 40.655667 
L 122.2639 40.374025 
L 122.306786 40.091667 
L 122.345187 39.808664 
L 122.379092 39.525088 
L 122.408495 39.241009 
L 122.433386 38.956499 
L 122.45376 38.671631 
L 122.469612 38.386474 
L 122.480938 38.101103 
L 122.487734 37.815587 
L 122.49 37.53 
L 122.49 37.53 
L 122.487734 37.244413 
L 122.480938 36.958897 
L 122.469612 36.673526 
L 122.45376 36.388369 
L 122.433386 36.103501 
L 122.408495 35.818991 
L 122.379092 35.534912 
L 122.345187 35.251336 
L 122.306786 34.968333 
L 122.2639 34.685975 
L 122.21654 34.404333 
L 122.164717 34.123478 
L 122.108444 33.84348 
L 122.047736 33.56441 
L 121.982608 33.286339 
L 121.913077 33.009336 
L 121.839159 32.733471 
L 121.760874 32.458814 
L 121.67824 32.185433 
L 121.59128 31.913398 
L 121.500015 31.642777 
L 121.404467 31.373637 
L 121.304661 31.106048 
L 121.200623 30.840076 
L 121.092377 30.575788 
L 120.979952 30.31325 
L 120.863376 30.05253 
L 120.742678 29.793692 
L 120.617888 29.536801 
L 120.489038 29.281923 
L 120.356161 29.029121 
L 120.219289 28.778459 
L 120.078457 28.53 
L 119.933701 28.283807 
L 119.785058 28.039942 
L 119.632564 27.798465 
L 119.476257 27.559439 
L 119.316178 27.322922 
L 119.152367 27.088976 
L 118.984865 26.857657 
L 118.813713 26.629026 
L 118.638956 26.403138 
L 118.460636 26.180052 
L 118.2788 25.959823 
L 118.093492 25.742507 
L 117.90476 25.528158 
L 117.712651 25.316831 
L 117.517213 25.108578 
L 117.318495 24.903452 
L 117.116548 24.701505 
L 116.911422 24.502787 
L 116.703169 24.307349 
L 116.491842 24.11524 
L 116.277493 23.926508 
L 116.060177 23.7412 
L 115.839948 23.559364 
L 115.616862 23.381044 
L 115.390974 23.206287 
L 115.162343 23.035135 
L 114.931024 22.867633 
L 114.697078 22.703822 
L 114.460561 22.543743 
L 114.221535 22.387436 
L 113.980058 22.234942 
L 113.736193 22.086299 
L 113.49 21.941543 
L 113.241541 21.800711 
L 112.990879 21.663839 
L 112.738077 21.530962 
L 112.483199 21.402112 
L 112.226308 21.277322 
L 111.96747 21.156624 
L 111.70675 21.040048 
L 111.444212 20.927623 
L 111.179924 20.819377 
L 110.913952 20.715339 
L 110.646363 20.615533 
L 110.377223 20.519985 
L 110.106602 20.42872 
L 109.834567 20.34176 
L 109.561186 20.259126 
L 109.286529 20.180841 
L 109.010664 20.106923 
L 108.733661 20.037392 
L 108.45559 19.972264 
L 108.17652 19.911556 
L 107.896522 19.855283 
L 107.615667 19.80346 
L 107.334025 19.7561 
L 107.051667 19.713214 
L 106.768664 19.674813 
L 106.485088 19.640908 
L 106.201009 19.611505 
L 105.916499 19.586614 
L 105.631631 19.56624 
L 105.346474 19.550388 
L 105.061103 19.539062 
L 104.775587 19.532266 
L 104.49 19.53 
L 68.49 19.53 
L 68.204413 19.532266 
L 67.918897 19.539062 
L 67.633526 19.550388 
L 67.348369 19.56624 
L 67.063501 19.586614 
L 66.778991 19.611505 
L 66.494912 19.640908 
L 66.211336 19.674813 
L 65.928333 19.713214 
L 65.645975 19.7561 
L 65.364333 19.80346 
L 65.083478 19.855283 
L 64.80348 19.911556 
L 64.52441 19.972264 
L 64.246339 20.037392 
L 63.969336 20.106923 
L 63.693471 20.180841 
L 63.418814 20.259126 
L 63.145433 20.34176 
L 62.873398 20.42872 
L 62.602777 20.519985 
L 62.333637 20.615533 
L 62.066048 20.715339 
L 61.800076 20.819377 
L 61.535788 20.927623 
L 61.27325 21.040048 
L 61.01253 21.156624 
L 60.753692 21.277322 
L 60.496801 21.402112 
L 60.241923 21.530962 
L 59.989121 21.663839 
L 59.738459 21.800711 
L 59.49 21.941543 
L 59.243807 22.086299 
L 58.999942 22.234942 
L 58.758465 22.387436 
L 58.519439 22.543743 
L 58.282922 22.703822 
L 58.048976 22.867633 
L 57.817657 23.035135 
L 57.589026 23.206287 
L 57.363138 23.381044 
L 57.140052 23.559364 
L 56.919823 23.7412 
L 56.702507 23.926508 
L 56.488158 24.11524 
L 56.276831 24.307349 
L 56.068578 24.502787 
L 55.863452 24.701505 
L 55.661505 24.903452 
L 55.462787 25.108578 
L 55.267349 25.316831 
L 55.07524 25.528158 
L 54.886508 25.742507 
L 54.7012 25.959823 
L 54.519364 26.180052 
L 54.341044 26.403138 
L 54.166287 26.629026 
L 53.995135 26.857657 
L 53.827633 27.088976 
L 53.663822 27.322922 
L 53.503743 27.559439 
L 53.347436 27.798465 
L 53.194942 28.039942 
L 53.046299 28.283807 
L 52.901543 28.53 
L 52.760711 28.778459 
L 52.623839 29.029121 
L 52.490962 29.281923 
L 52.362112 29.536801 
L 52.237322 29.793692 
L 52.116624 30.05253 
L 52.000048 30.31325 
L 51.887623 30.575788 
L 51.779377 30.840076 
L 51.675339 31.106048 
L 51.575533 31.373637 
L 51.479985 31.642777 
L 51.38872 31.913398 
L 51.30176 32.185433 
L 51.219126 32.458814 
L 51.140841 32.733471 
L 51.066923 33.009336 
L 50.997392 33.286339 
L 50.932264 33.56441 
L 50.871556 33.84348 
L 50.815283 34.123478 
L 50.76346 34.404333 
L 50.7161 34.685975 
L 50.673214 34.968333 
L 50.634813 35.251336 
L 50.600908 35.534912 
L 50.571505 35.818991 
L 50.546614 36.103501 
L 50.52624 36.388369 
L 50.510388 36.673526 
L 50.499062 36.958897 
L 50.492266 37.244413 
L 50.49 37.53 
L 50.49 37.53 
L 50.492266 37.815587 
L 50.499062 38.101103 
L 50.510388 38.386474 
L 50.52624 38.671631 
L 50.546614 38.956499 
L 50.571505 39.241009 
L 50.600908 39.525088 
L 50.634813 39.808664 
L 50.673214 40.091667 
L 50.7161 40.374025 
L 50.76346 40.655667 
L 50.815283 40.936522 
L 50.871556 41.21652 
L 50.932264 41.49559 
L 50.997392 41.773661 
L 51.066923 42.050664 
L 51.140841 42.326529 
L 51.219126 42.601186 
L 51.30176 42.874567 
L 51.38872 43.146602 
L 51.479985 43.417223 
L 51.575533 43.686363 
L 51.675339 43.953952 
L 51.779377 44.219924 
L 51.887623 44.484212 
L 52.000048 44.74675 
L 52.116624 45.00747 
L 52.237322 45.266308 
L 52.362112 45.523199 
L 52.490962 45.778077 
L 52.623839 46.030879 
L 52.760711 46.281541 
L 52.901543 46.53 
L 53.046299 46.776193 
L 53.194942 47.020058 
L 53.347436 47.261535 
L 53.503743 47.500561 
L 53.663822 47.737078 
L 53.827633 47.971024 
L 53.995135 48.202343 
L 54.166287 48.430974 
L 54.341044 48.656862 
L 54.519364 48.879948 
L 54.7012 49.100177 
L 54.886508 49.317493 
L 55.07524 49.531842 
L 55.267349 49.743169 
L 55.462787 49.951422 
L 55.661505 50.156548 
L 55.863452 50.358495 
L 56.068578 50.557213 
L 56.276831 50.752651 
L 56.488158 50.94476 
L 56.702507 51.133492 
L 56.919823 51.3188 
L 57.140052 51.500636 
L 57.363138 51.678956 
L 57.589026 51.853713 
L 57.817657 52.024865 
L 58.048976 52.192367 
L 58.282922 52.356178 
L 58.519439 52.516257 
L 58.758465 52.672564 
L 58.999942 52.825058 
L 59.243807 52.973701 
L 59.49 53.118457 
L 59.738459 53.259289 
L 59.989121 53.396161 
L 60.241923 53.529038 
L 60.496801 53.657888 
L 60.753692 53.782678 
L 61.01253 53.903376 
L 61.27325 54.019952 
L 61.535788 54.132377 
L 61.800076 54.240623 
L 62.066048 54.344661 
L 62.333637 54.444467 
L 62.602777 54.540015 
L 62.873398 54.63128 
L 63.145433 54.71824 
L 63.418814 54.800874 
L 63.693471 54.879159 
L 63.969336 54.953077 
L 64.246339 55.022608 
L 64.52441 55.087736 
L 64.80348 55.148444 
L 65.083478 55.204717 
L 65.364333 55.25654 
L 65.645975 55.3039 
L 65.928333 55.346786 
L 66.211336 55.385187 
L 66.494912 55.419092 
L 66.778991 55.448495 
L 67.063501 55.473386 
L 67.348369 55.49376 
L 67.633526 55.509612 
L 67.918897 55.520938 
L 68.204413 55.527734 
L 68.49 55.53 
L 104.49 55.53 
z
" clip-path="url(#p174c6cdf49)" style="fill: none; stroke: #000000; stroke-linecap: round"/>
   </g>
   <g id="patch_3">
    <path d="M 32.49 168.93 
L 86.49 145.53 
L 140.49 168.93 
L 86.49 192.33 
L 32.49 168.93 
z
" clip-path="url(#p174c6cdf49)" style="fill: none; stroke: #000000; stroke-linecap: round"/>
   </g>
   <g id="patch_4">
    <path d="M 104.49 338.13 
L 104.775587 338.127734 
L 105.061103 338.120938 
L 105.346474 338.109612 
L 105.631631 338.09376 
L 105.916499 338.073386 
L 106.201009 338.048495 
L 106.485088 338.019092 
L 106.768664 337.985187 
L 107.051667 337.946786 
L 107.334025 337.9039 
L 107.615667 337.85654 
L 107.896522 337.804717 
L 108.17652 337.748444 
L 108.45559 337.687736 
L 108.733661 337.622608 
L 109.010664 337.553077 
L 109.286529 337.479159 
L 109.561186 337.400874 
L 109.834567 337.31824 
L 110.106602 337.23128 
L 110.377223 337.140015 
L 110.646363 337.044467 
L 110.913952 336.944661 
L 111.179924 336.840623 
L 111.444212 336.732377 
L 111.70675 336.619952 
L 111.96747 336.503376 
L 112.226308 336.382678 
L 112.483199 336.257888 
L 112.738077 336.129038 
L 112.990879 335.996161 
L 113.241541 335.859289 
L 113.49 335.718457 
L 113.736193 335.573701 
L 113.980058 335.425058 
L 114.221535 335.272564 
L 114.460561 335.116257 
L 114.697078 334.956178 
L 114.931024 334.792367 
L 115.162343 334.624865 
L 115.390974 334.453713 
L 115.616862 334.278956 
L 115.839948 334.100636 
L 116.060177 333.9188 
L 116.277493 333.733492 
L 116.491842 333.54476 
L 116.703169 333.352651 
L 116.911422 333.157213 
L 117.116548 332.958495 
L 117.318495 332.756548 
L 117.517213 332.551422 
L 117.712651 332.343169 
L 117.90476 332.131842 
L 118.093492 331.917493 
L 118.2788 331.700177 
L 118.460636 331.479948 
L 118.638956 331.256862 
L 118.813713 331.030974 
L 118.984865 330.802343 
L 119.152367 330.571024 
L 119.316178 330.337078 
L 119.476257 330.100561 
L 119.632564 329.861535 
L 119.785058 329.620058 
L 119.933701 329.376193 
L 120.078457 329.13 
L 120.219289 328.881541 
L 120.356161 328.630879 
L 120.489038 328.378077 
L 120.617888 328.123199 
L 120.742678 327.866308 
L 120.863376 327.60747 
L 120.979952 327.34675 
L 121.092377 327.084212 
L 121.200623 326.819924 
L 121.304661 326.553952 
L 121.404467 326.286363 
L 121.500015 326.017223 
L 121.59128 325.746602 
L 121.67824 325.474567 
L 121.760874 325.201186 
L 121.839159 324.926529 
L 121.913077 324.650664 
L 121.982608 324.373661 
L 122.047736 324.09559 
L 122.108444 323.81652 
L 122.164717 323.536522 
L 122.21654 323.255667 
L 122.2639 322.974025 
L 122.306786 322.691667 
L 122.345187 322.408664 
L 122.379092 322.125088 
L 122.408495 321.841009 
L 122.433386 321.556499 
L 122.45376 321.271631 
L 122.469612 320.986474 
L 122.480938 320.701103 
L 122.487734 320.415587 
L 122.49 320.13 
L 122.49 320.13 
L 122.487734 319.844413 
L 122.480938 319.558897 
L 122.469612 319.273526 
L 122.45376 318.988369 
L 122.433386 318.703501 
L 122.408495 318.418991 
L 122.379092 318.134912 
L 122.345187 317.851336 
L 122.306786 317.568333 
L 122.2639 317.285975 
L 122.21654 317.004333 
L 122.164717 316.723478 
L 122.108444 316.44348 
L 122.047736 316.16441 
L 121.982608 315.886339 
L 121.913077 315.609336 
L 121.839159 315.333471 
L 121.760874 315.058814 
L 121.67824 314.785433 
L 121.59128 314.513398 
L 121.500015 314.242777 
L 121.404467 313.973637 
L 121.304661 313.706048 
L 121.200623 313.440076 
L 121.092377 313.175788 
L 120.979952 312.91325 
L 120.863376 312.65253 
L 120.742678 312.393692 
L 120.617888 312.136801 
L 120.489038 311.881923 
L 120.356161 311.629121 
L 120.219289 311.378459 
L 120.078457 311.13 
L 119.933701 310.883807 
L 119.785058 310.639942 
L 119.632564 310.398465 
L 119.476257 310.159439 
L 119.316178 309.922922 
L 119.152367 309.688976 
L 118.984865 309.457657 
L 118.813713 309.229026 
L 118.638956 309.003138 
L 118.460636 308.780052 
L 118.2788 308.559823 
L 118.093492 308.342507 
L 117.90476 308.128158 
L 117.712651 307.916831 
L 117.517213 307.708578 
L 117.318495 307.503452 
L 117.116548 307.301505 
L 116.911422 307.102787 
L 116.703169 306.907349 
L 116.491842 306.71524 
L 116.277493 306.526508 
L 116.060177 306.3412 
L 115.839948 306.159364 
L 115.616862 305.981044 
L 115.390974 305.806287 
L 115.162343 305.635135 
L 114.931024 305.467633 
L 114.697078 305.303822 
L 114.460561 305.143743 
L 114.221535 304.987436 
L 113.980058 304.834942 
L 113.736193 304.686299 
L 113.49 304.541543 
L 113.241541 304.400711 
L 112.990879 304.263839 
L 112.738077 304.130962 
L 112.483199 304.002112 
L 112.226308 303.877322 
L 111.96747 303.756624 
L 111.70675 303.640048 
L 111.444212 303.527623 
L 111.179924 303.419377 
L 110.913952 303.315339 
L 110.646363 303.215533 
L 110.377223 303.119985 
L 110.106602 303.02872 
L 109.834567 302.94176 
L 109.561186 302.859126 
L 109.286529 302.780841 
L 109.010664 302.706923 
L 108.733661 302.637392 
L 108.45559 302.572264 
L 108.17652 302.511556 
L 107.896522 302.455283 
L 107.615667 302.40346 
L 107.334025 302.3561 
L 107.051667 302.313214 
L 106.768664 302.274813 
L 106.485088 302.240908 
L 106.201009 302.211505 
L 105.916499 302.186614 
L 105.631631 302.16624 
L 105.346474 302.150388 
L 105.061103 302.139062 
L 104.775587 302.132266 
L 104.49 302.13 
L 68.49 302.13 
L 68.204413 302.132266 
L 67.918897 302.139062 
L 67.633526 302.150388 
L 67.348369 302.16624 
L 67.063501 302.186614 
L 66.778991 302.211505 
L 66.494912 302.240908 
L 66.211336 302.274813 
L 65.928333 302.313214 
L 65.645975 302.3561 
L 65.364333 302.40346 
L 65.083478 302.455283 
L 64.80348 302.511556 
L 64.52441 302.572264 
L 64.246339 302.637392 
L 63.969336 302.706923 
L 63.693471 302.780841 
L 63.418814 302.859126 
L 63.145433 302.94176 
L 62.873398 303.02872 
L 62.602777 303.119985 
L 62.333637 303.215533 
L 62.066048 303.315339 
L 61.800076 303.419377 
L 61.535788 303.527623 
L 61.27325 303.640048 
L 61.01253 303.756624 
L 60.753692 303.877322 
L 60.496801 304.002112 
L 60.241923 304.130962 
L 59.989121 304.263839 
L 59.738459 304.400711 
L 59.49 304.541543 
L 59.243807 304.686299 
L 58.999942 304.834942 
L 58.758465 304.987436 
L 58.519439 305.143743 
L 58.282922 305.303822 
L 58.048976 305.467633 
L 57.817657 305.635135 
L 57.589026 305.806287 
L 57.363138 305.981044 
L 57.140052 306.159364 
L 56.919823 306.3412 
L 56.702507 306.526508 
L 56.488158 306.71524 
L 56.276831 306.907349 
L 56.068578 307.102787 
L 55.863452 307.301505 
L 55.661505 307.503452 
L 55.462787 307.708578 
L 55.267349 307.916831 
L 55.07524 308.128158 
L 54.886508 308.342507 
L 54.7012 308.559823 
L 54.519364 308.780052 
L 54.341044 309.003138 
L 54.166287 309.229026 
L 53.995135 309.457657 
L 53.827633 309.688976 
L 53.663822 309.922922 
L 53.503743 310.159439 
L 53.347436 310.398465 
L 53.194942 310.639942 
L 53.046299 310.883807 
L 52.901543 311.13 
L 52.760711 311.378459 
L 52.623839 311.629121 
L 52.490962 311.881923 
L 52.362112 312.136801 
L 52.237322 312.393692 
L 52.116624 312.65253 
L 52.000048 312.91325 
L 51.887623 313.175788 
L 51.779377 313.440076 
L 51.675339 313.706048 
L 51.575533 313.973637 
L 51.479985 314.242777 
L 51.38872 314.513398 
L 51.30176 314.785433 
L 51.219126 315.058814 
L 51.140841 315.333471 
L 51.066923 315.609336 
L 50.997392 315.886339 
L 50.932264 316.16441 
L 50.871556 316.44348 
L 50.815283 316.723478 
L 50.76346 317.004333 
L 50.7161 317.285975 
L 50.673214 317.568333 
L 50.634813 317.851336 
L 50.600908 318.134912 
L 50.571505 318.418991 
L 50.546614 318.703501 
L 50.52624 318.988369 
L 50.510388 319.273526 
L 50.499062 319.558897 
L 50.492266 319.844413 
L 50.49 320.13 
L 50.49 320.13 
L 50.492266 320.415587 
L 50.499062 320.701103 
L 50.510388 320.986474 
L 50.52624 321.271631 
L 50.546614 321.556499 
L 50.571505 321.841009 
L 50.600908 322.125088 
L 50.634813 322.408664 
L 50.673214 322.691667 
L 50.7161 322.974025 
L 50.76346 323.255667 
L 50.815283 323.536522 
L 50.871556 323.81652 
L 50.932264 324.09559 
L 50.997392 324.373661 
L 51.066923 324.650664 
L 51.140841 324.926529 
L 51.219126 325.201186 
L 51.30176 325.474567 
L 51.38872 325.746602 
L 51.479985 326.017223 
L 51.575533 326.286363 
L 51.675339 326.553952 
L 51.779377 326.819924 
L 51.887623 327.084212 
L 52.000048 327.34675 
L 52.116624 327.60747 
L 52.237322 327.866308 
L 52.362112 328.123199 
L 52.490962 328.378077 
L 52.623839 328.630879 
L 52.760711 328.881541 
L 52.901543 329.13 
L 53.046299 329.376193 
L 53.194942 329.620058 
L 53.347436 329.861535 
L 53.503743 330.100561 
L 53.663822 330.337078 
L 53.827633 330.571024 
L 53.995135 330.802343 
L 54.166287 331.030974 
L 54.341044 331.256862 
L 54.519364 331.479948 
L 54.7012 331.700177 
L 54.886508 331.917493 
L 55.07524 332.131842 
L 55.267349 332.343169 
L 55.462787 332.551422 
L 55.661505 332.756548 
L 55.863452 332.958495 
L 56.068578 333.157213 
L 56.276831 333.352651 
L 56.488158 333.54476 
L 56.702507 333.733492 
L 56.919823 333.9188 
L 57.140052 334.100636 
L 57.363138 334.278956 
L 57.589026 334.453713 
L 57.817657 334.624865 
L 58.048976 334.792367 
L 58.282922 334.956178 
L 58.519439 335.116257 
L 58.758465 335.272564 
L 58.999942 335.425058 
L 59.243807 335.573701 
L 59.49 335.718457 
L 59.738459 335.859289 
L 59.989121 335.996161 
L 60.241923 336.129038 
L 60.496801 336.257888 
L 60.753692 336.382678 
L 61.01253 336.503376 
L 61.27325 336.619952 
L 61.535788 336.732377 
L 61.800076 336.840623 
L 62.066048 336.944661 
L 62.333637 337.044467 
L 62.602777 337.140015 
L 62.873398 337.23128 
L 63.145433 337.31824 
L 63.418814 337.400874 
L 63.693471 337.479159 
L 63.969336 337.553077 
L 64.246339 337.622608 
L 64.52441 337.687736 
L 64.80348 337.748444 
L 65.083478 337.804717 
L 65.364333 337.85654 
L 65.645975 337.9039 
L 65.928333 337.946786 
L 66.211336 337.985187 
L 66.494912 338.019092 
L 66.778991 338.048495 
L 67.063501 338.073386 
L 67.348369 338.09376 
L 67.633526 338.109612 
L 67.918897 338.120938 
L 68.204413 338.127734 
L 68.49 338.13 
L 104.49 338.13 
z
" clip-path="url(#p174c6cdf49)" style="fill: none; stroke: #000000; stroke-linecap: round"/>
   </g>
   <g id="patch_5">
    <path d="M 297.09 255.33 
L 297.375587 255.327734 
L 297.661103 255.320938 
L 297.946474 255.309612 
L 298.231631 255.29376 
L 298.516499 255.273386 
L 298.801009 255.248495 
L 299.085088 255.219092 
L 299.368664 255.185187 
L 299.651667 255.146786 
L 299.934025 255.1039 
L 300.215667 255.05654 
L 300.496522 255.004717 
L 300.77652 254.948444 
L 301.05559 254.887736 
L 301.333661 254.822608 
L 301.610664 254.753077 
L 301.886529 254.679159 
L 302.161186 254.600874 
L 302.434567 254.51824 
L 302.706602 254.43128 
L 302.977223 254.340015 
L 303.246363 254.244467 
L 303.513952 254.144661 
L 303.779924 254.040623 
L 304.044212 253.932377 
L 304.30675 253.819952 
L 304.56747 253.703376 
L 304.826308 253.582678 
L 305.083199 253.457888 
L 305.338077 253.329038 
L 305.590879 253.196161 
L 305.841541 253.059289 
L 306.09 252.918457 
L 306.336193 252.773701 
L 306.580058 252.625058 
L 306.821535 252.472564 
L 307.060561 252.316257 
L 307.297078 252.156178 
L 307.531024 251.992367 
L 307.762343 251.824865 
L 307.990974 251.653713 
L 308.216862 251.478956 
L 308.439948 251.300636 
L 308.660177 251.1188 
L 308.877493 250.933492 
L 309.091842 250.74476 
L 309.303169 250.552651 
L 309.511422 250.357213 
L 309.716548 250.158495 
L 309.918495 249.956548 
L 310.117213 249.751422 
L 310.312651 249.543169 
L 310.50476 249.331842 
L 310.693492 249.117493 
L 310.8788 248.900177 
L 311.060636 248.679948 
L 311.238956 248.456862 
L 311.413713 248.230974 
L 311.584865 248.002343 
L 311.752367 247.771024 
L 311.916178 247.537078 
L 312.076257 247.300561 
L 312.232564 247.061535 
L 312.385058 246.820058 
L 312.533701 246.576193 
L 312.678457 246.33 
L 312.819289 246.081541 
L 312.956161 245.830879 
L 313.089038 245.578077 
L 313.217888 245.323199 
L 313.342678 245.066308 
L 313.463376 244.80747 
L 313.579952 244.54675 
L 313.692377 244.284212 
L 313.800623 244.019924 
L 313.904661 243.753952 
L 314.004467 243.486363 
L 314.100015 243.217223 
L 314.19128 242.946602 
L 314.27824 242.674567 
L 314.360874 242.401186 
L 314.439159 242.126529 
L 314.513077 241.850664 
L 314.582608 241.573661 
L 314.647736 241.29559 
L 314.708444 241.01652 
L 314.764717 240.736522 
L 314.81654 240.455667 
L 314.8639 240.174025 
L 314.906786 239.891667 
L 314.945187 239.608664 
L 314.979092 239.325088 
L 315.008495 239.041009 
L 315.033386 238.756499 
L 315.05376 238.471631 
L 315.069612 238.186474 
L 315.080938 237.901103 
L 315.087734 237.615587 
L 315.09 237.33 
L 315.09 237.33 
L 315.087734 237.044413 
L 315.080938 236.758897 
L 315.069612 236.473526 
L 315.05376 236.188369 
L 315.033386 235.903501 
L 315.008495 235.618991 
L 314.979092 235.334912 
L 314.945187 235.051336 
L 314.906786 234.768333 
L 314.8639 234.485975 
L 314.81654 234.204333 
L 314.764717 233.923478 
L 314.708444 233.64348 
L 314.647736 233.36441 
L 314.582608 233.086339 
L 314.513077 232.809336 
L 314.439159 232.533471 
L 314.360874 232.258814 
L 314.27824 231.985433 
L 314.19128 231.713398 
L 314.100015 231.442777 
L 314.004467 231.173637 
L 313.904661 230.906048 
L 313.800623 230.640076 
L 313.692377 230.375788 
L 313.579952 230.11325 
L 313.463376 229.85253 
L 313.342678 229.593692 
L 313.217888 229.336801 
L 313.089038 229.081923 
L 312.956161 228.829121 
L 312.819289 228.578459 
L 312.678457 228.33 
L 312.533701 228.083807 
L 312.385058 227.839942 
L 312.232564 227.598465 
L 312.076257 227.359439 
L 311.916178 227.122922 
L 311.752367 226.888976 
L 311.584865 226.657657 
L 311.413713 226.429026 
L 311.238956 226.203138 
L 311.060636 225.980052 
L 310.8788 225.759823 
L 310.693492 225.542507 
L 310.50476 225.328158 
L 310.312651 225.116831 
L 310.117213 224.908578 
L 309.918495 224.703452 
L 309.716548 224.501505 
L 309.511422 224.302787 
L 309.303169 224.107349 
L 309.091842 223.91524 
L 308.877493 223.726508 
L 308.660177 223.5412 
L 308.439948 223.359364 
L 308.216862 223.181044 
L 307.990974 223.006287 
L 307.762343 222.835135 
L 307.531024 222.667633 
L 307.297078 222.503822 
L 307.060561 222.343743 
L 306.821535 222.187436 
L 306.580058 222.034942 
L 306.336193 221.886299 
L 306.09 221.741543 
L 305.841541 221.600711 
L 305.590879 221.463839 
L 305.338077 221.330962 
L 305.083199 221.202112 
L 304.826308 221.077322 
L 304.56747 220.956624 
L 304.30675 220.840048 
L 304.044212 220.727623 
L 303.779924 220.619377 
L 303.513952 220.515339 
L 303.246363 220.415533 
L 302.977223 220.319985 
L 302.706602 220.22872 
L 302.434567 220.14176 
L 302.161186 220.059126 
L 301.886529 219.980841 
L 301.610664 219.906923 
L 301.333661 219.837392 
L 301.05559 219.772264 
L 300.77652 219.711556 
L 300.496522 219.655283 
L 300.215667 219.60346 
L 299.934025 219.5561 
L 299.651667 219.513214 
L 299.368664 219.474813 
L 299.085088 219.440908 
L 298.801009 219.411505 
L 298.516499 219.386614 
L 298.231631 219.36624 
L 297.946474 219.350388 
L 297.661103 219.339062 
L 297.375587 219.332266 
L 297.09 219.33 
L 261.09 219.33 
L 260.804413 219.332266 
L 260.518897 219.339062 
L 260.233526 219.350388 
L 259.948369 219.36624 
L 259.663501 219.386614 
L 259.378991 219.411505 
L 259.094912 219.440908 
L 258.811336 219.474813 
L 258.528333 219.513214 
L 258.245975 219.5561 
L 257.964333 219.60346 
L 257.683478 219.655283 
L 257.40348 219.711556 
L 257.12441 219.772264 
L 256.846339 219.837392 
L 256.569336 219.906923 
L 256.293471 219.980841 
L 256.018814 220.059126 
L 255.745433 220.14176 
L 255.473398 220.22872 
L 255.202777 220.319985 
L 254.933637 220.415533 
L 254.666048 220.515339 
L 254.400076 220.619377 
L 254.135788 220.727623 
L 253.87325 220.840048 
L 253.61253 220.956624 
L 253.353692 221.077322 
L 253.096801 221.202112 
L 252.841923 221.330962 
L 252.589121 221.463839 
L 252.338459 221.600711 
L 252.09 221.741543 
L 251.843807 221.886299 
L 251.599942 222.034942 
L 251.358465 222.187436 
L 251.119439 222.343743 
L 250.882922 222.503822 
L 250.648976 222.667633 
L 250.417657 222.835135 
L 250.189026 223.006287 
L 249.963138 223.181044 
L 249.740052 223.359364 
L 249.519823 223.5412 
L 249.302507 223.726508 
L 249.088158 223.91524 
L 248.876831 224.107349 
L 248.668578 224.302787 
L 248.463452 224.501505 
L 248.261505 224.703452 
L 248.062787 224.908578 
L 247.867349 225.116831 
L 247.67524 225.328158 
L 247.486508 225.542507 
L 247.3012 225.759823 
L 247.119364 225.980052 
L 246.941044 226.203138 
L 246.766287 226.429026 
L 246.595135 226.657657 
L 246.427633 226.888976 
L 246.263822 227.122922 
L 246.103743 227.359439 
L 245.947436 227.598465 
L 245.794942 227.839942 
L 245.646299 228.083807 
L 245.501543 228.33 
L 245.360711 228.578459 
L 245.223839 228.829121 
L 245.090962 229.081923 
L 244.962112 229.336801 
L 244.837322 229.593692 
L 244.716624 229.85253 
L 244.600048 230.11325 
L 244.487623 230.375788 
L 244.379377 230.640076 
L 244.275339 230.906048 
L 244.175533 231.173637 
L 244.079985 231.442777 
L 243.98872 231.713398 
L 243.90176 231.985433 
L 243.819126 232.258814 
L 243.740841 232.533471 
L 243.666923 232.809336 
L 243.597392 233.086339 
L 243.532264 233.36441 
L 243.471556 233.64348 
L 243.415283 233.923478 
L 243.36346 234.204333 
L 243.3161 234.485975 
L 243.273214 234.768333 
L 243.234813 235.051336 
L 243.200908 235.334912 
L 243.171505 235.618991 
L 243.146614 235.903501 
L 243.12624 236.188369 
L 243.110388 236.473526 
L 243.099062 236.758897 
L 243.092266 237.044413 
L 243.09 237.33 
L 243.09 237.33 
L 243.092266 237.615587 
L 243.099062 237.901103 
L 243.110388 238.186474 
L 243.12624 238.471631 
L 243.146614 238.756499 
L 243.171505 239.041009 
L 243.200908 239.325088 
L 243.234813 239.608664 
L 243.273214 239.891667 
L 243.3161 240.174025 
L 243.36346 240.455667 
L 243.415283 240.736522 
L 243.471556 241.01652 
L 243.532264 241.29559 
L 243.597392 241.573661 
L 243.666923 241.850664 
L 243.740841 242.126529 
L 243.819126 242.401186 
L 243.90176 242.674567 
L 243.98872 242.946602 
L 244.079985 243.217223 
L 244.175533 243.486363 
L 244.275339 243.753952 
L 244.379377 244.019924 
L 244.487623 244.284212 
L 244.600048 244.54675 
L 244.716624 244.80747 
L 244.837322 245.066308 
L 244.962112 245.323199 
L 245.090962 245.578077 
L 245.223839 245.830879 
L 245.360711 246.081541 
L 245.501543 246.33 
L 245.646299 246.576193 
L 245.794942 246.820058 
L 245.947436 247.061535 
L 246.103743 247.300561 
L 246.263822 247.537078 
L 246.427633 247.771024 
L 246.595135 248.002343 
L 246.766287 248.230974 
L 246.941044 248.456862 
L 247.119364 248.679948 
L 247.3012 248.900177 
L 247.486508 249.117493 
L 247.67524 249.331842 
L 247.867349 249.543169 
L 248.062787 249.751422 
L 248.261505 249.956548 
L 248.463452 250.158495 
L 248.668578 250.357213 
L 248.876831 250.552651 
L 249.088158 250.74476 
L 249.302507 250.933492 
L 249.519823 251.1188 
L 249.740052 251.300636 
L 249.963138 251.478956 
L 250.189026 251.653713 
L 250.417657 251.824865 
L 250.648976 251.992367 
L 250.882922 252.156178 
L 251.119439 252.316257 
L 251.358465 252.472564 
L 251.599942 252.625058 
L 251.843807 252.773701 
L 252.09 252.918457 
L 252.338459 253.059289 
L 252.589121 253.196161 
L 252.841923 253.329038 
L 253.096801 253.457888 
L 253.353692 253.582678 
L 253.61253 253.703376 
L 253.87325 253.819952 
L 254.135788 253.932377 
L 254.400076 254.040623 
L 254.666048 254.144661 
L 254.933637 254.244467 
L 255.202777 254.340015 
L 255.473398 254.43128 
L 255.745433 254.51824 
L 256.018814 254.600874 
L 256.293471 254.679159 
L 256.569336 254.753077 
L 256.846339 254.822608 
L 257.12441 254.887736 
L 257.40348 254.948444 
L 257.683478 255.004717 
L 257.964333 255.05654 
L 258.245975 255.1039 
L 258.528333 255.146786 
L 258.811336 255.185187 
L 259.094912 255.219092 
L 259.378991 255.248495 
L 259.663501 255.273386 
L 259.948369 255.29376 
L 260.233526 255.309612 
L 260.518897 255.320938 
L 260.804413 255.327734 
L 261.09 255.33 
L 297.09 255.33 
z
" clip-path="url(#p174c6cdf49)" style="fill: none; stroke: #000000; stroke-linecap: round"/>
   </g>
   <g id="line2d_1">
    <path d="M 86.49 55.53 
L 86.49 69.03 
L 86.49 73.53 
" clip-path="url(#p174c6cdf49)" style="fill: none; stroke: #000000; stroke-linecap: round"/>
   </g>
   <g id="patch_6">
    <path d="M 89.19 73.53 
L 86.49 82.53 
L 83.79 73.53 
z
" clip-path="url(#p174c6cdf49)"/>
   </g>
   <g id="line2d_2">
    <path d="M 50.49 100.53 
L 50.49 82.53 
L 122.49 82.53 
L 122.49 118.53 
L 50.49 118.53 
L 50.49 100.53 
" clip-path="url(#p174c6cdf49)" style="fill: none; stroke: #000000; stroke-linecap: round"/>
   </g>
   <g id="line2d_3">
    <path d="M 86.49 118.53 
L 86.49 132.03 
L 86.49 136.53 
" clip-path="url(#p174c6cdf49)" style="fill: none; stroke: #000000; stroke-linecap: round"/>
   </g>
   <g id="patch_7">
    <path d="M 89.19 136.53 
L 86.49 145.53 
L 83.79 136.53 
z
" clip-path="url(#p174c6cdf49)"/>
   </g>
   <g id="line2d_4">
    <path d="M 86.49 192.33 
L 86.49 210.33 
L 86.49 219.33 
" clip-path="url(#p174c6cdf49)" style="fill: none; stroke: #000000; stroke-linecap: round"/>
   </g>
   <g id="patch_8">
    <path d="M 89.19 219.33 
L 86.49 228.33 
L 83.79 219.33 
z
" clip-path="url(#p174c6cdf49)"/>
   </g>
   <g id="line2d_5">
    <path d="M 19.89 251.73 
L 19.89 228.33 
L 153.09 228.33 
L 153.09 275.13 
L 19.89 275.13 
L 19.89 251.73 
" clip-path="url(#p174c6cdf49)" style="fill: none; stroke: #000000; stroke-linecap: round"/>
   </g>
   <g id="line2d_6">
    <path d="M 86.49 275.13 
L 86.49 288.63 
L 86.49 293.13 
" clip-path="url(#p174c6cdf49)" style="fill: none; stroke: #000000; stroke-linecap: round"/>
   </g>
   <g id="patch_9">
    <path d="M 89.19 293.13 
L 86.49 302.13 
L 83.79 293.13 
z
" clip-path="url(#p174c6cdf49)"/>
   </g>
   <g id="line2d_7">
    <path d="M 140.49 168.93 
L 176.49 168.93 
L 203.49 168.93 
" clip-path="url(#p174c6cdf49)" style="fill: none; stroke: #000000; stroke-linecap: round"/>
   </g>
   <g id="patch_10">
    <path d="M 203.49 166.23 
L 212.49 168.93 
L 203.49 171.63 
z
" clip-path="url(#p174c6cdf49)"/>
   </g>
   <g id="line2d_8">
    <path d="M 212.49 168.93 
L 212.49 145.53 
L 345.69 145.53 
L 345.69 192.33 
L 212.49 192.33 
L 212.49 168.93 
" clip-path="url(#p174c6cdf49)" style="fill: none; stroke: #000000; stroke-linecap: round"/>
   </g>
   <g id="line2d_9">
    <path d="M 279.09 192.33 
L 279.09 205.83 
L 279.09 210.33 
" clip-path="url(#p174c6cdf49)" style="fill: none; stroke: #000000; stroke-linecap: round"/>
   </g>
   <g id="patch_11">
    <path d="M 281.79 210.33 
L 279.09 219.33 
L 276.39 210.33 
z
" clip-path="url(#p174c6cdf49)"/>
   </g>
   <g id="text_1">
    <!-- START -->
    <g transform="translate(67.313242 41.024141) scale(0.125 -0.125)">
     <defs>
      <path id="IPAexGothic-53" d="M 2919 3641 
Q 2563 4259 1853 4259 
Q 1453 4259 1213 4009 
Q 1028 3803 1028 3534 
Q 1028 3238 1266 3047 
Q 1444 2913 1984 2688 
L 2200 2597 
Q 2925 2306 3191 1953 
Q 3422 1644 3422 1259 
Q 3422 644 2969 288 
Q 2559 -31 1931 -31 
Q 881 -31 313 766 
L 753 1100 
Q 1203 459 1938 459 
Q 2288 459 2534 625 
Q 2841 847 2841 1216 
Q 2841 1503 2616 1728 
Q 2375 1959 1728 2206 
L 1541 2278 
Q 453 2694 453 3481 
Q 453 4006 806 4347 
Q 1203 4725 1863 4725 
Q 2841 4725 3359 3956 
L 2919 3641 
z
" transform="scale(0.015625)"/>
      <path id="IPAexGothic-54" d="M 3866 4141 
L 2175 4141 
L 2175 63 
L 1606 63 
L 1606 4141 
L -31 4141 
L -31 4634 
L 3866 4634 
L 3866 4141 
z
" transform="scale(0.015625)"/>
      <path id="IPAexGothic-41" d="M 4056 63 
L 3444 63 
L 2938 1409 
L 1100 1409 
L 603 63 
L -6 63 
L 1806 4666 
L 2259 4666 
L 4056 63 
z
M 2778 1863 
L 2316 3078 
Q 2125 3588 2028 4000 
L 2009 4000 
Q 1897 3563 1716 3078 
L 1263 1863 
L 2778 1863 
z
" transform="scale(0.015625)"/>
      <path id="IPAexGothic-52" d="M 4072 63 
L 3394 63 
Q 3138 641 2828 1197 
Q 2584 1641 2344 1825 
Q 2050 2044 1625 2044 
L 1172 2044 
L 1172 63 
L 609 63 
L 609 4634 
L 2009 4634 
Q 2713 4634 3131 4378 
Q 3688 4044 3688 3381 
Q 3688 2784 3181 2459 
Q 2906 2272 2522 2216 
L 2522 2197 
Q 2941 2050 3247 1581 
Q 3516 1166 4072 63 
z
M 1172 2478 
L 1869 2478 
Q 3106 2478 3106 3369 
Q 3106 4181 1928 4181 
L 1172 4181 
L 1172 2478 
z
" transform="scale(0.015625)"/>
     </defs>
     <use xlink:href="#IPAexGothic-53"/>
     <use xlink:href="#IPAexGothic-54" x="58.496094"/>
     <use xlink:href="#IPAexGothic-41" x="118.408203"/>
     <use xlink:href="#IPAexGothic-52" x="182.128906"/>
     <use xlink:href="#IPAexGothic-54" x="246.923828"/>
    </g>
   </g>
   <g id="text_2">
    <!-- x = 10 -->
    <g transform="translate(67.948008 104.024141) scale(0.125 -0.125)">
     <defs>
      <path id="IPAexGothic-78" d="M 3050 63 
L 2419 63 
L 1547 1338 
L 691 63 
L 56 63 
L 1247 1675 
L 106 3250 
L 747 3250 
L 1578 2016 
L 2413 3250 
L 3019 3250 
L 1875 1681 
L 3050 63 
z
" transform="scale(0.015625)"/>
      <path id="IPAexGothic-20" transform="scale(0.015625)"/>
      <path id="IPAexGothic-3d" d="M 416 2803 
L 3922 2803 
L 3922 2438 
L 416 2438 
L 416 2803 
z
M 416 1625 
L 3922 1625 
L 3922 1259 
L 416 1259 
L 416 1625 
z
" transform="scale(0.015625)"/>
      <path id="IPAexGothic-31" d="M 2463 63 
L 1900 63 
L 1900 4103 
Q 1372 3922 788 3797 
L 684 4231 
Q 1519 4441 2106 4731 
L 2463 4731 
L 2463 63 
z
" transform="scale(0.015625)"/>
      <path id="IPAexGothic-30" d="M 2038 4725 
Q 2881 4725 3334 3944 
Q 3694 3325 3694 2344 
Q 3694 1372 3334 741 
Q 2888 -31 2016 -31 
Q 1147 -31 700 741 
Q 341 1372 341 2350 
Q 341 3713 1000 4334 
Q 1419 4725 2038 4725 
z
M 2016 4266 
Q 1516 4266 1228 3759 
Q 934 3247 934 2344 
Q 934 1456 1222 947 
Q 1513 447 2016 447 
Q 2619 447 2909 1153 
Q 3100 1622 3100 2375 
Q 3100 3256 2806 3759 
Q 2509 4266 2016 4266 
z
" transform="scale(0.015625)"/>
     </defs>
     <use xlink:href="#IPAexGothic-78"/>
     <use xlink:href="#IPAexGothic-20" x="48.876953"/>
     <use xlink:href="#IPAexGothic-3d" x="75.878906"/>
     <use xlink:href="#IPAexGothic-20" x="143.701172"/>
     <use xlink:href="#IPAexGothic-31" x="170.703125"/>
     <use xlink:href="#IPAexGothic-30" x="233.691406"/>
    </g>
   </g>
   <g id="text_3">
    <!-- True -->
    <g transform="translate(91.17 206.373281) scale(0.125 -0.125)">
     <defs>
      <path id="IPAexGothic-72" d="M 2309 3316 
L 2213 2769 
Q 2106 2791 2022 2791 
Q 1653 2791 1413 2444 
Q 1113 2006 1113 1675 
L 1113 63 
L 563 63 
L 563 3250 
L 1081 3250 
L 1056 2303 
L 1069 2303 
Q 1422 3341 2097 3341 
Q 2206 3341 2309 3316 
z
" transform="scale(0.015625)"/>
      <path id="IPAexGothic-75" d="M 3284 63 
L 2772 63 
L 2772 644 
Q 2300 0 1625 0 
Q 1072 0 763 375 
Q 519 678 519 1241 
L 519 3250 
L 1069 3250 
L 1069 1259 
Q 1069 466 1734 466 
Q 2406 466 2734 1291 
L 2734 3250 
L 3284 3250 
L 3284 63 
z
" transform="scale(0.015625)"/>
      <path id="IPAexGothic-65" d="M 863 1594 
Q 891 1041 1209 722 
Q 1534 397 1997 397 
Q 2606 397 2963 966 
L 3322 728 
Q 2869 -31 1931 -31 
Q 1222 -31 766 422 
Q 306 884 306 1641 
Q 306 2444 788 2925 
Q 1216 3353 1856 3353 
Q 2459 3353 2866 2956 
Q 3322 2494 3322 1722 
L 3322 1594 
L 863 1594 
z
M 2756 1997 
Q 2709 2431 2450 2681 
Q 2194 2938 1844 2938 
Q 1438 2938 1150 2591 
Q 953 2356 894 1997 
L 2756 1997 
z
" transform="scale(0.015625)"/>
     </defs>
     <use xlink:href="#IPAexGothic-54"/>
     <use xlink:href="#IPAexGothic-72" x="59.912109"/>
     <use xlink:href="#IPAexGothic-75" x="96.923828"/>
     <use xlink:href="#IPAexGothic-65" x="157.324219"/>
    </g>
   </g>
   <g id="text_4">
    <!-- False -->
    <g transform="translate(145.17 161.875) scale(0.125 -0.125)">
     <defs>
      <path id="IPAexGothic-46" d="M 3469 4141 
L 1172 4141 
L 1172 2656 
L 3206 2656 
L 3206 2188 
L 1172 2188 
L 1172 63 
L 609 63 
L 609 4634 
L 3469 4634 
L 3469 4141 
z
" transform="scale(0.015625)"/>
      <path id="IPAexGothic-61" d="M 3156 63 
L 2672 63 
Q 2559 303 2531 556 
L 2509 556 
Q 2147 -25 1428 -25 
Q 934 -25 622 288 
Q 347 563 347 959 
Q 347 1947 2050 1997 
L 2478 2009 
L 2478 2175 
Q 2478 2509 2288 2700 
Q 2088 2900 1775 2900 
Q 1238 2900 969 2378 
L 494 2597 
Q 938 3328 1788 3328 
Q 2375 3328 2691 3000 
Q 2984 2706 2984 2169 
L 2984 997 
Q 2984 400 3156 63 
z
M 2491 1625 
L 2141 1619 
Q 903 1591 903 953 
Q 903 728 1050 581 
Q 1231 403 1525 403 
Q 1934 403 2234 703 
Q 2491 969 2491 1344 
L 2491 1625 
z
" transform="scale(0.015625)"/>
      <path id="IPAexGothic-6c" d="M 1131 63 
L 581 63 
L 581 4794 
L 1131 4794 
L 1131 63 
z
" transform="scale(0.015625)"/>
      <path id="IPAexGothic-73" d="M 2234 2547 
Q 1938 2931 1484 2931 
Q 891 2931 891 2475 
Q 891 2153 1531 1944 
L 1741 1875 
Q 2650 1578 2650 894 
Q 2650 434 2272 172 
Q 1972 -31 1497 -31 
Q 766 -31 256 503 
L 603 819 
Q 997 397 1516 397 
Q 2131 397 2131 875 
Q 2131 1238 1453 1478 
L 1234 1553 
Q 378 1853 378 2431 
Q 378 2797 628 3047 
Q 928 3347 1453 3347 
Q 2156 3347 2606 2859 
L 2234 2547 
z
" transform="scale(0.015625)"/>
     </defs>
     <use xlink:href="#IPAexGothic-46"/>
     <use xlink:href="#IPAexGothic-61" x="57.177734"/>
     <use xlink:href="#IPAexGothic-6c" x="112.158203"/>
     <use xlink:href="#IPAexGothic-73" x="139.160156"/>
     <use xlink:href="#IPAexGothic-65" x="185.351562"/>
    </g>
   </g>
   <g id="text_5">
    <!-- x = 10 ? -->
    <g transform="translate(62.818125 172.424141) scale(0.125 -0.125)">
     <defs>
      <path id="IPAexGothic-3f" d="M 225 3425 
Q 503 4725 1763 4725 
Q 2413 4725 2803 4334 
Q 3144 3994 3144 3516 
Q 3144 3081 2838 2716 
Q 2703 2563 2344 2266 
L 2216 2156 
Q 1888 1878 1888 1363 
L 1888 1209 
L 1422 1209 
L 1422 1422 
Q 1422 2050 1881 2491 
L 2022 2625 
L 2075 2669 
Q 2575 3122 2575 3516 
Q 2575 3822 2363 4041 
Q 2128 4278 1763 4278 
Q 963 4278 725 3309 
L 225 3425 
z
M 1978 63 
L 1325 63 
L 1325 728 
L 1978 728 
L 1978 63 
z
" transform="scale(0.015625)"/>
     </defs>
     <use xlink:href="#IPAexGothic-78"/>
     <use xlink:href="#IPAexGothic-20" x="48.876953"/>
     <use xlink:href="#IPAexGothic-3d" x="75.878906"/>
     <use xlink:href="#IPAexGothic-20" x="143.701172"/>
     <use xlink:href="#IPAexGothic-31" x="170.703125"/>
     <use xlink:href="#IPAexGothic-30" x="233.691406"/>
     <use xlink:href="#IPAexGothic-20" x="296.679688"/>
     <use xlink:href="#IPAexGothic-3f" x="323.681641"/>
    </g>
   </g>
   <g id="text_6">
    <!-- 「条件はTrueです。」 -->
    <g transform="translate(23.101328 248.418672) scale(0.125 -0.125)">
     <defs>
      <path id="IPAexGothic-300c" d="M 4134 5300 
L 5875 5300 
L 5875 4853 
L 4581 4853 
L 4581 656 
L 4134 656 
L 4134 5300 
z
" transform="scale(0.015625)"/>
      <path id="IPAexGothic-6761" d="M 3406 1475 
L 3406 -447 
L 2953 -447 
L 2953 1422 
Q 2147 306 641 -331 
L 334 59 
Q 1738 569 2563 1538 
L 488 1538 
L 488 1941 
L 2953 1941 
L 2953 2691 
L 3406 2691 
L 3406 1941 
L 5928 1941 
L 5928 1538 
L 3847 1538 
Q 4597 769 6063 238 
L 5759 -203 
Q 4256 400 3406 1475 
z
M 3738 3419 
Q 4619 2991 5959 2772 
L 5684 2356 
Q 4216 2631 3353 3150 
Q 2350 2494 813 2175 
L 531 2566 
Q 2063 2825 2997 3391 
Q 2494 3763 2163 4219 
Q 1694 3747 1038 3359 
L 725 3688 
Q 1897 4319 2466 5306 
L 2900 5203 
Q 2784 5003 2713 4903 
L 4641 4903 
L 4872 4691 
Q 4384 3938 3738 3419 
z
M 3353 3634 
Q 3919 4075 4219 4531 
L 2438 4531 
L 2425 4513 
Q 2838 3956 3353 3634 
z
" transform="scale(0.015625)"/>
      <path id="IPAexGothic-4ef6" d="M 3903 3425 
L 2906 3425 
Q 2697 2825 2309 2247 
L 1991 2572 
Q 2588 3497 2803 4788 
L 3256 4713 
Q 3175 4313 3041 3834 
L 3903 3834 
L 3903 5250 
L 4356 5250 
L 4356 3834 
L 5731 3834 
L 5731 3425 
L 4356 3425 
L 4356 2009 
L 6041 2009 
L 6041 1594 
L 4356 1594 
L 4356 -447 
L 3903 -447 
L 3903 1594 
L 2078 1594 
L 2078 2009 
L 3903 2009 
L 3903 3425 
z
M 1638 3681 
L 1638 -447 
L 1169 -447 
L 1169 2753 
Q 881 2272 575 1863 
L 313 2253 
Q 1238 3463 1650 5184 
L 2125 5069 
Q 1909 4316 1638 3681 
z
" transform="scale(0.015625)"/>
      <path id="IPAexGothic-306f" d="M 4066 4875 
L 4538 4875 
L 4556 3769 
Q 5003 3816 5581 3941 
L 5619 3469 
Q 5256 3394 4563 3322 
L 4597 1441 
Q 5100 1284 5934 756 
L 5656 313 
Q 5066 772 4609 978 
Q 4609 441 4384 225 
Q 4128 -13 3634 -13 
Q 2991 -13 2669 231 
Q 2388 444 2388 831 
Q 2388 1225 2772 1484 
Q 3050 1669 3534 1669 
Q 3759 1669 4134 1594 
L 4097 3288 
Q 3697 3269 3359 3269 
Q 2925 3269 2484 3300 
L 2466 3763 
Q 2953 3716 3456 3716 
Q 3738 3716 4091 3738 
L 4066 4875 
z
M 4141 1153 
Q 3753 1259 3513 1259 
Q 2841 1259 2841 850 
Q 2841 422 3634 422 
Q 3888 422 4022 569 
Q 4141 700 4141 922 
Q 4141 1088 4141 1153 
z
M 1000 -50 
Q 794 1072 794 1931 
Q 794 3153 1247 4884 
L 1728 4763 
Q 1269 3044 1269 1900 
Q 1269 1569 1306 1106 
Q 1591 1706 1753 1997 
L 2075 1806 
Q 1484 716 1484 141 
Q 1484 72 1491 0 
L 1000 -50 
z
" transform="scale(0.015625)"/>
      <path id="IPAexGothic-3067" d="M 581 4034 
Q 2978 4363 5466 4556 
L 5509 4097 
Q 4388 4031 3750 3572 
Q 2797 2878 2797 1913 
Q 2797 1169 3291 819 
Q 3778 484 4869 416 
L 4906 -116 
Q 2278 0 2278 1850 
Q 2278 3125 3691 4000 
Q 2066 3784 684 3553 
L 581 4034 
z
M 5631 2522 
Q 5269 3063 4875 3391 
L 5175 3622 
Q 5559 3313 5950 2797 
L 5631 2522 
z
M 5034 2053 
Q 4747 2544 4300 2944 
L 4613 3184 
Q 4984 2878 5369 2328 
L 5034 2053 
z
" transform="scale(0.015625)"/>
      <path id="IPAexGothic-3059" d="M 3322 5075 
L 3816 5075 
L 3816 4063 
Q 4131 4075 5756 4116 
L 5756 3669 
Q 5431 3672 3816 3653 
L 3816 2463 
Q 3956 2125 3956 1741 
Q 3956 922 3519 397 
Q 3128 -72 2309 -409 
L 1941 -31 
Q 3263 453 3488 1363 
Q 3250 1031 2809 1031 
Q 2441 1031 2150 1313 
Q 1875 1588 1875 2050 
Q 1875 2475 2166 2769 
Q 2431 3041 2822 3041 
Q 3088 3041 3322 2881 
L 3322 3641 
Q 3000 3634 609 3547 
L 609 3988 
Q 1197 4000 2106 4022 
Q 3066 4047 3322 4050 
L 3322 5075 
z
M 3372 2044 
Q 3372 2300 3194 2478 
Q 3050 2613 2869 2613 
Q 2622 2613 2463 2406 
Q 2344 2250 2344 2088 
Q 2344 1797 2484 1622 
Q 2625 1453 2859 1453 
Q 3372 1453 3372 2044 
z
" transform="scale(0.015625)"/>
      <path id="IPAexGothic-3002" d="M 1166 1241 
Q 1366 1241 1563 1138 
Q 2009 900 2009 391 
Q 2009 188 1913 6 
Q 1675 -459 1159 -459 
Q 941 -459 753 -356 
Q 306 -119 306 397 
Q 306 744 569 1003 
Q 806 1241 1166 1241 
z
M 1159 916 
Q 953 916 797 781 
Q 631 625 631 391 
Q 631 278 681 166 
Q 819 -134 1159 -134 
Q 1309 -134 1434 -56 
Q 1684 88 1684 391 
Q 1684 722 1397 866 
Q 1281 916 1159 916 
z
" transform="scale(0.015625)"/>
      <path id="IPAexGothic-300d" d="M 1819 4209 
L 2266 4209 
L 2266 -434 
L 525 -434 
L 525 13 
L 1819 13 
L 1819 4209 
z
" transform="scale(0.015625)"/>
     </defs>
     <use xlink:href="#IPAexGothic-300c"/>
     <use xlink:href="#IPAexGothic-6761" x="100"/>
     <use xlink:href="#IPAexGothic-4ef6" x="200"/>
     <use xlink:href="#IPAexGothic-306f" x="300"/>
     <use xlink:href="#IPAexGothic-54" x="400"/>
     <use xlink:href="#IPAexGothic-72" x="459.912109"/>
     <use xlink:href="#IPAexGothic-75" x="496.923828"/>
     <use xlink:href="#IPAexGothic-65" x="557.324219"/>
     <use xlink:href="#IPAexGothic-3067" x="614.208984"/>
     <use xlink:href="#IPAexGothic-3059" x="714.208984"/>
     <use xlink:href="#IPAexGothic-3002" x="814.208984"/>
     <use xlink:href="#IPAexGothic-300d" x="914.208984"/>
    </g>
    <!-- の表示 -->
    <g transform="translate(67.74 262.029609) scale(0.125 -0.125)">
     <defs>
      <path id="IPAexGothic-306e" d="M 3119 469 
Q 5275 766 5275 2425 
Q 5275 3453 4413 3925 
Q 4041 4116 3547 4159 
Q 3394 2525 2850 1400 
Q 2322 306 1722 306 
Q 1384 306 1084 666 
Q 609 1244 609 2003 
Q 609 3025 1397 3794 
Q 2184 4563 3431 4563 
Q 4306 4563 4928 4122 
Q 5813 3506 5813 2425 
Q 5813 438 3431 6 
L 3119 469 
z
M 3053 4147 
Q 2378 4044 1891 3641 
Q 1097 2981 1097 1991 
Q 1097 1366 1434 978 
Q 1581 813 1719 813 
Q 2022 813 2416 1625 
Q 2909 2638 3053 4147 
z
" transform="scale(0.015625)"/>
      <path id="IPAexGothic-8868" d="M 3209 2350 
Q 2856 1944 2328 1563 
L 2328 288 
Q 2975 438 3756 691 
L 3763 275 
Q 2534 -163 1184 -447 
L 978 13 
Q 1566 119 1819 175 
L 1875 188 
L 1875 1275 
Q 1306 941 506 666 
L 219 1056 
Q 1813 1509 2675 2356 
L 384 2356 
L 384 2753 
L 2978 2753 
L 2978 3309 
L 959 3309 
L 959 3694 
L 2978 3694 
L 2978 4219 
L 641 4219 
L 641 4603 
L 2978 4603 
L 2978 5313 
L 3431 5313 
L 3431 4603 
L 5759 4603 
L 5759 4219 
L 3431 4219 
L 3431 3694 
L 5434 3694 
L 5434 3309 
L 3431 3309 
L 3431 2753 
L 6016 2753 
L 6016 2356 
L 3634 2356 
Q 3863 1838 4244 1356 
Q 4781 1756 5166 2191 
L 5588 1894 
Q 5084 1419 4525 1056 
Q 5150 459 6106 66 
L 5734 -356 
Q 3850 575 3209 2350 
z
" transform="scale(0.015625)"/>
      <path id="IPAexGothic-793a" d="M 3488 2822 
L 3488 153 
Q 3488 -144 3334 -247 
Q 3213 -331 2872 -331 
Q 2425 -331 1950 -294 
L 1859 213 
Q 2350 128 2775 128 
Q 3000 128 3000 353 
L 3000 2822 
L 447 2822 
L 447 3250 
L 5950 3250 
L 5950 2822 
L 3488 2822 
z
M 1125 4813 
L 5266 4813 
L 5266 4384 
L 1125 4384 
L 1125 4813 
z
M 5581 244 
Q 4966 1263 4206 2081 
L 4563 2369 
Q 5319 1575 6009 622 
L 5581 244 
z
M 403 616 
Q 1184 1238 1741 2259 
L 2163 2053 
Q 1631 975 763 238 
L 403 616 
z
" transform="scale(0.015625)"/>
     </defs>
     <use xlink:href="#IPAexGothic-306e"/>
     <use xlink:href="#IPAexGothic-8868" x="100"/>
     <use xlink:href="#IPAexGothic-793a" x="200"/>
    </g>
   </g>
   <g id="text_7">
    <!-- END -->
    <g transform="translate(73.290781 323.624141) scale(0.125 -0.125)">
     <defs>
      <path id="IPAexGothic-45" d="M 3547 63 
L 609 63 
L 609 4634 
L 3469 4634 
L 3469 4147 
L 1166 4147 
L 1166 2650 
L 3206 2650 
L 3206 2191 
L 1166 2191 
L 1166 556 
L 3547 556 
L 3547 63 
z
" transform="scale(0.015625)"/>
      <path id="IPAexGothic-4e" d="M 4244 63 
L 3731 63 
L 1697 3150 
Q 1466 3500 1141 4097 
L 1116 4097 
L 1128 3797 
Q 1159 2803 1159 2469 
L 1159 63 
L 609 63 
L 609 4634 
L 1366 4634 
L 3113 1978 
Q 3453 1447 3713 966 
L 3738 966 
Q 3694 1897 3694 2469 
L 3694 4634 
L 4244 4634 
L 4244 63 
z
" transform="scale(0.015625)"/>
      <path id="IPAexGothic-44" d="M 609 4634 
L 1984 4634 
Q 3159 4634 3791 4050 
Q 4456 3444 4456 2356 
Q 4456 1047 3516 441 
Q 2925 63 1941 63 
L 609 63 
L 609 4634 
z
M 1172 556 
L 1894 556 
Q 3853 556 3853 2356 
Q 3853 4147 1928 4147 
L 1172 4147 
L 1172 556 
z
" transform="scale(0.015625)"/>
     </defs>
     <use xlink:href="#IPAexGothic-45"/>
     <use xlink:href="#IPAexGothic-4e" x="59.521484"/>
     <use xlink:href="#IPAexGothic-44" x="135.498047"/>
    </g>
   </g>
   <g id="text_8">
    <!-- 「条件はFalseです。」 -->
    <g transform="translate(213.950352 165.618672) scale(0.125 -0.125)">
     <use xlink:href="#IPAexGothic-300c"/>
     <use xlink:href="#IPAexGothic-6761" x="100"/>
     <use xlink:href="#IPAexGothic-4ef6" x="200"/>
     <use xlink:href="#IPAexGothic-306f" x="300"/>
     <use xlink:href="#IPAexGothic-46" x="400"/>
     <use xlink:href="#IPAexGothic-61" x="457.177734"/>
     <use xlink:href="#IPAexGothic-6c" x="512.158203"/>
     <use xlink:href="#IPAexGothic-73" x="539.160156"/>
     <use xlink:href="#IPAexGothic-65" x="585.351562"/>
     <use xlink:href="#IPAexGothic-3067" x="642.236328"/>
     <use xlink:href="#IPAexGothic-3059" x="742.236328"/>
     <use xlink:href="#IPAexGothic-3002" x="842.236328"/>
     <use xlink:href="#IPAexGothic-300d" x="942.236328"/>
    </g>
    <!-- の表示 -->
    <g transform="translate(260.34 179.229609) scale(0.125 -0.125)">
     <use xlink:href="#IPAexGothic-306e"/>
     <use xlink:href="#IPAexGothic-8868" x="100"/>
     <use xlink:href="#IPAexGothic-793a" x="200"/>
    </g>
   </g>
   <g id="text_9">
    <!-- END -->
    <g transform="translate(265.890781 240.824141) scale(0.125 -0.125)">
     <use xlink:href="#IPAexGothic-45"/>
     <use xlink:href="#IPAexGothic-4e" x="59.521484"/>
     <use xlink:href="#IPAexGothic-44" x="135.498047"/>
    </g>
   </g>
  </g>
 </g>
 <defs>
  <clipPath id="p174c6cdf49">
   <rect x="3.6" y="3.6" width="358.38" height="350.46"/>
  </clipPath>
 </defs>
</svg>