<?xml version="1.0" encoding="utf-8" standalone="no"?>
<!DOCTYPE svg PUBLIC "-//W3C//DTD SVG 1.1//EN"
  "http://www.w3.org/Graphics/SVG/1.1/DTD/svg11.dtd">
<svg xmlns:xlink="http://www.w3.org/1999/xlink" width="261.36pt" height="246.96pt" viewBox="0 0 261.36 246.96" xmlns="http://www.w3.org/2000/svg" version="1.1">
 <metadata>
  <rdf:RDF xmlns:dc="http://purl.org/dc/elements/1.1/" xmlns:cc="http://creativecommons.org/ns#" xmlns:rdf="http://www.w3.org/1999/02/22-rdf-syntax-ns#">
   <cc:Work>
    <dc:type rdf:resource="http://purl.org/dc/dcmitype/StillImage"/>
    <dc:date>2025-09-20T14:00:37.523272</dc:date>
    <dc:format>image/svg+xml</dc:format>
    <dc:creator>
     <cc:Agent>
      <dc:title>Matplotlib v3.10.6, https://matplotlib.org/</dc:title>
     </cc:Agent>
    </dc:creator>
   </cc:Work>
  </rdf:RDF>
 </metadata>
 <defs>
  <style type="text/css">*{stroke-linejoin: round; stroke-linecap: butt}</style>
 </defs>
 <g id="figure_1">
  <g id="patch_1">
   <path d="M 0 246.96 
L 261.36 246.96 
L 261.36 0 
L 0 0 
z
" style="fill: #ffffff"/>
  </g>
  <g id="axes_1">
   <g id="patch_2">
    <path d="M 85.68 40.68 
L 85.965587 40.677734 
L 86.251103 40.670938 
L 86.536474 40.659612 
L 86.821631 40.64376 
L 87.106499 40.623386 
L 87.391009 40.598495 
L 87.675088 40.569092 
L 87.958664 40.535187 
L 88.241667 40.496786 
L 88.524025 40.4539 
L 88.805667 40.40654 
L 89.086522 40.354717 
L 89.36652 40.298444 
L 89.64559 40.237736 
L 89.923661 40.172608 
L 90.200664 40.103077 
L 90.476529 40.029159 
L 90.751186 39.950874 
L 91.024567 39.86824 
L 91.296602 39.78128 
L 91.567223 39.690015 
L 91.836363 39.594467 
L 92.103952 39.494661 
L 92.369924 39.390623 
L 92.634212 39.282377 
L 92.89675 39.169952 
L 93.15747 39.053376 
L 93.416308 38.932678 
L 93.673199 38.807888 
L 93.928077 38.679038 
L 94.180879 38.546161 
L 94.431541 38.409289 
L 94.68 38.268457 
L 94.926193 38.123701 
L 95.170058 37.975058 
L 95.411535 37.822564 
L 95.650561 37.666257 
L 95.887078 37.506178 
L 96.121024 37.342367 
L 96.352343 37.174865 
L 96.580974 37.003713 
L 96.806862 36.828956 
L 97.029948 36.650636 
L 97.250177 36.4688 
L 97.467493 36.283492 
L 97.681842 36.09476 
L 97.893169 35.902651 
L 98.101422 35.707213 
L 98.306548 35.508495 
L 98.508495 35.306548 
L 98.707213 35.101422 
L 98.902651 34.893169 
L 99.09476 34.681842 
L 99.283492 34.467493 
L 99.4688 34.250177 
L 99.650636 34.029948 
L 99.828956 33.806862 
L 100.003713 33.580974 
L 100.174865 33.352343 
L 100.342367 33.121024 
L 100.506178 32.887078 
L 100.666257 32.650561 
L 100.822564 32.411535 
L 100.975058 32.170058 
L 101.123701 31.926193 
L 101.268457 31.68 
L 101.409289 31.431541 
L 101.546161 31.180879 
L 101.679038 30.928077 
L 101.807888 30.673199 
L 101.932678 30.416308 
L 102.053376 30.15747 
L 102.169952 29.89675 
L 102.282377 29.634212 
L 102.390623 29.369924 
L 102.494661 29.103952 
L 102.594467 28.836363 
L 102.690015 28.567223 
L 102.78128 28.296602 
L 102.86824 28.024567 
L 102.950874 27.751186 
L 103.029159 27.476529 
L 103.103077 27.200664 
L 103.172608 26.923661 
L 103.237736 26.64559 
L 103.298444 26.36652 
L 103.354717 26.086522 
L 103.40654 25.805667 
L 103.4539 25.524025 
L 103.496786 25.241667 
L 103.535187 24.958664 
L 103.569092 24.675088 
L 103.598495 24.391009 
L 103.623386 24.106499 
L 103.64376 23.821631 
L 103.659612 23.536474 
L 103.670938 23.251103 
L 103.677734 22.965587 
L 103.68 22.68 
L 103.68 22.68 
L 103.677734 22.394413 
L 103.670938 22.108897 
L 103.659612 21.823526 
L 103.64376 21.538369 
L 103.623386 21.253501 
L 103.598495 20.968991 
L 103.569092 20.684912 
L 103.535187 20.401336 
L 103.496786 20.118333 
L 103.4539 19.835975 
L 103.40654 19.554333 
L 103.354717 19.273478 
L 103.298444 18.99348 
L 103.237736 18.71441 
L 103.172608 18.436339 
L 103.103077 18.159336 
L 103.029159 17.883471 
L 102.950874 17.608814 
L 102.86824 17.335433 
L 102.78128 17.063398 
L 102.690015 16.792777 
L 102.594467 16.523637 
L 102.494661 16.256048 
L 102.390623 15.990076 
L 102.282377 15.725788 
L 102.169952 15.46325 
L 102.053376 15.20253 
L 101.932678 14.943692 
L 101.807888 14.686801 
L 101.679038 14.431923 
L 101.546161 14.179121 
L 101.409289 13.928459 
L 101.268457 13.68 
L 101.123701 13.433807 
L 100.975058 13.189942 
L 100.822564 12.948465 
L 100.666257 12.709439 
L 100.506178 12.472922 
L 100.342367 12.238976 
L 100.174865 12.007657 
L 100.003713 11.779026 
L 99.828956 11.553138 
L 99.650636 11.330052 
L 99.4688 11.109823 
L 99.283492 10.892507 
L 99.09476 10.678158 
L 98.902651 10.466831 
L 98.707213 10.258578 
L 98.508495 10.053452 
L 98.306548 9.851505 
L 98.101422 9.652787 
L 97.893169 9.457349 
L 97.681842 9.26524 
L 97.467493 9.076508 
L 97.250177 8.8912 
L 97.029948 8.709364 
L 96.806862 8.531044 
L 96.580974 8.356287 
L 96.352343 8.185135 
L 96.121024 8.017633 
L 95.887078 7.853822 
L 95.650561 7.693743 
L 95.411535 7.537436 
L 95.170058 7.384942 
L 94.926193 7.236299 
L 94.68 7.091543 
L 94.431541 6.950711 
L 94.180879 6.813839 
L 93.928077 6.680962 
L 93.673199 6.552112 
L 93.416308 6.427322 
L 93.15747 6.306624 
L 92.89675 6.190048 
L 92.634212 6.077623 
L 92.369924 5.969377 
L 92.103952 5.865339 
L 91.836363 5.765533 
L 91.567223 5.669985 
L 91.296602 5.57872 
L 91.024567 5.49176 
L 90.751186 5.409126 
L 90.476529 5.330841 
L 90.200664 5.256923 
L 89.923661 5.187392 
L 89.64559 5.122264 
L 89.36652 5.061556 
L 89.086522 5.005283 
L 88.805667 4.95346 
L 88.524025 4.9061 
L 88.241667 4.863214 
L 87.958664 4.824813 
L 87.675088 4.790908 
L 87.391009 4.761505 
L 87.106499 4.736614 
L 86.821631 4.71624 
L 86.536474 4.700388 
L 86.251103 4.689062 
L 85.965587 4.682266 
L 85.68 4.68 
L 49.68 4.68 
L 49.394413 4.682266 
L 49.108897 4.689062 
L 48.823526 4.700388 
L 48.538369 4.71624 
L 48.253501 4.736614 
L 47.968991 4.761505 
L 47.684912 4.790908 
L 47.401336 4.824813 
L 47.118333 4.863214 
L 46.835975 4.9061 
L 46.554333 4.95346 
L 46.273478 5.005283 
L 45.99348 5.061556 
L 45.71441 5.122264 
L 45.436339 5.187392 
L 45.159336 5.256923 
L 44.883471 5.330841 
L 44.608814 5.409126 
L 44.335433 5.49176 
L 44.063398 5.57872 
L 43.792777 5.669985 
L 43.523637 5.765533 
L 43.256048 5.865339 
L 42.990076 5.969377 
L 42.725788 6.077623 
L 42.46325 6.190048 
L 42.20253 6.306624 
L 41.943692 6.427322 
L 41.686801 6.552112 
L 41.431923 6.680962 
L 41.179121 6.813839 
L 40.928459 6.950711 
L 40.68 7.091543 
L 40.433807 7.236299 
L 40.189942 7.384942 
L 39.948465 7.537436 
L 39.709439 7.693743 
L 39.472922 7.853822 
L 39.238976 8.017633 
L 39.007657 8.185135 
L 38.779026 8.356287 
L 38.553138 8.531044 
L 38.330052 8.709364 
L 38.109823 8.8912 
L 37.892507 9.076508 
L 37.678158 9.26524 
L 37.466831 9.457349 
L 37.258578 9.652787 
L 37.053452 9.851505 
L 36.851505 10.053452 
L 36.652787 10.258578 
L 36.457349 10.466831 
L 36.26524 10.678158 
L 36.076508 10.892507 
L 35.8912 11.109823 
L 35.709364 11.330052 
L 35.531044 11.553138 
L 35.356287 11.779026 
L 35.185135 12.007657 
L 35.017633 12.238976 
L 34.853822 12.472922 
L 34.693743 12.709439 
L 34.537436 12.948465 
L 34.384942 13.189942 
L 34.236299 13.433807 
L 34.091543 13.68 
L 33.950711 13.928459 
L 33.813839 14.179121 
L 33.680962 14.431923 
L 33.552112 14.686801 
L 33.427322 14.943692 
L 33.306624 15.20253 
L 33.190048 15.46325 
L 33.077623 15.725788 
L 32.969377 15.990076 
L 32.865339 16.256048 
L 32.765533 16.523637 
L 32.669985 16.792777 
L 32.57872 17.063398 
L 32.49176 17.335433 
L 32.409126 17.608814 
L 32.330841 17.883471 
L 32.256923 18.159336 
L 32.187392 18.436339 
L 32.122264 18.71441 
L 32.061556 18.99348 
L 32.005283 19.273478 
L 31.95346 19.554333 
L 31.9061 19.835975 
L 31.863214 20.118333 
L 31.824813 20.401336 
L 31.790908 20.684912 
L 31.761505 20.968991 
L 31.736614 21.253501 
L 31.71624 21.538369 
L 31.700388 21.823526 
L 31.689062 22.108897 
L 31.682266 22.394413 
L 31.68 22.68 
L 31.68 22.68 
L 31.682266 22.965587 
L 31.689062 23.251103 
L 31.700388 23.536474 
L 31.71624 23.821631 
L 31.736614 24.106499 
L 31.761505 24.391009 
L 31.790908 24.675088 
L 31.824813 24.958664 
L 31.863214 25.241667 
L 31.9061 25.524025 
L 31.95346 25.805667 
L 32.005283 26.086522 
L 32.061556 26.36652 
L 32.122264 26.64559 
L 32.187392 26.923661 
L 32.256923 27.200664 
L 32.330841 27.476529 
L 32.409126 27.751186 
L 32.49176 28.024567 
L 32.57872 28.296602 
L 32.669985 28.567223 
L 32.765533 28.836363 
L 32.865339 29.103952 
L 32.969377 29.369924 
L 33.077623 29.634212 
L 33.190048 29.89675 
L 33.306624 30.15747 
L 33.427322 30.416308 
L 33.552112 30.673199 
L 33.680962 30.928077 
L 33.813839 31.180879 
L 33.950711 31.431541 
L 34.091543 31.68 
L 34.236299 31.926193 
L 34.384942 32.170058 
L 34.537436 32.411535 
L 34.693743 32.650561 
L 34.853822 32.887078 
L 35.017633 33.121024 
L 35.185135 33.352343 
L 35.356287 33.580974 
L 35.531044 33.806862 
L 35.709364 34.029948 
L 35.8912 34.250177 
L 36.076508 34.467493 
L 36.26524 34.681842 
L 36.457349 34.893169 
L 36.652787 35.101422 
L 36.851505 35.306548 
L 37.053452 35.508495 
L 37.258578 35.707213 
L 37.466831 35.902651 
L 37.678158 36.09476 
L 37.892507 36.283492 
L 38.109823 36.4688 
L 38.330052 36.650636 
L 38.553138 36.828956 
L 38.779026 37.003713 
L 39.007657 37.174865 
L 39.238976 37.342367 
L 39.472922 37.506178 
L 39.709439 37.666257 
L 39.948465 37.822564 
L 40.189942 37.975058 
L 40.433807 38.123701 
L 40.68 38.268457 
L 40.928459 38.409289 
L 41.179121 38.546161 
L 41.431923 38.679038 
L 41.686801 38.807888 
L 41.943692 38.932678 
L 42.20253 39.053376 
L 42.46325 39.169952 
L 42.725788 39.282377 
L 42.990076 39.390623 
L 43.256048 39.494661 
L 43.523637 39.594467 
L 43.792777 39.690015 
L 44.063398 39.78128 
L 44.335433 39.86824 
L 44.608814 39.950874 
L 44.883471 40.029159 
L 45.159336 40.103077 
L 45.436339 40.172608 
L 45.71441 40.237736 
L 45.99348 40.298444 
L 46.273478 40.354717 
L 46.554333 40.40654 
L 46.835975 40.4539 
L 47.118333 40.496786 
L 47.401336 40.535187 
L 47.684912 40.569092 
L 47.968991 40.598495 
L 48.253501 40.623386 
L 48.538369 40.64376 
L 48.823526 40.659612 
L 49.108897 40.670938 
L 49.394413 40.677734 
L 49.68 40.68 
L 85.68 40.68 
z
" clip-path="url(#pb8e1797a0d)" style="fill: none; stroke: #000000; stroke-linecap: round"/>
   </g>
   <g id="patch_3">
    <path d="M 4.68 89.28 
L 67.68 67.68 
L 130.68 89.28 
L 67.68 110.88 
L 4.68 89.28 
z
" clip-path="url(#pb8e1797a0d)" style="fill: none; stroke: #000000; stroke-linecap: round"/>
   </g>
   <g id="patch_4">
    <path d="M 238.68 163.08 
L 238.965587 163.077734 
L 239.251103 163.070938 
L 239.536474 163.059612 
L 239.821631 163.04376 
L 240.106499 163.023386 
L 240.391009 162.998495 
L 240.675088 162.969092 
L 240.958664 162.935187 
L 241.241667 162.896786 
L 241.524025 162.8539 
L 241.805667 162.80654 
L 242.086522 162.754717 
L 242.36652 162.698444 
L 242.64559 162.637736 
L 242.923661 162.572608 
L 243.200664 162.503077 
L 243.476529 162.429159 
L 243.751186 162.350874 
L 244.024567 162.26824 
L 244.296602 162.18128 
L 244.567223 162.090015 
L 244.836363 161.994467 
L 245.103952 161.894661 
L 245.369924 161.790623 
L 245.634212 161.682377 
L 245.89675 161.569952 
L 246.15747 161.453376 
L 246.416308 161.332678 
L 246.673199 161.207888 
L 246.928077 161.079038 
L 247.180879 160.946161 
L 247.431541 160.809289 
L 247.68 160.668457 
L 247.926193 160.523701 
L 248.170058 160.375058 
L 248.411535 160.222564 
L 248.650561 160.066257 
L 248.887078 159.906178 
L 249.121024 159.742367 
L 249.352343 159.574865 
L 249.580974 159.403713 
L 249.806862 159.228956 
L 250.029948 159.050636 
L 250.250177 158.8688 
L 250.467493 158.683492 
L 250.681842 158.49476 
L 250.893169 158.302651 
L 251.101422 158.107213 
L 251.306548 157.908495 
L 251.508495 157.706548 
L 251.707213 157.501422 
L 251.902651 157.293169 
L 252.09476 157.081842 
L 252.283492 156.867493 
L 252.4688 156.650177 
L 252.650636 156.429948 
L 252.828956 156.206862 
L 253.003713 155.980974 
L 253.174865 155.752343 
L 253.342367 155.521024 
L 253.506178 155.287078 
L 253.666257 155.050561 
L 253.822564 154.811535 
L 253.975058 154.570058 
L 254.123701 154.326193 
L 254.268457 154.08 
L 254.409289 153.831541 
L 254.546161 153.580879 
L 254.679038 153.328077 
L 254.807888 153.073199 
L 254.932678 152.816308 
L 255.053376 152.55747 
L 255.169952 152.29675 
L 255.282377 152.034212 
L 255.390623 151.769924 
L 255.494661 151.503952 
L 255.594467 151.236363 
L 255.690015 150.967223 
L 255.78128 150.696602 
L 255.86824 150.424567 
L 255.950874 150.151186 
L 256.029159 149.876529 
L 256.103077 149.600664 
L 256.172608 149.323661 
L 256.237736 149.04559 
L 256.298444 148.76652 
L 256.354717 148.486522 
L 256.40654 148.205667 
L 256.4539 147.924025 
L 256.496786 147.641667 
L 256.535187 147.358664 
L 256.569092 147.075088 
L 256.598495 146.791009 
L 256.623386 146.506499 
L 256.64376 146.221631 
L 256.659612 145.936474 
L 256.670938 145.651103 
L 256.677734 145.365587 
L 256.68 145.08 
L 256.68 145.08 
L 256.677734 144.794413 
L 256.670938 144.508897 
L 256.659612 144.223526 
L 256.64376 143.938369 
L 256.623386 143.653501 
L 256.598495 143.368991 
L 256.569092 143.084912 
L 256.535187 142.801336 
L 256.496786 142.518333 
L 256.4539 142.235975 
L 256.40654 141.954333 
L 256.354717 141.673478 
L 256.298444 141.39348 
L 256.237736 141.11441 
L 256.172608 140.836339 
L 256.103077 140.559336 
L 256.029159 140.283471 
L 255.950874 140.008814 
L 255.86824 139.735433 
L 255.78128 139.463398 
L 255.690015 139.192777 
L 255.594467 138.923637 
L 255.494661 138.656048 
L 255.390623 138.390076 
L 255.282377 138.125788 
L 255.169952 137.86325 
L 255.053376 137.60253 
L 254.932678 137.343692 
L 254.807888 137.086801 
L 254.679038 136.831923 
L 254.546161 136.579121 
L 254.409289 136.328459 
L 254.268457 136.08 
L 254.123701 135.833807 
L 253.975058 135.589942 
L 253.822564 135.348465 
L 253.666257 135.109439 
L 253.506178 134.872922 
L 253.342367 134.638976 
L 253.174865 134.407657 
L 253.003713 134.179026 
L 252.828956 133.953138 
L 252.650636 133.730052 
L 252.4688 133.509823 
L 252.283492 133.292507 
L 252.09476 133.078158 
L 251.902651 132.866831 
L 251.707213 132.658578 
L 251.508495 132.453452 
L 251.306548 132.251505 
L 251.101422 132.052787 
L 250.893169 131.857349 
L 250.681842 131.66524 
L 250.467493 131.476508 
L 250.250177 131.2912 
L 250.029948 131.109364 
L 249.806862 130.931044 
L 249.580974 130.756287 
L 249.352343 130.585135 
L 249.121024 130.417633 
L 248.887078 130.253822 
L 248.650561 130.093743 
L 248.411535 129.937436 
L 248.170058 129.784942 
L 247.926193 129.636299 
L 247.68 129.491543 
L 247.431541 129.350711 
L 247.180879 129.213839 
L 246.928077 129.080962 
L 246.673199 128.952112 
L 246.416308 128.827322 
L 246.15747 128.706624 
L 245.89675 128.590048 
L 245.634212 128.477623 
L 245.369924 128.369377 
L 245.103952 128.265339 
L 244.836363 128.165533 
L 244.567223 128.069985 
L 244.296602 127.97872 
L 244.024567 127.89176 
L 243.751186 127.809126 
L 243.476529 127.730841 
L 243.200664 127.656923 
L 242.923661 127.587392 
L 242.64559 127.522264 
L 242.36652 127.461556 
L 242.086522 127.405283 
L 241.805667 127.35346 
L 241.524025 127.3061 
L 241.241667 127.263214 
L 240.958664 127.224813 
L 240.675088 127.190908 
L 240.391009 127.161505 
L 240.106499 127.136614 
L 239.821631 127.11624 
L 239.536474 127.100388 
L 239.251103 127.089062 
L 238.965587 127.082266 
L 238.68 127.08 
L 202.68 127.08 
L 202.394413 127.082266 
L 202.108897 127.089062 
L 201.823526 127.100388 
L 201.538369 127.11624 
L 201.253501 127.136614 
L 200.968991 127.161505 
L 200.684912 127.190908 
L 200.401336 127.224813 
L 200.118333 127.263214 
L 199.835975 127.3061 
L 199.554333 127.35346 
L 199.273478 127.405283 
L 198.99348 127.461556 
L 198.71441 127.522264 
L 198.436339 127.587392 
L 198.159336 127.656923 
L 197.883471 127.730841 
L 197.608814 127.809126 
L 197.335433 127.89176 
L 197.063398 127.97872 
L 196.792777 128.069985 
L 196.523637 128.165533 
L 196.256048 128.265339 
L 195.990076 128.369377 
L 195.725788 128.477623 
L 195.46325 128.590048 
L 195.20253 128.706624 
L 194.943692 128.827322 
L 194.686801 128.952112 
L 194.431923 129.080962 
L 194.179121 129.213839 
L 193.928459 129.350711 
L 193.68 129.491543 
L 193.433807 129.636299 
L 193.189942 129.784942 
L 192.948465 129.937436 
L 192.709439 130.093743 
L 192.472922 130.253822 
L 192.238976 130.417633 
L 192.007657 130.585135 
L 191.779026 130.756287 
L 191.553138 130.931044 
L 191.330052 131.109364 
L 191.109823 131.2912 
L 190.892507 131.476508 
L 190.678158 131.66524 
L 190.466831 131.857349 
L 190.258578 132.052787 
L 190.053452 132.251505 
L 189.851505 132.453452 
L 189.652787 132.658578 
L 189.457349 132.866831 
L 189.26524 133.078158 
L 189.076508 133.292507 
L 188.8912 133.509823 
L 188.709364 133.730052 
L 188.531044 133.953138 
L 188.356287 134.179026 
L 188.185135 134.407657 
L 188.017633 134.638976 
L 187.853822 134.872922 
L 187.693743 135.109439 
L 187.537436 135.348465 
L 187.384942 135.589942 
L 187.236299 135.833807 
L 187.091543 136.08 
L 186.950711 136.328459 
L 186.813839 136.579121 
L 186.680962 136.831923 
L 186.552112 137.086801 
L 186.427322 137.343692 
L 186.306624 137.60253 
L 186.190048 137.86325 
L 186.077623 138.125788 
L 185.969377 138.390076 
L 185.865339 138.656048 
L 185.765533 138.923637 
L 185.669985 139.192777 
L 185.57872 139.463398 
L 185.49176 139.735433 
L 185.409126 140.008814 
L 185.330841 140.283471 
L 185.256923 140.559336 
L 185.187392 140.836339 
L 185.122264 141.11441 
L 185.061556 141.39348 
L 185.005283 141.673478 
L 184.95346 141.954333 
L 184.9061 142.235975 
L 184.863214 142.518333 
L 184.824813 142.801336 
L 184.790908 143.084912 
L 184.761505 143.368991 
L 184.736614 143.653501 
L 184.71624 143.938369 
L 184.700388 144.223526 
L 184.689062 144.508897 
L 184.682266 144.794413 
L 184.68 145.08 
L 184.68 145.08 
L 184.682266 145.365587 
L 184.689062 145.651103 
L 184.700388 145.936474 
L 184.71624 146.221631 
L 184.736614 146.506499 
L 184.761505 146.791009 
L 184.790908 147.075088 
L 184.824813 147.358664 
L 184.863214 147.641667 
L 184.9061 147.924025 
L 184.95346 148.205667 
L 185.005283 148.486522 
L 185.061556 148.76652 
L 185.122264 149.04559 
L 185.187392 149.323661 
L 185.256923 149.600664 
L 185.330841 149.876529 
L 185.409126 150.151186 
L 185.49176 150.424567 
L 185.57872 150.696602 
L 185.669985 150.967223 
L 185.765533 151.236363 
L 185.865339 151.503952 
L 185.969377 151.769924 
L 186.077623 152.034212 
L 186.190048 152.29675 
L 186.306624 152.55747 
L 186.427322 152.816308 
L 186.552112 153.073199 
L 186.680962 153.328077 
L 186.813839 153.580879 
L 186.950711 153.831541 
L 187.091543 154.08 
L 187.236299 154.326193 
L 187.384942 154.570058 
L 187.537436 154.811535 
L 187.693743 155.050561 
L 187.853822 155.287078 
L 188.017633 155.521024 
L 188.185135 155.752343 
L 188.356287 155.980974 
L 188.531044 156.206862 
L 188.709364 156.429948 
L 188.8912 156.650177 
L 189.076508 156.867493 
L 189.26524 157.081842 
L 189.457349 157.293169 
L 189.652787 157.501422 
L 189.851505 157.706548 
L 190.053452 157.908495 
L 190.258578 158.107213 
L 190.466831 158.302651 
L 190.678158 158.49476 
L 190.892507 158.683492 
L 191.109823 158.8688 
L 191.330052 159.050636 
L 191.553138 159.228956 
L 191.779026 159.403713 
L 192.007657 159.574865 
L 192.238976 159.742367 
L 192.472922 159.906178 
L 192.709439 160.066257 
L 192.948465 160.222564 
L 193.189942 160.375058 
L 193.433807 160.523701 
L 193.68 160.668457 
L 193.928459 160.809289 
L 194.179121 160.946161 
L 194.431923 161.079038 
L 194.686801 161.207888 
L 194.943692 161.332678 
L 195.20253 161.453376 
L 195.46325 161.569952 
L 195.725788 161.682377 
L 195.990076 161.790623 
L 196.256048 161.894661 
L 196.523637 161.994467 
L 196.792777 162.090015 
L 197.063398 162.18128 
L 197.335433 162.26824 
L 197.608814 162.350874 
L 197.883471 162.429159 
L 198.159336 162.503077 
L 198.436339 162.572608 
L 198.71441 162.637736 
L 198.99348 162.698444 
L 199.273478 162.754717 
L 199.554333 162.80654 
L 199.835975 162.8539 
L 200.118333 162.896786 
L 200.401336 162.935187 
L 200.684912 162.969092 
L 200.968991 162.998495 
L 201.253501 163.023386 
L 201.538369 163.04376 
L 201.823526 163.059612 
L 202.108897 163.070938 
L 202.394413 163.077734 
L 202.68 163.08 
L 238.68 163.08 
z
" clip-path="url(#pb8e1797a0d)" style="fill: none; stroke: #000000; stroke-linecap: round"/>
   </g>
   <g id="patch_5">
    <path d="M 85.68 242.28 
L 85.965587 242.277734 
L 86.251103 242.270938 
L 86.536474 242.259612 
L 86.821631 242.24376 
L 87.106499 242.223386 
L 87.391009 242.198495 
L 87.675088 242.169092 
L 87.958664 242.135187 
L 88.241667 242.096786 
L 88.524025 242.0539 
L 88.805667 242.00654 
L 89.086522 241.954717 
L 89.36652 241.898444 
L 89.64559 241.837736 
L 89.923661 241.772608 
L 90.200664 241.703077 
L 90.476529 241.629159 
L 90.751186 241.550874 
L 91.024567 241.46824 
L 91.296602 241.38128 
L 91.567223 241.290015 
L 91.836363 241.194467 
L 92.103952 241.094661 
L 92.369924 240.990623 
L 92.634212 240.882377 
L 92.89675 240.769952 
L 93.15747 240.653376 
L 93.416308 240.532678 
L 93.673199 240.407888 
L 93.928077 240.279038 
L 94.180879 240.146161 
L 94.431541 240.009289 
L 94.68 239.868457 
L 94.926193 239.723701 
L 95.170058 239.575058 
L 95.411535 239.422564 
L 95.650561 239.266257 
L 95.887078 239.106178 
L 96.121024 238.942367 
L 96.352343 238.774865 
L 96.580974 238.603713 
L 96.806862 238.428956 
L 97.029948 238.250636 
L 97.250177 238.0688 
L 97.467493 237.883492 
L 97.681842 237.69476 
L 97.893169 237.502651 
L 98.101422 237.307213 
L 98.306548 237.108495 
L 98.508495 236.906548 
L 98.707213 236.701422 
L 98.902651 236.493169 
L 99.09476 236.281842 
L 99.283492 236.067493 
L 99.4688 235.850177 
L 99.650636 235.629948 
L 99.828956 235.406862 
L 100.003713 235.180974 
L 100.174865 234.952343 
L 100.342367 234.721024 
L 100.506178 234.487078 
L 100.666257 234.250561 
L 100.822564 234.011535 
L 100.975058 233.770058 
L 101.123701 233.526193 
L 101.268457 233.28 
L 101.409289 233.031541 
L 101.546161 232.780879 
L 101.679038 232.528077 
L 101.807888 232.273199 
L 101.932678 232.016308 
L 102.053376 231.75747 
L 102.169952 231.49675 
L 102.282377 231.234212 
L 102.390623 230.969924 
L 102.494661 230.703952 
L 102.594467 230.436363 
L 102.690015 230.167223 
L 102.78128 229.896602 
L 102.86824 229.624567 
L 102.950874 229.351186 
L 103.029159 229.076529 
L 103.103077 228.800664 
L 103.172608 228.523661 
L 103.237736 228.24559 
L 103.298444 227.96652 
L 103.354717 227.686522 
L 103.40654 227.405667 
L 103.4539 227.124025 
L 103.496786 226.841667 
L 103.535187 226.558664 
L 103.569092 226.275088 
L 103.598495 225.991009 
L 103.623386 225.706499 
L 103.64376 225.421631 
L 103.659612 225.136474 
L 103.670938 224.851103 
L 103.677734 224.565587 
L 103.68 224.28 
L 103.68 224.28 
L 103.677734 223.994413 
L 103.670938 223.708897 
L 103.659612 223.423526 
L 103.64376 223.138369 
L 103.623386 222.853501 
L 103.598495 222.568991 
L 103.569092 222.284912 
L 103.535187 222.001336 
L 103.496786 221.718333 
L 103.4539 221.435975 
L 103.40654 221.154333 
L 103.354717 220.873478 
L 103.298444 220.59348 
L 103.237736 220.31441 
L 103.172608 220.036339 
L 103.103077 219.759336 
L 103.029159 219.483471 
L 102.950874 219.208814 
L 102.86824 218.935433 
L 102.78128 218.663398 
L 102.690015 218.392777 
L 102.594467 218.123637 
L 102.494661 217.856048 
L 102.390623 217.590076 
L 102.282377 217.325788 
L 102.169952 217.06325 
L 102.053376 216.80253 
L 101.932678 216.543692 
L 101.807888 216.286801 
L 101.679038 216.031923 
L 101.546161 215.779121 
L 101.409289 215.528459 
L 101.268457 215.28 
L 101.123701 215.033807 
L 100.975058 214.789942 
L 100.822564 214.548465 
L 100.666257 214.309439 
L 100.506178 214.072922 
L 100.342367 213.838976 
L 100.174865 213.607657 
L 100.003713 213.379026 
L 99.828956 213.153138 
L 99.650636 212.930052 
L 99.4688 212.709823 
L 99.283492 212.492507 
L 99.09476 212.278158 
L 98.902651 212.066831 
L 98.707213 211.858578 
L 98.508495 211.653452 
L 98.306548 211.451505 
L 98.101422 211.252787 
L 97.893169 211.057349 
L 97.681842 210.86524 
L 97.467493 210.676508 
L 97.250177 210.4912 
L 97.029948 210.309364 
L 96.806862 210.131044 
L 96.580974 209.956287 
L 96.352343 209.785135 
L 96.121024 209.617633 
L 95.887078 209.453822 
L 95.650561 209.293743 
L 95.411535 209.137436 
L 95.170058 208.984942 
L 94.926193 208.836299 
L 94.68 208.691543 
L 94.431541 208.550711 
L 94.180879 208.413839 
L 93.928077 208.280962 
L 93.673199 208.152112 
L 93.416308 208.027322 
L 93.15747 207.906624 
L 92.89675 207.790048 
L 92.634212 207.677623 
L 92.369924 207.569377 
L 92.103952 207.465339 
L 91.836363 207.365533 
L 91.567223 207.269985 
L 91.296602 207.17872 
L 91.024567 207.09176 
L 90.751186 207.009126 
L 90.476529 206.930841 
L 90.200664 206.856923 
L 89.923661 206.787392 
L 89.64559 206.722264 
L 89.36652 206.661556 
L 89.086522 206.605283 
L 88.805667 206.55346 
L 88.524025 206.5061 
L 88.241667 206.463214 
L 87.958664 206.424813 
L 87.675088 206.390908 
L 87.391009 206.361505 
L 87.106499 206.336614 
L 86.821631 206.31624 
L 86.536474 206.300388 
L 86.251103 206.289062 
L 85.965587 206.282266 
L 85.68 206.28 
L 49.68 206.28 
L 49.394413 206.282266 
L 49.108897 206.289062 
L 48.823526 206.300388 
L 48.538369 206.31624 
L 48.253501 206.336614 
L 47.968991 206.361505 
L 47.684912 206.390908 
L 47.401336 206.424813 
L 47.118333 206.463214 
L 46.835975 206.5061 
L 46.554333 206.55346 
L 46.273478 206.605283 
L 45.99348 206.661556 
L 45.71441 206.722264 
L 45.436339 206.787392 
L 45.159336 206.856923 
L 44.883471 206.930841 
L 44.608814 207.009126 
L 44.335433 207.09176 
L 44.063398 207.17872 
L 43.792777 207.269985 
L 43.523637 207.365533 
L 43.256048 207.465339 
L 42.990076 207.569377 
L 42.725788 207.677623 
L 42.46325 207.790048 
L 42.20253 207.906624 
L 41.943692 208.027322 
L 41.686801 208.152112 
L 41.431923 208.280962 
L 41.179121 208.413839 
L 40.928459 208.550711 
L 40.68 208.691543 
L 40.433807 208.836299 
L 40.189942 208.984942 
L 39.948465 209.137436 
L 39.709439 209.293743 
L 39.472922 209.453822 
L 39.238976 209.617633 
L 39.007657 209.785135 
L 38.779026 209.956287 
L 38.553138 210.131044 
L 38.330052 210.309364 
L 38.109823 210.4912 
L 37.892507 210.676508 
L 37.678158 210.86524 
L 37.466831 211.057349 
L 37.258578 211.252787 
L 37.053452 211.451505 
L 36.851505 211.653452 
L 36.652787 211.858578 
L 36.457349 212.066831 
L 36.26524 212.278158 
L 36.076508 212.492507 
L 35.8912 212.709823 
L 35.709364 212.930052 
L 35.531044 213.153138 
L 35.356287 213.379026 
L 35.185135 213.607657 
L 35.017633 213.838976 
L 34.853822 214.072922 
L 34.693743 214.309439 
L 34.537436 214.548465 
L 34.384942 214.789942 
L 34.236299 215.033807 
L 34.091543 215.28 
L 33.950711 215.528459 
L 33.813839 215.779121 
L 33.680962 216.031923 
L 33.552112 216.286801 
L 33.427322 216.543692 
L 33.306624 216.80253 
L 33.190048 217.06325 
L 33.077623 217.325788 
L 32.969377 217.590076 
L 32.865339 217.856048 
L 32.765533 218.123637 
L 32.669985 218.392777 
L 32.57872 218.663398 
L 32.49176 218.935433 
L 32.409126 219.208814 
L 32.330841 219.483471 
L 32.256923 219.759336 
L 32.187392 220.036339 
L 32.122264 220.31441 
L 32.061556 220.59348 
L 32.005283 220.873478 
L 31.95346 221.154333 
L 31.9061 221.435975 
L 31.863214 221.718333 
L 31.824813 222.001336 
L 31.790908 222.284912 
L 31.761505 222.568991 
L 31.736614 222.853501 
L 31.71624 223.138369 
L 31.700388 223.423526 
L 31.689062 223.708897 
L 31.682266 223.994413 
L 31.68 224.28 
L 31.68 224.28 
L 31.682266 224.565587 
L 31.689062 224.851103 
L 31.700388 225.136474 
L 31.71624 225.421631 
L 31.736614 225.706499 
L 31.761505 225.991009 
L 31.790908 226.275088 
L 31.824813 226.558664 
L 31.863214 226.841667 
L 31.9061 227.124025 
L 31.95346 227.405667 
L 32.005283 227.686522 
L 32.061556 227.96652 
L 32.122264 228.24559 
L 32.187392 228.523661 
L 32.256923 228.800664 
L 32.330841 229.076529 
L 32.409126 229.351186 
L 32.49176 229.624567 
L 32.57872 229.896602 
L 32.669985 230.167223 
L 32.765533 230.436363 
L 32.865339 230.703952 
L 32.969377 230.969924 
L 33.077623 231.234212 
L 33.190048 231.49675 
L 33.306624 231.75747 
L 33.427322 232.016308 
L 33.552112 232.273199 
L 33.680962 232.528077 
L 33.813839 232.780879 
L 33.950711 233.031541 
L 34.091543 233.28 
L 34.236299 233.526193 
L 34.384942 233.770058 
L 34.537436 234.011535 
L 34.693743 234.250561 
L 34.853822 234.487078 
L 35.017633 234.721024 
L 35.185135 234.952343 
L 35.356287 235.180974 
L 35.531044 235.406862 
L 35.709364 235.629948 
L 35.8912 235.850177 
L 36.076508 236.067493 
L 36.26524 236.281842 
L 36.457349 236.493169 
L 36.652787 236.701422 
L 36.851505 236.906548 
L 37.053452 237.108495 
L 37.258578 237.307213 
L 37.466831 237.502651 
L 37.678158 237.69476 
L 37.892507 237.883492 
L 38.109823 238.0688 
L 38.330052 238.250636 
L 38.553138 238.428956 
L 38.779026 238.603713 
L 39.007657 238.774865 
L 39.238976 238.942367 
L 39.472922 239.106178 
L 39.709439 239.266257 
L 39.948465 239.422564 
L 40.189942 239.575058 
L 40.433807 239.723701 
L 40.68 239.868457 
L 40.928459 240.009289 
L 41.179121 240.146161 
L 41.431923 240.279038 
L 41.686801 240.407888 
L 41.943692 240.532678 
L 42.20253 240.653376 
L 42.46325 240.769952 
L 42.725788 240.882377 
L 42.990076 240.990623 
L 43.256048 241.094661 
L 43.523637 241.194467 
L 43.792777 241.290015 
L 44.063398 241.38128 
L 44.335433 241.46824 
L 44.608814 241.550874 
L 44.883471 241.629159 
L 45.159336 241.703077 
L 45.436339 241.772608 
L 45.71441 241.837736 
L 45.99348 241.898444 
L 46.273478 241.954717 
L 46.554333 242.00654 
L 46.835975 242.0539 
L 47.118333 242.096786 
L 47.401336 242.135187 
L 47.684912 242.169092 
L 47.968991 242.198495 
L 48.253501 242.223386 
L 48.538369 242.24376 
L 48.823526 242.259612 
L 49.108897 242.270938 
L 49.394413 242.277734 
L 49.68 242.28 
L 85.68 242.28 
z
" clip-path="url(#pb8e1797a0d)" style="fill: none; stroke: #000000; stroke-linecap: round"/>
   </g>
   <g id="line2d_1">
    <path d="M 67.68 40.68 
L 67.68 54.18 
L 67.68 58.68 
" clip-path="url(#pb8e1797a0d)" style="fill: none; stroke: #000000; stroke-linecap: round"/>
   </g>
   <g id="patch_6">
    <path d="M 70.38 58.68 
L 67.68 67.68 
L 64.98 58.68 
z
" clip-path="url(#pb8e1797a0d)"/>
   </g>
   <g id="line2d_2">
    <path d="M 130.68 89.28 
L 157.68 89.28 
L 175.68 89.28 
" clip-path="url(#pb8e1797a0d)" style="fill: none; stroke: #000000; stroke-linecap: round"/>
   </g>
   <g id="patch_7">
    <path d="M 175.68 86.58 
L 184.68 89.28 
L 175.68 91.98 
z
" clip-path="url(#pb8e1797a0d)"/>
   </g>
   <g id="line2d_3">
    <path d="M 184.68 89.28 
L 184.68 73.08 
L 256.68 73.08 
L 256.68 105.48 
L 184.68 105.48 
L 184.68 89.28 
" clip-path="url(#pb8e1797a0d)" style="fill: none; stroke: #000000; stroke-linecap: round"/>
   </g>
   <g id="line2d_4">
    <path d="M 220.68 105.48 
L 220.68 116.28 
L 220.68 118.08 
" clip-path="url(#pb8e1797a0d)" style="fill: none; stroke: #000000; stroke-linecap: round"/>
   </g>
   <g id="patch_8">
    <path d="M 223.38 118.08 
L 220.68 127.08 
L 217.98 118.08 
z
" clip-path="url(#pb8e1797a0d)"/>
   </g>
   <g id="line2d_5">
    <path d="M 67.68 110.88 
L 67.68 128.88 
L 67.68 137.88 
" clip-path="url(#pb8e1797a0d)" style="fill: none; stroke: #000000; stroke-linecap: round"/>
   </g>
   <g id="patch_9">
    <path d="M 70.38 137.88 
L 67.68 146.88 
L 64.98 137.88 
z
" clip-path="url(#pb8e1797a0d)"/>
   </g>
   <g id="line2d_6">
    <path d="M 31.68 163.08 
L 31.68 146.88 
L 103.68 146.88 
L 103.68 179.28 
L 31.68 179.28 
L 31.68 163.08 
" clip-path="url(#pb8e1797a0d)" style="fill: none; stroke: #000000; stroke-linecap: round"/>
   </g>
   <g id="line2d_7">
    <path d="M 67.68 179.28 
L 67.68 192.78 
L 67.68 197.28 
" clip-path="url(#pb8e1797a0d)" style="fill: none; stroke: #000000; stroke-linecap: round"/>
   </g>
   <g id="patch_10">
    <path d="M 70.38 197.28 
L 67.68 206.28 
L 64.98 197.28 
z
" clip-path="url(#pb8e1797a0d)"/>
   </g>
   <g id="text_1">
    <!-- START -->
    <g transform="translate(46.202031 26.593437) scale(0.14 -0.14)">
     <defs>
      <path id="IPAexGothic-53" d="M 2919 3641 
Q 2563 4259 1853 4259 
Q 1453 4259 1213 4009 
Q 1028 3803 1028 3534 
Q 1028 3238 1266 3047 
Q 1444 2913 1984 2688 
L 2200 2597 
Q 2925 2306 3191 1953 
Q 3422 1644 3422 1259 
Q 3422 644 2969 288 
Q 2559 -31 1931 -31 
Q 881 -31 313 766 
L 753 1100 
Q 1203 459 1938 459 
Q 2288 459 2534 625 
Q 2841 847 2841 1216 
Q 2841 1503 2616 1728 
Q 2375 1959 1728 2206 
L 1541 2278 
Q 453 2694 453 3481 
Q 453 4006 806 4347 
Q 1203 4725 1863 4725 
Q 2841 4725 3359 3956 
L 2919 3641 
z
" transform="scale(0.015625)"/>
      <path id="IPAexGothic-54" d="M 3866 4141 
L 2175 4141 
L 2175 63 
L 1606 63 
L 1606 4141 
L -31 4141 
L -31 4634 
L 3866 4634 
L 3866 4141 
z
" transform="scale(0.015625)"/>
      <path id="IPAexGothic-41" d="M 4056 63 
L 3444 63 
L 2938 1409 
L 1100 1409 
L 603 63 
L -6 63 
L 1806 4666 
L 2259 4666 
L 4056 63 
z
M 2778 1863 
L 2316 3078 
Q 2125 3588 2028 4000 
L 2009 4000 
Q 1897 3563 1716 3078 
L 1263 1863 
L 2778 1863 
z
" transform="scale(0.015625)"/>
      <path id="IPAexGothic-52" d="M 4072 63 
L 3394 63 
Q 3138 641 2828 1197 
Q 2584 1641 2344 1825 
Q 2050 2044 1625 2044 
L 1172 2044 
L 1172 63 
L 609 63 
L 609 4634 
L 2009 4634 
Q 2713 4634 3131 4378 
Q 3688 4044 3688 3381 
Q 3688 2784 3181 2459 
Q 2906 2272 2522 2216 
L 2522 2197 
Q 2941 2050 3247 1581 
Q 3516 1166 4072 63 
z
M 1172 2478 
L 1869 2478 
Q 3106 2478 3106 3369 
Q 3106 4181 1928 4181 
L 1172 4181 
L 1172 2478 
z
" transform="scale(0.015625)"/>
     </defs>
     <use xlink:href="#IPAexGothic-53"/>
     <use xlink:href="#IPAexGothic-54" transform="translate(58.496094 0)"/>
     <use xlink:href="#IPAexGothic-41" transform="translate(118.408203 0)"/>
     <use xlink:href="#IPAexGothic-52" transform="translate(182.128906 0)"/>
     <use xlink:href="#IPAexGothic-54" transform="translate(246.923828 0)"/>
    </g>
   </g>
   <g id="text_2">
    <!-- False -->
    <g transform="translate(72.36 126.046875) scale(0.14 -0.14)">
     <defs>
      <path id="IPAexGothic-46" d="M 3469 4141 
L 1172 4141 
L 1172 2656 
L 3206 2656 
L 3206 2188 
L 1172 2188 
L 1172 63 
L 609 63 
L 609 4634 
L 3469 4634 
L 3469 4141 
z
" transform="scale(0.015625)"/>
      <path id="IPAexGothic-61" d="M 3156 63 
L 2672 63 
Q 2559 303 2531 556 
L 2509 556 
Q 2147 -25 1428 -25 
Q 934 -25 622 288 
Q 347 563 347 959 
Q 347 1947 2050 1997 
L 2478 2009 
L 2478 2175 
Q 2478 2509 2288 2700 
Q 2088 2900 1775 2900 
Q 1238 2900 969 2378 
L 494 2597 
Q 938 3328 1788 3328 
Q 2375 3328 2691 3000 
Q 2984 2706 2984 2169 
L 2984 997 
Q 2984 400 3156 63 
z
M 2491 1625 
L 2141 1619 
Q 903 1591 903 953 
Q 903 728 1050 581 
Q 1231 403 1525 403 
Q 1934 403 2234 703 
Q 2491 969 2491 1344 
L 2491 1625 
z
" transform="scale(0.015625)"/>
      <path id="IPAexGothic-6c" d="M 1131 63 
L 581 63 
L 581 4794 
L 1131 4794 
L 1131 63 
z
" transform="scale(0.015625)"/>
      <path id="IPAexGothic-73" d="M 2234 2547 
Q 1938 2931 1484 2931 
Q 891 2931 891 2475 
Q 891 2153 1531 1944 
L 1741 1875 
Q 2650 1578 2650 894 
Q 2650 434 2272 172 
Q 1972 -31 1497 -31 
Q 766 -31 256 503 
L 603 819 
Q 997 397 1516 397 
Q 2131 397 2131 875 
Q 2131 1238 1453 1478 
L 1234 1553 
Q 378 1853 378 2431 
Q 378 2797 628 3047 
Q 928 3347 1453 3347 
Q 2156 3347 2606 2859 
L 2234 2547 
z
" transform="scale(0.015625)"/>
      <path id="IPAexGothic-65" d="M 863 1594 
Q 891 1041 1209 722 
Q 1534 397 1997 397 
Q 2606 397 2963 966 
L 3322 728 
Q 2869 -31 1931 -31 
Q 1222 -31 766 422 
Q 306 884 306 1641 
Q 306 2444 788 2925 
Q 1216 3353 1856 3353 
Q 2459 3353 2866 2956 
Q 3322 2494 3322 1722 
L 3322 1594 
L 863 1594 
z
M 2756 1997 
Q 2709 2431 2450 2681 
Q 2194 2938 1844 2938 
Q 1438 2938 1150 2591 
Q 953 2356 894 1997 
L 2756 1997 
z
" transform="scale(0.015625)"/>
     </defs>
     <use xlink:href="#IPAexGothic-46"/>
     <use xlink:href="#IPAexGothic-61" transform="translate(57.177734 0)"/>
     <use xlink:href="#IPAexGothic-6c" transform="translate(112.158203 0)"/>
     <use xlink:href="#IPAexGothic-73" transform="translate(139.160156 0)"/>
     <use xlink:href="#IPAexGothic-65" transform="translate(185.351562 0)"/>
    </g>
   </g>
   <g id="text_3">
    <!-- True -->
    <g transform="translate(135.36 81.94) scale(0.14 -0.14)">
     <defs>
      <path id="IPAexGothic-72" d="M 2309 3316 
L 2213 2769 
Q 2106 2791 2022 2791 
Q 1653 2791 1413 2444 
Q 1113 2006 1113 1675 
L 1113 63 
L 563 63 
L 563 3250 
L 1081 3250 
L 1056 2303 
L 1069 2303 
Q 1422 3341 2097 3341 
Q 2206 3341 2309 3316 
z
" transform="scale(0.015625)"/>
      <path id="IPAexGothic-75" d="M 3284 63 
L 2772 63 
L 2772 644 
Q 2300 0 1625 0 
Q 1072 0 763 375 
Q 519 678 519 1241 
L 519 3250 
L 1069 3250 
L 1069 1259 
Q 1069 466 1734 466 
Q 2406 466 2734 1291 
L 2734 3250 
L 3284 3250 
L 3284 63 
z
" transform="scale(0.015625)"/>
     </defs>
     <use xlink:href="#IPAexGothic-54"/>
     <use xlink:href="#IPAexGothic-72" transform="translate(59.912109 0)"/>
     <use xlink:href="#IPAexGothic-75" transform="translate(96.923828 0)"/>
     <use xlink:href="#IPAexGothic-65" transform="translate(157.324219 0)"/>
    </g>
   </g>
   <g id="text_4">
    <!-- $x\geq 0$ ? -->
    <g transform="translate(44.72 93.193437) scale(0.14 -0.14)">
     <defs>
      <path id="DejaVuSans-Oblique-78" d="M 3841 3500 
L 2234 1784 
L 3219 0 
L 2559 0 
L 1819 1388 
L 531 0 
L -166 0 
L 1556 1844 
L 641 3500 
L 1300 3500 
L 1972 2234 
L 3144 3500 
L 3841 3500 
z
" transform="scale(0.015625)"/>
      <path id="DejaVuSans-2265" d="M 678 3175 
L 678 3725 
L 4684 2578 
L 4684 2047 
L 678 897 
L 678 1453 
L 3681 2309 
L 678 3175 
z
M 4684 531 
L 4684 0 
L 678 0 
L 678 531 
L 4684 531 
z
" transform="scale(0.015625)"/>
      <path id="DejaVuSans-30" d="M 2034 4250 
Q 1547 4250 1301 3770 
Q 1056 3291 1056 2328 
Q 1056 1369 1301 889 
Q 1547 409 2034 409 
Q 2525 409 2770 889 
Q 3016 1369 3016 2328 
Q 3016 3291 2770 3770 
Q 2525 4250 2034 4250 
z
M 2034 4750 
Q 2819 4750 3233 4129 
Q 3647 3509 3647 2328 
Q 3647 1150 3233 529 
Q 2819 -91 2034 -91 
Q 1250 -91 836 529 
Q 422 1150 422 2328 
Q 422 3509 836 4129 
Q 1250 4750 2034 4750 
z
" transform="scale(0.015625)"/>
      <path id="IPAexGothic-20" transform="scale(0.015625)"/>
      <path id="IPAexGothic-3f" d="M 225 3425 
Q 503 4725 1763 4725 
Q 2413 4725 2803 4334 
Q 3144 3994 3144 3516 
Q 3144 3081 2838 2716 
Q 2703 2563 2344 2266 
L 2216 2156 
Q 1888 1878 1888 1363 
L 1888 1209 
L 1422 1209 
L 1422 1422 
Q 1422 2050 1881 2491 
L 2022 2625 
L 2075 2669 
Q 2575 3122 2575 3516 
Q 2575 3822 2363 4041 
Q 2128 4278 1763 4278 
Q 963 4278 725 3309 
L 225 3425 
z
M 1978 63 
L 1325 63 
L 1325 728 
L 1978 728 
L 1978 63 
z
" transform="scale(0.015625)"/>
     </defs>
     <use xlink:href="#DejaVuSans-Oblique-78" transform="translate(0 0.78125)"/>
     <use xlink:href="#DejaVuSans-2265" transform="translate(78.662109 0.78125)"/>
     <use xlink:href="#DejaVuSans-30" transform="translate(181.933594 0.78125)"/>
     <use xlink:href="#IPAexGothic-20" transform="translate(245.556641 0.78125)"/>
     <use xlink:href="#IPAexGothic-3f" transform="translate(272.558594 0.78125)"/>
    </g>
   </g>
   <g id="text_5">
    <!-- $x$ -->
    <g transform="translate(216.48 93.193437) scale(0.14 -0.14)">
     <use xlink:href="#DejaVuSans-Oblique-78" transform="translate(0 0.3125)"/>
    </g>
   </g>
   <g id="text_6">
    <!-- END -->
    <g transform="translate(205.896875 148.993437) scale(0.14 -0.14)">
     <defs>
      <path id="IPAexGothic-45" d="M 3547 63 
L 609 63 
L 609 4634 
L 3469 4634 
L 3469 4147 
L 1166 4147 
L 1166 2650 
L 3206 2650 
L 3206 2191 
L 1166 2191 
L 1166 556 
L 3547 556 
L 3547 63 
z
" transform="scale(0.015625)"/>
      <path id="IPAexGothic-4e" d="M 4244 63 
L 3731 63 
L 1697 3150 
Q 1466 3500 1141 4097 
L 1116 4097 
L 1128 3797 
Q 1159 2803 1159 2469 
L 1159 63 
L 609 63 
L 609 4634 
L 1366 4634 
L 3113 1978 
Q 3453 1447 3713 966 
L 3738 966 
Q 3694 1897 3694 2469 
L 3694 4634 
L 4244 4634 
L 4244 63 
z
" transform="scale(0.015625)"/>
      <path id="IPAexGothic-44" d="M 609 4634 
L 1984 4634 
Q 3159 4634 3791 4050 
Q 4456 3444 4456 2356 
Q 4456 1047 3516 441 
Q 2925 63 1941 63 
L 609 63 
L 609 4634 
z
M 1172 556 
L 1894 556 
Q 3853 556 3853 2356 
Q 3853 4147 1928 4147 
L 1172 4147 
L 1172 556 
z
" transform="scale(0.015625)"/>
     </defs>
     <use xlink:href="#IPAexGothic-45"/>
     <use xlink:href="#IPAexGothic-4e" transform="translate(59.521484 0)"/>
     <use xlink:href="#IPAexGothic-44" transform="translate(135.498047 0)"/>
    </g>
   </g>
   <g id="text_7">
    <!-- $-x$ -->
    <g transform="translate(57.67 166.993437) scale(0.14 -0.14)">
     <defs>
      <path id="DejaVuSans-2212" d="M 678 2272 
L 4684 2272 
L 4684 1741 
L 678 1741 
L 678 2272 
z
" transform="scale(0.015625)"/>
     </defs>
     <use xlink:href="#DejaVuSans-2212" transform="translate(0 0.3125)"/>
     <use xlink:href="#DejaVuSans-Oblique-78" transform="translate(83.789062 0.3125)"/>
    </g>
   </g>
   <g id="text_8">
    <!-- END -->
    <g transform="translate(52.896875 228.193437) scale(0.14 -0.14)">
     <use xlink:href="#IPAexGothic-45"/>
     <use xlink:href="#IPAexGothic-4e" transform="translate(59.521484 0)"/>
     <use xlink:href="#IPAexGothic-44" transform="translate(135.498047 0)"/>
    </g>
   </g>
  </g>
 </g>
 <defs>
  <clipPath id="pb8e1797a0d">
   <rect x="0" y="-0" width="261.36" height="246.96"/>
  </clipPath>
 </defs>
</svg>