<?xml version="1.0" encoding="utf-8" standalone="no"?>
<!DOCTYPE svg PUBLIC "-//W3C//DTD SVG 1.1//EN"
  "http://www.w3.org/Graphics/SVG/1.1/DTD/svg11.dtd">
<svg xmlns:xlink="http://www.w3.org/1999/xlink" width="331.92pt" height="276.48pt" viewBox="0 0 331.92 276.48" xmlns="http://www.w3.org/2000/svg" version="1.1">
 <metadata>
  <rdf:RDF xmlns:dc="http://purl.org/dc/elements/1.1/" xmlns:cc="http://creativecommons.org/ns#" xmlns:rdf="http://www.w3.org/1999/02/22-rdf-syntax-ns#">
   <cc:Work>
    <dc:type rdf:resource="http://purl.org/dc/dcmitype/StillImage"/>
    <dc:date>2024-03-07T12:08:11.629890</dc:date>
    <dc:format>image/svg+xml</dc:format>
    <dc:creator>
     <cc:Agent>
      <dc:title>Matplotlib v3.8.3, https://matplotlib.org/</dc:title>
     </cc:Agent>
    </dc:creator>
   </cc:Work>
  </rdf:RDF>
 </metadata>
 <defs>
  <style type="text/css">*{stroke-linejoin: round; stroke-linecap: butt}</style>
 </defs>
 <g id="figure_1">
  <g id="patch_1">
   <path d="M 0 276.48 
L 331.92 276.48 
L 331.92 0 
L 0 0 
z
" style="fill: #ffffff"/>
  </g>
  <g id="axes_1">
   <g id="patch_2">
    <path d="M 90.36 51.84 
L 90.645587 51.837734 
L 90.931103 51.830938 
L 91.216474 51.819612 
L 91.501631 51.80376 
L 91.786499 51.783386 
L 92.071009 51.758495 
L 92.355088 51.729092 
L 92.638664 51.695187 
L 92.921667 51.656786 
L 93.204025 51.6139 
L 93.485667 51.56654 
L 93.766522 51.514717 
L 94.04652 51.458444 
L 94.32559 51.397736 
L 94.603661 51.332608 
L 94.880664 51.263077 
L 95.156529 51.189159 
L 95.431186 51.110874 
L 95.704567 51.02824 
L 95.976602 50.94128 
L 96.247223 50.850015 
L 96.516363 50.754467 
L 96.783952 50.654661 
L 97.049924 50.550623 
L 97.314212 50.442377 
L 97.57675 50.329952 
L 97.83747 50.213376 
L 98.096308 50.092678 
L 98.353199 49.967888 
L 98.608077 49.839038 
L 98.860879 49.706161 
L 99.111541 49.569289 
L 99.36 49.428457 
L 99.606193 49.283701 
L 99.850058 49.135058 
L 100.091535 48.982564 
L 100.330561 48.826257 
L 100.567078 48.666178 
L 100.801024 48.502367 
L 101.032343 48.334865 
L 101.260974 48.163713 
L 101.486862 47.988956 
L 101.709948 47.810636 
L 101.930177 47.6288 
L 102.147493 47.443492 
L 102.361842 47.25476 
L 102.573169 47.062651 
L 102.781422 46.867213 
L 102.986548 46.668495 
L 103.188495 46.466548 
L 103.387213 46.261422 
L 103.582651 46.053169 
L 103.77476 45.841842 
L 103.963492 45.627493 
L 104.1488 45.410177 
L 104.330636 45.189948 
L 104.508956 44.966862 
L 104.683713 44.740974 
L 104.854865 44.512343 
L 105.022367 44.281024 
L 105.186178 44.047078 
L 105.346257 43.810561 
L 105.502564 43.571535 
L 105.655058 43.330058 
L 105.803701 43.086193 
L 105.948457 42.84 
L 106.089289 42.591541 
L 106.226161 42.340879 
L 106.359038 42.088077 
L 106.487888 41.833199 
L 106.612678 41.576308 
L 106.733376 41.31747 
L 106.849952 41.05675 
L 106.962377 40.794212 
L 107.070623 40.529924 
L 107.174661 40.263952 
L 107.274467 39.996363 
L 107.370015 39.727223 
L 107.46128 39.456602 
L 107.54824 39.184567 
L 107.630874 38.911186 
L 107.709159 38.636529 
L 107.783077 38.360664 
L 107.852608 38.083661 
L 107.917736 37.80559 
L 107.978444 37.52652 
L 108.034717 37.246522 
L 108.08654 36.965667 
L 108.1339 36.684025 
L 108.176786 36.401667 
L 108.215187 36.118664 
L 108.249092 35.835088 
L 108.278495 35.551009 
L 108.303386 35.266499 
L 108.32376 34.981631 
L 108.339612 34.696474 
L 108.350938 34.411103 
L 108.357734 34.125587 
L 108.36 33.84 
L 108.36 33.84 
L 108.357734 33.554413 
L 108.350938 33.268897 
L 108.339612 32.983526 
L 108.32376 32.698369 
L 108.303386 32.413501 
L 108.278495 32.128991 
L 108.249092 31.844912 
L 108.215187 31.561336 
L 108.176786 31.278333 
L 108.1339 30.995975 
L 108.08654 30.714333 
L 108.034717 30.433478 
L 107.978444 30.15348 
L 107.917736 29.87441 
L 107.852608 29.596339 
L 107.783077 29.319336 
L 107.709159 29.043471 
L 107.630874 28.768814 
L 107.54824 28.495433 
L 107.46128 28.223398 
L 107.370015 27.952777 
L 107.274467 27.683637 
L 107.174661 27.416048 
L 107.070623 27.150076 
L 106.962377 26.885788 
L 106.849952 26.62325 
L 106.733376 26.36253 
L 106.612678 26.103692 
L 106.487888 25.846801 
L 106.359038 25.591923 
L 106.226161 25.339121 
L 106.089289 25.088459 
L 105.948457 24.84 
L 105.803701 24.593807 
L 105.655058 24.349942 
L 105.502564 24.108465 
L 105.346257 23.869439 
L 105.186178 23.632922 
L 105.022367 23.398976 
L 104.854865 23.167657 
L 104.683713 22.939026 
L 104.508956 22.713138 
L 104.330636 22.490052 
L 104.1488 22.269823 
L 103.963492 22.052507 
L 103.77476 21.838158 
L 103.582651 21.626831 
L 103.387213 21.418578 
L 103.188495 21.213452 
L 102.986548 21.011505 
L 102.781422 20.812787 
L 102.573169 20.617349 
L 102.361842 20.42524 
L 102.147493 20.236508 
L 101.930177 20.0512 
L 101.709948 19.869364 
L 101.486862 19.691044 
L 101.260974 19.516287 
L 101.032343 19.345135 
L 100.801024 19.177633 
L 100.567078 19.013822 
L 100.330561 18.853743 
L 100.091535 18.697436 
L 99.850058 18.544942 
L 99.606193 18.396299 
L 99.36 18.251543 
L 99.111541 18.110711 
L 98.860879 17.973839 
L 98.608077 17.840962 
L 98.353199 17.712112 
L 98.096308 17.587322 
L 97.83747 17.466624 
L 97.57675 17.350048 
L 97.314212 17.237623 
L 97.049924 17.129377 
L 96.783952 17.025339 
L 96.516363 16.925533 
L 96.247223 16.829985 
L 95.976602 16.73872 
L 95.704567 16.65176 
L 95.431186 16.569126 
L 95.156529 16.490841 
L 94.880664 16.416923 
L 94.603661 16.347392 
L 94.32559 16.282264 
L 94.04652 16.221556 
L 93.766522 16.165283 
L 93.485667 16.11346 
L 93.204025 16.0661 
L 92.921667 16.023214 
L 92.638664 15.984813 
L 92.355088 15.950908 
L 92.071009 15.921505 
L 91.786499 15.896614 
L 91.501631 15.87624 
L 91.216474 15.860388 
L 90.931103 15.849062 
L 90.645587 15.842266 
L 90.36 15.84 
L 54.36 15.84 
L 54.074413 15.842266 
L 53.788897 15.849062 
L 53.503526 15.860388 
L 53.218369 15.87624 
L 52.933501 15.896614 
L 52.648991 15.921505 
L 52.364912 15.950908 
L 52.081336 15.984813 
L 51.798333 16.023214 
L 51.515975 16.0661 
L 51.234333 16.11346 
L 50.953478 16.165283 
L 50.67348 16.221556 
L 50.39441 16.282264 
L 50.116339 16.347392 
L 49.839336 16.416923 
L 49.563471 16.490841 
L 49.288814 16.569126 
L 49.015433 16.65176 
L 48.743398 16.73872 
L 48.472777 16.829985 
L 48.203637 16.925533 
L 47.936048 17.025339 
L 47.670076 17.129377 
L 47.405788 17.237623 
L 47.14325 17.350048 
L 46.88253 17.466624 
L 46.623692 17.587322 
L 46.366801 17.712112 
L 46.111923 17.840962 
L 45.859121 17.973839 
L 45.608459 18.110711 
L 45.36 18.251543 
L 45.113807 18.396299 
L 44.869942 18.544942 
L 44.628465 18.697436 
L 44.389439 18.853743 
L 44.152922 19.013822 
L 43.918976 19.177633 
L 43.687657 19.345135 
L 43.459026 19.516287 
L 43.233138 19.691044 
L 43.010052 19.869364 
L 42.789823 20.0512 
L 42.572507 20.236508 
L 42.358158 20.42524 
L 42.146831 20.617349 
L 41.938578 20.812787 
L 41.733452 21.011505 
L 41.531505 21.213452 
L 41.332787 21.418578 
L 41.137349 21.626831 
L 40.94524 21.838158 
L 40.756508 22.052507 
L 40.5712 22.269823 
L 40.389364 22.490052 
L 40.211044 22.713138 
L 40.036287 22.939026 
L 39.865135 23.167657 
L 39.697633 23.398976 
L 39.533822 23.632922 
L 39.373743 23.869439 
L 39.217436 24.108465 
L 39.064942 24.349942 
L 38.916299 24.593807 
L 38.771543 24.84 
L 38.630711 25.088459 
L 38.493839 25.339121 
L 38.360962 25.591923 
L 38.232112 25.846801 
L 38.107322 26.103692 
L 37.986624 26.36253 
L 37.870048 26.62325 
L 37.757623 26.885788 
L 37.649377 27.150076 
L 37.545339 27.416048 
L 37.445533 27.683637 
L 37.349985 27.952777 
L 37.25872 28.223398 
L 37.17176 28.495433 
L 37.089126 28.768814 
L 37.010841 29.043471 
L 36.936923 29.319336 
L 36.867392 29.596339 
L 36.802264 29.87441 
L 36.741556 30.15348 
L 36.685283 30.433478 
L 36.63346 30.714333 
L 36.5861 30.995975 
L 36.543214 31.278333 
L 36.504813 31.561336 
L 36.470908 31.844912 
L 36.441505 32.128991 
L 36.416614 32.413501 
L 36.39624 32.698369 
L 36.380388 32.983526 
L 36.369062 33.268897 
L 36.362266 33.554413 
L 36.36 33.84 
L 36.36 33.84 
L 36.362266 34.125587 
L 36.369062 34.411103 
L 36.380388 34.696474 
L 36.39624 34.981631 
L 36.416614 35.266499 
L 36.441505 35.551009 
L 36.470908 35.835088 
L 36.504813 36.118664 
L 36.543214 36.401667 
L 36.5861 36.684025 
L 36.63346 36.965667 
L 36.685283 37.246522 
L 36.741556 37.52652 
L 36.802264 37.80559 
L 36.867392 38.083661 
L 36.936923 38.360664 
L 37.010841 38.636529 
L 37.089126 38.911186 
L 37.17176 39.184567 
L 37.25872 39.456602 
L 37.349985 39.727223 
L 37.445533 39.996363 
L 37.545339 40.263952 
L 37.649377 40.529924 
L 37.757623 40.794212 
L 37.870048 41.05675 
L 37.986624 41.31747 
L 38.107322 41.576308 
L 38.232112 41.833199 
L 38.360962 42.088077 
L 38.493839 42.340879 
L 38.630711 42.591541 
L 38.771543 42.84 
L 38.916299 43.086193 
L 39.064942 43.330058 
L 39.217436 43.571535 
L 39.373743 43.810561 
L 39.533822 44.047078 
L 39.697633 44.281024 
L 39.865135 44.512343 
L 40.036287 44.740974 
L 40.211044 44.966862 
L 40.389364 45.189948 
L 40.5712 45.410177 
L 40.756508 45.627493 
L 40.94524 45.841842 
L 41.137349 46.053169 
L 41.332787 46.261422 
L 41.531505 46.466548 
L 41.733452 46.668495 
L 41.938578 46.867213 
L 42.146831 47.062651 
L 42.358158 47.25476 
L 42.572507 47.443492 
L 42.789823 47.6288 
L 43.010052 47.810636 
L 43.233138 47.988956 
L 43.459026 48.163713 
L 43.687657 48.334865 
L 43.918976 48.502367 
L 44.152922 48.666178 
L 44.389439 48.826257 
L 44.628465 48.982564 
L 44.869942 49.135058 
L 45.113807 49.283701 
L 45.36 49.428457 
L 45.608459 49.569289 
L 45.859121 49.706161 
L 46.111923 49.839038 
L 46.366801 49.967888 
L 46.623692 50.092678 
L 46.88253 50.213376 
L 47.14325 50.329952 
L 47.405788 50.442377 
L 47.670076 50.550623 
L 47.936048 50.654661 
L 48.203637 50.754467 
L 48.472777 50.850015 
L 48.743398 50.94128 
L 49.015433 51.02824 
L 49.288814 51.110874 
L 49.563471 51.189159 
L 49.839336 51.263077 
L 50.116339 51.332608 
L 50.39441 51.397736 
L 50.67348 51.458444 
L 50.953478 51.514717 
L 51.234333 51.56654 
L 51.515975 51.6139 
L 51.798333 51.656786 
L 52.081336 51.695187 
L 52.364912 51.729092 
L 52.648991 51.758495 
L 52.933501 51.783386 
L 53.218369 51.80376 
L 53.503526 51.819612 
L 53.788897 51.830938 
L 54.074413 51.837734 
L 54.36 51.84 
L 90.36 51.84 
z
" clip-path="url(#p4b389cc850)" style="fill: none; stroke: #000000; stroke-linecap: round"/>
   </g>
   <g id="patch_3">
    <path d="M 18.36 165.24 
L 72.36 141.84 
L 126.36 165.24 
L 72.36 188.64 
L 18.36 165.24 
z
" clip-path="url(#p4b389cc850)" style="fill: none; stroke: #000000; stroke-linecap: round"/>
   </g>
   <g id="patch_4">
    <path d="M 264.96 246.24 
L 265.245587 246.237734 
L 265.531103 246.230938 
L 265.816474 246.219612 
L 266.101631 246.20376 
L 266.386499 246.183386 
L 266.671009 246.158495 
L 266.955088 246.129092 
L 267.238664 246.095187 
L 267.521667 246.056786 
L 267.804025 246.0139 
L 268.085667 245.96654 
L 268.366522 245.914717 
L 268.64652 245.858444 
L 268.92559 245.797736 
L 269.203661 245.732608 
L 269.480664 245.663077 
L 269.756529 245.589159 
L 270.031186 245.510874 
L 270.304567 245.42824 
L 270.576602 245.34128 
L 270.847223 245.250015 
L 271.116363 245.154467 
L 271.383952 245.054661 
L 271.649924 244.950623 
L 271.914212 244.842377 
L 272.17675 244.729952 
L 272.43747 244.613376 
L 272.696308 244.492678 
L 272.953199 244.367888 
L 273.208077 244.239038 
L 273.460879 244.106161 
L 273.711541 243.969289 
L 273.96 243.828457 
L 274.206193 243.683701 
L 274.450058 243.535058 
L 274.691535 243.382564 
L 274.930561 243.226257 
L 275.167078 243.066178 
L 275.401024 242.902367 
L 275.632343 242.734865 
L 275.860974 242.563713 
L 276.086862 242.388956 
L 276.309948 242.210636 
L 276.530177 242.0288 
L 276.747493 241.843492 
L 276.961842 241.65476 
L 277.173169 241.462651 
L 277.381422 241.267213 
L 277.586548 241.068495 
L 277.788495 240.866548 
L 277.987213 240.661422 
L 278.182651 240.453169 
L 278.37476 240.241842 
L 278.563492 240.027493 
L 278.7488 239.810177 
L 278.930636 239.589948 
L 279.108956 239.366862 
L 279.283713 239.140974 
L 279.454865 238.912343 
L 279.622367 238.681024 
L 279.786178 238.447078 
L 279.946257 238.210561 
L 280.102564 237.971535 
L 280.255058 237.730058 
L 280.403701 237.486193 
L 280.548457 237.24 
L 280.689289 236.991541 
L 280.826161 236.740879 
L 280.959038 236.488077 
L 281.087888 236.233199 
L 281.212678 235.976308 
L 281.333376 235.71747 
L 281.449952 235.45675 
L 281.562377 235.194212 
L 281.670623 234.929924 
L 281.774661 234.663952 
L 281.874467 234.396363 
L 281.970015 234.127223 
L 282.06128 233.856602 
L 282.14824 233.584567 
L 282.230874 233.311186 
L 282.309159 233.036529 
L 282.383077 232.760664 
L 282.452608 232.483661 
L 282.517736 232.20559 
L 282.578444 231.92652 
L 282.634717 231.646522 
L 282.68654 231.365667 
L 282.7339 231.084025 
L 282.776786 230.801667 
L 282.815187 230.518664 
L 282.849092 230.235088 
L 282.878495 229.951009 
L 282.903386 229.666499 
L 282.92376 229.381631 
L 282.939612 229.096474 
L 282.950938 228.811103 
L 282.957734 228.525587 
L 282.96 228.24 
L 282.96 228.24 
L 282.957734 227.954413 
L 282.950938 227.668897 
L 282.939612 227.383526 
L 282.92376 227.098369 
L 282.903386 226.813501 
L 282.878495 226.528991 
L 282.849092 226.244912 
L 282.815187 225.961336 
L 282.776786 225.678333 
L 282.7339 225.395975 
L 282.68654 225.114333 
L 282.634717 224.833478 
L 282.578444 224.55348 
L 282.517736 224.27441 
L 282.452608 223.996339 
L 282.383077 223.719336 
L 282.309159 223.443471 
L 282.230874 223.168814 
L 282.14824 222.895433 
L 282.06128 222.623398 
L 281.970015 222.352777 
L 281.874467 222.083637 
L 281.774661 221.816048 
L 281.670623 221.550076 
L 281.562377 221.285788 
L 281.449952 221.02325 
L 281.333376 220.76253 
L 281.212678 220.503692 
L 281.087888 220.246801 
L 280.959038 219.991923 
L 280.826161 219.739121 
L 280.689289 219.488459 
L 280.548457 219.24 
L 280.403701 218.993807 
L 280.255058 218.749942 
L 280.102564 218.508465 
L 279.946257 218.269439 
L 279.786178 218.032922 
L 279.622367 217.798976 
L 279.454865 217.567657 
L 279.283713 217.339026 
L 279.108956 217.113138 
L 278.930636 216.890052 
L 278.7488 216.669823 
L 278.563492 216.452507 
L 278.37476 216.238158 
L 278.182651 216.026831 
L 277.987213 215.818578 
L 277.788495 215.613452 
L 277.586548 215.411505 
L 277.381422 215.212787 
L 277.173169 215.017349 
L 276.961842 214.82524 
L 276.747493 214.636508 
L 276.530177 214.4512 
L 276.309948 214.269364 
L 276.086862 214.091044 
L 275.860974 213.916287 
L 275.632343 213.745135 
L 275.401024 213.577633 
L 275.167078 213.413822 
L 274.930561 213.253743 
L 274.691535 213.097436 
L 274.450058 212.944942 
L 274.206193 212.796299 
L 273.96 212.651543 
L 273.711541 212.510711 
L 273.460879 212.373839 
L 273.208077 212.240962 
L 272.953199 212.112112 
L 272.696308 211.987322 
L 272.43747 211.866624 
L 272.17675 211.750048 
L 271.914212 211.637623 
L 271.649924 211.529377 
L 271.383952 211.425339 
L 271.116363 211.325533 
L 270.847223 211.229985 
L 270.576602 211.13872 
L 270.304567 211.05176 
L 270.031186 210.969126 
L 269.756529 210.890841 
L 269.480664 210.816923 
L 269.203661 210.747392 
L 268.92559 210.682264 
L 268.64652 210.621556 
L 268.366522 210.565283 
L 268.085667 210.51346 
L 267.804025 210.4661 
L 267.521667 210.423214 
L 267.238664 210.384813 
L 266.955088 210.350908 
L 266.671009 210.321505 
L 266.386499 210.296614 
L 266.101631 210.27624 
L 265.816474 210.260388 
L 265.531103 210.249062 
L 265.245587 210.242266 
L 264.96 210.24 
L 228.96 210.24 
L 228.674413 210.242266 
L 228.388897 210.249062 
L 228.103526 210.260388 
L 227.818369 210.27624 
L 227.533501 210.296614 
L 227.248991 210.321505 
L 226.964912 210.350908 
L 226.681336 210.384813 
L 226.398333 210.423214 
L 226.115975 210.4661 
L 225.834333 210.51346 
L 225.553478 210.565283 
L 225.27348 210.621556 
L 224.99441 210.682264 
L 224.716339 210.747392 
L 224.439336 210.816923 
L 224.163471 210.890841 
L 223.888814 210.969126 
L 223.615433 211.05176 
L 223.343398 211.13872 
L 223.072777 211.229985 
L 222.803637 211.325533 
L 222.536048 211.425339 
L 222.270076 211.529377 
L 222.005788 211.637623 
L 221.74325 211.750048 
L 221.48253 211.866624 
L 221.223692 211.987322 
L 220.966801 212.112112 
L 220.711923 212.240962 
L 220.459121 212.373839 
L 220.208459 212.510711 
L 219.96 212.651543 
L 219.713807 212.796299 
L 219.469942 212.944942 
L 219.228465 213.097436 
L 218.989439 213.253743 
L 218.752922 213.413822 
L 218.518976 213.577633 
L 218.287657 213.745135 
L 218.059026 213.916287 
L 217.833138 214.091044 
L 217.610052 214.269364 
L 217.389823 214.4512 
L 217.172507 214.636508 
L 216.958158 214.82524 
L 216.746831 215.017349 
L 216.538578 215.212787 
L 216.333452 215.411505 
L 216.131505 215.613452 
L 215.932787 215.818578 
L 215.737349 216.026831 
L 215.54524 216.238158 
L 215.356508 216.452507 
L 215.1712 216.669823 
L 214.989364 216.890052 
L 214.811044 217.113138 
L 214.636287 217.339026 
L 214.465135 217.567657 
L 214.297633 217.798976 
L 214.133822 218.032922 
L 213.973743 218.269439 
L 213.817436 218.508465 
L 213.664942 218.749942 
L 213.516299 218.993807 
L 213.371543 219.24 
L 213.230711 219.488459 
L 213.093839 219.739121 
L 212.960962 219.991923 
L 212.832112 220.246801 
L 212.707322 220.503692 
L 212.586624 220.76253 
L 212.470048 221.02325 
L 212.357623 221.285788 
L 212.249377 221.550076 
L 212.145339 221.816048 
L 212.045533 222.083637 
L 211.949985 222.352777 
L 211.85872 222.623398 
L 211.77176 222.895433 
L 211.689126 223.168814 
L 211.610841 223.443471 
L 211.536923 223.719336 
L 211.467392 223.996339 
L 211.402264 224.27441 
L 211.341556 224.55348 
L 211.285283 224.833478 
L 211.23346 225.114333 
L 211.1861 225.395975 
L 211.143214 225.678333 
L 211.104813 225.961336 
L 211.070908 226.244912 
L 211.041505 226.528991 
L 211.016614 226.813501 
L 210.99624 227.098369 
L 210.980388 227.383526 
L 210.969062 227.668897 
L 210.962266 227.954413 
L 210.96 228.24 
L 210.96 228.24 
L 210.962266 228.525587 
L 210.969062 228.811103 
L 210.980388 229.096474 
L 210.99624 229.381631 
L 211.016614 229.666499 
L 211.041505 229.951009 
L 211.070908 230.235088 
L 211.104813 230.518664 
L 211.143214 230.801667 
L 211.1861 231.084025 
L 211.23346 231.365667 
L 211.285283 231.646522 
L 211.341556 231.92652 
L 211.402264 232.20559 
L 211.467392 232.483661 
L 211.536923 232.760664 
L 211.610841 233.036529 
L 211.689126 233.311186 
L 211.77176 233.584567 
L 211.85872 233.856602 
L 211.949985 234.127223 
L 212.045533 234.396363 
L 212.145339 234.663952 
L 212.249377 234.929924 
L 212.357623 235.194212 
L 212.470048 235.45675 
L 212.586624 235.71747 
L 212.707322 235.976308 
L 212.832112 236.233199 
L 212.960962 236.488077 
L 213.093839 236.740879 
L 213.230711 236.991541 
L 213.371543 237.24 
L 213.516299 237.486193 
L 213.664942 237.730058 
L 213.817436 237.971535 
L 213.973743 238.210561 
L 214.133822 238.447078 
L 214.297633 238.681024 
L 214.465135 238.912343 
L 214.636287 239.140974 
L 214.811044 239.366862 
L 214.989364 239.589948 
L 215.1712 239.810177 
L 215.356508 240.027493 
L 215.54524 240.241842 
L 215.737349 240.453169 
L 215.932787 240.661422 
L 216.131505 240.866548 
L 216.333452 241.068495 
L 216.538578 241.267213 
L 216.746831 241.462651 
L 216.958158 241.65476 
L 217.172507 241.843492 
L 217.389823 242.0288 
L 217.610052 242.210636 
L 217.833138 242.388956 
L 218.059026 242.563713 
L 218.287657 242.734865 
L 218.518976 242.902367 
L 218.752922 243.066178 
L 218.989439 243.226257 
L 219.228465 243.382564 
L 219.469942 243.535058 
L 219.713807 243.683701 
L 219.96 243.828457 
L 220.208459 243.969289 
L 220.459121 244.106161 
L 220.711923 244.239038 
L 220.966801 244.367888 
L 221.223692 244.492678 
L 221.48253 244.613376 
L 221.74325 244.729952 
L 222.005788 244.842377 
L 222.270076 244.950623 
L 222.536048 245.054661 
L 222.803637 245.154467 
L 223.072777 245.250015 
L 223.343398 245.34128 
L 223.615433 245.42824 
L 223.888814 245.510874 
L 224.163471 245.589159 
L 224.439336 245.663077 
L 224.716339 245.732608 
L 224.99441 245.797736 
L 225.27348 245.858444 
L 225.553478 245.914717 
L 225.834333 245.96654 
L 226.115975 246.0139 
L 226.398333 246.056786 
L 226.681336 246.095187 
L 226.964912 246.129092 
L 227.248991 246.158495 
L 227.533501 246.183386 
L 227.818369 246.20376 
L 228.103526 246.219612 
L 228.388897 246.230938 
L 228.674413 246.237734 
L 228.96 246.24 
L 264.96 246.24 
z
" clip-path="url(#p4b389cc850)" style="fill: none; stroke: #000000; stroke-linecap: round"/>
   </g>
   <g id="patch_5">
    <path d="M 90.36 260.64 
L 90.645587 260.637734 
L 90.931103 260.630938 
L 91.216474 260.619612 
L 91.501631 260.60376 
L 91.786499 260.583386 
L 92.071009 260.558495 
L 92.355088 260.529092 
L 92.638664 260.495187 
L 92.921667 260.456786 
L 93.204025 260.4139 
L 93.485667 260.36654 
L 93.766522 260.314717 
L 94.04652 260.258444 
L 94.32559 260.197736 
L 94.603661 260.132608 
L 94.880664 260.063077 
L 95.156529 259.989159 
L 95.431186 259.910874 
L 95.704567 259.82824 
L 95.976602 259.74128 
L 96.247223 259.650015 
L 96.516363 259.554467 
L 96.783952 259.454661 
L 97.049924 259.350623 
L 97.314212 259.242377 
L 97.57675 259.129952 
L 97.83747 259.013376 
L 98.096308 258.892678 
L 98.353199 258.767888 
L 98.608077 258.639038 
L 98.860879 258.506161 
L 99.111541 258.369289 
L 99.36 258.228457 
L 99.606193 258.083701 
L 99.850058 257.935058 
L 100.091535 257.782564 
L 100.330561 257.626257 
L 100.567078 257.466178 
L 100.801024 257.302367 
L 101.032343 257.134865 
L 101.260974 256.963713 
L 101.486862 256.788956 
L 101.709948 256.610636 
L 101.930177 256.4288 
L 102.147493 256.243492 
L 102.361842 256.05476 
L 102.573169 255.862651 
L 102.781422 255.667213 
L 102.986548 255.468495 
L 103.188495 255.266548 
L 103.387213 255.061422 
L 103.582651 254.853169 
L 103.77476 254.641842 
L 103.963492 254.427493 
L 104.1488 254.210177 
L 104.330636 253.989948 
L 104.508956 253.766862 
L 104.683713 253.540974 
L 104.854865 253.312343 
L 105.022367 253.081024 
L 105.186178 252.847078 
L 105.346257 252.610561 
L 105.502564 252.371535 
L 105.655058 252.130058 
L 105.803701 251.886193 
L 105.948457 251.64 
L 106.089289 251.391541 
L 106.226161 251.140879 
L 106.359038 250.888077 
L 106.487888 250.633199 
L 106.612678 250.376308 
L 106.733376 250.11747 
L 106.849952 249.85675 
L 106.962377 249.594212 
L 107.070623 249.329924 
L 107.174661 249.063952 
L 107.274467 248.796363 
L 107.370015 248.527223 
L 107.46128 248.256602 
L 107.54824 247.984567 
L 107.630874 247.711186 
L 107.709159 247.436529 
L 107.783077 247.160664 
L 107.852608 246.883661 
L 107.917736 246.60559 
L 107.978444 246.32652 
L 108.034717 246.046522 
L 108.08654 245.765667 
L 108.1339 245.484025 
L 108.176786 245.201667 
L 108.215187 244.918664 
L 108.249092 244.635088 
L 108.278495 244.351009 
L 108.303386 244.066499 
L 108.32376 243.781631 
L 108.339612 243.496474 
L 108.350938 243.211103 
L 108.357734 242.925587 
L 108.36 242.64 
L 108.36 242.64 
L 108.357734 242.354413 
L 108.350938 242.068897 
L 108.339612 241.783526 
L 108.32376 241.498369 
L 108.303386 241.213501 
L 108.278495 240.928991 
L 108.249092 240.644912 
L 108.215187 240.361336 
L 108.176786 240.078333 
L 108.1339 239.795975 
L 108.08654 239.514333 
L 108.034717 239.233478 
L 107.978444 238.95348 
L 107.917736 238.67441 
L 107.852608 238.396339 
L 107.783077 238.119336 
L 107.709159 237.843471 
L 107.630874 237.568814 
L 107.54824 237.295433 
L 107.46128 237.023398 
L 107.370015 236.752777 
L 107.274467 236.483637 
L 107.174661 236.216048 
L 107.070623 235.950076 
L 106.962377 235.685788 
L 106.849952 235.42325 
L 106.733376 235.16253 
L 106.612678 234.903692 
L 106.487888 234.646801 
L 106.359038 234.391923 
L 106.226161 234.139121 
L 106.089289 233.888459 
L 105.948457 233.64 
L 105.803701 233.393807 
L 105.655058 233.149942 
L 105.502564 232.908465 
L 105.346257 232.669439 
L 105.186178 232.432922 
L 105.022367 232.198976 
L 104.854865 231.967657 
L 104.683713 231.739026 
L 104.508956 231.513138 
L 104.330636 231.290052 
L 104.1488 231.069823 
L 103.963492 230.852507 
L 103.77476 230.638158 
L 103.582651 230.426831 
L 103.387213 230.218578 
L 103.188495 230.013452 
L 102.986548 229.811505 
L 102.781422 229.612787 
L 102.573169 229.417349 
L 102.361842 229.22524 
L 102.147493 229.036508 
L 101.930177 228.8512 
L 101.709948 228.669364 
L 101.486862 228.491044 
L 101.260974 228.316287 
L 101.032343 228.145135 
L 100.801024 227.977633 
L 100.567078 227.813822 
L 100.330561 227.653743 
L 100.091535 227.497436 
L 99.850058 227.344942 
L 99.606193 227.196299 
L 99.36 227.051543 
L 99.111541 226.910711 
L 98.860879 226.773839 
L 98.608077 226.640962 
L 98.353199 226.512112 
L 98.096308 226.387322 
L 97.83747 226.266624 
L 97.57675 226.150048 
L 97.314212 226.037623 
L 97.049924 225.929377 
L 96.783952 225.825339 
L 96.516363 225.725533 
L 96.247223 225.629985 
L 95.976602 225.53872 
L 95.704567 225.45176 
L 95.431186 225.369126 
L 95.156529 225.290841 
L 94.880664 225.216923 
L 94.603661 225.147392 
L 94.32559 225.082264 
L 94.04652 225.021556 
L 93.766522 224.965283 
L 93.485667 224.91346 
L 93.204025 224.8661 
L 92.921667 224.823214 
L 92.638664 224.784813 
L 92.355088 224.750908 
L 92.071009 224.721505 
L 91.786499 224.696614 
L 91.501631 224.67624 
L 91.216474 224.660388 
L 90.931103 224.649062 
L 90.645587 224.642266 
L 90.36 224.64 
L 54.36 224.64 
L 54.074413 224.642266 
L 53.788897 224.649062 
L 53.503526 224.660388 
L 53.218369 224.67624 
L 52.933501 224.696614 
L 52.648991 224.721505 
L 52.364912 224.750908 
L 52.081336 224.784813 
L 51.798333 224.823214 
L 51.515975 224.8661 
L 51.234333 224.91346 
L 50.953478 224.965283 
L 50.67348 225.021556 
L 50.39441 225.082264 
L 50.116339 225.147392 
L 49.839336 225.216923 
L 49.563471 225.290841 
L 49.288814 225.369126 
L 49.015433 225.45176 
L 48.743398 225.53872 
L 48.472777 225.629985 
L 48.203637 225.725533 
L 47.936048 225.825339 
L 47.670076 225.929377 
L 47.405788 226.037623 
L 47.14325 226.150048 
L 46.88253 226.266624 
L 46.623692 226.387322 
L 46.366801 226.512112 
L 46.111923 226.640962 
L 45.859121 226.773839 
L 45.608459 226.910711 
L 45.36 227.051543 
L 45.113807 227.196299 
L 44.869942 227.344942 
L 44.628465 227.497436 
L 44.389439 227.653743 
L 44.152922 227.813822 
L 43.918976 227.977633 
L 43.687657 228.145135 
L 43.459026 228.316287 
L 43.233138 228.491044 
L 43.010052 228.669364 
L 42.789823 228.8512 
L 42.572507 229.036508 
L 42.358158 229.22524 
L 42.146831 229.417349 
L 41.938578 229.612787 
L 41.733452 229.811505 
L 41.531505 230.013452 
L 41.332787 230.218578 
L 41.137349 230.426831 
L 40.94524 230.638158 
L 40.756508 230.852507 
L 40.5712 231.069823 
L 40.389364 231.290052 
L 40.211044 231.513138 
L 40.036287 231.739026 
L 39.865135 231.967657 
L 39.697633 232.198976 
L 39.533822 232.432922 
L 39.373743 232.669439 
L 39.217436 232.908465 
L 39.064942 233.149942 
L 38.916299 233.393807 
L 38.771543 233.64 
L 38.630711 233.888459 
L 38.493839 234.139121 
L 38.360962 234.391923 
L 38.232112 234.646801 
L 38.107322 234.903692 
L 37.986624 235.16253 
L 37.870048 235.42325 
L 37.757623 235.685788 
L 37.649377 235.950076 
L 37.545339 236.216048 
L 37.445533 236.483637 
L 37.349985 236.752777 
L 37.25872 237.023398 
L 37.17176 237.295433 
L 37.089126 237.568814 
L 37.010841 237.843471 
L 36.936923 238.119336 
L 36.867392 238.396339 
L 36.802264 238.67441 
L 36.741556 238.95348 
L 36.685283 239.233478 
L 36.63346 239.514333 
L 36.5861 239.795975 
L 36.543214 240.078333 
L 36.504813 240.361336 
L 36.470908 240.644912 
L 36.441505 240.928991 
L 36.416614 241.213501 
L 36.39624 241.498369 
L 36.380388 241.783526 
L 36.369062 242.068897 
L 36.362266 242.354413 
L 36.36 242.64 
L 36.36 242.64 
L 36.362266 242.925587 
L 36.369062 243.211103 
L 36.380388 243.496474 
L 36.39624 243.781631 
L 36.416614 244.066499 
L 36.441505 244.351009 
L 36.470908 244.635088 
L 36.504813 244.918664 
L 36.543214 245.201667 
L 36.5861 245.484025 
L 36.63346 245.765667 
L 36.685283 246.046522 
L 36.741556 246.32652 
L 36.802264 246.60559 
L 36.867392 246.883661 
L 36.936923 247.160664 
L 37.010841 247.436529 
L 37.089126 247.711186 
L 37.17176 247.984567 
L 37.25872 248.256602 
L 37.349985 248.527223 
L 37.445533 248.796363 
L 37.545339 249.063952 
L 37.649377 249.329924 
L 37.757623 249.594212 
L 37.870048 249.85675 
L 37.986624 250.11747 
L 38.107322 250.376308 
L 38.232112 250.633199 
L 38.360962 250.888077 
L 38.493839 251.140879 
L 38.630711 251.391541 
L 38.771543 251.64 
L 38.916299 251.886193 
L 39.064942 252.130058 
L 39.217436 252.371535 
L 39.373743 252.610561 
L 39.533822 252.847078 
L 39.697633 253.081024 
L 39.865135 253.312343 
L 40.036287 253.540974 
L 40.211044 253.766862 
L 40.389364 253.989948 
L 40.5712 254.210177 
L 40.756508 254.427493 
L 40.94524 254.641842 
L 41.137349 254.853169 
L 41.332787 255.061422 
L 41.531505 255.266548 
L 41.733452 255.468495 
L 41.938578 255.667213 
L 42.146831 255.862651 
L 42.358158 256.05476 
L 42.572507 256.243492 
L 42.789823 256.4288 
L 43.010052 256.610636 
L 43.233138 256.788956 
L 43.459026 256.963713 
L 43.687657 257.134865 
L 43.918976 257.302367 
L 44.152922 257.466178 
L 44.389439 257.626257 
L 44.628465 257.782564 
L 44.869942 257.935058 
L 45.113807 258.083701 
L 45.36 258.228457 
L 45.608459 258.369289 
L 45.859121 258.506161 
L 46.111923 258.639038 
L 46.366801 258.767888 
L 46.623692 258.892678 
L 46.88253 259.013376 
L 47.14325 259.129952 
L 47.405788 259.242377 
L 47.670076 259.350623 
L 47.936048 259.454661 
L 48.203637 259.554467 
L 48.472777 259.650015 
L 48.743398 259.74128 
L 49.015433 259.82824 
L 49.288814 259.910874 
L 49.563471 259.989159 
L 49.839336 260.063077 
L 50.116339 260.132608 
L 50.39441 260.197736 
L 50.67348 260.258444 
L 50.953478 260.314717 
L 51.234333 260.36654 
L 51.515975 260.4139 
L 51.798333 260.456786 
L 52.081336 260.495187 
L 52.364912 260.529092 
L 52.648991 260.558495 
L 52.933501 260.583386 
L 53.218369 260.60376 
L 53.503526 260.619612 
L 53.788897 260.630938 
L 54.074413 260.637734 
L 54.36 260.64 
L 90.36 260.64 
z
" clip-path="url(#p4b389cc850)" style="fill: none; stroke: #000000; stroke-linecap: round"/>
   </g>
   <g id="line2d_1">
    <path d="M 72.36 51.84 
L 72.36 65.34 
L 72.36 69.84 
" clip-path="url(#p4b389cc850)" style="fill: none; stroke: #000000; stroke-linecap: round"/>
   </g>
   <g id="patch_6">
    <path d="M 75.06 69.84 
L 72.36 78.84 
L 69.66 69.84 
z
" clip-path="url(#p4b389cc850)"/>
   </g>
   <g id="line2d_2">
    <path d="M 36.36 96.84 
L 36.36 78.84 
L 108.36 78.84 
L 108.36 114.84 
L 36.36 114.84 
L 36.36 96.84 
" clip-path="url(#p4b389cc850)" style="fill: none; stroke: #000000; stroke-linecap: round"/>
   </g>
   <g id="line2d_3">
    <path d="M 72.36 114.84 
L 72.36 128.34 
L 72.36 132.84 
" clip-path="url(#p4b389cc850)" style="fill: none; stroke: #000000; stroke-linecap: round"/>
   </g>
   <g id="patch_7">
    <path d="M 75.06 132.84 
L 72.36 141.84 
L 69.66 132.84 
z
" clip-path="url(#p4b389cc850)"/>
   </g>
   <g id="line2d_4">
    <path d="M 126.36 165.24 
L 153.36 165.24 
L 171.36 165.24 
" clip-path="url(#p4b389cc850)" style="fill: none; stroke: #000000; stroke-linecap: round"/>
   </g>
   <g id="patch_8">
    <path d="M 171.36 162.54 
L 180.36 165.24 
L 171.36 167.94 
z
" clip-path="url(#p4b389cc850)"/>
   </g>
   <g id="line2d_5">
    <path d="M 180.36 165.24 
L 180.36 147.24 
L 313.56 147.24 
L 313.56 183.24 
L 180.36 183.24 
L 180.36 165.24 
" clip-path="url(#p4b389cc850)" style="fill: none; stroke: #000000; stroke-linecap: round"/>
   </g>
   <g id="line2d_6">
    <path d="M 246.96 183.24 
L 246.96 196.74 
L 246.96 201.24 
" clip-path="url(#p4b389cc850)" style="fill: none; stroke: #000000; stroke-linecap: round"/>
   </g>
   <g id="patch_9">
    <path d="M 249.66 201.24 
L 246.96 210.24 
L 244.26 201.24 
z
" clip-path="url(#p4b389cc850)"/>
   </g>
   <g id="line2d_7">
    <path d="M 72.36 188.64 
L 72.36 206.64 
L 72.36 215.64 
" clip-path="url(#p4b389cc850)" style="fill: none; stroke: #000000; stroke-linecap: round"/>
   </g>
   <g id="patch_10">
    <path d="M 75.06 215.64 
L 72.36 224.64 
L 69.66 215.64 
z
" clip-path="url(#p4b389cc850)"/>
   </g>
   <g id="text_1">
    <!-- START -->
    <g transform="translate(53.183242 37.334141) scale(0.125 -0.125)">
     <defs>
      <path id="IPAexGothic-53" d="M 2919 3641 
Q 2563 4259 1853 4259 
Q 1453 4259 1213 4009 
Q 1028 3803 1028 3534 
Q 1028 3238 1266 3047 
Q 1444 2913 1984 2688 
L 2200 2597 
Q 2925 2306 3191 1953 
Q 3422 1644 3422 1259 
Q 3422 644 2969 288 
Q 2559 -31 1931 -31 
Q 881 -31 313 766 
L 753 1100 
Q 1203 459 1938 459 
Q 2288 459 2534 625 
Q 2841 847 2841 1216 
Q 2841 1503 2616 1728 
Q 2375 1959 1728 2206 
L 1541 2278 
Q 453 2694 453 3481 
Q 453 4006 806 4347 
Q 1203 4725 1863 4725 
Q 2841 4725 3359 3956 
L 2919 3641 
z
" transform="scale(0.015625)"/>
      <path id="IPAexGothic-54" d="M 3866 4141 
L 2175 4141 
L 2175 63 
L 1606 63 
L 1606 4141 
L -31 4141 
L -31 4634 
L 3866 4634 
L 3866 4141 
z
" transform="scale(0.015625)"/>
      <path id="IPAexGothic-41" d="M 4056 63 
L 3444 63 
L 2938 1409 
L 1100 1409 
L 603 63 
L -6 63 
L 1806 4666 
L 2259 4666 
L 4056 63 
z
M 2778 1863 
L 2316 3078 
Q 2125 3588 2028 4000 
L 2009 4000 
Q 1897 3563 1716 3078 
L 1263 1863 
L 2778 1863 
z
" transform="scale(0.015625)"/>
      <path id="IPAexGothic-52" d="M 4072 63 
L 3394 63 
Q 3138 641 2828 1197 
Q 2584 1641 2344 1825 
Q 2050 2044 1625 2044 
L 1172 2044 
L 1172 63 
L 609 63 
L 609 4634 
L 2009 4634 
Q 2713 4634 3131 4378 
Q 3688 4044 3688 3381 
Q 3688 2784 3181 2459 
Q 2906 2272 2522 2216 
L 2522 2197 
Q 2941 2050 3247 1581 
Q 3516 1166 4072 63 
z
M 1172 2478 
L 1869 2478 
Q 3106 2478 3106 3369 
Q 3106 4181 1928 4181 
L 1172 4181 
L 1172 2478 
z
" transform="scale(0.015625)"/>
     </defs>
     <use xlink:href="#IPAexGothic-53"/>
     <use xlink:href="#IPAexGothic-54" x="58.496094"/>
     <use xlink:href="#IPAexGothic-41" x="118.408203"/>
     <use xlink:href="#IPAexGothic-52" x="182.128906"/>
     <use xlink:href="#IPAexGothic-54" x="246.923828"/>
    </g>
   </g>
   <g id="text_2">
    <!-- x = 10 -->
    <g transform="translate(53.818008 100.334141) scale(0.125 -0.125)">
     <defs>
      <path id="IPAexGothic-78" d="M 3050 63 
L 2419 63 
L 1547 1338 
L 691 63 
L 56 63 
L 1247 1675 
L 106 3250 
L 747 3250 
L 1578 2016 
L 2413 3250 
L 3019 3250 
L 1875 1681 
L 3050 63 
z
" transform="scale(0.015625)"/>
      <path id="IPAexGothic-20" transform="scale(0.015625)"/>
      <path id="IPAexGothic-3d" d="M 416 2803 
L 3922 2803 
L 3922 2438 
L 416 2438 
L 416 2803 
z
M 416 1625 
L 3922 1625 
L 3922 1259 
L 416 1259 
L 416 1625 
z
" transform="scale(0.015625)"/>
      <path id="IPAexGothic-31" d="M 2463 63 
L 1900 63 
L 1900 4103 
Q 1372 3922 788 3797 
L 684 4231 
Q 1519 4441 2106 4731 
L 2463 4731 
L 2463 63 
z
" transform="scale(0.015625)"/>
      <path id="IPAexGothic-30" d="M 2038 4725 
Q 2881 4725 3334 3944 
Q 3694 3325 3694 2344 
Q 3694 1372 3334 741 
Q 2888 -31 2016 -31 
Q 1147 -31 700 741 
Q 341 1372 341 2350 
Q 341 3713 1000 4334 
Q 1419 4725 2038 4725 
z
M 2016 4266 
Q 1516 4266 1228 3759 
Q 934 3247 934 2344 
Q 934 1456 1222 947 
Q 1513 447 2016 447 
Q 2619 447 2909 1153 
Q 3100 1622 3100 2375 
Q 3100 3256 2806 3759 
Q 2509 4266 2016 4266 
z
" transform="scale(0.015625)"/>
     </defs>
     <use xlink:href="#IPAexGothic-78"/>
     <use xlink:href="#IPAexGothic-20" x="48.876953"/>
     <use xlink:href="#IPAexGothic-3d" x="75.878906"/>
     <use xlink:href="#IPAexGothic-20" x="143.701172"/>
     <use xlink:href="#IPAexGothic-31" x="170.703125"/>
     <use xlink:href="#IPAexGothic-30" x="233.691406"/>
    </g>
   </g>
   <g id="text_3">
    <!-- False -->
    <g transform="translate(77.04 202.683281) scale(0.125 -0.125)">
     <defs>
      <path id="IPAexGothic-46" d="M 3469 4141 
L 1172 4141 
L 1172 2656 
L 3206 2656 
L 3206 2188 
L 1172 2188 
L 1172 63 
L 609 63 
L 609 4634 
L 3469 4634 
L 3469 4141 
z
" transform="scale(0.015625)"/>
      <path id="IPAexGothic-61" d="M 3156 63 
L 2672 63 
Q 2559 303 2531 556 
L 2509 556 
Q 2147 -25 1428 -25 
Q 934 -25 622 288 
Q 347 563 347 959 
Q 347 1947 2050 1997 
L 2478 2009 
L 2478 2175 
Q 2478 2509 2288 2700 
Q 2088 2900 1775 2900 
Q 1238 2900 969 2378 
L 494 2597 
Q 938 3328 1788 3328 
Q 2375 3328 2691 3000 
Q 2984 2706 2984 2169 
L 2984 997 
Q 2984 400 3156 63 
z
M 2491 1625 
L 2141 1619 
Q 903 1591 903 953 
Q 903 728 1050 581 
Q 1231 403 1525 403 
Q 1934 403 2234 703 
Q 2491 969 2491 1344 
L 2491 1625 
z
" transform="scale(0.015625)"/>
      <path id="IPAexGothic-6c" d="M 1131 63 
L 581 63 
L 581 4794 
L 1131 4794 
L 1131 63 
z
" transform="scale(0.015625)"/>
      <path id="IPAexGothic-73" d="M 2234 2547 
Q 1938 2931 1484 2931 
Q 891 2931 891 2475 
Q 891 2153 1531 1944 
L 1741 1875 
Q 2650 1578 2650 894 
Q 2650 434 2272 172 
Q 1972 -31 1497 -31 
Q 766 -31 256 503 
L 603 819 
Q 997 397 1516 397 
Q 2131 397 2131 875 
Q 2131 1238 1453 1478 
L 1234 1553 
Q 378 1853 378 2431 
Q 378 2797 628 3047 
Q 928 3347 1453 3347 
Q 2156 3347 2606 2859 
L 2234 2547 
z
" transform="scale(0.015625)"/>
      <path id="IPAexGothic-65" d="M 863 1594 
Q 891 1041 1209 722 
Q 1534 397 1997 397 
Q 2606 397 2963 966 
L 3322 728 
Q 2869 -31 1931 -31 
Q 1222 -31 766 422 
Q 306 884 306 1641 
Q 306 2444 788 2925 
Q 1216 3353 1856 3353 
Q 2459 3353 2866 2956 
Q 3322 2494 3322 1722 
L 3322 1594 
L 863 1594 
z
M 2756 1997 
Q 2709 2431 2450 2681 
Q 2194 2938 1844 2938 
Q 1438 2938 1150 2591 
Q 953 2356 894 1997 
L 2756 1997 
z
" transform="scale(0.015625)"/>
     </defs>
     <use xlink:href="#IPAexGothic-46"/>
     <use xlink:href="#IPAexGothic-61" x="57.177734"/>
     <use xlink:href="#IPAexGothic-6c" x="112.158203"/>
     <use xlink:href="#IPAexGothic-73" x="139.160156"/>
     <use xlink:href="#IPAexGothic-65" x="185.351562"/>
    </g>
   </g>
   <g id="text_4">
    <!-- True -->
    <g transform="translate(131.04 158.185) scale(0.125 -0.125)">
     <defs>
      <path id="IPAexGothic-72" d="M 2309 3316 
L 2213 2769 
Q 2106 2791 2022 2791 
Q 1653 2791 1413 2444 
Q 1113 2006 1113 1675 
L 1113 63 
L 563 63 
L 563 3250 
L 1081 3250 
L 1056 2303 
L 1069 2303 
Q 1422 3341 2097 3341 
Q 2206 3341 2309 3316 
z
" transform="scale(0.015625)"/>
      <path id="IPAexGothic-75" d="M 3284 63 
L 2772 63 
L 2772 644 
Q 2300 0 1625 0 
Q 1072 0 763 375 
Q 519 678 519 1241 
L 519 3250 
L 1069 3250 
L 1069 1259 
Q 1069 466 1734 466 
Q 2406 466 2734 1291 
L 2734 3250 
L 3284 3250 
L 3284 63 
z
" transform="scale(0.015625)"/>
     </defs>
     <use xlink:href="#IPAexGothic-54"/>
     <use xlink:href="#IPAexGothic-72" x="59.912109"/>
     <use xlink:href="#IPAexGothic-75" x="96.923828"/>
     <use xlink:href="#IPAexGothic-65" x="157.324219"/>
    </g>
   </g>
   <g id="text_5">
    <!-- x = 10 ? -->
    <g transform="translate(48.688125 168.734141) scale(0.125 -0.125)">
     <defs>
      <path id="IPAexGothic-3f" d="M 225 3425 
Q 503 4725 1763 4725 
Q 2413 4725 2803 4334 
Q 3144 3994 3144 3516 
Q 3144 3081 2838 2716 
Q 2703 2563 2344 2266 
L 2216 2156 
Q 1888 1878 1888 1363 
L 1888 1209 
L 1422 1209 
L 1422 1422 
Q 1422 2050 1881 2491 
L 2022 2625 
L 2075 2669 
Q 2575 3122 2575 3516 
Q 2575 3822 2363 4041 
Q 2128 4278 1763 4278 
Q 963 4278 725 3309 
L 225 3425 
z
M 1978 63 
L 1325 63 
L 1325 728 
L 1978 728 
L 1978 63 
z
" transform="scale(0.015625)"/>
     </defs>
     <use xlink:href="#IPAexGothic-78"/>
     <use xlink:href="#IPAexGothic-20" x="48.876953"/>
     <use xlink:href="#IPAexGothic-3d" x="75.878906"/>
     <use xlink:href="#IPAexGothic-20" x="143.701172"/>
     <use xlink:href="#IPAexGothic-31" x="170.703125"/>
     <use xlink:href="#IPAexGothic-30" x="233.691406"/>
     <use xlink:href="#IPAexGothic-20" x="296.679688"/>
     <use xlink:href="#IPAexGothic-3f" x="323.681641"/>
    </g>
   </g>
   <g id="text_6">
    <!-- 「条件はTrueです。」 -->
    <g transform="translate(183.571328 168.734141) scale(0.125 -0.125)">
     <defs>
      <path id="IPAexGothic-300c" d="M 4134 5300 
L 5875 5300 
L 5875 4853 
L 4581 4853 
L 4581 656 
L 4134 656 
L 4134 5300 
z
" transform="scale(0.015625)"/>
      <path id="IPAexGothic-6761" d="M 3406 1475 
L 3406 -447 
L 2953 -447 
L 2953 1422 
Q 2147 306 641 -331 
L 334 59 
Q 1738 569 2563 1538 
L 488 1538 
L 488 1941 
L 2953 1941 
L 2953 2691 
L 3406 2691 
L 3406 1941 
L 5928 1941 
L 5928 1538 
L 3847 1538 
Q 4597 769 6063 238 
L 5759 -203 
Q 4256 400 3406 1475 
z
M 3738 3419 
Q 4619 2991 5959 2772 
L 5684 2356 
Q 4216 2631 3353 3150 
Q 2350 2494 813 2175 
L 531 2566 
Q 2063 2825 2997 3391 
Q 2494 3763 2163 4219 
Q 1694 3747 1038 3359 
L 725 3688 
Q 1897 4319 2466 5306 
L 2900 5203 
Q 2784 5003 2713 4903 
L 4641 4903 
L 4872 4691 
Q 4384 3938 3738 3419 
z
M 3353 3634 
Q 3919 4075 4219 4531 
L 2438 4531 
L 2425 4513 
Q 2838 3956 3353 3634 
z
" transform="scale(0.015625)"/>
      <path id="IPAexGothic-4ef6" d="M 3903 3425 
L 2906 3425 
Q 2697 2825 2309 2247 
L 1991 2572 
Q 2588 3497 2803 4788 
L 3256 4713 
Q 3175 4313 3041 3834 
L 3903 3834 
L 3903 5250 
L 4356 5250 
L 4356 3834 
L 5731 3834 
L 5731 3425 
L 4356 3425 
L 4356 2009 
L 6041 2009 
L 6041 1594 
L 4356 1594 
L 4356 -447 
L 3903 -447 
L 3903 1594 
L 2078 1594 
L 2078 2009 
L 3903 2009 
L 3903 3425 
z
M 1638 3681 
L 1638 -447 
L 1169 -447 
L 1169 2753 
Q 881 2272 575 1863 
L 313 2253 
Q 1238 3463 1650 5184 
L 2125 5069 
Q 1909 4316 1638 3681 
z
" transform="scale(0.015625)"/>
      <path id="IPAexGothic-306f" d="M 4066 4875 
L 4538 4875 
L 4556 3769 
Q 5003 3816 5581 3941 
L 5619 3469 
Q 5256 3394 4563 3322 
L 4597 1441 
Q 5100 1284 5934 756 
L 5656 313 
Q 5066 772 4609 978 
Q 4609 441 4384 225 
Q 4128 -13 3634 -13 
Q 2991 -13 2669 231 
Q 2388 444 2388 831 
Q 2388 1225 2772 1484 
Q 3050 1669 3534 1669 
Q 3759 1669 4134 1594 
L 4097 3288 
Q 3697 3269 3359 3269 
Q 2925 3269 2484 3300 
L 2466 3763 
Q 2953 3716 3456 3716 
Q 3738 3716 4091 3738 
L 4066 4875 
z
M 4141 1153 
Q 3753 1259 3513 1259 
Q 2841 1259 2841 850 
Q 2841 422 3634 422 
Q 3888 422 4022 569 
Q 4141 700 4141 922 
Q 4141 1088 4141 1153 
z
M 1000 -50 
Q 794 1072 794 1931 
Q 794 3153 1247 4884 
L 1728 4763 
Q 1269 3044 1269 1900 
Q 1269 1569 1306 1106 
Q 1591 1706 1753 1997 
L 2075 1806 
Q 1484 716 1484 141 
Q 1484 72 1491 0 
L 1000 -50 
z
" transform="scale(0.015625)"/>
      <path id="IPAexGothic-3067" d="M 581 4034 
Q 2978 4363 5466 4556 
L 5509 4097 
Q 4388 4031 3750 3572 
Q 2797 2878 2797 1913 
Q 2797 1169 3291 819 
Q 3778 484 4869 416 
L 4906 -116 
Q 2278 0 2278 1850 
Q 2278 3125 3691 4000 
Q 2066 3784 684 3553 
L 581 4034 
z
M 5631 2522 
Q 5269 3063 4875 3391 
L 5175 3622 
Q 5559 3313 5950 2797 
L 5631 2522 
z
M 5034 2053 
Q 4747 2544 4300 2944 
L 4613 3184 
Q 4984 2878 5369 2328 
L 5034 2053 
z
" transform="scale(0.015625)"/>
      <path id="IPAexGothic-3059" d="M 3322 5075 
L 3816 5075 
L 3816 4063 
Q 4131 4075 5756 4116 
L 5756 3669 
Q 5431 3672 3816 3653 
L 3816 2463 
Q 3956 2125 3956 1741 
Q 3956 922 3519 397 
Q 3128 -72 2309 -409 
L 1941 -31 
Q 3263 453 3488 1363 
Q 3250 1031 2809 1031 
Q 2441 1031 2150 1313 
Q 1875 1588 1875 2050 
Q 1875 2475 2166 2769 
Q 2431 3041 2822 3041 
Q 3088 3041 3322 2881 
L 3322 3641 
Q 3000 3634 609 3547 
L 609 3988 
Q 1197 4000 2106 4022 
Q 3066 4047 3322 4050 
L 3322 5075 
z
M 3372 2044 
Q 3372 2300 3194 2478 
Q 3050 2613 2869 2613 
Q 2622 2613 2463 2406 
Q 2344 2250 2344 2088 
Q 2344 1797 2484 1622 
Q 2625 1453 2859 1453 
Q 3372 1453 3372 2044 
z
" transform="scale(0.015625)"/>
      <path id="IPAexGothic-3002" d="M 1166 1241 
Q 1366 1241 1563 1138 
Q 2009 900 2009 391 
Q 2009 188 1913 6 
Q 1675 -459 1159 -459 
Q 941 -459 753 -356 
Q 306 -119 306 397 
Q 306 744 569 1003 
Q 806 1241 1166 1241 
z
M 1159 916 
Q 953 916 797 781 
Q 631 625 631 391 
Q 631 278 681 166 
Q 819 -134 1159 -134 
Q 1309 -134 1434 -56 
Q 1684 88 1684 391 
Q 1684 722 1397 866 
Q 1281 916 1159 916 
z
" transform="scale(0.015625)"/>
      <path id="IPAexGothic-300d" d="M 1819 4209 
L 2266 4209 
L 2266 -434 
L 525 -434 
L 525 13 
L 1819 13 
L 1819 4209 
z
" transform="scale(0.015625)"/>
     </defs>
     <use xlink:href="#IPAexGothic-300c"/>
     <use xlink:href="#IPAexGothic-6761" x="100"/>
     <use xlink:href="#IPAexGothic-4ef6" x="200"/>
     <use xlink:href="#IPAexGothic-306f" x="300"/>
     <use xlink:href="#IPAexGothic-54" x="400"/>
     <use xlink:href="#IPAexGothic-72" x="459.912109"/>
     <use xlink:href="#IPAexGothic-75" x="496.923828"/>
     <use xlink:href="#IPAexGothic-65" x="557.324219"/>
     <use xlink:href="#IPAexGothic-3067" x="614.208984"/>
     <use xlink:href="#IPAexGothic-3059" x="714.208984"/>
     <use xlink:href="#IPAexGothic-3002" x="814.208984"/>
     <use xlink:href="#IPAexGothic-300d" x="914.208984"/>
    </g>
   </g>
   <g id="text_7">
    <!-- END -->
    <g transform="translate(233.760781 231.734141) scale(0.125 -0.125)">
     <defs>
      <path id="IPAexGothic-45" d="M 3547 63 
L 609 63 
L 609 4634 
L 3469 4634 
L 3469 4147 
L 1166 4147 
L 1166 2650 
L 3206 2650 
L 3206 2191 
L 1166 2191 
L 1166 556 
L 3547 556 
L 3547 63 
z
" transform="scale(0.015625)"/>
      <path id="IPAexGothic-4e" d="M 4244 63 
L 3731 63 
L 1697 3150 
Q 1466 3500 1141 4097 
L 1116 4097 
L 1128 3797 
Q 1159 2803 1159 2469 
L 1159 63 
L 609 63 
L 609 4634 
L 1366 4634 
L 3113 1978 
Q 3453 1447 3713 966 
L 3738 966 
Q 3694 1897 3694 2469 
L 3694 4634 
L 4244 4634 
L 4244 63 
z
" transform="scale(0.015625)"/>
      <path id="IPAexGothic-44" d="M 609 4634 
L 1984 4634 
Q 3159 4634 3791 4050 
Q 4456 3444 4456 2356 
Q 4456 1047 3516 441 
Q 2925 63 1941 63 
L 609 63 
L 609 4634 
z
M 1172 556 
L 1894 556 
Q 3853 556 3853 2356 
Q 3853 4147 1928 4147 
L 1172 4147 
L 1172 556 
z
" transform="scale(0.015625)"/>
     </defs>
     <use xlink:href="#IPAexGothic-45"/>
     <use xlink:href="#IPAexGothic-4e" x="59.521484"/>
     <use xlink:href="#IPAexGothic-44" x="135.498047"/>
    </g>
   </g>
   <g id="text_8">
    <!-- END -->
    <g transform="translate(59.160781 246.134141) scale(0.125 -0.125)">
     <use xlink:href="#IPAexGothic-45"/>
     <use xlink:href="#IPAexGothic-4e" x="59.521484"/>
     <use xlink:href="#IPAexGothic-44" x="135.498047"/>
    </g>
   </g>
  </g>
 </g>
 <defs>
  <clipPath id="p4b389cc850">
   <rect x="3.6" y="3.6" width="324.72" height="269.28"/>
  </clipPath>
 </defs>
</svg>