<?xml version="1.0" encoding="utf-8" standalone="no"?>
<!DOCTYPE svg PUBLIC "-//W3C//DTD SVG 1.1//EN"
  "http://www.w3.org/Graphics/SVG/1.1/DTD/svg11.dtd">
<svg xmlns:xlink="http://www.w3.org/1999/xlink" width="312.788571pt" height="423.36pt" viewBox="0 0 312.788571 423.36" xmlns="http://www.w3.org/2000/svg" version="1.1">
 <metadata>
  <rdf:RDF xmlns:dc="http://purl.org/dc/elements/1.1/" xmlns:cc="http://creativecommons.org/ns#" xmlns:rdf="http://www.w3.org/1999/02/22-rdf-syntax-ns#">
   <cc:Work>
    <dc:type rdf:resource="http://purl.org/dc/dcmitype/StillImage"/>
    <dc:date>2024-06-14T01:32:18.820545</dc:date>
    <dc:format>image/svg+xml</dc:format>
    <dc:creator>
     <cc:Agent>
      <dc:title>Matplotlib v3.9.0, https://matplotlib.org/</dc:title>
     </cc:Agent>
    </dc:creator>
   </cc:Work>
  </rdf:RDF>
 </metadata>
 <defs>
  <style type="text/css">*{stroke-linejoin: round; stroke-linecap: butt}</style>
 </defs>
 <g id="figure_1">
  <g id="patch_1">
   <path d="M 0 423.36 
L 312.788571 423.36 
L 312.788571 0 
L 0 0 
z
" style="fill: #ffffff"/>
  </g>
  <g id="axes_1">
   <g id="patch_2">
    <path d="M 137.108571 40.68 
L 137.394159 40.677734 
L 137.679674 40.670938 
L 137.965046 40.659612 
L 138.250202 40.64376 
L 138.535071 40.623386 
L 138.81958 40.598495 
L 139.103659 40.569092 
L 139.387236 40.535187 
L 139.670239 40.496786 
L 139.952597 40.4539 
L 140.234239 40.40654 
L 140.515094 40.354717 
L 140.795091 40.298444 
L 141.074161 40.237736 
L 141.352232 40.172608 
L 141.629235 40.103077 
L 141.9051 40.029159 
L 142.179757 39.950874 
L 142.453138 39.86824 
L 142.725173 39.78128 
L 142.995795 39.690015 
L 143.264934 39.594467 
L 143.532523 39.494661 
L 143.798496 39.390623 
L 144.062784 39.282377 
L 144.325321 39.169952 
L 144.586042 39.053376 
L 144.84488 38.932678 
L 145.10177 38.807888 
L 145.356649 38.679038 
L 145.609451 38.546161 
L 145.860113 38.409289 
L 146.108571 38.268457 
L 146.354764 38.123701 
L 146.59863 37.975058 
L 146.840106 37.822564 
L 147.079133 37.666257 
L 147.315649 37.506178 
L 147.549596 37.342367 
L 147.780914 37.174865 
L 148.009546 37.003713 
L 148.235433 36.828956 
L 148.458519 36.650636 
L 148.678748 36.4688 
L 148.896065 36.283492 
L 149.110413 36.09476 
L 149.321741 35.902651 
L 149.529994 35.707213 
L 149.735119 35.508495 
L 149.937067 35.306548 
L 150.135784 35.101422 
L 150.331222 34.893169 
L 150.523332 34.681842 
L 150.712064 34.467493 
L 150.897371 34.250177 
L 151.079208 34.029948 
L 151.257527 33.806862 
L 151.432285 33.580974 
L 151.603436 33.352343 
L 151.770939 33.121024 
L 151.93475 32.887078 
L 152.094829 32.650561 
L 152.251135 32.411535 
L 152.403629 32.170058 
L 152.552273 31.926193 
L 152.697029 31.68 
L 152.83786 31.431541 
L 152.974732 31.180879 
L 153.10761 30.928077 
L 153.236459 30.673199 
L 153.361249 30.416308 
L 153.481947 30.15747 
L 153.598524 29.89675 
L 153.710949 29.634212 
L 153.819194 29.369924 
L 153.923233 29.103952 
L 154.023039 28.836363 
L 154.118586 28.567223 
L 154.209852 28.296602 
L 154.296812 28.024567 
L 154.379445 27.751186 
L 154.45773 27.476529 
L 154.531648 27.200664 
L 154.60118 26.923661 
L 154.666308 26.64559 
L 154.727015 26.36652 
L 154.783288 26.086522 
L 154.835111 25.805667 
L 154.882471 25.524025 
L 154.925357 25.241667 
L 154.963758 24.958664 
L 154.997664 24.675088 
L 155.027066 24.391009 
L 155.051957 24.106499 
L 155.072332 23.821631 
L 155.088184 23.536474 
L 155.099509 23.251103 
L 155.106306 22.965587 
L 155.108571 22.68 
L 155.108571 22.68 
L 155.106306 22.394413 
L 155.099509 22.108897 
L 155.088184 21.823526 
L 155.072332 21.538369 
L 155.051957 21.253501 
L 155.027066 20.968991 
L 154.997664 20.684912 
L 154.963758 20.401336 
L 154.925357 20.118333 
L 154.882471 19.835975 
L 154.835111 19.554333 
L 154.783288 19.273478 
L 154.727015 18.99348 
L 154.666308 18.71441 
L 154.60118 18.436339 
L 154.531648 18.159336 
L 154.45773 17.883471 
L 154.379445 17.608814 
L 154.296812 17.335433 
L 154.209852 17.063398 
L 154.118586 16.792777 
L 154.023039 16.523637 
L 153.923233 16.256048 
L 153.819194 15.990076 
L 153.710949 15.725788 
L 153.598524 15.46325 
L 153.481947 15.20253 
L 153.361249 14.943692 
L 153.236459 14.686801 
L 153.10761 14.431923 
L 152.974732 14.179121 
L 152.83786 13.928459 
L 152.697029 13.68 
L 152.552273 13.433807 
L 152.403629 13.189942 
L 152.251135 12.948465 
L 152.094829 12.709439 
L 151.93475 12.472922 
L 151.770939 12.238976 
L 151.603436 12.007657 
L 151.432285 11.779026 
L 151.257527 11.553138 
L 151.079208 11.330052 
L 150.897371 11.109823 
L 150.712064 10.892507 
L 150.523332 10.678158 
L 150.331222 10.466831 
L 150.135784 10.258578 
L 149.937067 10.053452 
L 149.735119 9.851505 
L 149.529994 9.652787 
L 149.321741 9.457349 
L 149.110413 9.26524 
L 148.896065 9.076508 
L 148.678748 8.8912 
L 148.458519 8.709364 
L 148.235433 8.531044 
L 148.009546 8.356287 
L 147.780914 8.185135 
L 147.549596 8.017633 
L 147.315649 7.853822 
L 147.079133 7.693743 
L 146.840106 7.537436 
L 146.59863 7.384942 
L 146.354764 7.236299 
L 146.108571 7.091543 
L 145.860113 6.950711 
L 145.609451 6.813839 
L 145.356649 6.680962 
L 145.10177 6.552112 
L 144.84488 6.427322 
L 144.586042 6.306624 
L 144.325321 6.190048 
L 144.062784 6.077623 
L 143.798496 5.969377 
L 143.532523 5.865339 
L 143.264934 5.765533 
L 142.995795 5.669985 
L 142.725173 5.57872 
L 142.453138 5.49176 
L 142.179757 5.409126 
L 141.9051 5.330841 
L 141.629235 5.256923 
L 141.352232 5.187392 
L 141.074161 5.122264 
L 140.795091 5.061556 
L 140.515094 5.005283 
L 140.234239 4.95346 
L 139.952597 4.9061 
L 139.670239 4.863214 
L 139.387236 4.824813 
L 139.103659 4.790908 
L 138.81958 4.761505 
L 138.535071 4.736614 
L 138.250202 4.71624 
L 137.965046 4.700388 
L 137.679674 4.689062 
L 137.394159 4.682266 
L 137.108571 4.68 
L 101.108571 4.68 
L 100.822984 4.682266 
L 100.537469 4.689062 
L 100.252097 4.700388 
L 99.966941 4.71624 
L 99.682072 4.736614 
L 99.397563 4.761505 
L 99.113484 4.790908 
L 98.829907 4.824813 
L 98.546904 4.863214 
L 98.264546 4.9061 
L 97.982904 4.95346 
L 97.702049 5.005283 
L 97.422051 5.061556 
L 97.142982 5.122264 
L 96.864911 5.187392 
L 96.587908 5.256923 
L 96.312043 5.330841 
L 96.037385 5.409126 
L 95.764005 5.49176 
L 95.491969 5.57872 
L 95.221348 5.669985 
L 94.952209 5.765533 
L 94.684619 5.865339 
L 94.418647 5.969377 
L 94.154359 6.077623 
L 93.891822 6.190048 
L 93.631101 6.306624 
L 93.372263 6.427322 
L 93.115372 6.552112 
L 92.860494 6.680962 
L 92.607692 6.813839 
L 92.35703 6.950711 
L 92.108571 7.091543 
L 91.862378 7.236299 
L 91.618513 7.384942 
L 91.377037 7.537436 
L 91.13801 7.693743 
L 90.901494 7.853822 
L 90.667547 8.017633 
L 90.436229 8.185135 
L 90.207597 8.356287 
L 89.98171 8.531044 
L 89.758623 8.709364 
L 89.538394 8.8912 
L 89.321078 9.076508 
L 89.106729 9.26524 
L 88.895402 9.457349 
L 88.687149 9.652787 
L 88.482023 9.851505 
L 88.280076 10.053452 
L 88.081359 10.258578 
L 87.885921 10.466831 
L 87.693811 10.678158 
L 87.505079 10.892507 
L 87.319771 11.109823 
L 87.137935 11.330052 
L 86.959616 11.553138 
L 86.784858 11.779026 
L 86.613707 12.007657 
L 86.446204 12.238976 
L 86.282393 12.472922 
L 86.122314 12.709439 
L 85.966008 12.948465 
L 85.813514 13.189942 
L 85.66487 13.433807 
L 85.520114 13.68 
L 85.379283 13.928459 
L 85.242411 14.179121 
L 85.109533 14.431923 
L 84.980683 14.686801 
L 84.855894 14.943692 
L 84.735196 15.20253 
L 84.618619 15.46325 
L 84.506194 15.725788 
L 84.397949 15.990076 
L 84.29391 16.256048 
L 84.194104 16.523637 
L 84.098557 16.792777 
L 84.007291 17.063398 
L 83.920331 17.335433 
L 83.837698 17.608814 
L 83.759413 17.883471 
L 83.685495 18.159336 
L 83.615963 18.436339 
L 83.550835 18.71441 
L 83.490127 18.99348 
L 83.433855 19.273478 
L 83.382032 19.554333 
L 83.334671 19.835975 
L 83.291785 20.118333 
L 83.253385 20.401336 
L 83.219479 20.684912 
L 83.190077 20.968991 
L 83.165185 21.253501 
L 83.144811 21.538369 
L 83.128959 21.823526 
L 83.117634 22.108897 
L 83.110837 22.394413 
L 83.108571 22.68 
L 83.108571 22.68 
L 83.110837 22.965587 
L 83.117634 23.251103 
L 83.128959 23.536474 
L 83.144811 23.821631 
L 83.165185 24.106499 
L 83.190077 24.391009 
L 83.219479 24.675088 
L 83.253385 24.958664 
L 83.291785 25.241667 
L 83.334671 25.524025 
L 83.382032 25.805667 
L 83.433855 26.086522 
L 83.490127 26.36652 
L 83.550835 26.64559 
L 83.615963 26.923661 
L 83.685495 27.200664 
L 83.759413 27.476529 
L 83.837698 27.751186 
L 83.920331 28.024567 
L 84.007291 28.296602 
L 84.098557 28.567223 
L 84.194104 28.836363 
L 84.29391 29.103952 
L 84.397949 29.369924 
L 84.506194 29.634212 
L 84.618619 29.89675 
L 84.735196 30.15747 
L 84.855894 30.416308 
L 84.980683 30.673199 
L 85.109533 30.928077 
L 85.242411 31.180879 
L 85.379283 31.431541 
L 85.520114 31.68 
L 85.66487 31.926193 
L 85.813514 32.170058 
L 85.966008 32.411535 
L 86.122314 32.650561 
L 86.282393 32.887078 
L 86.446204 33.121024 
L 86.613707 33.352343 
L 86.784858 33.580974 
L 86.959616 33.806862 
L 87.137935 34.029948 
L 87.319771 34.250177 
L 87.505079 34.467493 
L 87.693811 34.681842 
L 87.885921 34.893169 
L 88.081359 35.101422 
L 88.280076 35.306548 
L 88.482023 35.508495 
L 88.687149 35.707213 
L 88.895402 35.902651 
L 89.106729 36.09476 
L 89.321078 36.283492 
L 89.538394 36.4688 
L 89.758623 36.650636 
L 89.98171 36.828956 
L 90.207597 37.003713 
L 90.436229 37.174865 
L 90.667547 37.342367 
L 90.901494 37.506178 
L 91.13801 37.666257 
L 91.377037 37.822564 
L 91.618513 37.975058 
L 91.862378 38.123701 
L 92.108571 38.268457 
L 92.35703 38.409289 
L 92.607692 38.546161 
L 92.860494 38.679038 
L 93.115372 38.807888 
L 93.372263 38.932678 
L 93.631101 39.053376 
L 93.891822 39.169952 
L 94.154359 39.282377 
L 94.418647 39.390623 
L 94.684619 39.494661 
L 94.952209 39.594467 
L 95.221348 39.690015 
L 95.491969 39.78128 
L 95.764005 39.86824 
L 96.037385 39.950874 
L 96.312043 40.029159 
L 96.587908 40.103077 
L 96.864911 40.172608 
L 97.142982 40.237736 
L 97.422051 40.298444 
L 97.702049 40.354717 
L 97.982904 40.40654 
L 98.264546 40.4539 
L 98.546904 40.496786 
L 98.829907 40.535187 
L 99.113484 40.569092 
L 99.397563 40.598495 
L 99.682072 40.623386 
L 99.966941 40.64376 
L 100.252097 40.659612 
L 100.537469 40.670938 
L 100.822984 40.677734 
L 101.108571 40.68 
L 137.108571 40.68 
z
" clip-path="url(#pddb2840190)" style="fill: none; stroke: #000000; stroke-linecap: round"/>
   </g>
   <g id="patch_3">
    <path d="M 56.108571 157.68 
L 119.108571 130.68 
L 182.108571 157.68 
L 119.108571 184.68 
L 56.108571 157.68 
z
" clip-path="url(#pddb2840190)" style="fill: none; stroke: #000000; stroke-linecap: round"/>
   </g>
   <g id="patch_4">
    <path d="M 290.108571 175.68 
L 290.394159 175.677734 
L 290.679674 175.670938 
L 290.965046 175.659612 
L 291.250202 175.64376 
L 291.535071 175.623386 
L 291.81958 175.598495 
L 292.103659 175.569092 
L 292.387236 175.535187 
L 292.670239 175.496786 
L 292.952597 175.4539 
L 293.234239 175.40654 
L 293.515094 175.354717 
L 293.795091 175.298444 
L 294.074161 175.237736 
L 294.352232 175.172608 
L 294.629235 175.103077 
L 294.9051 175.029159 
L 295.179757 174.950874 
L 295.453138 174.86824 
L 295.725173 174.78128 
L 295.995795 174.690015 
L 296.264934 174.594467 
L 296.532523 174.494661 
L 296.798496 174.390623 
L 297.062784 174.282377 
L 297.325321 174.169952 
L 297.586042 174.053376 
L 297.84488 173.932678 
L 298.10177 173.807888 
L 298.356649 173.679038 
L 298.609451 173.546161 
L 298.860113 173.409289 
L 299.108571 173.268457 
L 299.354764 173.123701 
L 299.59863 172.975058 
L 299.840106 172.822564 
L 300.079133 172.666257 
L 300.315649 172.506178 
L 300.549596 172.342367 
L 300.780914 172.174865 
L 301.009546 172.003713 
L 301.235433 171.828956 
L 301.458519 171.650636 
L 301.678748 171.4688 
L 301.896065 171.283492 
L 302.110413 171.09476 
L 302.321741 170.902651 
L 302.529994 170.707213 
L 302.735119 170.508495 
L 302.937067 170.306548 
L 303.135784 170.101422 
L 303.331222 169.893169 
L 303.523332 169.681842 
L 303.712064 169.467493 
L 303.897371 169.250177 
L 304.079208 169.029948 
L 304.257527 168.806862 
L 304.432285 168.580974 
L 304.603436 168.352343 
L 304.770939 168.121024 
L 304.93475 167.887078 
L 305.094829 167.650561 
L 305.251135 167.411535 
L 305.403629 167.170058 
L 305.552273 166.926193 
L 305.697029 166.68 
L 305.83786 166.431541 
L 305.974732 166.180879 
L 306.10761 165.928077 
L 306.236459 165.673199 
L 306.361249 165.416308 
L 306.481947 165.15747 
L 306.598524 164.89675 
L 306.710949 164.634212 
L 306.819194 164.369924 
L 306.923233 164.103952 
L 307.023039 163.836363 
L 307.118586 163.567223 
L 307.209852 163.296602 
L 307.296812 163.024567 
L 307.379445 162.751186 
L 307.45773 162.476529 
L 307.531648 162.200664 
L 307.60118 161.923661 
L 307.666308 161.64559 
L 307.727015 161.36652 
L 307.783288 161.086522 
L 307.835111 160.805667 
L 307.882471 160.524025 
L 307.925357 160.241667 
L 307.963758 159.958664 
L 307.997664 159.675088 
L 308.027066 159.391009 
L 308.051957 159.106499 
L 308.072332 158.821631 
L 308.088184 158.536474 
L 308.099509 158.251103 
L 308.106306 157.965587 
L 308.108571 157.68 
L 308.108571 157.68 
L 308.106306 157.394413 
L 308.099509 157.108897 
L 308.088184 156.823526 
L 308.072332 156.538369 
L 308.051957 156.253501 
L 308.027066 155.968991 
L 307.997664 155.684912 
L 307.963758 155.401336 
L 307.925357 155.118333 
L 307.882471 154.835975 
L 307.835111 154.554333 
L 307.783288 154.273478 
L 307.727015 153.99348 
L 307.666308 153.71441 
L 307.60118 153.436339 
L 307.531648 153.159336 
L 307.45773 152.883471 
L 307.379445 152.608814 
L 307.296812 152.335433 
L 307.209852 152.063398 
L 307.118586 151.792777 
L 307.023039 151.523637 
L 306.923233 151.256048 
L 306.819194 150.990076 
L 306.710949 150.725788 
L 306.598524 150.46325 
L 306.481947 150.20253 
L 306.361249 149.943692 
L 306.236459 149.686801 
L 306.10761 149.431923 
L 305.974732 149.179121 
L 305.83786 148.928459 
L 305.697029 148.68 
L 305.552273 148.433807 
L 305.403629 148.189942 
L 305.251135 147.948465 
L 305.094829 147.709439 
L 304.93475 147.472922 
L 304.770939 147.238976 
L 304.603436 147.007657 
L 304.432285 146.779026 
L 304.257527 146.553138 
L 304.079208 146.330052 
L 303.897371 146.109823 
L 303.712064 145.892507 
L 303.523332 145.678158 
L 303.331222 145.466831 
L 303.135784 145.258578 
L 302.937067 145.053452 
L 302.735119 144.851505 
L 302.529994 144.652787 
L 302.321741 144.457349 
L 302.110413 144.26524 
L 301.896065 144.076508 
L 301.678748 143.8912 
L 301.458519 143.709364 
L 301.235433 143.531044 
L 301.009546 143.356287 
L 300.780914 143.185135 
L 300.549596 143.017633 
L 300.315649 142.853822 
L 300.079133 142.693743 
L 299.840106 142.537436 
L 299.59863 142.384942 
L 299.354764 142.236299 
L 299.108571 142.091543 
L 298.860113 141.950711 
L 298.609451 141.813839 
L 298.356649 141.680962 
L 298.10177 141.552112 
L 297.84488 141.427322 
L 297.586042 141.306624 
L 297.325321 141.190048 
L 297.062784 141.077623 
L 296.798496 140.969377 
L 296.532523 140.865339 
L 296.264934 140.765533 
L 295.995795 140.669985 
L 295.725173 140.57872 
L 295.453138 140.49176 
L 295.179757 140.409126 
L 294.9051 140.330841 
L 294.629235 140.256923 
L 294.352232 140.187392 
L 294.074161 140.122264 
L 293.795091 140.061556 
L 293.515094 140.005283 
L 293.234239 139.95346 
L 292.952597 139.9061 
L 292.670239 139.863214 
L 292.387236 139.824813 
L 292.103659 139.790908 
L 291.81958 139.761505 
L 291.535071 139.736614 
L 291.250202 139.71624 
L 290.965046 139.700388 
L 290.679674 139.689062 
L 290.394159 139.682266 
L 290.108571 139.68 
L 254.108571 139.68 
L 253.822984 139.682266 
L 253.537469 139.689062 
L 253.252097 139.700388 
L 252.966941 139.71624 
L 252.682072 139.736614 
L 252.397563 139.761505 
L 252.113484 139.790908 
L 251.829907 139.824813 
L 251.546904 139.863214 
L 251.264546 139.9061 
L 250.982904 139.95346 
L 250.702049 140.005283 
L 250.422051 140.061556 
L 250.142982 140.122264 
L 249.864911 140.187392 
L 249.587908 140.256923 
L 249.312043 140.330841 
L 249.037385 140.409126 
L 248.764005 140.49176 
L 248.491969 140.57872 
L 248.221348 140.669985 
L 247.952209 140.765533 
L 247.684619 140.865339 
L 247.418647 140.969377 
L 247.154359 141.077623 
L 246.891822 141.190048 
L 246.631101 141.306624 
L 246.372263 141.427322 
L 246.115372 141.552112 
L 245.860494 141.680962 
L 245.607692 141.813839 
L 245.35703 141.950711 
L 245.108571 142.091543 
L 244.862378 142.236299 
L 244.618513 142.384942 
L 244.377037 142.537436 
L 244.13801 142.693743 
L 243.901494 142.853822 
L 243.667547 143.017633 
L 243.436229 143.185135 
L 243.207597 143.356287 
L 242.98171 143.531044 
L 242.758623 143.709364 
L 242.538394 143.8912 
L 242.321078 144.076508 
L 242.106729 144.26524 
L 241.895402 144.457349 
L 241.687149 144.652787 
L 241.482023 144.851505 
L 241.280076 145.053452 
L 241.081359 145.258578 
L 240.885921 145.466831 
L 240.693811 145.678158 
L 240.505079 145.892507 
L 240.319771 146.109823 
L 240.137935 146.330052 
L 239.959616 146.553138 
L 239.784858 146.779026 
L 239.613707 147.007657 
L 239.446204 147.238976 
L 239.282393 147.472922 
L 239.122314 147.709439 
L 238.966008 147.948465 
L 238.813514 148.189942 
L 238.66487 148.433807 
L 238.520114 148.68 
L 238.379283 148.928459 
L 238.242411 149.179121 
L 238.109533 149.431923 
L 237.980683 149.686801 
L 237.855894 149.943692 
L 237.735196 150.20253 
L 237.618619 150.46325 
L 237.506194 150.725788 
L 237.397949 150.990076 
L 237.29391 151.256048 
L 237.194104 151.523637 
L 237.098557 151.792777 
L 237.007291 152.063398 
L 236.920331 152.335433 
L 236.837698 152.608814 
L 236.759413 152.883471 
L 236.685495 153.159336 
L 236.615963 153.436339 
L 236.550835 153.71441 
L 236.490127 153.99348 
L 236.433855 154.273478 
L 236.382032 154.554333 
L 236.334671 154.835975 
L 236.291785 155.118333 
L 236.253385 155.401336 
L 236.219479 155.684912 
L 236.190077 155.968991 
L 236.165185 156.253501 
L 236.144811 156.538369 
L 236.128959 156.823526 
L 236.117634 157.108897 
L 236.110837 157.394413 
L 236.108571 157.68 
L 236.108571 157.68 
L 236.110837 157.965587 
L 236.117634 158.251103 
L 236.128959 158.536474 
L 236.144811 158.821631 
L 236.165185 159.106499 
L 236.190077 159.391009 
L 236.219479 159.675088 
L 236.253385 159.958664 
L 236.291785 160.241667 
L 236.334671 160.524025 
L 236.382032 160.805667 
L 236.433855 161.086522 
L 236.490127 161.36652 
L 236.550835 161.64559 
L 236.615963 161.923661 
L 236.685495 162.200664 
L 236.759413 162.476529 
L 236.837698 162.751186 
L 236.920331 163.024567 
L 237.007291 163.296602 
L 237.098557 163.567223 
L 237.194104 163.836363 
L 237.29391 164.103952 
L 237.397949 164.369924 
L 237.506194 164.634212 
L 237.618619 164.89675 
L 237.735196 165.15747 
L 237.855894 165.416308 
L 237.980683 165.673199 
L 238.109533 165.928077 
L 238.242411 166.180879 
L 238.379283 166.431541 
L 238.520114 166.68 
L 238.66487 166.926193 
L 238.813514 167.170058 
L 238.966008 167.411535 
L 239.122314 167.650561 
L 239.282393 167.887078 
L 239.446204 168.121024 
L 239.613707 168.352343 
L 239.784858 168.580974 
L 239.959616 168.806862 
L 240.137935 169.029948 
L 240.319771 169.250177 
L 240.505079 169.467493 
L 240.693811 169.681842 
L 240.885921 169.893169 
L 241.081359 170.101422 
L 241.280076 170.306548 
L 241.482023 170.508495 
L 241.687149 170.707213 
L 241.895402 170.902651 
L 242.106729 171.09476 
L 242.321078 171.283492 
L 242.538394 171.4688 
L 242.758623 171.650636 
L 242.98171 171.828956 
L 243.207597 172.003713 
L 243.436229 172.174865 
L 243.667547 172.342367 
L 243.901494 172.506178 
L 244.13801 172.666257 
L 244.377037 172.822564 
L 244.618513 172.975058 
L 244.862378 173.123701 
L 245.108571 173.268457 
L 245.35703 173.409289 
L 245.607692 173.546161 
L 245.860494 173.679038 
L 246.115372 173.807888 
L 246.372263 173.932678 
L 246.631101 174.053376 
L 246.891822 174.169952 
L 247.154359 174.282377 
L 247.418647 174.390623 
L 247.684619 174.494661 
L 247.952209 174.594467 
L 248.221348 174.690015 
L 248.491969 174.78128 
L 248.764005 174.86824 
L 249.037385 174.950874 
L 249.312043 175.029159 
L 249.587908 175.103077 
L 249.864911 175.172608 
L 250.142982 175.237736 
L 250.422051 175.298444 
L 250.702049 175.354717 
L 250.982904 175.40654 
L 251.264546 175.4539 
L 251.546904 175.496786 
L 251.829907 175.535187 
L 252.113484 175.569092 
L 252.397563 175.598495 
L 252.682072 175.623386 
L 252.966941 175.64376 
L 253.252097 175.659612 
L 253.537469 175.670938 
L 253.822984 175.677734 
L 254.108571 175.68 
L 290.108571 175.68 
z
" clip-path="url(#pddb2840190)" style="fill: none; stroke: #000000; stroke-linecap: round"/>
   </g>
   <g id="patch_5">
    <path d="M 56.108571 319.68 
L 119.108571 292.68 
L 182.108571 319.68 
L 119.108571 346.68 
L 56.108571 319.68 
z
" clip-path="url(#pddb2840190)" style="fill: none; stroke: #000000; stroke-linecap: round"/>
   </g>
   <g id="line2d_1">
    <path d="M 119.108571 40.68 
L 119.108571 54.18 
L 119.108571 58.68 
" clip-path="url(#pddb2840190)" style="fill: none; stroke: #000000; stroke-linecap: round"/>
   </g>
   <g id="patch_6">
    <path d="M 121.808571 58.68 
L 119.108571 67.68 
L 116.408571 58.68 
z
" clip-path="url(#pddb2840190)"/>
   </g>
   <g id="line2d_2">
    <path d="M 79.508571 85.68 
L 79.508571 67.68 
L 158.708571 67.68 
L 158.708571 103.68 
L 79.508571 103.68 
L 79.508571 85.68 
" clip-path="url(#pddb2840190)" style="fill: none; stroke: #000000; stroke-linecap: round"/>
   </g>
   <g id="line2d_3">
    <path d="M 119.108571 103.68 
L 119.108571 117.18 
L 119.108571 121.68 
" clip-path="url(#pddb2840190)" style="fill: none; stroke: #000000; stroke-linecap: round"/>
   </g>
   <g id="patch_7">
    <path d="M 121.808571 121.68 
L 119.108571 130.68 
L 116.408571 121.68 
z
" clip-path="url(#pddb2840190)"/>
   </g>
   <g id="line2d_4">
    <path d="M 182.108571 157.68 
L 209.108571 157.68 
L 227.108571 157.68 
" clip-path="url(#pddb2840190)" style="fill: none; stroke: #000000; stroke-linecap: round"/>
   </g>
   <g id="patch_8">
    <path d="M 227.108571 154.98 
L 236.108571 157.68 
L 227.108571 160.38 
z
" clip-path="url(#pddb2840190)"/>
   </g>
   <g id="line2d_5">
    <path d="M 119.108571 184.68 
L 119.108571 202.68 
L 119.108571 211.68 
" clip-path="url(#pddb2840190)" style="fill: none; stroke: #000000; stroke-linecap: round"/>
   </g>
   <g id="patch_9">
    <path d="M 121.808571 211.68 
L 119.108571 220.68 
L 116.408571 211.68 
z
" clip-path="url(#pddb2840190)"/>
   </g>
   <g id="line2d_6">
    <path d="M 65.108571 238.68 
L 65.108571 220.68 
L 173.108571 220.68 
L 173.108571 256.68 
L 65.108571 256.68 
L 65.108571 238.68 
" clip-path="url(#pddb2840190)" style="fill: none; stroke: #000000; stroke-linecap: round"/>
   </g>
   <g id="line2d_7">
    <path d="M 119.108571 256.68 
L 119.108571 274.68 
L 119.108571 283.68 
" clip-path="url(#pddb2840190)" style="fill: none; stroke: #000000; stroke-linecap: round"/>
   </g>
   <g id="patch_10">
    <path d="M 121.808571 283.68 
L 119.108571 292.68 
L 116.408571 283.68 
z
" clip-path="url(#pddb2840190)"/>
   </g>
   <g id="line2d_8">
    <path d="M 56.108571 319.68 
L 30.394286 319.68 
L 13.68 319.68 
" clip-path="url(#pddb2840190)" style="fill: none; stroke: #000000; stroke-linecap: round"/>
   </g>
   <g id="patch_11">
    <path d="M 13.68 322.38 
L 4.68 319.68 
L 13.68 316.98 
z
" clip-path="url(#pddb2840190)"/>
   </g>
   <g id="line2d_9">
    <path d="M 119.108571 346.68 
L 119.108571 364.68 
L 119.108571 373.68 
" clip-path="url(#pddb2840190)" style="fill: none; stroke: #000000; stroke-linecap: round"/>
   </g>
   <g id="patch_12">
    <path d="M 121.808571 373.68 
L 119.108571 382.68 
L 116.408571 373.68 
z
" clip-path="url(#pddb2840190)"/>
   </g>
   <g id="line2d_10">
    <path d="M 59.708571 400.68 
L 59.708571 382.68 
L 178.508571 382.68 
L 178.508571 418.68 
L 59.708571 418.68 
L 59.708571 400.68 
" clip-path="url(#pddb2840190)" style="fill: none; stroke: #000000; stroke-linecap: round"/>
   </g>
   <g id="line2d_11">
    <path d="M 59.708571 400.68 
L 5.708571 400.68 
L 5.708571 157.68 
L 47.108571 157.68 
" clip-path="url(#pddb2840190)" style="fill: none; stroke: #000000; stroke-linecap: round"/>
   </g>
   <g id="patch_13">
    <path d="M 47.108571 154.98 
L 56.108571 157.68 
L 47.108571 160.38 
z
" clip-path="url(#pddb2840190)"/>
   </g>
   <g id="text_1">
    <!-- START -->
    <g transform="translate(97.630603 26.593438) scale(0.14 -0.14)">
     <defs>
      <path id="IPAexGothic-53" d="M 2919 3641 
Q 2563 4259 1853 4259 
Q 1453 4259 1213 4009 
Q 1028 3803 1028 3534 
Q 1028 3238 1266 3047 
Q 1444 2913 1984 2688 
L 2200 2597 
Q 2925 2306 3191 1953 
Q 3422 1644 3422 1259 
Q 3422 644 2969 288 
Q 2559 -31 1931 -31 
Q 881 -31 313 766 
L 753 1100 
Q 1203 459 1938 459 
Q 2288 459 2534 625 
Q 2841 847 2841 1216 
Q 2841 1503 2616 1728 
Q 2375 1959 1728 2206 
L 1541 2278 
Q 453 2694 453 3481 
Q 453 4006 806 4347 
Q 1203 4725 1863 4725 
Q 2841 4725 3359 3956 
L 2919 3641 
z
" transform="scale(0.015625)"/>
      <path id="IPAexGothic-54" d="M 3866 4141 
L 2175 4141 
L 2175 63 
L 1606 63 
L 1606 4141 
L -31 4141 
L -31 4634 
L 3866 4634 
L 3866 4141 
z
" transform="scale(0.015625)"/>
      <path id="IPAexGothic-41" d="M 4056 63 
L 3444 63 
L 2938 1409 
L 1100 1409 
L 603 63 
L -6 63 
L 1806 4666 
L 2259 4666 
L 4056 63 
z
M 2778 1863 
L 2316 3078 
Q 2125 3588 2028 4000 
L 2009 4000 
Q 1897 3563 1716 3078 
L 1263 1863 
L 2778 1863 
z
" transform="scale(0.015625)"/>
      <path id="IPAexGothic-52" d="M 4072 63 
L 3394 63 
Q 3138 641 2828 1197 
Q 2584 1641 2344 1825 
Q 2050 2044 1625 2044 
L 1172 2044 
L 1172 63 
L 609 63 
L 609 4634 
L 2009 4634 
Q 2713 4634 3131 4378 
Q 3688 4044 3688 3381 
Q 3688 2784 3181 2459 
Q 2906 2272 2522 2216 
L 2522 2197 
Q 2941 2050 3247 1581 
Q 3516 1166 4072 63 
z
M 1172 2478 
L 1869 2478 
Q 3106 2478 3106 3369 
Q 3106 4181 1928 4181 
L 1172 4181 
L 1172 2478 
z
" transform="scale(0.015625)"/>
     </defs>
     <use xlink:href="#IPAexGothic-53"/>
     <use xlink:href="#IPAexGothic-54" x="58.496094"/>
     <use xlink:href="#IPAexGothic-41" x="118.408203"/>
     <use xlink:href="#IPAexGothic-52" x="182.128906"/>
     <use xlink:href="#IPAexGothic-54" x="246.923828"/>
    </g>
   </g>
   <g id="text_2">
    <!-- counter = 0 -->
    <g transform="translate(80.681853 89.593438) scale(0.14 -0.14)">
     <defs>
      <path id="IPAexGothic-63" d="M 3269 784 
Q 2834 -31 1900 -31 
Q 1228 -31 788 409 
Q 313 891 313 1663 
Q 313 2428 788 2913 
Q 1222 3347 1881 3347 
Q 2813 3347 3206 2541 
L 2763 2309 
Q 2484 2900 1900 2900 
Q 1516 2900 1234 2619 
Q 881 2266 881 1650 
Q 881 1069 1222 728 
Q 1522 428 1956 428 
Q 2547 428 2847 1016 
L 3269 784 
z
" transform="scale(0.015625)"/>
      <path id="IPAexGothic-6f" d="M 1919 3341 
Q 2594 3341 3056 2888 
Q 3531 2413 3531 1638 
Q 3531 888 3066 422 
Q 2609 -31 1919 -31 
Q 1228 -31 781 416 
Q 313 881 313 1656 
Q 313 2413 788 2888 
Q 1241 3341 1919 3341 
z
M 1919 2919 
Q 1519 2919 1241 2631 
Q 888 2278 888 1650 
Q 888 1031 1234 684 
Q 1516 403 1919 403 
Q 2331 403 2609 691 
Q 2956 1038 2956 1672 
Q 2956 2269 2603 2631 
Q 2316 2919 1919 2919 
z
" transform="scale(0.015625)"/>
      <path id="IPAexGothic-75" d="M 3284 63 
L 2772 63 
L 2772 644 
Q 2300 0 1625 0 
Q 1072 0 763 375 
Q 519 678 519 1241 
L 519 3250 
L 1069 3250 
L 1069 1259 
Q 1069 466 1734 466 
Q 2406 466 2734 1291 
L 2734 3250 
L 3284 3250 
L 3284 63 
z
" transform="scale(0.015625)"/>
      <path id="IPAexGothic-6e" d="M 3328 63 
L 2778 63 
L 2778 2041 
Q 2778 2853 2106 2853 
Q 1428 2853 1113 2041 
L 1113 63 
L 563 63 
L 563 3250 
L 1075 3250 
L 1075 2675 
Q 1525 3316 2222 3316 
Q 3328 3316 3328 2072 
L 3328 63 
z
" transform="scale(0.015625)"/>
      <path id="IPAexGothic-74" d="M 2125 241 
Q 1769 -6 1397 -6 
Q 653 -6 653 831 
L 653 2859 
L 219 2859 
L 219 3250 
L 653 3250 
L 653 3966 
L 1178 4228 
L 1178 3250 
L 2063 3250 
L 2063 2859 
L 1178 2859 
L 1178 906 
Q 1178 416 1513 416 
Q 1738 416 1941 588 
L 2125 241 
z
" transform="scale(0.015625)"/>
      <path id="IPAexGothic-65" d="M 863 1594 
Q 891 1041 1209 722 
Q 1534 397 1997 397 
Q 2606 397 2963 966 
L 3322 728 
Q 2869 -31 1931 -31 
Q 1222 -31 766 422 
Q 306 884 306 1641 
Q 306 2444 788 2925 
Q 1216 3353 1856 3353 
Q 2459 3353 2866 2956 
Q 3322 2494 3322 1722 
L 3322 1594 
L 863 1594 
z
M 2756 1997 
Q 2709 2431 2450 2681 
Q 2194 2938 1844 2938 
Q 1438 2938 1150 2591 
Q 953 2356 894 1997 
L 2756 1997 
z
" transform="scale(0.015625)"/>
      <path id="IPAexGothic-72" d="M 2309 3316 
L 2213 2769 
Q 2106 2791 2022 2791 
Q 1653 2791 1413 2444 
Q 1113 2006 1113 1675 
L 1113 63 
L 563 63 
L 563 3250 
L 1081 3250 
L 1056 2303 
L 1069 2303 
Q 1422 3341 2097 3341 
Q 2206 3341 2309 3316 
z
" transform="scale(0.015625)"/>
      <path id="IPAexGothic-20" transform="scale(0.015625)"/>
      <path id="IPAexGothic-3d" d="M 416 2803 
L 3922 2803 
L 3922 2438 
L 416 2438 
L 416 2803 
z
M 416 1625 
L 3922 1625 
L 3922 1259 
L 416 1259 
L 416 1625 
z
" transform="scale(0.015625)"/>
      <path id="IPAexGothic-30" d="M 2038 4725 
Q 2881 4725 3334 3944 
Q 3694 3325 3694 2344 
Q 3694 1372 3334 741 
Q 2888 -31 2016 -31 
Q 1147 -31 700 741 
Q 341 1372 341 2350 
Q 341 3713 1000 4334 
Q 1419 4725 2038 4725 
z
M 2016 4266 
Q 1516 4266 1228 3759 
Q 934 3247 934 2344 
Q 934 1456 1222 947 
Q 1513 447 2016 447 
Q 2619 447 2909 1153 
Q 3100 1622 3100 2375 
Q 3100 3256 2806 3759 
Q 2509 4266 2016 4266 
z
" transform="scale(0.015625)"/>
     </defs>
     <use xlink:href="#IPAexGothic-63"/>
     <use xlink:href="#IPAexGothic-6f" x="54.394531"/>
     <use xlink:href="#IPAexGothic-75" x="114.794922"/>
     <use xlink:href="#IPAexGothic-6e" x="175.195312"/>
     <use xlink:href="#IPAexGothic-74" x="235.595703"/>
     <use xlink:href="#IPAexGothic-65" x="270.214844"/>
     <use xlink:href="#IPAexGothic-72" x="327.099609"/>
     <use xlink:href="#IPAexGothic-20" x="364.111328"/>
     <use xlink:href="#IPAexGothic-3d" x="391.113281"/>
     <use xlink:href="#IPAexGothic-20" x="458.935547"/>
     <use xlink:href="#IPAexGothic-30" x="485.9375"/>
    </g>
   </g>
   <g id="text_3">
    <!-- True -->
    <g transform="translate(123.788571 199.846875) scale(0.14 -0.14)">
     <use xlink:href="#IPAexGothic-54"/>
     <use xlink:href="#IPAexGothic-72" x="59.912109"/>
     <use xlink:href="#IPAexGothic-75" x="96.923828"/>
     <use xlink:href="#IPAexGothic-65" x="157.324219"/>
    </g>
   </g>
   <g id="text_4">
    <!-- False -->
    <g transform="translate(186.788571 150.34) scale(0.14 -0.14)">
     <defs>
      <path id="IPAexGothic-46" d="M 3469 4141 
L 1172 4141 
L 1172 2656 
L 3206 2656 
L 3206 2188 
L 1172 2188 
L 1172 63 
L 609 63 
L 609 4634 
L 3469 4634 
L 3469 4141 
z
" transform="scale(0.015625)"/>
      <path id="IPAexGothic-61" d="M 3156 63 
L 2672 63 
Q 2559 303 2531 556 
L 2509 556 
Q 2147 -25 1428 -25 
Q 934 -25 622 288 
Q 347 563 347 959 
Q 347 1947 2050 1997 
L 2478 2009 
L 2478 2175 
Q 2478 2509 2288 2700 
Q 2088 2900 1775 2900 
Q 1238 2900 969 2378 
L 494 2597 
Q 938 3328 1788 3328 
Q 2375 3328 2691 3000 
Q 2984 2706 2984 2169 
L 2984 997 
Q 2984 400 3156 63 
z
M 2491 1625 
L 2141 1619 
Q 903 1591 903 953 
Q 903 728 1050 581 
Q 1231 403 1525 403 
Q 1934 403 2234 703 
Q 2491 969 2491 1344 
L 2491 1625 
z
" transform="scale(0.015625)"/>
      <path id="IPAexGothic-6c" d="M 1131 63 
L 581 63 
L 581 4794 
L 1131 4794 
L 1131 63 
z
" transform="scale(0.015625)"/>
      <path id="IPAexGothic-73" d="M 2234 2547 
Q 1938 2931 1484 2931 
Q 891 2931 891 2475 
Q 891 2153 1531 1944 
L 1741 1875 
Q 2650 1578 2650 894 
Q 2650 434 2272 172 
Q 1972 -31 1497 -31 
Q 766 -31 256 503 
L 603 819 
Q 997 397 1516 397 
Q 2131 397 2131 875 
Q 2131 1238 1453 1478 
L 1234 1553 
Q 378 1853 378 2431 
Q 378 2797 628 3047 
Q 928 3347 1453 3347 
Q 2156 3347 2606 2859 
L 2234 2547 
z
" transform="scale(0.015625)"/>
     </defs>
     <use xlink:href="#IPAexGothic-46"/>
     <use xlink:href="#IPAexGothic-61" x="57.177734"/>
     <use xlink:href="#IPAexGothic-6c" x="112.158203"/>
     <use xlink:href="#IPAexGothic-73" x="139.160156"/>
     <use xlink:href="#IPAexGothic-65" x="185.351562"/>
    </g>
   </g>
   <g id="text_5">
    <!-- counter &lt; 5 ？ -->
    <g transform="translate(71.791853 161.593438) scale(0.14 -0.14)">
     <defs>
      <path id="IPAexGothic-3c" d="M 897 2028 
L 3928 609 
L 3769 263 
L 409 1881 
L 409 2175 
L 3769 3794 
L 3928 3450 
L 897 2028 
z
" transform="scale(0.015625)"/>
      <path id="IPAexGothic-35" d="M 1178 2603 
Q 1634 2963 2172 2963 
Q 2816 2963 3241 2528 
Q 3638 2113 3638 1497 
Q 3638 938 3297 513 
Q 2869 -31 2031 -31 
Q 959 -31 469 784 
L 938 1028 
Q 1309 434 2013 434 
Q 2466 434 2769 716 
Q 3081 1013 3081 1503 
Q 3081 1966 2806 2241 
Q 2519 2528 2056 2528 
Q 1406 2528 1072 2028 
L 591 2091 
L 884 4634 
L 3406 4634 
L 3406 4153 
L 1341 4153 
L 1134 2603 
L 1178 2603 
z
" transform="scale(0.015625)"/>
      <path id="IPAexGothic-ff1f" d="M 1503 3444 
Q 1550 4184 1963 4616 
Q 2466 5128 3272 5128 
Q 3888 5128 4313 4853 
Q 4909 4469 4909 3778 
Q 4909 3059 4116 2563 
Q 3628 2250 3506 1881 
Q 3422 1650 3422 1228 
L 2853 1228 
Q 2863 1869 3053 2197 
Q 3281 2588 3847 2950 
Q 4341 3269 4341 3778 
Q 4341 4231 3975 4463 
Q 3697 4634 3266 4634 
Q 2656 4634 2341 4225 
Q 2109 3928 2091 3444 
L 1503 3444 
z
M 2763 647 
L 3506 647 
L 3506 -97 
L 2763 -97 
L 2763 647 
z
" transform="scale(0.015625)"/>
     </defs>
     <use xlink:href="#IPAexGothic-63"/>
     <use xlink:href="#IPAexGothic-6f" x="54.394531"/>
     <use xlink:href="#IPAexGothic-75" x="114.794922"/>
     <use xlink:href="#IPAexGothic-6e" x="175.195312"/>
     <use xlink:href="#IPAexGothic-74" x="235.595703"/>
     <use xlink:href="#IPAexGothic-65" x="270.214844"/>
     <use xlink:href="#IPAexGothic-72" x="327.099609"/>
     <use xlink:href="#IPAexGothic-20" x="364.111328"/>
     <use xlink:href="#IPAexGothic-3c" x="391.113281"/>
     <use xlink:href="#IPAexGothic-20" x="458.935547"/>
     <use xlink:href="#IPAexGothic-35" x="485.9375"/>
     <use xlink:href="#IPAexGothic-20" x="548.925781"/>
     <use xlink:href="#IPAexGothic-ff1f" x="575.927734"/>
    </g>
   </g>
   <g id="text_6">
    <!-- END -->
    <g transform="translate(257.325446 161.593438) scale(0.14 -0.14)">
     <defs>
      <path id="IPAexGothic-45" d="M 3547 63 
L 609 63 
L 609 4634 
L 3469 4634 
L 3469 4147 
L 1166 4147 
L 1166 2650 
L 3206 2650 
L 3206 2191 
L 1166 2191 
L 1166 556 
L 3547 556 
L 3547 63 
z
" transform="scale(0.015625)"/>
      <path id="IPAexGothic-4e" d="M 4244 63 
L 3731 63 
L 1697 3150 
Q 1466 3500 1141 4097 
L 1116 4097 
L 1128 3797 
Q 1159 2803 1159 2469 
L 1159 63 
L 609 63 
L 609 4634 
L 1366 4634 
L 3113 1978 
Q 3453 1447 3713 966 
L 3738 966 
Q 3694 1897 3694 2469 
L 3694 4634 
L 4244 4634 
L 4244 63 
z
" transform="scale(0.015625)"/>
      <path id="IPAexGothic-44" d="M 609 4634 
L 1984 4634 
Q 3159 4634 3791 4050 
Q 4456 3444 4456 2356 
Q 4456 1047 3516 441 
Q 2925 63 1941 63 
L 609 63 
L 609 4634 
z
M 1172 556 
L 1894 556 
Q 3853 556 3853 2356 
Q 3853 4147 1928 4147 
L 1172 4147 
L 1172 556 
z
" transform="scale(0.015625)"/>
     </defs>
     <use xlink:href="#IPAexGothic-45"/>
     <use xlink:href="#IPAexGothic-4e" x="59.521484"/>
     <use xlink:href="#IPAexGothic-44" x="135.498047"/>
    </g>
   </g>
   <g id="text_7">
    <!-- counter += 1 -->
    <g transform="translate(75.933884 242.593438) scale(0.14 -0.14)">
     <defs>
      <path id="IPAexGothic-2b" d="M 2369 1856 
L 2369 219 
L 1984 219 
L 1984 1856 
L 416 1856 
L 416 2216 
L 1984 2216 
L 1984 3725 
L 2369 3725 
L 2369 2216 
L 3922 2216 
L 3922 1856 
L 2369 1856 
z
" transform="scale(0.015625)"/>
      <path id="IPAexGothic-31" d="M 2463 63 
L 1900 63 
L 1900 4103 
Q 1372 3922 788 3797 
L 684 4231 
Q 1519 4441 2106 4731 
L 2463 4731 
L 2463 63 
z
" transform="scale(0.015625)"/>
     </defs>
     <use xlink:href="#IPAexGothic-63"/>
     <use xlink:href="#IPAexGothic-6f" x="54.394531"/>
     <use xlink:href="#IPAexGothic-75" x="114.794922"/>
     <use xlink:href="#IPAexGothic-6e" x="175.195312"/>
     <use xlink:href="#IPAexGothic-74" x="235.595703"/>
     <use xlink:href="#IPAexGothic-65" x="270.214844"/>
     <use xlink:href="#IPAexGothic-72" x="327.099609"/>
     <use xlink:href="#IPAexGothic-20" x="364.111328"/>
     <use xlink:href="#IPAexGothic-2b" x="391.113281"/>
     <use xlink:href="#IPAexGothic-3d" x="458.935547"/>
     <use xlink:href="#IPAexGothic-20" x="526.757812"/>
     <use xlink:href="#IPAexGothic-31" x="553.759766"/>
    </g>
   </g>
   <g id="text_8">
    <!-- False -->
    <g transform="translate(123.788571 361.846875) scale(0.14 -0.14)">
     <use xlink:href="#IPAexGothic-46"/>
     <use xlink:href="#IPAexGothic-61" x="57.177734"/>
     <use xlink:href="#IPAexGothic-6c" x="112.158203"/>
     <use xlink:href="#IPAexGothic-73" x="139.160156"/>
     <use xlink:href="#IPAexGothic-65" x="185.351562"/>
    </g>
   </g>
   <g id="text_9">
    <!-- True -->
    <g transform="translate(21.437946 312.34) scale(0.14 -0.14)">
     <use xlink:href="#IPAexGothic-54"/>
     <use xlink:href="#IPAexGothic-72" x="59.912109"/>
     <use xlink:href="#IPAexGothic-75" x="96.923828"/>
     <use xlink:href="#IPAexGothic-65" x="157.324219"/>
    </g>
   </g>
   <g id="text_10">
    <!-- counter == 3 ？ -->
    <g transform="translate(67.043884 323.593438) scale(0.14 -0.14)">
     <defs>
      <path id="IPAexGothic-33" d="M 2381 2419 
Q 3506 2216 3506 1278 
Q 3506 716 3128 356 
Q 2709 -31 1944 -31 
Q 797 -31 288 881 
L 756 1131 
Q 1109 441 1938 441 
Q 2425 441 2694 691 
Q 2950 928 2950 1291 
Q 2950 1719 2566 1978 
Q 2216 2213 1644 2213 
L 1363 2213 
L 1363 2669 
L 1656 2669 
Q 2231 2669 2534 2888 
Q 2859 3119 2859 3509 
Q 2859 3934 2494 4138 
Q 2259 4278 1931 4278 
Q 1238 4278 903 3578 
L 434 3803 
Q 897 4725 1938 4725 
Q 2597 4725 3006 4394 
Q 3416 4069 3416 3534 
Q 3416 3028 3019 2706 
Q 2763 2500 2381 2444 
L 2381 2419 
z
" transform="scale(0.015625)"/>
     </defs>
     <use xlink:href="#IPAexGothic-63"/>
     <use xlink:href="#IPAexGothic-6f" x="54.394531"/>
     <use xlink:href="#IPAexGothic-75" x="114.794922"/>
     <use xlink:href="#IPAexGothic-6e" x="175.195312"/>
     <use xlink:href="#IPAexGothic-74" x="235.595703"/>
     <use xlink:href="#IPAexGothic-65" x="270.214844"/>
     <use xlink:href="#IPAexGothic-72" x="327.099609"/>
     <use xlink:href="#IPAexGothic-20" x="364.111328"/>
     <use xlink:href="#IPAexGothic-3d" x="391.113281"/>
     <use xlink:href="#IPAexGothic-3d" x="458.935547"/>
     <use xlink:href="#IPAexGothic-20" x="526.757812"/>
     <use xlink:href="#IPAexGothic-33" x="553.759766"/>
     <use xlink:href="#IPAexGothic-20" x="616.748047"/>
     <use xlink:href="#IPAexGothic-ff1f" x="643.75"/>
    </g>
   </g>
   <g id="text_11">
    <!-- print(counter) -->
    <g transform="translate(73.476228 404.719219) scale(0.14 -0.14)">
     <defs>
      <path id="IPAexGothic-70" d="M 1075 2688 
Q 1525 3341 2206 3341 
Q 2769 3341 3172 2938 
Q 3641 2469 3641 1644 
Q 3641 841 3178 372 
Q 2775 -31 2200 -31 
Q 1569 -31 1106 497 
L 1106 -1216 
L 563 -1216 
L 563 3250 
L 1075 3250 
L 1075 2688 
z
M 1106 1950 
L 1106 1291 
Q 1106 897 1516 600 
Q 1791 403 2106 403 
Q 2469 403 2725 659 
Q 3066 997 3066 1631 
Q 3066 2200 2784 2559 
Q 2503 2900 2100 2900 
Q 1656 2900 1338 2484 
Q 1106 2184 1106 1950 
z
" transform="scale(0.015625)"/>
      <path id="IPAexGothic-69" d="M 1178 3928 
L 550 3928 
L 550 4569 
L 1178 4569 
L 1178 3928 
z
M 1138 63 
L 588 63 
L 588 3250 
L 1138 3250 
L 1138 63 
z
" transform="scale(0.015625)"/>
      <path id="IPAexGothic-28" d="M 1928 -1016 
L 1653 -1166 
Q 488 69 488 1875 
Q 488 3678 1653 4909 
L 1928 4763 
Q 1006 3522 1006 1881 
Q 1006 203 1928 -1016 
z
" transform="scale(0.015625)"/>
      <path id="IPAexGothic-29" d="M 466 4909 
Q 1638 3672 1638 1875 
Q 1638 75 466 -1166 
L 191 -1016 
Q 1119 216 1119 1881 
Q 1119 3509 191 4763 
L 466 4909 
z
" transform="scale(0.015625)"/>
     </defs>
     <use xlink:href="#IPAexGothic-70"/>
     <use xlink:href="#IPAexGothic-72" x="62.109375"/>
     <use xlink:href="#IPAexGothic-69" x="99.121094"/>
     <use xlink:href="#IPAexGothic-6e" x="126.123047"/>
     <use xlink:href="#IPAexGothic-74" x="186.523438"/>
     <use xlink:href="#IPAexGothic-28" x="221.142578"/>
     <use xlink:href="#IPAexGothic-63" x="254.443359"/>
     <use xlink:href="#IPAexGothic-6f" x="308.837891"/>
     <use xlink:href="#IPAexGothic-75" x="369.238281"/>
     <use xlink:href="#IPAexGothic-6e" x="429.638672"/>
     <use xlink:href="#IPAexGothic-74" x="490.039062"/>
     <use xlink:href="#IPAexGothic-65" x="524.658203"/>
     <use xlink:href="#IPAexGothic-72" x="581.542969"/>
     <use xlink:href="#IPAexGothic-29" x="618.554688"/>
    </g>
   </g>
  </g>
 </g>
 <defs>
  <clipPath id="pddb2840190">
   <rect x="0" y="0" width="312.788571" height="423.36"/>
  </clipPath>
 </defs>
</svg>