<?xml version="1.0" encoding="utf-8" standalone="no"?>
<!DOCTYPE svg PUBLIC "-//W3C//DTD SVG 1.1//EN"
  "http://www.w3.org/Graphics/SVG/1.1/DTD/svg11.dtd">
<svg xmlns:xlink="http://www.w3.org/1999/xlink" width="340.971429pt" height="462.6pt" viewBox="0 0 340.971429 462.6" xmlns="http://www.w3.org/2000/svg" version="1.1">
 <metadata>
  <rdf:RDF xmlns:dc="http://purl.org/dc/elements/1.1/" xmlns:cc="http://creativecommons.org/ns#" xmlns:rdf="http://www.w3.org/1999/02/22-rdf-syntax-ns#">
   <cc:Work>
    <dc:type rdf:resource="http://purl.org/dc/dcmitype/StillImage"/>
    <dc:date>2024-03-16T03:50:59.944201</dc:date>
    <dc:format>image/svg+xml</dc:format>
    <dc:creator>
     <cc:Agent>
      <dc:title>Matplotlib v3.8.3, https://matplotlib.org/</dc:title>
     </cc:Agent>
    </dc:creator>
   </cc:Work>
  </rdf:RDF>
 </metadata>
 <defs>
  <style type="text/css">*{stroke-linejoin: round; stroke-linecap: butt}</style>
 </defs>
 <g id="figure_1">
  <g id="patch_1">
   <path d="M 0 462.6 
L 340.971429 462.6 
L 340.971429 0 
L 0 0 
z
" style="fill: #ffffff"/>
  </g>
  <g id="axes_1">
   <g id="patch_2">
    <path d="M 151.2 60.3 
L 151.485587 60.297734 
L 151.771103 60.290938 
L 152.056474 60.279612 
L 152.341631 60.26376 
L 152.626499 60.243386 
L 152.911009 60.218495 
L 153.195088 60.189092 
L 153.478664 60.155187 
L 153.761667 60.116786 
L 154.044025 60.0739 
L 154.325667 60.02654 
L 154.606522 59.974717 
L 154.88652 59.918444 
L 155.16559 59.857736 
L 155.443661 59.792608 
L 155.720664 59.723077 
L 155.996529 59.649159 
L 156.271186 59.570874 
L 156.544567 59.48824 
L 156.816602 59.40128 
L 157.087223 59.310015 
L 157.356363 59.214467 
L 157.623952 59.114661 
L 157.889924 59.010623 
L 158.154212 58.902377 
L 158.41675 58.789952 
L 158.67747 58.673376 
L 158.936308 58.552678 
L 159.193199 58.427888 
L 159.448077 58.299038 
L 159.700879 58.166161 
L 159.951541 58.029289 
L 160.2 57.888457 
L 160.446193 57.743701 
L 160.690058 57.595058 
L 160.931535 57.442564 
L 161.170561 57.286257 
L 161.407078 57.126178 
L 161.641024 56.962367 
L 161.872343 56.794865 
L 162.100974 56.623713 
L 162.326862 56.448956 
L 162.549948 56.270636 
L 162.770177 56.0888 
L 162.987493 55.903492 
L 163.201842 55.71476 
L 163.413169 55.522651 
L 163.621422 55.327213 
L 163.826548 55.128495 
L 164.028495 54.926548 
L 164.227213 54.721422 
L 164.422651 54.513169 
L 164.61476 54.301842 
L 164.803492 54.087493 
L 164.9888 53.870177 
L 165.170636 53.649948 
L 165.348956 53.426862 
L 165.523713 53.200974 
L 165.694865 52.972343 
L 165.862367 52.741024 
L 166.026178 52.507078 
L 166.186257 52.270561 
L 166.342564 52.031535 
L 166.495058 51.790058 
L 166.643701 51.546193 
L 166.788457 51.3 
L 166.929289 51.051541 
L 167.066161 50.800879 
L 167.199038 50.548077 
L 167.327888 50.293199 
L 167.452678 50.036308 
L 167.573376 49.77747 
L 167.689952 49.51675 
L 167.802377 49.254212 
L 167.910623 48.989924 
L 168.014661 48.723952 
L 168.114467 48.456363 
L 168.210015 48.187223 
L 168.30128 47.916602 
L 168.38824 47.644567 
L 168.470874 47.371186 
L 168.549159 47.096529 
L 168.623077 46.820664 
L 168.692608 46.543661 
L 168.757736 46.26559 
L 168.818444 45.98652 
L 168.874717 45.706522 
L 168.92654 45.425667 
L 168.9739 45.144025 
L 169.016786 44.861667 
L 169.055187 44.578664 
L 169.089092 44.295088 
L 169.118495 44.011009 
L 169.143386 43.726499 
L 169.16376 43.441631 
L 169.179612 43.156474 
L 169.190938 42.871103 
L 169.197734 42.585587 
L 169.2 42.3 
L 169.2 42.3 
L 169.197734 42.014413 
L 169.190938 41.728897 
L 169.179612 41.443526 
L 169.16376 41.158369 
L 169.143386 40.873501 
L 169.118495 40.588991 
L 169.089092 40.304912 
L 169.055187 40.021336 
L 169.016786 39.738333 
L 168.9739 39.455975 
L 168.92654 39.174333 
L 168.874717 38.893478 
L 168.818444 38.61348 
L 168.757736 38.33441 
L 168.692608 38.056339 
L 168.623077 37.779336 
L 168.549159 37.503471 
L 168.470874 37.228814 
L 168.38824 36.955433 
L 168.30128 36.683398 
L 168.210015 36.412777 
L 168.114467 36.143637 
L 168.014661 35.876048 
L 167.910623 35.610076 
L 167.802377 35.345788 
L 167.689952 35.08325 
L 167.573376 34.82253 
L 167.452678 34.563692 
L 167.327888 34.306801 
L 167.199038 34.051923 
L 167.066161 33.799121 
L 166.929289 33.548459 
L 166.788457 33.3 
L 166.643701 33.053807 
L 166.495058 32.809942 
L 166.342564 32.568465 
L 166.186257 32.329439 
L 166.026178 32.092922 
L 165.862367 31.858976 
L 165.694865 31.627657 
L 165.523713 31.399026 
L 165.348956 31.173138 
L 165.170636 30.950052 
L 164.9888 30.729823 
L 164.803492 30.512507 
L 164.61476 30.298158 
L 164.422651 30.086831 
L 164.227213 29.878578 
L 164.028495 29.673452 
L 163.826548 29.471505 
L 163.621422 29.272787 
L 163.413169 29.077349 
L 163.201842 28.88524 
L 162.987493 28.696508 
L 162.770177 28.5112 
L 162.549948 28.329364 
L 162.326862 28.151044 
L 162.100974 27.976287 
L 161.872343 27.805135 
L 161.641024 27.637633 
L 161.407078 27.473822 
L 161.170561 27.313743 
L 160.931535 27.157436 
L 160.690058 27.004942 
L 160.446193 26.856299 
L 160.2 26.711543 
L 159.951541 26.570711 
L 159.700879 26.433839 
L 159.448077 26.300962 
L 159.193199 26.172112 
L 158.936308 26.047322 
L 158.67747 25.926624 
L 158.41675 25.810048 
L 158.154212 25.697623 
L 157.889924 25.589377 
L 157.623952 25.485339 
L 157.356363 25.385533 
L 157.087223 25.289985 
L 156.816602 25.19872 
L 156.544567 25.11176 
L 156.271186 25.029126 
L 155.996529 24.950841 
L 155.720664 24.876923 
L 155.443661 24.807392 
L 155.16559 24.742264 
L 154.88652 24.681556 
L 154.606522 24.625283 
L 154.325667 24.57346 
L 154.044025 24.5261 
L 153.761667 24.483214 
L 153.478664 24.444813 
L 153.195088 24.410908 
L 152.911009 24.381505 
L 152.626499 24.356614 
L 152.341631 24.33624 
L 152.056474 24.320388 
L 151.771103 24.309062 
L 151.485587 24.302266 
L 151.2 24.3 
L 115.2 24.3 
L 114.914413 24.302266 
L 114.628897 24.309062 
L 114.343526 24.320388 
L 114.058369 24.33624 
L 113.773501 24.356614 
L 113.488991 24.381505 
L 113.204912 24.410908 
L 112.921336 24.444813 
L 112.638333 24.483214 
L 112.355975 24.5261 
L 112.074333 24.57346 
L 111.793478 24.625283 
L 111.51348 24.681556 
L 111.23441 24.742264 
L 110.956339 24.807392 
L 110.679336 24.876923 
L 110.403471 24.950841 
L 110.128814 25.029126 
L 109.855433 25.11176 
L 109.583398 25.19872 
L 109.312777 25.289985 
L 109.043637 25.385533 
L 108.776048 25.485339 
L 108.510076 25.589377 
L 108.245788 25.697623 
L 107.98325 25.810048 
L 107.72253 25.926624 
L 107.463692 26.047322 
L 107.206801 26.172112 
L 106.951923 26.300962 
L 106.699121 26.433839 
L 106.448459 26.570711 
L 106.2 26.711543 
L 105.953807 26.856299 
L 105.709942 27.004942 
L 105.468465 27.157436 
L 105.229439 27.313743 
L 104.992922 27.473822 
L 104.758976 27.637633 
L 104.527657 27.805135 
L 104.299026 27.976287 
L 104.073138 28.151044 
L 103.850052 28.329364 
L 103.629823 28.5112 
L 103.412507 28.696508 
L 103.198158 28.88524 
L 102.986831 29.077349 
L 102.778578 29.272787 
L 102.573452 29.471505 
L 102.371505 29.673452 
L 102.172787 29.878578 
L 101.977349 30.086831 
L 101.78524 30.298158 
L 101.596508 30.512507 
L 101.4112 30.729823 
L 101.229364 30.950052 
L 101.051044 31.173138 
L 100.876287 31.399026 
L 100.705135 31.627657 
L 100.537633 31.858976 
L 100.373822 32.092922 
L 100.213743 32.329439 
L 100.057436 32.568465 
L 99.904942 32.809942 
L 99.756299 33.053807 
L 99.611543 33.3 
L 99.470711 33.548459 
L 99.333839 33.799121 
L 99.200962 34.051923 
L 99.072112 34.306801 
L 98.947322 34.563692 
L 98.826624 34.82253 
L 98.710048 35.08325 
L 98.597623 35.345788 
L 98.489377 35.610076 
L 98.385339 35.876048 
L 98.285533 36.143637 
L 98.189985 36.412777 
L 98.09872 36.683398 
L 98.01176 36.955433 
L 97.929126 37.228814 
L 97.850841 37.503471 
L 97.776923 37.779336 
L 97.707392 38.056339 
L 97.642264 38.33441 
L 97.581556 38.61348 
L 97.525283 38.893478 
L 97.47346 39.174333 
L 97.4261 39.455975 
L 97.383214 39.738333 
L 97.344813 40.021336 
L 97.310908 40.304912 
L 97.281505 40.588991 
L 97.256614 40.873501 
L 97.23624 41.158369 
L 97.220388 41.443526 
L 97.209062 41.728897 
L 97.202266 42.014413 
L 97.2 42.3 
L 97.2 42.3 
L 97.202266 42.585587 
L 97.209062 42.871103 
L 97.220388 43.156474 
L 97.23624 43.441631 
L 97.256614 43.726499 
L 97.281505 44.011009 
L 97.310908 44.295088 
L 97.344813 44.578664 
L 97.383214 44.861667 
L 97.4261 45.144025 
L 97.47346 45.425667 
L 97.525283 45.706522 
L 97.581556 45.98652 
L 97.642264 46.26559 
L 97.707392 46.543661 
L 97.776923 46.820664 
L 97.850841 47.096529 
L 97.929126 47.371186 
L 98.01176 47.644567 
L 98.09872 47.916602 
L 98.189985 48.187223 
L 98.285533 48.456363 
L 98.385339 48.723952 
L 98.489377 48.989924 
L 98.597623 49.254212 
L 98.710048 49.51675 
L 98.826624 49.77747 
L 98.947322 50.036308 
L 99.072112 50.293199 
L 99.200962 50.548077 
L 99.333839 50.800879 
L 99.470711 51.051541 
L 99.611543 51.3 
L 99.756299 51.546193 
L 99.904942 51.790058 
L 100.057436 52.031535 
L 100.213743 52.270561 
L 100.373822 52.507078 
L 100.537633 52.741024 
L 100.705135 52.972343 
L 100.876287 53.200974 
L 101.051044 53.426862 
L 101.229364 53.649948 
L 101.4112 53.870177 
L 101.596508 54.087493 
L 101.78524 54.301842 
L 101.977349 54.513169 
L 102.172787 54.721422 
L 102.371505 54.926548 
L 102.573452 55.128495 
L 102.778578 55.327213 
L 102.986831 55.522651 
L 103.198158 55.71476 
L 103.412507 55.903492 
L 103.629823 56.0888 
L 103.850052 56.270636 
L 104.073138 56.448956 
L 104.299026 56.623713 
L 104.527657 56.794865 
L 104.758976 56.962367 
L 104.992922 57.126178 
L 105.229439 57.286257 
L 105.468465 57.442564 
L 105.709942 57.595058 
L 105.953807 57.743701 
L 106.2 57.888457 
L 106.448459 58.029289 
L 106.699121 58.166161 
L 106.951923 58.299038 
L 107.206801 58.427888 
L 107.463692 58.552678 
L 107.72253 58.673376 
L 107.98325 58.789952 
L 108.245788 58.902377 
L 108.510076 59.010623 
L 108.776048 59.114661 
L 109.043637 59.214467 
L 109.312777 59.310015 
L 109.583398 59.40128 
L 109.855433 59.48824 
L 110.128814 59.570874 
L 110.403471 59.649159 
L 110.679336 59.723077 
L 110.956339 59.792608 
L 111.23441 59.857736 
L 111.51348 59.918444 
L 111.793478 59.974717 
L 112.074333 60.02654 
L 112.355975 60.0739 
L 112.638333 60.116786 
L 112.921336 60.155187 
L 113.204912 60.189092 
L 113.488991 60.218495 
L 113.773501 60.243386 
L 114.058369 60.26376 
L 114.343526 60.279612 
L 114.628897 60.290938 
L 114.914413 60.297734 
L 115.2 60.3 
L 151.2 60.3 
z
" clip-path="url(#pa92e4c29e7)" style="fill: none; stroke: #000000; stroke-linecap: round"/>
   </g>
   <g id="patch_3">
    <path d="M 70.2 177.3 
L 133.2 150.3 
L 196.2 177.3 
L 133.2 204.3 
L 70.2 177.3 
z
" clip-path="url(#pa92e4c29e7)" style="fill: none; stroke: #000000; stroke-linecap: round"/>
   </g>
   <g id="patch_4">
    <path d="M 304.2 195.3 
L 304.485587 195.297734 
L 304.771103 195.290938 
L 305.056474 195.279612 
L 305.341631 195.26376 
L 305.626499 195.243386 
L 305.911009 195.218495 
L 306.195088 195.189092 
L 306.478664 195.155187 
L 306.761667 195.116786 
L 307.044025 195.0739 
L 307.325667 195.02654 
L 307.606522 194.974717 
L 307.88652 194.918444 
L 308.16559 194.857736 
L 308.443661 194.792608 
L 308.720664 194.723077 
L 308.996529 194.649159 
L 309.271186 194.570874 
L 309.544567 194.48824 
L 309.816602 194.40128 
L 310.087223 194.310015 
L 310.356363 194.214467 
L 310.623952 194.114661 
L 310.889924 194.010623 
L 311.154212 193.902377 
L 311.41675 193.789952 
L 311.67747 193.673376 
L 311.936308 193.552678 
L 312.193199 193.427888 
L 312.448077 193.299038 
L 312.700879 193.166161 
L 312.951541 193.029289 
L 313.2 192.888457 
L 313.446193 192.743701 
L 313.690058 192.595058 
L 313.931535 192.442564 
L 314.170561 192.286257 
L 314.407078 192.126178 
L 314.641024 191.962367 
L 314.872343 191.794865 
L 315.100974 191.623713 
L 315.326862 191.448956 
L 315.549948 191.270636 
L 315.770177 191.0888 
L 315.987493 190.903492 
L 316.201842 190.71476 
L 316.413169 190.522651 
L 316.621422 190.327213 
L 316.826548 190.128495 
L 317.028495 189.926548 
L 317.227213 189.721422 
L 317.422651 189.513169 
L 317.61476 189.301842 
L 317.803492 189.087493 
L 317.9888 188.870177 
L 318.170636 188.649948 
L 318.348956 188.426862 
L 318.523713 188.200974 
L 318.694865 187.972343 
L 318.862367 187.741024 
L 319.026178 187.507078 
L 319.186257 187.270561 
L 319.342564 187.031535 
L 319.495058 186.790058 
L 319.643701 186.546193 
L 319.788457 186.3 
L 319.929289 186.051541 
L 320.066161 185.800879 
L 320.199038 185.548077 
L 320.327888 185.293199 
L 320.452678 185.036308 
L 320.573376 184.77747 
L 320.689952 184.51675 
L 320.802377 184.254212 
L 320.910623 183.989924 
L 321.014661 183.723952 
L 321.114467 183.456363 
L 321.210015 183.187223 
L 321.30128 182.916602 
L 321.38824 182.644567 
L 321.470874 182.371186 
L 321.549159 182.096529 
L 321.623077 181.820664 
L 321.692608 181.543661 
L 321.757736 181.26559 
L 321.818444 180.98652 
L 321.874717 180.706522 
L 321.92654 180.425667 
L 321.9739 180.144025 
L 322.016786 179.861667 
L 322.055187 179.578664 
L 322.089092 179.295088 
L 322.118495 179.011009 
L 322.143386 178.726499 
L 322.16376 178.441631 
L 322.179612 178.156474 
L 322.190938 177.871103 
L 322.197734 177.585587 
L 322.2 177.3 
L 322.2 177.3 
L 322.197734 177.014413 
L 322.190938 176.728897 
L 322.179612 176.443526 
L 322.16376 176.158369 
L 322.143386 175.873501 
L 322.118495 175.588991 
L 322.089092 175.304912 
L 322.055187 175.021336 
L 322.016786 174.738333 
L 321.9739 174.455975 
L 321.92654 174.174333 
L 321.874717 173.893478 
L 321.818444 173.61348 
L 321.757736 173.33441 
L 321.692608 173.056339 
L 321.623077 172.779336 
L 321.549159 172.503471 
L 321.470874 172.228814 
L 321.38824 171.955433 
L 321.30128 171.683398 
L 321.210015 171.412777 
L 321.114467 171.143637 
L 321.014661 170.876048 
L 320.910623 170.610076 
L 320.802377 170.345788 
L 320.689952 170.08325 
L 320.573376 169.82253 
L 320.452678 169.563692 
L 320.327888 169.306801 
L 320.199038 169.051923 
L 320.066161 168.799121 
L 319.929289 168.548459 
L 319.788457 168.3 
L 319.643701 168.053807 
L 319.495058 167.809942 
L 319.342564 167.568465 
L 319.186257 167.329439 
L 319.026178 167.092922 
L 318.862367 166.858976 
L 318.694865 166.627657 
L 318.523713 166.399026 
L 318.348956 166.173138 
L 318.170636 165.950052 
L 317.9888 165.729823 
L 317.803492 165.512507 
L 317.61476 165.298158 
L 317.422651 165.086831 
L 317.227213 164.878578 
L 317.028495 164.673452 
L 316.826548 164.471505 
L 316.621422 164.272787 
L 316.413169 164.077349 
L 316.201842 163.88524 
L 315.987493 163.696508 
L 315.770177 163.5112 
L 315.549948 163.329364 
L 315.326862 163.151044 
L 315.100974 162.976287 
L 314.872343 162.805135 
L 314.641024 162.637633 
L 314.407078 162.473822 
L 314.170561 162.313743 
L 313.931535 162.157436 
L 313.690058 162.004942 
L 313.446193 161.856299 
L 313.2 161.711543 
L 312.951541 161.570711 
L 312.700879 161.433839 
L 312.448077 161.300962 
L 312.193199 161.172112 
L 311.936308 161.047322 
L 311.67747 160.926624 
L 311.41675 160.810048 
L 311.154212 160.697623 
L 310.889924 160.589377 
L 310.623952 160.485339 
L 310.356363 160.385533 
L 310.087223 160.289985 
L 309.816602 160.19872 
L 309.544567 160.11176 
L 309.271186 160.029126 
L 308.996529 159.950841 
L 308.720664 159.876923 
L 308.443661 159.807392 
L 308.16559 159.742264 
L 307.88652 159.681556 
L 307.606522 159.625283 
L 307.325667 159.57346 
L 307.044025 159.5261 
L 306.761667 159.483214 
L 306.478664 159.444813 
L 306.195088 159.410908 
L 305.911009 159.381505 
L 305.626499 159.356614 
L 305.341631 159.33624 
L 305.056474 159.320388 
L 304.771103 159.309062 
L 304.485587 159.302266 
L 304.2 159.3 
L 268.2 159.3 
L 267.914413 159.302266 
L 267.628897 159.309062 
L 267.343526 159.320388 
L 267.058369 159.33624 
L 266.773501 159.356614 
L 266.488991 159.381505 
L 266.204912 159.410908 
L 265.921336 159.444813 
L 265.638333 159.483214 
L 265.355975 159.5261 
L 265.074333 159.57346 
L 264.793478 159.625283 
L 264.51348 159.681556 
L 264.23441 159.742264 
L 263.956339 159.807392 
L 263.679336 159.876923 
L 263.403471 159.950841 
L 263.128814 160.029126 
L 262.855433 160.11176 
L 262.583398 160.19872 
L 262.312777 160.289985 
L 262.043637 160.385533 
L 261.776048 160.485339 
L 261.510076 160.589377 
L 261.245788 160.697623 
L 260.98325 160.810048 
L 260.72253 160.926624 
L 260.463692 161.047322 
L 260.206801 161.172112 
L 259.951923 161.300962 
L 259.699121 161.433839 
L 259.448459 161.570711 
L 259.2 161.711543 
L 258.953807 161.856299 
L 258.709942 162.004942 
L 258.468465 162.157436 
L 258.229439 162.313743 
L 257.992922 162.473822 
L 257.758976 162.637633 
L 257.527657 162.805135 
L 257.299026 162.976287 
L 257.073138 163.151044 
L 256.850052 163.329364 
L 256.629823 163.5112 
L 256.412507 163.696508 
L 256.198158 163.88524 
L 255.986831 164.077349 
L 255.778578 164.272787 
L 255.573452 164.471505 
L 255.371505 164.673452 
L 255.172787 164.878578 
L 254.977349 165.086831 
L 254.78524 165.298158 
L 254.596508 165.512507 
L 254.4112 165.729823 
L 254.229364 165.950052 
L 254.051044 166.173138 
L 253.876287 166.399026 
L 253.705135 166.627657 
L 253.537633 166.858976 
L 253.373822 167.092922 
L 253.213743 167.329439 
L 253.057436 167.568465 
L 252.904942 167.809942 
L 252.756299 168.053807 
L 252.611543 168.3 
L 252.470711 168.548459 
L 252.333839 168.799121 
L 252.200962 169.051923 
L 252.072112 169.306801 
L 251.947322 169.563692 
L 251.826624 169.82253 
L 251.710048 170.08325 
L 251.597623 170.345788 
L 251.489377 170.610076 
L 251.385339 170.876048 
L 251.285533 171.143637 
L 251.189985 171.412777 
L 251.09872 171.683398 
L 251.01176 171.955433 
L 250.929126 172.228814 
L 250.850841 172.503471 
L 250.776923 172.779336 
L 250.707392 173.056339 
L 250.642264 173.33441 
L 250.581556 173.61348 
L 250.525283 173.893478 
L 250.47346 174.174333 
L 250.4261 174.455975 
L 250.383214 174.738333 
L 250.344813 175.021336 
L 250.310908 175.304912 
L 250.281505 175.588991 
L 250.256614 175.873501 
L 250.23624 176.158369 
L 250.220388 176.443526 
L 250.209062 176.728897 
L 250.202266 177.014413 
L 250.2 177.3 
L 250.2 177.3 
L 250.202266 177.585587 
L 250.209062 177.871103 
L 250.220388 178.156474 
L 250.23624 178.441631 
L 250.256614 178.726499 
L 250.281505 179.011009 
L 250.310908 179.295088 
L 250.344813 179.578664 
L 250.383214 179.861667 
L 250.4261 180.144025 
L 250.47346 180.425667 
L 250.525283 180.706522 
L 250.581556 180.98652 
L 250.642264 181.26559 
L 250.707392 181.543661 
L 250.776923 181.820664 
L 250.850841 182.096529 
L 250.929126 182.371186 
L 251.01176 182.644567 
L 251.09872 182.916602 
L 251.189985 183.187223 
L 251.285533 183.456363 
L 251.385339 183.723952 
L 251.489377 183.989924 
L 251.597623 184.254212 
L 251.710048 184.51675 
L 251.826624 184.77747 
L 251.947322 185.036308 
L 252.072112 185.293199 
L 252.200962 185.548077 
L 252.333839 185.800879 
L 252.470711 186.051541 
L 252.611543 186.3 
L 252.756299 186.546193 
L 252.904942 186.790058 
L 253.057436 187.031535 
L 253.213743 187.270561 
L 253.373822 187.507078 
L 253.537633 187.741024 
L 253.705135 187.972343 
L 253.876287 188.200974 
L 254.051044 188.426862 
L 254.229364 188.649948 
L 254.4112 188.870177 
L 254.596508 189.087493 
L 254.78524 189.301842 
L 254.977349 189.513169 
L 255.172787 189.721422 
L 255.371505 189.926548 
L 255.573452 190.128495 
L 255.778578 190.327213 
L 255.986831 190.522651 
L 256.198158 190.71476 
L 256.412507 190.903492 
L 256.629823 191.0888 
L 256.850052 191.270636 
L 257.073138 191.448956 
L 257.299026 191.623713 
L 257.527657 191.794865 
L 257.758976 191.962367 
L 257.992922 192.126178 
L 258.229439 192.286257 
L 258.468465 192.442564 
L 258.709942 192.595058 
L 258.953807 192.743701 
L 259.2 192.888457 
L 259.448459 193.029289 
L 259.699121 193.166161 
L 259.951923 193.299038 
L 260.206801 193.427888 
L 260.463692 193.552678 
L 260.72253 193.673376 
L 260.98325 193.789952 
L 261.245788 193.902377 
L 261.510076 194.010623 
L 261.776048 194.114661 
L 262.043637 194.214467 
L 262.312777 194.310015 
L 262.583398 194.40128 
L 262.855433 194.48824 
L 263.128814 194.570874 
L 263.403471 194.649159 
L 263.679336 194.723077 
L 263.956339 194.792608 
L 264.23441 194.857736 
L 264.51348 194.918444 
L 264.793478 194.974717 
L 265.074333 195.02654 
L 265.355975 195.0739 
L 265.638333 195.116786 
L 265.921336 195.155187 
L 266.204912 195.189092 
L 266.488991 195.218495 
L 266.773501 195.243386 
L 267.058369 195.26376 
L 267.343526 195.279612 
L 267.628897 195.290938 
L 267.914413 195.297734 
L 268.2 195.3 
L 304.2 195.3 
z
" clip-path="url(#pa92e4c29e7)" style="fill: none; stroke: #000000; stroke-linecap: round"/>
   </g>
   <g id="patch_5">
    <path d="M 70.2 339.3 
L 133.2 312.3 
L 196.2 339.3 
L 133.2 366.3 
L 70.2 339.3 
z
" clip-path="url(#pa92e4c29e7)" style="fill: none; stroke: #000000; stroke-linecap: round"/>
   </g>
   <g id="line2d_1">
    <path d="M 133.2 60.3 
L 133.2 73.8 
L 133.2 78.3 
" clip-path="url(#pa92e4c29e7)" style="fill: none; stroke: #000000; stroke-linecap: round"/>
   </g>
   <g id="patch_6">
    <path d="M 135.9 78.3 
L 133.2 87.3 
L 130.5 78.3 
z
" clip-path="url(#pa92e4c29e7)"/>
   </g>
   <g id="line2d_2">
    <path d="M 93.6 105.3 
L 93.6 87.3 
L 172.8 87.3 
L 172.8 123.3 
L 93.6 123.3 
L 93.6 105.3 
" clip-path="url(#pa92e4c29e7)" style="fill: none; stroke: #000000; stroke-linecap: round"/>
   </g>
   <g id="line2d_3">
    <path d="M 133.2 123.3 
L 133.2 136.8 
L 133.2 141.3 
" clip-path="url(#pa92e4c29e7)" style="fill: none; stroke: #000000; stroke-linecap: round"/>
   </g>
   <g id="patch_7">
    <path d="M 135.9 141.3 
L 133.2 150.3 
L 130.5 141.3 
z
" clip-path="url(#pa92e4c29e7)"/>
   </g>
   <g id="line2d_4">
    <path d="M 196.2 177.3 
L 223.2 177.3 
L 241.2 177.3 
" clip-path="url(#pa92e4c29e7)" style="fill: none; stroke: #000000; stroke-linecap: round"/>
   </g>
   <g id="patch_8">
    <path d="M 241.2 174.6 
L 250.2 177.3 
L 241.2 180 
z
" clip-path="url(#pa92e4c29e7)"/>
   </g>
   <g id="line2d_5">
    <path d="M 133.2 204.3 
L 133.2 222.3 
L 133.2 231.3 
" clip-path="url(#pa92e4c29e7)" style="fill: none; stroke: #000000; stroke-linecap: round"/>
   </g>
   <g id="patch_9">
    <path d="M 135.9 231.3 
L 133.2 240.3 
L 130.5 231.3 
z
" clip-path="url(#pa92e4c29e7)"/>
   </g>
   <g id="line2d_6">
    <path d="M 79.2 258.3 
L 79.2 240.3 
L 187.2 240.3 
L 187.2 276.3 
L 79.2 276.3 
L 79.2 258.3 
" clip-path="url(#pa92e4c29e7)" style="fill: none; stroke: #000000; stroke-linecap: round"/>
   </g>
   <g id="line2d_7">
    <path d="M 133.2 276.3 
L 133.2 294.3 
L 133.2 303.3 
" clip-path="url(#pa92e4c29e7)" style="fill: none; stroke: #000000; stroke-linecap: round"/>
   </g>
   <g id="patch_10">
    <path d="M 135.9 303.3 
L 133.2 312.3 
L 130.5 303.3 
z
" clip-path="url(#pa92e4c29e7)"/>
   </g>
   <g id="line2d_8">
    <path d="M 70.2 339.3 
L 44.485714 339.3 
L 27.771429 339.3 
" clip-path="url(#pa92e4c29e7)" style="fill: none; stroke: #000000; stroke-linecap: round"/>
   </g>
   <g id="patch_11">
    <path d="M 27.771429 342 
L 18.771429 339.3 
L 27.771429 336.6 
z
" clip-path="url(#pa92e4c29e7)"/>
   </g>
   <g id="line2d_9">
    <path d="M 133.2 366.3 
L 133.2 384.3 
L 133.2 393.3 
" clip-path="url(#pa92e4c29e7)" style="fill: none; stroke: #000000; stroke-linecap: round"/>
   </g>
   <g id="patch_12">
    <path d="M 135.9 393.3 
L 133.2 402.3 
L 130.5 393.3 
z
" clip-path="url(#pa92e4c29e7)"/>
   </g>
   <g id="line2d_10">
    <path d="M 73.8 420.3 
L 73.8 402.3 
L 192.6 402.3 
L 192.6 438.3 
L 73.8 438.3 
L 73.8 420.3 
" clip-path="url(#pa92e4c29e7)" style="fill: none; stroke: #000000; stroke-linecap: round"/>
   </g>
   <g id="line2d_11">
    <path d="M 73.8 420.3 
L 19.8 420.3 
L 19.8 177.3 
L 61.2 177.3 
" clip-path="url(#pa92e4c29e7)" style="fill: none; stroke: #000000; stroke-linecap: round"/>
   </g>
   <g id="patch_13">
    <path d="M 61.2 174.6 
L 70.2 177.3 
L 61.2 180 
z
" clip-path="url(#pa92e4c29e7)"/>
   </g>
   <g id="text_1">
    <!-- START -->
    <g transform="translate(114.023242 45.794141) scale(0.125 -0.125)">
     <defs>
      <path id="IPAexGothic-53" d="M 2919 3641 
Q 2563 4259 1853 4259 
Q 1453 4259 1213 4009 
Q 1028 3803 1028 3534 
Q 1028 3238 1266 3047 
Q 1444 2913 1984 2688 
L 2200 2597 
Q 2925 2306 3191 1953 
Q 3422 1644 3422 1259 
Q 3422 644 2969 288 
Q 2559 -31 1931 -31 
Q 881 -31 313 766 
L 753 1100 
Q 1203 459 1938 459 
Q 2288 459 2534 625 
Q 2841 847 2841 1216 
Q 2841 1503 2616 1728 
Q 2375 1959 1728 2206 
L 1541 2278 
Q 453 2694 453 3481 
Q 453 4006 806 4347 
Q 1203 4725 1863 4725 
Q 2841 4725 3359 3956 
L 2919 3641 
z
" transform="scale(0.015625)"/>
      <path id="IPAexGothic-54" d="M 3866 4141 
L 2175 4141 
L 2175 63 
L 1606 63 
L 1606 4141 
L -31 4141 
L -31 4634 
L 3866 4634 
L 3866 4141 
z
" transform="scale(0.015625)"/>
      <path id="IPAexGothic-41" d="M 4056 63 
L 3444 63 
L 2938 1409 
L 1100 1409 
L 603 63 
L -6 63 
L 1806 4666 
L 2259 4666 
L 4056 63 
z
M 2778 1863 
L 2316 3078 
Q 2125 3588 2028 4000 
L 2009 4000 
Q 1897 3563 1716 3078 
L 1263 1863 
L 2778 1863 
z
" transform="scale(0.015625)"/>
      <path id="IPAexGothic-52" d="M 4072 63 
L 3394 63 
Q 3138 641 2828 1197 
Q 2584 1641 2344 1825 
Q 2050 2044 1625 2044 
L 1172 2044 
L 1172 63 
L 609 63 
L 609 4634 
L 2009 4634 
Q 2713 4634 3131 4378 
Q 3688 4044 3688 3381 
Q 3688 2784 3181 2459 
Q 2906 2272 2522 2216 
L 2522 2197 
Q 2941 2050 3247 1581 
Q 3516 1166 4072 63 
z
M 1172 2478 
L 1869 2478 
Q 3106 2478 3106 3369 
Q 3106 4181 1928 4181 
L 1172 4181 
L 1172 2478 
z
" transform="scale(0.015625)"/>
     </defs>
     <use xlink:href="#IPAexGothic-53"/>
     <use xlink:href="#IPAexGothic-54" x="58.496094"/>
     <use xlink:href="#IPAexGothic-41" x="118.408203"/>
     <use xlink:href="#IPAexGothic-52" x="182.128906"/>
     <use xlink:href="#IPAexGothic-54" x="246.923828"/>
    </g>
   </g>
   <g id="text_2">
    <!-- counter = 0 -->
    <g transform="translate(98.89043 108.794141) scale(0.125 -0.125)">
     <defs>
      <path id="IPAexGothic-63" d="M 3269 784 
Q 2834 -31 1900 -31 
Q 1228 -31 788 409 
Q 313 891 313 1663 
Q 313 2428 788 2913 
Q 1222 3347 1881 3347 
Q 2813 3347 3206 2541 
L 2763 2309 
Q 2484 2900 1900 2900 
Q 1516 2900 1234 2619 
Q 881 2266 881 1650 
Q 881 1069 1222 728 
Q 1522 428 1956 428 
Q 2547 428 2847 1016 
L 3269 784 
z
" transform="scale(0.015625)"/>
      <path id="IPAexGothic-6f" d="M 1919 3341 
Q 2594 3341 3056 2888 
Q 3531 2413 3531 1638 
Q 3531 888 3066 422 
Q 2609 -31 1919 -31 
Q 1228 -31 781 416 
Q 313 881 313 1656 
Q 313 2413 788 2888 
Q 1241 3341 1919 3341 
z
M 1919 2919 
Q 1519 2919 1241 2631 
Q 888 2278 888 1650 
Q 888 1031 1234 684 
Q 1516 403 1919 403 
Q 2331 403 2609 691 
Q 2956 1038 2956 1672 
Q 2956 2269 2603 2631 
Q 2316 2919 1919 2919 
z
" transform="scale(0.015625)"/>
      <path id="IPAexGothic-75" d="M 3284 63 
L 2772 63 
L 2772 644 
Q 2300 0 1625 0 
Q 1072 0 763 375 
Q 519 678 519 1241 
L 519 3250 
L 1069 3250 
L 1069 1259 
Q 1069 466 1734 466 
Q 2406 466 2734 1291 
L 2734 3250 
L 3284 3250 
L 3284 63 
z
" transform="scale(0.015625)"/>
      <path id="IPAexGothic-6e" d="M 3328 63 
L 2778 63 
L 2778 2041 
Q 2778 2853 2106 2853 
Q 1428 2853 1113 2041 
L 1113 63 
L 563 63 
L 563 3250 
L 1075 3250 
L 1075 2675 
Q 1525 3316 2222 3316 
Q 3328 3316 3328 2072 
L 3328 63 
z
" transform="scale(0.015625)"/>
      <path id="IPAexGothic-74" d="M 2125 241 
Q 1769 -6 1397 -6 
Q 653 -6 653 831 
L 653 2859 
L 219 2859 
L 219 3250 
L 653 3250 
L 653 3966 
L 1178 4228 
L 1178 3250 
L 2063 3250 
L 2063 2859 
L 1178 2859 
L 1178 906 
Q 1178 416 1513 416 
Q 1738 416 1941 588 
L 2125 241 
z
" transform="scale(0.015625)"/>
      <path id="IPAexGothic-65" d="M 863 1594 
Q 891 1041 1209 722 
Q 1534 397 1997 397 
Q 2606 397 2963 966 
L 3322 728 
Q 2869 -31 1931 -31 
Q 1222 -31 766 422 
Q 306 884 306 1641 
Q 306 2444 788 2925 
Q 1216 3353 1856 3353 
Q 2459 3353 2866 2956 
Q 3322 2494 3322 1722 
L 3322 1594 
L 863 1594 
z
M 2756 1997 
Q 2709 2431 2450 2681 
Q 2194 2938 1844 2938 
Q 1438 2938 1150 2591 
Q 953 2356 894 1997 
L 2756 1997 
z
" transform="scale(0.015625)"/>
      <path id="IPAexGothic-72" d="M 2309 3316 
L 2213 2769 
Q 2106 2791 2022 2791 
Q 1653 2791 1413 2444 
Q 1113 2006 1113 1675 
L 1113 63 
L 563 63 
L 563 3250 
L 1081 3250 
L 1056 2303 
L 1069 2303 
Q 1422 3341 2097 3341 
Q 2206 3341 2309 3316 
z
" transform="scale(0.015625)"/>
      <path id="IPAexGothic-20" transform="scale(0.015625)"/>
      <path id="IPAexGothic-3d" d="M 416 2803 
L 3922 2803 
L 3922 2438 
L 416 2438 
L 416 2803 
z
M 416 1625 
L 3922 1625 
L 3922 1259 
L 416 1259 
L 416 1625 
z
" transform="scale(0.015625)"/>
      <path id="IPAexGothic-30" d="M 2038 4725 
Q 2881 4725 3334 3944 
Q 3694 3325 3694 2344 
Q 3694 1372 3334 741 
Q 2888 -31 2016 -31 
Q 1147 -31 700 741 
Q 341 1372 341 2350 
Q 341 3713 1000 4334 
Q 1419 4725 2038 4725 
z
M 2016 4266 
Q 1516 4266 1228 3759 
Q 934 3247 934 2344 
Q 934 1456 1222 947 
Q 1513 447 2016 447 
Q 2619 447 2909 1153 
Q 3100 1622 3100 2375 
Q 3100 3256 2806 3759 
Q 2509 4266 2016 4266 
z
" transform="scale(0.015625)"/>
     </defs>
     <use xlink:href="#IPAexGothic-63"/>
     <use xlink:href="#IPAexGothic-6f" x="54.394531"/>
     <use xlink:href="#IPAexGothic-75" x="114.794922"/>
     <use xlink:href="#IPAexGothic-6e" x="175.195312"/>
     <use xlink:href="#IPAexGothic-74" x="235.595703"/>
     <use xlink:href="#IPAexGothic-65" x="270.214844"/>
     <use xlink:href="#IPAexGothic-72" x="327.099609"/>
     <use xlink:href="#IPAexGothic-20" x="364.111328"/>
     <use xlink:href="#IPAexGothic-3d" x="391.113281"/>
     <use xlink:href="#IPAexGothic-20" x="458.935547"/>
     <use xlink:href="#IPAexGothic-30" x="485.9375"/>
    </g>
   </g>
   <g id="text_3">
    <!-- True -->
    <g transform="translate(137.88 218.343281) scale(0.125 -0.125)">
     <use xlink:href="#IPAexGothic-54"/>
     <use xlink:href="#IPAexGothic-72" x="59.912109"/>
     <use xlink:href="#IPAexGothic-75" x="96.923828"/>
     <use xlink:href="#IPAexGothic-65" x="157.324219"/>
    </g>
   </g>
   <g id="text_4">
    <!-- False -->
    <g transform="translate(200.88 170.245) scale(0.125 -0.125)">
     <defs>
      <path id="IPAexGothic-46" d="M 3469 4141 
L 1172 4141 
L 1172 2656 
L 3206 2656 
L 3206 2188 
L 1172 2188 
L 1172 63 
L 609 63 
L 609 4634 
L 3469 4634 
L 3469 4141 
z
" transform="scale(0.015625)"/>
      <path id="IPAexGothic-61" d="M 3156 63 
L 2672 63 
Q 2559 303 2531 556 
L 2509 556 
Q 2147 -25 1428 -25 
Q 934 -25 622 288 
Q 347 563 347 959 
Q 347 1947 2050 1997 
L 2478 2009 
L 2478 2175 
Q 2478 2509 2288 2700 
Q 2088 2900 1775 2900 
Q 1238 2900 969 2378 
L 494 2597 
Q 938 3328 1788 3328 
Q 2375 3328 2691 3000 
Q 2984 2706 2984 2169 
L 2984 997 
Q 2984 400 3156 63 
z
M 2491 1625 
L 2141 1619 
Q 903 1591 903 953 
Q 903 728 1050 581 
Q 1231 403 1525 403 
Q 1934 403 2234 703 
Q 2491 969 2491 1344 
L 2491 1625 
z
" transform="scale(0.015625)"/>
      <path id="IPAexGothic-6c" d="M 1131 63 
L 581 63 
L 581 4794 
L 1131 4794 
L 1131 63 
z
" transform="scale(0.015625)"/>
      <path id="IPAexGothic-73" d="M 2234 2547 
Q 1938 2931 1484 2931 
Q 891 2931 891 2475 
Q 891 2153 1531 1944 
L 1741 1875 
Q 2650 1578 2650 894 
Q 2650 434 2272 172 
Q 1972 -31 1497 -31 
Q 766 -31 256 503 
L 603 819 
Q 997 397 1516 397 
Q 2131 397 2131 875 
Q 2131 1238 1453 1478 
L 1234 1553 
Q 378 1853 378 2431 
Q 378 2797 628 3047 
Q 928 3347 1453 3347 
Q 2156 3347 2606 2859 
L 2234 2547 
z
" transform="scale(0.015625)"/>
     </defs>
     <use xlink:href="#IPAexGothic-46"/>
     <use xlink:href="#IPAexGothic-61" x="57.177734"/>
     <use xlink:href="#IPAexGothic-6c" x="112.158203"/>
     <use xlink:href="#IPAexGothic-73" x="139.160156"/>
     <use xlink:href="#IPAexGothic-65" x="185.351562"/>
    </g>
   </g>
   <g id="text_5">
    <!-- counter &lt; 5 ？ -->
    <g transform="translate(90.95293 180.794141) scale(0.125 -0.125)">
     <defs>
      <path id="IPAexGothic-3c" d="M 897 2028 
L 3928 609 
L 3769 263 
L 409 1881 
L 409 2175 
L 3769 3794 
L 3928 3450 
L 897 2028 
z
" transform="scale(0.015625)"/>
      <path id="IPAexGothic-35" d="M 1178 2603 
Q 1634 2963 2172 2963 
Q 2816 2963 3241 2528 
Q 3638 2113 3638 1497 
Q 3638 938 3297 513 
Q 2869 -31 2031 -31 
Q 959 -31 469 784 
L 938 1028 
Q 1309 434 2013 434 
Q 2466 434 2769 716 
Q 3081 1013 3081 1503 
Q 3081 1966 2806 2241 
Q 2519 2528 2056 2528 
Q 1406 2528 1072 2028 
L 591 2091 
L 884 4634 
L 3406 4634 
L 3406 4153 
L 1341 4153 
L 1134 2603 
L 1178 2603 
z
" transform="scale(0.015625)"/>
      <path id="IPAexGothic-ff1f" d="M 1503 3444 
Q 1550 4184 1963 4616 
Q 2466 5128 3272 5128 
Q 3888 5128 4313 4853 
Q 4909 4469 4909 3778 
Q 4909 3059 4116 2563 
Q 3628 2250 3506 1881 
Q 3422 1650 3422 1228 
L 2853 1228 
Q 2863 1869 3053 2197 
Q 3281 2588 3847 2950 
Q 4341 3269 4341 3778 
Q 4341 4231 3975 4463 
Q 3697 4634 3266 4634 
Q 2656 4634 2341 4225 
Q 2109 3928 2091 3444 
L 1503 3444 
z
M 2763 647 
L 3506 647 
L 3506 -97 
L 2763 -97 
L 2763 647 
z
" transform="scale(0.015625)"/>
     </defs>
     <use xlink:href="#IPAexGothic-63"/>
     <use xlink:href="#IPAexGothic-6f" x="54.394531"/>
     <use xlink:href="#IPAexGothic-75" x="114.794922"/>
     <use xlink:href="#IPAexGothic-6e" x="175.195312"/>
     <use xlink:href="#IPAexGothic-74" x="235.595703"/>
     <use xlink:href="#IPAexGothic-65" x="270.214844"/>
     <use xlink:href="#IPAexGothic-72" x="327.099609"/>
     <use xlink:href="#IPAexGothic-20" x="364.111328"/>
     <use xlink:href="#IPAexGothic-3c" x="391.113281"/>
     <use xlink:href="#IPAexGothic-20" x="458.935547"/>
     <use xlink:href="#IPAexGothic-35" x="485.9375"/>
     <use xlink:href="#IPAexGothic-20" x="548.925781"/>
     <use xlink:href="#IPAexGothic-ff1f" x="575.927734"/>
    </g>
   </g>
   <g id="text_6">
    <!-- END -->
    <g transform="translate(273.000781 180.794141) scale(0.125 -0.125)">
     <defs>
      <path id="IPAexGothic-45" d="M 3547 63 
L 609 63 
L 609 4634 
L 3469 4634 
L 3469 4147 
L 1166 4147 
L 1166 2650 
L 3206 2650 
L 3206 2191 
L 1166 2191 
L 1166 556 
L 3547 556 
L 3547 63 
z
" transform="scale(0.015625)"/>
      <path id="IPAexGothic-4e" d="M 4244 63 
L 3731 63 
L 1697 3150 
Q 1466 3500 1141 4097 
L 1116 4097 
L 1128 3797 
Q 1159 2803 1159 2469 
L 1159 63 
L 609 63 
L 609 4634 
L 1366 4634 
L 3113 1978 
Q 3453 1447 3713 966 
L 3738 966 
Q 3694 1897 3694 2469 
L 3694 4634 
L 4244 4634 
L 4244 63 
z
" transform="scale(0.015625)"/>
      <path id="IPAexGothic-44" d="M 609 4634 
L 1984 4634 
Q 3159 4634 3791 4050 
Q 4456 3444 4456 2356 
Q 4456 1047 3516 441 
Q 2925 63 1941 63 
L 609 63 
L 609 4634 
z
M 1172 556 
L 1894 556 
Q 3853 556 3853 2356 
Q 3853 4147 1928 4147 
L 1172 4147 
L 1172 556 
z
" transform="scale(0.015625)"/>
     </defs>
     <use xlink:href="#IPAexGothic-45"/>
     <use xlink:href="#IPAexGothic-4e" x="59.521484"/>
     <use xlink:href="#IPAexGothic-44" x="135.498047"/>
    </g>
   </g>
   <g id="text_7">
    <!-- counter += 1 -->
    <g transform="translate(94.651172 261.794141) scale(0.125 -0.125)">
     <defs>
      <path id="IPAexGothic-2b" d="M 2369 1856 
L 2369 219 
L 1984 219 
L 1984 1856 
L 416 1856 
L 416 2216 
L 1984 2216 
L 1984 3725 
L 2369 3725 
L 2369 2216 
L 3922 2216 
L 3922 1856 
L 2369 1856 
z
" transform="scale(0.015625)"/>
      <path id="IPAexGothic-31" d="M 2463 63 
L 1900 63 
L 1900 4103 
Q 1372 3922 788 3797 
L 684 4231 
Q 1519 4441 2106 4731 
L 2463 4731 
L 2463 63 
z
" transform="scale(0.015625)"/>
     </defs>
     <use xlink:href="#IPAexGothic-63"/>
     <use xlink:href="#IPAexGothic-6f" x="54.394531"/>
     <use xlink:href="#IPAexGothic-75" x="114.794922"/>
     <use xlink:href="#IPAexGothic-6e" x="175.195312"/>
     <use xlink:href="#IPAexGothic-74" x="235.595703"/>
     <use xlink:href="#IPAexGothic-65" x="270.214844"/>
     <use xlink:href="#IPAexGothic-72" x="327.099609"/>
     <use xlink:href="#IPAexGothic-20" x="364.111328"/>
     <use xlink:href="#IPAexGothic-2b" x="391.113281"/>
     <use xlink:href="#IPAexGothic-3d" x="458.935547"/>
     <use xlink:href="#IPAexGothic-20" x="526.757812"/>
     <use xlink:href="#IPAexGothic-31" x="553.759766"/>
    </g>
   </g>
   <g id="text_8">
    <!-- False -->
    <g transform="translate(137.88 380.343281) scale(0.125 -0.125)">
     <use xlink:href="#IPAexGothic-46"/>
     <use xlink:href="#IPAexGothic-61" x="57.177734"/>
     <use xlink:href="#IPAexGothic-6c" x="112.158203"/>
     <use xlink:href="#IPAexGothic-73" x="139.160156"/>
     <use xlink:href="#IPAexGothic-65" x="185.351562"/>
    </g>
   </g>
   <g id="text_9">
    <!-- True -->
    <g transform="translate(38.742656 332.245) scale(0.125 -0.125)">
     <use xlink:href="#IPAexGothic-54"/>
     <use xlink:href="#IPAexGothic-72" x="59.912109"/>
     <use xlink:href="#IPAexGothic-75" x="96.923828"/>
     <use xlink:href="#IPAexGothic-65" x="157.324219"/>
    </g>
   </g>
   <g id="text_10">
    <!-- counter == 3 ？ -->
    <g transform="translate(86.713672 342.794141) scale(0.125 -0.125)">
     <defs>
      <path id="IPAexGothic-33" d="M 2381 2419 
Q 3506 2216 3506 1278 
Q 3506 716 3128 356 
Q 2709 -31 1944 -31 
Q 797 -31 288 881 
L 756 1131 
Q 1109 441 1938 441 
Q 2425 441 2694 691 
Q 2950 928 2950 1291 
Q 2950 1719 2566 1978 
Q 2216 2213 1644 2213 
L 1363 2213 
L 1363 2669 
L 1656 2669 
Q 2231 2669 2534 2888 
Q 2859 3119 2859 3509 
Q 2859 3934 2494 4138 
Q 2259 4278 1931 4278 
Q 1238 4278 903 3578 
L 434 3803 
Q 897 4725 1938 4725 
Q 2597 4725 3006 4394 
Q 3416 4069 3416 3534 
Q 3416 3028 3019 2706 
Q 2763 2500 2381 2444 
L 2381 2419 
z
" transform="scale(0.015625)"/>
     </defs>
     <use xlink:href="#IPAexGothic-63"/>
     <use xlink:href="#IPAexGothic-6f" x="54.394531"/>
     <use xlink:href="#IPAexGothic-75" x="114.794922"/>
     <use xlink:href="#IPAexGothic-6e" x="175.195312"/>
     <use xlink:href="#IPAexGothic-74" x="235.595703"/>
     <use xlink:href="#IPAexGothic-65" x="270.214844"/>
     <use xlink:href="#IPAexGothic-72" x="327.099609"/>
     <use xlink:href="#IPAexGothic-20" x="364.111328"/>
     <use xlink:href="#IPAexGothic-3d" x="391.113281"/>
     <use xlink:href="#IPAexGothic-3d" x="458.935547"/>
     <use xlink:href="#IPAexGothic-20" x="526.757812"/>
     <use xlink:href="#IPAexGothic-33" x="553.759766"/>
     <use xlink:href="#IPAexGothic-20" x="616.748047"/>
     <use xlink:href="#IPAexGothic-ff1f" x="643.75"/>
    </g>
   </g>
   <g id="text_11">
    <!-- print(counter) -->
    <g transform="translate(92.456836 423.906445) scale(0.125 -0.125)">
     <defs>
      <path id="IPAexGothic-70" d="M 1075 2688 
Q 1525 3341 2206 3341 
Q 2769 3341 3172 2938 
Q 3641 2469 3641 1644 
Q 3641 841 3178 372 
Q 2775 -31 2200 -31 
Q 1569 -31 1106 497 
L 1106 -1216 
L 563 -1216 
L 563 3250 
L 1075 3250 
L 1075 2688 
z
M 1106 1950 
L 1106 1291 
Q 1106 897 1516 600 
Q 1791 403 2106 403 
Q 2469 403 2725 659 
Q 3066 997 3066 1631 
Q 3066 2200 2784 2559 
Q 2503 2900 2100 2900 
Q 1656 2900 1338 2484 
Q 1106 2184 1106 1950 
z
" transform="scale(0.015625)"/>
      <path id="IPAexGothic-69" d="M 1178 3928 
L 550 3928 
L 550 4569 
L 1178 4569 
L 1178 3928 
z
M 1138 63 
L 588 63 
L 588 3250 
L 1138 3250 
L 1138 63 
z
" transform="scale(0.015625)"/>
      <path id="IPAexGothic-28" d="M 1928 -1016 
L 1653 -1166 
Q 488 69 488 1875 
Q 488 3678 1653 4909 
L 1928 4763 
Q 1006 3522 1006 1881 
Q 1006 203 1928 -1016 
z
" transform="scale(0.015625)"/>
      <path id="IPAexGothic-29" d="M 466 4909 
Q 1638 3672 1638 1875 
Q 1638 75 466 -1166 
L 191 -1016 
Q 1119 216 1119 1881 
Q 1119 3509 191 4763 
L 466 4909 
z
" transform="scale(0.015625)"/>
     </defs>
     <use xlink:href="#IPAexGothic-70"/>
     <use xlink:href="#IPAexGothic-72" x="62.109375"/>
     <use xlink:href="#IPAexGothic-69" x="99.121094"/>
     <use xlink:href="#IPAexGothic-6e" x="126.123047"/>
     <use xlink:href="#IPAexGothic-74" x="186.523438"/>
     <use xlink:href="#IPAexGothic-28" x="221.142578"/>
     <use xlink:href="#IPAexGothic-63" x="254.443359"/>
     <use xlink:href="#IPAexGothic-6f" x="308.837891"/>
     <use xlink:href="#IPAexGothic-75" x="369.238281"/>
     <use xlink:href="#IPAexGothic-6e" x="429.638672"/>
     <use xlink:href="#IPAexGothic-74" x="490.039062"/>
     <use xlink:href="#IPAexGothic-65" x="524.658203"/>
     <use xlink:href="#IPAexGothic-72" x="581.542969"/>
     <use xlink:href="#IPAexGothic-29" x="618.554688"/>
    </g>
   </g>
  </g>
 </g>
 <defs>
  <clipPath id="pa92e4c29e7">
   <rect x="3.6" y="3.6" width="333.771429" height="455.4"/>
  </clipPath>
 </defs>
</svg>