<?xml version="1.0" encoding="utf-8" standalone="no"?>
<!DOCTYPE svg PUBLIC "-//W3C//DTD SVG 1.1//EN"
  "http://www.w3.org/Graphics/SVG/1.1/DTD/svg11.dtd">
<svg xmlns:xlink="http://www.w3.org/1999/xlink" width="314.1pt" height="215.1pt" viewBox="0 0 314.1 215.1" xmlns="http://www.w3.org/2000/svg" version="1.1">
 <metadata>
  <rdf:RDF xmlns:dc="http://purl.org/dc/elements/1.1/" xmlns:cc="http://creativecommons.org/ns#" xmlns:rdf="http://www.w3.org/1999/02/22-rdf-syntax-ns#">
   <cc:Work>
    <dc:type rdf:resource="http://purl.org/dc/dcmitype/StillImage"/>
    <dc:date>2024-03-16T03:51:00.152352</dc:date>
    <dc:format>image/svg+xml</dc:format>
    <dc:creator>
     <cc:Agent>
      <dc:title>Matplotlib v3.8.3, https://matplotlib.org/</dc:title>
     </cc:Agent>
    </dc:creator>
   </cc:Work>
  </rdf:RDF>
 </metadata>
 <defs>
  <style type="text/css">*{stroke-linejoin: round; stroke-linecap: butt}</style>
 </defs>
 <g id="figure_1">
  <g id="patch_1">
   <path d="M 0 215.1 
L 314.1 215.1 
L 314.1 0 
L 0 0 
z
" style="fill: #ffffff"/>
  </g>
  <g id="axes_1">
   <g id="patch_2">
    <path d="M 125.55 49.05 
L 125.835587 49.047734 
L 126.121103 49.040938 
L 126.406474 49.029612 
L 126.691631 49.01376 
L 126.976499 48.993386 
L 127.261009 48.968495 
L 127.545088 48.939092 
L 127.828664 48.905187 
L 128.111667 48.866786 
L 128.394025 48.8239 
L 128.675667 48.77654 
L 128.956522 48.724717 
L 129.23652 48.668444 
L 129.51559 48.607736 
L 129.793661 48.542608 
L 130.070664 48.473077 
L 130.346529 48.399159 
L 130.621186 48.320874 
L 130.894567 48.23824 
L 131.166602 48.15128 
L 131.437223 48.060015 
L 131.706363 47.964467 
L 131.973952 47.864661 
L 132.239924 47.760623 
L 132.504212 47.652377 
L 132.76675 47.539952 
L 133.02747 47.423376 
L 133.286308 47.302678 
L 133.543199 47.177888 
L 133.798077 47.049038 
L 134.050879 46.916161 
L 134.301541 46.779289 
L 134.55 46.638457 
L 134.796193 46.493701 
L 135.040058 46.345058 
L 135.281535 46.192564 
L 135.520561 46.036257 
L 135.757078 45.876178 
L 135.991024 45.712367 
L 136.222343 45.544865 
L 136.450974 45.373713 
L 136.676862 45.198956 
L 136.899948 45.020636 
L 137.120177 44.8388 
L 137.337493 44.653492 
L 137.551842 44.46476 
L 137.763169 44.272651 
L 137.971422 44.077213 
L 138.176548 43.878495 
L 138.378495 43.676548 
L 138.577213 43.471422 
L 138.772651 43.263169 
L 138.96476 43.051842 
L 139.153492 42.837493 
L 139.3388 42.620177 
L 139.520636 42.399948 
L 139.698956 42.176862 
L 139.873713 41.950974 
L 140.044865 41.722343 
L 140.212367 41.491024 
L 140.376178 41.257078 
L 140.536257 41.020561 
L 140.692564 40.781535 
L 140.845058 40.540058 
L 140.993701 40.296193 
L 141.138457 40.05 
L 141.279289 39.801541 
L 141.416161 39.550879 
L 141.549038 39.298077 
L 141.677888 39.043199 
L 141.802678 38.786308 
L 141.923376 38.52747 
L 142.039952 38.26675 
L 142.152377 38.004212 
L 142.260623 37.739924 
L 142.364661 37.473952 
L 142.464467 37.206363 
L 142.560015 36.937223 
L 142.65128 36.666602 
L 142.73824 36.394567 
L 142.820874 36.121186 
L 142.899159 35.846529 
L 142.973077 35.570664 
L 143.042608 35.293661 
L 143.107736 35.01559 
L 143.168444 34.73652 
L 143.224717 34.456522 
L 143.27654 34.175667 
L 143.3239 33.894025 
L 143.366786 33.611667 
L 143.405187 33.328664 
L 143.439092 33.045088 
L 143.468495 32.761009 
L 143.493386 32.476499 
L 143.51376 32.191631 
L 143.529612 31.906474 
L 143.540938 31.621103 
L 143.547734 31.335587 
L 143.55 31.05 
L 143.55 31.05 
L 143.547734 30.764413 
L 143.540938 30.478897 
L 143.529612 30.193526 
L 143.51376 29.908369 
L 143.493386 29.623501 
L 143.468495 29.338991 
L 143.439092 29.054912 
L 143.405187 28.771336 
L 143.366786 28.488333 
L 143.3239 28.205975 
L 143.27654 27.924333 
L 143.224717 27.643478 
L 143.168444 27.36348 
L 143.107736 27.08441 
L 143.042608 26.806339 
L 142.973077 26.529336 
L 142.899159 26.253471 
L 142.820874 25.978814 
L 142.73824 25.705433 
L 142.65128 25.433398 
L 142.560015 25.162777 
L 142.464467 24.893637 
L 142.364661 24.626048 
L 142.260623 24.360076 
L 142.152377 24.095788 
L 142.039952 23.83325 
L 141.923376 23.57253 
L 141.802678 23.313692 
L 141.677888 23.056801 
L 141.549038 22.801923 
L 141.416161 22.549121 
L 141.279289 22.298459 
L 141.138457 22.05 
L 140.993701 21.803807 
L 140.845058 21.559942 
L 140.692564 21.318465 
L 140.536257 21.079439 
L 140.376178 20.842922 
L 140.212367 20.608976 
L 140.044865 20.377657 
L 139.873713 20.149026 
L 139.698956 19.923138 
L 139.520636 19.700052 
L 139.3388 19.479823 
L 139.153492 19.262507 
L 138.96476 19.048158 
L 138.772651 18.836831 
L 138.577213 18.628578 
L 138.378495 18.423452 
L 138.176548 18.221505 
L 137.971422 18.022787 
L 137.763169 17.827349 
L 137.551842 17.63524 
L 137.337493 17.446508 
L 137.120177 17.2612 
L 136.899948 17.079364 
L 136.676862 16.901044 
L 136.450974 16.726287 
L 136.222343 16.555135 
L 135.991024 16.387633 
L 135.757078 16.223822 
L 135.520561 16.063743 
L 135.281535 15.907436 
L 135.040058 15.754942 
L 134.796193 15.606299 
L 134.55 15.461543 
L 134.301541 15.320711 
L 134.050879 15.183839 
L 133.798077 15.050962 
L 133.543199 14.922112 
L 133.286308 14.797322 
L 133.02747 14.676624 
L 132.76675 14.560048 
L 132.504212 14.447623 
L 132.239924 14.339377 
L 131.973952 14.235339 
L 131.706363 14.135533 
L 131.437223 14.039985 
L 131.166602 13.94872 
L 130.894567 13.86176 
L 130.621186 13.779126 
L 130.346529 13.700841 
L 130.070664 13.626923 
L 129.793661 13.557392 
L 129.51559 13.492264 
L 129.23652 13.431556 
L 128.956522 13.375283 
L 128.675667 13.32346 
L 128.394025 13.2761 
L 128.111667 13.233214 
L 127.828664 13.194813 
L 127.545088 13.160908 
L 127.261009 13.131505 
L 126.976499 13.106614 
L 126.691631 13.08624 
L 126.406474 13.070388 
L 126.121103 13.059062 
L 125.835587 13.052266 
L 125.55 13.05 
L 89.55 13.05 
L 89.264413 13.052266 
L 88.978897 13.059062 
L 88.693526 13.070388 
L 88.408369 13.08624 
L 88.123501 13.106614 
L 87.838991 13.131505 
L 87.554912 13.160908 
L 87.271336 13.194813 
L 86.988333 13.233214 
L 86.705975 13.2761 
L 86.424333 13.32346 
L 86.143478 13.375283 
L 85.86348 13.431556 
L 85.58441 13.492264 
L 85.306339 13.557392 
L 85.029336 13.626923 
L 84.753471 13.700841 
L 84.478814 13.779126 
L 84.205433 13.86176 
L 83.933398 13.94872 
L 83.662777 14.039985 
L 83.393637 14.135533 
L 83.126048 14.235339 
L 82.860076 14.339377 
L 82.595788 14.447623 
L 82.33325 14.560048 
L 82.07253 14.676624 
L 81.813692 14.797322 
L 81.556801 14.922112 
L 81.301923 15.050962 
L 81.049121 15.183839 
L 80.798459 15.320711 
L 80.55 15.461543 
L 80.303807 15.606299 
L 80.059942 15.754942 
L 79.818465 15.907436 
L 79.579439 16.063743 
L 79.342922 16.223822 
L 79.108976 16.387633 
L 78.877657 16.555135 
L 78.649026 16.726287 
L 78.423138 16.901044 
L 78.200052 17.079364 
L 77.979823 17.2612 
L 77.762507 17.446508 
L 77.548158 17.63524 
L 77.336831 17.827349 
L 77.128578 18.022787 
L 76.923452 18.221505 
L 76.721505 18.423452 
L 76.522787 18.628578 
L 76.327349 18.836831 
L 76.13524 19.048158 
L 75.946508 19.262507 
L 75.7612 19.479823 
L 75.579364 19.700052 
L 75.401044 19.923138 
L 75.226287 20.149026 
L 75.055135 20.377657 
L 74.887633 20.608976 
L 74.723822 20.842922 
L 74.563743 21.079439 
L 74.407436 21.318465 
L 74.254942 21.559942 
L 74.106299 21.803807 
L 73.961543 22.05 
L 73.820711 22.298459 
L 73.683839 22.549121 
L 73.550962 22.801923 
L 73.422112 23.056801 
L 73.297322 23.313692 
L 73.176624 23.57253 
L 73.060048 23.83325 
L 72.947623 24.095788 
L 72.839377 24.360076 
L 72.735339 24.626048 
L 72.635533 24.893637 
L 72.539985 25.162777 
L 72.44872 25.433398 
L 72.36176 25.705433 
L 72.279126 25.978814 
L 72.200841 26.253471 
L 72.126923 26.529336 
L 72.057392 26.806339 
L 71.992264 27.08441 
L 71.931556 27.36348 
L 71.875283 27.643478 
L 71.82346 27.924333 
L 71.7761 28.205975 
L 71.733214 28.488333 
L 71.694813 28.771336 
L 71.660908 29.054912 
L 71.631505 29.338991 
L 71.606614 29.623501 
L 71.58624 29.908369 
L 71.570388 30.193526 
L 71.559062 30.478897 
L 71.552266 30.764413 
L 71.55 31.05 
L 71.55 31.05 
L 71.552266 31.335587 
L 71.559062 31.621103 
L 71.570388 31.906474 
L 71.58624 32.191631 
L 71.606614 32.476499 
L 71.631505 32.761009 
L 71.660908 33.045088 
L 71.694813 33.328664 
L 71.733214 33.611667 
L 71.7761 33.894025 
L 71.82346 34.175667 
L 71.875283 34.456522 
L 71.931556 34.73652 
L 71.992264 35.01559 
L 72.057392 35.293661 
L 72.126923 35.570664 
L 72.200841 35.846529 
L 72.279126 36.121186 
L 72.36176 36.394567 
L 72.44872 36.666602 
L 72.539985 36.937223 
L 72.635533 37.206363 
L 72.735339 37.473952 
L 72.839377 37.739924 
L 72.947623 38.004212 
L 73.060048 38.26675 
L 73.176624 38.52747 
L 73.297322 38.786308 
L 73.422112 39.043199 
L 73.550962 39.298077 
L 73.683839 39.550879 
L 73.820711 39.801541 
L 73.961543 40.05 
L 74.106299 40.296193 
L 74.254942 40.540058 
L 74.407436 40.781535 
L 74.563743 41.020561 
L 74.723822 41.257078 
L 74.887633 41.491024 
L 75.055135 41.722343 
L 75.226287 41.950974 
L 75.401044 42.176862 
L 75.579364 42.399948 
L 75.7612 42.620177 
L 75.946508 42.837493 
L 76.13524 43.051842 
L 76.327349 43.263169 
L 76.522787 43.471422 
L 76.721505 43.676548 
L 76.923452 43.878495 
L 77.128578 44.077213 
L 77.336831 44.272651 
L 77.548158 44.46476 
L 77.762507 44.653492 
L 77.979823 44.8388 
L 78.200052 45.020636 
L 78.423138 45.198956 
L 78.649026 45.373713 
L 78.877657 45.544865 
L 79.108976 45.712367 
L 79.342922 45.876178 
L 79.579439 46.036257 
L 79.818465 46.192564 
L 80.059942 46.345058 
L 80.303807 46.493701 
L 80.55 46.638457 
L 80.798459 46.779289 
L 81.049121 46.916161 
L 81.301923 47.049038 
L 81.556801 47.177888 
L 81.813692 47.302678 
L 82.07253 47.423376 
L 82.33325 47.539952 
L 82.595788 47.652377 
L 82.860076 47.760623 
L 83.126048 47.864661 
L 83.393637 47.964467 
L 83.662777 48.060015 
L 83.933398 48.15128 
L 84.205433 48.23824 
L 84.478814 48.320874 
L 84.753471 48.399159 
L 85.029336 48.473077 
L 85.306339 48.542608 
L 85.58441 48.607736 
L 85.86348 48.668444 
L 86.143478 48.724717 
L 86.424333 48.77654 
L 86.705975 48.8239 
L 86.988333 48.866786 
L 87.271336 48.905187 
L 87.554912 48.939092 
L 87.838991 48.968495 
L 88.123501 48.993386 
L 88.408369 49.01376 
L 88.693526 49.029612 
L 88.978897 49.040938 
L 89.264413 49.047734 
L 89.55 49.05 
L 125.55 49.05 
z
" clip-path="url(#p34f938a1c6)" style="fill: none; stroke: #000000; stroke-linecap: round"/>
   </g>
   <g id="patch_3">
    <path d="M 44.55 103.05 
L 107.55 76.05 
L 170.55 103.05 
L 107.55 130.05 
L 44.55 103.05 
z
" clip-path="url(#p34f938a1c6)" style="fill: none; stroke: #000000; stroke-linecap: round"/>
   </g>
   <g id="patch_4">
    <path d="M 278.55 121.05 
L 278.835587 121.047734 
L 279.121103 121.040938 
L 279.406474 121.029612 
L 279.691631 121.01376 
L 279.976499 120.993386 
L 280.261009 120.968495 
L 280.545088 120.939092 
L 280.828664 120.905187 
L 281.111667 120.866786 
L 281.394025 120.8239 
L 281.675667 120.77654 
L 281.956522 120.724717 
L 282.23652 120.668444 
L 282.51559 120.607736 
L 282.793661 120.542608 
L 283.070664 120.473077 
L 283.346529 120.399159 
L 283.621186 120.320874 
L 283.894567 120.23824 
L 284.166602 120.15128 
L 284.437223 120.060015 
L 284.706363 119.964467 
L 284.973952 119.864661 
L 285.239924 119.760623 
L 285.504212 119.652377 
L 285.76675 119.539952 
L 286.02747 119.423376 
L 286.286308 119.302678 
L 286.543199 119.177888 
L 286.798077 119.049038 
L 287.050879 118.916161 
L 287.301541 118.779289 
L 287.55 118.638457 
L 287.796193 118.493701 
L 288.040058 118.345058 
L 288.281535 118.192564 
L 288.520561 118.036257 
L 288.757078 117.876178 
L 288.991024 117.712367 
L 289.222343 117.544865 
L 289.450974 117.373713 
L 289.676862 117.198956 
L 289.899948 117.020636 
L 290.120177 116.8388 
L 290.337493 116.653492 
L 290.551842 116.46476 
L 290.763169 116.272651 
L 290.971422 116.077213 
L 291.176548 115.878495 
L 291.378495 115.676548 
L 291.577213 115.471422 
L 291.772651 115.263169 
L 291.96476 115.051842 
L 292.153492 114.837493 
L 292.3388 114.620177 
L 292.520636 114.399948 
L 292.698956 114.176862 
L 292.873713 113.950974 
L 293.044865 113.722343 
L 293.212367 113.491024 
L 293.376178 113.257078 
L 293.536257 113.020561 
L 293.692564 112.781535 
L 293.845058 112.540058 
L 293.993701 112.296193 
L 294.138457 112.05 
L 294.279289 111.801541 
L 294.416161 111.550879 
L 294.549038 111.298077 
L 294.677888 111.043199 
L 294.802678 110.786308 
L 294.923376 110.52747 
L 295.039952 110.26675 
L 295.152377 110.004212 
L 295.260623 109.739924 
L 295.364661 109.473952 
L 295.464467 109.206363 
L 295.560015 108.937223 
L 295.65128 108.666602 
L 295.73824 108.394567 
L 295.820874 108.121186 
L 295.899159 107.846529 
L 295.973077 107.570664 
L 296.042608 107.293661 
L 296.107736 107.01559 
L 296.168444 106.73652 
L 296.224717 106.456522 
L 296.27654 106.175667 
L 296.3239 105.894025 
L 296.366786 105.611667 
L 296.405187 105.328664 
L 296.439092 105.045088 
L 296.468495 104.761009 
L 296.493386 104.476499 
L 296.51376 104.191631 
L 296.529612 103.906474 
L 296.540938 103.621103 
L 296.547734 103.335587 
L 296.55 103.05 
L 296.55 103.05 
L 296.547734 102.764413 
L 296.540938 102.478897 
L 296.529612 102.193526 
L 296.51376 101.908369 
L 296.493386 101.623501 
L 296.468495 101.338991 
L 296.439092 101.054912 
L 296.405187 100.771336 
L 296.366786 100.488333 
L 296.3239 100.205975 
L 296.27654 99.924333 
L 296.224717 99.643478 
L 296.168444 99.36348 
L 296.107736 99.08441 
L 296.042608 98.806339 
L 295.973077 98.529336 
L 295.899159 98.253471 
L 295.820874 97.978814 
L 295.73824 97.705433 
L 295.65128 97.433398 
L 295.560015 97.162777 
L 295.464467 96.893637 
L 295.364661 96.626048 
L 295.260623 96.360076 
L 295.152377 96.095788 
L 295.039952 95.83325 
L 294.923376 95.57253 
L 294.802678 95.313692 
L 294.677888 95.056801 
L 294.549038 94.801923 
L 294.416161 94.549121 
L 294.279289 94.298459 
L 294.138457 94.05 
L 293.993701 93.803807 
L 293.845058 93.559942 
L 293.692564 93.318465 
L 293.536257 93.079439 
L 293.376178 92.842922 
L 293.212367 92.608976 
L 293.044865 92.377657 
L 292.873713 92.149026 
L 292.698956 91.923138 
L 292.520636 91.700052 
L 292.3388 91.479823 
L 292.153492 91.262507 
L 291.96476 91.048158 
L 291.772651 90.836831 
L 291.577213 90.628578 
L 291.378495 90.423452 
L 291.176548 90.221505 
L 290.971422 90.022787 
L 290.763169 89.827349 
L 290.551842 89.63524 
L 290.337493 89.446508 
L 290.120177 89.2612 
L 289.899948 89.079364 
L 289.676862 88.901044 
L 289.450974 88.726287 
L 289.222343 88.555135 
L 288.991024 88.387633 
L 288.757078 88.223822 
L 288.520561 88.063743 
L 288.281535 87.907436 
L 288.040058 87.754942 
L 287.796193 87.606299 
L 287.55 87.461543 
L 287.301541 87.320711 
L 287.050879 87.183839 
L 286.798077 87.050962 
L 286.543199 86.922112 
L 286.286308 86.797322 
L 286.02747 86.676624 
L 285.76675 86.560048 
L 285.504212 86.447623 
L 285.239924 86.339377 
L 284.973952 86.235339 
L 284.706363 86.135533 
L 284.437223 86.039985 
L 284.166602 85.94872 
L 283.894567 85.86176 
L 283.621186 85.779126 
L 283.346529 85.700841 
L 283.070664 85.626923 
L 282.793661 85.557392 
L 282.51559 85.492264 
L 282.23652 85.431556 
L 281.956522 85.375283 
L 281.675667 85.32346 
L 281.394025 85.2761 
L 281.111667 85.233214 
L 280.828664 85.194813 
L 280.545088 85.160908 
L 280.261009 85.131505 
L 279.976499 85.106614 
L 279.691631 85.08624 
L 279.406474 85.070388 
L 279.121103 85.059062 
L 278.835587 85.052266 
L 278.55 85.05 
L 242.55 85.05 
L 242.264413 85.052266 
L 241.978897 85.059062 
L 241.693526 85.070388 
L 241.408369 85.08624 
L 241.123501 85.106614 
L 240.838991 85.131505 
L 240.554912 85.160908 
L 240.271336 85.194813 
L 239.988333 85.233214 
L 239.705975 85.2761 
L 239.424333 85.32346 
L 239.143478 85.375283 
L 238.86348 85.431556 
L 238.58441 85.492264 
L 238.306339 85.557392 
L 238.029336 85.626923 
L 237.753471 85.700841 
L 237.478814 85.779126 
L 237.205433 85.86176 
L 236.933398 85.94872 
L 236.662777 86.039985 
L 236.393637 86.135533 
L 236.126048 86.235339 
L 235.860076 86.339377 
L 235.595788 86.447623 
L 235.33325 86.560048 
L 235.07253 86.676624 
L 234.813692 86.797322 
L 234.556801 86.922112 
L 234.301923 87.050962 
L 234.049121 87.183839 
L 233.798459 87.320711 
L 233.55 87.461543 
L 233.303807 87.606299 
L 233.059942 87.754942 
L 232.818465 87.907436 
L 232.579439 88.063743 
L 232.342922 88.223822 
L 232.108976 88.387633 
L 231.877657 88.555135 
L 231.649026 88.726287 
L 231.423138 88.901044 
L 231.200052 89.079364 
L 230.979823 89.2612 
L 230.762507 89.446508 
L 230.548158 89.63524 
L 230.336831 89.827349 
L 230.128578 90.022787 
L 229.923452 90.221505 
L 229.721505 90.423452 
L 229.522787 90.628578 
L 229.327349 90.836831 
L 229.13524 91.048158 
L 228.946508 91.262507 
L 228.7612 91.479823 
L 228.579364 91.700052 
L 228.401044 91.923138 
L 228.226287 92.149026 
L 228.055135 92.377657 
L 227.887633 92.608976 
L 227.723822 92.842922 
L 227.563743 93.079439 
L 227.407436 93.318465 
L 227.254942 93.559942 
L 227.106299 93.803807 
L 226.961543 94.05 
L 226.820711 94.298459 
L 226.683839 94.549121 
L 226.550962 94.801923 
L 226.422112 95.056801 
L 226.297322 95.313692 
L 226.176624 95.57253 
L 226.060048 95.83325 
L 225.947623 96.095788 
L 225.839377 96.360076 
L 225.735339 96.626048 
L 225.635533 96.893637 
L 225.539985 97.162777 
L 225.44872 97.433398 
L 225.36176 97.705433 
L 225.279126 97.978814 
L 225.200841 98.253471 
L 225.126923 98.529336 
L 225.057392 98.806339 
L 224.992264 99.08441 
L 224.931556 99.36348 
L 224.875283 99.643478 
L 224.82346 99.924333 
L 224.7761 100.205975 
L 224.733214 100.488333 
L 224.694813 100.771336 
L 224.660908 101.054912 
L 224.631505 101.338991 
L 224.606614 101.623501 
L 224.58624 101.908369 
L 224.570388 102.193526 
L 224.559062 102.478897 
L 224.552266 102.764413 
L 224.55 103.05 
L 224.55 103.05 
L 224.552266 103.335587 
L 224.559062 103.621103 
L 224.570388 103.906474 
L 224.58624 104.191631 
L 224.606614 104.476499 
L 224.631505 104.761009 
L 224.660908 105.045088 
L 224.694813 105.328664 
L 224.733214 105.611667 
L 224.7761 105.894025 
L 224.82346 106.175667 
L 224.875283 106.456522 
L 224.931556 106.73652 
L 224.992264 107.01559 
L 225.057392 107.293661 
L 225.126923 107.570664 
L 225.200841 107.846529 
L 225.279126 108.121186 
L 225.36176 108.394567 
L 225.44872 108.666602 
L 225.539985 108.937223 
L 225.635533 109.206363 
L 225.735339 109.473952 
L 225.839377 109.739924 
L 225.947623 110.004212 
L 226.060048 110.26675 
L 226.176624 110.52747 
L 226.297322 110.786308 
L 226.422112 111.043199 
L 226.550962 111.298077 
L 226.683839 111.550879 
L 226.820711 111.801541 
L 226.961543 112.05 
L 227.106299 112.296193 
L 227.254942 112.540058 
L 227.407436 112.781535 
L 227.563743 113.020561 
L 227.723822 113.257078 
L 227.887633 113.491024 
L 228.055135 113.722343 
L 228.226287 113.950974 
L 228.401044 114.176862 
L 228.579364 114.399948 
L 228.7612 114.620177 
L 228.946508 114.837493 
L 229.13524 115.051842 
L 229.327349 115.263169 
L 229.522787 115.471422 
L 229.721505 115.676548 
L 229.923452 115.878495 
L 230.128578 116.077213 
L 230.336831 116.272651 
L 230.548158 116.46476 
L 230.762507 116.653492 
L 230.979823 116.8388 
L 231.200052 117.020636 
L 231.423138 117.198956 
L 231.649026 117.373713 
L 231.877657 117.544865 
L 232.108976 117.712367 
L 232.342922 117.876178 
L 232.579439 118.036257 
L 232.818465 118.192564 
L 233.059942 118.345058 
L 233.303807 118.493701 
L 233.55 118.638457 
L 233.798459 118.779289 
L 234.049121 118.916161 
L 234.301923 119.049038 
L 234.556801 119.177888 
L 234.813692 119.302678 
L 235.07253 119.423376 
L 235.33325 119.539952 
L 235.595788 119.652377 
L 235.860076 119.760623 
L 236.126048 119.864661 
L 236.393637 119.964467 
L 236.662777 120.060015 
L 236.933398 120.15128 
L 237.205433 120.23824 
L 237.478814 120.320874 
L 237.753471 120.399159 
L 238.029336 120.473077 
L 238.306339 120.542608 
L 238.58441 120.607736 
L 238.86348 120.668444 
L 239.143478 120.724717 
L 239.424333 120.77654 
L 239.705975 120.8239 
L 239.988333 120.866786 
L 240.271336 120.905187 
L 240.554912 120.939092 
L 240.838991 120.968495 
L 241.123501 120.993386 
L 241.408369 121.01376 
L 241.693526 121.029612 
L 241.978897 121.040938 
L 242.264413 121.047734 
L 242.55 121.05 
L 278.55 121.05 
z
" clip-path="url(#p34f938a1c6)" style="fill: none; stroke: #000000; stroke-linecap: round"/>
   </g>
   <g id="line2d_1">
    <path d="M 107.55 49.05 
L 107.55 62.55 
L 107.55 67.05 
" clip-path="url(#p34f938a1c6)" style="fill: none; stroke: #000000; stroke-linecap: round"/>
   </g>
   <g id="patch_5">
    <path d="M 110.25 67.05 
L 107.55 76.05 
L 104.85 67.05 
z
" clip-path="url(#p34f938a1c6)"/>
   </g>
   <g id="line2d_2">
    <path d="M 170.55 103.05 
L 197.55 103.05 
L 215.55 103.05 
" clip-path="url(#p34f938a1c6)" style="fill: none; stroke-dasharray: 3.7,1.6; stroke-dashoffset: 0; stroke: #000000"/>
   </g>
   <g id="patch_6">
    <path d="M 215.55 100.35 
L 224.55 103.05 
L 215.55 105.75 
z
" clip-path="url(#p34f938a1c6)"/>
   </g>
   <g id="line2d_3">
    <path d="M 107.55 130.05 
L 107.55 148.05 
L 107.55 157.05 
" clip-path="url(#p34f938a1c6)" style="fill: none; stroke: #000000; stroke-linecap: round"/>
   </g>
   <g id="patch_7">
    <path d="M 110.25 157.05 
L 107.55 166.05 
L 104.85 157.05 
z
" clip-path="url(#p34f938a1c6)"/>
   </g>
   <g id="line2d_4">
    <path d="M 71.55 184.05 
L 71.55 166.05 
L 143.55 166.05 
L 143.55 202.05 
L 71.55 202.05 
L 71.55 184.05 
" clip-path="url(#p34f938a1c6)" style="fill: none; stroke: #000000; stroke-linecap: round"/>
   </g>
   <g id="line2d_5">
    <path d="M 71.55 184.05 
L 17.55 184.05 
L 17.55 103.05 
L 35.55 103.05 
" clip-path="url(#p34f938a1c6)" style="fill: none; stroke: #000000; stroke-linecap: round"/>
   </g>
   <g id="patch_8">
    <path d="M 35.55 100.35 
L 44.55 103.05 
L 35.55 105.75 
z
" clip-path="url(#p34f938a1c6)"/>
   </g>
   <g id="text_1">
    <!-- START -->
    <g transform="translate(88.373242 34.544141) scale(0.125 -0.125)">
     <defs>
      <path id="IPAexGothic-53" d="M 2919 3641 
Q 2563 4259 1853 4259 
Q 1453 4259 1213 4009 
Q 1028 3803 1028 3534 
Q 1028 3238 1266 3047 
Q 1444 2913 1984 2688 
L 2200 2597 
Q 2925 2306 3191 1953 
Q 3422 1644 3422 1259 
Q 3422 644 2969 288 
Q 2559 -31 1931 -31 
Q 881 -31 313 766 
L 753 1100 
Q 1203 459 1938 459 
Q 2288 459 2534 625 
Q 2841 847 2841 1216 
Q 2841 1503 2616 1728 
Q 2375 1959 1728 2206 
L 1541 2278 
Q 453 2694 453 3481 
Q 453 4006 806 4347 
Q 1203 4725 1863 4725 
Q 2841 4725 3359 3956 
L 2919 3641 
z
" transform="scale(0.015625)"/>
      <path id="IPAexGothic-54" d="M 3866 4141 
L 2175 4141 
L 2175 63 
L 1606 63 
L 1606 4141 
L -31 4141 
L -31 4634 
L 3866 4634 
L 3866 4141 
z
" transform="scale(0.015625)"/>
      <path id="IPAexGothic-41" d="M 4056 63 
L 3444 63 
L 2938 1409 
L 1100 1409 
L 603 63 
L -6 63 
L 1806 4666 
L 2259 4666 
L 4056 63 
z
M 2778 1863 
L 2316 3078 
Q 2125 3588 2028 4000 
L 2009 4000 
Q 1897 3563 1716 3078 
L 1263 1863 
L 2778 1863 
z
" transform="scale(0.015625)"/>
      <path id="IPAexGothic-52" d="M 4072 63 
L 3394 63 
Q 3138 641 2828 1197 
Q 2584 1641 2344 1825 
Q 2050 2044 1625 2044 
L 1172 2044 
L 1172 63 
L 609 63 
L 609 4634 
L 2009 4634 
Q 2713 4634 3131 4378 
Q 3688 4044 3688 3381 
Q 3688 2784 3181 2459 
Q 2906 2272 2522 2216 
L 2522 2197 
Q 2941 2050 3247 1581 
Q 3516 1166 4072 63 
z
M 1172 2478 
L 1869 2478 
Q 3106 2478 3106 3369 
Q 3106 4181 1928 4181 
L 1172 4181 
L 1172 2478 
z
" transform="scale(0.015625)"/>
     </defs>
     <use xlink:href="#IPAexGothic-53"/>
     <use xlink:href="#IPAexGothic-54" x="58.496094"/>
     <use xlink:href="#IPAexGothic-41" x="118.408203"/>
     <use xlink:href="#IPAexGothic-52" x="182.128906"/>
     <use xlink:href="#IPAexGothic-54" x="246.923828"/>
    </g>
   </g>
   <g id="text_2">
    <!-- True -->
    <g transform="translate(112.23 144.093281) scale(0.125 -0.125)">
     <defs>
      <path id="IPAexGothic-72" d="M 2309 3316 
L 2213 2769 
Q 2106 2791 2022 2791 
Q 1653 2791 1413 2444 
Q 1113 2006 1113 1675 
L 1113 63 
L 563 63 
L 563 3250 
L 1081 3250 
L 1056 2303 
L 1069 2303 
Q 1422 3341 2097 3341 
Q 2206 3341 2309 3316 
z
" transform="scale(0.015625)"/>
      <path id="IPAexGothic-75" d="M 3284 63 
L 2772 63 
L 2772 644 
Q 2300 0 1625 0 
Q 1072 0 763 375 
Q 519 678 519 1241 
L 519 3250 
L 1069 3250 
L 1069 1259 
Q 1069 466 1734 466 
Q 2406 466 2734 1291 
L 2734 3250 
L 3284 3250 
L 3284 63 
z
" transform="scale(0.015625)"/>
      <path id="IPAexGothic-65" d="M 863 1594 
Q 891 1041 1209 722 
Q 1534 397 1997 397 
Q 2606 397 2963 966 
L 3322 728 
Q 2869 -31 1931 -31 
Q 1222 -31 766 422 
Q 306 884 306 1641 
Q 306 2444 788 2925 
Q 1216 3353 1856 3353 
Q 2459 3353 2866 2956 
Q 3322 2494 3322 1722 
L 3322 1594 
L 863 1594 
z
M 2756 1997 
Q 2709 2431 2450 2681 
Q 2194 2938 1844 2938 
Q 1438 2938 1150 2591 
Q 953 2356 894 1997 
L 2756 1997 
z
" transform="scale(0.015625)"/>
     </defs>
     <use xlink:href="#IPAexGothic-54"/>
     <use xlink:href="#IPAexGothic-72" x="59.912109"/>
     <use xlink:href="#IPAexGothic-75" x="96.923828"/>
     <use xlink:href="#IPAexGothic-65" x="157.324219"/>
    </g>
   </g>
   <g id="text_3">
    <!-- False -->
    <g transform="translate(175.23 95.995) scale(0.125 -0.125)">
     <defs>
      <path id="IPAexGothic-46" d="M 3469 4141 
L 1172 4141 
L 1172 2656 
L 3206 2656 
L 3206 2188 
L 1172 2188 
L 1172 63 
L 609 63 
L 609 4634 
L 3469 4634 
L 3469 4141 
z
" transform="scale(0.015625)"/>
      <path id="IPAexGothic-61" d="M 3156 63 
L 2672 63 
Q 2559 303 2531 556 
L 2509 556 
Q 2147 -25 1428 -25 
Q 934 -25 622 288 
Q 347 563 347 959 
Q 347 1947 2050 1997 
L 2478 2009 
L 2478 2175 
Q 2478 2509 2288 2700 
Q 2088 2900 1775 2900 
Q 1238 2900 969 2378 
L 494 2597 
Q 938 3328 1788 3328 
Q 2375 3328 2691 3000 
Q 2984 2706 2984 2169 
L 2984 997 
Q 2984 400 3156 63 
z
M 2491 1625 
L 2141 1619 
Q 903 1591 903 953 
Q 903 728 1050 581 
Q 1231 403 1525 403 
Q 1934 403 2234 703 
Q 2491 969 2491 1344 
L 2491 1625 
z
" transform="scale(0.015625)"/>
      <path id="IPAexGothic-6c" d="M 1131 63 
L 581 63 
L 581 4794 
L 1131 4794 
L 1131 63 
z
" transform="scale(0.015625)"/>
      <path id="IPAexGothic-73" d="M 2234 2547 
Q 1938 2931 1484 2931 
Q 891 2931 891 2475 
Q 891 2153 1531 1944 
L 1741 1875 
Q 2650 1578 2650 894 
Q 2650 434 2272 172 
Q 1972 -31 1497 -31 
Q 766 -31 256 503 
L 603 819 
Q 997 397 1516 397 
Q 2131 397 2131 875 
Q 2131 1238 1453 1478 
L 1234 1553 
Q 378 1853 378 2431 
Q 378 2797 628 3047 
Q 928 3347 1453 3347 
Q 2156 3347 2606 2859 
L 2234 2547 
z
" transform="scale(0.015625)"/>
     </defs>
     <use xlink:href="#IPAexGothic-46"/>
     <use xlink:href="#IPAexGothic-61" x="57.177734"/>
     <use xlink:href="#IPAexGothic-6c" x="112.158203"/>
     <use xlink:href="#IPAexGothic-73" x="139.160156"/>
     <use xlink:href="#IPAexGothic-65" x="185.351562"/>
    </g>
   </g>
   <g id="text_4">
    <!-- True ？ -->
    <g transform="translate(86.223828 106.544141) scale(0.125 -0.125)">
     <defs>
      <path id="IPAexGothic-20" transform="scale(0.015625)"/>
      <path id="IPAexGothic-ff1f" d="M 1503 3444 
Q 1550 4184 1963 4616 
Q 2466 5128 3272 5128 
Q 3888 5128 4313 4853 
Q 4909 4469 4909 3778 
Q 4909 3059 4116 2563 
Q 3628 2250 3506 1881 
Q 3422 1650 3422 1228 
L 2853 1228 
Q 2863 1869 3053 2197 
Q 3281 2588 3847 2950 
Q 4341 3269 4341 3778 
Q 4341 4231 3975 4463 
Q 3697 4634 3266 4634 
Q 2656 4634 2341 4225 
Q 2109 3928 2091 3444 
L 1503 3444 
z
M 2763 647 
L 3506 647 
L 3506 -97 
L 2763 -97 
L 2763 647 
z
" transform="scale(0.015625)"/>
     </defs>
     <use xlink:href="#IPAexGothic-54"/>
     <use xlink:href="#IPAexGothic-72" x="59.912109"/>
     <use xlink:href="#IPAexGothic-75" x="96.923828"/>
     <use xlink:href="#IPAexGothic-65" x="157.324219"/>
     <use xlink:href="#IPAexGothic-20" x="214.208984"/>
     <use xlink:href="#IPAexGothic-ff1f" x="241.210938"/>
    </g>
   </g>
   <g id="text_5">
    <!-- END -->
    <g transform="translate(247.350781 106.544141) scale(0.125 -0.125)">
     <defs>
      <path id="IPAexGothic-45" d="M 3547 63 
L 609 63 
L 609 4634 
L 3469 4634 
L 3469 4147 
L 1166 4147 
L 1166 2650 
L 3206 2650 
L 3206 2191 
L 1166 2191 
L 1166 556 
L 3547 556 
L 3547 63 
z
" transform="scale(0.015625)"/>
      <path id="IPAexGothic-4e" d="M 4244 63 
L 3731 63 
L 1697 3150 
Q 1466 3500 1141 4097 
L 1116 4097 
L 1128 3797 
Q 1159 2803 1159 2469 
L 1159 63 
L 609 63 
L 609 4634 
L 1366 4634 
L 3113 1978 
Q 3453 1447 3713 966 
L 3738 966 
Q 3694 1897 3694 2469 
L 3694 4634 
L 4244 4634 
L 4244 63 
z
" transform="scale(0.015625)"/>
      <path id="IPAexGothic-44" d="M 609 4634 
L 1984 4634 
Q 3159 4634 3791 4050 
Q 4456 3444 4456 2356 
Q 4456 1047 3516 441 
Q 2925 63 1941 63 
L 609 63 
L 609 4634 
z
M 1172 556 
L 1894 556 
Q 3853 556 3853 2356 
Q 3853 4147 1928 4147 
L 1172 4147 
L 1172 556 
z
" transform="scale(0.015625)"/>
     </defs>
     <use xlink:href="#IPAexGothic-45"/>
     <use xlink:href="#IPAexGothic-4e" x="59.521484"/>
     <use xlink:href="#IPAexGothic-44" x="135.498047"/>
    </g>
   </g>
   <g id="text_6">
    <!-- 実行コード -->
    <g transform="translate(76.3 187.544141) scale(0.125 -0.125)">
     <defs>
      <path id="IPAexGothic-5b9f" d="M 3525 1275 
Q 4288 350 6022 91 
L 5738 -375 
Q 3953 -41 3219 1050 
Q 2731 -144 728 -472 
L 466 -44 
Q 2422 150 2872 1275 
L 384 1275 
L 384 1659 
L 2950 1659 
L 2950 2144 
L 966 2144 
L 966 2509 
L 2950 2509 
L 2950 2969 
L 1266 2969 
L 1266 3341 
L 2950 3341 
L 2950 3988 
L 3403 3988 
L 3403 3341 
L 5125 3341 
L 5125 2969 
L 3403 2969 
L 3403 2509 
L 5444 2509 
L 5444 2144 
L 3403 2144 
L 3403 1659 
L 6016 1659 
L 6016 1275 
L 3525 1275 
z
M 3413 4544 
L 5778 4544 
L 5778 3269 
L 5309 3269 
L 5309 4147 
L 1084 4147 
L 1084 3269 
L 616 3269 
L 616 4544 
L 2938 4544 
L 2938 5313 
L 3413 5313 
L 3413 4544 
z
" transform="scale(0.015625)"/>
      <path id="IPAexGothic-884c" d="M 1822 2753 
L 1822 -447 
L 1353 -447 
L 1353 2169 
Q 966 1744 622 1466 
L 316 1791 
Q 1294 2559 1969 3822 
L 2397 3634 
Q 2109 3138 1822 2753 
z
M 4975 2803 
L 4975 103 
Q 4975 -391 4369 -391 
Q 3925 -391 3356 -341 
L 3288 159 
Q 3775 78 4259 78 
Q 4516 78 4516 319 
L 4516 2803 
L 2384 2803 
L 2384 3225 
L 6013 3225 
L 6013 2803 
L 4975 2803 
z
M 384 3691 
Q 1231 4256 1756 5075 
L 2144 4850 
Q 1541 3947 666 3347 
L 384 3691 
z
M 2709 4794 
L 5659 4794 
L 5659 4378 
L 2709 4378 
L 2709 4794 
z
" transform="scale(0.015625)"/>
      <path id="IPAexGothic-30b3" d="M 1134 4213 
L 5166 4213 
L 5166 153 
L 4653 153 
L 4653 594 
L 1063 594 
L 1063 1088 
L 4653 1088 
L 4653 3725 
L 1134 3725 
L 1134 4213 
z
" transform="scale(0.015625)"/>
      <path id="IPAexGothic-30fc" d="M 588 2688 
L 5809 2688 
L 5809 2175 
L 588 2175 
L 588 2688 
z
" transform="scale(0.015625)"/>
      <path id="IPAexGothic-30c9" d="M 2247 4959 
L 2766 4959 
L 2766 3169 
Q 4050 2581 5178 1850 
L 4841 1331 
Q 3781 2138 2766 2650 
L 2766 -225 
L 2247 -225 
L 2247 4959 
z
M 5263 3847 
Q 4900 4388 4506 4716 
L 4806 4947 
Q 5191 4638 5581 4122 
L 5263 3847 
z
M 4666 3378 
Q 4375 3869 3931 4269 
L 4244 4513 
Q 4616 4206 5000 3653 
L 4666 3378 
z
" transform="scale(0.015625)"/>
     </defs>
     <use xlink:href="#IPAexGothic-5b9f"/>
     <use xlink:href="#IPAexGothic-884c" x="100"/>
     <use xlink:href="#IPAexGothic-30b3" x="200"/>
     <use xlink:href="#IPAexGothic-30fc" x="300"/>
     <use xlink:href="#IPAexGothic-30c9" x="400"/>
    </g>
   </g>
  </g>
 </g>
 <defs>
  <clipPath id="p34f938a1c6">
   <rect x="3.6" y="3.6" width="306.9" height="207.9"/>
  </clipPath>
 </defs>
</svg>