<?xml version="1.0" encoding="utf-8" standalone="no"?>
<!DOCTYPE svg PUBLIC "-//W3C//DTD SVG 1.1//EN"
  "http://www.w3.org/Graphics/SVG/1.1/DTD/svg11.dtd">
<svg xmlns:xlink="http://www.w3.org/1999/xlink" width="423pt" height="456.66pt" viewBox="0 0 423 456.66" xmlns="http://www.w3.org/2000/svg" version="1.1">
 <metadata>
  <rdf:RDF xmlns:dc="http://purl.org/dc/elements/1.1/" xmlns:cc="http://creativecommons.org/ns#" xmlns:rdf="http://www.w3.org/1999/02/22-rdf-syntax-ns#">
   <cc:Work>
    <dc:type rdf:resource="http://purl.org/dc/dcmitype/StillImage"/>
    <dc:date>2024-03-07T12:08:11.863950</dc:date>
    <dc:format>image/svg+xml</dc:format>
    <dc:creator>
     <cc:Agent>
      <dc:title>Matplotlib v3.8.3, https://matplotlib.org/</dc:title>
     </cc:Agent>
    </dc:creator>
   </cc:Work>
  </rdf:RDF>
 </metadata>
 <defs>
  <style type="text/css">*{stroke-linejoin: round; stroke-linecap: butt}</style>
 </defs>
 <g id="figure_1">
  <g id="patch_1">
   <path d="M 0 456.66 
L 423 456.66 
L 423 0 
L 0 0 
z
" style="fill: #ffffff"/>
  </g>
  <g id="axes_1">
   <g id="patch_2">
    <path d="M 130.5 60.03 
L 130.785587 60.027734 
L 131.071103 60.020938 
L 131.356474 60.009612 
L 131.641631 59.99376 
L 131.926499 59.973386 
L 132.211009 59.948495 
L 132.495088 59.919092 
L 132.778664 59.885187 
L 133.061667 59.846786 
L 133.344025 59.8039 
L 133.625667 59.75654 
L 133.906522 59.704717 
L 134.18652 59.648444 
L 134.46559 59.587736 
L 134.743661 59.522608 
L 135.020664 59.453077 
L 135.296529 59.379159 
L 135.571186 59.300874 
L 135.844567 59.21824 
L 136.116602 59.13128 
L 136.387223 59.040015 
L 136.656363 58.944467 
L 136.923952 58.844661 
L 137.189924 58.740623 
L 137.454212 58.632377 
L 137.71675 58.519952 
L 137.97747 58.403376 
L 138.236308 58.282678 
L 138.493199 58.157888 
L 138.748077 58.029038 
L 139.000879 57.896161 
L 139.251541 57.759289 
L 139.5 57.618457 
L 139.746193 57.473701 
L 139.990058 57.325058 
L 140.231535 57.172564 
L 140.470561 57.016257 
L 140.707078 56.856178 
L 140.941024 56.692367 
L 141.172343 56.524865 
L 141.400974 56.353713 
L 141.626862 56.178956 
L 141.849948 56.000636 
L 142.070177 55.8188 
L 142.287493 55.633492 
L 142.501842 55.44476 
L 142.713169 55.252651 
L 142.921422 55.057213 
L 143.126548 54.858495 
L 143.328495 54.656548 
L 143.527213 54.451422 
L 143.722651 54.243169 
L 143.91476 54.031842 
L 144.103492 53.817493 
L 144.2888 53.600177 
L 144.470636 53.379948 
L 144.648956 53.156862 
L 144.823713 52.930974 
L 144.994865 52.702343 
L 145.162367 52.471024 
L 145.326178 52.237078 
L 145.486257 52.000561 
L 145.642564 51.761535 
L 145.795058 51.520058 
L 145.943701 51.276193 
L 146.088457 51.03 
L 146.229289 50.781541 
L 146.366161 50.530879 
L 146.499038 50.278077 
L 146.627888 50.023199 
L 146.752678 49.766308 
L 146.873376 49.50747 
L 146.989952 49.24675 
L 147.102377 48.984212 
L 147.210623 48.719924 
L 147.314661 48.453952 
L 147.414467 48.186363 
L 147.510015 47.917223 
L 147.60128 47.646602 
L 147.68824 47.374567 
L 147.770874 47.101186 
L 147.849159 46.826529 
L 147.923077 46.550664 
L 147.992608 46.273661 
L 148.057736 45.99559 
L 148.118444 45.71652 
L 148.174717 45.436522 
L 148.22654 45.155667 
L 148.2739 44.874025 
L 148.316786 44.591667 
L 148.355187 44.308664 
L 148.389092 44.025088 
L 148.418495 43.741009 
L 148.443386 43.456499 
L 148.46376 43.171631 
L 148.479612 42.886474 
L 148.490938 42.601103 
L 148.497734 42.315587 
L 148.5 42.03 
L 148.5 42.03 
L 148.497734 41.744413 
L 148.490938 41.458897 
L 148.479612 41.173526 
L 148.46376 40.888369 
L 148.443386 40.603501 
L 148.418495 40.318991 
L 148.389092 40.034912 
L 148.355187 39.751336 
L 148.316786 39.468333 
L 148.2739 39.185975 
L 148.22654 38.904333 
L 148.174717 38.623478 
L 148.118444 38.34348 
L 148.057736 38.06441 
L 147.992608 37.786339 
L 147.923077 37.509336 
L 147.849159 37.233471 
L 147.770874 36.958814 
L 147.68824 36.685433 
L 147.60128 36.413398 
L 147.510015 36.142777 
L 147.414467 35.873637 
L 147.314661 35.606048 
L 147.210623 35.340076 
L 147.102377 35.075788 
L 146.989952 34.81325 
L 146.873376 34.55253 
L 146.752678 34.293692 
L 146.627888 34.036801 
L 146.499038 33.781923 
L 146.366161 33.529121 
L 146.229289 33.278459 
L 146.088457 33.03 
L 145.943701 32.783807 
L 145.795058 32.539942 
L 145.642564 32.298465 
L 145.486257 32.059439 
L 145.326178 31.822922 
L 145.162367 31.588976 
L 144.994865 31.357657 
L 144.823713 31.129026 
L 144.648956 30.903138 
L 144.470636 30.680052 
L 144.2888 30.459823 
L 144.103492 30.242507 
L 143.91476 30.028158 
L 143.722651 29.816831 
L 143.527213 29.608578 
L 143.328495 29.403452 
L 143.126548 29.201505 
L 142.921422 29.002787 
L 142.713169 28.807349 
L 142.501842 28.61524 
L 142.287493 28.426508 
L 142.070177 28.2412 
L 141.849948 28.059364 
L 141.626862 27.881044 
L 141.400974 27.706287 
L 141.172343 27.535135 
L 140.941024 27.367633 
L 140.707078 27.203822 
L 140.470561 27.043743 
L 140.231535 26.887436 
L 139.990058 26.734942 
L 139.746193 26.586299 
L 139.5 26.441543 
L 139.251541 26.300711 
L 139.000879 26.163839 
L 138.748077 26.030962 
L 138.493199 25.902112 
L 138.236308 25.777322 
L 137.97747 25.656624 
L 137.71675 25.540048 
L 137.454212 25.427623 
L 137.189924 25.319377 
L 136.923952 25.215339 
L 136.656363 25.115533 
L 136.387223 25.019985 
L 136.116602 24.92872 
L 135.844567 24.84176 
L 135.571186 24.759126 
L 135.296529 24.680841 
L 135.020664 24.606923 
L 134.743661 24.537392 
L 134.46559 24.472264 
L 134.18652 24.411556 
L 133.906522 24.355283 
L 133.625667 24.30346 
L 133.344025 24.2561 
L 133.061667 24.213214 
L 132.778664 24.174813 
L 132.495088 24.140908 
L 132.211009 24.111505 
L 131.926499 24.086614 
L 131.641631 24.06624 
L 131.356474 24.050388 
L 131.071103 24.039062 
L 130.785587 24.032266 
L 130.5 24.03 
L 94.5 24.03 
L 94.214413 24.032266 
L 93.928897 24.039062 
L 93.643526 24.050388 
L 93.358369 24.06624 
L 93.073501 24.086614 
L 92.788991 24.111505 
L 92.504912 24.140908 
L 92.221336 24.174813 
L 91.938333 24.213214 
L 91.655975 24.2561 
L 91.374333 24.30346 
L 91.093478 24.355283 
L 90.81348 24.411556 
L 90.53441 24.472264 
L 90.256339 24.537392 
L 89.979336 24.606923 
L 89.703471 24.680841 
L 89.428814 24.759126 
L 89.155433 24.84176 
L 88.883398 24.92872 
L 88.612777 25.019985 
L 88.343637 25.115533 
L 88.076048 25.215339 
L 87.810076 25.319377 
L 87.545788 25.427623 
L 87.28325 25.540048 
L 87.02253 25.656624 
L 86.763692 25.777322 
L 86.506801 25.902112 
L 86.251923 26.030962 
L 85.999121 26.163839 
L 85.748459 26.300711 
L 85.5 26.441543 
L 85.253807 26.586299 
L 85.009942 26.734942 
L 84.768465 26.887436 
L 84.529439 27.043743 
L 84.292922 27.203822 
L 84.058976 27.367633 
L 83.827657 27.535135 
L 83.599026 27.706287 
L 83.373138 27.881044 
L 83.150052 28.059364 
L 82.929823 28.2412 
L 82.712507 28.426508 
L 82.498158 28.61524 
L 82.286831 28.807349 
L 82.078578 29.002787 
L 81.873452 29.201505 
L 81.671505 29.403452 
L 81.472787 29.608578 
L 81.277349 29.816831 
L 81.08524 30.028158 
L 80.896508 30.242507 
L 80.7112 30.459823 
L 80.529364 30.680052 
L 80.351044 30.903138 
L 80.176287 31.129026 
L 80.005135 31.357657 
L 79.837633 31.588976 
L 79.673822 31.822922 
L 79.513743 32.059439 
L 79.357436 32.298465 
L 79.204942 32.539942 
L 79.056299 32.783807 
L 78.911543 33.03 
L 78.770711 33.278459 
L 78.633839 33.529121 
L 78.500962 33.781923 
L 78.372112 34.036801 
L 78.247322 34.293692 
L 78.126624 34.55253 
L 78.010048 34.81325 
L 77.897623 35.075788 
L 77.789377 35.340076 
L 77.685339 35.606048 
L 77.585533 35.873637 
L 77.489985 36.142777 
L 77.39872 36.413398 
L 77.31176 36.685433 
L 77.229126 36.958814 
L 77.150841 37.233471 
L 77.076923 37.509336 
L 77.007392 37.786339 
L 76.942264 38.06441 
L 76.881556 38.34348 
L 76.825283 38.623478 
L 76.77346 38.904333 
L 76.7261 39.185975 
L 76.683214 39.468333 
L 76.644813 39.751336 
L 76.610908 40.034912 
L 76.581505 40.318991 
L 76.556614 40.603501 
L 76.53624 40.888369 
L 76.520388 41.173526 
L 76.509062 41.458897 
L 76.502266 41.744413 
L 76.5 42.03 
L 76.5 42.03 
L 76.502266 42.315587 
L 76.509062 42.601103 
L 76.520388 42.886474 
L 76.53624 43.171631 
L 76.556614 43.456499 
L 76.581505 43.741009 
L 76.610908 44.025088 
L 76.644813 44.308664 
L 76.683214 44.591667 
L 76.7261 44.874025 
L 76.77346 45.155667 
L 76.825283 45.436522 
L 76.881556 45.71652 
L 76.942264 45.99559 
L 77.007392 46.273661 
L 77.076923 46.550664 
L 77.150841 46.826529 
L 77.229126 47.101186 
L 77.31176 47.374567 
L 77.39872 47.646602 
L 77.489985 47.917223 
L 77.585533 48.186363 
L 77.685339 48.453952 
L 77.789377 48.719924 
L 77.897623 48.984212 
L 78.010048 49.24675 
L 78.126624 49.50747 
L 78.247322 49.766308 
L 78.372112 50.023199 
L 78.500962 50.278077 
L 78.633839 50.530879 
L 78.770711 50.781541 
L 78.911543 51.03 
L 79.056299 51.276193 
L 79.204942 51.520058 
L 79.357436 51.761535 
L 79.513743 52.000561 
L 79.673822 52.237078 
L 79.837633 52.471024 
L 80.005135 52.702343 
L 80.176287 52.930974 
L 80.351044 53.156862 
L 80.529364 53.379948 
L 80.7112 53.600177 
L 80.896508 53.817493 
L 81.08524 54.031842 
L 81.277349 54.243169 
L 81.472787 54.451422 
L 81.671505 54.656548 
L 81.873452 54.858495 
L 82.078578 55.057213 
L 82.286831 55.252651 
L 82.498158 55.44476 
L 82.712507 55.633492 
L 82.929823 55.8188 
L 83.150052 56.000636 
L 83.373138 56.178956 
L 83.599026 56.353713 
L 83.827657 56.524865 
L 84.058976 56.692367 
L 84.292922 56.856178 
L 84.529439 57.016257 
L 84.768465 57.172564 
L 85.009942 57.325058 
L 85.253807 57.473701 
L 85.5 57.618457 
L 85.748459 57.759289 
L 85.999121 57.896161 
L 86.251923 58.029038 
L 86.506801 58.157888 
L 86.763692 58.282678 
L 87.02253 58.403376 
L 87.28325 58.519952 
L 87.545788 58.632377 
L 87.810076 58.740623 
L 88.076048 58.844661 
L 88.343637 58.944467 
L 88.612777 59.040015 
L 88.883398 59.13128 
L 89.155433 59.21824 
L 89.428814 59.300874 
L 89.703471 59.379159 
L 89.979336 59.453077 
L 90.256339 59.522608 
L 90.53441 59.587736 
L 90.81348 59.648444 
L 91.093478 59.704717 
L 91.374333 59.75654 
L 91.655975 59.8039 
L 91.938333 59.846786 
L 92.221336 59.885187 
L 92.504912 59.919092 
L 92.788991 59.948495 
L 93.073501 59.973386 
L 93.358369 59.99376 
L 93.643526 60.009612 
L 93.928897 60.020938 
L 94.214413 60.027734 
L 94.5 60.03 
L 130.5 60.03 
z
" clip-path="url(#p6dc7e43029)" style="fill: none; stroke: #000000; stroke-linecap: round"/>
   </g>
   <g id="patch_3">
    <path d="M 22.5 173.43 
L 112.5 150.03 
L 202.5 173.43 
L 112.5 196.83 
L 22.5 173.43 
z
" clip-path="url(#p6dc7e43029)" style="fill: none; stroke: #000000; stroke-linecap: round"/>
   </g>
   <g id="patch_4">
    <path d="M 346.5 249.03 
L 346.785587 249.027734 
L 347.071103 249.020938 
L 347.356474 249.009612 
L 347.641631 248.99376 
L 347.926499 248.973386 
L 348.211009 248.948495 
L 348.495088 248.919092 
L 348.778664 248.885187 
L 349.061667 248.846786 
L 349.344025 248.8039 
L 349.625667 248.75654 
L 349.906522 248.704717 
L 350.18652 248.648444 
L 350.46559 248.587736 
L 350.743661 248.522608 
L 351.020664 248.453077 
L 351.296529 248.379159 
L 351.571186 248.300874 
L 351.844567 248.21824 
L 352.116602 248.13128 
L 352.387223 248.040015 
L 352.656363 247.944467 
L 352.923952 247.844661 
L 353.189924 247.740623 
L 353.454212 247.632377 
L 353.71675 247.519952 
L 353.97747 247.403376 
L 354.236308 247.282678 
L 354.493199 247.157888 
L 354.748077 247.029038 
L 355.000879 246.896161 
L 355.251541 246.759289 
L 355.5 246.618457 
L 355.746193 246.473701 
L 355.990058 246.325058 
L 356.231535 246.172564 
L 356.470561 246.016257 
L 356.707078 245.856178 
L 356.941024 245.692367 
L 357.172343 245.524865 
L 357.400974 245.353713 
L 357.626862 245.178956 
L 357.849948 245.000636 
L 358.070177 244.8188 
L 358.287493 244.633492 
L 358.501842 244.44476 
L 358.713169 244.252651 
L 358.921422 244.057213 
L 359.126548 243.858495 
L 359.328495 243.656548 
L 359.527213 243.451422 
L 359.722651 243.243169 
L 359.91476 243.031842 
L 360.103492 242.817493 
L 360.2888 242.600177 
L 360.470636 242.379948 
L 360.648956 242.156862 
L 360.823713 241.930974 
L 360.994865 241.702343 
L 361.162367 241.471024 
L 361.326178 241.237078 
L 361.486257 241.000561 
L 361.642564 240.761535 
L 361.795058 240.520058 
L 361.943701 240.276193 
L 362.088457 240.03 
L 362.229289 239.781541 
L 362.366161 239.530879 
L 362.499038 239.278077 
L 362.627888 239.023199 
L 362.752678 238.766308 
L 362.873376 238.50747 
L 362.989952 238.24675 
L 363.102377 237.984212 
L 363.210623 237.719924 
L 363.314661 237.453952 
L 363.414467 237.186363 
L 363.510015 236.917223 
L 363.60128 236.646602 
L 363.68824 236.374567 
L 363.770874 236.101186 
L 363.849159 235.826529 
L 363.923077 235.550664 
L 363.992608 235.273661 
L 364.057736 234.99559 
L 364.118444 234.71652 
L 364.174717 234.436522 
L 364.22654 234.155667 
L 364.2739 233.874025 
L 364.316786 233.591667 
L 364.355187 233.308664 
L 364.389092 233.025088 
L 364.418495 232.741009 
L 364.443386 232.456499 
L 364.46376 232.171631 
L 364.479612 231.886474 
L 364.490938 231.601103 
L 364.497734 231.315587 
L 364.5 231.03 
L 364.5 231.03 
L 364.497734 230.744413 
L 364.490938 230.458897 
L 364.479612 230.173526 
L 364.46376 229.888369 
L 364.443386 229.603501 
L 364.418495 229.318991 
L 364.389092 229.034912 
L 364.355187 228.751336 
L 364.316786 228.468333 
L 364.2739 228.185975 
L 364.22654 227.904333 
L 364.174717 227.623478 
L 364.118444 227.34348 
L 364.057736 227.06441 
L 363.992608 226.786339 
L 363.923077 226.509336 
L 363.849159 226.233471 
L 363.770874 225.958814 
L 363.68824 225.685433 
L 363.60128 225.413398 
L 363.510015 225.142777 
L 363.414467 224.873637 
L 363.314661 224.606048 
L 363.210623 224.340076 
L 363.102377 224.075788 
L 362.989952 223.81325 
L 362.873376 223.55253 
L 362.752678 223.293692 
L 362.627888 223.036801 
L 362.499038 222.781923 
L 362.366161 222.529121 
L 362.229289 222.278459 
L 362.088457 222.03 
L 361.943701 221.783807 
L 361.795058 221.539942 
L 361.642564 221.298465 
L 361.486257 221.059439 
L 361.326178 220.822922 
L 361.162367 220.588976 
L 360.994865 220.357657 
L 360.823713 220.129026 
L 360.648956 219.903138 
L 360.470636 219.680052 
L 360.2888 219.459823 
L 360.103492 219.242507 
L 359.91476 219.028158 
L 359.722651 218.816831 
L 359.527213 218.608578 
L 359.328495 218.403452 
L 359.126548 218.201505 
L 358.921422 218.002787 
L 358.713169 217.807349 
L 358.501842 217.61524 
L 358.287493 217.426508 
L 358.070177 217.2412 
L 357.849948 217.059364 
L 357.626862 216.881044 
L 357.400974 216.706287 
L 357.172343 216.535135 
L 356.941024 216.367633 
L 356.707078 216.203822 
L 356.470561 216.043743 
L 356.231535 215.887436 
L 355.990058 215.734942 
L 355.746193 215.586299 
L 355.5 215.441543 
L 355.251541 215.300711 
L 355.000879 215.163839 
L 354.748077 215.030962 
L 354.493199 214.902112 
L 354.236308 214.777322 
L 353.97747 214.656624 
L 353.71675 214.540048 
L 353.454212 214.427623 
L 353.189924 214.319377 
L 352.923952 214.215339 
L 352.656363 214.115533 
L 352.387223 214.019985 
L 352.116602 213.92872 
L 351.844567 213.84176 
L 351.571186 213.759126 
L 351.296529 213.680841 
L 351.020664 213.606923 
L 350.743661 213.537392 
L 350.46559 213.472264 
L 350.18652 213.411556 
L 349.906522 213.355283 
L 349.625667 213.30346 
L 349.344025 213.2561 
L 349.061667 213.213214 
L 348.778664 213.174813 
L 348.495088 213.140908 
L 348.211009 213.111505 
L 347.926499 213.086614 
L 347.641631 213.06624 
L 347.356474 213.050388 
L 347.071103 213.039062 
L 346.785587 213.032266 
L 346.5 213.03 
L 310.5 213.03 
L 310.214413 213.032266 
L 309.928897 213.039062 
L 309.643526 213.050388 
L 309.358369 213.06624 
L 309.073501 213.086614 
L 308.788991 213.111505 
L 308.504912 213.140908 
L 308.221336 213.174813 
L 307.938333 213.213214 
L 307.655975 213.2561 
L 307.374333 213.30346 
L 307.093478 213.355283 
L 306.81348 213.411556 
L 306.53441 213.472264 
L 306.256339 213.537392 
L 305.979336 213.606923 
L 305.703471 213.680841 
L 305.428814 213.759126 
L 305.155433 213.84176 
L 304.883398 213.92872 
L 304.612777 214.019985 
L 304.343637 214.115533 
L 304.076048 214.215339 
L 303.810076 214.319377 
L 303.545788 214.427623 
L 303.28325 214.540048 
L 303.02253 214.656624 
L 302.763692 214.777322 
L 302.506801 214.902112 
L 302.251923 215.030962 
L 301.999121 215.163839 
L 301.748459 215.300711 
L 301.5 215.441543 
L 301.253807 215.586299 
L 301.009942 215.734942 
L 300.768465 215.887436 
L 300.529439 216.043743 
L 300.292922 216.203822 
L 300.058976 216.367633 
L 299.827657 216.535135 
L 299.599026 216.706287 
L 299.373138 216.881044 
L 299.150052 217.059364 
L 298.929823 217.2412 
L 298.712507 217.426508 
L 298.498158 217.61524 
L 298.286831 217.807349 
L 298.078578 218.002787 
L 297.873452 218.201505 
L 297.671505 218.403452 
L 297.472787 218.608578 
L 297.277349 218.816831 
L 297.08524 219.028158 
L 296.896508 219.242507 
L 296.7112 219.459823 
L 296.529364 219.680052 
L 296.351044 219.903138 
L 296.176287 220.129026 
L 296.005135 220.357657 
L 295.837633 220.588976 
L 295.673822 220.822922 
L 295.513743 221.059439 
L 295.357436 221.298465 
L 295.204942 221.539942 
L 295.056299 221.783807 
L 294.911543 222.03 
L 294.770711 222.278459 
L 294.633839 222.529121 
L 294.500962 222.781923 
L 294.372112 223.036801 
L 294.247322 223.293692 
L 294.126624 223.55253 
L 294.010048 223.81325 
L 293.897623 224.075788 
L 293.789377 224.340076 
L 293.685339 224.606048 
L 293.585533 224.873637 
L 293.489985 225.142777 
L 293.39872 225.413398 
L 293.31176 225.685433 
L 293.229126 225.958814 
L 293.150841 226.233471 
L 293.076923 226.509336 
L 293.007392 226.786339 
L 292.942264 227.06441 
L 292.881556 227.34348 
L 292.825283 227.623478 
L 292.77346 227.904333 
L 292.7261 228.185975 
L 292.683214 228.468333 
L 292.644813 228.751336 
L 292.610908 229.034912 
L 292.581505 229.318991 
L 292.556614 229.603501 
L 292.53624 229.888369 
L 292.520388 230.173526 
L 292.509062 230.458897 
L 292.502266 230.744413 
L 292.5 231.03 
L 292.5 231.03 
L 292.502266 231.315587 
L 292.509062 231.601103 
L 292.520388 231.886474 
L 292.53624 232.171631 
L 292.556614 232.456499 
L 292.581505 232.741009 
L 292.610908 233.025088 
L 292.644813 233.308664 
L 292.683214 233.591667 
L 292.7261 233.874025 
L 292.77346 234.155667 
L 292.825283 234.436522 
L 292.881556 234.71652 
L 292.942264 234.99559 
L 293.007392 235.273661 
L 293.076923 235.550664 
L 293.150841 235.826529 
L 293.229126 236.101186 
L 293.31176 236.374567 
L 293.39872 236.646602 
L 293.489985 236.917223 
L 293.585533 237.186363 
L 293.685339 237.453952 
L 293.789377 237.719924 
L 293.897623 237.984212 
L 294.010048 238.24675 
L 294.126624 238.50747 
L 294.247322 238.766308 
L 294.372112 239.023199 
L 294.500962 239.278077 
L 294.633839 239.530879 
L 294.770711 239.781541 
L 294.911543 240.03 
L 295.056299 240.276193 
L 295.204942 240.520058 
L 295.357436 240.761535 
L 295.513743 241.000561 
L 295.673822 241.237078 
L 295.837633 241.471024 
L 296.005135 241.702343 
L 296.176287 241.930974 
L 296.351044 242.156862 
L 296.529364 242.379948 
L 296.7112 242.600177 
L 296.896508 242.817493 
L 297.08524 243.031842 
L 297.277349 243.243169 
L 297.472787 243.451422 
L 297.671505 243.656548 
L 297.873452 243.858495 
L 298.078578 244.057213 
L 298.286831 244.252651 
L 298.498158 244.44476 
L 298.712507 244.633492 
L 298.929823 244.8188 
L 299.150052 245.000636 
L 299.373138 245.178956 
L 299.599026 245.353713 
L 299.827657 245.524865 
L 300.058976 245.692367 
L 300.292922 245.856178 
L 300.529439 246.016257 
L 300.768465 246.172564 
L 301.009942 246.325058 
L 301.253807 246.473701 
L 301.5 246.618457 
L 301.748459 246.759289 
L 301.999121 246.896161 
L 302.251923 247.029038 
L 302.506801 247.157888 
L 302.763692 247.282678 
L 303.02253 247.403376 
L 303.28325 247.519952 
L 303.545788 247.632377 
L 303.810076 247.740623 
L 304.076048 247.844661 
L 304.343637 247.944467 
L 304.612777 248.040015 
L 304.883398 248.13128 
L 305.155433 248.21824 
L 305.428814 248.300874 
L 305.703471 248.379159 
L 305.979336 248.453077 
L 306.256339 248.522608 
L 306.53441 248.587736 
L 306.81348 248.648444 
L 307.093478 248.704717 
L 307.374333 248.75654 
L 307.655975 248.8039 
L 307.938333 248.846786 
L 308.221336 248.885187 
L 308.504912 248.919092 
L 308.788991 248.948495 
L 309.073501 248.973386 
L 309.358369 248.99376 
L 309.643526 249.009612 
L 309.928897 249.020938 
L 310.214413 249.027734 
L 310.5 249.03 
L 346.5 249.03 
z
" clip-path="url(#p6dc7e43029)" style="fill: none; stroke: #000000; stroke-linecap: round"/>
   </g>
   <g id="patch_5">
    <path d="M 22.5 274.23 
L 112.5 250.83 
L 202.5 274.23 
L 112.5 297.63 
L 22.5 274.23 
z
" clip-path="url(#p6dc7e43029)" style="fill: none; stroke: #000000; stroke-linecap: round"/>
   </g>
   <g id="patch_6">
    <path d="M 346.5 349.83 
L 346.785587 349.827734 
L 347.071103 349.820938 
L 347.356474 349.809612 
L 347.641631 349.79376 
L 347.926499 349.773386 
L 348.211009 349.748495 
L 348.495088 349.719092 
L 348.778664 349.685187 
L 349.061667 349.646786 
L 349.344025 349.6039 
L 349.625667 349.55654 
L 349.906522 349.504717 
L 350.18652 349.448444 
L 350.46559 349.387736 
L 350.743661 349.322608 
L 351.020664 349.253077 
L 351.296529 349.179159 
L 351.571186 349.100874 
L 351.844567 349.01824 
L 352.116602 348.93128 
L 352.387223 348.840015 
L 352.656363 348.744467 
L 352.923952 348.644661 
L 353.189924 348.540623 
L 353.454212 348.432377 
L 353.71675 348.319952 
L 353.97747 348.203376 
L 354.236308 348.082678 
L 354.493199 347.957888 
L 354.748077 347.829038 
L 355.000879 347.696161 
L 355.251541 347.559289 
L 355.5 347.418457 
L 355.746193 347.273701 
L 355.990058 347.125058 
L 356.231535 346.972564 
L 356.470561 346.816257 
L 356.707078 346.656178 
L 356.941024 346.492367 
L 357.172343 346.324865 
L 357.400974 346.153713 
L 357.626862 345.978956 
L 357.849948 345.800636 
L 358.070177 345.6188 
L 358.287493 345.433492 
L 358.501842 345.24476 
L 358.713169 345.052651 
L 358.921422 344.857213 
L 359.126548 344.658495 
L 359.328495 344.456548 
L 359.527213 344.251422 
L 359.722651 344.043169 
L 359.91476 343.831842 
L 360.103492 343.617493 
L 360.2888 343.400177 
L 360.470636 343.179948 
L 360.648956 342.956862 
L 360.823713 342.730974 
L 360.994865 342.502343 
L 361.162367 342.271024 
L 361.326178 342.037078 
L 361.486257 341.800561 
L 361.642564 341.561535 
L 361.795058 341.320058 
L 361.943701 341.076193 
L 362.088457 340.83 
L 362.229289 340.581541 
L 362.366161 340.330879 
L 362.499038 340.078077 
L 362.627888 339.823199 
L 362.752678 339.566308 
L 362.873376 339.30747 
L 362.989952 339.04675 
L 363.102377 338.784212 
L 363.210623 338.519924 
L 363.314661 338.253952 
L 363.414467 337.986363 
L 363.510015 337.717223 
L 363.60128 337.446602 
L 363.68824 337.174567 
L 363.770874 336.901186 
L 363.849159 336.626529 
L 363.923077 336.350664 
L 363.992608 336.073661 
L 364.057736 335.79559 
L 364.118444 335.51652 
L 364.174717 335.236522 
L 364.22654 334.955667 
L 364.2739 334.674025 
L 364.316786 334.391667 
L 364.355187 334.108664 
L 364.389092 333.825088 
L 364.418495 333.541009 
L 364.443386 333.256499 
L 364.46376 332.971631 
L 364.479612 332.686474 
L 364.490938 332.401103 
L 364.497734 332.115587 
L 364.5 331.83 
L 364.5 331.83 
L 364.497734 331.544413 
L 364.490938 331.258897 
L 364.479612 330.973526 
L 364.46376 330.688369 
L 364.443386 330.403501 
L 364.418495 330.118991 
L 364.389092 329.834912 
L 364.355187 329.551336 
L 364.316786 329.268333 
L 364.2739 328.985975 
L 364.22654 328.704333 
L 364.174717 328.423478 
L 364.118444 328.14348 
L 364.057736 327.86441 
L 363.992608 327.586339 
L 363.923077 327.309336 
L 363.849159 327.033471 
L 363.770874 326.758814 
L 363.68824 326.485433 
L 363.60128 326.213398 
L 363.510015 325.942777 
L 363.414467 325.673637 
L 363.314661 325.406048 
L 363.210623 325.140076 
L 363.102377 324.875788 
L 362.989952 324.61325 
L 362.873376 324.35253 
L 362.752678 324.093692 
L 362.627888 323.836801 
L 362.499038 323.581923 
L 362.366161 323.329121 
L 362.229289 323.078459 
L 362.088457 322.83 
L 361.943701 322.583807 
L 361.795058 322.339942 
L 361.642564 322.098465 
L 361.486257 321.859439 
L 361.326178 321.622922 
L 361.162367 321.388976 
L 360.994865 321.157657 
L 360.823713 320.929026 
L 360.648956 320.703138 
L 360.470636 320.480052 
L 360.2888 320.259823 
L 360.103492 320.042507 
L 359.91476 319.828158 
L 359.722651 319.616831 
L 359.527213 319.408578 
L 359.328495 319.203452 
L 359.126548 319.001505 
L 358.921422 318.802787 
L 358.713169 318.607349 
L 358.501842 318.41524 
L 358.287493 318.226508 
L 358.070177 318.0412 
L 357.849948 317.859364 
L 357.626862 317.681044 
L 357.400974 317.506287 
L 357.172343 317.335135 
L 356.941024 317.167633 
L 356.707078 317.003822 
L 356.470561 316.843743 
L 356.231535 316.687436 
L 355.990058 316.534942 
L 355.746193 316.386299 
L 355.5 316.241543 
L 355.251541 316.100711 
L 355.000879 315.963839 
L 354.748077 315.830962 
L 354.493199 315.702112 
L 354.236308 315.577322 
L 353.97747 315.456624 
L 353.71675 315.340048 
L 353.454212 315.227623 
L 353.189924 315.119377 
L 352.923952 315.015339 
L 352.656363 314.915533 
L 352.387223 314.819985 
L 352.116602 314.72872 
L 351.844567 314.64176 
L 351.571186 314.559126 
L 351.296529 314.480841 
L 351.020664 314.406923 
L 350.743661 314.337392 
L 350.46559 314.272264 
L 350.18652 314.211556 
L 349.906522 314.155283 
L 349.625667 314.10346 
L 349.344025 314.0561 
L 349.061667 314.013214 
L 348.778664 313.974813 
L 348.495088 313.940908 
L 348.211009 313.911505 
L 347.926499 313.886614 
L 347.641631 313.86624 
L 347.356474 313.850388 
L 347.071103 313.839062 
L 346.785587 313.832266 
L 346.5 313.83 
L 310.5 313.83 
L 310.214413 313.832266 
L 309.928897 313.839062 
L 309.643526 313.850388 
L 309.358369 313.86624 
L 309.073501 313.886614 
L 308.788991 313.911505 
L 308.504912 313.940908 
L 308.221336 313.974813 
L 307.938333 314.013214 
L 307.655975 314.0561 
L 307.374333 314.10346 
L 307.093478 314.155283 
L 306.81348 314.211556 
L 306.53441 314.272264 
L 306.256339 314.337392 
L 305.979336 314.406923 
L 305.703471 314.480841 
L 305.428814 314.559126 
L 305.155433 314.64176 
L 304.883398 314.72872 
L 304.612777 314.819985 
L 304.343637 314.915533 
L 304.076048 315.015339 
L 303.810076 315.119377 
L 303.545788 315.227623 
L 303.28325 315.340048 
L 303.02253 315.456624 
L 302.763692 315.577322 
L 302.506801 315.702112 
L 302.251923 315.830962 
L 301.999121 315.963839 
L 301.748459 316.100711 
L 301.5 316.241543 
L 301.253807 316.386299 
L 301.009942 316.534942 
L 300.768465 316.687436 
L 300.529439 316.843743 
L 300.292922 317.003822 
L 300.058976 317.167633 
L 299.827657 317.335135 
L 299.599026 317.506287 
L 299.373138 317.681044 
L 299.150052 317.859364 
L 298.929823 318.0412 
L 298.712507 318.226508 
L 298.498158 318.41524 
L 298.286831 318.607349 
L 298.078578 318.802787 
L 297.873452 319.001505 
L 297.671505 319.203452 
L 297.472787 319.408578 
L 297.277349 319.616831 
L 297.08524 319.828158 
L 296.896508 320.042507 
L 296.7112 320.259823 
L 296.529364 320.480052 
L 296.351044 320.703138 
L 296.176287 320.929026 
L 296.005135 321.157657 
L 295.837633 321.388976 
L 295.673822 321.622922 
L 295.513743 321.859439 
L 295.357436 322.098465 
L 295.204942 322.339942 
L 295.056299 322.583807 
L 294.911543 322.83 
L 294.770711 323.078459 
L 294.633839 323.329121 
L 294.500962 323.581923 
L 294.372112 323.836801 
L 294.247322 324.093692 
L 294.126624 324.35253 
L 294.010048 324.61325 
L 293.897623 324.875788 
L 293.789377 325.140076 
L 293.685339 325.406048 
L 293.585533 325.673637 
L 293.489985 325.942777 
L 293.39872 326.213398 
L 293.31176 326.485433 
L 293.229126 326.758814 
L 293.150841 327.033471 
L 293.076923 327.309336 
L 293.007392 327.586339 
L 292.942264 327.86441 
L 292.881556 328.14348 
L 292.825283 328.423478 
L 292.77346 328.704333 
L 292.7261 328.985975 
L 292.683214 329.268333 
L 292.644813 329.551336 
L 292.610908 329.834912 
L 292.581505 330.118991 
L 292.556614 330.403501 
L 292.53624 330.688369 
L 292.520388 330.973526 
L 292.509062 331.258897 
L 292.502266 331.544413 
L 292.5 331.83 
L 292.5 331.83 
L 292.502266 332.115587 
L 292.509062 332.401103 
L 292.520388 332.686474 
L 292.53624 332.971631 
L 292.556614 333.256499 
L 292.581505 333.541009 
L 292.610908 333.825088 
L 292.644813 334.108664 
L 292.683214 334.391667 
L 292.7261 334.674025 
L 292.77346 334.955667 
L 292.825283 335.236522 
L 292.881556 335.51652 
L 292.942264 335.79559 
L 293.007392 336.073661 
L 293.076923 336.350664 
L 293.150841 336.626529 
L 293.229126 336.901186 
L 293.31176 337.174567 
L 293.39872 337.446602 
L 293.489985 337.717223 
L 293.585533 337.986363 
L 293.685339 338.253952 
L 293.789377 338.519924 
L 293.897623 338.784212 
L 294.010048 339.04675 
L 294.126624 339.30747 
L 294.247322 339.566308 
L 294.372112 339.823199 
L 294.500962 340.078077 
L 294.633839 340.330879 
L 294.770711 340.581541 
L 294.911543 340.83 
L 295.056299 341.076193 
L 295.204942 341.320058 
L 295.357436 341.561535 
L 295.513743 341.800561 
L 295.673822 342.037078 
L 295.837633 342.271024 
L 296.005135 342.502343 
L 296.176287 342.730974 
L 296.351044 342.956862 
L 296.529364 343.179948 
L 296.7112 343.400177 
L 296.896508 343.617493 
L 297.08524 343.831842 
L 297.277349 344.043169 
L 297.472787 344.251422 
L 297.671505 344.456548 
L 297.873452 344.658495 
L 298.078578 344.857213 
L 298.286831 345.052651 
L 298.498158 345.24476 
L 298.712507 345.433492 
L 298.929823 345.6188 
L 299.150052 345.800636 
L 299.373138 345.978956 
L 299.599026 346.153713 
L 299.827657 346.324865 
L 300.058976 346.492367 
L 300.292922 346.656178 
L 300.529439 346.816257 
L 300.768465 346.972564 
L 301.009942 347.125058 
L 301.253807 347.273701 
L 301.5 347.418457 
L 301.748459 347.559289 
L 301.999121 347.696161 
L 302.251923 347.829038 
L 302.506801 347.957888 
L 302.763692 348.082678 
L 303.02253 348.203376 
L 303.28325 348.319952 
L 303.545788 348.432377 
L 303.810076 348.540623 
L 304.076048 348.644661 
L 304.343637 348.744467 
L 304.612777 348.840015 
L 304.883398 348.93128 
L 305.155433 349.01824 
L 305.428814 349.100874 
L 305.703471 349.179159 
L 305.979336 349.253077 
L 306.256339 349.322608 
L 306.53441 349.387736 
L 306.81348 349.448444 
L 307.093478 349.504717 
L 307.374333 349.55654 
L 307.655975 349.6039 
L 307.938333 349.646786 
L 308.221336 349.685187 
L 308.504912 349.719092 
L 308.788991 349.748495 
L 309.073501 349.773386 
L 309.358369 349.79376 
L 309.643526 349.809612 
L 309.928897 349.820938 
L 310.214413 349.827734 
L 310.5 349.83 
L 346.5 349.83 
z
" clip-path="url(#p6dc7e43029)" style="fill: none; stroke: #000000; stroke-linecap: round"/>
   </g>
   <g id="patch_7">
    <path d="M 130.5 432.63 
L 130.785587 432.627734 
L 131.071103 432.620938 
L 131.356474 432.609612 
L 131.641631 432.59376 
L 131.926499 432.573386 
L 132.211009 432.548495 
L 132.495088 432.519092 
L 132.778664 432.485187 
L 133.061667 432.446786 
L 133.344025 432.4039 
L 133.625667 432.35654 
L 133.906522 432.304717 
L 134.18652 432.248444 
L 134.46559 432.187736 
L 134.743661 432.122608 
L 135.020664 432.053077 
L 135.296529 431.979159 
L 135.571186 431.900874 
L 135.844567 431.81824 
L 136.116602 431.73128 
L 136.387223 431.640015 
L 136.656363 431.544467 
L 136.923952 431.444661 
L 137.189924 431.340623 
L 137.454212 431.232377 
L 137.71675 431.119952 
L 137.97747 431.003376 
L 138.236308 430.882678 
L 138.493199 430.757888 
L 138.748077 430.629038 
L 139.000879 430.496161 
L 139.251541 430.359289 
L 139.5 430.218457 
L 139.746193 430.073701 
L 139.990058 429.925058 
L 140.231535 429.772564 
L 140.470561 429.616257 
L 140.707078 429.456178 
L 140.941024 429.292367 
L 141.172343 429.124865 
L 141.400974 428.953713 
L 141.626862 428.778956 
L 141.849948 428.600636 
L 142.070177 428.4188 
L 142.287493 428.233492 
L 142.501842 428.04476 
L 142.713169 427.852651 
L 142.921422 427.657213 
L 143.126548 427.458495 
L 143.328495 427.256548 
L 143.527213 427.051422 
L 143.722651 426.843169 
L 143.91476 426.631842 
L 144.103492 426.417493 
L 144.2888 426.200177 
L 144.470636 425.979948 
L 144.648956 425.756862 
L 144.823713 425.530974 
L 144.994865 425.302343 
L 145.162367 425.071024 
L 145.326178 424.837078 
L 145.486257 424.600561 
L 145.642564 424.361535 
L 145.795058 424.120058 
L 145.943701 423.876193 
L 146.088457 423.63 
L 146.229289 423.381541 
L 146.366161 423.130879 
L 146.499038 422.878077 
L 146.627888 422.623199 
L 146.752678 422.366308 
L 146.873376 422.10747 
L 146.989952 421.84675 
L 147.102377 421.584212 
L 147.210623 421.319924 
L 147.314661 421.053952 
L 147.414467 420.786363 
L 147.510015 420.517223 
L 147.60128 420.246602 
L 147.68824 419.974567 
L 147.770874 419.701186 
L 147.849159 419.426529 
L 147.923077 419.150664 
L 147.992608 418.873661 
L 148.057736 418.59559 
L 148.118444 418.31652 
L 148.174717 418.036522 
L 148.22654 417.755667 
L 148.2739 417.474025 
L 148.316786 417.191667 
L 148.355187 416.908664 
L 148.389092 416.625088 
L 148.418495 416.341009 
L 148.443386 416.056499 
L 148.46376 415.771631 
L 148.479612 415.486474 
L 148.490938 415.201103 
L 148.497734 414.915587 
L 148.5 414.63 
L 148.5 414.63 
L 148.497734 414.344413 
L 148.490938 414.058897 
L 148.479612 413.773526 
L 148.46376 413.488369 
L 148.443386 413.203501 
L 148.418495 412.918991 
L 148.389092 412.634912 
L 148.355187 412.351336 
L 148.316786 412.068333 
L 148.2739 411.785975 
L 148.22654 411.504333 
L 148.174717 411.223478 
L 148.118444 410.94348 
L 148.057736 410.66441 
L 147.992608 410.386339 
L 147.923077 410.109336 
L 147.849159 409.833471 
L 147.770874 409.558814 
L 147.68824 409.285433 
L 147.60128 409.013398 
L 147.510015 408.742777 
L 147.414467 408.473637 
L 147.314661 408.206048 
L 147.210623 407.940076 
L 147.102377 407.675788 
L 146.989952 407.41325 
L 146.873376 407.15253 
L 146.752678 406.893692 
L 146.627888 406.636801 
L 146.499038 406.381923 
L 146.366161 406.129121 
L 146.229289 405.878459 
L 146.088457 405.63 
L 145.943701 405.383807 
L 145.795058 405.139942 
L 145.642564 404.898465 
L 145.486257 404.659439 
L 145.326178 404.422922 
L 145.162367 404.188976 
L 144.994865 403.957657 
L 144.823713 403.729026 
L 144.648956 403.503138 
L 144.470636 403.280052 
L 144.2888 403.059823 
L 144.103492 402.842507 
L 143.91476 402.628158 
L 143.722651 402.416831 
L 143.527213 402.208578 
L 143.328495 402.003452 
L 143.126548 401.801505 
L 142.921422 401.602787 
L 142.713169 401.407349 
L 142.501842 401.21524 
L 142.287493 401.026508 
L 142.070177 400.8412 
L 141.849948 400.659364 
L 141.626862 400.481044 
L 141.400974 400.306287 
L 141.172343 400.135135 
L 140.941024 399.967633 
L 140.707078 399.803822 
L 140.470561 399.643743 
L 140.231535 399.487436 
L 139.990058 399.334942 
L 139.746193 399.186299 
L 139.5 399.041543 
L 139.251541 398.900711 
L 139.000879 398.763839 
L 138.748077 398.630962 
L 138.493199 398.502112 
L 138.236308 398.377322 
L 137.97747 398.256624 
L 137.71675 398.140048 
L 137.454212 398.027623 
L 137.189924 397.919377 
L 136.923952 397.815339 
L 136.656363 397.715533 
L 136.387223 397.619985 
L 136.116602 397.52872 
L 135.844567 397.44176 
L 135.571186 397.359126 
L 135.296529 397.280841 
L 135.020664 397.206923 
L 134.743661 397.137392 
L 134.46559 397.072264 
L 134.18652 397.011556 
L 133.906522 396.955283 
L 133.625667 396.90346 
L 133.344025 396.8561 
L 133.061667 396.813214 
L 132.778664 396.774813 
L 132.495088 396.740908 
L 132.211009 396.711505 
L 131.926499 396.686614 
L 131.641631 396.66624 
L 131.356474 396.650388 
L 131.071103 396.639062 
L 130.785587 396.632266 
L 130.5 396.63 
L 94.5 396.63 
L 94.214413 396.632266 
L 93.928897 396.639062 
L 93.643526 396.650388 
L 93.358369 396.66624 
L 93.073501 396.686614 
L 92.788991 396.711505 
L 92.504912 396.740908 
L 92.221336 396.774813 
L 91.938333 396.813214 
L 91.655975 396.8561 
L 91.374333 396.90346 
L 91.093478 396.955283 
L 90.81348 397.011556 
L 90.53441 397.072264 
L 90.256339 397.137392 
L 89.979336 397.206923 
L 89.703471 397.280841 
L 89.428814 397.359126 
L 89.155433 397.44176 
L 88.883398 397.52872 
L 88.612777 397.619985 
L 88.343637 397.715533 
L 88.076048 397.815339 
L 87.810076 397.919377 
L 87.545788 398.027623 
L 87.28325 398.140048 
L 87.02253 398.256624 
L 86.763692 398.377322 
L 86.506801 398.502112 
L 86.251923 398.630962 
L 85.999121 398.763839 
L 85.748459 398.900711 
L 85.5 399.041543 
L 85.253807 399.186299 
L 85.009942 399.334942 
L 84.768465 399.487436 
L 84.529439 399.643743 
L 84.292922 399.803822 
L 84.058976 399.967633 
L 83.827657 400.135135 
L 83.599026 400.306287 
L 83.373138 400.481044 
L 83.150052 400.659364 
L 82.929823 400.8412 
L 82.712507 401.026508 
L 82.498158 401.21524 
L 82.286831 401.407349 
L 82.078578 401.602787 
L 81.873452 401.801505 
L 81.671505 402.003452 
L 81.472787 402.208578 
L 81.277349 402.416831 
L 81.08524 402.628158 
L 80.896508 402.842507 
L 80.7112 403.059823 
L 80.529364 403.280052 
L 80.351044 403.503138 
L 80.176287 403.729026 
L 80.005135 403.957657 
L 79.837633 404.188976 
L 79.673822 404.422922 
L 79.513743 404.659439 
L 79.357436 404.898465 
L 79.204942 405.139942 
L 79.056299 405.383807 
L 78.911543 405.63 
L 78.770711 405.878459 
L 78.633839 406.129121 
L 78.500962 406.381923 
L 78.372112 406.636801 
L 78.247322 406.893692 
L 78.126624 407.15253 
L 78.010048 407.41325 
L 77.897623 407.675788 
L 77.789377 407.940076 
L 77.685339 408.206048 
L 77.585533 408.473637 
L 77.489985 408.742777 
L 77.39872 409.013398 
L 77.31176 409.285433 
L 77.229126 409.558814 
L 77.150841 409.833471 
L 77.076923 410.109336 
L 77.007392 410.386339 
L 76.942264 410.66441 
L 76.881556 410.94348 
L 76.825283 411.223478 
L 76.77346 411.504333 
L 76.7261 411.785975 
L 76.683214 412.068333 
L 76.644813 412.351336 
L 76.610908 412.634912 
L 76.581505 412.918991 
L 76.556614 413.203501 
L 76.53624 413.488369 
L 76.520388 413.773526 
L 76.509062 414.058897 
L 76.502266 414.344413 
L 76.5 414.63 
L 76.5 414.63 
L 76.502266 414.915587 
L 76.509062 415.201103 
L 76.520388 415.486474 
L 76.53624 415.771631 
L 76.556614 416.056499 
L 76.581505 416.341009 
L 76.610908 416.625088 
L 76.644813 416.908664 
L 76.683214 417.191667 
L 76.7261 417.474025 
L 76.77346 417.755667 
L 76.825283 418.036522 
L 76.881556 418.31652 
L 76.942264 418.59559 
L 77.007392 418.873661 
L 77.076923 419.150664 
L 77.150841 419.426529 
L 77.229126 419.701186 
L 77.31176 419.974567 
L 77.39872 420.246602 
L 77.489985 420.517223 
L 77.585533 420.786363 
L 77.685339 421.053952 
L 77.789377 421.319924 
L 77.897623 421.584212 
L 78.010048 421.84675 
L 78.126624 422.10747 
L 78.247322 422.366308 
L 78.372112 422.623199 
L 78.500962 422.878077 
L 78.633839 423.130879 
L 78.770711 423.381541 
L 78.911543 423.63 
L 79.056299 423.876193 
L 79.204942 424.120058 
L 79.357436 424.361535 
L 79.513743 424.600561 
L 79.673822 424.837078 
L 79.837633 425.071024 
L 80.005135 425.302343 
L 80.176287 425.530974 
L 80.351044 425.756862 
L 80.529364 425.979948 
L 80.7112 426.200177 
L 80.896508 426.417493 
L 81.08524 426.631842 
L 81.277349 426.843169 
L 81.472787 427.051422 
L 81.671505 427.256548 
L 81.873452 427.458495 
L 82.078578 427.657213 
L 82.286831 427.852651 
L 82.498158 428.04476 
L 82.712507 428.233492 
L 82.929823 428.4188 
L 83.150052 428.600636 
L 83.373138 428.778956 
L 83.599026 428.953713 
L 83.827657 429.124865 
L 84.058976 429.292367 
L 84.292922 429.456178 
L 84.529439 429.616257 
L 84.768465 429.772564 
L 85.009942 429.925058 
L 85.253807 430.073701 
L 85.5 430.218457 
L 85.748459 430.359289 
L 85.999121 430.496161 
L 86.251923 430.629038 
L 86.506801 430.757888 
L 86.763692 430.882678 
L 87.02253 431.003376 
L 87.28325 431.119952 
L 87.545788 431.232377 
L 87.810076 431.340623 
L 88.076048 431.444661 
L 88.343637 431.544467 
L 88.612777 431.640015 
L 88.883398 431.73128 
L 89.155433 431.81824 
L 89.428814 431.900874 
L 89.703471 431.979159 
L 89.979336 432.053077 
L 90.256339 432.122608 
L 90.53441 432.187736 
L 90.81348 432.248444 
L 91.093478 432.304717 
L 91.374333 432.35654 
L 91.655975 432.4039 
L 91.938333 432.446786 
L 92.221336 432.485187 
L 92.504912 432.519092 
L 92.788991 432.548495 
L 93.073501 432.573386 
L 93.358369 432.59376 
L 93.643526 432.609612 
L 93.928897 432.620938 
L 94.214413 432.627734 
L 94.5 432.63 
L 130.5 432.63 
z
" clip-path="url(#p6dc7e43029)" style="fill: none; stroke: #000000; stroke-linecap: round"/>
   </g>
   <g id="line2d_1">
    <path d="M 112.5 60.03 
L 112.5 73.53 
L 112.5 78.03 
" clip-path="url(#p6dc7e43029)" style="fill: none; stroke: #000000; stroke-linecap: round"/>
   </g>
   <g id="patch_8">
    <path d="M 115.2 78.03 
L 112.5 87.03 
L 109.8 78.03 
z
" clip-path="url(#p6dc7e43029)"/>
   </g>
   <g id="line2d_2">
    <path d="M 40.5 105.03 
L 40.5 87.03 
L 184.5 87.03 
L 184.5 123.03 
L 40.5 123.03 
L 40.5 105.03 
" clip-path="url(#p6dc7e43029)" style="fill: none; stroke: #000000; stroke-linecap: round"/>
   </g>
   <g id="line2d_3">
    <path d="M 112.5 123.03 
L 112.5 136.53 
L 112.5 141.03 
" clip-path="url(#p6dc7e43029)" style="fill: none; stroke: #000000; stroke-linecap: round"/>
   </g>
   <g id="patch_9">
    <path d="M 115.2 141.03 
L 112.5 150.03 
L 109.8 141.03 
z
" clip-path="url(#p6dc7e43029)"/>
   </g>
   <g id="line2d_4">
    <path d="M 202.5 173.43 
L 229.5 173.43 
L 247.5 173.43 
" clip-path="url(#p6dc7e43029)" style="fill: none; stroke: #000000; stroke-linecap: round"/>
   </g>
   <g id="patch_10">
    <path d="M 247.5 170.73 
L 256.5 173.43 
L 247.5 176.13 
z
" clip-path="url(#p6dc7e43029)"/>
   </g>
   <g id="line2d_5">
    <path d="M 256.5 173.43 
L 256.5 155.43 
L 400.5 155.43 
L 400.5 191.43 
L 256.5 191.43 
L 256.5 173.43 
" clip-path="url(#p6dc7e43029)" style="fill: none; stroke: #000000; stroke-linecap: round"/>
   </g>
   <g id="line2d_6">
    <path d="M 328.5 191.43 
L 328.5 202.23 
L 328.5 204.03 
" clip-path="url(#p6dc7e43029)" style="fill: none; stroke: #000000; stroke-linecap: round"/>
   </g>
   <g id="patch_11">
    <path d="M 331.2 204.03 
L 328.5 213.03 
L 325.8 204.03 
z
" clip-path="url(#p6dc7e43029)"/>
   </g>
   <g id="line2d_7">
    <path d="M 112.5 196.83 
L 112.5 223.83 
L 112.5 241.83 
" clip-path="url(#p6dc7e43029)" style="fill: none; stroke: #000000; stroke-linecap: round"/>
   </g>
   <g id="patch_12">
    <path d="M 115.2 241.83 
L 112.5 250.83 
L 109.8 241.83 
z
" clip-path="url(#p6dc7e43029)"/>
   </g>
   <g id="line2d_8">
    <path d="M 202.5 274.23 
L 229.5 274.23 
L 247.5 274.23 
" clip-path="url(#p6dc7e43029)" style="fill: none; stroke: #000000; stroke-linecap: round"/>
   </g>
   <g id="patch_13">
    <path d="M 247.5 271.53 
L 256.5 274.23 
L 247.5 276.93 
z
" clip-path="url(#p6dc7e43029)"/>
   </g>
   <g id="line2d_9">
    <path d="M 256.5 274.23 
L 256.5 256.23 
L 400.5 256.23 
L 400.5 292.23 
L 256.5 292.23 
L 256.5 274.23 
" clip-path="url(#p6dc7e43029)" style="fill: none; stroke: #000000; stroke-linecap: round"/>
   </g>
   <g id="line2d_10">
    <path d="M 328.5 292.23 
L 328.5 303.03 
L 328.5 304.83 
" clip-path="url(#p6dc7e43029)" style="fill: none; stroke: #000000; stroke-linecap: round"/>
   </g>
   <g id="patch_14">
    <path d="M 331.2 304.83 
L 328.5 313.83 
L 325.8 304.83 
z
" clip-path="url(#p6dc7e43029)"/>
   </g>
   <g id="line2d_11">
    <path d="M 112.5 297.63 
L 112.5 315.63 
L 112.5 324.63 
" clip-path="url(#p6dc7e43029)" style="fill: none; stroke: #000000; stroke-linecap: round"/>
   </g>
   <g id="patch_15">
    <path d="M 115.2 324.63 
L 112.5 333.63 
L 109.8 324.63 
z
" clip-path="url(#p6dc7e43029)"/>
   </g>
   <g id="line2d_12">
    <path d="M 31.5 351.63 
L 31.5 333.63 
L 193.5 333.63 
L 193.5 369.63 
L 31.5 369.63 
L 31.5 351.63 
" clip-path="url(#p6dc7e43029)" style="fill: none; stroke: #000000; stroke-linecap: round"/>
   </g>
   <g id="line2d_13">
    <path d="M 112.5 369.63 
L 112.5 383.13 
L 112.5 387.63 
" clip-path="url(#p6dc7e43029)" style="fill: none; stroke: #000000; stroke-linecap: round"/>
   </g>
   <g id="patch_16">
    <path d="M 115.2 387.63 
L 112.5 396.63 
L 109.8 387.63 
z
" clip-path="url(#p6dc7e43029)"/>
   </g>
   <g id="text_1">
    <!-- START -->
    <g transform="translate(93.323242 45.524141) scale(0.125 -0.125)">
     <defs>
      <path id="IPAexGothic-53" d="M 2919 3641 
Q 2563 4259 1853 4259 
Q 1453 4259 1213 4009 
Q 1028 3803 1028 3534 
Q 1028 3238 1266 3047 
Q 1444 2913 1984 2688 
L 2200 2597 
Q 2925 2306 3191 1953 
Q 3422 1644 3422 1259 
Q 3422 644 2969 288 
Q 2559 -31 1931 -31 
Q 881 -31 313 766 
L 753 1100 
Q 1203 459 1938 459 
Q 2288 459 2534 625 
Q 2841 847 2841 1216 
Q 2841 1503 2616 1728 
Q 2375 1959 1728 2206 
L 1541 2278 
Q 453 2694 453 3481 
Q 453 4006 806 4347 
Q 1203 4725 1863 4725 
Q 2841 4725 3359 3956 
L 2919 3641 
z
" transform="scale(0.015625)"/>
      <path id="IPAexGothic-54" d="M 3866 4141 
L 2175 4141 
L 2175 63 
L 1606 63 
L 1606 4141 
L -31 4141 
L -31 4634 
L 3866 4634 
L 3866 4141 
z
" transform="scale(0.015625)"/>
      <path id="IPAexGothic-41" d="M 4056 63 
L 3444 63 
L 2938 1409 
L 1100 1409 
L 603 63 
L -6 63 
L 1806 4666 
L 2259 4666 
L 4056 63 
z
M 2778 1863 
L 2316 3078 
Q 2125 3588 2028 4000 
L 2009 4000 
Q 1897 3563 1716 3078 
L 1263 1863 
L 2778 1863 
z
" transform="scale(0.015625)"/>
      <path id="IPAexGothic-52" d="M 4072 63 
L 3394 63 
Q 3138 641 2828 1197 
Q 2584 1641 2344 1825 
Q 2050 2044 1625 2044 
L 1172 2044 
L 1172 63 
L 609 63 
L 609 4634 
L 2009 4634 
Q 2713 4634 3131 4378 
Q 3688 4044 3688 3381 
Q 3688 2784 3181 2459 
Q 2906 2272 2522 2216 
L 2522 2197 
Q 2941 2050 3247 1581 
Q 3516 1166 4072 63 
z
M 1172 2478 
L 1869 2478 
Q 3106 2478 3106 3369 
Q 3106 4181 1928 4181 
L 1172 4181 
L 1172 2478 
z
" transform="scale(0.015625)"/>
     </defs>
     <use xlink:href="#IPAexGothic-53"/>
     <use xlink:href="#IPAexGothic-54" x="58.496094"/>
     <use xlink:href="#IPAexGothic-41" x="118.408203"/>
     <use xlink:href="#IPAexGothic-52" x="182.128906"/>
     <use xlink:href="#IPAexGothic-54" x="246.923828"/>
    </g>
   </g>
   <g id="text_2">
    <!-- change_in_gdp = 200 -->
    <g transform="translate(48.681641 108.488008) scale(0.125 -0.125)">
     <defs>
      <path id="IPAexGothic-63" d="M 3269 784 
Q 2834 -31 1900 -31 
Q 1228 -31 788 409 
Q 313 891 313 1663 
Q 313 2428 788 2913 
Q 1222 3347 1881 3347 
Q 2813 3347 3206 2541 
L 2763 2309 
Q 2484 2900 1900 2900 
Q 1516 2900 1234 2619 
Q 881 2266 881 1650 
Q 881 1069 1222 728 
Q 1522 428 1956 428 
Q 2547 428 2847 1016 
L 3269 784 
z
" transform="scale(0.015625)"/>
      <path id="IPAexGothic-68" d="M 3347 63 
L 2797 63 
L 2797 2041 
Q 2797 2853 2131 2853 
Q 1447 2853 1131 2041 
L 1131 63 
L 581 63 
L 581 4794 
L 1131 4794 
L 1131 2706 
Q 1566 3316 2247 3316 
Q 3347 3316 3347 2072 
L 3347 63 
z
" transform="scale(0.015625)"/>
      <path id="IPAexGothic-61" d="M 3156 63 
L 2672 63 
Q 2559 303 2531 556 
L 2509 556 
Q 2147 -25 1428 -25 
Q 934 -25 622 288 
Q 347 563 347 959 
Q 347 1947 2050 1997 
L 2478 2009 
L 2478 2175 
Q 2478 2509 2288 2700 
Q 2088 2900 1775 2900 
Q 1238 2900 969 2378 
L 494 2597 
Q 938 3328 1788 3328 
Q 2375 3328 2691 3000 
Q 2984 2706 2984 2169 
L 2984 997 
Q 2984 400 3156 63 
z
M 2491 1625 
L 2141 1619 
Q 903 1591 903 953 
Q 903 728 1050 581 
Q 1231 403 1525 403 
Q 1934 403 2234 703 
Q 2491 969 2491 1344 
L 2491 1625 
z
" transform="scale(0.015625)"/>
      <path id="IPAexGothic-6e" d="M 3328 63 
L 2778 63 
L 2778 2041 
Q 2778 2853 2106 2853 
Q 1428 2853 1113 2041 
L 1113 63 
L 563 63 
L 563 3250 
L 1075 3250 
L 1075 2675 
Q 1525 3316 2222 3316 
Q 3328 3316 3328 2072 
L 3328 63 
z
" transform="scale(0.015625)"/>
      <path id="IPAexGothic-67" d="M 1331 1150 
Q 1006 1122 1006 900 
Q 1006 613 1763 575 
L 2131 556 
Q 3303 497 3303 -294 
Q 3303 -700 2925 -959 
Q 2519 -1253 1794 -1253 
Q 1138 -1253 738 -1028 
Q 353 -809 353 -428 
Q 353 84 1075 247 
L 1075 269 
Q 506 413 506 778 
Q 506 1116 994 1297 
Q 456 1575 456 2181 
Q 456 2650 769 2963 
Q 1128 3322 1738 3322 
Q 2125 3322 2422 3153 
Q 2650 3453 3259 3463 
L 3259 3013 
Q 2838 3003 2703 2938 
Q 3034 2613 3034 2169 
Q 3034 1728 2734 1425 
Q 2400 1094 1813 1094 
Q 1563 1094 1331 1150 
z
M 1734 2919 
Q 1409 2919 1197 2706 
Q 988 2497 988 2181 
Q 988 1872 1184 1684 
Q 1397 1472 1756 1472 
Q 2094 1472 2297 1678 
Q 2503 1881 2503 2203 
Q 2503 2497 2297 2700 
Q 2081 2919 1734 2919 
z
M 1753 159 
Q 903 159 903 -366 
Q 903 -875 1800 -875 
Q 2378 -875 2638 -606 
Q 2772 -481 2772 -313 
Q 2772 159 1753 159 
z
" transform="scale(0.015625)"/>
      <path id="IPAexGothic-65" d="M 863 1594 
Q 891 1041 1209 722 
Q 1534 397 1997 397 
Q 2606 397 2963 966 
L 3322 728 
Q 2869 -31 1931 -31 
Q 1222 -31 766 422 
Q 306 884 306 1641 
Q 306 2444 788 2925 
Q 1216 3353 1856 3353 
Q 2459 3353 2866 2956 
Q 3322 2494 3322 1722 
L 3322 1594 
L 863 1594 
z
M 2756 1997 
Q 2709 2431 2450 2681 
Q 2194 2938 1844 2938 
Q 1438 2938 1150 2591 
Q 953 2356 894 1997 
L 2756 1997 
z
" transform="scale(0.015625)"/>
      <path id="IPAexGothic-5f" d="M 3200 -750 
L 0 -750 
L 0 -431 
L 3200 -431 
L 3200 -750 
z
" transform="scale(0.015625)"/>
      <path id="IPAexGothic-69" d="M 1178 3928 
L 550 3928 
L 550 4569 
L 1178 4569 
L 1178 3928 
z
M 1138 63 
L 588 63 
L 588 3250 
L 1138 3250 
L 1138 63 
z
" transform="scale(0.015625)"/>
      <path id="IPAexGothic-64" d="M 3391 63 
L 2891 63 
L 2891 619 
Q 2441 -31 1753 -31 
Q 1181 -31 788 372 
Q 313 844 313 1663 
Q 313 2466 772 2938 
Q 1169 3341 1753 3341 
Q 2384 3341 2847 2809 
L 2847 4794 
L 3391 4794 
L 3391 63 
z
M 2847 1303 
L 2847 2097 
Q 2847 2413 2456 2706 
Q 2181 2906 1853 2906 
Q 1484 2906 1228 2650 
Q 888 2309 888 1678 
Q 888 1109 1169 750 
Q 1441 409 1847 409 
Q 2322 409 2656 875 
Q 2847 1134 2847 1303 
z
" transform="scale(0.015625)"/>
      <path id="IPAexGothic-70" d="M 1075 2688 
Q 1525 3341 2206 3341 
Q 2769 3341 3172 2938 
Q 3641 2469 3641 1644 
Q 3641 841 3178 372 
Q 2775 -31 2200 -31 
Q 1569 -31 1106 497 
L 1106 -1216 
L 563 -1216 
L 563 3250 
L 1075 3250 
L 1075 2688 
z
M 1106 1950 
L 1106 1291 
Q 1106 897 1516 600 
Q 1791 403 2106 403 
Q 2469 403 2725 659 
Q 3066 997 3066 1631 
Q 3066 2200 2784 2559 
Q 2503 2900 2100 2900 
Q 1656 2900 1338 2484 
Q 1106 2184 1106 1950 
z
" transform="scale(0.015625)"/>
      <path id="IPAexGothic-20" transform="scale(0.015625)"/>
      <path id="IPAexGothic-3d" d="M 416 2803 
L 3922 2803 
L 3922 2438 
L 416 2438 
L 416 2803 
z
M 416 1625 
L 3922 1625 
L 3922 1259 
L 416 1259 
L 416 1625 
z
" transform="scale(0.015625)"/>
      <path id="IPAexGothic-32" d="M 3659 63 
L 447 63 
L 447 594 
Q 825 1475 1894 2203 
L 2072 2322 
Q 2619 2697 2791 2906 
Q 2988 3153 2988 3444 
Q 2988 3772 2756 4003 
Q 2500 4259 2084 4259 
Q 1250 4259 991 3328 
L 497 3506 
Q 853 4725 2116 4725 
Q 2806 4725 3216 4316 
Q 3575 3947 3575 3425 
Q 3575 3038 3344 2722 
Q 3131 2416 2366 1938 
L 2231 1856 
Q 1256 1253 978 569 
L 3659 569 
L 3659 63 
z
" transform="scale(0.015625)"/>
      <path id="IPAexGothic-30" d="M 2038 4725 
Q 2881 4725 3334 3944 
Q 3694 3325 3694 2344 
Q 3694 1372 3334 741 
Q 2888 -31 2016 -31 
Q 1147 -31 700 741 
Q 341 1372 341 2350 
Q 341 3713 1000 4334 
Q 1419 4725 2038 4725 
z
M 2016 4266 
Q 1516 4266 1228 3759 
Q 934 3247 934 2344 
Q 934 1456 1222 947 
Q 1513 447 2016 447 
Q 2619 447 2909 1153 
Q 3100 1622 3100 2375 
Q 3100 3256 2806 3759 
Q 2509 4266 2016 4266 
z
" transform="scale(0.015625)"/>
     </defs>
     <use xlink:href="#IPAexGothic-63"/>
     <use xlink:href="#IPAexGothic-68" x="54.394531"/>
     <use xlink:href="#IPAexGothic-61" x="115.087891"/>
     <use xlink:href="#IPAexGothic-6e" x="170.068359"/>
     <use xlink:href="#IPAexGothic-67" x="230.46875"/>
     <use xlink:href="#IPAexGothic-65" x="285.986328"/>
     <use xlink:href="#IPAexGothic-5f" x="342.871094"/>
     <use xlink:href="#IPAexGothic-69" x="392.871094"/>
     <use xlink:href="#IPAexGothic-6e" x="419.873047"/>
     <use xlink:href="#IPAexGothic-5f" x="480.273438"/>
     <use xlink:href="#IPAexGothic-67" x="530.273438"/>
     <use xlink:href="#IPAexGothic-64" x="585.791016"/>
     <use xlink:href="#IPAexGothic-70" x="648.193359"/>
     <use xlink:href="#IPAexGothic-20" x="710.302734"/>
     <use xlink:href="#IPAexGothic-3d" x="737.304688"/>
     <use xlink:href="#IPAexGothic-20" x="805.126953"/>
     <use xlink:href="#IPAexGothic-32" x="832.128906"/>
     <use xlink:href="#IPAexGothic-30" x="895.117188"/>
     <use xlink:href="#IPAexGothic-30" x="958.105469"/>
    </g>
   </g>
   <g id="text_3">
    <!-- False -->
    <g transform="translate(117.18 210.873281) scale(0.125 -0.125)">
     <defs>
      <path id="IPAexGothic-46" d="M 3469 4141 
L 1172 4141 
L 1172 2656 
L 3206 2656 
L 3206 2188 
L 1172 2188 
L 1172 63 
L 609 63 
L 609 4634 
L 3469 4634 
L 3469 4141 
z
" transform="scale(0.015625)"/>
      <path id="IPAexGothic-6c" d="M 1131 63 
L 581 63 
L 581 4794 
L 1131 4794 
L 1131 63 
z
" transform="scale(0.015625)"/>
      <path id="IPAexGothic-73" d="M 2234 2547 
Q 1938 2931 1484 2931 
Q 891 2931 891 2475 
Q 891 2153 1531 1944 
L 1741 1875 
Q 2650 1578 2650 894 
Q 2650 434 2272 172 
Q 1972 -31 1497 -31 
Q 766 -31 256 503 
L 603 819 
Q 997 397 1516 397 
Q 2131 397 2131 875 
Q 2131 1238 1453 1478 
L 1234 1553 
Q 378 1853 378 2431 
Q 378 2797 628 3047 
Q 928 3347 1453 3347 
Q 2156 3347 2606 2859 
L 2234 2547 
z
" transform="scale(0.015625)"/>
     </defs>
     <use xlink:href="#IPAexGothic-46"/>
     <use xlink:href="#IPAexGothic-61" x="57.177734"/>
     <use xlink:href="#IPAexGothic-6c" x="112.158203"/>
     <use xlink:href="#IPAexGothic-73" x="139.160156"/>
     <use xlink:href="#IPAexGothic-65" x="185.351562"/>
    </g>
   </g>
   <g id="text_4">
    <!-- True -->
    <g transform="translate(207.18 166.375) scale(0.125 -0.125)">
     <defs>
      <path id="IPAexGothic-72" d="M 2309 3316 
L 2213 2769 
Q 2106 2791 2022 2791 
Q 1653 2791 1413 2444 
Q 1113 2006 1113 1675 
L 1113 63 
L 563 63 
L 563 3250 
L 1081 3250 
L 1056 2303 
L 1069 2303 
Q 1422 3341 2097 3341 
Q 2206 3341 2309 3316 
z
" transform="scale(0.015625)"/>
      <path id="IPAexGothic-75" d="M 3284 63 
L 2772 63 
L 2772 644 
Q 2300 0 1625 0 
Q 1072 0 763 375 
Q 519 678 519 1241 
L 519 3250 
L 1069 3250 
L 1069 1259 
Q 1069 466 1734 466 
Q 2406 466 2734 1291 
L 2734 3250 
L 3284 3250 
L 3284 63 
z
" transform="scale(0.015625)"/>
     </defs>
     <use xlink:href="#IPAexGothic-54"/>
     <use xlink:href="#IPAexGothic-72" x="59.912109"/>
     <use xlink:href="#IPAexGothic-75" x="96.923828"/>
     <use xlink:href="#IPAexGothic-65" x="157.324219"/>
    </g>
   </g>
   <g id="text_5">
    <!-- change_in_gdp &gt; 0 ? -->
    <g transform="translate(51.424805 176.888008) scale(0.125 -0.125)">
     <defs>
      <path id="IPAexGothic-3e" d="M 3444 2028 
L 409 3450 
L 569 3794 
L 3928 2175 
L 3928 1881 
L 569 263 
L 409 609 
L 3444 2028 
z
" transform="scale(0.015625)"/>
      <path id="IPAexGothic-3f" d="M 225 3425 
Q 503 4725 1763 4725 
Q 2413 4725 2803 4334 
Q 3144 3994 3144 3516 
Q 3144 3081 2838 2716 
Q 2703 2563 2344 2266 
L 2216 2156 
Q 1888 1878 1888 1363 
L 1888 1209 
L 1422 1209 
L 1422 1422 
Q 1422 2050 1881 2491 
L 2022 2625 
L 2075 2669 
Q 2575 3122 2575 3516 
Q 2575 3822 2363 4041 
Q 2128 4278 1763 4278 
Q 963 4278 725 3309 
L 225 3425 
z
M 1978 63 
L 1325 63 
L 1325 728 
L 1978 728 
L 1978 63 
z
" transform="scale(0.015625)"/>
     </defs>
     <use xlink:href="#IPAexGothic-63"/>
     <use xlink:href="#IPAexGothic-68" x="54.394531"/>
     <use xlink:href="#IPAexGothic-61" x="115.087891"/>
     <use xlink:href="#IPAexGothic-6e" x="170.068359"/>
     <use xlink:href="#IPAexGothic-67" x="230.46875"/>
     <use xlink:href="#IPAexGothic-65" x="285.986328"/>
     <use xlink:href="#IPAexGothic-5f" x="342.871094"/>
     <use xlink:href="#IPAexGothic-69" x="392.871094"/>
     <use xlink:href="#IPAexGothic-6e" x="419.873047"/>
     <use xlink:href="#IPAexGothic-5f" x="480.273438"/>
     <use xlink:href="#IPAexGothic-67" x="530.273438"/>
     <use xlink:href="#IPAexGothic-64" x="585.791016"/>
     <use xlink:href="#IPAexGothic-70" x="648.193359"/>
     <use xlink:href="#IPAexGothic-20" x="710.302734"/>
     <use xlink:href="#IPAexGothic-3e" x="737.304688"/>
     <use xlink:href="#IPAexGothic-20" x="805.126953"/>
     <use xlink:href="#IPAexGothic-30" x="832.128906"/>
     <use xlink:href="#IPAexGothic-20" x="895.117188"/>
     <use xlink:href="#IPAexGothic-3f" x="922.119141"/>
    </g>
   </g>
   <g id="text_6">
    <!-- GDP -->
    <g transform="translate(252.681641 176.924141) scale(0.125 -0.125)">
     <defs>
      <path id="IPAexGothic-300c" d="M 4134 5300 
L 5875 5300 
L 5875 4853 
L 4581 4853 
L 4581 656 
L 4134 656 
L 4134 5300 
z
" transform="scale(0.015625)"/>
      <path id="IPAexGothic-47" d="M 4403 781 
Q 4172 494 3731 250 
Q 3209 -31 2591 -31 
Q 1606 -31 988 628 
Q 378 1275 378 2325 
Q 378 3406 1013 4078 
Q 1619 4725 2534 4725 
Q 3800 4725 4325 3628 
L 3816 3391 
Q 3422 4238 2541 4238 
Q 1891 4238 1453 3744 
Q 994 3216 994 2328 
Q 994 1531 1397 1022 
Q 1844 459 2625 459 
Q 3459 459 3878 966 
L 3878 1856 
L 2859 1856 
L 2859 2291 
L 4403 2291 
L 4403 781 
z
" transform="scale(0.015625)"/>
      <path id="IPAexGothic-44" d="M 609 4634 
L 1984 4634 
Q 3159 4634 3791 4050 
Q 4456 3444 4456 2356 
Q 4456 1047 3516 441 
Q 2925 63 1941 63 
L 609 63 
L 609 4634 
z
M 1172 556 
L 1894 556 
Q 3853 556 3853 2356 
Q 3853 4147 1928 4147 
L 1172 4147 
L 1172 556 
z
" transform="scale(0.015625)"/>
      <path id="IPAexGothic-50" d="M 609 4634 
L 1941 4634 
Q 3688 4634 3688 3322 
Q 3688 1934 1906 1934 
L 1172 1934 
L 1172 63 
L 609 63 
L 609 4634 
z
M 1172 2381 
L 1800 2381 
Q 3100 2381 3100 3316 
Q 3100 4181 1894 4181 
L 1172 4181 
L 1172 2381 
z
" transform="scale(0.015625)"/>
      <path id="IPAexGothic-306f" d="M 4066 4875 
L 4538 4875 
L 4556 3769 
Q 5003 3816 5581 3941 
L 5619 3469 
Q 5256 3394 4563 3322 
L 4597 1441 
Q 5100 1284 5934 756 
L 5656 313 
Q 5066 772 4609 978 
Q 4609 441 4384 225 
Q 4128 -13 3634 -13 
Q 2991 -13 2669 231 
Q 2388 444 2388 831 
Q 2388 1225 2772 1484 
Q 3050 1669 3534 1669 
Q 3759 1669 4134 1594 
L 4097 3288 
Q 3697 3269 3359 3269 
Q 2925 3269 2484 3300 
L 2466 3763 
Q 2953 3716 3456 3716 
Q 3738 3716 4091 3738 
L 4066 4875 
z
M 4141 1153 
Q 3753 1259 3513 1259 
Q 2841 1259 2841 850 
Q 2841 422 3634 422 
Q 3888 422 4022 569 
Q 4141 700 4141 922 
Q 4141 1088 4141 1153 
z
M 1000 -50 
Q 794 1072 794 1931 
Q 794 3153 1247 4884 
L 1728 4763 
Q 1269 3044 1269 1900 
Q 1269 1569 1306 1106 
Q 1591 1706 1753 1997 
L 2075 1806 
Q 1484 716 1484 141 
Q 1484 72 1491 0 
L 1000 -50 
z
" transform="scale(0.015625)"/>
      <path id="IPAexGothic-5897" d="M 1125 3719 
L 1125 5147 
L 1572 5147 
L 1572 3719 
L 2181 3719 
L 2181 3291 
L 1572 3291 
L 1572 1313 
Q 1931 1441 2256 1600 
L 2309 1184 
Q 1350 725 447 428 
L 275 891 
Q 784 1016 1125 1147 
L 1125 3291 
L 363 3291 
L 363 3719 
L 1125 3719 
z
M 3272 4434 
Q 3094 4838 2913 5106 
L 3347 5266 
Q 3600 4844 3750 4434 
L 4469 4434 
Q 4691 4872 4831 5306 
L 5306 5125 
Q 5116 4744 4934 4434 
L 5875 4434 
L 5875 2322 
L 2375 2322 
L 2375 4434 
L 3272 4434 
z
M 2803 4094 
L 2803 3566 
L 3897 3566 
L 3897 4094 
L 2803 4094 
z
M 2803 3241 
L 2803 2663 
L 3897 2663 
L 3897 3241 
L 2803 3241 
z
M 5447 2663 
L 5447 3241 
L 4313 3241 
L 4313 2663 
L 5447 2663 
z
M 5447 3566 
L 5447 4094 
L 4313 4094 
L 4313 3566 
L 5447 3566 
z
M 5631 1953 
L 5631 -447 
L 5203 -447 
L 5203 -159 
L 3084 -159 
L 3084 -447 
L 2650 -447 
L 2650 1953 
L 5631 1953 
z
M 3084 1600 
L 3084 1075 
L 5203 1075 
L 5203 1600 
L 3084 1600 
z
M 3084 744 
L 3084 188 
L 5203 188 
L 5203 744 
L 3084 744 
z
" transform="scale(0.015625)"/>
      <path id="IPAexGothic-52a0" d="M 1909 3603 
Q 1888 825 656 -428 
L 316 -56 
Q 1413 916 1463 3553 
L 450 3553 
L 450 3969 
L 1463 3969 
L 1463 5144 
L 1909 5144 
L 1909 4019 
L 3200 4019 
Q 3163 944 3016 219 
Q 2947 -88 2791 -197 
Q 2641 -288 2363 -288 
Q 2000 -288 1672 -228 
L 1603 256 
Q 1919 153 2241 153 
Q 2550 153 2600 500 
Q 2725 1353 2753 3309 
L 2753 3603 
L 1909 3603 
z
M 5819 4313 
L 5819 -306 
L 5378 -306 
L 5378 109 
L 4219 109 
L 4219 -366 
L 3778 -366 
L 3778 4313 
L 5819 4313 
z
M 4219 3897 
L 4219 525 
L 5378 525 
L 5378 3897 
L 4219 3897 
z
" transform="scale(0.015625)"/>
      <path id="IPAexGothic-3057" d="M 1750 4884 
L 2281 4884 
L 2238 1319 
Q 2228 809 2391 569 
Q 2594 281 3128 281 
Q 3772 281 4344 744 
Q 4822 1131 5156 1759 
L 5534 1369 
Q 5094 653 4534 263 
Q 3878 -206 3134 -206 
Q 2341 -206 1994 213 
Q 1697 575 1706 1269 
L 1750 4884 
z
" transform="scale(0.015625)"/>
      <path id="IPAexGothic-3066" d="M 581 4034 
Q 2978 4363 5466 4556 
L 5509 4097 
Q 4388 4031 3750 3572 
Q 2797 2878 2797 1913 
Q 2797 1169 3291 819 
Q 3778 484 4869 416 
L 4906 -116 
Q 2278 0 2278 1850 
Q 2278 3125 3691 4000 
Q 2066 3784 684 3553 
L 581 4034 
z
" transform="scale(0.015625)"/>
      <path id="IPAexGothic-3044" d="M 3369 1447 
Q 2906 122 2278 122 
Q 1966 122 1647 481 
Q 1209 966 1044 1966 
Q 891 2888 891 4313 
L 1422 4313 
Q 1413 2444 1666 1550 
Q 1913 678 2278 678 
Q 2619 678 2925 1791 
L 3369 1447 
z
M 5378 1294 
Q 4928 2797 4034 3809 
L 4488 4031 
Q 5375 3000 5881 1563 
L 5378 1294 
z
" transform="scale(0.015625)"/>
      <path id="IPAexGothic-307e" d="M 3538 5075 
L 3547 4141 
Q 4509 4203 5288 4341 
L 5325 3897 
Q 4744 3809 3553 3719 
L 3566 2925 
Q 4578 3022 5031 3103 
L 5063 2663 
Q 4519 2572 3578 2503 
L 3628 1403 
Q 4531 1128 5459 513 
L 5153 84 
Q 4656 456 3641 909 
Q 3669 331 3391 84 
Q 3116 -153 2559 -153 
Q 1900 -153 1522 72 
Q 1138 297 1138 719 
Q 1138 1163 1634 1413 
Q 1994 1594 2413 1594 
Q 2797 1594 3156 1538 
L 3109 2472 
Q 2641 2450 2413 2450 
Q 1931 2450 1422 2484 
L 1422 2919 
Q 1941 2872 2516 2872 
Q 2706 2872 3097 2894 
L 3072 3688 
Q 2381 3675 2344 3675 
Q 1794 3675 1075 3706 
L 1075 4141 
Q 1744 4097 2431 4097 
Q 2456 4097 3059 4109 
L 3041 5075 
L 3538 5075 
z
M 3163 1088 
Q 2713 1184 2394 1184 
Q 2094 1184 1875 1091 
Q 1606 975 1606 750 
Q 1606 484 1925 363 
Q 2156 275 2503 275 
Q 3163 275 3163 794 
L 3163 1088 
z
" transform="scale(0.015625)"/>
      <path id="IPAexGothic-3059" d="M 3322 5075 
L 3816 5075 
L 3816 4063 
Q 4131 4075 5756 4116 
L 5756 3669 
Q 5431 3672 3816 3653 
L 3816 2463 
Q 3956 2125 3956 1741 
Q 3956 922 3519 397 
Q 3128 -72 2309 -409 
L 1941 -31 
Q 3263 453 3488 1363 
Q 3250 1031 2809 1031 
Q 2441 1031 2150 1313 
Q 1875 1588 1875 2050 
Q 1875 2475 2166 2769 
Q 2431 3041 2822 3041 
Q 3088 3041 3322 2881 
L 3322 3641 
Q 3000 3634 609 3547 
L 609 3988 
Q 1197 4000 2106 4022 
Q 3066 4047 3322 4050 
L 3322 5075 
z
M 3372 2044 
Q 3372 2300 3194 2478 
Q 3050 2613 2869 2613 
Q 2622 2613 2463 2406 
Q 2344 2250 2344 2088 
Q 2344 1797 2484 1622 
Q 2625 1453 2859 1453 
Q 3372 1453 3372 2044 
z
" transform="scale(0.015625)"/>
      <path id="IPAexGothic-300d" d="M 1819 4209 
L 2266 4209 
L 2266 -434 
L 525 -434 
L 525 13 
L 1819 13 
L 1819 4209 
z
" transform="scale(0.015625)"/>
     </defs>
     <use xlink:href="#IPAexGothic-300c"/>
     <use xlink:href="#IPAexGothic-47" x="100"/>
     <use xlink:href="#IPAexGothic-44" x="175.292969"/>
     <use xlink:href="#IPAexGothic-50" x="250.976562"/>
     <use xlink:href="#IPAexGothic-306f" x="313.085938"/>
     <use xlink:href="#IPAexGothic-5897" x="413.085938"/>
     <use xlink:href="#IPAexGothic-52a0" x="513.085938"/>
     <use xlink:href="#IPAexGothic-3057" x="613.085938"/>
     <use xlink:href="#IPAexGothic-3066" x="713.085938"/>
     <use xlink:href="#IPAexGothic-3044" x="813.085938"/>
     <use xlink:href="#IPAexGothic-307e" x="913.085938"/>
     <use xlink:href="#IPAexGothic-3059" x="1013.085938"/>
     <use xlink:href="#IPAexGothic-300d" x="1113.085938"/>
    </g>
   </g>
   <g id="text_7">
    <!-- END -->
    <g transform="translate(315.300781 234.524141) scale(0.125 -0.125)">
     <defs>
      <path id="IPAexGothic-45" d="M 3547 63 
L 609 63 
L 609 4634 
L 3469 4634 
L 3469 4147 
L 1166 4147 
L 1166 2650 
L 3206 2650 
L 3206 2191 
L 1166 2191 
L 1166 556 
L 3547 556 
L 3547 63 
z
" transform="scale(0.015625)"/>
      <path id="IPAexGothic-4e" d="M 4244 63 
L 3731 63 
L 1697 3150 
Q 1466 3500 1141 4097 
L 1116 4097 
L 1128 3797 
Q 1159 2803 1159 2469 
L 1159 63 
L 609 63 
L 609 4634 
L 1366 4634 
L 3113 1978 
Q 3453 1447 3713 966 
L 3738 966 
Q 3694 1897 3694 2469 
L 3694 4634 
L 4244 4634 
L 4244 63 
z
" transform="scale(0.015625)"/>
     </defs>
     <use xlink:href="#IPAexGothic-45"/>
     <use xlink:href="#IPAexGothic-4e" x="59.521484"/>
     <use xlink:href="#IPAexGothic-44" x="135.498047"/>
    </g>
   </g>
   <g id="text_8">
    <!-- False -->
    <g transform="translate(117.18 311.673281) scale(0.125 -0.125)">
     <use xlink:href="#IPAexGothic-46"/>
     <use xlink:href="#IPAexGothic-61" x="57.177734"/>
     <use xlink:href="#IPAexGothic-6c" x="112.158203"/>
     <use xlink:href="#IPAexGothic-73" x="139.160156"/>
     <use xlink:href="#IPAexGothic-65" x="185.351562"/>
    </g>
   </g>
   <g id="text_9">
    <!-- True -->
    <g transform="translate(207.18 267.175) scale(0.125 -0.125)">
     <use xlink:href="#IPAexGothic-54"/>
     <use xlink:href="#IPAexGothic-72" x="59.912109"/>
     <use xlink:href="#IPAexGothic-75" x="96.923828"/>
     <use xlink:href="#IPAexGothic-65" x="157.324219"/>
    </g>
   </g>
   <g id="text_10">
    <!-- change_in_gdp &lt; 0 ? -->
    <g transform="translate(51.424805 277.688008) scale(0.125 -0.125)">
     <defs>
      <path id="IPAexGothic-3c" d="M 897 2028 
L 3928 609 
L 3769 263 
L 409 1881 
L 409 2175 
L 3769 3794 
L 3928 3450 
L 897 2028 
z
" transform="scale(0.015625)"/>
     </defs>
     <use xlink:href="#IPAexGothic-63"/>
     <use xlink:href="#IPAexGothic-68" x="54.394531"/>
     <use xlink:href="#IPAexGothic-61" x="115.087891"/>
     <use xlink:href="#IPAexGothic-6e" x="170.068359"/>
     <use xlink:href="#IPAexGothic-67" x="230.46875"/>
     <use xlink:href="#IPAexGothic-65" x="285.986328"/>
     <use xlink:href="#IPAexGothic-5f" x="342.871094"/>
     <use xlink:href="#IPAexGothic-69" x="392.871094"/>
     <use xlink:href="#IPAexGothic-6e" x="419.873047"/>
     <use xlink:href="#IPAexGothic-5f" x="480.273438"/>
     <use xlink:href="#IPAexGothic-67" x="530.273438"/>
     <use xlink:href="#IPAexGothic-64" x="585.791016"/>
     <use xlink:href="#IPAexGothic-70" x="648.193359"/>
     <use xlink:href="#IPAexGothic-20" x="710.302734"/>
     <use xlink:href="#IPAexGothic-3c" x="737.304688"/>
     <use xlink:href="#IPAexGothic-20" x="805.126953"/>
     <use xlink:href="#IPAexGothic-30" x="832.128906"/>
     <use xlink:href="#IPAexGothic-20" x="895.117188"/>
     <use xlink:href="#IPAexGothic-3f" x="922.119141"/>
    </g>
   </g>
   <g id="text_11">
    <!-- GDP -->
    <g transform="translate(252.681641 277.724141) scale(0.125 -0.125)">
     <defs>
      <path id="IPAexGothic-6e1b" d="M 4531 1175 
Q 4263 2144 4184 3794 
L 2419 3794 
L 2419 2566 
Q 2419 1391 2309 741 
Q 2194 59 1844 -481 
L 1491 -156 
Q 1991 622 1991 2419 
L 1991 4172 
L 4172 4172 
L 4153 4469 
Q 4150 4556 4141 4816 
Q 4131 5156 4128 5306 
L 4563 5306 
Q 4575 4588 4594 4206 
L 5938 4206 
L 5938 3822 
L 4613 3822 
Q 4697 2419 4831 1706 
Q 5131 2281 5381 3250 
L 5791 3078 
Q 5466 1978 4991 1144 
Q 5125 753 5306 459 
Q 5391 325 5441 325 
Q 5556 325 5703 1259 
L 6106 947 
Q 5844 -353 5534 -353 
Q 5397 -353 5203 -150 
Q 4922 163 4697 697 
Q 4181 19 3513 -475 
L 3188 -141 
Q 4000 384 4531 1175 
z
M 4038 2431 
L 4038 903 
L 3066 903 
L 3066 506 
L 2694 506 
L 2694 2431 
L 4038 2431 
z
M 3066 2088 
L 3066 1247 
L 3659 1247 
L 3659 2088 
L 3066 2088 
z
M 1472 3872 
Q 963 4463 556 4769 
L 856 5100 
Q 1372 4728 1784 4250 
L 1472 3872 
z
M 1209 2375 
Q 781 2897 294 3256 
L 581 3603 
Q 1109 3213 1516 2759 
L 1209 2375 
z
M 331 -103 
Q 838 763 1172 1931 
L 1547 1644 
Q 1188 422 722 -441 
L 331 -103 
z
M 2609 3272 
L 4081 3272 
L 4081 2900 
L 2609 2900 
L 2609 3272 
z
M 5413 4281 
Q 5128 4753 4881 5019 
L 5259 5209 
Q 5566 4884 5803 4513 
L 5413 4281 
z
" transform="scale(0.015625)"/>
      <path id="IPAexGothic-5c11" d="M 2950 5147 
L 3444 5147 
L 3444 1894 
Q 3444 1597 3291 1472 
Q 3156 1375 2816 1375 
Q 2444 1375 2169 1416 
L 2081 1894 
Q 2472 1822 2738 1822 
Q 2950 1822 2950 2034 
L 2950 5147 
z
M 5613 2228 
Q 4884 3428 4172 4219 
L 4556 4488 
Q 5416 3538 6016 2559 
L 5613 2228 
z
M 581 2150 
Q 1350 3016 1675 4325 
L 2150 4184 
Q 1753 2741 972 1806 
L 581 2150 
z
M 997 25 
Q 3766 525 4691 2706 
L 5138 2503 
Q 4116 253 1319 -409 
L 997 25 
z
" transform="scale(0.015625)"/>
     </defs>
     <use xlink:href="#IPAexGothic-300c"/>
     <use xlink:href="#IPAexGothic-47" x="100"/>
     <use xlink:href="#IPAexGothic-44" x="175.292969"/>
     <use xlink:href="#IPAexGothic-50" x="250.976562"/>
     <use xlink:href="#IPAexGothic-306f" x="313.085938"/>
     <use xlink:href="#IPAexGothic-6e1b" x="413.085938"/>
     <use xlink:href="#IPAexGothic-5c11" x="513.085938"/>
     <use xlink:href="#IPAexGothic-3057" x="613.085938"/>
     <use xlink:href="#IPAexGothic-3066" x="713.085938"/>
     <use xlink:href="#IPAexGothic-3044" x="813.085938"/>
     <use xlink:href="#IPAexGothic-307e" x="913.085938"/>
     <use xlink:href="#IPAexGothic-3059" x="1013.085938"/>
     <use xlink:href="#IPAexGothic-300d" x="1113.085938"/>
    </g>
   </g>
   <g id="text_12">
    <!-- END -->
    <g transform="translate(315.300781 335.324141) scale(0.125 -0.125)">
     <use xlink:href="#IPAexGothic-45"/>
     <use xlink:href="#IPAexGothic-4e" x="59.521484"/>
     <use xlink:href="#IPAexGothic-44" x="135.498047"/>
    </g>
   </g>
   <g id="text_13">
    <!-- GDP -->
    <g transform="translate(30.431641 355.124141) scale(0.125 -0.125)">
     <defs>
      <path id="IPAexGothic-5909" d="M 2147 1253 
Q 1641 822 944 563 
L 672 900 
Q 1938 1391 2556 2394 
L 2972 2231 
Q 2847 2034 2747 1900 
L 4750 1900 
L 4969 1700 
Q 4422 984 3859 563 
Q 4650 241 6094 69 
L 5825 -366 
Q 4275 -125 3431 288 
Q 2441 -272 603 -538 
L 341 -134 
Q 2103 75 2997 538 
Q 2591 791 2184 1209 
L 2147 1253 
z
M 2434 1528 
L 2422 1516 
Q 2803 1106 3425 778 
Q 3888 1078 4269 1528 
L 2434 1528 
z
M 4059 4147 
L 4059 2650 
Q 4059 2272 3663 2272 
Q 3416 2272 3047 2309 
L 2963 2725 
Q 3241 2681 3431 2681 
Q 3631 2681 3631 2872 
L 3631 4147 
L 2822 4147 
Q 2766 3291 2503 2816 
Q 2191 2259 1503 1869 
L 1172 2156 
Q 1878 2572 2144 3066 
Q 2359 3456 2388 4147 
L 403 4147 
L 403 4544 
L 2938 4544 
L 2938 5294 
L 3419 5294 
L 3419 4544 
L 6000 4544 
L 6000 4147 
L 4059 4147 
z
M 5494 2363 
Q 4828 3150 4328 3584 
L 4672 3859 
Q 5266 3369 5878 2656 
L 5494 2363 
z
M 341 2528 
Q 1025 3022 1441 3775 
L 1844 3597 
Q 1406 2781 706 2241 
L 341 2528 
z
" transform="scale(0.015625)"/>
      <path id="IPAexGothic-5316" d="M 1831 3700 
L 1831 -341 
L 1356 -341 
L 1356 2772 
Q 1069 2275 678 1772 
L 378 2138 
Q 1319 3278 1856 5166 
L 2319 5013 
Q 2100 4319 1831 3700 
z
M 3425 2906 
Q 4528 3350 5306 3969 
L 5703 3616 
Q 4728 2919 3425 2444 
L 3425 575 
Q 3425 353 3584 306 
Q 3738 263 4334 263 
Q 5072 263 5250 347 
Q 5384 403 5422 594 
Q 5475 872 5506 1497 
L 5978 1331 
Q 5931 319 5775 106 
Q 5641 -75 5331 -141 
Q 5041 -206 4244 -206 
Q 3438 -206 3181 -78 
Q 2931 47 2931 384 
L 2931 5113 
L 3425 5113 
L 3425 2906 
z
" transform="scale(0.015625)"/>
      <path id="IPAexGothic-305b" d="M 4013 4922 
L 4500 4922 
L 4500 3475 
L 5881 3541 
L 5900 3116 
L 4500 3053 
L 4500 1863 
Q 4500 1363 3994 1363 
Q 3563 1363 3169 1516 
L 3169 1997 
Q 3575 1816 3816 1816 
Q 4013 1816 4013 2028 
L 4013 3028 
L 2191 2944 
L 2191 1044 
Q 2191 613 2550 525 
Q 2784 463 3609 463 
Q 4384 463 5172 544 
L 5191 44 
Q 4403 -19 3641 -19 
Q 2456 -19 2081 172 
Q 1697 375 1697 909 
L 1697 2919 
L 488 2859 
L 469 3291 
L 1697 3347 
L 1697 4609 
L 2191 4609 
L 2191 3366 
L 4013 3456 
L 4013 4922 
z
" transform="scale(0.015625)"/>
      <path id="IPAexGothic-3093" d="M 659 31 
Q 1684 2316 3066 4934 
L 3559 4703 
Q 2781 3375 2156 2100 
Q 2659 2572 3109 2572 
Q 3619 2572 3781 2059 
Q 3863 1803 3872 1147 
Q 3881 328 4313 328 
Q 4928 328 5466 1663 
L 5875 1288 
Q 5175 -178 4300 -178 
Q 3400 -178 3400 1069 
L 3400 1119 
Q 3400 2125 3003 2125 
Q 2153 2125 1128 -178 
L 659 31 
z
" transform="scale(0.015625)"/>
     </defs>
     <use xlink:href="#IPAexGothic-300c"/>
     <use xlink:href="#IPAexGothic-47" x="100"/>
     <use xlink:href="#IPAexGothic-44" x="175.292969"/>
     <use xlink:href="#IPAexGothic-50" x="250.976562"/>
     <use xlink:href="#IPAexGothic-306f" x="313.085938"/>
     <use xlink:href="#IPAexGothic-5909" x="413.085938"/>
     <use xlink:href="#IPAexGothic-5316" x="513.085938"/>
     <use xlink:href="#IPAexGothic-3057" x="613.085938"/>
     <use xlink:href="#IPAexGothic-3066" x="713.085938"/>
     <use xlink:href="#IPAexGothic-3044" x="813.085938"/>
     <use xlink:href="#IPAexGothic-307e" x="913.085938"/>
     <use xlink:href="#IPAexGothic-305b" x="1013.085938"/>
     <use xlink:href="#IPAexGothic-3093" x="1113.085938"/>
     <use xlink:href="#IPAexGothic-300d" x="1213.085938"/>
    </g>
   </g>
   <g id="text_14">
    <!-- END -->
    <g transform="translate(99.300781 418.124141) scale(0.125 -0.125)">
     <use xlink:href="#IPAexGothic-45"/>
     <use xlink:href="#IPAexGothic-4e" x="59.521484"/>
     <use xlink:href="#IPAexGothic-44" x="135.498047"/>
    </g>
   </g>
  </g>
 </g>
 <defs>
  <clipPath id="p6dc7e43029">
   <rect x="3.6" y="3.6" width="415.8" height="449.46"/>
  </clipPath>
 </defs>
</svg>