<?xml version="1.0" encoding="utf-8" standalone="no"?>
<!DOCTYPE svg PUBLIC "-//W3C//DTD SVG 1.1//EN"
  "http://www.w3.org/Graphics/SVG/1.1/DTD/svg11.dtd">
<svg xmlns:xlink="http://www.w3.org/1999/xlink" width="114.12pt" height="335.88pt" viewBox="0 0 114.12 335.88" xmlns="http://www.w3.org/2000/svg" version="1.1">
 <metadata>
  <rdf:RDF xmlns:dc="http://purl.org/dc/elements/1.1/" xmlns:cc="http://creativecommons.org/ns#" xmlns:rdf="http://www.w3.org/1999/02/22-rdf-syntax-ns#">
   <cc:Work>
    <dc:type rdf:resource="http://purl.org/dc/dcmitype/StillImage"/>
    <dc:date>2024-03-07T23:59:28.989857</dc:date>
    <dc:format>image/svg+xml</dc:format>
    <dc:creator>
     <cc:Agent>
      <dc:title>Matplotlib v3.8.3, https://matplotlib.org/</dc:title>
     </cc:Agent>
    </dc:creator>
   </cc:Work>
  </rdf:RDF>
 </metadata>
 <defs>
  <style type="text/css">*{stroke-linejoin: round; stroke-linecap: butt}</style>
 </defs>
 <g id="figure_1">
  <g id="patch_1">
   <path d="M 0 335.88 
L 114.12 335.88 
L 114.12 0 
L 0 0 
z
" style="fill: #ffffff"/>
  </g>
  <g id="axes_1">
   <g id="patch_2">
    <path d="M 75.06 54.54 
L 75.345587 54.537734 
L 75.631103 54.530938 
L 75.916474 54.519612 
L 76.201631 54.50376 
L 76.486499 54.483386 
L 76.771009 54.458495 
L 77.055088 54.429092 
L 77.338664 54.395187 
L 77.621667 54.356786 
L 77.904025 54.3139 
L 78.185667 54.26654 
L 78.466522 54.214717 
L 78.74652 54.158444 
L 79.02559 54.097736 
L 79.303661 54.032608 
L 79.580664 53.963077 
L 79.856529 53.889159 
L 80.131186 53.810874 
L 80.404567 53.72824 
L 80.676602 53.64128 
L 80.947223 53.550015 
L 81.216363 53.454467 
L 81.483952 53.354661 
L 81.749924 53.250623 
L 82.014212 53.142377 
L 82.27675 53.029952 
L 82.53747 52.913376 
L 82.796308 52.792678 
L 83.053199 52.667888 
L 83.308077 52.539038 
L 83.560879 52.406161 
L 83.811541 52.269289 
L 84.06 52.128457 
L 84.306193 51.983701 
L 84.550058 51.835058 
L 84.791535 51.682564 
L 85.030561 51.526257 
L 85.267078 51.366178 
L 85.501024 51.202367 
L 85.732343 51.034865 
L 85.960974 50.863713 
L 86.186862 50.688956 
L 86.409948 50.510636 
L 86.630177 50.3288 
L 86.847493 50.143492 
L 87.061842 49.95476 
L 87.273169 49.762651 
L 87.481422 49.567213 
L 87.686548 49.368495 
L 87.888495 49.166548 
L 88.087213 48.961422 
L 88.282651 48.753169 
L 88.47476 48.541842 
L 88.663492 48.327493 
L 88.8488 48.110177 
L 89.030636 47.889948 
L 89.208956 47.666862 
L 89.383713 47.440974 
L 89.554865 47.212343 
L 89.722367 46.981024 
L 89.886178 46.747078 
L 90.046257 46.510561 
L 90.202564 46.271535 
L 90.355058 46.030058 
L 90.503701 45.786193 
L 90.648457 45.54 
L 90.789289 45.291541 
L 90.926161 45.040879 
L 91.059038 44.788077 
L 91.187888 44.533199 
L 91.312678 44.276308 
L 91.433376 44.01747 
L 91.549952 43.75675 
L 91.662377 43.494212 
L 91.770623 43.229924 
L 91.874661 42.963952 
L 91.974467 42.696363 
L 92.070015 42.427223 
L 92.16128 42.156602 
L 92.24824 41.884567 
L 92.330874 41.611186 
L 92.409159 41.336529 
L 92.483077 41.060664 
L 92.552608 40.783661 
L 92.617736 40.50559 
L 92.678444 40.22652 
L 92.734717 39.946522 
L 92.78654 39.665667 
L 92.8339 39.384025 
L 92.876786 39.101667 
L 92.915187 38.818664 
L 92.949092 38.535088 
L 92.978495 38.251009 
L 93.003386 37.966499 
L 93.02376 37.681631 
L 93.039612 37.396474 
L 93.050938 37.111103 
L 93.057734 36.825587 
L 93.06 36.54 
L 93.06 36.54 
L 93.057734 36.254413 
L 93.050938 35.968897 
L 93.039612 35.683526 
L 93.02376 35.398369 
L 93.003386 35.113501 
L 92.978495 34.828991 
L 92.949092 34.544912 
L 92.915187 34.261336 
L 92.876786 33.978333 
L 92.8339 33.695975 
L 92.78654 33.414333 
L 92.734717 33.133478 
L 92.678444 32.85348 
L 92.617736 32.57441 
L 92.552608 32.296339 
L 92.483077 32.019336 
L 92.409159 31.743471 
L 92.330874 31.468814 
L 92.24824 31.195433 
L 92.16128 30.923398 
L 92.070015 30.652777 
L 91.974467 30.383637 
L 91.874661 30.116048 
L 91.770623 29.850076 
L 91.662377 29.585788 
L 91.549952 29.32325 
L 91.433376 29.06253 
L 91.312678 28.803692 
L 91.187888 28.546801 
L 91.059038 28.291923 
L 90.926161 28.039121 
L 90.789289 27.788459 
L 90.648457 27.54 
L 90.503701 27.293807 
L 90.355058 27.049942 
L 90.202564 26.808465 
L 90.046257 26.569439 
L 89.886178 26.332922 
L 89.722367 26.098976 
L 89.554865 25.867657 
L 89.383713 25.639026 
L 89.208956 25.413138 
L 89.030636 25.190052 
L 88.8488 24.969823 
L 88.663492 24.752507 
L 88.47476 24.538158 
L 88.282651 24.326831 
L 88.087213 24.118578 
L 87.888495 23.913452 
L 87.686548 23.711505 
L 87.481422 23.512787 
L 87.273169 23.317349 
L 87.061842 23.12524 
L 86.847493 22.936508 
L 86.630177 22.7512 
L 86.409948 22.569364 
L 86.186862 22.391044 
L 85.960974 22.216287 
L 85.732343 22.045135 
L 85.501024 21.877633 
L 85.267078 21.713822 
L 85.030561 21.553743 
L 84.791535 21.397436 
L 84.550058 21.244942 
L 84.306193 21.096299 
L 84.06 20.951543 
L 83.811541 20.810711 
L 83.560879 20.673839 
L 83.308077 20.540962 
L 83.053199 20.412112 
L 82.796308 20.287322 
L 82.53747 20.166624 
L 82.27675 20.050048 
L 82.014212 19.937623 
L 81.749924 19.829377 
L 81.483952 19.725339 
L 81.216363 19.625533 
L 80.947223 19.529985 
L 80.676602 19.43872 
L 80.404567 19.35176 
L 80.131186 19.269126 
L 79.856529 19.190841 
L 79.580664 19.116923 
L 79.303661 19.047392 
L 79.02559 18.982264 
L 78.74652 18.921556 
L 78.466522 18.865283 
L 78.185667 18.81346 
L 77.904025 18.7661 
L 77.621667 18.723214 
L 77.338664 18.684813 
L 77.055088 18.650908 
L 76.771009 18.621505 
L 76.486499 18.596614 
L 76.201631 18.57624 
L 75.916474 18.560388 
L 75.631103 18.549062 
L 75.345587 18.542266 
L 75.06 18.54 
L 39.06 18.54 
L 38.774413 18.542266 
L 38.488897 18.549062 
L 38.203526 18.560388 
L 37.918369 18.57624 
L 37.633501 18.596614 
L 37.348991 18.621505 
L 37.064912 18.650908 
L 36.781336 18.684813 
L 36.498333 18.723214 
L 36.215975 18.7661 
L 35.934333 18.81346 
L 35.653478 18.865283 
L 35.37348 18.921556 
L 35.09441 18.982264 
L 34.816339 19.047392 
L 34.539336 19.116923 
L 34.263471 19.190841 
L 33.988814 19.269126 
L 33.715433 19.35176 
L 33.443398 19.43872 
L 33.172777 19.529985 
L 32.903637 19.625533 
L 32.636048 19.725339 
L 32.370076 19.829377 
L 32.105788 19.937623 
L 31.84325 20.050048 
L 31.58253 20.166624 
L 31.323692 20.287322 
L 31.066801 20.412112 
L 30.811923 20.540962 
L 30.559121 20.673839 
L 30.308459 20.810711 
L 30.06 20.951543 
L 29.813807 21.096299 
L 29.569942 21.244942 
L 29.328465 21.397436 
L 29.089439 21.553743 
L 28.852922 21.713822 
L 28.618976 21.877633 
L 28.387657 22.045135 
L 28.159026 22.216287 
L 27.933138 22.391044 
L 27.710052 22.569364 
L 27.489823 22.7512 
L 27.272507 22.936508 
L 27.058158 23.12524 
L 26.846831 23.317349 
L 26.638578 23.512787 
L 26.433452 23.711505 
L 26.231505 23.913452 
L 26.032787 24.118578 
L 25.837349 24.326831 
L 25.64524 24.538158 
L 25.456508 24.752507 
L 25.2712 24.969823 
L 25.089364 25.190052 
L 24.911044 25.413138 
L 24.736287 25.639026 
L 24.565135 25.867657 
L 24.397633 26.098976 
L 24.233822 26.332922 
L 24.073743 26.569439 
L 23.917436 26.808465 
L 23.764942 27.049942 
L 23.616299 27.293807 
L 23.471543 27.54 
L 23.330711 27.788459 
L 23.193839 28.039121 
L 23.060962 28.291923 
L 22.932112 28.546801 
L 22.807322 28.803692 
L 22.686624 29.06253 
L 22.570048 29.32325 
L 22.457623 29.585788 
L 22.349377 29.850076 
L 22.245339 30.116048 
L 22.145533 30.383637 
L 22.049985 30.652777 
L 21.95872 30.923398 
L 21.87176 31.195433 
L 21.789126 31.468814 
L 21.710841 31.743471 
L 21.636923 32.019336 
L 21.567392 32.296339 
L 21.502264 32.57441 
L 21.441556 32.85348 
L 21.385283 33.133478 
L 21.33346 33.414333 
L 21.2861 33.695975 
L 21.243214 33.978333 
L 21.204813 34.261336 
L 21.170908 34.544912 
L 21.141505 34.828991 
L 21.116614 35.113501 
L 21.09624 35.398369 
L 21.080388 35.683526 
L 21.069062 35.968897 
L 21.062266 36.254413 
L 21.06 36.54 
L 21.06 36.54 
L 21.062266 36.825587 
L 21.069062 37.111103 
L 21.080388 37.396474 
L 21.09624 37.681631 
L 21.116614 37.966499 
L 21.141505 38.251009 
L 21.170908 38.535088 
L 21.204813 38.818664 
L 21.243214 39.101667 
L 21.2861 39.384025 
L 21.33346 39.665667 
L 21.385283 39.946522 
L 21.441556 40.22652 
L 21.502264 40.50559 
L 21.567392 40.783661 
L 21.636923 41.060664 
L 21.710841 41.336529 
L 21.789126 41.611186 
L 21.87176 41.884567 
L 21.95872 42.156602 
L 22.049985 42.427223 
L 22.145533 42.696363 
L 22.245339 42.963952 
L 22.349377 43.229924 
L 22.457623 43.494212 
L 22.570048 43.75675 
L 22.686624 44.01747 
L 22.807322 44.276308 
L 22.932112 44.533199 
L 23.060962 44.788077 
L 23.193839 45.040879 
L 23.330711 45.291541 
L 23.471543 45.54 
L 23.616299 45.786193 
L 23.764942 46.030058 
L 23.917436 46.271535 
L 24.073743 46.510561 
L 24.233822 46.747078 
L 24.397633 46.981024 
L 24.565135 47.212343 
L 24.736287 47.440974 
L 24.911044 47.666862 
L 25.089364 47.889948 
L 25.2712 48.110177 
L 25.456508 48.327493 
L 25.64524 48.541842 
L 25.837349 48.753169 
L 26.032787 48.961422 
L 26.231505 49.166548 
L 26.433452 49.368495 
L 26.638578 49.567213 
L 26.846831 49.762651 
L 27.058158 49.95476 
L 27.272507 50.143492 
L 27.489823 50.3288 
L 27.710052 50.510636 
L 27.933138 50.688956 
L 28.159026 50.863713 
L 28.387657 51.034865 
L 28.618976 51.202367 
L 28.852922 51.366178 
L 29.089439 51.526257 
L 29.328465 51.682564 
L 29.569942 51.835058 
L 29.813807 51.983701 
L 30.06 52.128457 
L 30.308459 52.269289 
L 30.559121 52.406161 
L 30.811923 52.539038 
L 31.066801 52.667888 
L 31.323692 52.792678 
L 31.58253 52.913376 
L 31.84325 53.029952 
L 32.105788 53.142377 
L 32.370076 53.250623 
L 32.636048 53.354661 
L 32.903637 53.454467 
L 33.172777 53.550015 
L 33.443398 53.64128 
L 33.715433 53.72824 
L 33.988814 53.810874 
L 34.263471 53.889159 
L 34.539336 53.963077 
L 34.816339 54.032608 
L 35.09441 54.097736 
L 35.37348 54.158444 
L 35.653478 54.214717 
L 35.934333 54.26654 
L 36.215975 54.3139 
L 36.498333 54.356786 
L 36.781336 54.395187 
L 37.064912 54.429092 
L 37.348991 54.458495 
L 37.633501 54.483386 
L 37.918369 54.50376 
L 38.203526 54.519612 
L 38.488897 54.530938 
L 38.774413 54.537734 
L 39.06 54.54 
L 75.06 54.54 
z
" clip-path="url(#pd1cf68f9cf)" style="fill: none; stroke: #000000; stroke-linecap: round"/>
   </g>
   <g id="patch_3">
    <path d="M 75.06 317.34 
L 75.345587 317.337734 
L 75.631103 317.330938 
L 75.916474 317.319612 
L 76.201631 317.30376 
L 76.486499 317.283386 
L 76.771009 317.258495 
L 77.055088 317.229092 
L 77.338664 317.195187 
L 77.621667 317.156786 
L 77.904025 317.1139 
L 78.185667 317.06654 
L 78.466522 317.014717 
L 78.74652 316.958444 
L 79.02559 316.897736 
L 79.303661 316.832608 
L 79.580664 316.763077 
L 79.856529 316.689159 
L 80.131186 316.610874 
L 80.404567 316.52824 
L 80.676602 316.44128 
L 80.947223 316.350015 
L 81.216363 316.254467 
L 81.483952 316.154661 
L 81.749924 316.050623 
L 82.014212 315.942377 
L 82.27675 315.829952 
L 82.53747 315.713376 
L 82.796308 315.592678 
L 83.053199 315.467888 
L 83.308077 315.339038 
L 83.560879 315.206161 
L 83.811541 315.069289 
L 84.06 314.928457 
L 84.306193 314.783701 
L 84.550058 314.635058 
L 84.791535 314.482564 
L 85.030561 314.326257 
L 85.267078 314.166178 
L 85.501024 314.002367 
L 85.732343 313.834865 
L 85.960974 313.663713 
L 86.186862 313.488956 
L 86.409948 313.310636 
L 86.630177 313.1288 
L 86.847493 312.943492 
L 87.061842 312.75476 
L 87.273169 312.562651 
L 87.481422 312.367213 
L 87.686548 312.168495 
L 87.888495 311.966548 
L 88.087213 311.761422 
L 88.282651 311.553169 
L 88.47476 311.341842 
L 88.663492 311.127493 
L 88.8488 310.910177 
L 89.030636 310.689948 
L 89.208956 310.466862 
L 89.383713 310.240974 
L 89.554865 310.012343 
L 89.722367 309.781024 
L 89.886178 309.547078 
L 90.046257 309.310561 
L 90.202564 309.071535 
L 90.355058 308.830058 
L 90.503701 308.586193 
L 90.648457 308.34 
L 90.789289 308.091541 
L 90.926161 307.840879 
L 91.059038 307.588077 
L 91.187888 307.333199 
L 91.312678 307.076308 
L 91.433376 306.81747 
L 91.549952 306.55675 
L 91.662377 306.294212 
L 91.770623 306.029924 
L 91.874661 305.763952 
L 91.974467 305.496363 
L 92.070015 305.227223 
L 92.16128 304.956602 
L 92.24824 304.684567 
L 92.330874 304.411186 
L 92.409159 304.136529 
L 92.483077 303.860664 
L 92.552608 303.583661 
L 92.617736 303.30559 
L 92.678444 303.02652 
L 92.734717 302.746522 
L 92.78654 302.465667 
L 92.8339 302.184025 
L 92.876786 301.901667 
L 92.915187 301.618664 
L 92.949092 301.335088 
L 92.978495 301.051009 
L 93.003386 300.766499 
L 93.02376 300.481631 
L 93.039612 300.196474 
L 93.050938 299.911103 
L 93.057734 299.625587 
L 93.06 299.34 
L 93.06 299.34 
L 93.057734 299.054413 
L 93.050938 298.768897 
L 93.039612 298.483526 
L 93.02376 298.198369 
L 93.003386 297.913501 
L 92.978495 297.628991 
L 92.949092 297.344912 
L 92.915187 297.061336 
L 92.876786 296.778333 
L 92.8339 296.495975 
L 92.78654 296.214333 
L 92.734717 295.933478 
L 92.678444 295.65348 
L 92.617736 295.37441 
L 92.552608 295.096339 
L 92.483077 294.819336 
L 92.409159 294.543471 
L 92.330874 294.268814 
L 92.24824 293.995433 
L 92.16128 293.723398 
L 92.070015 293.452777 
L 91.974467 293.183637 
L 91.874661 292.916048 
L 91.770623 292.650076 
L 91.662377 292.385788 
L 91.549952 292.12325 
L 91.433376 291.86253 
L 91.312678 291.603692 
L 91.187888 291.346801 
L 91.059038 291.091923 
L 90.926161 290.839121 
L 90.789289 290.588459 
L 90.648457 290.34 
L 90.503701 290.093807 
L 90.355058 289.849942 
L 90.202564 289.608465 
L 90.046257 289.369439 
L 89.886178 289.132922 
L 89.722367 288.898976 
L 89.554865 288.667657 
L 89.383713 288.439026 
L 89.208956 288.213138 
L 89.030636 287.990052 
L 88.8488 287.769823 
L 88.663492 287.552507 
L 88.47476 287.338158 
L 88.282651 287.126831 
L 88.087213 286.918578 
L 87.888495 286.713452 
L 87.686548 286.511505 
L 87.481422 286.312787 
L 87.273169 286.117349 
L 87.061842 285.92524 
L 86.847493 285.736508 
L 86.630177 285.5512 
L 86.409948 285.369364 
L 86.186862 285.191044 
L 85.960974 285.016287 
L 85.732343 284.845135 
L 85.501024 284.677633 
L 85.267078 284.513822 
L 85.030561 284.353743 
L 84.791535 284.197436 
L 84.550058 284.044942 
L 84.306193 283.896299 
L 84.06 283.751543 
L 83.811541 283.610711 
L 83.560879 283.473839 
L 83.308077 283.340962 
L 83.053199 283.212112 
L 82.796308 283.087322 
L 82.53747 282.966624 
L 82.27675 282.850048 
L 82.014212 282.737623 
L 81.749924 282.629377 
L 81.483952 282.525339 
L 81.216363 282.425533 
L 80.947223 282.329985 
L 80.676602 282.23872 
L 80.404567 282.15176 
L 80.131186 282.069126 
L 79.856529 281.990841 
L 79.580664 281.916923 
L 79.303661 281.847392 
L 79.02559 281.782264 
L 78.74652 281.721556 
L 78.466522 281.665283 
L 78.185667 281.61346 
L 77.904025 281.5661 
L 77.621667 281.523214 
L 77.338664 281.484813 
L 77.055088 281.450908 
L 76.771009 281.421505 
L 76.486499 281.396614 
L 76.201631 281.37624 
L 75.916474 281.360388 
L 75.631103 281.349062 
L 75.345587 281.342266 
L 75.06 281.34 
L 39.06 281.34 
L 38.774413 281.342266 
L 38.488897 281.349062 
L 38.203526 281.360388 
L 37.918369 281.37624 
L 37.633501 281.396614 
L 37.348991 281.421505 
L 37.064912 281.450908 
L 36.781336 281.484813 
L 36.498333 281.523214 
L 36.215975 281.5661 
L 35.934333 281.61346 
L 35.653478 281.665283 
L 35.37348 281.721556 
L 35.09441 281.782264 
L 34.816339 281.847392 
L 34.539336 281.916923 
L 34.263471 281.990841 
L 33.988814 282.069126 
L 33.715433 282.15176 
L 33.443398 282.23872 
L 33.172777 282.329985 
L 32.903637 282.425533 
L 32.636048 282.525339 
L 32.370076 282.629377 
L 32.105788 282.737623 
L 31.84325 282.850048 
L 31.58253 282.966624 
L 31.323692 283.087322 
L 31.066801 283.212112 
L 30.811923 283.340962 
L 30.559121 283.473839 
L 30.308459 283.610711 
L 30.06 283.751543 
L 29.813807 283.896299 
L 29.569942 284.044942 
L 29.328465 284.197436 
L 29.089439 284.353743 
L 28.852922 284.513822 
L 28.618976 284.677633 
L 28.387657 284.845135 
L 28.159026 285.016287 
L 27.933138 285.191044 
L 27.710052 285.369364 
L 27.489823 285.5512 
L 27.272507 285.736508 
L 27.058158 285.92524 
L 26.846831 286.117349 
L 26.638578 286.312787 
L 26.433452 286.511505 
L 26.231505 286.713452 
L 26.032787 286.918578 
L 25.837349 287.126831 
L 25.64524 287.338158 
L 25.456508 287.552507 
L 25.2712 287.769823 
L 25.089364 287.990052 
L 24.911044 288.213138 
L 24.736287 288.439026 
L 24.565135 288.667657 
L 24.397633 288.898976 
L 24.233822 289.132922 
L 24.073743 289.369439 
L 23.917436 289.608465 
L 23.764942 289.849942 
L 23.616299 290.093807 
L 23.471543 290.34 
L 23.330711 290.588459 
L 23.193839 290.839121 
L 23.060962 291.091923 
L 22.932112 291.346801 
L 22.807322 291.603692 
L 22.686624 291.86253 
L 22.570048 292.12325 
L 22.457623 292.385788 
L 22.349377 292.650076 
L 22.245339 292.916048 
L 22.145533 293.183637 
L 22.049985 293.452777 
L 21.95872 293.723398 
L 21.87176 293.995433 
L 21.789126 294.268814 
L 21.710841 294.543471 
L 21.636923 294.819336 
L 21.567392 295.096339 
L 21.502264 295.37441 
L 21.441556 295.65348 
L 21.385283 295.933478 
L 21.33346 296.214333 
L 21.2861 296.495975 
L 21.243214 296.778333 
L 21.204813 297.061336 
L 21.170908 297.344912 
L 21.141505 297.628991 
L 21.116614 297.913501 
L 21.09624 298.198369 
L 21.080388 298.483526 
L 21.069062 298.768897 
L 21.062266 299.054413 
L 21.06 299.34 
L 21.06 299.34 
L 21.062266 299.625587 
L 21.069062 299.911103 
L 21.080388 300.196474 
L 21.09624 300.481631 
L 21.116614 300.766499 
L 21.141505 301.051009 
L 21.170908 301.335088 
L 21.204813 301.618664 
L 21.243214 301.901667 
L 21.2861 302.184025 
L 21.33346 302.465667 
L 21.385283 302.746522 
L 21.441556 303.02652 
L 21.502264 303.30559 
L 21.567392 303.583661 
L 21.636923 303.860664 
L 21.710841 304.136529 
L 21.789126 304.411186 
L 21.87176 304.684567 
L 21.95872 304.956602 
L 22.049985 305.227223 
L 22.145533 305.496363 
L 22.245339 305.763952 
L 22.349377 306.029924 
L 22.457623 306.294212 
L 22.570048 306.55675 
L 22.686624 306.81747 
L 22.807322 307.076308 
L 22.932112 307.333199 
L 23.060962 307.588077 
L 23.193839 307.840879 
L 23.330711 308.091541 
L 23.471543 308.34 
L 23.616299 308.586193 
L 23.764942 308.830058 
L 23.917436 309.071535 
L 24.073743 309.310561 
L 24.233822 309.547078 
L 24.397633 309.781024 
L 24.565135 310.012343 
L 24.736287 310.240974 
L 24.911044 310.466862 
L 25.089364 310.689948 
L 25.2712 310.910177 
L 25.456508 311.127493 
L 25.64524 311.341842 
L 25.837349 311.553169 
L 26.032787 311.761422 
L 26.231505 311.966548 
L 26.433452 312.168495 
L 26.638578 312.367213 
L 26.846831 312.562651 
L 27.058158 312.75476 
L 27.272507 312.943492 
L 27.489823 313.1288 
L 27.710052 313.310636 
L 27.933138 313.488956 
L 28.159026 313.663713 
L 28.387657 313.834865 
L 28.618976 314.002367 
L 28.852922 314.166178 
L 29.089439 314.326257 
L 29.328465 314.482564 
L 29.569942 314.635058 
L 29.813807 314.783701 
L 30.06 314.928457 
L 30.308459 315.069289 
L 30.559121 315.206161 
L 30.811923 315.339038 
L 31.066801 315.467888 
L 31.323692 315.592678 
L 31.58253 315.713376 
L 31.84325 315.829952 
L 32.105788 315.942377 
L 32.370076 316.050623 
L 32.636048 316.154661 
L 32.903637 316.254467 
L 33.172777 316.350015 
L 33.443398 316.44128 
L 33.715433 316.52824 
L 33.988814 316.610874 
L 34.263471 316.689159 
L 34.539336 316.763077 
L 34.816339 316.832608 
L 35.09441 316.897736 
L 35.37348 316.958444 
L 35.653478 317.014717 
L 35.934333 317.06654 
L 36.215975 317.1139 
L 36.498333 317.156786 
L 36.781336 317.195187 
L 37.064912 317.229092 
L 37.348991 317.258495 
L 37.633501 317.283386 
L 37.918369 317.30376 
L 38.203526 317.319612 
L 38.488897 317.330938 
L 38.774413 317.337734 
L 39.06 317.34 
L 75.06 317.34 
z
" clip-path="url(#pd1cf68f9cf)" style="fill: none; stroke: #000000; stroke-linecap: round"/>
   </g>
   <g id="line2d_1">
    <path d="M 57.06 54.54 
L 57.06 68.04 
L 57.06 72.54 
" clip-path="url(#pd1cf68f9cf)" style="fill: none; stroke: #000000; stroke-linecap: round"/>
   </g>
   <g id="patch_4">
    <path d="M 59.76 72.54 
L 57.06 81.54 
L 54.36 72.54 
z
" clip-path="url(#pd1cf68f9cf)"/>
   </g>
   <g id="line2d_2">
    <path d="M 21.06 99.54 
L 21.06 81.54 
L 93.06 81.54 
L 93.06 117.54 
L 21.06 117.54 
L 21.06 99.54 
" clip-path="url(#pd1cf68f9cf)" style="fill: none; stroke: #000000; stroke-linecap: round"/>
   </g>
   <g id="line2d_3">
    <path d="M 57.06 117.54 
L 57.06 131.04 
L 57.06 135.54 
" clip-path="url(#pd1cf68f9cf)" style="fill: none; stroke: #000000; stroke-linecap: round"/>
   </g>
   <g id="patch_5">
    <path d="M 59.76 135.54 
L 57.06 144.54 
L 54.36 135.54 
z
" clip-path="url(#pd1cf68f9cf)"/>
   </g>
   <g id="line2d_4">
    <path d="M 21.06 162.54 
L 21.06 144.54 
L 93.06 144.54 
L 93.06 180.54 
L 21.06 180.54 
L 21.06 162.54 
" clip-path="url(#pd1cf68f9cf)" style="fill: none; stroke: #000000; stroke-linecap: round"/>
   </g>
   <g id="line2d_5">
    <path d="M 57.06 180.54 
L 57.06 194.04 
L 57.06 198.54 
" clip-path="url(#pd1cf68f9cf)" style="fill: none; stroke: #000000; stroke-linecap: round"/>
   </g>
   <g id="patch_6">
    <path d="M 59.76 198.54 
L 57.06 207.54 
L 54.36 198.54 
z
" clip-path="url(#pd1cf68f9cf)"/>
   </g>
   <g id="line2d_6">
    <path d="M 8.46 230.94 
L 8.46 207.54 
L 105.66 207.54 
L 105.66 254.34 
L 8.46 254.34 
L 8.46 230.94 
" clip-path="url(#pd1cf68f9cf)" style="fill: none; stroke: #000000; stroke-linecap: round"/>
   </g>
   <g id="line2d_7">
    <path d="M 57.06 254.34 
L 57.06 267.84 
L 57.06 272.34 
" clip-path="url(#pd1cf68f9cf)" style="fill: none; stroke: #000000; stroke-linecap: round"/>
   </g>
   <g id="patch_7">
    <path d="M 59.76 272.34 
L 57.06 281.34 
L 54.36 272.34 
z
" clip-path="url(#pd1cf68f9cf)"/>
   </g>
   <g id="text_1">
    <!-- START -->
    <g transform="translate(37.883242 40.034141) scale(0.125 -0.125)">
     <defs>
      <path id="IPAexGothic-53" d="M 2919 3641 
Q 2563 4259 1853 4259 
Q 1453 4259 1213 4009 
Q 1028 3803 1028 3534 
Q 1028 3238 1266 3047 
Q 1444 2913 1984 2688 
L 2200 2597 
Q 2925 2306 3191 1953 
Q 3422 1644 3422 1259 
Q 3422 644 2969 288 
Q 2559 -31 1931 -31 
Q 881 -31 313 766 
L 753 1100 
Q 1203 459 1938 459 
Q 2288 459 2534 625 
Q 2841 847 2841 1216 
Q 2841 1503 2616 1728 
Q 2375 1959 1728 2206 
L 1541 2278 
Q 453 2694 453 3481 
Q 453 4006 806 4347 
Q 1203 4725 1863 4725 
Q 2841 4725 3359 3956 
L 2919 3641 
z
" transform="scale(0.015625)"/>
      <path id="IPAexGothic-54" d="M 3866 4141 
L 2175 4141 
L 2175 63 
L 1606 63 
L 1606 4141 
L -31 4141 
L -31 4634 
L 3866 4634 
L 3866 4141 
z
" transform="scale(0.015625)"/>
      <path id="IPAexGothic-41" d="M 4056 63 
L 3444 63 
L 2938 1409 
L 1100 1409 
L 603 63 
L -6 63 
L 1806 4666 
L 2259 4666 
L 4056 63 
z
M 2778 1863 
L 2316 3078 
Q 2125 3588 2028 4000 
L 2009 4000 
Q 1897 3563 1716 3078 
L 1263 1863 
L 2778 1863 
z
" transform="scale(0.015625)"/>
      <path id="IPAexGothic-52" d="M 4072 63 
L 3394 63 
Q 3138 641 2828 1197 
Q 2584 1641 2344 1825 
Q 2050 2044 1625 2044 
L 1172 2044 
L 1172 63 
L 609 63 
L 609 4634 
L 2009 4634 
Q 2713 4634 3131 4378 
Q 3688 4044 3688 3381 
Q 3688 2784 3181 2459 
Q 2906 2272 2522 2216 
L 2522 2197 
Q 2941 2050 3247 1581 
Q 3516 1166 4072 63 
z
M 1172 2478 
L 1869 2478 
Q 3106 2478 3106 3369 
Q 3106 4181 1928 4181 
L 1172 4181 
L 1172 2478 
z
" transform="scale(0.015625)"/>
     </defs>
     <use xlink:href="#IPAexGothic-53"/>
     <use xlink:href="#IPAexGothic-54" x="58.496094"/>
     <use xlink:href="#IPAexGothic-41" x="118.408203"/>
     <use xlink:href="#IPAexGothic-52" x="182.128906"/>
     <use xlink:href="#IPAexGothic-54" x="246.923828"/>
    </g>
   </g>
   <g id="text_2">
    <!-- x = 10 -->
    <g transform="translate(38.518008 103.034141) scale(0.125 -0.125)">
     <defs>
      <path id="IPAexGothic-78" d="M 3050 63 
L 2419 63 
L 1547 1338 
L 691 63 
L 56 63 
L 1247 1675 
L 106 3250 
L 747 3250 
L 1578 2016 
L 2413 3250 
L 3019 3250 
L 1875 1681 
L 3050 63 
z
" transform="scale(0.015625)"/>
      <path id="IPAexGothic-20" transform="scale(0.015625)"/>
      <path id="IPAexGothic-3d" d="M 416 2803 
L 3922 2803 
L 3922 2438 
L 416 2438 
L 416 2803 
z
M 416 1625 
L 3922 1625 
L 3922 1259 
L 416 1259 
L 416 1625 
z
" transform="scale(0.015625)"/>
      <path id="IPAexGothic-31" d="M 2463 63 
L 1900 63 
L 1900 4103 
Q 1372 3922 788 3797 
L 684 4231 
Q 1519 4441 2106 4731 
L 2463 4731 
L 2463 63 
z
" transform="scale(0.015625)"/>
      <path id="IPAexGothic-30" d="M 2038 4725 
Q 2881 4725 3334 3944 
Q 3694 3325 3694 2344 
Q 3694 1372 3334 741 
Q 2888 -31 2016 -31 
Q 1147 -31 700 741 
Q 341 1372 341 2350 
Q 341 3713 1000 4334 
Q 1419 4725 2038 4725 
z
M 2016 4266 
Q 1516 4266 1228 3759 
Q 934 3247 934 2344 
Q 934 1456 1222 947 
Q 1513 447 2016 447 
Q 2619 447 2909 1153 
Q 3100 1622 3100 2375 
Q 3100 3256 2806 3759 
Q 2509 4266 2016 4266 
z
" transform="scale(0.015625)"/>
     </defs>
     <use xlink:href="#IPAexGothic-78"/>
     <use xlink:href="#IPAexGothic-20" x="48.876953"/>
     <use xlink:href="#IPAexGothic-3d" x="75.878906"/>
     <use xlink:href="#IPAexGothic-20" x="143.701172"/>
     <use xlink:href="#IPAexGothic-31" x="170.703125"/>
     <use xlink:href="#IPAexGothic-30" x="233.691406"/>
    </g>
   </g>
   <g id="text_3">
    <!-- y = 5 -->
    <g transform="translate(42.433047 166.034141) scale(0.125 -0.125)">
     <defs>
      <path id="IPAexGothic-79" d="M 3122 3250 
L 1575 -488 
Q 1278 -1203 550 -1203 
L 478 -1203 
L 344 -703 
L 447 -703 
Q 969 -703 1150 -238 
L 1356 275 
L 38 3250 
L 659 3250 
L 1363 1459 
Q 1528 1025 1606 781 
L 1625 781 
Q 1750 1169 1863 1459 
L 2528 3250 
L 3122 3250 
z
" transform="scale(0.015625)"/>
      <path id="IPAexGothic-35" d="M 1178 2603 
Q 1634 2963 2172 2963 
Q 2816 2963 3241 2528 
Q 3638 2113 3638 1497 
Q 3638 938 3297 513 
Q 2869 -31 2031 -31 
Q 959 -31 469 784 
L 938 1028 
Q 1309 434 2013 434 
Q 2466 434 2769 716 
Q 3081 1013 3081 1503 
Q 3081 1966 2806 2241 
Q 2519 2528 2056 2528 
Q 1406 2528 1072 2028 
L 591 2091 
L 884 4634 
L 3406 4634 
L 3406 4153 
L 1341 4153 
L 1134 2603 
L 1178 2603 
z
" transform="scale(0.015625)"/>
     </defs>
     <use xlink:href="#IPAexGothic-79"/>
     <use xlink:href="#IPAexGothic-20" x="49.21875"/>
     <use xlink:href="#IPAexGothic-3d" x="76.220703"/>
     <use xlink:href="#IPAexGothic-20" x="144.042969"/>
     <use xlink:href="#IPAexGothic-35" x="171.044922"/>
    </g>
   </g>
   <g id="text_4">
    <!-- x+yの -->
    <g transform="translate(40.439883 227.628672) scale(0.125 -0.125)">
     <defs>
      <path id="IPAexGothic-2b" d="M 2369 1856 
L 2369 219 
L 1984 219 
L 1984 1856 
L 416 1856 
L 416 2216 
L 1984 2216 
L 1984 3725 
L 2369 3725 
L 2369 2216 
L 3922 2216 
L 3922 1856 
L 2369 1856 
z
" transform="scale(0.015625)"/>
      <path id="IPAexGothic-306e" d="M 3119 469 
Q 5275 766 5275 2425 
Q 5275 3453 4413 3925 
Q 4041 4116 3547 4159 
Q 3394 2525 2850 1400 
Q 2322 306 1722 306 
Q 1384 306 1084 666 
Q 609 1244 609 2003 
Q 609 3025 1397 3794 
Q 2184 4563 3431 4563 
Q 4306 4563 4928 4122 
Q 5813 3506 5813 2425 
Q 5813 438 3431 6 
L 3119 469 
z
M 3053 4147 
Q 2378 4044 1891 3641 
Q 1097 2981 1097 1991 
Q 1097 1366 1434 978 
Q 1581 813 1719 813 
Q 2022 813 2416 1625 
Q 2909 2638 3053 4147 
z
" transform="scale(0.015625)"/>
     </defs>
     <use xlink:href="#IPAexGothic-78"/>
     <use xlink:href="#IPAexGothic-2b" x="48.876953"/>
     <use xlink:href="#IPAexGothic-79" x="116.699219"/>
     <use xlink:href="#IPAexGothic-306e" x="165.917969"/>
    </g>
    <!-- 計算結果の表示 -->
    <g transform="translate(13.31 241.239609) scale(0.125 -0.125)">
     <defs>
      <path id="IPAexGothic-8a08" d="M 2853 1684 
L 2853 -416 
L 2413 -416 
L 2413 -128 
L 1088 -128 
L 1088 -447 
L 647 -447 
L 647 1684 
L 2853 1684 
z
M 1088 1300 
L 1088 256 
L 2413 256 
L 2413 1300 
L 1088 1300 
z
M 4322 3225 
L 4322 5178 
L 4781 5178 
L 4781 3225 
L 6063 3225 
L 6063 2797 
L 4781 2797 
L 4781 -447 
L 4322 -447 
L 4322 2797 
L 3063 2797 
L 3063 3225 
L 4322 3225 
z
M 781 5044 
L 2722 5044 
L 2722 4647 
L 781 4647 
L 781 5044 
z
M 384 4206 
L 3150 4206 
L 3150 3803 
L 384 3803 
L 384 4206 
z
M 781 3359 
L 2722 3359 
L 2722 2963 
L 781 2963 
L 781 3359 
z
M 781 2522 
L 2722 2522 
L 2722 2125 
L 781 2125 
L 781 2522 
z
" transform="scale(0.015625)"/>
      <path id="IPAexGothic-7b97" d="M 2466 672 
Q 2322 -228 1031 -525 
L 756 -166 
Q 1419 -22 1731 213 
Q 1944 369 2013 672 
L 328 672 
L 328 1056 
L 2038 1056 
L 2038 1466 
L 1206 1466 
L 1206 3803 
L 3319 3803 
L 3022 4019 
Q 3444 4525 3694 5319 
L 4122 5222 
Q 4081 5094 3963 4794 
L 5991 4794 
L 5991 4422 
L 4691 4422 
Q 4788 4281 4956 3988 
L 4556 3809 
Q 4397 4153 4225 4422 
L 3791 4422 
Q 3609 4075 3375 3803 
L 5213 3803 
L 5213 1466 
L 4422 1466 
L 4422 1056 
L 6088 1056 
L 6088 672 
L 4444 672 
L 4444 -441 
L 3991 -441 
L 3991 672 
L 2466 672 
z
M 2491 1056 
L 3969 1056 
L 3969 1466 
L 2491 1466 
L 2491 1056 
z
M 4769 1797 
L 4769 2172 
L 1647 2172 
L 1647 1797 
L 4769 1797 
z
M 4769 2497 
L 4769 2819 
L 1647 2819 
L 1647 2497 
L 4769 2497 
z
M 4769 3144 
L 4769 3463 
L 1647 3463 
L 1647 3144 
L 4769 3144 
z
M 1472 4794 
L 3206 4794 
L 3206 4422 
L 2272 4422 
L 2478 3994 
L 2088 3806 
Q 1934 4200 1819 4422 
L 1281 4422 
Q 1025 3969 691 3616 
L 384 3878 
Q 941 4494 1241 5313 
L 1659 5203 
Q 1594 5053 1472 4794 
z
" transform="scale(0.015625)"/>
      <path id="IPAexGothic-7d50" d="M 1241 3084 
Q 794 3713 378 4128 
L 666 4422 
Q 828 4259 916 4153 
Q 1300 4750 1541 5331 
L 1956 5119 
Q 1547 4363 1150 3859 
Q 1228 3759 1466 3425 
Q 1844 4016 2138 4550 
L 2522 4313 
Q 1853 3213 1313 2572 
Q 1647 2581 2253 2631 
Q 2134 2909 2009 3156 
L 2353 3303 
Q 2656 2775 2878 2106 
L 2494 1925 
Q 2469 2022 2425 2156 
Q 2384 2284 2372 2322 
Q 2334 2319 2222 2300 
Q 1966 2259 1778 2234 
L 1778 -447 
L 1363 -447 
L 1363 2181 
L 1291 2175 
Q 1000 2144 428 2106 
L 281 2534 
Q 672 2547 863 2553 
Q 909 2613 972 2700 
Q 1059 2816 1241 3084 
z
M 4134 4325 
L 4134 5309 
L 4563 5309 
L 4563 4325 
L 6113 4325 
L 6113 3934 
L 4563 3934 
L 4563 3034 
L 5906 3034 
L 5906 2650 
L 2859 2650 
L 2859 3034 
L 4134 3034 
L 4134 3934 
L 2719 3934 
L 2719 4325 
L 4134 4325 
z
M 5631 1997 
L 5631 -450 
L 5203 -450 
L 5203 -103 
L 3550 -103 
L 3550 -450 
L 3122 -450 
L 3122 1997 
L 5631 1997 
z
M 3550 1613 
L 3550 281 
L 5203 281 
L 5203 1613 
L 3550 1613 
z
M 353 197 
Q 581 863 647 1759 
L 1056 1709 
Q 988 709 769 -13 
L 353 197 
z
M 2334 313 
Q 2206 1147 1997 1759 
L 2363 1869 
Q 2609 1253 2766 488 
L 2334 313 
z
" transform="scale(0.015625)"/>
      <path id="IPAexGothic-679c" d="M 3809 1666 
Q 4656 800 6088 297 
L 5784 -131 
Q 4256 494 3406 1563 
L 3406 -447 
L 2947 -447 
L 2947 1519 
Q 2203 425 647 -281 
L 334 109 
Q 1769 697 2575 1666 
L 378 1666 
L 378 2075 
L 2947 2075 
L 2947 2625 
L 1109 2625 
L 1109 5013 
L 5288 5013 
L 5288 2625 
L 3406 2625 
L 3406 2075 
L 6016 2075 
L 6016 1666 
L 3809 1666 
z
M 1556 4628 
L 1556 3994 
L 2959 3994 
L 2959 4628 
L 1556 4628 
z
M 1556 3628 
L 1556 3009 
L 2959 3009 
L 2959 3628 
L 1556 3628 
z
M 4834 3009 
L 4834 3628 
L 3394 3628 
L 3394 3009 
L 4834 3009 
z
M 4834 3994 
L 4834 4628 
L 3394 4628 
L 3394 3994 
L 4834 3994 
z
" transform="scale(0.015625)"/>
      <path id="IPAexGothic-8868" d="M 3209 2350 
Q 2856 1944 2328 1563 
L 2328 288 
Q 2975 438 3756 691 
L 3763 275 
Q 2534 -163 1184 -447 
L 978 13 
Q 1566 119 1819 175 
L 1875 188 
L 1875 1275 
Q 1306 941 506 666 
L 219 1056 
Q 1813 1509 2675 2356 
L 384 2356 
L 384 2753 
L 2978 2753 
L 2978 3309 
L 959 3309 
L 959 3694 
L 2978 3694 
L 2978 4219 
L 641 4219 
L 641 4603 
L 2978 4603 
L 2978 5313 
L 3431 5313 
L 3431 4603 
L 5759 4603 
L 5759 4219 
L 3431 4219 
L 3431 3694 
L 5434 3694 
L 5434 3309 
L 3431 3309 
L 3431 2753 
L 6016 2753 
L 6016 2356 
L 3634 2356 
Q 3863 1838 4244 1356 
Q 4781 1756 5166 2191 
L 5588 1894 
Q 5084 1419 4525 1056 
Q 5150 459 6106 66 
L 5734 -356 
Q 3850 575 3209 2350 
z
" transform="scale(0.015625)"/>
      <path id="IPAexGothic-793a" d="M 3488 2822 
L 3488 153 
Q 3488 -144 3334 -247 
Q 3213 -331 2872 -331 
Q 2425 -331 1950 -294 
L 1859 213 
Q 2350 128 2775 128 
Q 3000 128 3000 353 
L 3000 2822 
L 447 2822 
L 447 3250 
L 5950 3250 
L 5950 2822 
L 3488 2822 
z
M 1125 4813 
L 5266 4813 
L 5266 4384 
L 1125 4384 
L 1125 4813 
z
M 5581 244 
Q 4966 1263 4206 2081 
L 4563 2369 
Q 5319 1575 6009 622 
L 5581 244 
z
M 403 616 
Q 1184 1238 1741 2259 
L 2163 2053 
Q 1631 975 763 238 
L 403 616 
z
" transform="scale(0.015625)"/>
     </defs>
     <use xlink:href="#IPAexGothic-8a08"/>
     <use xlink:href="#IPAexGothic-7b97" x="100"/>
     <use xlink:href="#IPAexGothic-7d50" x="200"/>
     <use xlink:href="#IPAexGothic-679c" x="300"/>
     <use xlink:href="#IPAexGothic-306e" x="400"/>
     <use xlink:href="#IPAexGothic-8868" x="500"/>
     <use xlink:href="#IPAexGothic-793a" x="600"/>
    </g>
   </g>
   <g id="text_5">
    <!-- END -->
    <g transform="translate(43.860781 302.834141) scale(0.125 -0.125)">
     <defs>
      <path id="IPAexGothic-45" d="M 3547 63 
L 609 63 
L 609 4634 
L 3469 4634 
L 3469 4147 
L 1166 4147 
L 1166 2650 
L 3206 2650 
L 3206 2191 
L 1166 2191 
L 1166 556 
L 3547 556 
L 3547 63 
z
" transform="scale(0.015625)"/>
      <path id="IPAexGothic-4e" d="M 4244 63 
L 3731 63 
L 1697 3150 
Q 1466 3500 1141 4097 
L 1116 4097 
L 1128 3797 
Q 1159 2803 1159 2469 
L 1159 63 
L 609 63 
L 609 4634 
L 1366 4634 
L 3113 1978 
Q 3453 1447 3713 966 
L 3738 966 
Q 3694 1897 3694 2469 
L 3694 4634 
L 4244 4634 
L 4244 63 
z
" transform="scale(0.015625)"/>
      <path id="IPAexGothic-44" d="M 609 4634 
L 1984 4634 
Q 3159 4634 3791 4050 
Q 4456 3444 4456 2356 
Q 4456 1047 3516 441 
Q 2925 63 1941 63 
L 609 63 
L 609 4634 
z
M 1172 556 
L 1894 556 
Q 3853 556 3853 2356 
Q 3853 4147 1928 4147 
L 1172 4147 
L 1172 556 
z
" transform="scale(0.015625)"/>
     </defs>
     <use xlink:href="#IPAexGothic-45"/>
     <use xlink:href="#IPAexGothic-4e" x="59.521484"/>
     <use xlink:href="#IPAexGothic-44" x="135.498047"/>
    </g>
   </g>
  </g>
 </g>
 <defs>
  <clipPath id="pd1cf68f9cf">
   <rect x="3.6" y="3.6" width="106.92" height="328.68"/>
  </clipPath>
 </defs>
</svg>