<?xml version="1.0" encoding="utf-8" standalone="no"?>
<!DOCTYPE svg PUBLIC "-//W3C//DTD SVG 1.1//EN"
  "http://www.w3.org/Graphics/SVG/1.1/DTD/svg11.dtd">
<svg xmlns:xlink="http://www.w3.org/1999/xlink" width="376.56pt" height="417.96pt" viewBox="0 0 376.56 417.96" xmlns="http://www.w3.org/2000/svg" version="1.1">
 <metadata>
  <rdf:RDF xmlns:dc="http://purl.org/dc/elements/1.1/" xmlns:cc="http://creativecommons.org/ns#" xmlns:rdf="http://www.w3.org/1999/02/22-rdf-syntax-ns#">
   <cc:Work>
    <dc:type rdf:resource="http://purl.org/dc/dcmitype/StillImage"/>
    <dc:date>2024-06-13T09:22:59.665866</dc:date>
    <dc:format>image/svg+xml</dc:format>
    <dc:creator>
     <cc:Agent>
      <dc:title>Matplotlib v3.9.0, https://matplotlib.org/</dc:title>
     </cc:Agent>
    </dc:creator>
   </cc:Work>
  </rdf:RDF>
 </metadata>
 <defs>
  <style type="text/css">*{stroke-linejoin: round; stroke-linecap: butt}</style>
 </defs>
 <g id="figure_1">
  <g id="patch_1">
   <path d="M 0 417.96 
L 376.56 417.96 
L 376.56 0 
L 0 0 
z
" style="fill: #ffffff"/>
  </g>
  <g id="axes_1">
   <g id="patch_2">
    <path d="M 112.68 40.68 
L 112.965587 40.677734 
L 113.251103 40.670938 
L 113.536474 40.659612 
L 113.821631 40.64376 
L 114.106499 40.623386 
L 114.391009 40.598495 
L 114.675088 40.569092 
L 114.958664 40.535187 
L 115.241667 40.496786 
L 115.524025 40.4539 
L 115.805667 40.40654 
L 116.086522 40.354717 
L 116.36652 40.298444 
L 116.64559 40.237736 
L 116.923661 40.172608 
L 117.200664 40.103077 
L 117.476529 40.029159 
L 117.751186 39.950874 
L 118.024567 39.86824 
L 118.296602 39.78128 
L 118.567223 39.690015 
L 118.836363 39.594467 
L 119.103952 39.494661 
L 119.369924 39.390623 
L 119.634212 39.282377 
L 119.89675 39.169952 
L 120.15747 39.053376 
L 120.416308 38.932678 
L 120.673199 38.807888 
L 120.928077 38.679038 
L 121.180879 38.546161 
L 121.431541 38.409289 
L 121.68 38.268457 
L 121.926193 38.123701 
L 122.170058 37.975058 
L 122.411535 37.822564 
L 122.650561 37.666257 
L 122.887078 37.506178 
L 123.121024 37.342367 
L 123.352343 37.174865 
L 123.580974 37.003713 
L 123.806862 36.828956 
L 124.029948 36.650636 
L 124.250177 36.4688 
L 124.467493 36.283492 
L 124.681842 36.09476 
L 124.893169 35.902651 
L 125.101422 35.707213 
L 125.306548 35.508495 
L 125.508495 35.306548 
L 125.707213 35.101422 
L 125.902651 34.893169 
L 126.09476 34.681842 
L 126.283492 34.467493 
L 126.4688 34.250177 
L 126.650636 34.029948 
L 126.828956 33.806862 
L 127.003713 33.580974 
L 127.174865 33.352343 
L 127.342367 33.121024 
L 127.506178 32.887078 
L 127.666257 32.650561 
L 127.822564 32.411535 
L 127.975058 32.170058 
L 128.123701 31.926193 
L 128.268457 31.68 
L 128.409289 31.431541 
L 128.546161 31.180879 
L 128.679038 30.928077 
L 128.807888 30.673199 
L 128.932678 30.416308 
L 129.053376 30.15747 
L 129.169952 29.89675 
L 129.282377 29.634212 
L 129.390623 29.369924 
L 129.494661 29.103952 
L 129.594467 28.836363 
L 129.690015 28.567223 
L 129.78128 28.296602 
L 129.86824 28.024567 
L 129.950874 27.751186 
L 130.029159 27.476529 
L 130.103077 27.200664 
L 130.172608 26.923661 
L 130.237736 26.64559 
L 130.298444 26.36652 
L 130.354717 26.086522 
L 130.40654 25.805667 
L 130.4539 25.524025 
L 130.496786 25.241667 
L 130.535187 24.958664 
L 130.569092 24.675088 
L 130.598495 24.391009 
L 130.623386 24.106499 
L 130.64376 23.821631 
L 130.659612 23.536474 
L 130.670938 23.251103 
L 130.677734 22.965587 
L 130.68 22.68 
L 130.68 22.68 
L 130.677734 22.394413 
L 130.670938 22.108897 
L 130.659612 21.823526 
L 130.64376 21.538369 
L 130.623386 21.253501 
L 130.598495 20.968991 
L 130.569092 20.684912 
L 130.535187 20.401336 
L 130.496786 20.118333 
L 130.4539 19.835975 
L 130.40654 19.554333 
L 130.354717 19.273478 
L 130.298444 18.99348 
L 130.237736 18.71441 
L 130.172608 18.436339 
L 130.103077 18.159336 
L 130.029159 17.883471 
L 129.950874 17.608814 
L 129.86824 17.335433 
L 129.78128 17.063398 
L 129.690015 16.792777 
L 129.594467 16.523637 
L 129.494661 16.256048 
L 129.390623 15.990076 
L 129.282377 15.725788 
L 129.169952 15.46325 
L 129.053376 15.20253 
L 128.932678 14.943692 
L 128.807888 14.686801 
L 128.679038 14.431923 
L 128.546161 14.179121 
L 128.409289 13.928459 
L 128.268457 13.68 
L 128.123701 13.433807 
L 127.975058 13.189942 
L 127.822564 12.948465 
L 127.666257 12.709439 
L 127.506178 12.472922 
L 127.342367 12.238976 
L 127.174865 12.007657 
L 127.003713 11.779026 
L 126.828956 11.553138 
L 126.650636 11.330052 
L 126.4688 11.109823 
L 126.283492 10.892507 
L 126.09476 10.678158 
L 125.902651 10.466831 
L 125.707213 10.258578 
L 125.508495 10.053452 
L 125.306548 9.851505 
L 125.101422 9.652787 
L 124.893169 9.457349 
L 124.681842 9.26524 
L 124.467493 9.076508 
L 124.250177 8.8912 
L 124.029948 8.709364 
L 123.806862 8.531044 
L 123.580974 8.356287 
L 123.352343 8.185135 
L 123.121024 8.017633 
L 122.887078 7.853822 
L 122.650561 7.693743 
L 122.411535 7.537436 
L 122.170058 7.384942 
L 121.926193 7.236299 
L 121.68 7.091543 
L 121.431541 6.950711 
L 121.180879 6.813839 
L 120.928077 6.680962 
L 120.673199 6.552112 
L 120.416308 6.427322 
L 120.15747 6.306624 
L 119.89675 6.190048 
L 119.634212 6.077623 
L 119.369924 5.969377 
L 119.103952 5.865339 
L 118.836363 5.765533 
L 118.567223 5.669985 
L 118.296602 5.57872 
L 118.024567 5.49176 
L 117.751186 5.409126 
L 117.476529 5.330841 
L 117.200664 5.256923 
L 116.923661 5.187392 
L 116.64559 5.122264 
L 116.36652 5.061556 
L 116.086522 5.005283 
L 115.805667 4.95346 
L 115.524025 4.9061 
L 115.241667 4.863214 
L 114.958664 4.824813 
L 114.675088 4.790908 
L 114.391009 4.761505 
L 114.106499 4.736614 
L 113.821631 4.71624 
L 113.536474 4.700388 
L 113.251103 4.689062 
L 112.965587 4.682266 
L 112.68 4.68 
L 76.68 4.68 
L 76.394413 4.682266 
L 76.108897 4.689062 
L 75.823526 4.700388 
L 75.538369 4.71624 
L 75.253501 4.736614 
L 74.968991 4.761505 
L 74.684912 4.790908 
L 74.401336 4.824813 
L 74.118333 4.863214 
L 73.835975 4.9061 
L 73.554333 4.95346 
L 73.273478 5.005283 
L 72.99348 5.061556 
L 72.71441 5.122264 
L 72.436339 5.187392 
L 72.159336 5.256923 
L 71.883471 5.330841 
L 71.608814 5.409126 
L 71.335433 5.49176 
L 71.063398 5.57872 
L 70.792777 5.669985 
L 70.523637 5.765533 
L 70.256048 5.865339 
L 69.990076 5.969377 
L 69.725788 6.077623 
L 69.46325 6.190048 
L 69.20253 6.306624 
L 68.943692 6.427322 
L 68.686801 6.552112 
L 68.431923 6.680962 
L 68.179121 6.813839 
L 67.928459 6.950711 
L 67.68 7.091543 
L 67.433807 7.236299 
L 67.189942 7.384942 
L 66.948465 7.537436 
L 66.709439 7.693743 
L 66.472922 7.853822 
L 66.238976 8.017633 
L 66.007657 8.185135 
L 65.779026 8.356287 
L 65.553138 8.531044 
L 65.330052 8.709364 
L 65.109823 8.8912 
L 64.892507 9.076508 
L 64.678158 9.26524 
L 64.466831 9.457349 
L 64.258578 9.652787 
L 64.053452 9.851505 
L 63.851505 10.053452 
L 63.652787 10.258578 
L 63.457349 10.466831 
L 63.26524 10.678158 
L 63.076508 10.892507 
L 62.8912 11.109823 
L 62.709364 11.330052 
L 62.531044 11.553138 
L 62.356287 11.779026 
L 62.185135 12.007657 
L 62.017633 12.238976 
L 61.853822 12.472922 
L 61.693743 12.709439 
L 61.537436 12.948465 
L 61.384942 13.189942 
L 61.236299 13.433807 
L 61.091543 13.68 
L 60.950711 13.928459 
L 60.813839 14.179121 
L 60.680962 14.431923 
L 60.552112 14.686801 
L 60.427322 14.943692 
L 60.306624 15.20253 
L 60.190048 15.46325 
L 60.077623 15.725788 
L 59.969377 15.990076 
L 59.865339 16.256048 
L 59.765533 16.523637 
L 59.669985 16.792777 
L 59.57872 17.063398 
L 59.49176 17.335433 
L 59.409126 17.608814 
L 59.330841 17.883471 
L 59.256923 18.159336 
L 59.187392 18.436339 
L 59.122264 18.71441 
L 59.061556 18.99348 
L 59.005283 19.273478 
L 58.95346 19.554333 
L 58.9061 19.835975 
L 58.863214 20.118333 
L 58.824813 20.401336 
L 58.790908 20.684912 
L 58.761505 20.968991 
L 58.736614 21.253501 
L 58.71624 21.538369 
L 58.700388 21.823526 
L 58.689062 22.108897 
L 58.682266 22.394413 
L 58.68 22.68 
L 58.68 22.68 
L 58.682266 22.965587 
L 58.689062 23.251103 
L 58.700388 23.536474 
L 58.71624 23.821631 
L 58.736614 24.106499 
L 58.761505 24.391009 
L 58.790908 24.675088 
L 58.824813 24.958664 
L 58.863214 25.241667 
L 58.9061 25.524025 
L 58.95346 25.805667 
L 59.005283 26.086522 
L 59.061556 26.36652 
L 59.122264 26.64559 
L 59.187392 26.923661 
L 59.256923 27.200664 
L 59.330841 27.476529 
L 59.409126 27.751186 
L 59.49176 28.024567 
L 59.57872 28.296602 
L 59.669985 28.567223 
L 59.765533 28.836363 
L 59.865339 29.103952 
L 59.969377 29.369924 
L 60.077623 29.634212 
L 60.190048 29.89675 
L 60.306624 30.15747 
L 60.427322 30.416308 
L 60.552112 30.673199 
L 60.680962 30.928077 
L 60.813839 31.180879 
L 60.950711 31.431541 
L 61.091543 31.68 
L 61.236299 31.926193 
L 61.384942 32.170058 
L 61.537436 32.411535 
L 61.693743 32.650561 
L 61.853822 32.887078 
L 62.017633 33.121024 
L 62.185135 33.352343 
L 62.356287 33.580974 
L 62.531044 33.806862 
L 62.709364 34.029948 
L 62.8912 34.250177 
L 63.076508 34.467493 
L 63.26524 34.681842 
L 63.457349 34.893169 
L 63.652787 35.101422 
L 63.851505 35.306548 
L 64.053452 35.508495 
L 64.258578 35.707213 
L 64.466831 35.902651 
L 64.678158 36.09476 
L 64.892507 36.283492 
L 65.109823 36.4688 
L 65.330052 36.650636 
L 65.553138 36.828956 
L 65.779026 37.003713 
L 66.007657 37.174865 
L 66.238976 37.342367 
L 66.472922 37.506178 
L 66.709439 37.666257 
L 66.948465 37.822564 
L 67.189942 37.975058 
L 67.433807 38.123701 
L 67.68 38.268457 
L 67.928459 38.409289 
L 68.179121 38.546161 
L 68.431923 38.679038 
L 68.686801 38.807888 
L 68.943692 38.932678 
L 69.20253 39.053376 
L 69.46325 39.169952 
L 69.725788 39.282377 
L 69.990076 39.390623 
L 70.256048 39.494661 
L 70.523637 39.594467 
L 70.792777 39.690015 
L 71.063398 39.78128 
L 71.335433 39.86824 
L 71.608814 39.950874 
L 71.883471 40.029159 
L 72.159336 40.103077 
L 72.436339 40.172608 
L 72.71441 40.237736 
L 72.99348 40.298444 
L 73.273478 40.354717 
L 73.554333 40.40654 
L 73.835975 40.4539 
L 74.118333 40.496786 
L 74.401336 40.535187 
L 74.684912 40.569092 
L 74.968991 40.598495 
L 75.253501 40.623386 
L 75.538369 40.64376 
L 75.823526 40.659612 
L 76.108897 40.670938 
L 76.394413 40.677734 
L 76.68 40.68 
L 112.68 40.68 
z
" clip-path="url(#pe2dc108565)" style="fill: none; stroke: #000000; stroke-linecap: round"/>
   </g>
   <g id="patch_3">
    <path d="M 4.68 154.08 
L 94.68 130.68 
L 184.68 154.08 
L 94.68 177.48 
L 4.68 154.08 
z
" clip-path="url(#pe2dc108565)" style="fill: none; stroke: #000000; stroke-linecap: round"/>
   </g>
   <g id="patch_4">
    <path d="M 323.28 229.68 
L 323.565587 229.677734 
L 323.851103 229.670938 
L 324.136474 229.659612 
L 324.421631 229.64376 
L 324.706499 229.623386 
L 324.991009 229.598495 
L 325.275088 229.569092 
L 325.558664 229.535187 
L 325.841667 229.496786 
L 326.124025 229.4539 
L 326.405667 229.40654 
L 326.686522 229.354717 
L 326.96652 229.298444 
L 327.24559 229.237736 
L 327.523661 229.172608 
L 327.800664 229.103077 
L 328.076529 229.029159 
L 328.351186 228.950874 
L 328.624567 228.86824 
L 328.896602 228.78128 
L 329.167223 228.690015 
L 329.436363 228.594467 
L 329.703952 228.494661 
L 329.969924 228.390623 
L 330.234212 228.282377 
L 330.49675 228.169952 
L 330.75747 228.053376 
L 331.016308 227.932678 
L 331.273199 227.807888 
L 331.528077 227.679038 
L 331.780879 227.546161 
L 332.031541 227.409289 
L 332.28 227.268457 
L 332.526193 227.123701 
L 332.770058 226.975058 
L 333.011535 226.822564 
L 333.250561 226.666257 
L 333.487078 226.506178 
L 333.721024 226.342367 
L 333.952343 226.174865 
L 334.180974 226.003713 
L 334.406862 225.828956 
L 334.629948 225.650636 
L 334.850177 225.4688 
L 335.067493 225.283492 
L 335.281842 225.09476 
L 335.493169 224.902651 
L 335.701422 224.707213 
L 335.906548 224.508495 
L 336.108495 224.306548 
L 336.307213 224.101422 
L 336.502651 223.893169 
L 336.69476 223.681842 
L 336.883492 223.467493 
L 337.0688 223.250177 
L 337.250636 223.029948 
L 337.428956 222.806862 
L 337.603713 222.580974 
L 337.774865 222.352343 
L 337.942367 222.121024 
L 338.106178 221.887078 
L 338.266257 221.650561 
L 338.422564 221.411535 
L 338.575058 221.170058 
L 338.723701 220.926193 
L 338.868457 220.68 
L 339.009289 220.431541 
L 339.146161 220.180879 
L 339.279038 219.928077 
L 339.407888 219.673199 
L 339.532678 219.416308 
L 339.653376 219.15747 
L 339.769952 218.89675 
L 339.882377 218.634212 
L 339.990623 218.369924 
L 340.094661 218.103952 
L 340.194467 217.836363 
L 340.290015 217.567223 
L 340.38128 217.296602 
L 340.46824 217.024567 
L 340.550874 216.751186 
L 340.629159 216.476529 
L 340.703077 216.200664 
L 340.772608 215.923661 
L 340.837736 215.64559 
L 340.898444 215.36652 
L 340.954717 215.086522 
L 341.00654 214.805667 
L 341.0539 214.524025 
L 341.096786 214.241667 
L 341.135187 213.958664 
L 341.169092 213.675088 
L 341.198495 213.391009 
L 341.223386 213.106499 
L 341.24376 212.821631 
L 341.259612 212.536474 
L 341.270938 212.251103 
L 341.277734 211.965587 
L 341.28 211.68 
L 341.28 211.68 
L 341.277734 211.394413 
L 341.270938 211.108897 
L 341.259612 210.823526 
L 341.24376 210.538369 
L 341.223386 210.253501 
L 341.198495 209.968991 
L 341.169092 209.684912 
L 341.135187 209.401336 
L 341.096786 209.118333 
L 341.0539 208.835975 
L 341.00654 208.554333 
L 340.954717 208.273478 
L 340.898444 207.99348 
L 340.837736 207.71441 
L 340.772608 207.436339 
L 340.703077 207.159336 
L 340.629159 206.883471 
L 340.550874 206.608814 
L 340.46824 206.335433 
L 340.38128 206.063398 
L 340.290015 205.792777 
L 340.194467 205.523637 
L 340.094661 205.256048 
L 339.990623 204.990076 
L 339.882377 204.725788 
L 339.769952 204.46325 
L 339.653376 204.20253 
L 339.532678 203.943692 
L 339.407888 203.686801 
L 339.279038 203.431923 
L 339.146161 203.179121 
L 339.009289 202.928459 
L 338.868457 202.68 
L 338.723701 202.433807 
L 338.575058 202.189942 
L 338.422564 201.948465 
L 338.266257 201.709439 
L 338.106178 201.472922 
L 337.942367 201.238976 
L 337.774865 201.007657 
L 337.603713 200.779026 
L 337.428956 200.553138 
L 337.250636 200.330052 
L 337.0688 200.109823 
L 336.883492 199.892507 
L 336.69476 199.678158 
L 336.502651 199.466831 
L 336.307213 199.258578 
L 336.108495 199.053452 
L 335.906548 198.851505 
L 335.701422 198.652787 
L 335.493169 198.457349 
L 335.281842 198.26524 
L 335.067493 198.076508 
L 334.850177 197.8912 
L 334.629948 197.709364 
L 334.406862 197.531044 
L 334.180974 197.356287 
L 333.952343 197.185135 
L 333.721024 197.017633 
L 333.487078 196.853822 
L 333.250561 196.693743 
L 333.011535 196.537436 
L 332.770058 196.384942 
L 332.526193 196.236299 
L 332.28 196.091543 
L 332.031541 195.950711 
L 331.780879 195.813839 
L 331.528077 195.680962 
L 331.273199 195.552112 
L 331.016308 195.427322 
L 330.75747 195.306624 
L 330.49675 195.190048 
L 330.234212 195.077623 
L 329.969924 194.969377 
L 329.703952 194.865339 
L 329.436363 194.765533 
L 329.167223 194.669985 
L 328.896602 194.57872 
L 328.624567 194.49176 
L 328.351186 194.409126 
L 328.076529 194.330841 
L 327.800664 194.256923 
L 327.523661 194.187392 
L 327.24559 194.122264 
L 326.96652 194.061556 
L 326.686522 194.005283 
L 326.405667 193.95346 
L 326.124025 193.9061 
L 325.841667 193.863214 
L 325.558664 193.824813 
L 325.275088 193.790908 
L 324.991009 193.761505 
L 324.706499 193.736614 
L 324.421631 193.71624 
L 324.136474 193.700388 
L 323.851103 193.689062 
L 323.565587 193.682266 
L 323.28 193.68 
L 287.28 193.68 
L 286.994413 193.682266 
L 286.708897 193.689062 
L 286.423526 193.700388 
L 286.138369 193.71624 
L 285.853501 193.736614 
L 285.568991 193.761505 
L 285.284912 193.790908 
L 285.001336 193.824813 
L 284.718333 193.863214 
L 284.435975 193.9061 
L 284.154333 193.95346 
L 283.873478 194.005283 
L 283.59348 194.061556 
L 283.31441 194.122264 
L 283.036339 194.187392 
L 282.759336 194.256923 
L 282.483471 194.330841 
L 282.208814 194.409126 
L 281.935433 194.49176 
L 281.663398 194.57872 
L 281.392777 194.669985 
L 281.123637 194.765533 
L 280.856048 194.865339 
L 280.590076 194.969377 
L 280.325788 195.077623 
L 280.06325 195.190048 
L 279.80253 195.306624 
L 279.543692 195.427322 
L 279.286801 195.552112 
L 279.031923 195.680962 
L 278.779121 195.813839 
L 278.528459 195.950711 
L 278.28 196.091543 
L 278.033807 196.236299 
L 277.789942 196.384942 
L 277.548465 196.537436 
L 277.309439 196.693743 
L 277.072922 196.853822 
L 276.838976 197.017633 
L 276.607657 197.185135 
L 276.379026 197.356287 
L 276.153138 197.531044 
L 275.930052 197.709364 
L 275.709823 197.8912 
L 275.492507 198.076508 
L 275.278158 198.26524 
L 275.066831 198.457349 
L 274.858578 198.652787 
L 274.653452 198.851505 
L 274.451505 199.053452 
L 274.252787 199.258578 
L 274.057349 199.466831 
L 273.86524 199.678158 
L 273.676508 199.892507 
L 273.4912 200.109823 
L 273.309364 200.330052 
L 273.131044 200.553138 
L 272.956287 200.779026 
L 272.785135 201.007657 
L 272.617633 201.238976 
L 272.453822 201.472922 
L 272.293743 201.709439 
L 272.137436 201.948465 
L 271.984942 202.189942 
L 271.836299 202.433807 
L 271.691543 202.68 
L 271.550711 202.928459 
L 271.413839 203.179121 
L 271.280962 203.431923 
L 271.152112 203.686801 
L 271.027322 203.943692 
L 270.906624 204.20253 
L 270.790048 204.46325 
L 270.677623 204.725788 
L 270.569377 204.990076 
L 270.465339 205.256048 
L 270.365533 205.523637 
L 270.269985 205.792777 
L 270.17872 206.063398 
L 270.09176 206.335433 
L 270.009126 206.608814 
L 269.930841 206.883471 
L 269.856923 207.159336 
L 269.787392 207.436339 
L 269.722264 207.71441 
L 269.661556 207.99348 
L 269.605283 208.273478 
L 269.55346 208.554333 
L 269.5061 208.835975 
L 269.463214 209.118333 
L 269.424813 209.401336 
L 269.390908 209.684912 
L 269.361505 209.968991 
L 269.336614 210.253501 
L 269.31624 210.538369 
L 269.300388 210.823526 
L 269.289062 211.108897 
L 269.282266 211.394413 
L 269.28 211.68 
L 269.28 211.68 
L 269.282266 211.965587 
L 269.289062 212.251103 
L 269.300388 212.536474 
L 269.31624 212.821631 
L 269.336614 213.106499 
L 269.361505 213.391009 
L 269.390908 213.675088 
L 269.424813 213.958664 
L 269.463214 214.241667 
L 269.5061 214.524025 
L 269.55346 214.805667 
L 269.605283 215.086522 
L 269.661556 215.36652 
L 269.722264 215.64559 
L 269.787392 215.923661 
L 269.856923 216.200664 
L 269.930841 216.476529 
L 270.009126 216.751186 
L 270.09176 217.024567 
L 270.17872 217.296602 
L 270.269985 217.567223 
L 270.365533 217.836363 
L 270.465339 218.103952 
L 270.569377 218.369924 
L 270.677623 218.634212 
L 270.790048 218.89675 
L 270.906624 219.15747 
L 271.027322 219.416308 
L 271.152112 219.673199 
L 271.280962 219.928077 
L 271.413839 220.180879 
L 271.550711 220.431541 
L 271.691543 220.68 
L 271.836299 220.926193 
L 271.984942 221.170058 
L 272.137436 221.411535 
L 272.293743 221.650561 
L 272.453822 221.887078 
L 272.617633 222.121024 
L 272.785135 222.352343 
L 272.956287 222.580974 
L 273.131044 222.806862 
L 273.309364 223.029948 
L 273.4912 223.250177 
L 273.676508 223.467493 
L 273.86524 223.681842 
L 274.057349 223.893169 
L 274.252787 224.101422 
L 274.451505 224.306548 
L 274.653452 224.508495 
L 274.858578 224.707213 
L 275.066831 224.902651 
L 275.278158 225.09476 
L 275.492507 225.283492 
L 275.709823 225.4688 
L 275.930052 225.650636 
L 276.153138 225.828956 
L 276.379026 226.003713 
L 276.607657 226.174865 
L 276.838976 226.342367 
L 277.072922 226.506178 
L 277.309439 226.666257 
L 277.548465 226.822564 
L 277.789942 226.975058 
L 278.033807 227.123701 
L 278.28 227.268457 
L 278.528459 227.409289 
L 278.779121 227.546161 
L 279.031923 227.679038 
L 279.286801 227.807888 
L 279.543692 227.932678 
L 279.80253 228.053376 
L 280.06325 228.169952 
L 280.325788 228.282377 
L 280.590076 228.390623 
L 280.856048 228.494661 
L 281.123637 228.594467 
L 281.392777 228.690015 
L 281.663398 228.78128 
L 281.935433 228.86824 
L 282.208814 228.950874 
L 282.483471 229.029159 
L 282.759336 229.103077 
L 283.036339 229.172608 
L 283.31441 229.237736 
L 283.59348 229.298444 
L 283.873478 229.354717 
L 284.154333 229.40654 
L 284.435975 229.4539 
L 284.718333 229.496786 
L 285.001336 229.535187 
L 285.284912 229.569092 
L 285.568991 229.598495 
L 285.853501 229.623386 
L 286.138369 229.64376 
L 286.423526 229.659612 
L 286.708897 229.670938 
L 286.994413 229.677734 
L 287.28 229.68 
L 323.28 229.68 
z
" clip-path="url(#pe2dc108565)" style="fill: none; stroke: #000000; stroke-linecap: round"/>
   </g>
   <g id="patch_5">
    <path d="M 4.68 254.88 
L 94.68 231.48 
L 184.68 254.88 
L 94.68 278.28 
L 4.68 254.88 
z
" clip-path="url(#pe2dc108565)" style="fill: none; stroke: #000000; stroke-linecap: round"/>
   </g>
   <g id="patch_6">
    <path d="M 323.28 330.48 
L 323.565587 330.477734 
L 323.851103 330.470938 
L 324.136474 330.459612 
L 324.421631 330.44376 
L 324.706499 330.423386 
L 324.991009 330.398495 
L 325.275088 330.369092 
L 325.558664 330.335187 
L 325.841667 330.296786 
L 326.124025 330.2539 
L 326.405667 330.20654 
L 326.686522 330.154717 
L 326.96652 330.098444 
L 327.24559 330.037736 
L 327.523661 329.972608 
L 327.800664 329.903077 
L 328.076529 329.829159 
L 328.351186 329.750874 
L 328.624567 329.66824 
L 328.896602 329.58128 
L 329.167223 329.490015 
L 329.436363 329.394467 
L 329.703952 329.294661 
L 329.969924 329.190623 
L 330.234212 329.082377 
L 330.49675 328.969952 
L 330.75747 328.853376 
L 331.016308 328.732678 
L 331.273199 328.607888 
L 331.528077 328.479038 
L 331.780879 328.346161 
L 332.031541 328.209289 
L 332.28 328.068457 
L 332.526193 327.923701 
L 332.770058 327.775058 
L 333.011535 327.622564 
L 333.250561 327.466257 
L 333.487078 327.306178 
L 333.721024 327.142367 
L 333.952343 326.974865 
L 334.180974 326.803713 
L 334.406862 326.628956 
L 334.629948 326.450636 
L 334.850177 326.2688 
L 335.067493 326.083492 
L 335.281842 325.89476 
L 335.493169 325.702651 
L 335.701422 325.507213 
L 335.906548 325.308495 
L 336.108495 325.106548 
L 336.307213 324.901422 
L 336.502651 324.693169 
L 336.69476 324.481842 
L 336.883492 324.267493 
L 337.0688 324.050177 
L 337.250636 323.829948 
L 337.428956 323.606862 
L 337.603713 323.380974 
L 337.774865 323.152343 
L 337.942367 322.921024 
L 338.106178 322.687078 
L 338.266257 322.450561 
L 338.422564 322.211535 
L 338.575058 321.970058 
L 338.723701 321.726193 
L 338.868457 321.48 
L 339.009289 321.231541 
L 339.146161 320.980879 
L 339.279038 320.728077 
L 339.407888 320.473199 
L 339.532678 320.216308 
L 339.653376 319.95747 
L 339.769952 319.69675 
L 339.882377 319.434212 
L 339.990623 319.169924 
L 340.094661 318.903952 
L 340.194467 318.636363 
L 340.290015 318.367223 
L 340.38128 318.096602 
L 340.46824 317.824567 
L 340.550874 317.551186 
L 340.629159 317.276529 
L 340.703077 317.000664 
L 340.772608 316.723661 
L 340.837736 316.44559 
L 340.898444 316.16652 
L 340.954717 315.886522 
L 341.00654 315.605667 
L 341.0539 315.324025 
L 341.096786 315.041667 
L 341.135187 314.758664 
L 341.169092 314.475088 
L 341.198495 314.191009 
L 341.223386 313.906499 
L 341.24376 313.621631 
L 341.259612 313.336474 
L 341.270938 313.051103 
L 341.277734 312.765587 
L 341.28 312.48 
L 341.28 312.48 
L 341.277734 312.194413 
L 341.270938 311.908897 
L 341.259612 311.623526 
L 341.24376 311.338369 
L 341.223386 311.053501 
L 341.198495 310.768991 
L 341.169092 310.484912 
L 341.135187 310.201336 
L 341.096786 309.918333 
L 341.0539 309.635975 
L 341.00654 309.354333 
L 340.954717 309.073478 
L 340.898444 308.79348 
L 340.837736 308.51441 
L 340.772608 308.236339 
L 340.703077 307.959336 
L 340.629159 307.683471 
L 340.550874 307.408814 
L 340.46824 307.135433 
L 340.38128 306.863398 
L 340.290015 306.592777 
L 340.194467 306.323637 
L 340.094661 306.056048 
L 339.990623 305.790076 
L 339.882377 305.525788 
L 339.769952 305.26325 
L 339.653376 305.00253 
L 339.532678 304.743692 
L 339.407888 304.486801 
L 339.279038 304.231923 
L 339.146161 303.979121 
L 339.009289 303.728459 
L 338.868457 303.48 
L 338.723701 303.233807 
L 338.575058 302.989942 
L 338.422564 302.748465 
L 338.266257 302.509439 
L 338.106178 302.272922 
L 337.942367 302.038976 
L 337.774865 301.807657 
L 337.603713 301.579026 
L 337.428956 301.353138 
L 337.250636 301.130052 
L 337.0688 300.909823 
L 336.883492 300.692507 
L 336.69476 300.478158 
L 336.502651 300.266831 
L 336.307213 300.058578 
L 336.108495 299.853452 
L 335.906548 299.651505 
L 335.701422 299.452787 
L 335.493169 299.257349 
L 335.281842 299.06524 
L 335.067493 298.876508 
L 334.850177 298.6912 
L 334.629948 298.509364 
L 334.406862 298.331044 
L 334.180974 298.156287 
L 333.952343 297.985135 
L 333.721024 297.817633 
L 333.487078 297.653822 
L 333.250561 297.493743 
L 333.011535 297.337436 
L 332.770058 297.184942 
L 332.526193 297.036299 
L 332.28 296.891543 
L 332.031541 296.750711 
L 331.780879 296.613839 
L 331.528077 296.480962 
L 331.273199 296.352112 
L 331.016308 296.227322 
L 330.75747 296.106624 
L 330.49675 295.990048 
L 330.234212 295.877623 
L 329.969924 295.769377 
L 329.703952 295.665339 
L 329.436363 295.565533 
L 329.167223 295.469985 
L 328.896602 295.37872 
L 328.624567 295.29176 
L 328.351186 295.209126 
L 328.076529 295.130841 
L 327.800664 295.056923 
L 327.523661 294.987392 
L 327.24559 294.922264 
L 326.96652 294.861556 
L 326.686522 294.805283 
L 326.405667 294.75346 
L 326.124025 294.7061 
L 325.841667 294.663214 
L 325.558664 294.624813 
L 325.275088 294.590908 
L 324.991009 294.561505 
L 324.706499 294.536614 
L 324.421631 294.51624 
L 324.136474 294.500388 
L 323.851103 294.489062 
L 323.565587 294.482266 
L 323.28 294.48 
L 287.28 294.48 
L 286.994413 294.482266 
L 286.708897 294.489062 
L 286.423526 294.500388 
L 286.138369 294.51624 
L 285.853501 294.536614 
L 285.568991 294.561505 
L 285.284912 294.590908 
L 285.001336 294.624813 
L 284.718333 294.663214 
L 284.435975 294.7061 
L 284.154333 294.75346 
L 283.873478 294.805283 
L 283.59348 294.861556 
L 283.31441 294.922264 
L 283.036339 294.987392 
L 282.759336 295.056923 
L 282.483471 295.130841 
L 282.208814 295.209126 
L 281.935433 295.29176 
L 281.663398 295.37872 
L 281.392777 295.469985 
L 281.123637 295.565533 
L 280.856048 295.665339 
L 280.590076 295.769377 
L 280.325788 295.877623 
L 280.06325 295.990048 
L 279.80253 296.106624 
L 279.543692 296.227322 
L 279.286801 296.352112 
L 279.031923 296.480962 
L 278.779121 296.613839 
L 278.528459 296.750711 
L 278.28 296.891543 
L 278.033807 297.036299 
L 277.789942 297.184942 
L 277.548465 297.337436 
L 277.309439 297.493743 
L 277.072922 297.653822 
L 276.838976 297.817633 
L 276.607657 297.985135 
L 276.379026 298.156287 
L 276.153138 298.331044 
L 275.930052 298.509364 
L 275.709823 298.6912 
L 275.492507 298.876508 
L 275.278158 299.06524 
L 275.066831 299.257349 
L 274.858578 299.452787 
L 274.653452 299.651505 
L 274.451505 299.853452 
L 274.252787 300.058578 
L 274.057349 300.266831 
L 273.86524 300.478158 
L 273.676508 300.692507 
L 273.4912 300.909823 
L 273.309364 301.130052 
L 273.131044 301.353138 
L 272.956287 301.579026 
L 272.785135 301.807657 
L 272.617633 302.038976 
L 272.453822 302.272922 
L 272.293743 302.509439 
L 272.137436 302.748465 
L 271.984942 302.989942 
L 271.836299 303.233807 
L 271.691543 303.48 
L 271.550711 303.728459 
L 271.413839 303.979121 
L 271.280962 304.231923 
L 271.152112 304.486801 
L 271.027322 304.743692 
L 270.906624 305.00253 
L 270.790048 305.26325 
L 270.677623 305.525788 
L 270.569377 305.790076 
L 270.465339 306.056048 
L 270.365533 306.323637 
L 270.269985 306.592777 
L 270.17872 306.863398 
L 270.09176 307.135433 
L 270.009126 307.408814 
L 269.930841 307.683471 
L 269.856923 307.959336 
L 269.787392 308.236339 
L 269.722264 308.51441 
L 269.661556 308.79348 
L 269.605283 309.073478 
L 269.55346 309.354333 
L 269.5061 309.635975 
L 269.463214 309.918333 
L 269.424813 310.201336 
L 269.390908 310.484912 
L 269.361505 310.768991 
L 269.336614 311.053501 
L 269.31624 311.338369 
L 269.300388 311.623526 
L 269.289062 311.908897 
L 269.282266 312.194413 
L 269.28 312.48 
L 269.28 312.48 
L 269.282266 312.765587 
L 269.289062 313.051103 
L 269.300388 313.336474 
L 269.31624 313.621631 
L 269.336614 313.906499 
L 269.361505 314.191009 
L 269.390908 314.475088 
L 269.424813 314.758664 
L 269.463214 315.041667 
L 269.5061 315.324025 
L 269.55346 315.605667 
L 269.605283 315.886522 
L 269.661556 316.16652 
L 269.722264 316.44559 
L 269.787392 316.723661 
L 269.856923 317.000664 
L 269.930841 317.276529 
L 270.009126 317.551186 
L 270.09176 317.824567 
L 270.17872 318.096602 
L 270.269985 318.367223 
L 270.365533 318.636363 
L 270.465339 318.903952 
L 270.569377 319.169924 
L 270.677623 319.434212 
L 270.790048 319.69675 
L 270.906624 319.95747 
L 271.027322 320.216308 
L 271.152112 320.473199 
L 271.280962 320.728077 
L 271.413839 320.980879 
L 271.550711 321.231541 
L 271.691543 321.48 
L 271.836299 321.726193 
L 271.984942 321.970058 
L 272.137436 322.211535 
L 272.293743 322.450561 
L 272.453822 322.687078 
L 272.617633 322.921024 
L 272.785135 323.152343 
L 272.956287 323.380974 
L 273.131044 323.606862 
L 273.309364 323.829948 
L 273.4912 324.050177 
L 273.676508 324.267493 
L 273.86524 324.481842 
L 274.057349 324.693169 
L 274.252787 324.901422 
L 274.451505 325.106548 
L 274.653452 325.308495 
L 274.858578 325.507213 
L 275.066831 325.702651 
L 275.278158 325.89476 
L 275.492507 326.083492 
L 275.709823 326.2688 
L 275.930052 326.450636 
L 276.153138 326.628956 
L 276.379026 326.803713 
L 276.607657 326.974865 
L 276.838976 327.142367 
L 277.072922 327.306178 
L 277.309439 327.466257 
L 277.548465 327.622564 
L 277.789942 327.775058 
L 278.033807 327.923701 
L 278.28 328.068457 
L 278.528459 328.209289 
L 278.779121 328.346161 
L 279.031923 328.479038 
L 279.286801 328.607888 
L 279.543692 328.732678 
L 279.80253 328.853376 
L 280.06325 328.969952 
L 280.325788 329.082377 
L 280.590076 329.190623 
L 280.856048 329.294661 
L 281.123637 329.394467 
L 281.392777 329.490015 
L 281.663398 329.58128 
L 281.935433 329.66824 
L 282.208814 329.750874 
L 282.483471 329.829159 
L 282.759336 329.903077 
L 283.036339 329.972608 
L 283.31441 330.037736 
L 283.59348 330.098444 
L 283.873478 330.154717 
L 284.154333 330.20654 
L 284.435975 330.2539 
L 284.718333 330.296786 
L 285.001336 330.335187 
L 285.284912 330.369092 
L 285.568991 330.398495 
L 285.853501 330.423386 
L 286.138369 330.44376 
L 286.423526 330.459612 
L 286.708897 330.470938 
L 286.994413 330.477734 
L 287.28 330.48 
L 323.28 330.48 
z
" clip-path="url(#pe2dc108565)" style="fill: none; stroke: #000000; stroke-linecap: round"/>
   </g>
   <g id="patch_7">
    <path d="M 112.68 413.28 
L 112.965587 413.277734 
L 113.251103 413.270938 
L 113.536474 413.259612 
L 113.821631 413.24376 
L 114.106499 413.223386 
L 114.391009 413.198495 
L 114.675088 413.169092 
L 114.958664 413.135187 
L 115.241667 413.096786 
L 115.524025 413.0539 
L 115.805667 413.00654 
L 116.086522 412.954717 
L 116.36652 412.898444 
L 116.64559 412.837736 
L 116.923661 412.772608 
L 117.200664 412.703077 
L 117.476529 412.629159 
L 117.751186 412.550874 
L 118.024567 412.46824 
L 118.296602 412.38128 
L 118.567223 412.290015 
L 118.836363 412.194467 
L 119.103952 412.094661 
L 119.369924 411.990623 
L 119.634212 411.882377 
L 119.89675 411.769952 
L 120.15747 411.653376 
L 120.416308 411.532678 
L 120.673199 411.407888 
L 120.928077 411.279038 
L 121.180879 411.146161 
L 121.431541 411.009289 
L 121.68 410.868457 
L 121.926193 410.723701 
L 122.170058 410.575058 
L 122.411535 410.422564 
L 122.650561 410.266257 
L 122.887078 410.106178 
L 123.121024 409.942367 
L 123.352343 409.774865 
L 123.580974 409.603713 
L 123.806862 409.428956 
L 124.029948 409.250636 
L 124.250177 409.0688 
L 124.467493 408.883492 
L 124.681842 408.69476 
L 124.893169 408.502651 
L 125.101422 408.307213 
L 125.306548 408.108495 
L 125.508495 407.906548 
L 125.707213 407.701422 
L 125.902651 407.493169 
L 126.09476 407.281842 
L 126.283492 407.067493 
L 126.4688 406.850177 
L 126.650636 406.629948 
L 126.828956 406.406862 
L 127.003713 406.180974 
L 127.174865 405.952343 
L 127.342367 405.721024 
L 127.506178 405.487078 
L 127.666257 405.250561 
L 127.822564 405.011535 
L 127.975058 404.770058 
L 128.123701 404.526193 
L 128.268457 404.28 
L 128.409289 404.031541 
L 128.546161 403.780879 
L 128.679038 403.528077 
L 128.807888 403.273199 
L 128.932678 403.016308 
L 129.053376 402.75747 
L 129.169952 402.49675 
L 129.282377 402.234212 
L 129.390623 401.969924 
L 129.494661 401.703952 
L 129.594467 401.436363 
L 129.690015 401.167223 
L 129.78128 400.896602 
L 129.86824 400.624567 
L 129.950874 400.351186 
L 130.029159 400.076529 
L 130.103077 399.800664 
L 130.172608 399.523661 
L 130.237736 399.24559 
L 130.298444 398.96652 
L 130.354717 398.686522 
L 130.40654 398.405667 
L 130.4539 398.124025 
L 130.496786 397.841667 
L 130.535187 397.558664 
L 130.569092 397.275088 
L 130.598495 396.991009 
L 130.623386 396.706499 
L 130.64376 396.421631 
L 130.659612 396.136474 
L 130.670938 395.851103 
L 130.677734 395.565587 
L 130.68 395.28 
L 130.68 395.28 
L 130.677734 394.994413 
L 130.670938 394.708897 
L 130.659612 394.423526 
L 130.64376 394.138369 
L 130.623386 393.853501 
L 130.598495 393.568991 
L 130.569092 393.284912 
L 130.535187 393.001336 
L 130.496786 392.718333 
L 130.4539 392.435975 
L 130.40654 392.154333 
L 130.354717 391.873478 
L 130.298444 391.59348 
L 130.237736 391.31441 
L 130.172608 391.036339 
L 130.103077 390.759336 
L 130.029159 390.483471 
L 129.950874 390.208814 
L 129.86824 389.935433 
L 129.78128 389.663398 
L 129.690015 389.392777 
L 129.594467 389.123637 
L 129.494661 388.856048 
L 129.390623 388.590076 
L 129.282377 388.325788 
L 129.169952 388.06325 
L 129.053376 387.80253 
L 128.932678 387.543692 
L 128.807888 387.286801 
L 128.679038 387.031923 
L 128.546161 386.779121 
L 128.409289 386.528459 
L 128.268457 386.28 
L 128.123701 386.033807 
L 127.975058 385.789942 
L 127.822564 385.548465 
L 127.666257 385.309439 
L 127.506178 385.072922 
L 127.342367 384.838976 
L 127.174865 384.607657 
L 127.003713 384.379026 
L 126.828956 384.153138 
L 126.650636 383.930052 
L 126.4688 383.709823 
L 126.283492 383.492507 
L 126.09476 383.278158 
L 125.902651 383.066831 
L 125.707213 382.858578 
L 125.508495 382.653452 
L 125.306548 382.451505 
L 125.101422 382.252787 
L 124.893169 382.057349 
L 124.681842 381.86524 
L 124.467493 381.676508 
L 124.250177 381.4912 
L 124.029948 381.309364 
L 123.806862 381.131044 
L 123.580974 380.956287 
L 123.352343 380.785135 
L 123.121024 380.617633 
L 122.887078 380.453822 
L 122.650561 380.293743 
L 122.411535 380.137436 
L 122.170058 379.984942 
L 121.926193 379.836299 
L 121.68 379.691543 
L 121.431541 379.550711 
L 121.180879 379.413839 
L 120.928077 379.280962 
L 120.673199 379.152112 
L 120.416308 379.027322 
L 120.15747 378.906624 
L 119.89675 378.790048 
L 119.634212 378.677623 
L 119.369924 378.569377 
L 119.103952 378.465339 
L 118.836363 378.365533 
L 118.567223 378.269985 
L 118.296602 378.17872 
L 118.024567 378.09176 
L 117.751186 378.009126 
L 117.476529 377.930841 
L 117.200664 377.856923 
L 116.923661 377.787392 
L 116.64559 377.722264 
L 116.36652 377.661556 
L 116.086522 377.605283 
L 115.805667 377.55346 
L 115.524025 377.5061 
L 115.241667 377.463214 
L 114.958664 377.424813 
L 114.675088 377.390908 
L 114.391009 377.361505 
L 114.106499 377.336614 
L 113.821631 377.31624 
L 113.536474 377.300388 
L 113.251103 377.289062 
L 112.965587 377.282266 
L 112.68 377.28 
L 76.68 377.28 
L 76.394413 377.282266 
L 76.108897 377.289062 
L 75.823526 377.300388 
L 75.538369 377.31624 
L 75.253501 377.336614 
L 74.968991 377.361505 
L 74.684912 377.390908 
L 74.401336 377.424813 
L 74.118333 377.463214 
L 73.835975 377.5061 
L 73.554333 377.55346 
L 73.273478 377.605283 
L 72.99348 377.661556 
L 72.71441 377.722264 
L 72.436339 377.787392 
L 72.159336 377.856923 
L 71.883471 377.930841 
L 71.608814 378.009126 
L 71.335433 378.09176 
L 71.063398 378.17872 
L 70.792777 378.269985 
L 70.523637 378.365533 
L 70.256048 378.465339 
L 69.990076 378.569377 
L 69.725788 378.677623 
L 69.46325 378.790048 
L 69.20253 378.906624 
L 68.943692 379.027322 
L 68.686801 379.152112 
L 68.431923 379.280962 
L 68.179121 379.413839 
L 67.928459 379.550711 
L 67.68 379.691543 
L 67.433807 379.836299 
L 67.189942 379.984942 
L 66.948465 380.137436 
L 66.709439 380.293743 
L 66.472922 380.453822 
L 66.238976 380.617633 
L 66.007657 380.785135 
L 65.779026 380.956287 
L 65.553138 381.131044 
L 65.330052 381.309364 
L 65.109823 381.4912 
L 64.892507 381.676508 
L 64.678158 381.86524 
L 64.466831 382.057349 
L 64.258578 382.252787 
L 64.053452 382.451505 
L 63.851505 382.653452 
L 63.652787 382.858578 
L 63.457349 383.066831 
L 63.26524 383.278158 
L 63.076508 383.492507 
L 62.8912 383.709823 
L 62.709364 383.930052 
L 62.531044 384.153138 
L 62.356287 384.379026 
L 62.185135 384.607657 
L 62.017633 384.838976 
L 61.853822 385.072922 
L 61.693743 385.309439 
L 61.537436 385.548465 
L 61.384942 385.789942 
L 61.236299 386.033807 
L 61.091543 386.28 
L 60.950711 386.528459 
L 60.813839 386.779121 
L 60.680962 387.031923 
L 60.552112 387.286801 
L 60.427322 387.543692 
L 60.306624 387.80253 
L 60.190048 388.06325 
L 60.077623 388.325788 
L 59.969377 388.590076 
L 59.865339 388.856048 
L 59.765533 389.123637 
L 59.669985 389.392777 
L 59.57872 389.663398 
L 59.49176 389.935433 
L 59.409126 390.208814 
L 59.330841 390.483471 
L 59.256923 390.759336 
L 59.187392 391.036339 
L 59.122264 391.31441 
L 59.061556 391.59348 
L 59.005283 391.873478 
L 58.95346 392.154333 
L 58.9061 392.435975 
L 58.863214 392.718333 
L 58.824813 393.001336 
L 58.790908 393.284912 
L 58.761505 393.568991 
L 58.736614 393.853501 
L 58.71624 394.138369 
L 58.700388 394.423526 
L 58.689062 394.708897 
L 58.682266 394.994413 
L 58.68 395.28 
L 58.68 395.28 
L 58.682266 395.565587 
L 58.689062 395.851103 
L 58.700388 396.136474 
L 58.71624 396.421631 
L 58.736614 396.706499 
L 58.761505 396.991009 
L 58.790908 397.275088 
L 58.824813 397.558664 
L 58.863214 397.841667 
L 58.9061 398.124025 
L 58.95346 398.405667 
L 59.005283 398.686522 
L 59.061556 398.96652 
L 59.122264 399.24559 
L 59.187392 399.523661 
L 59.256923 399.800664 
L 59.330841 400.076529 
L 59.409126 400.351186 
L 59.49176 400.624567 
L 59.57872 400.896602 
L 59.669985 401.167223 
L 59.765533 401.436363 
L 59.865339 401.703952 
L 59.969377 401.969924 
L 60.077623 402.234212 
L 60.190048 402.49675 
L 60.306624 402.75747 
L 60.427322 403.016308 
L 60.552112 403.273199 
L 60.680962 403.528077 
L 60.813839 403.780879 
L 60.950711 404.031541 
L 61.091543 404.28 
L 61.236299 404.526193 
L 61.384942 404.770058 
L 61.537436 405.011535 
L 61.693743 405.250561 
L 61.853822 405.487078 
L 62.017633 405.721024 
L 62.185135 405.952343 
L 62.356287 406.180974 
L 62.531044 406.406862 
L 62.709364 406.629948 
L 62.8912 406.850177 
L 63.076508 407.067493 
L 63.26524 407.281842 
L 63.457349 407.493169 
L 63.652787 407.701422 
L 63.851505 407.906548 
L 64.053452 408.108495 
L 64.258578 408.307213 
L 64.466831 408.502651 
L 64.678158 408.69476 
L 64.892507 408.883492 
L 65.109823 409.0688 
L 65.330052 409.250636 
L 65.553138 409.428956 
L 65.779026 409.603713 
L 66.007657 409.774865 
L 66.238976 409.942367 
L 66.472922 410.106178 
L 66.709439 410.266257 
L 66.948465 410.422564 
L 67.189942 410.575058 
L 67.433807 410.723701 
L 67.68 410.868457 
L 67.928459 411.009289 
L 68.179121 411.146161 
L 68.431923 411.279038 
L 68.686801 411.407888 
L 68.943692 411.532678 
L 69.20253 411.653376 
L 69.46325 411.769952 
L 69.725788 411.882377 
L 69.990076 411.990623 
L 70.256048 412.094661 
L 70.523637 412.194467 
L 70.792777 412.290015 
L 71.063398 412.38128 
L 71.335433 412.46824 
L 71.608814 412.550874 
L 71.883471 412.629159 
L 72.159336 412.703077 
L 72.436339 412.772608 
L 72.71441 412.837736 
L 72.99348 412.898444 
L 73.273478 412.954717 
L 73.554333 413.00654 
L 73.835975 413.0539 
L 74.118333 413.096786 
L 74.401336 413.135187 
L 74.684912 413.169092 
L 74.968991 413.198495 
L 75.253501 413.223386 
L 75.538369 413.24376 
L 75.823526 413.259612 
L 76.108897 413.270938 
L 76.394413 413.277734 
L 76.68 413.28 
L 112.68 413.28 
z
" clip-path="url(#pe2dc108565)" style="fill: none; stroke: #000000; stroke-linecap: round"/>
   </g>
   <g id="line2d_1">
    <path d="M 94.68 40.68 
L 94.68 54.18 
L 94.68 58.68 
" clip-path="url(#pe2dc108565)" style="fill: none; stroke: #000000; stroke-linecap: round"/>
   </g>
   <g id="patch_8">
    <path d="M 97.38 58.68 
L 94.68 67.68 
L 91.98 58.68 
z
" clip-path="url(#pe2dc108565)"/>
   </g>
   <g id="line2d_2">
    <path d="M 22.68 85.68 
L 22.68 67.68 
L 166.68 67.68 
L 166.68 103.68 
L 22.68 103.68 
L 22.68 85.68 
" clip-path="url(#pe2dc108565)" style="fill: none; stroke: #000000; stroke-linecap: round"/>
   </g>
   <g id="line2d_3">
    <path d="M 94.68 103.68 
L 94.68 117.18 
L 94.68 121.68 
" clip-path="url(#pe2dc108565)" style="fill: none; stroke: #000000; stroke-linecap: round"/>
   </g>
   <g id="patch_9">
    <path d="M 97.38 121.68 
L 94.68 130.68 
L 91.98 121.68 
z
" clip-path="url(#pe2dc108565)"/>
   </g>
   <g id="line2d_4">
    <path d="M 184.68 154.08 
L 211.68 154.08 
L 229.68 154.08 
" clip-path="url(#pe2dc108565)" style="fill: none; stroke: #000000; stroke-linecap: round"/>
   </g>
   <g id="patch_10">
    <path d="M 229.68 151.38 
L 238.68 154.08 
L 229.68 156.78 
z
" clip-path="url(#pe2dc108565)"/>
   </g>
   <g id="line2d_5">
    <path d="M 238.68 154.08 
L 238.68 136.08 
L 371.88 136.08 
L 371.88 172.08 
L 238.68 172.08 
L 238.68 154.08 
" clip-path="url(#pe2dc108565)" style="fill: none; stroke: #000000; stroke-linecap: round"/>
   </g>
   <g id="line2d_6">
    <path d="M 305.28 172.08 
L 305.28 182.88 
L 305.28 184.68 
" clip-path="url(#pe2dc108565)" style="fill: none; stroke: #000000; stroke-linecap: round"/>
   </g>
   <g id="patch_11">
    <path d="M 307.98 184.68 
L 305.28 193.68 
L 302.58 184.68 
z
" clip-path="url(#pe2dc108565)"/>
   </g>
   <g id="line2d_7">
    <path d="M 94.68 177.48 
L 94.68 204.48 
L 94.68 222.48 
" clip-path="url(#pe2dc108565)" style="fill: none; stroke: #000000; stroke-linecap: round"/>
   </g>
   <g id="patch_12">
    <path d="M 97.38 222.48 
L 94.68 231.48 
L 91.98 222.48 
z
" clip-path="url(#pe2dc108565)"/>
   </g>
   <g id="line2d_8">
    <path d="M 184.68 254.88 
L 211.68 254.88 
L 229.68 254.88 
" clip-path="url(#pe2dc108565)" style="fill: none; stroke: #000000; stroke-linecap: round"/>
   </g>
   <g id="patch_13">
    <path d="M 229.68 252.18 
L 238.68 254.88 
L 229.68 257.58 
z
" clip-path="url(#pe2dc108565)"/>
   </g>
   <g id="line2d_9">
    <path d="M 238.68 254.88 
L 238.68 236.88 
L 371.88 236.88 
L 371.88 272.88 
L 238.68 272.88 
L 238.68 254.88 
" clip-path="url(#pe2dc108565)" style="fill: none; stroke: #000000; stroke-linecap: round"/>
   </g>
   <g id="line2d_10">
    <path d="M 305.28 272.88 
L 305.28 283.68 
L 305.28 285.48 
" clip-path="url(#pe2dc108565)" style="fill: none; stroke: #000000; stroke-linecap: round"/>
   </g>
   <g id="patch_14">
    <path d="M 307.98 285.48 
L 305.28 294.48 
L 302.58 285.48 
z
" clip-path="url(#pe2dc108565)"/>
   </g>
   <g id="line2d_11">
    <path d="M 94.68 278.28 
L 94.68 296.28 
L 94.68 305.28 
" clip-path="url(#pe2dc108565)" style="fill: none; stroke: #000000; stroke-linecap: round"/>
   </g>
   <g id="patch_15">
    <path d="M 97.38 305.28 
L 94.68 314.28 
L 91.98 305.28 
z
" clip-path="url(#pe2dc108565)"/>
   </g>
   <g id="line2d_12">
    <path d="M 28.08 332.28 
L 28.08 314.28 
L 161.28 314.28 
L 161.28 350.28 
L 28.08 350.28 
L 28.08 332.28 
" clip-path="url(#pe2dc108565)" style="fill: none; stroke: #000000; stroke-linecap: round"/>
   </g>
   <g id="line2d_13">
    <path d="M 94.68 350.28 
L 94.68 363.78 
L 94.68 368.28 
" clip-path="url(#pe2dc108565)" style="fill: none; stroke: #000000; stroke-linecap: round"/>
   </g>
   <g id="patch_16">
    <path d="M 97.38 368.28 
L 94.68 377.28 
L 91.98 368.28 
z
" clip-path="url(#pe2dc108565)"/>
   </g>
   <g id="text_1">
    <!-- START -->
    <g transform="translate(73.202031 26.593437) scale(0.14 -0.14)">
     <defs>
      <path id="IPAexGothic-53" d="M 2919 3641 
Q 2563 4259 1853 4259 
Q 1453 4259 1213 4009 
Q 1028 3803 1028 3534 
Q 1028 3238 1266 3047 
Q 1444 2913 1984 2688 
L 2200 2597 
Q 2925 2306 3191 1953 
Q 3422 1644 3422 1259 
Q 3422 644 2969 288 
Q 2559 -31 1931 -31 
Q 881 -31 313 766 
L 753 1100 
Q 1203 459 1938 459 
Q 2288 459 2534 625 
Q 2841 847 2841 1216 
Q 2841 1503 2616 1728 
Q 2375 1959 1728 2206 
L 1541 2278 
Q 453 2694 453 3481 
Q 453 4006 806 4347 
Q 1203 4725 1863 4725 
Q 2841 4725 3359 3956 
L 2919 3641 
z
" transform="scale(0.015625)"/>
      <path id="IPAexGothic-54" d="M 3866 4141 
L 2175 4141 
L 2175 63 
L 1606 63 
L 1606 4141 
L -31 4141 
L -31 4634 
L 3866 4634 
L 3866 4141 
z
" transform="scale(0.015625)"/>
      <path id="IPAexGothic-41" d="M 4056 63 
L 3444 63 
L 2938 1409 
L 1100 1409 
L 603 63 
L -6 63 
L 1806 4666 
L 2259 4666 
L 4056 63 
z
M 2778 1863 
L 2316 3078 
Q 2125 3588 2028 4000 
L 2009 4000 
Q 1897 3563 1716 3078 
L 1263 1863 
L 2778 1863 
z
" transform="scale(0.015625)"/>
      <path id="IPAexGothic-52" d="M 4072 63 
L 3394 63 
Q 3138 641 2828 1197 
Q 2584 1641 2344 1825 
Q 2050 2044 1625 2044 
L 1172 2044 
L 1172 63 
L 609 63 
L 609 4634 
L 2009 4634 
Q 2713 4634 3131 4378 
Q 3688 4044 3688 3381 
Q 3688 2784 3181 2459 
Q 2906 2272 2522 2216 
L 2522 2197 
Q 2941 2050 3247 1581 
Q 3516 1166 4072 63 
z
M 1172 2478 
L 1869 2478 
Q 3106 2478 3106 3369 
Q 3106 4181 1928 4181 
L 1172 4181 
L 1172 2478 
z
" transform="scale(0.015625)"/>
     </defs>
     <use xlink:href="#IPAexGothic-53"/>
     <use xlink:href="#IPAexGothic-54" x="58.496094"/>
     <use xlink:href="#IPAexGothic-41" x="118.408203"/>
     <use xlink:href="#IPAexGothic-52" x="182.128906"/>
     <use xlink:href="#IPAexGothic-54" x="246.923828"/>
    </g>
   </g>
   <g id="text_2">
    <!-- change_in_gdp = 200 -->
    <g transform="translate(23.203438 89.552969) scale(0.14 -0.14)">
     <defs>
      <path id="IPAexGothic-63" d="M 3269 784 
Q 2834 -31 1900 -31 
Q 1228 -31 788 409 
Q 313 891 313 1663 
Q 313 2428 788 2913 
Q 1222 3347 1881 3347 
Q 2813 3347 3206 2541 
L 2763 2309 
Q 2484 2900 1900 2900 
Q 1516 2900 1234 2619 
Q 881 2266 881 1650 
Q 881 1069 1222 728 
Q 1522 428 1956 428 
Q 2547 428 2847 1016 
L 3269 784 
z
" transform="scale(0.015625)"/>
      <path id="IPAexGothic-68" d="M 3347 63 
L 2797 63 
L 2797 2041 
Q 2797 2853 2131 2853 
Q 1447 2853 1131 2041 
L 1131 63 
L 581 63 
L 581 4794 
L 1131 4794 
L 1131 2706 
Q 1566 3316 2247 3316 
Q 3347 3316 3347 2072 
L 3347 63 
z
" transform="scale(0.015625)"/>
      <path id="IPAexGothic-61" d="M 3156 63 
L 2672 63 
Q 2559 303 2531 556 
L 2509 556 
Q 2147 -25 1428 -25 
Q 934 -25 622 288 
Q 347 563 347 959 
Q 347 1947 2050 1997 
L 2478 2009 
L 2478 2175 
Q 2478 2509 2288 2700 
Q 2088 2900 1775 2900 
Q 1238 2900 969 2378 
L 494 2597 
Q 938 3328 1788 3328 
Q 2375 3328 2691 3000 
Q 2984 2706 2984 2169 
L 2984 997 
Q 2984 400 3156 63 
z
M 2491 1625 
L 2141 1619 
Q 903 1591 903 953 
Q 903 728 1050 581 
Q 1231 403 1525 403 
Q 1934 403 2234 703 
Q 2491 969 2491 1344 
L 2491 1625 
z
" transform="scale(0.015625)"/>
      <path id="IPAexGothic-6e" d="M 3328 63 
L 2778 63 
L 2778 2041 
Q 2778 2853 2106 2853 
Q 1428 2853 1113 2041 
L 1113 63 
L 563 63 
L 563 3250 
L 1075 3250 
L 1075 2675 
Q 1525 3316 2222 3316 
Q 3328 3316 3328 2072 
L 3328 63 
z
" transform="scale(0.015625)"/>
      <path id="IPAexGothic-67" d="M 1331 1150 
Q 1006 1122 1006 900 
Q 1006 613 1763 575 
L 2131 556 
Q 3303 497 3303 -294 
Q 3303 -700 2925 -959 
Q 2519 -1253 1794 -1253 
Q 1138 -1253 738 -1028 
Q 353 -809 353 -428 
Q 353 84 1075 247 
L 1075 269 
Q 506 413 506 778 
Q 506 1116 994 1297 
Q 456 1575 456 2181 
Q 456 2650 769 2963 
Q 1128 3322 1738 3322 
Q 2125 3322 2422 3153 
Q 2650 3453 3259 3463 
L 3259 3013 
Q 2838 3003 2703 2938 
Q 3034 2613 3034 2169 
Q 3034 1728 2734 1425 
Q 2400 1094 1813 1094 
Q 1563 1094 1331 1150 
z
M 1734 2919 
Q 1409 2919 1197 2706 
Q 988 2497 988 2181 
Q 988 1872 1184 1684 
Q 1397 1472 1756 1472 
Q 2094 1472 2297 1678 
Q 2503 1881 2503 2203 
Q 2503 2497 2297 2700 
Q 2081 2919 1734 2919 
z
M 1753 159 
Q 903 159 903 -366 
Q 903 -875 1800 -875 
Q 2378 -875 2638 -606 
Q 2772 -481 2772 -313 
Q 2772 159 1753 159 
z
" transform="scale(0.015625)"/>
      <path id="IPAexGothic-65" d="M 863 1594 
Q 891 1041 1209 722 
Q 1534 397 1997 397 
Q 2606 397 2963 966 
L 3322 728 
Q 2869 -31 1931 -31 
Q 1222 -31 766 422 
Q 306 884 306 1641 
Q 306 2444 788 2925 
Q 1216 3353 1856 3353 
Q 2459 3353 2866 2956 
Q 3322 2494 3322 1722 
L 3322 1594 
L 863 1594 
z
M 2756 1997 
Q 2709 2431 2450 2681 
Q 2194 2938 1844 2938 
Q 1438 2938 1150 2591 
Q 953 2356 894 1997 
L 2756 1997 
z
" transform="scale(0.015625)"/>
      <path id="IPAexGothic-5f" d="M 3200 -750 
L 0 -750 
L 0 -431 
L 3200 -431 
L 3200 -750 
z
" transform="scale(0.015625)"/>
      <path id="IPAexGothic-69" d="M 1178 3928 
L 550 3928 
L 550 4569 
L 1178 4569 
L 1178 3928 
z
M 1138 63 
L 588 63 
L 588 3250 
L 1138 3250 
L 1138 63 
z
" transform="scale(0.015625)"/>
      <path id="IPAexGothic-64" d="M 3391 63 
L 2891 63 
L 2891 619 
Q 2441 -31 1753 -31 
Q 1181 -31 788 372 
Q 313 844 313 1663 
Q 313 2466 772 2938 
Q 1169 3341 1753 3341 
Q 2384 3341 2847 2809 
L 2847 4794 
L 3391 4794 
L 3391 63 
z
M 2847 1303 
L 2847 2097 
Q 2847 2413 2456 2706 
Q 2181 2906 1853 2906 
Q 1484 2906 1228 2650 
Q 888 2309 888 1678 
Q 888 1109 1169 750 
Q 1441 409 1847 409 
Q 2322 409 2656 875 
Q 2847 1134 2847 1303 
z
" transform="scale(0.015625)"/>
      <path id="IPAexGothic-70" d="M 1075 2688 
Q 1525 3341 2206 3341 
Q 2769 3341 3172 2938 
Q 3641 2469 3641 1644 
Q 3641 841 3178 372 
Q 2775 -31 2200 -31 
Q 1569 -31 1106 497 
L 1106 -1216 
L 563 -1216 
L 563 3250 
L 1075 3250 
L 1075 2688 
z
M 1106 1950 
L 1106 1291 
Q 1106 897 1516 600 
Q 1791 403 2106 403 
Q 2469 403 2725 659 
Q 3066 997 3066 1631 
Q 3066 2200 2784 2559 
Q 2503 2900 2100 2900 
Q 1656 2900 1338 2484 
Q 1106 2184 1106 1950 
z
" transform="scale(0.015625)"/>
      <path id="IPAexGothic-20" transform="scale(0.015625)"/>
      <path id="IPAexGothic-3d" d="M 416 2803 
L 3922 2803 
L 3922 2438 
L 416 2438 
L 416 2803 
z
M 416 1625 
L 3922 1625 
L 3922 1259 
L 416 1259 
L 416 1625 
z
" transform="scale(0.015625)"/>
      <path id="IPAexGothic-32" d="M 3659 63 
L 447 63 
L 447 594 
Q 825 1475 1894 2203 
L 2072 2322 
Q 2619 2697 2791 2906 
Q 2988 3153 2988 3444 
Q 2988 3772 2756 4003 
Q 2500 4259 2084 4259 
Q 1250 4259 991 3328 
L 497 3506 
Q 853 4725 2116 4725 
Q 2806 4725 3216 4316 
Q 3575 3947 3575 3425 
Q 3575 3038 3344 2722 
Q 3131 2416 2366 1938 
L 2231 1856 
Q 1256 1253 978 569 
L 3659 569 
L 3659 63 
z
" transform="scale(0.015625)"/>
      <path id="IPAexGothic-30" d="M 2038 4725 
Q 2881 4725 3334 3944 
Q 3694 3325 3694 2344 
Q 3694 1372 3334 741 
Q 2888 -31 2016 -31 
Q 1147 -31 700 741 
Q 341 1372 341 2350 
Q 341 3713 1000 4334 
Q 1419 4725 2038 4725 
z
M 2016 4266 
Q 1516 4266 1228 3759 
Q 934 3247 934 2344 
Q 934 1456 1222 947 
Q 1513 447 2016 447 
Q 2619 447 2909 1153 
Q 3100 1622 3100 2375 
Q 3100 3256 2806 3759 
Q 2509 4266 2016 4266 
z
" transform="scale(0.015625)"/>
     </defs>
     <use xlink:href="#IPAexGothic-63"/>
     <use xlink:href="#IPAexGothic-68" x="54.394531"/>
     <use xlink:href="#IPAexGothic-61" x="115.087891"/>
     <use xlink:href="#IPAexGothic-6e" x="170.068359"/>
     <use xlink:href="#IPAexGothic-67" x="230.46875"/>
     <use xlink:href="#IPAexGothic-65" x="285.986328"/>
     <use xlink:href="#IPAexGothic-5f" x="342.871094"/>
     <use xlink:href="#IPAexGothic-69" x="392.871094"/>
     <use xlink:href="#IPAexGothic-6e" x="419.873047"/>
     <use xlink:href="#IPAexGothic-5f" x="480.273438"/>
     <use xlink:href="#IPAexGothic-67" x="530.273438"/>
     <use xlink:href="#IPAexGothic-64" x="585.791016"/>
     <use xlink:href="#IPAexGothic-70" x="648.193359"/>
     <use xlink:href="#IPAexGothic-20" x="710.302734"/>
     <use xlink:href="#IPAexGothic-3d" x="737.304688"/>
     <use xlink:href="#IPAexGothic-20" x="805.126953"/>
     <use xlink:href="#IPAexGothic-32" x="832.128906"/>
     <use xlink:href="#IPAexGothic-30" x="895.117188"/>
     <use xlink:href="#IPAexGothic-30" x="958.105469"/>
    </g>
   </g>
   <g id="text_3">
    <!-- False -->
    <g transform="translate(99.36 192.646875) scale(0.14 -0.14)">
     <defs>
      <path id="IPAexGothic-46" d="M 3469 4141 
L 1172 4141 
L 1172 2656 
L 3206 2656 
L 3206 2188 
L 1172 2188 
L 1172 63 
L 609 63 
L 609 4634 
L 3469 4634 
L 3469 4141 
z
" transform="scale(0.015625)"/>
      <path id="IPAexGothic-6c" d="M 1131 63 
L 581 63 
L 581 4794 
L 1131 4794 
L 1131 63 
z
" transform="scale(0.015625)"/>
      <path id="IPAexGothic-73" d="M 2234 2547 
Q 1938 2931 1484 2931 
Q 891 2931 891 2475 
Q 891 2153 1531 1944 
L 1741 1875 
Q 2650 1578 2650 894 
Q 2650 434 2272 172 
Q 1972 -31 1497 -31 
Q 766 -31 256 503 
L 603 819 
Q 997 397 1516 397 
Q 2131 397 2131 875 
Q 2131 1238 1453 1478 
L 1234 1553 
Q 378 1853 378 2431 
Q 378 2797 628 3047 
Q 928 3347 1453 3347 
Q 2156 3347 2606 2859 
L 2234 2547 
z
" transform="scale(0.015625)"/>
     </defs>
     <use xlink:href="#IPAexGothic-46"/>
     <use xlink:href="#IPAexGothic-61" x="57.177734"/>
     <use xlink:href="#IPAexGothic-6c" x="112.158203"/>
     <use xlink:href="#IPAexGothic-73" x="139.160156"/>
     <use xlink:href="#IPAexGothic-65" x="185.351562"/>
    </g>
   </g>
   <g id="text_4">
    <!-- True -->
    <g transform="translate(189.36 146.74) scale(0.14 -0.14)">
     <defs>
      <path id="IPAexGothic-72" d="M 2309 3316 
L 2213 2769 
Q 2106 2791 2022 2791 
Q 1653 2791 1413 2444 
Q 1113 2006 1113 1675 
L 1113 63 
L 563 63 
L 563 3250 
L 1081 3250 
L 1056 2303 
L 1069 2303 
Q 1422 3341 2097 3341 
Q 2206 3341 2309 3316 
z
" transform="scale(0.015625)"/>
      <path id="IPAexGothic-75" d="M 3284 63 
L 2772 63 
L 2772 644 
Q 2300 0 1625 0 
Q 1072 0 763 375 
Q 519 678 519 1241 
L 519 3250 
L 1069 3250 
L 1069 1259 
Q 1069 466 1734 466 
Q 2406 466 2734 1291 
L 2734 3250 
L 3284 3250 
L 3284 63 
z
" transform="scale(0.015625)"/>
     </defs>
     <use xlink:href="#IPAexGothic-54"/>
     <use xlink:href="#IPAexGothic-72" x="59.912109"/>
     <use xlink:href="#IPAexGothic-75" x="96.923828"/>
     <use xlink:href="#IPAexGothic-65" x="157.324219"/>
    </g>
   </g>
   <g id="text_5">
    <!-- change_in_gdp &gt; 0 ? -->
    <g transform="translate(26.275781 157.952969) scale(0.14 -0.14)">
     <defs>
      <path id="IPAexGothic-3e" d="M 3444 2028 
L 409 3450 
L 569 3794 
L 3928 2175 
L 3928 1881 
L 569 263 
L 409 609 
L 3444 2028 
z
" transform="scale(0.015625)"/>
      <path id="IPAexGothic-3f" d="M 225 3425 
Q 503 4725 1763 4725 
Q 2413 4725 2803 4334 
Q 3144 3994 3144 3516 
Q 3144 3081 2838 2716 
Q 2703 2563 2344 2266 
L 2216 2156 
Q 1888 1878 1888 1363 
L 1888 1209 
L 1422 1209 
L 1422 1422 
Q 1422 2050 1881 2491 
L 2022 2625 
L 2075 2669 
Q 2575 3122 2575 3516 
Q 2575 3822 2363 4041 
Q 2128 4278 1763 4278 
Q 963 4278 725 3309 
L 225 3425 
z
M 1978 63 
L 1325 63 
L 1325 728 
L 1978 728 
L 1978 63 
z
" transform="scale(0.015625)"/>
     </defs>
     <use xlink:href="#IPAexGothic-63"/>
     <use xlink:href="#IPAexGothic-68" x="54.394531"/>
     <use xlink:href="#IPAexGothic-61" x="115.087891"/>
     <use xlink:href="#IPAexGothic-6e" x="170.068359"/>
     <use xlink:href="#IPAexGothic-67" x="230.46875"/>
     <use xlink:href="#IPAexGothic-65" x="285.986328"/>
     <use xlink:href="#IPAexGothic-5f" x="342.871094"/>
     <use xlink:href="#IPAexGothic-69" x="392.871094"/>
     <use xlink:href="#IPAexGothic-6e" x="419.873047"/>
     <use xlink:href="#IPAexGothic-5f" x="480.273438"/>
     <use xlink:href="#IPAexGothic-67" x="530.273438"/>
     <use xlink:href="#IPAexGothic-64" x="585.791016"/>
     <use xlink:href="#IPAexGothic-70" x="648.193359"/>
     <use xlink:href="#IPAexGothic-20" x="710.302734"/>
     <use xlink:href="#IPAexGothic-3e" x="737.304688"/>
     <use xlink:href="#IPAexGothic-20" x="805.126953"/>
     <use xlink:href="#IPAexGothic-30" x="832.128906"/>
     <use xlink:href="#IPAexGothic-20" x="895.117188"/>
     <use xlink:href="#IPAexGothic-3f" x="922.119141"/>
    </g>
   </g>
   <g id="text_6">
    <!-- print('GDP') -->
    <g transform="translate(246.521562 158.553437) scale(0.14 -0.14)">
     <defs>
      <path id="IPAexGothic-74" d="M 2125 241 
Q 1769 -6 1397 -6 
Q 653 -6 653 831 
L 653 2859 
L 219 2859 
L 219 3250 
L 653 3250 
L 653 3966 
L 1178 4228 
L 1178 3250 
L 2063 3250 
L 2063 2859 
L 1178 2859 
L 1178 906 
Q 1178 416 1513 416 
Q 1738 416 1941 588 
L 2125 241 
z
" transform="scale(0.015625)"/>
      <path id="IPAexGothic-28" d="M 1928 -1016 
L 1653 -1166 
Q 488 69 488 1875 
Q 488 3678 1653 4909 
L 1928 4763 
Q 1006 3522 1006 1881 
Q 1006 203 1928 -1016 
z
" transform="scale(0.015625)"/>
      <path id="IPAexGothic-27" d="M 900 4794 
L 806 3084 
L 422 3084 
L 325 4794 
L 900 4794 
z
" transform="scale(0.015625)"/>
      <path id="IPAexGothic-47" d="M 4403 781 
Q 4172 494 3731 250 
Q 3209 -31 2591 -31 
Q 1606 -31 988 628 
Q 378 1275 378 2325 
Q 378 3406 1013 4078 
Q 1619 4725 2534 4725 
Q 3800 4725 4325 3628 
L 3816 3391 
Q 3422 4238 2541 4238 
Q 1891 4238 1453 3744 
Q 994 3216 994 2328 
Q 994 1531 1397 1022 
Q 1844 459 2625 459 
Q 3459 459 3878 966 
L 3878 1856 
L 2859 1856 
L 2859 2291 
L 4403 2291 
L 4403 781 
z
" transform="scale(0.015625)"/>
      <path id="IPAexGothic-44" d="M 609 4634 
L 1984 4634 
Q 3159 4634 3791 4050 
Q 4456 3444 4456 2356 
Q 4456 1047 3516 441 
Q 2925 63 1941 63 
L 609 63 
L 609 4634 
z
M 1172 556 
L 1894 556 
Q 3853 556 3853 2356 
Q 3853 4147 1928 4147 
L 1172 4147 
L 1172 556 
z
" transform="scale(0.015625)"/>
      <path id="IPAexGothic-50" d="M 609 4634 
L 1941 4634 
Q 3688 4634 3688 3322 
Q 3688 1934 1906 1934 
L 1172 1934 
L 1172 63 
L 609 63 
L 609 4634 
z
M 1172 2381 
L 1800 2381 
Q 3100 2381 3100 3316 
Q 3100 4181 1894 4181 
L 1172 4181 
L 1172 2381 
z
" transform="scale(0.015625)"/>
      <path id="IPAexGothic-306f" d="M 4066 4875 
L 4538 4875 
L 4556 3769 
Q 5003 3816 5581 3941 
L 5619 3469 
Q 5256 3394 4563 3322 
L 4597 1441 
Q 5100 1284 5934 756 
L 5656 313 
Q 5066 772 4609 978 
Q 4609 441 4384 225 
Q 4128 -13 3634 -13 
Q 2991 -13 2669 231 
Q 2388 444 2388 831 
Q 2388 1225 2772 1484 
Q 3050 1669 3534 1669 
Q 3759 1669 4134 1594 
L 4097 3288 
Q 3697 3269 3359 3269 
Q 2925 3269 2484 3300 
L 2466 3763 
Q 2953 3716 3456 3716 
Q 3738 3716 4091 3738 
L 4066 4875 
z
M 4141 1153 
Q 3753 1259 3513 1259 
Q 2841 1259 2841 850 
Q 2841 422 3634 422 
Q 3888 422 4022 569 
Q 4141 700 4141 922 
Q 4141 1088 4141 1153 
z
M 1000 -50 
Q 794 1072 794 1931 
Q 794 3153 1247 4884 
L 1728 4763 
Q 1269 3044 1269 1900 
Q 1269 1569 1306 1106 
Q 1591 1706 1753 1997 
L 2075 1806 
Q 1484 716 1484 141 
Q 1484 72 1491 0 
L 1000 -50 
z
" transform="scale(0.015625)"/>
      <path id="IPAexGothic-5897" d="M 1125 3719 
L 1125 5147 
L 1572 5147 
L 1572 3719 
L 2181 3719 
L 2181 3291 
L 1572 3291 
L 1572 1313 
Q 1931 1441 2256 1600 
L 2309 1184 
Q 1350 725 447 428 
L 275 891 
Q 784 1016 1125 1147 
L 1125 3291 
L 363 3291 
L 363 3719 
L 1125 3719 
z
M 3272 4434 
Q 3094 4838 2913 5106 
L 3347 5266 
Q 3600 4844 3750 4434 
L 4469 4434 
Q 4691 4872 4831 5306 
L 5306 5125 
Q 5116 4744 4934 4434 
L 5875 4434 
L 5875 2322 
L 2375 2322 
L 2375 4434 
L 3272 4434 
z
M 2803 4094 
L 2803 3566 
L 3897 3566 
L 3897 4094 
L 2803 4094 
z
M 2803 3241 
L 2803 2663 
L 3897 2663 
L 3897 3241 
L 2803 3241 
z
M 5447 2663 
L 5447 3241 
L 4313 3241 
L 4313 2663 
L 5447 2663 
z
M 5447 3566 
L 5447 4094 
L 4313 4094 
L 4313 3566 
L 5447 3566 
z
M 5631 1953 
L 5631 -447 
L 5203 -447 
L 5203 -159 
L 3084 -159 
L 3084 -447 
L 2650 -447 
L 2650 1953 
L 5631 1953 
z
M 3084 1600 
L 3084 1075 
L 5203 1075 
L 5203 1600 
L 3084 1600 
z
M 3084 744 
L 3084 188 
L 5203 188 
L 5203 744 
L 3084 744 
z
" transform="scale(0.015625)"/>
      <path id="IPAexGothic-52a0" d="M 1909 3603 
Q 1888 825 656 -428 
L 316 -56 
Q 1413 916 1463 3553 
L 450 3553 
L 450 3969 
L 1463 3969 
L 1463 5144 
L 1909 5144 
L 1909 4019 
L 3200 4019 
Q 3163 944 3016 219 
Q 2947 -88 2791 -197 
Q 2641 -288 2363 -288 
Q 2000 -288 1672 -228 
L 1603 256 
Q 1919 153 2241 153 
Q 2550 153 2600 500 
Q 2725 1353 2753 3309 
L 2753 3603 
L 1909 3603 
z
M 5819 4313 
L 5819 -306 
L 5378 -306 
L 5378 109 
L 4219 109 
L 4219 -366 
L 3778 -366 
L 3778 4313 
L 5819 4313 
z
M 4219 3897 
L 4219 525 
L 5378 525 
L 5378 3897 
L 4219 3897 
z
" transform="scale(0.015625)"/>
      <path id="IPAexGothic-29" d="M 466 4909 
Q 1638 3672 1638 1875 
Q 1638 75 466 -1166 
L 191 -1016 
Q 1119 216 1119 1881 
Q 1119 3509 191 4763 
L 466 4909 
z
" transform="scale(0.015625)"/>
     </defs>
     <use xlink:href="#IPAexGothic-70"/>
     <use xlink:href="#IPAexGothic-72" x="62.109375"/>
     <use xlink:href="#IPAexGothic-69" x="99.121094"/>
     <use xlink:href="#IPAexGothic-6e" x="126.123047"/>
     <use xlink:href="#IPAexGothic-74" x="186.523438"/>
     <use xlink:href="#IPAexGothic-28" x="221.142578"/>
     <use xlink:href="#IPAexGothic-27" x="254.443359"/>
     <use xlink:href="#IPAexGothic-47" x="273.730469"/>
     <use xlink:href="#IPAexGothic-44" x="349.023438"/>
     <use xlink:href="#IPAexGothic-50" x="424.707031"/>
     <use xlink:href="#IPAexGothic-306f" x="486.816406"/>
     <use xlink:href="#IPAexGothic-5897" x="586.816406"/>
     <use xlink:href="#IPAexGothic-52a0" x="686.816406"/>
     <use xlink:href="#IPAexGothic-27" x="786.816406"/>
     <use xlink:href="#IPAexGothic-29" x="806.103516"/>
    </g>
   </g>
   <g id="text_7">
    <!-- END -->
    <g transform="translate(290.496875 215.593437) scale(0.14 -0.14)">
     <defs>
      <path id="IPAexGothic-45" d="M 3547 63 
L 609 63 
L 609 4634 
L 3469 4634 
L 3469 4147 
L 1166 4147 
L 1166 2650 
L 3206 2650 
L 3206 2191 
L 1166 2191 
L 1166 556 
L 3547 556 
L 3547 63 
z
" transform="scale(0.015625)"/>
      <path id="IPAexGothic-4e" d="M 4244 63 
L 3731 63 
L 1697 3150 
Q 1466 3500 1141 4097 
L 1116 4097 
L 1128 3797 
Q 1159 2803 1159 2469 
L 1159 63 
L 609 63 
L 609 4634 
L 1366 4634 
L 3113 1978 
Q 3453 1447 3713 966 
L 3738 966 
Q 3694 1897 3694 2469 
L 3694 4634 
L 4244 4634 
L 4244 63 
z
" transform="scale(0.015625)"/>
     </defs>
     <use xlink:href="#IPAexGothic-45"/>
     <use xlink:href="#IPAexGothic-4e" x="59.521484"/>
     <use xlink:href="#IPAexGothic-44" x="135.498047"/>
    </g>
   </g>
   <g id="text_8">
    <!-- False -->
    <g transform="translate(99.36 293.446875) scale(0.14 -0.14)">
     <use xlink:href="#IPAexGothic-46"/>
     <use xlink:href="#IPAexGothic-61" x="57.177734"/>
     <use xlink:href="#IPAexGothic-6c" x="112.158203"/>
     <use xlink:href="#IPAexGothic-73" x="139.160156"/>
     <use xlink:href="#IPAexGothic-65" x="185.351562"/>
    </g>
   </g>
   <g id="text_9">
    <!-- True -->
    <g transform="translate(189.36 247.54) scale(0.14 -0.14)">
     <use xlink:href="#IPAexGothic-54"/>
     <use xlink:href="#IPAexGothic-72" x="59.912109"/>
     <use xlink:href="#IPAexGothic-75" x="96.923828"/>
     <use xlink:href="#IPAexGothic-65" x="157.324219"/>
    </g>
   </g>
   <g id="text_10">
    <!-- change_in_gdp &lt; 0 ? -->
    <g transform="translate(26.275781 258.752969) scale(0.14 -0.14)">
     <defs>
      <path id="IPAexGothic-3c" d="M 897 2028 
L 3928 609 
L 3769 263 
L 409 1881 
L 409 2175 
L 3769 3794 
L 3928 3450 
L 897 2028 
z
" transform="scale(0.015625)"/>
     </defs>
     <use xlink:href="#IPAexGothic-63"/>
     <use xlink:href="#IPAexGothic-68" x="54.394531"/>
     <use xlink:href="#IPAexGothic-61" x="115.087891"/>
     <use xlink:href="#IPAexGothic-6e" x="170.068359"/>
     <use xlink:href="#IPAexGothic-67" x="230.46875"/>
     <use xlink:href="#IPAexGothic-65" x="285.986328"/>
     <use xlink:href="#IPAexGothic-5f" x="342.871094"/>
     <use xlink:href="#IPAexGothic-69" x="392.871094"/>
     <use xlink:href="#IPAexGothic-6e" x="419.873047"/>
     <use xlink:href="#IPAexGothic-5f" x="480.273438"/>
     <use xlink:href="#IPAexGothic-67" x="530.273438"/>
     <use xlink:href="#IPAexGothic-64" x="585.791016"/>
     <use xlink:href="#IPAexGothic-70" x="648.193359"/>
     <use xlink:href="#IPAexGothic-20" x="710.302734"/>
     <use xlink:href="#IPAexGothic-3c" x="737.304688"/>
     <use xlink:href="#IPAexGothic-20" x="805.126953"/>
     <use xlink:href="#IPAexGothic-30" x="832.128906"/>
     <use xlink:href="#IPAexGothic-20" x="895.117188"/>
     <use xlink:href="#IPAexGothic-3f" x="922.119141"/>
    </g>
   </g>
   <g id="text_11">
    <!-- print('GDP') -->
    <g transform="translate(246.521562 259.353437) scale(0.14 -0.14)">
     <defs>
      <path id="IPAexGothic-6e1b" d="M 4531 1175 
Q 4263 2144 4184 3794 
L 2419 3794 
L 2419 2566 
Q 2419 1391 2309 741 
Q 2194 59 1844 -481 
L 1491 -156 
Q 1991 622 1991 2419 
L 1991 4172 
L 4172 4172 
L 4153 4469 
Q 4150 4556 4141 4816 
Q 4131 5156 4128 5306 
L 4563 5306 
Q 4575 4588 4594 4206 
L 5938 4206 
L 5938 3822 
L 4613 3822 
Q 4697 2419 4831 1706 
Q 5131 2281 5381 3250 
L 5791 3078 
Q 5466 1978 4991 1144 
Q 5125 753 5306 459 
Q 5391 325 5441 325 
Q 5556 325 5703 1259 
L 6106 947 
Q 5844 -353 5534 -353 
Q 5397 -353 5203 -150 
Q 4922 163 4697 697 
Q 4181 19 3513 -475 
L 3188 -141 
Q 4000 384 4531 1175 
z
M 4038 2431 
L 4038 903 
L 3066 903 
L 3066 506 
L 2694 506 
L 2694 2431 
L 4038 2431 
z
M 3066 2088 
L 3066 1247 
L 3659 1247 
L 3659 2088 
L 3066 2088 
z
M 1472 3872 
Q 963 4463 556 4769 
L 856 5100 
Q 1372 4728 1784 4250 
L 1472 3872 
z
M 1209 2375 
Q 781 2897 294 3256 
L 581 3603 
Q 1109 3213 1516 2759 
L 1209 2375 
z
M 331 -103 
Q 838 763 1172 1931 
L 1547 1644 
Q 1188 422 722 -441 
L 331 -103 
z
M 2609 3272 
L 4081 3272 
L 4081 2900 
L 2609 2900 
L 2609 3272 
z
M 5413 4281 
Q 5128 4753 4881 5019 
L 5259 5209 
Q 5566 4884 5803 4513 
L 5413 4281 
z
" transform="scale(0.015625)"/>
      <path id="IPAexGothic-5c11" d="M 2950 5147 
L 3444 5147 
L 3444 1894 
Q 3444 1597 3291 1472 
Q 3156 1375 2816 1375 
Q 2444 1375 2169 1416 
L 2081 1894 
Q 2472 1822 2738 1822 
Q 2950 1822 2950 2034 
L 2950 5147 
z
M 5613 2228 
Q 4884 3428 4172 4219 
L 4556 4488 
Q 5416 3538 6016 2559 
L 5613 2228 
z
M 581 2150 
Q 1350 3016 1675 4325 
L 2150 4184 
Q 1753 2741 972 1806 
L 581 2150 
z
M 997 25 
Q 3766 525 4691 2706 
L 5138 2503 
Q 4116 253 1319 -409 
L 997 25 
z
" transform="scale(0.015625)"/>
     </defs>
     <use xlink:href="#IPAexGothic-70"/>
     <use xlink:href="#IPAexGothic-72" x="62.109375"/>
     <use xlink:href="#IPAexGothic-69" x="99.121094"/>
     <use xlink:href="#IPAexGothic-6e" x="126.123047"/>
     <use xlink:href="#IPAexGothic-74" x="186.523438"/>
     <use xlink:href="#IPAexGothic-28" x="221.142578"/>
     <use xlink:href="#IPAexGothic-27" x="254.443359"/>
     <use xlink:href="#IPAexGothic-47" x="273.730469"/>
     <use xlink:href="#IPAexGothic-44" x="349.023438"/>
     <use xlink:href="#IPAexGothic-50" x="424.707031"/>
     <use xlink:href="#IPAexGothic-306f" x="486.816406"/>
     <use xlink:href="#IPAexGothic-6e1b" x="586.816406"/>
     <use xlink:href="#IPAexGothic-5c11" x="686.816406"/>
     <use xlink:href="#IPAexGothic-27" x="786.816406"/>
     <use xlink:href="#IPAexGothic-29" x="806.103516"/>
    </g>
   </g>
   <g id="text_12">
    <!-- END -->
    <g transform="translate(290.496875 316.393437) scale(0.14 -0.14)">
     <use xlink:href="#IPAexGothic-45"/>
     <use xlink:href="#IPAexGothic-4e" x="59.521484"/>
     <use xlink:href="#IPAexGothic-44" x="135.498047"/>
    </g>
   </g>
   <g id="text_13">
    <!-- print('GDP') -->
    <g transform="translate(35.921562 336.740312) scale(0.14 -0.14)">
     <defs>
      <path id="IPAexGothic-4e0d" d="M 3706 4309 
Q 3584 4078 3450 3863 
L 3425 3822 
L 3425 -447 
L 2925 -447 
L 2925 3113 
Q 1959 1919 697 1166 
L 372 1584 
Q 2197 2581 3138 4309 
L 513 4309 
L 513 4756 
L 5891 4756 
L 5891 4309 
L 3706 4309 
z
M 5588 1350 
Q 4669 2347 3681 3078 
L 4000 3413 
Q 5075 2675 5997 1753 
L 5588 1350 
z
" transform="scale(0.015625)"/>
      <path id="IPAexGothic-5909" d="M 2147 1253 
Q 1641 822 944 563 
L 672 900 
Q 1938 1391 2556 2394 
L 2972 2231 
Q 2847 2034 2747 1900 
L 4750 1900 
L 4969 1700 
Q 4422 984 3859 563 
Q 4650 241 6094 69 
L 5825 -366 
Q 4275 -125 3431 288 
Q 2441 -272 603 -538 
L 341 -134 
Q 2103 75 2997 538 
Q 2591 791 2184 1209 
L 2147 1253 
z
M 2434 1528 
L 2422 1516 
Q 2803 1106 3425 778 
Q 3888 1078 4269 1528 
L 2434 1528 
z
M 4059 4147 
L 4059 2650 
Q 4059 2272 3663 2272 
Q 3416 2272 3047 2309 
L 2963 2725 
Q 3241 2681 3431 2681 
Q 3631 2681 3631 2872 
L 3631 4147 
L 2822 4147 
Q 2766 3291 2503 2816 
Q 2191 2259 1503 1869 
L 1172 2156 
Q 1878 2572 2144 3066 
Q 2359 3456 2388 4147 
L 403 4147 
L 403 4544 
L 2938 4544 
L 2938 5294 
L 3419 5294 
L 3419 4544 
L 6000 4544 
L 6000 4147 
L 4059 4147 
z
M 5494 2363 
Q 4828 3150 4328 3584 
L 4672 3859 
Q 5266 3369 5878 2656 
L 5494 2363 
z
M 341 2528 
Q 1025 3022 1441 3775 
L 1844 3597 
Q 1406 2781 706 2241 
L 341 2528 
z
" transform="scale(0.015625)"/>
     </defs>
     <use xlink:href="#IPAexGothic-70"/>
     <use xlink:href="#IPAexGothic-72" x="62.109375"/>
     <use xlink:href="#IPAexGothic-69" x="99.121094"/>
     <use xlink:href="#IPAexGothic-6e" x="126.123047"/>
     <use xlink:href="#IPAexGothic-74" x="186.523438"/>
     <use xlink:href="#IPAexGothic-28" x="221.142578"/>
     <use xlink:href="#IPAexGothic-27" x="254.443359"/>
     <use xlink:href="#IPAexGothic-47" x="273.730469"/>
     <use xlink:href="#IPAexGothic-44" x="349.023438"/>
     <use xlink:href="#IPAexGothic-50" x="424.707031"/>
     <use xlink:href="#IPAexGothic-306f" x="486.816406"/>
     <use xlink:href="#IPAexGothic-4e0d" x="586.816406"/>
     <use xlink:href="#IPAexGothic-5909" x="686.816406"/>
     <use xlink:href="#IPAexGothic-27" x="786.816406"/>
     <use xlink:href="#IPAexGothic-29" x="806.103516"/>
    </g>
   </g>
   <g id="text_14">
    <!-- END -->
    <g transform="translate(79.896875 399.193437) scale(0.14 -0.14)">
     <use xlink:href="#IPAexGothic-45"/>
     <use xlink:href="#IPAexGothic-4e" x="59.521484"/>
     <use xlink:href="#IPAexGothic-44" x="135.498047"/>
    </g>
   </g>
  </g>
 </g>
 <defs>
  <clipPath id="pe2dc108565">
   <rect x="0" y="0" width="376.56" height="417.96"/>
  </clipPath>
 </defs>
</svg>