<?xml version="1.0" encoding="utf-8" standalone="no"?>
<!DOCTYPE svg PUBLIC "-//W3C//DTD SVG 1.1//EN"
  "http://www.w3.org/Graphics/SVG/1.1/DTD/svg11.dtd">
<svg xmlns:xlink="http://www.w3.org/1999/xlink" width="284.4pt" height="337.86pt" viewBox="0 0 284.4 337.86" xmlns="http://www.w3.org/2000/svg" version="1.1">
 <metadata>
  <rdf:RDF xmlns:dc="http://purl.org/dc/elements/1.1/" xmlns:cc="http://creativecommons.org/ns#" xmlns:rdf="http://www.w3.org/1999/02/22-rdf-syntax-ns#">
   <cc:Work>
    <dc:type rdf:resource="http://purl.org/dc/dcmitype/StillImage"/>
    <dc:date>2024-03-07T00:27:58.594195</dc:date>
    <dc:format>image/svg+xml</dc:format>
    <dc:creator>
     <cc:Agent>
      <dc:title>Matplotlib v3.8.3, https://matplotlib.org/</dc:title>
     </cc:Agent>
    </dc:creator>
   </cc:Work>
  </rdf:RDF>
 </metadata>
 <defs>
  <style type="text/css">*{stroke-linejoin: round; stroke-linecap: butt}</style>
 </defs>
 <g id="figure_1">
  <g id="patch_1">
   <path d="M 0 337.86 
L 284.4 337.86 
L 284.4 0 
L 0 0 
z
" style="fill: #ffffff"/>
  </g>
  <g id="axes_1">
   <g id="patch_2">
    <path d="M 97.2 54.63 
L 97.485587 54.627734 
L 97.771103 54.620938 
L 98.056474 54.609612 
L 98.341631 54.59376 
L 98.626499 54.573386 
L 98.911009 54.548495 
L 99.195088 54.519092 
L 99.478664 54.485187 
L 99.761667 54.446786 
L 100.044025 54.4039 
L 100.325667 54.35654 
L 100.606522 54.304717 
L 100.88652 54.248444 
L 101.16559 54.187736 
L 101.443661 54.122608 
L 101.720664 54.053077 
L 101.996529 53.979159 
L 102.271186 53.900874 
L 102.544567 53.81824 
L 102.816602 53.73128 
L 103.087223 53.640015 
L 103.356363 53.544467 
L 103.623952 53.444661 
L 103.889924 53.340623 
L 104.154212 53.232377 
L 104.41675 53.119952 
L 104.67747 53.003376 
L 104.936308 52.882678 
L 105.193199 52.757888 
L 105.448077 52.629038 
L 105.700879 52.496161 
L 105.951541 52.359289 
L 106.2 52.218457 
L 106.446193 52.073701 
L 106.690058 51.925058 
L 106.931535 51.772564 
L 107.170561 51.616257 
L 107.407078 51.456178 
L 107.641024 51.292367 
L 107.872343 51.124865 
L 108.100974 50.953713 
L 108.326862 50.778956 
L 108.549948 50.600636 
L 108.770177 50.4188 
L 108.987493 50.233492 
L 109.201842 50.04476 
L 109.413169 49.852651 
L 109.621422 49.657213 
L 109.826548 49.458495 
L 110.028495 49.256548 
L 110.227213 49.051422 
L 110.422651 48.843169 
L 110.61476 48.631842 
L 110.803492 48.417493 
L 110.9888 48.200177 
L 111.170636 47.979948 
L 111.348956 47.756862 
L 111.523713 47.530974 
L 111.694865 47.302343 
L 111.862367 47.071024 
L 112.026178 46.837078 
L 112.186257 46.600561 
L 112.342564 46.361535 
L 112.495058 46.120058 
L 112.643701 45.876193 
L 112.788457 45.63 
L 112.929289 45.381541 
L 113.066161 45.130879 
L 113.199038 44.878077 
L 113.327888 44.623199 
L 113.452678 44.366308 
L 113.573376 44.10747 
L 113.689952 43.84675 
L 113.802377 43.584212 
L 113.910623 43.319924 
L 114.014661 43.053952 
L 114.114467 42.786363 
L 114.210015 42.517223 
L 114.30128 42.246602 
L 114.38824 41.974567 
L 114.470874 41.701186 
L 114.549159 41.426529 
L 114.623077 41.150664 
L 114.692608 40.873661 
L 114.757736 40.59559 
L 114.818444 40.31652 
L 114.874717 40.036522 
L 114.92654 39.755667 
L 114.9739 39.474025 
L 115.016786 39.191667 
L 115.055187 38.908664 
L 115.089092 38.625088 
L 115.118495 38.341009 
L 115.143386 38.056499 
L 115.16376 37.771631 
L 115.179612 37.486474 
L 115.190938 37.201103 
L 115.197734 36.915587 
L 115.2 36.63 
L 115.2 36.63 
L 115.197734 36.344413 
L 115.190938 36.058897 
L 115.179612 35.773526 
L 115.16376 35.488369 
L 115.143386 35.203501 
L 115.118495 34.918991 
L 115.089092 34.634912 
L 115.055187 34.351336 
L 115.016786 34.068333 
L 114.9739 33.785975 
L 114.92654 33.504333 
L 114.874717 33.223478 
L 114.818444 32.94348 
L 114.757736 32.66441 
L 114.692608 32.386339 
L 114.623077 32.109336 
L 114.549159 31.833471 
L 114.470874 31.558814 
L 114.38824 31.285433 
L 114.30128 31.013398 
L 114.210015 30.742777 
L 114.114467 30.473637 
L 114.014661 30.206048 
L 113.910623 29.940076 
L 113.802377 29.675788 
L 113.689952 29.41325 
L 113.573376 29.15253 
L 113.452678 28.893692 
L 113.327888 28.636801 
L 113.199038 28.381923 
L 113.066161 28.129121 
L 112.929289 27.878459 
L 112.788457 27.63 
L 112.643701 27.383807 
L 112.495058 27.139942 
L 112.342564 26.898465 
L 112.186257 26.659439 
L 112.026178 26.422922 
L 111.862367 26.188976 
L 111.694865 25.957657 
L 111.523713 25.729026 
L 111.348956 25.503138 
L 111.170636 25.280052 
L 110.9888 25.059823 
L 110.803492 24.842507 
L 110.61476 24.628158 
L 110.422651 24.416831 
L 110.227213 24.208578 
L 110.028495 24.003452 
L 109.826548 23.801505 
L 109.621422 23.602787 
L 109.413169 23.407349 
L 109.201842 23.21524 
L 108.987493 23.026508 
L 108.770177 22.8412 
L 108.549948 22.659364 
L 108.326862 22.481044 
L 108.100974 22.306287 
L 107.872343 22.135135 
L 107.641024 21.967633 
L 107.407078 21.803822 
L 107.170561 21.643743 
L 106.931535 21.487436 
L 106.690058 21.334942 
L 106.446193 21.186299 
L 106.2 21.041543 
L 105.951541 20.900711 
L 105.700879 20.763839 
L 105.448077 20.630962 
L 105.193199 20.502112 
L 104.936308 20.377322 
L 104.67747 20.256624 
L 104.41675 20.140048 
L 104.154212 20.027623 
L 103.889924 19.919377 
L 103.623952 19.815339 
L 103.356363 19.715533 
L 103.087223 19.619985 
L 102.816602 19.52872 
L 102.544567 19.44176 
L 102.271186 19.359126 
L 101.996529 19.280841 
L 101.720664 19.206923 
L 101.443661 19.137392 
L 101.16559 19.072264 
L 100.88652 19.011556 
L 100.606522 18.955283 
L 100.325667 18.90346 
L 100.044025 18.8561 
L 99.761667 18.813214 
L 99.478664 18.774813 
L 99.195088 18.740908 
L 98.911009 18.711505 
L 98.626499 18.686614 
L 98.341631 18.66624 
L 98.056474 18.650388 
L 97.771103 18.639062 
L 97.485587 18.632266 
L 97.2 18.63 
L 61.2 18.63 
L 60.914413 18.632266 
L 60.628897 18.639062 
L 60.343526 18.650388 
L 60.058369 18.66624 
L 59.773501 18.686614 
L 59.488991 18.711505 
L 59.204912 18.740908 
L 58.921336 18.774813 
L 58.638333 18.813214 
L 58.355975 18.8561 
L 58.074333 18.90346 
L 57.793478 18.955283 
L 57.51348 19.011556 
L 57.23441 19.072264 
L 56.956339 19.137392 
L 56.679336 19.206923 
L 56.403471 19.280841 
L 56.128814 19.359126 
L 55.855433 19.44176 
L 55.583398 19.52872 
L 55.312777 19.619985 
L 55.043637 19.715533 
L 54.776048 19.815339 
L 54.510076 19.919377 
L 54.245788 20.027623 
L 53.98325 20.140048 
L 53.72253 20.256624 
L 53.463692 20.377322 
L 53.206801 20.502112 
L 52.951923 20.630962 
L 52.699121 20.763839 
L 52.448459 20.900711 
L 52.2 21.041543 
L 51.953807 21.186299 
L 51.709942 21.334942 
L 51.468465 21.487436 
L 51.229439 21.643743 
L 50.992922 21.803822 
L 50.758976 21.967633 
L 50.527657 22.135135 
L 50.299026 22.306287 
L 50.073138 22.481044 
L 49.850052 22.659364 
L 49.629823 22.8412 
L 49.412507 23.026508 
L 49.198158 23.21524 
L 48.986831 23.407349 
L 48.778578 23.602787 
L 48.573452 23.801505 
L 48.371505 24.003452 
L 48.172787 24.208578 
L 47.977349 24.416831 
L 47.78524 24.628158 
L 47.596508 24.842507 
L 47.4112 25.059823 
L 47.229364 25.280052 
L 47.051044 25.503138 
L 46.876287 25.729026 
L 46.705135 25.957657 
L 46.537633 26.188976 
L 46.373822 26.422922 
L 46.213743 26.659439 
L 46.057436 26.898465 
L 45.904942 27.139942 
L 45.756299 27.383807 
L 45.611543 27.63 
L 45.470711 27.878459 
L 45.333839 28.129121 
L 45.200962 28.381923 
L 45.072112 28.636801 
L 44.947322 28.893692 
L 44.826624 29.15253 
L 44.710048 29.41325 
L 44.597623 29.675788 
L 44.489377 29.940076 
L 44.385339 30.206048 
L 44.285533 30.473637 
L 44.189985 30.742777 
L 44.09872 31.013398 
L 44.01176 31.285433 
L 43.929126 31.558814 
L 43.850841 31.833471 
L 43.776923 32.109336 
L 43.707392 32.386339 
L 43.642264 32.66441 
L 43.581556 32.94348 
L 43.525283 33.223478 
L 43.47346 33.504333 
L 43.4261 33.785975 
L 43.383214 34.068333 
L 43.344813 34.351336 
L 43.310908 34.634912 
L 43.281505 34.918991 
L 43.256614 35.203501 
L 43.23624 35.488369 
L 43.220388 35.773526 
L 43.209062 36.058897 
L 43.202266 36.344413 
L 43.2 36.63 
L 43.2 36.63 
L 43.202266 36.915587 
L 43.209062 37.201103 
L 43.220388 37.486474 
L 43.23624 37.771631 
L 43.256614 38.056499 
L 43.281505 38.341009 
L 43.310908 38.625088 
L 43.344813 38.908664 
L 43.383214 39.191667 
L 43.4261 39.474025 
L 43.47346 39.755667 
L 43.525283 40.036522 
L 43.581556 40.31652 
L 43.642264 40.59559 
L 43.707392 40.873661 
L 43.776923 41.150664 
L 43.850841 41.426529 
L 43.929126 41.701186 
L 44.01176 41.974567 
L 44.09872 42.246602 
L 44.189985 42.517223 
L 44.285533 42.786363 
L 44.385339 43.053952 
L 44.489377 43.319924 
L 44.597623 43.584212 
L 44.710048 43.84675 
L 44.826624 44.10747 
L 44.947322 44.366308 
L 45.072112 44.623199 
L 45.200962 44.878077 
L 45.333839 45.130879 
L 45.470711 45.381541 
L 45.611543 45.63 
L 45.756299 45.876193 
L 45.904942 46.120058 
L 46.057436 46.361535 
L 46.213743 46.600561 
L 46.373822 46.837078 
L 46.537633 47.071024 
L 46.705135 47.302343 
L 46.876287 47.530974 
L 47.051044 47.756862 
L 47.229364 47.979948 
L 47.4112 48.200177 
L 47.596508 48.417493 
L 47.78524 48.631842 
L 47.977349 48.843169 
L 48.172787 49.051422 
L 48.371505 49.256548 
L 48.573452 49.458495 
L 48.778578 49.657213 
L 48.986831 49.852651 
L 49.198158 50.04476 
L 49.412507 50.233492 
L 49.629823 50.4188 
L 49.850052 50.600636 
L 50.073138 50.778956 
L 50.299026 50.953713 
L 50.527657 51.124865 
L 50.758976 51.292367 
L 50.992922 51.456178 
L 51.229439 51.616257 
L 51.468465 51.772564 
L 51.709942 51.925058 
L 51.953807 52.073701 
L 52.2 52.218457 
L 52.448459 52.359289 
L 52.699121 52.496161 
L 52.951923 52.629038 
L 53.206801 52.757888 
L 53.463692 52.882678 
L 53.72253 53.003376 
L 53.98325 53.119952 
L 54.245788 53.232377 
L 54.510076 53.340623 
L 54.776048 53.444661 
L 55.043637 53.544467 
L 55.312777 53.640015 
L 55.583398 53.73128 
L 55.855433 53.81824 
L 56.128814 53.900874 
L 56.403471 53.979159 
L 56.679336 54.053077 
L 56.956339 54.122608 
L 57.23441 54.187736 
L 57.51348 54.248444 
L 57.793478 54.304717 
L 58.074333 54.35654 
L 58.355975 54.4039 
L 58.638333 54.446786 
L 58.921336 54.485187 
L 59.204912 54.519092 
L 59.488991 54.548495 
L 59.773501 54.573386 
L 60.058369 54.59376 
L 60.343526 54.609612 
L 60.628897 54.620938 
L 60.914413 54.627734 
L 61.2 54.63 
L 97.2 54.63 
z
" clip-path="url(#p7e5ad90820)" style="fill: none; stroke: #000000; stroke-linecap: round"/>
   </g>
   <g id="patch_3">
    <path d="M 16.2 166.23 
L 79.2 144.63 
L 142.2 166.23 
L 79.2 187.83 
L 16.2 166.23 
z
" clip-path="url(#p7e5ad90820)" style="fill: none; stroke: #000000; stroke-linecap: round"/>
   </g>
   <g id="patch_4">
    <path d="M 250.2 240.03 
L 250.485587 240.027734 
L 250.771103 240.020938 
L 251.056474 240.009612 
L 251.341631 239.99376 
L 251.626499 239.973386 
L 251.911009 239.948495 
L 252.195088 239.919092 
L 252.478664 239.885187 
L 252.761667 239.846786 
L 253.044025 239.8039 
L 253.325667 239.75654 
L 253.606522 239.704717 
L 253.88652 239.648444 
L 254.16559 239.587736 
L 254.443661 239.522608 
L 254.720664 239.453077 
L 254.996529 239.379159 
L 255.271186 239.300874 
L 255.544567 239.21824 
L 255.816602 239.13128 
L 256.087223 239.040015 
L 256.356363 238.944467 
L 256.623952 238.844661 
L 256.889924 238.740623 
L 257.154212 238.632377 
L 257.41675 238.519952 
L 257.67747 238.403376 
L 257.936308 238.282678 
L 258.193199 238.157888 
L 258.448077 238.029038 
L 258.700879 237.896161 
L 258.951541 237.759289 
L 259.2 237.618457 
L 259.446193 237.473701 
L 259.690058 237.325058 
L 259.931535 237.172564 
L 260.170561 237.016257 
L 260.407078 236.856178 
L 260.641024 236.692367 
L 260.872343 236.524865 
L 261.100974 236.353713 
L 261.326862 236.178956 
L 261.549948 236.000636 
L 261.770177 235.8188 
L 261.987493 235.633492 
L 262.201842 235.44476 
L 262.413169 235.252651 
L 262.621422 235.057213 
L 262.826548 234.858495 
L 263.028495 234.656548 
L 263.227213 234.451422 
L 263.422651 234.243169 
L 263.61476 234.031842 
L 263.803492 233.817493 
L 263.9888 233.600177 
L 264.170636 233.379948 
L 264.348956 233.156862 
L 264.523713 232.930974 
L 264.694865 232.702343 
L 264.862367 232.471024 
L 265.026178 232.237078 
L 265.186257 232.000561 
L 265.342564 231.761535 
L 265.495058 231.520058 
L 265.643701 231.276193 
L 265.788457 231.03 
L 265.929289 230.781541 
L 266.066161 230.530879 
L 266.199038 230.278077 
L 266.327888 230.023199 
L 266.452678 229.766308 
L 266.573376 229.50747 
L 266.689952 229.24675 
L 266.802377 228.984212 
L 266.910623 228.719924 
L 267.014661 228.453952 
L 267.114467 228.186363 
L 267.210015 227.917223 
L 267.30128 227.646602 
L 267.38824 227.374567 
L 267.470874 227.101186 
L 267.549159 226.826529 
L 267.623077 226.550664 
L 267.692608 226.273661 
L 267.757736 225.99559 
L 267.818444 225.71652 
L 267.874717 225.436522 
L 267.92654 225.155667 
L 267.9739 224.874025 
L 268.016786 224.591667 
L 268.055187 224.308664 
L 268.089092 224.025088 
L 268.118495 223.741009 
L 268.143386 223.456499 
L 268.16376 223.171631 
L 268.179612 222.886474 
L 268.190938 222.601103 
L 268.197734 222.315587 
L 268.2 222.03 
L 268.2 222.03 
L 268.197734 221.744413 
L 268.190938 221.458897 
L 268.179612 221.173526 
L 268.16376 220.888369 
L 268.143386 220.603501 
L 268.118495 220.318991 
L 268.089092 220.034912 
L 268.055187 219.751336 
L 268.016786 219.468333 
L 267.9739 219.185975 
L 267.92654 218.904333 
L 267.874717 218.623478 
L 267.818444 218.34348 
L 267.757736 218.06441 
L 267.692608 217.786339 
L 267.623077 217.509336 
L 267.549159 217.233471 
L 267.470874 216.958814 
L 267.38824 216.685433 
L 267.30128 216.413398 
L 267.210015 216.142777 
L 267.114467 215.873637 
L 267.014661 215.606048 
L 266.910623 215.340076 
L 266.802377 215.075788 
L 266.689952 214.81325 
L 266.573376 214.55253 
L 266.452678 214.293692 
L 266.327888 214.036801 
L 266.199038 213.781923 
L 266.066161 213.529121 
L 265.929289 213.278459 
L 265.788457 213.03 
L 265.643701 212.783807 
L 265.495058 212.539942 
L 265.342564 212.298465 
L 265.186257 212.059439 
L 265.026178 211.822922 
L 264.862367 211.588976 
L 264.694865 211.357657 
L 264.523713 211.129026 
L 264.348956 210.903138 
L 264.170636 210.680052 
L 263.9888 210.459823 
L 263.803492 210.242507 
L 263.61476 210.028158 
L 263.422651 209.816831 
L 263.227213 209.608578 
L 263.028495 209.403452 
L 262.826548 209.201505 
L 262.621422 209.002787 
L 262.413169 208.807349 
L 262.201842 208.61524 
L 261.987493 208.426508 
L 261.770177 208.2412 
L 261.549948 208.059364 
L 261.326862 207.881044 
L 261.100974 207.706287 
L 260.872343 207.535135 
L 260.641024 207.367633 
L 260.407078 207.203822 
L 260.170561 207.043743 
L 259.931535 206.887436 
L 259.690058 206.734942 
L 259.446193 206.586299 
L 259.2 206.441543 
L 258.951541 206.300711 
L 258.700879 206.163839 
L 258.448077 206.030962 
L 258.193199 205.902112 
L 257.936308 205.777322 
L 257.67747 205.656624 
L 257.41675 205.540048 
L 257.154212 205.427623 
L 256.889924 205.319377 
L 256.623952 205.215339 
L 256.356363 205.115533 
L 256.087223 205.019985 
L 255.816602 204.92872 
L 255.544567 204.84176 
L 255.271186 204.759126 
L 254.996529 204.680841 
L 254.720664 204.606923 
L 254.443661 204.537392 
L 254.16559 204.472264 
L 253.88652 204.411556 
L 253.606522 204.355283 
L 253.325667 204.30346 
L 253.044025 204.2561 
L 252.761667 204.213214 
L 252.478664 204.174813 
L 252.195088 204.140908 
L 251.911009 204.111505 
L 251.626499 204.086614 
L 251.341631 204.06624 
L 251.056474 204.050388 
L 250.771103 204.039062 
L 250.485587 204.032266 
L 250.2 204.03 
L 214.2 204.03 
L 213.914413 204.032266 
L 213.628897 204.039062 
L 213.343526 204.050388 
L 213.058369 204.06624 
L 212.773501 204.086614 
L 212.488991 204.111505 
L 212.204912 204.140908 
L 211.921336 204.174813 
L 211.638333 204.213214 
L 211.355975 204.2561 
L 211.074333 204.30346 
L 210.793478 204.355283 
L 210.51348 204.411556 
L 210.23441 204.472264 
L 209.956339 204.537392 
L 209.679336 204.606923 
L 209.403471 204.680841 
L 209.128814 204.759126 
L 208.855433 204.84176 
L 208.583398 204.92872 
L 208.312777 205.019985 
L 208.043637 205.115533 
L 207.776048 205.215339 
L 207.510076 205.319377 
L 207.245788 205.427623 
L 206.98325 205.540048 
L 206.72253 205.656624 
L 206.463692 205.777322 
L 206.206801 205.902112 
L 205.951923 206.030962 
L 205.699121 206.163839 
L 205.448459 206.300711 
L 205.2 206.441543 
L 204.953807 206.586299 
L 204.709942 206.734942 
L 204.468465 206.887436 
L 204.229439 207.043743 
L 203.992922 207.203822 
L 203.758976 207.367633 
L 203.527657 207.535135 
L 203.299026 207.706287 
L 203.073138 207.881044 
L 202.850052 208.059364 
L 202.629823 208.2412 
L 202.412507 208.426508 
L 202.198158 208.61524 
L 201.986831 208.807349 
L 201.778578 209.002787 
L 201.573452 209.201505 
L 201.371505 209.403452 
L 201.172787 209.608578 
L 200.977349 209.816831 
L 200.78524 210.028158 
L 200.596508 210.242507 
L 200.4112 210.459823 
L 200.229364 210.680052 
L 200.051044 210.903138 
L 199.876287 211.129026 
L 199.705135 211.357657 
L 199.537633 211.588976 
L 199.373822 211.822922 
L 199.213743 212.059439 
L 199.057436 212.298465 
L 198.904942 212.539942 
L 198.756299 212.783807 
L 198.611543 213.03 
L 198.470711 213.278459 
L 198.333839 213.529121 
L 198.200962 213.781923 
L 198.072112 214.036801 
L 197.947322 214.293692 
L 197.826624 214.55253 
L 197.710048 214.81325 
L 197.597623 215.075788 
L 197.489377 215.340076 
L 197.385339 215.606048 
L 197.285533 215.873637 
L 197.189985 216.142777 
L 197.09872 216.413398 
L 197.01176 216.685433 
L 196.929126 216.958814 
L 196.850841 217.233471 
L 196.776923 217.509336 
L 196.707392 217.786339 
L 196.642264 218.06441 
L 196.581556 218.34348 
L 196.525283 218.623478 
L 196.47346 218.904333 
L 196.4261 219.185975 
L 196.383214 219.468333 
L 196.344813 219.751336 
L 196.310908 220.034912 
L 196.281505 220.318991 
L 196.256614 220.603501 
L 196.23624 220.888369 
L 196.220388 221.173526 
L 196.209062 221.458897 
L 196.202266 221.744413 
L 196.2 222.03 
L 196.2 222.03 
L 196.202266 222.315587 
L 196.209062 222.601103 
L 196.220388 222.886474 
L 196.23624 223.171631 
L 196.256614 223.456499 
L 196.281505 223.741009 
L 196.310908 224.025088 
L 196.344813 224.308664 
L 196.383214 224.591667 
L 196.4261 224.874025 
L 196.47346 225.155667 
L 196.525283 225.436522 
L 196.581556 225.71652 
L 196.642264 225.99559 
L 196.707392 226.273661 
L 196.776923 226.550664 
L 196.850841 226.826529 
L 196.929126 227.101186 
L 197.01176 227.374567 
L 197.09872 227.646602 
L 197.189985 227.917223 
L 197.285533 228.186363 
L 197.385339 228.453952 
L 197.489377 228.719924 
L 197.597623 228.984212 
L 197.710048 229.24675 
L 197.826624 229.50747 
L 197.947322 229.766308 
L 198.072112 230.023199 
L 198.200962 230.278077 
L 198.333839 230.530879 
L 198.470711 230.781541 
L 198.611543 231.03 
L 198.756299 231.276193 
L 198.904942 231.520058 
L 199.057436 231.761535 
L 199.213743 232.000561 
L 199.373822 232.237078 
L 199.537633 232.471024 
L 199.705135 232.702343 
L 199.876287 232.930974 
L 200.051044 233.156862 
L 200.229364 233.379948 
L 200.4112 233.600177 
L 200.596508 233.817493 
L 200.78524 234.031842 
L 200.977349 234.243169 
L 201.172787 234.451422 
L 201.371505 234.656548 
L 201.573452 234.858495 
L 201.778578 235.057213 
L 201.986831 235.252651 
L 202.198158 235.44476 
L 202.412507 235.633492 
L 202.629823 235.8188 
L 202.850052 236.000636 
L 203.073138 236.178956 
L 203.299026 236.353713 
L 203.527657 236.524865 
L 203.758976 236.692367 
L 203.992922 236.856178 
L 204.229439 237.016257 
L 204.468465 237.172564 
L 204.709942 237.325058 
L 204.953807 237.473701 
L 205.2 237.618457 
L 205.448459 237.759289 
L 205.699121 237.896161 
L 205.951923 238.029038 
L 206.206801 238.157888 
L 206.463692 238.282678 
L 206.72253 238.403376 
L 206.98325 238.519952 
L 207.245788 238.632377 
L 207.510076 238.740623 
L 207.776048 238.844661 
L 208.043637 238.944467 
L 208.312777 239.040015 
L 208.583398 239.13128 
L 208.855433 239.21824 
L 209.128814 239.300874 
L 209.403471 239.379159 
L 209.679336 239.453077 
L 209.956339 239.522608 
L 210.23441 239.587736 
L 210.51348 239.648444 
L 210.793478 239.704717 
L 211.074333 239.75654 
L 211.355975 239.8039 
L 211.638333 239.846786 
L 211.921336 239.885187 
L 212.204912 239.919092 
L 212.488991 239.948495 
L 212.773501 239.973386 
L 213.058369 239.99376 
L 213.343526 240.009612 
L 213.628897 240.020938 
L 213.914413 240.027734 
L 214.2 240.03 
L 250.2 240.03 
z
" clip-path="url(#p7e5ad90820)" style="fill: none; stroke: #000000; stroke-linecap: round"/>
   </g>
   <g id="patch_5">
    <path d="M 97.2 319.23 
L 97.485587 319.227734 
L 97.771103 319.220938 
L 98.056474 319.209612 
L 98.341631 319.19376 
L 98.626499 319.173386 
L 98.911009 319.148495 
L 99.195088 319.119092 
L 99.478664 319.085187 
L 99.761667 319.046786 
L 100.044025 319.0039 
L 100.325667 318.95654 
L 100.606522 318.904717 
L 100.88652 318.848444 
L 101.16559 318.787736 
L 101.443661 318.722608 
L 101.720664 318.653077 
L 101.996529 318.579159 
L 102.271186 318.500874 
L 102.544567 318.41824 
L 102.816602 318.33128 
L 103.087223 318.240015 
L 103.356363 318.144467 
L 103.623952 318.044661 
L 103.889924 317.940623 
L 104.154212 317.832377 
L 104.41675 317.719952 
L 104.67747 317.603376 
L 104.936308 317.482678 
L 105.193199 317.357888 
L 105.448077 317.229038 
L 105.700879 317.096161 
L 105.951541 316.959289 
L 106.2 316.818457 
L 106.446193 316.673701 
L 106.690058 316.525058 
L 106.931535 316.372564 
L 107.170561 316.216257 
L 107.407078 316.056178 
L 107.641024 315.892367 
L 107.872343 315.724865 
L 108.100974 315.553713 
L 108.326862 315.378956 
L 108.549948 315.200636 
L 108.770177 315.0188 
L 108.987493 314.833492 
L 109.201842 314.64476 
L 109.413169 314.452651 
L 109.621422 314.257213 
L 109.826548 314.058495 
L 110.028495 313.856548 
L 110.227213 313.651422 
L 110.422651 313.443169 
L 110.61476 313.231842 
L 110.803492 313.017493 
L 110.9888 312.800177 
L 111.170636 312.579948 
L 111.348956 312.356862 
L 111.523713 312.130974 
L 111.694865 311.902343 
L 111.862367 311.671024 
L 112.026178 311.437078 
L 112.186257 311.200561 
L 112.342564 310.961535 
L 112.495058 310.720058 
L 112.643701 310.476193 
L 112.788457 310.23 
L 112.929289 309.981541 
L 113.066161 309.730879 
L 113.199038 309.478077 
L 113.327888 309.223199 
L 113.452678 308.966308 
L 113.573376 308.70747 
L 113.689952 308.44675 
L 113.802377 308.184212 
L 113.910623 307.919924 
L 114.014661 307.653952 
L 114.114467 307.386363 
L 114.210015 307.117223 
L 114.30128 306.846602 
L 114.38824 306.574567 
L 114.470874 306.301186 
L 114.549159 306.026529 
L 114.623077 305.750664 
L 114.692608 305.473661 
L 114.757736 305.19559 
L 114.818444 304.91652 
L 114.874717 304.636522 
L 114.92654 304.355667 
L 114.9739 304.074025 
L 115.016786 303.791667 
L 115.055187 303.508664 
L 115.089092 303.225088 
L 115.118495 302.941009 
L 115.143386 302.656499 
L 115.16376 302.371631 
L 115.179612 302.086474 
L 115.190938 301.801103 
L 115.197734 301.515587 
L 115.2 301.23 
L 115.2 301.23 
L 115.197734 300.944413 
L 115.190938 300.658897 
L 115.179612 300.373526 
L 115.16376 300.088369 
L 115.143386 299.803501 
L 115.118495 299.518991 
L 115.089092 299.234912 
L 115.055187 298.951336 
L 115.016786 298.668333 
L 114.9739 298.385975 
L 114.92654 298.104333 
L 114.874717 297.823478 
L 114.818444 297.54348 
L 114.757736 297.26441 
L 114.692608 296.986339 
L 114.623077 296.709336 
L 114.549159 296.433471 
L 114.470874 296.158814 
L 114.38824 295.885433 
L 114.30128 295.613398 
L 114.210015 295.342777 
L 114.114467 295.073637 
L 114.014661 294.806048 
L 113.910623 294.540076 
L 113.802377 294.275788 
L 113.689952 294.01325 
L 113.573376 293.75253 
L 113.452678 293.493692 
L 113.327888 293.236801 
L 113.199038 292.981923 
L 113.066161 292.729121 
L 112.929289 292.478459 
L 112.788457 292.23 
L 112.643701 291.983807 
L 112.495058 291.739942 
L 112.342564 291.498465 
L 112.186257 291.259439 
L 112.026178 291.022922 
L 111.862367 290.788976 
L 111.694865 290.557657 
L 111.523713 290.329026 
L 111.348956 290.103138 
L 111.170636 289.880052 
L 110.9888 289.659823 
L 110.803492 289.442507 
L 110.61476 289.228158 
L 110.422651 289.016831 
L 110.227213 288.808578 
L 110.028495 288.603452 
L 109.826548 288.401505 
L 109.621422 288.202787 
L 109.413169 288.007349 
L 109.201842 287.81524 
L 108.987493 287.626508 
L 108.770177 287.4412 
L 108.549948 287.259364 
L 108.326862 287.081044 
L 108.100974 286.906287 
L 107.872343 286.735135 
L 107.641024 286.567633 
L 107.407078 286.403822 
L 107.170561 286.243743 
L 106.931535 286.087436 
L 106.690058 285.934942 
L 106.446193 285.786299 
L 106.2 285.641543 
L 105.951541 285.500711 
L 105.700879 285.363839 
L 105.448077 285.230962 
L 105.193199 285.102112 
L 104.936308 284.977322 
L 104.67747 284.856624 
L 104.41675 284.740048 
L 104.154212 284.627623 
L 103.889924 284.519377 
L 103.623952 284.415339 
L 103.356363 284.315533 
L 103.087223 284.219985 
L 102.816602 284.12872 
L 102.544567 284.04176 
L 102.271186 283.959126 
L 101.996529 283.880841 
L 101.720664 283.806923 
L 101.443661 283.737392 
L 101.16559 283.672264 
L 100.88652 283.611556 
L 100.606522 283.555283 
L 100.325667 283.50346 
L 100.044025 283.4561 
L 99.761667 283.413214 
L 99.478664 283.374813 
L 99.195088 283.340908 
L 98.911009 283.311505 
L 98.626499 283.286614 
L 98.341631 283.26624 
L 98.056474 283.250388 
L 97.771103 283.239062 
L 97.485587 283.232266 
L 97.2 283.23 
L 61.2 283.23 
L 60.914413 283.232266 
L 60.628897 283.239062 
L 60.343526 283.250388 
L 60.058369 283.26624 
L 59.773501 283.286614 
L 59.488991 283.311505 
L 59.204912 283.340908 
L 58.921336 283.374813 
L 58.638333 283.413214 
L 58.355975 283.4561 
L 58.074333 283.50346 
L 57.793478 283.555283 
L 57.51348 283.611556 
L 57.23441 283.672264 
L 56.956339 283.737392 
L 56.679336 283.806923 
L 56.403471 283.880841 
L 56.128814 283.959126 
L 55.855433 284.04176 
L 55.583398 284.12872 
L 55.312777 284.219985 
L 55.043637 284.315533 
L 54.776048 284.415339 
L 54.510076 284.519377 
L 54.245788 284.627623 
L 53.98325 284.740048 
L 53.72253 284.856624 
L 53.463692 284.977322 
L 53.206801 285.102112 
L 52.951923 285.230962 
L 52.699121 285.363839 
L 52.448459 285.500711 
L 52.2 285.641543 
L 51.953807 285.786299 
L 51.709942 285.934942 
L 51.468465 286.087436 
L 51.229439 286.243743 
L 50.992922 286.403822 
L 50.758976 286.567633 
L 50.527657 286.735135 
L 50.299026 286.906287 
L 50.073138 287.081044 
L 49.850052 287.259364 
L 49.629823 287.4412 
L 49.412507 287.626508 
L 49.198158 287.81524 
L 48.986831 288.007349 
L 48.778578 288.202787 
L 48.573452 288.401505 
L 48.371505 288.603452 
L 48.172787 288.808578 
L 47.977349 289.016831 
L 47.78524 289.228158 
L 47.596508 289.442507 
L 47.4112 289.659823 
L 47.229364 289.880052 
L 47.051044 290.103138 
L 46.876287 290.329026 
L 46.705135 290.557657 
L 46.537633 290.788976 
L 46.373822 291.022922 
L 46.213743 291.259439 
L 46.057436 291.498465 
L 45.904942 291.739942 
L 45.756299 291.983807 
L 45.611543 292.23 
L 45.470711 292.478459 
L 45.333839 292.729121 
L 45.200962 292.981923 
L 45.072112 293.236801 
L 44.947322 293.493692 
L 44.826624 293.75253 
L 44.710048 294.01325 
L 44.597623 294.275788 
L 44.489377 294.540076 
L 44.385339 294.806048 
L 44.285533 295.073637 
L 44.189985 295.342777 
L 44.09872 295.613398 
L 44.01176 295.885433 
L 43.929126 296.158814 
L 43.850841 296.433471 
L 43.776923 296.709336 
L 43.707392 296.986339 
L 43.642264 297.26441 
L 43.581556 297.54348 
L 43.525283 297.823478 
L 43.47346 298.104333 
L 43.4261 298.385975 
L 43.383214 298.668333 
L 43.344813 298.951336 
L 43.310908 299.234912 
L 43.281505 299.518991 
L 43.256614 299.803501 
L 43.23624 300.088369 
L 43.220388 300.373526 
L 43.209062 300.658897 
L 43.202266 300.944413 
L 43.2 301.23 
L 43.2 301.23 
L 43.202266 301.515587 
L 43.209062 301.801103 
L 43.220388 302.086474 
L 43.23624 302.371631 
L 43.256614 302.656499 
L 43.281505 302.941009 
L 43.310908 303.225088 
L 43.344813 303.508664 
L 43.383214 303.791667 
L 43.4261 304.074025 
L 43.47346 304.355667 
L 43.525283 304.636522 
L 43.581556 304.91652 
L 43.642264 305.19559 
L 43.707392 305.473661 
L 43.776923 305.750664 
L 43.850841 306.026529 
L 43.929126 306.301186 
L 44.01176 306.574567 
L 44.09872 306.846602 
L 44.189985 307.117223 
L 44.285533 307.386363 
L 44.385339 307.653952 
L 44.489377 307.919924 
L 44.597623 308.184212 
L 44.710048 308.44675 
L 44.826624 308.70747 
L 44.947322 308.966308 
L 45.072112 309.223199 
L 45.200962 309.478077 
L 45.333839 309.730879 
L 45.470711 309.981541 
L 45.611543 310.23 
L 45.756299 310.476193 
L 45.904942 310.720058 
L 46.057436 310.961535 
L 46.213743 311.200561 
L 46.373822 311.437078 
L 46.537633 311.671024 
L 46.705135 311.902343 
L 46.876287 312.130974 
L 47.051044 312.356862 
L 47.229364 312.579948 
L 47.4112 312.800177 
L 47.596508 313.017493 
L 47.78524 313.231842 
L 47.977349 313.443169 
L 48.172787 313.651422 
L 48.371505 313.856548 
L 48.573452 314.058495 
L 48.778578 314.257213 
L 48.986831 314.452651 
L 49.198158 314.64476 
L 49.412507 314.833492 
L 49.629823 315.0188 
L 49.850052 315.200636 
L 50.073138 315.378956 
L 50.299026 315.553713 
L 50.527657 315.724865 
L 50.758976 315.892367 
L 50.992922 316.056178 
L 51.229439 316.216257 
L 51.468465 316.372564 
L 51.709942 316.525058 
L 51.953807 316.673701 
L 52.2 316.818457 
L 52.448459 316.959289 
L 52.699121 317.096161 
L 52.951923 317.229038 
L 53.206801 317.357888 
L 53.463692 317.482678 
L 53.72253 317.603376 
L 53.98325 317.719952 
L 54.245788 317.832377 
L 54.510076 317.940623 
L 54.776048 318.044661 
L 55.043637 318.144467 
L 55.312777 318.240015 
L 55.583398 318.33128 
L 55.855433 318.41824 
L 56.128814 318.500874 
L 56.403471 318.579159 
L 56.679336 318.653077 
L 56.956339 318.722608 
L 57.23441 318.787736 
L 57.51348 318.848444 
L 57.793478 318.904717 
L 58.074333 318.95654 
L 58.355975 319.0039 
L 58.638333 319.046786 
L 58.921336 319.085187 
L 59.204912 319.119092 
L 59.488991 319.148495 
L 59.773501 319.173386 
L 60.058369 319.19376 
L 60.343526 319.209612 
L 60.628897 319.220938 
L 60.914413 319.227734 
L 61.2 319.23 
L 97.2 319.23 
z
" clip-path="url(#p7e5ad90820)" style="fill: none; stroke: #000000; stroke-linecap: round"/>
   </g>
   <g id="line2d_1">
    <path d="M 79.2 54.63 
L 79.2 68.13 
L 79.2 72.63 
" clip-path="url(#p7e5ad90820)" style="fill: none; stroke: #000000; stroke-linecap: round"/>
   </g>
   <g id="patch_6">
    <path d="M 81.9 72.63 
L 79.2 81.63 
L 76.5 72.63 
z
" clip-path="url(#p7e5ad90820)"/>
   </g>
   <g id="line2d_2">
    <path d="M 16.2 99.63 
L 16.2 81.63 
L 142.2 81.63 
L 142.2 117.63 
L 16.2 117.63 
L 16.2 99.63 
" clip-path="url(#p7e5ad90820)" style="fill: none; stroke: #000000; stroke-linecap: round"/>
   </g>
   <g id="line2d_3">
    <path d="M 79.2 117.63 
L 79.2 131.13 
L 79.2 135.63 
" clip-path="url(#p7e5ad90820)" style="fill: none; stroke: #000000; stroke-linecap: round"/>
   </g>
   <g id="patch_7">
    <path d="M 81.9 135.63 
L 79.2 144.63 
L 76.5 135.63 
z
" clip-path="url(#p7e5ad90820)"/>
   </g>
   <g id="line2d_4">
    <path d="M 142.2 166.23 
L 169.2 166.23 
L 187.2 166.23 
" clip-path="url(#p7e5ad90820)" style="fill: none; stroke: #000000; stroke-linecap: round"/>
   </g>
   <g id="patch_8">
    <path d="M 187.2 163.53 
L 196.2 166.23 
L 187.2 168.93 
z
" clip-path="url(#p7e5ad90820)"/>
   </g>
   <g id="line2d_5">
    <path d="M 196.2 166.23 
L 196.2 150.03 
L 268.2 150.03 
L 268.2 182.43 
L 196.2 182.43 
L 196.2 166.23 
" clip-path="url(#p7e5ad90820)" style="fill: none; stroke: #000000; stroke-linecap: round"/>
   </g>
   <g id="line2d_6">
    <path d="M 232.2 182.43 
L 232.2 193.23 
L 232.2 195.03 
" clip-path="url(#p7e5ad90820)" style="fill: none; stroke: #000000; stroke-linecap: round"/>
   </g>
   <g id="patch_9">
    <path d="M 234.9 195.03 
L 232.2 204.03 
L 229.5 195.03 
z
" clip-path="url(#p7e5ad90820)"/>
   </g>
   <g id="line2d_7">
    <path d="M 79.2 187.83 
L 79.2 205.83 
L 79.2 214.83 
" clip-path="url(#p7e5ad90820)" style="fill: none; stroke: #000000; stroke-linecap: round"/>
   </g>
   <g id="patch_10">
    <path d="M 81.9 214.83 
L 79.2 223.83 
L 76.5 214.83 
z
" clip-path="url(#p7e5ad90820)"/>
   </g>
   <g id="line2d_8">
    <path d="M 43.2 240.03 
L 43.2 223.83 
L 115.2 223.83 
L 115.2 256.23 
L 43.2 256.23 
L 43.2 240.03 
" clip-path="url(#p7e5ad90820)" style="fill: none; stroke: #000000; stroke-linecap: round"/>
   </g>
   <g id="line2d_9">
    <path d="M 79.2 256.23 
L 79.2 269.73 
L 79.2 274.23 
" clip-path="url(#p7e5ad90820)" style="fill: none; stroke: #000000; stroke-linecap: round"/>
   </g>
   <g id="patch_11">
    <path d="M 81.9 274.23 
L 79.2 283.23 
L 76.5 274.23 
z
" clip-path="url(#p7e5ad90820)"/>
   </g>
   <g id="text_1">
    <!-- START -->
    <g transform="translate(60.023242 40.124141) scale(0.125 -0.125)">
     <defs>
      <path id="IPAexGothic-53" d="M 2919 3641 
Q 2563 4259 1853 4259 
Q 1453 4259 1213 4009 
Q 1028 3803 1028 3534 
Q 1028 3238 1266 3047 
Q 1444 2913 1984 2688 
L 2200 2597 
Q 2925 2306 3191 1953 
Q 3422 1644 3422 1259 
Q 3422 644 2969 288 
Q 2559 -31 1931 -31 
Q 881 -31 313 766 
L 753 1100 
Q 1203 459 1938 459 
Q 2288 459 2534 625 
Q 2841 847 2841 1216 
Q 2841 1503 2616 1728 
Q 2375 1959 1728 2206 
L 1541 2278 
Q 453 2694 453 3481 
Q 453 4006 806 4347 
Q 1203 4725 1863 4725 
Q 2841 4725 3359 3956 
L 2919 3641 
z
" transform="scale(0.015625)"/>
      <path id="IPAexGothic-54" d="M 3866 4141 
L 2175 4141 
L 2175 63 
L 1606 63 
L 1606 4141 
L -31 4141 
L -31 4634 
L 3866 4634 
L 3866 4141 
z
" transform="scale(0.015625)"/>
      <path id="IPAexGothic-41" d="M 4056 63 
L 3444 63 
L 2938 1409 
L 1100 1409 
L 603 63 
L -6 63 
L 1806 4666 
L 2259 4666 
L 4056 63 
z
M 2778 1863 
L 2316 3078 
Q 2125 3588 2028 4000 
L 2009 4000 
Q 1897 3563 1716 3078 
L 1263 1863 
L 2778 1863 
z
" transform="scale(0.015625)"/>
      <path id="IPAexGothic-52" d="M 4072 63 
L 3394 63 
Q 3138 641 2828 1197 
Q 2584 1641 2344 1825 
Q 2050 2044 1625 2044 
L 1172 2044 
L 1172 63 
L 609 63 
L 609 4634 
L 2009 4634 
Q 2713 4634 3131 4378 
Q 3688 4044 3688 3381 
Q 3688 2784 3181 2459 
Q 2906 2272 2522 2216 
L 2522 2197 
Q 2941 2050 3247 1581 
Q 3516 1166 4072 63 
z
M 1172 2478 
L 1869 2478 
Q 3106 2478 3106 3369 
Q 3106 4181 1928 4181 
L 1172 4181 
L 1172 2478 
z
" transform="scale(0.015625)"/>
     </defs>
     <use xlink:href="#IPAexGothic-53"/>
     <use xlink:href="#IPAexGothic-54" x="58.496094"/>
     <use xlink:href="#IPAexGothic-41" x="118.408203"/>
     <use xlink:href="#IPAexGothic-52" x="182.128906"/>
     <use xlink:href="#IPAexGothic-54" x="246.923828"/>
    </g>
   </g>
   <g id="text_2">
    <!-- $x$ に値を割り当てる -->
    <g transform="translate(23.7625 96.161641) scale(0.125 -0.125)">
     <defs>
      <path id="DejaVuSans-Oblique-78" d="M 3841 3500 
L 2234 1784 
L 3219 0 
L 2559 0 
L 1819 1388 
L 531 0 
L -166 0 
L 1556 1844 
L 641 3500 
L 1300 3500 
L 1972 2234 
L 3144 3500 
L 3841 3500 
z
" transform="scale(0.015625)"/>
      <path id="IPAexGothic-20" transform="scale(0.015625)"/>
      <path id="IPAexGothic-306b" d="M 1088 -38 
Q 922 1003 922 2081 
Q 922 3222 1331 4794 
L 1813 4684 
Q 1391 3113 1391 2003 
Q 1391 1441 1422 1147 
Q 1434 1181 1813 2016 
L 2125 1797 
Q 1800 1081 1691 763 
Q 1581 453 1581 269 
Q 1581 78 1588 6 
L 1088 -38 
z
M 2834 4038 
Q 3969 4213 5313 4172 
L 5338 3681 
Q 3959 3728 2869 3547 
L 2834 4038 
z
M 5650 256 
Q 5044 172 4372 172 
Q 3463 172 3047 434 
Q 2784 594 2675 841 
Q 2572 1075 2572 1447 
Q 2572 1563 2578 1656 
L 3053 1684 
Q 3050 1613 3044 1528 
Q 3041 1481 3041 1466 
Q 3041 1200 3119 1053 
Q 3178 944 3309 850 
Q 3569 678 4275 678 
Q 4891 678 5588 763 
L 5650 256 
z
" transform="scale(0.015625)"/>
      <path id="IPAexGothic-5024" d="M 4172 3675 
L 5453 3675 
L 5453 684 
L 3019 684 
L 3019 3675 
L 3750 3675 
Q 3788 3884 3825 4153 
L 2141 4153 
L 2141 4544 
L 3884 4544 
Q 3922 4844 3966 5325 
L 4434 5272 
L 4388 4953 
Q 4331 4578 4331 4544 
L 5863 4544 
L 5863 4153 
L 4269 4153 
Q 4200 3781 4172 3675 
z
M 5038 3316 
L 3434 3316 
L 3434 2803 
L 5038 2803 
L 5038 3316 
z
M 3434 2450 
L 3434 1941 
L 5038 1941 
L 5038 2450 
L 3434 2450 
z
M 3434 1588 
L 3434 1044 
L 5038 1044 
L 5038 1588 
L 3434 1588 
z
M 1509 3669 
L 1509 -447 
L 1069 -447 
L 1069 2725 
Q 856 2338 531 1875 
L 288 2266 
Q 1163 3531 1541 5325 
L 1975 5222 
Q 1791 4378 1509 3669 
z
M 2488 244 
L 6031 244 
L 6031 -153 
L 2488 -153 
L 2488 -447 
L 2059 -447 
L 2059 3213 
L 2488 3213 
L 2488 244 
z
" transform="scale(0.015625)"/>
      <path id="IPAexGothic-3092" d="M 1094 4263 
Q 1544 4222 2359 4222 
Q 2581 4734 2700 5163 
L 3175 5028 
Q 2997 4538 2859 4256 
Q 3516 4284 4294 4459 
L 4356 4019 
Q 3603 3869 2656 3819 
Q 2391 3284 2059 2797 
Q 2531 3200 2963 3200 
Q 3638 3200 3859 2378 
Q 4556 2681 5338 2950 
L 5575 2528 
Q 4641 2253 3941 1956 
Q 3981 1678 3994 1028 
L 3513 991 
Q 3513 1456 3494 1753 
Q 2388 1194 2388 716 
Q 2388 428 2753 328 
Q 3066 241 3806 241 
Q 4394 241 5178 344 
L 5216 -128 
Q 4434 -213 3653 -213 
Q 2656 -213 2244 41 
Q 1913 244 1913 631 
Q 1913 1094 2344 1497 
Q 2709 1841 3428 2181 
Q 3266 2797 2878 2797 
Q 2238 2797 1209 1419 
L 838 1694 
Q 1625 2716 2163 3800 
Q 1522 3800 1088 3825 
L 1094 4263 
z
" transform="scale(0.015625)"/>
      <path id="IPAexGothic-5272" d="M 2325 4209 
L 2325 3713 
L 3272 3713 
L 3272 3381 
L 2325 3381 
L 2325 2950 
L 3494 2950 
L 3494 2619 
L 2325 2619 
L 2325 2175 
L 3956 2175 
L 3956 1809 
L 353 1809 
L 353 2175 
L 1909 2175 
L 1909 2619 
L 753 2619 
L 753 2950 
L 1909 2950 
L 1909 3381 
L 984 3381 
L 984 3713 
L 1909 3713 
L 1909 4209 
L 838 4209 
L 838 3609 
L 409 3609 
L 409 4569 
L 1903 4569 
L 1903 5313 
L 2338 5313 
L 2338 4569 
L 3872 4569 
L 3872 3609 
L 3444 3609 
L 3444 4209 
L 2325 4209 
z
M 3388 1397 
L 3388 -384 
L 2966 -384 
L 2966 -122 
L 1269 -122 
L 1269 -447 
L 847 -447 
L 847 1397 
L 3388 1397 
z
M 1269 1038 
L 1269 238 
L 2966 238 
L 2966 1038 
L 1269 1038 
z
M 4259 4550 
L 4700 4550 
L 4700 953 
L 4259 953 
L 4259 4550 
z
M 5403 5081 
L 5844 5081 
L 5844 159 
Q 5844 -106 5747 -231 
Q 5634 -372 5263 -372 
Q 4763 -372 4391 -325 
L 4303 141 
Q 4803 75 5206 75 
Q 5403 75 5403 300 
L 5403 5081 
z
" transform="scale(0.015625)"/>
      <path id="IPAexGothic-308a" d="M 2878 2925 
Q 2503 2294 2372 2041 
Q 2222 1750 2163 1459 
L 1716 1503 
Q 1509 2131 1509 3091 
Q 1509 3744 1663 4872 
L 2181 4806 
Q 2003 3541 2003 3016 
Q 2003 2613 2028 2259 
Q 2109 2413 2313 2766 
Q 2484 3063 2578 3238 
L 2878 2925 
z
M 2488 128 
Q 3534 503 3928 1184 
Q 4234 1713 4234 2975 
Q 4234 3872 4122 4928 
L 4666 4928 
Q 4759 3794 4759 2975 
Q 4759 1516 4356 844 
Q 3913 103 2853 -288 
L 2488 128 
z
" transform="scale(0.015625)"/>
      <path id="IPAexGothic-5f53" d="M 3413 2931 
L 5466 2931 
L 5466 -447 
L 4991 -447 
L 4991 -128 
L 825 -128 
L 825 288 
L 4991 288 
L 4991 1241 
L 978 1241 
L 978 1650 
L 4991 1650 
L 4991 2528 
L 819 2528 
L 819 2931 
L 2938 2931 
L 2938 5147 
L 3413 5147 
L 3413 2931 
z
M 1716 3219 
Q 1375 3966 972 4506 
L 1388 4738 
Q 1800 4228 2175 3450 
L 1716 3219 
z
M 4088 3416 
Q 4531 4009 4916 4844 
L 5394 4625 
Q 4984 3828 4513 3194 
L 4088 3416 
z
" transform="scale(0.015625)"/>
      <path id="IPAexGothic-3066" d="M 581 4034 
Q 2978 4363 5466 4556 
L 5509 4097 
Q 4388 4031 3750 3572 
Q 2797 2878 2797 1913 
Q 2797 1169 3291 819 
Q 3778 484 4869 416 
L 4906 -116 
Q 2278 0 2278 1850 
Q 2278 3125 3691 4000 
Q 2066 3784 684 3553 
L 581 4034 
z
" transform="scale(0.015625)"/>
      <path id="IPAexGothic-308b" d="M 4391 4397 
L 2613 2588 
Q 3225 2809 3759 2809 
Q 4263 2809 4659 2625 
Q 5391 2269 5391 1484 
Q 5391 756 4706 275 
Q 4072 -166 3053 -166 
Q 2559 -166 2247 19 
Q 1863 250 1863 666 
Q 1863 934 2069 1141 
Q 2331 1403 2741 1403 
Q 3509 1403 4019 428 
Q 4872 784 4872 1491 
Q 4872 1981 4469 2222 
Q 4166 2406 3681 2406 
Q 2425 2406 1238 1209 
L 891 1581 
Q 2438 2934 3578 4281 
Q 2594 4125 1588 4066 
L 1478 4550 
Q 2594 4581 4109 4763 
L 4391 4397 
z
M 3591 303 
Q 3244 1025 2731 1025 
Q 2553 1025 2434 934 
Q 2316 844 2316 700 
Q 2316 250 3034 250 
Q 3275 250 3591 303 
z
" transform="scale(0.015625)"/>
     </defs>
     <use xlink:href="#DejaVuSans-Oblique-78" transform="translate(0 0.796875)"/>
     <use xlink:href="#IPAexGothic-20" transform="translate(59.179688 0.796875)"/>
     <use xlink:href="#IPAexGothic-306b" transform="translate(86.181641 0.796875)"/>
     <use xlink:href="#IPAexGothic-5024" transform="translate(186.181641 0.796875)"/>
     <use xlink:href="#IPAexGothic-3092" transform="translate(286.181641 0.796875)"/>
     <use xlink:href="#IPAexGothic-5272" transform="translate(386.181641 0.796875)"/>
     <use xlink:href="#IPAexGothic-308a" transform="translate(486.181641 0.796875)"/>
     <use xlink:href="#IPAexGothic-5f53" transform="translate(586.181641 0.796875)"/>
     <use xlink:href="#IPAexGothic-3066" transform="translate(686.181641 0.796875)"/>
     <use xlink:href="#IPAexGothic-308b" transform="translate(786.181641 0.796875)"/>
    </g>
    <!-- （例えば，$-10$） -->
    <g transform="translate(28.45 110.086641) scale(0.125 -0.125)">
     <defs>
      <path id="IPAexGothic-ff08" d="M 5419 -434 
Q 4197 769 4197 2438 
Q 4197 4097 5419 5300 
L 5919 5300 
Q 4678 4078 4678 2425 
Q 4678 788 5919 -434 
L 5419 -434 
z
" transform="scale(0.015625)"/>
      <path id="IPAexGothic-4f8b" d="M 2869 3713 
L 3750 3713 
L 4006 3522 
Q 3872 2134 3463 1241 
Q 3019 247 2094 -472 
L 1778 -128 
Q 2691 516 3163 1600 
Q 2791 1994 2388 2284 
Q 2163 1853 1928 1544 
L 1638 1888 
Q 2331 2806 2572 4488 
L 1906 4488 
L 1906 4891 
L 4206 4891 
L 4206 4488 
L 2997 4488 
L 2991 4450 
Q 2938 4013 2869 3713 
z
M 2772 3322 
Q 2659 2916 2534 2613 
Q 2997 2319 3316 2009 
Q 3338 2078 3341 2094 
Q 3519 2644 3566 3322 
L 2772 3322 
z
M 1400 3816 
L 1400 -447 
L 972 -447 
L 972 2797 
Q 753 2347 484 1966 
L 250 2363 
Q 981 3531 1388 5313 
L 1822 5203 
Q 1613 4419 1400 3816 
z
M 4378 4519 
L 4806 4519 
L 4806 959 
L 4378 959 
L 4378 4519 
z
M 5422 5088 
L 5850 5088 
L 5850 109 
Q 5850 -391 5300 -391 
Q 4925 -391 4544 -359 
L 4444 109 
Q 4863 44 5225 44 
Q 5422 44 5422 238 
L 5422 5088 
z
" transform="scale(0.015625)"/>
      <path id="IPAexGothic-3048" d="M 3797 4038 
Q 3144 4428 2013 4709 
L 2266 5106 
Q 3388 4838 4078 4469 
L 3797 4038 
z
M 1263 3347 
Q 2566 3428 3956 3641 
L 4291 3263 
Q 3759 2741 2875 1778 
Q 3156 1881 3356 1881 
Q 3909 1881 3919 1253 
L 3931 709 
Q 3941 456 4116 409 
Q 4244 372 4519 372 
Q 4944 372 5538 481 
L 5581 -31 
Q 5097 -103 4675 -103 
Q 4047 -103 3791 25 
Q 3484 178 3463 594 
L 3444 1094 
Q 3434 1491 3150 1491 
Q 2800 1491 2322 1072 
Q 1950 747 1109 -184 
L 738 166 
Q 2053 1434 3597 3181 
Q 2600 2988 1391 2841 
L 1263 3347 
z
" transform="scale(0.015625)"/>
      <path id="IPAexGothic-3070" d="M 5294 4134 
Q 5066 4672 4775 5025 
L 5122 5203 
Q 5403 4881 5659 4341 
L 5294 4134 
z
M 5928 4481 
Q 5678 4991 5391 5313 
L 5722 5503 
Q 5978 5231 6278 4697 
L 5928 4481 
z
M 4028 4831 
L 4500 4831 
L 4519 3725 
Q 4966 3772 5544 3897 
L 5581 3422 
Q 5219 3350 4525 3275 
L 4559 1394 
Q 5063 1238 5897 709 
L 5619 269 
Q 5031 728 4572 934 
Q 4572 397 4347 181 
Q 4091 -56 3597 -56 
Q 2953 -56 2631 188 
Q 2350 400 2350 788 
Q 2350 1181 2734 1441 
Q 3013 1625 3497 1625 
Q 3722 1625 4097 1547 
L 4059 3244 
Q 3659 3225 3322 3225 
Q 2881 3225 2447 3256 
L 2428 3716 
Q 2909 3672 3419 3672 
Q 3709 3672 4053 3691 
L 4028 4831 
z
M 4103 1106 
Q 3716 1216 3475 1216 
Q 2803 1216 2803 806 
Q 2803 378 3597 378 
Q 3850 378 3984 525 
Q 4103 656 4103 878 
Q 4103 1044 4103 1106 
z
M 963 -97 
Q 756 1025 756 1888 
Q 756 3109 1209 4838 
L 1691 4716 
Q 1231 2997 1231 1856 
Q 1231 1522 1269 1063 
Q 1553 1663 1716 1953 
L 2038 1759 
Q 1447 669 1447 97 
Q 1447 25 1453 -44 
L 963 -97 
z
" transform="scale(0.015625)"/>
      <path id="IPAexGothic-ff0c" d="M 588 1088 
L 1444 1088 
L 1444 622 
Q 1444 -122 934 -597 
L 531 -597 
Q 909 -216 978 294 
L 588 294 
L 588 1088 
z
" transform="scale(0.015625)"/>
      <path id="DejaVuSans-2212" d="M 678 2272 
L 4684 2272 
L 4684 1741 
L 678 1741 
L 678 2272 
z
" transform="scale(0.015625)"/>
      <path id="DejaVuSans-31" d="M 794 531 
L 1825 531 
L 1825 4091 
L 703 3866 
L 703 4441 
L 1819 4666 
L 2450 4666 
L 2450 531 
L 3481 531 
L 3481 0 
L 794 0 
L 794 531 
z
" transform="scale(0.015625)"/>
      <path id="DejaVuSans-30" d="M 2034 4250 
Q 1547 4250 1301 3770 
Q 1056 3291 1056 2328 
Q 1056 1369 1301 889 
Q 1547 409 2034 409 
Q 2525 409 2770 889 
Q 3016 1369 3016 2328 
Q 3016 3291 2770 3770 
Q 2525 4250 2034 4250 
z
M 2034 4750 
Q 2819 4750 3233 4129 
Q 3647 3509 3647 2328 
Q 3647 1150 3233 529 
Q 2819 -91 2034 -91 
Q 1250 -91 836 529 
Q 422 1150 422 2328 
Q 422 3509 836 4129 
Q 1250 4750 2034 4750 
z
" transform="scale(0.015625)"/>
      <path id="IPAexGothic-ff09" d="M 481 -434 
Q 1722 788 1722 2431 
Q 1722 4066 481 5300 
L 981 5300 
Q 2203 4097 2203 2431 
Q 2203 769 981 -434 
L 481 -434 
z
" transform="scale(0.015625)"/>
     </defs>
     <use xlink:href="#IPAexGothic-ff08" transform="translate(0 0.015625)"/>
     <use xlink:href="#IPAexGothic-4f8b" transform="translate(100 0.015625)"/>
     <use xlink:href="#IPAexGothic-3048" transform="translate(200 0.015625)"/>
     <use xlink:href="#IPAexGothic-3070" transform="translate(300 0.015625)"/>
     <use xlink:href="#IPAexGothic-ff0c" transform="translate(400 0.015625)"/>
     <use xlink:href="#DejaVuSans-2212" transform="translate(500 0.015625)"/>
     <use xlink:href="#DejaVuSans-31" transform="translate(583.789062 0.015625)"/>
     <use xlink:href="#DejaVuSans-30" transform="translate(647.412109 0.015625)"/>
     <use xlink:href="#IPAexGothic-ff09" transform="translate(711.035156 0.015625)"/>
    </g>
   </g>
   <g id="text_3">
    <!-- False -->
    <g transform="translate(83.88 201.873281) scale(0.125 -0.125)">
     <defs>
      <path id="IPAexGothic-46" d="M 3469 4141 
L 1172 4141 
L 1172 2656 
L 3206 2656 
L 3206 2188 
L 1172 2188 
L 1172 63 
L 609 63 
L 609 4634 
L 3469 4634 
L 3469 4141 
z
" transform="scale(0.015625)"/>
      <path id="IPAexGothic-61" d="M 3156 63 
L 2672 63 
Q 2559 303 2531 556 
L 2509 556 
Q 2147 -25 1428 -25 
Q 934 -25 622 288 
Q 347 563 347 959 
Q 347 1947 2050 1997 
L 2478 2009 
L 2478 2175 
Q 2478 2509 2288 2700 
Q 2088 2900 1775 2900 
Q 1238 2900 969 2378 
L 494 2597 
Q 938 3328 1788 3328 
Q 2375 3328 2691 3000 
Q 2984 2706 2984 2169 
L 2984 997 
Q 2984 400 3156 63 
z
M 2491 1625 
L 2141 1619 
Q 903 1591 903 953 
Q 903 728 1050 581 
Q 1231 403 1525 403 
Q 1934 403 2234 703 
Q 2491 969 2491 1344 
L 2491 1625 
z
" transform="scale(0.015625)"/>
      <path id="IPAexGothic-6c" d="M 1131 63 
L 581 63 
L 581 4794 
L 1131 4794 
L 1131 63 
z
" transform="scale(0.015625)"/>
      <path id="IPAexGothic-73" d="M 2234 2547 
Q 1938 2931 1484 2931 
Q 891 2931 891 2475 
Q 891 2153 1531 1944 
L 1741 1875 
Q 2650 1578 2650 894 
Q 2650 434 2272 172 
Q 1972 -31 1497 -31 
Q 766 -31 256 503 
L 603 819 
Q 997 397 1516 397 
Q 2131 397 2131 875 
Q 2131 1238 1453 1478 
L 1234 1553 
Q 378 1853 378 2431 
Q 378 2797 628 3047 
Q 928 3347 1453 3347 
Q 2156 3347 2606 2859 
L 2234 2547 
z
" transform="scale(0.015625)"/>
      <path id="IPAexGothic-65" d="M 863 1594 
Q 891 1041 1209 722 
Q 1534 397 1997 397 
Q 2606 397 2963 966 
L 3322 728 
Q 2869 -31 1931 -31 
Q 1222 -31 766 422 
Q 306 884 306 1641 
Q 306 2444 788 2925 
Q 1216 3353 1856 3353 
Q 2459 3353 2866 2956 
Q 3322 2494 3322 1722 
L 3322 1594 
L 863 1594 
z
M 2756 1997 
Q 2709 2431 2450 2681 
Q 2194 2938 1844 2938 
Q 1438 2938 1150 2591 
Q 953 2356 894 1997 
L 2756 1997 
z
" transform="scale(0.015625)"/>
     </defs>
     <use xlink:href="#IPAexGothic-46"/>
     <use xlink:href="#IPAexGothic-61" x="57.177734"/>
     <use xlink:href="#IPAexGothic-6c" x="112.158203"/>
     <use xlink:href="#IPAexGothic-73" x="139.160156"/>
     <use xlink:href="#IPAexGothic-65" x="185.351562"/>
    </g>
   </g>
   <g id="text_4">
    <!-- True -->
    <g transform="translate(146.88 159.175) scale(0.125 -0.125)">
     <defs>
      <path id="IPAexGothic-72" d="M 2309 3316 
L 2213 2769 
Q 2106 2791 2022 2791 
Q 1653 2791 1413 2444 
Q 1113 2006 1113 1675 
L 1113 63 
L 563 63 
L 563 3250 
L 1081 3250 
L 1056 2303 
L 1069 2303 
Q 1422 3341 2097 3341 
Q 2206 3341 2309 3316 
z
" transform="scale(0.015625)"/>
      <path id="IPAexGothic-75" d="M 3284 63 
L 2772 63 
L 2772 644 
Q 2300 0 1625 0 
Q 1072 0 763 375 
Q 519 678 519 1241 
L 519 3250 
L 1069 3250 
L 1069 1259 
Q 1069 466 1734 466 
Q 2406 466 2734 1291 
L 2734 3250 
L 3284 3250 
L 3284 63 
z
" transform="scale(0.015625)"/>
     </defs>
     <use xlink:href="#IPAexGothic-54"/>
     <use xlink:href="#IPAexGothic-72" x="59.912109"/>
     <use xlink:href="#IPAexGothic-75" x="96.923828"/>
     <use xlink:href="#IPAexGothic-65" x="157.324219"/>
    </g>
   </g>
   <g id="text_5">
    <!-- $x\geq 0$ ? -->
    <g transform="translate(58.7 169.724141) scale(0.125 -0.125)">
     <defs>
      <path id="DejaVuSans-2265" d="M 678 3175 
L 678 3725 
L 4684 2578 
L 4684 2047 
L 678 897 
L 678 1453 
L 3681 2309 
L 678 3175 
z
M 4684 531 
L 4684 0 
L 678 0 
L 678 531 
L 4684 531 
z
" transform="scale(0.015625)"/>
      <path id="IPAexGothic-3f" d="M 225 3425 
Q 503 4725 1763 4725 
Q 2413 4725 2803 4334 
Q 3144 3994 3144 3516 
Q 3144 3081 2838 2716 
Q 2703 2563 2344 2266 
L 2216 2156 
Q 1888 1878 1888 1363 
L 1888 1209 
L 1422 1209 
L 1422 1422 
Q 1422 2050 1881 2491 
L 2022 2625 
L 2075 2669 
Q 2575 3122 2575 3516 
Q 2575 3822 2363 4041 
Q 2128 4278 1763 4278 
Q 963 4278 725 3309 
L 225 3425 
z
M 1978 63 
L 1325 63 
L 1325 728 
L 1978 728 
L 1978 63 
z
" transform="scale(0.015625)"/>
     </defs>
     <use xlink:href="#DejaVuSans-Oblique-78" transform="translate(0 0.78125)"/>
     <use xlink:href="#DejaVuSans-2265" transform="translate(78.662109 0.78125)"/>
     <use xlink:href="#DejaVuSans-30" transform="translate(181.933594 0.78125)"/>
     <use xlink:href="#IPAexGothic-20" transform="translate(245.556641 0.78125)"/>
     <use xlink:href="#IPAexGothic-3f" transform="translate(272.558594 0.78125)"/>
    </g>
   </g>
   <g id="text_6">
    <!-- $x$ -->
    <g transform="translate(228.45 169.724141) scale(0.125 -0.125)">
     <use xlink:href="#DejaVuSans-Oblique-78" transform="translate(0 0.3125)"/>
    </g>
   </g>
   <g id="text_7">
    <!-- END -->
    <g transform="translate(219.000781 225.524141) scale(0.125 -0.125)">
     <defs>
      <path id="IPAexGothic-45" d="M 3547 63 
L 609 63 
L 609 4634 
L 3469 4634 
L 3469 4147 
L 1166 4147 
L 1166 2650 
L 3206 2650 
L 3206 2191 
L 1166 2191 
L 1166 556 
L 3547 556 
L 3547 63 
z
" transform="scale(0.015625)"/>
      <path id="IPAexGothic-4e" d="M 4244 63 
L 3731 63 
L 1697 3150 
Q 1466 3500 1141 4097 
L 1116 4097 
L 1128 3797 
Q 1159 2803 1159 2469 
L 1159 63 
L 609 63 
L 609 4634 
L 1366 4634 
L 3113 1978 
Q 3453 1447 3713 966 
L 3738 966 
Q 3694 1897 3694 2469 
L 3694 4634 
L 4244 4634 
L 4244 63 
z
" transform="scale(0.015625)"/>
      <path id="IPAexGothic-44" d="M 609 4634 
L 1984 4634 
Q 3159 4634 3791 4050 
Q 4456 3444 4456 2356 
Q 4456 1047 3516 441 
Q 2925 63 1941 63 
L 609 63 
L 609 4634 
z
M 1172 556 
L 1894 556 
Q 3853 556 3853 2356 
Q 3853 4147 1928 4147 
L 1172 4147 
L 1172 556 
z
" transform="scale(0.015625)"/>
     </defs>
     <use xlink:href="#IPAexGothic-45"/>
     <use xlink:href="#IPAexGothic-4e" x="59.521484"/>
     <use xlink:href="#IPAexGothic-44" x="135.498047"/>
    </g>
   </g>
   <g id="text_8">
    <!-- $-x$ -->
    <g transform="translate(70.2625 243.524141) scale(0.125 -0.125)">
     <use xlink:href="#DejaVuSans-2212" transform="translate(0 0.3125)"/>
     <use xlink:href="#DejaVuSans-Oblique-78" transform="translate(83.789062 0.3125)"/>
    </g>
   </g>
   <g id="text_9">
    <!-- END -->
    <g transform="translate(66.000781 304.724141) scale(0.125 -0.125)">
     <use xlink:href="#IPAexGothic-45"/>
     <use xlink:href="#IPAexGothic-4e" x="59.521484"/>
     <use xlink:href="#IPAexGothic-44" x="135.498047"/>
    </g>
   </g>
  </g>
 </g>
 <defs>
  <clipPath id="p7e5ad90820">
   <rect x="3.6" y="3.6" width="277.2" height="330.66"/>
  </clipPath>
 </defs>
</svg>