<?xml version="1.0" encoding="utf-8" standalone="no"?>
<!DOCTYPE svg PUBLIC "-//W3C//DTD SVG 1.1//EN"
  "http://www.w3.org/Graphics/SVG/1.1/DTD/svg11.dtd">
<svg xmlns:xlink="http://www.w3.org/1999/xlink" width="339.84pt" height="363.6pt" viewBox="0 0 339.84 363.6" xmlns="http://www.w3.org/2000/svg" version="1.1">
 <metadata>
  <rdf:RDF xmlns:dc="http://purl.org/dc/elements/1.1/" xmlns:cc="http://creativecommons.org/ns#" xmlns:rdf="http://www.w3.org/1999/02/22-rdf-syntax-ns#">
   <cc:Work>
    <dc:type rdf:resource="http://purl.org/dc/dcmitype/StillImage"/>
    <dc:date>2024-03-09T08:19:50.643676</dc:date>
    <dc:format>image/svg+xml</dc:format>
    <dc:creator>
     <cc:Agent>
      <dc:title>Matplotlib v3.8.3, https://matplotlib.org/</dc:title>
     </cc:Agent>
    </dc:creator>
   </cc:Work>
  </rdf:RDF>
 </metadata>
 <defs>
  <style type="text/css">*{stroke-linejoin: round; stroke-linecap: butt}</style>
 </defs>
 <g id="figure_1">
  <g id="patch_1">
   <path d="M 0 363.6 
L 339.84 363.6 
L 339.84 0 
L 0 0 
z
" style="fill: #ffffff"/>
  </g>
  <g id="axes_1">
   <g id="patch_2">
    <path d="M 150.12 55.8 
L 150.405587 55.797734 
L 150.691103 55.790938 
L 150.976474 55.779612 
L 151.261631 55.76376 
L 151.546499 55.743386 
L 151.831009 55.718495 
L 152.115088 55.689092 
L 152.398664 55.655187 
L 152.681667 55.616786 
L 152.964025 55.5739 
L 153.245667 55.52654 
L 153.526522 55.474717 
L 153.80652 55.418444 
L 154.08559 55.357736 
L 154.363661 55.292608 
L 154.640664 55.223077 
L 154.916529 55.149159 
L 155.191186 55.070874 
L 155.464567 54.98824 
L 155.736602 54.90128 
L 156.007223 54.810015 
L 156.276363 54.714467 
L 156.543952 54.614661 
L 156.809924 54.510623 
L 157.074212 54.402377 
L 157.33675 54.289952 
L 157.59747 54.173376 
L 157.856308 54.052678 
L 158.113199 53.927888 
L 158.368077 53.799038 
L 158.620879 53.666161 
L 158.871541 53.529289 
L 159.12 53.388457 
L 159.366193 53.243701 
L 159.610058 53.095058 
L 159.851535 52.942564 
L 160.090561 52.786257 
L 160.327078 52.626178 
L 160.561024 52.462367 
L 160.792343 52.294865 
L 161.020974 52.123713 
L 161.246862 51.948956 
L 161.469948 51.770636 
L 161.690177 51.5888 
L 161.907493 51.403492 
L 162.121842 51.21476 
L 162.333169 51.022651 
L 162.541422 50.827213 
L 162.746548 50.628495 
L 162.948495 50.426548 
L 163.147213 50.221422 
L 163.342651 50.013169 
L 163.53476 49.801842 
L 163.723492 49.587493 
L 163.9088 49.370177 
L 164.090636 49.149948 
L 164.268956 48.926862 
L 164.443713 48.700974 
L 164.614865 48.472343 
L 164.782367 48.241024 
L 164.946178 48.007078 
L 165.106257 47.770561 
L 165.262564 47.531535 
L 165.415058 47.290058 
L 165.563701 47.046193 
L 165.708457 46.8 
L 165.849289 46.551541 
L 165.986161 46.300879 
L 166.119038 46.048077 
L 166.247888 45.793199 
L 166.372678 45.536308 
L 166.493376 45.27747 
L 166.609952 45.01675 
L 166.722377 44.754212 
L 166.830623 44.489924 
L 166.934661 44.223952 
L 167.034467 43.956363 
L 167.130015 43.687223 
L 167.22128 43.416602 
L 167.30824 43.144567 
L 167.390874 42.871186 
L 167.469159 42.596529 
L 167.543077 42.320664 
L 167.612608 42.043661 
L 167.677736 41.76559 
L 167.738444 41.48652 
L 167.794717 41.206522 
L 167.84654 40.925667 
L 167.8939 40.644025 
L 167.936786 40.361667 
L 167.975187 40.078664 
L 168.009092 39.795088 
L 168.038495 39.511009 
L 168.063386 39.226499 
L 168.08376 38.941631 
L 168.099612 38.656474 
L 168.110938 38.371103 
L 168.117734 38.085587 
L 168.12 37.8 
L 168.12 37.8 
L 168.117734 37.514413 
L 168.110938 37.228897 
L 168.099612 36.943526 
L 168.08376 36.658369 
L 168.063386 36.373501 
L 168.038495 36.088991 
L 168.009092 35.804912 
L 167.975187 35.521336 
L 167.936786 35.238333 
L 167.8939 34.955975 
L 167.84654 34.674333 
L 167.794717 34.393478 
L 167.738444 34.11348 
L 167.677736 33.83441 
L 167.612608 33.556339 
L 167.543077 33.279336 
L 167.469159 33.003471 
L 167.390874 32.728814 
L 167.30824 32.455433 
L 167.22128 32.183398 
L 167.130015 31.912777 
L 167.034467 31.643637 
L 166.934661 31.376048 
L 166.830623 31.110076 
L 166.722377 30.845788 
L 166.609952 30.58325 
L 166.493376 30.32253 
L 166.372678 30.063692 
L 166.247888 29.806801 
L 166.119038 29.551923 
L 165.986161 29.299121 
L 165.849289 29.048459 
L 165.708457 28.8 
L 165.563701 28.553807 
L 165.415058 28.309942 
L 165.262564 28.068465 
L 165.106257 27.829439 
L 164.946178 27.592922 
L 164.782367 27.358976 
L 164.614865 27.127657 
L 164.443713 26.899026 
L 164.268956 26.673138 
L 164.090636 26.450052 
L 163.9088 26.229823 
L 163.723492 26.012507 
L 163.53476 25.798158 
L 163.342651 25.586831 
L 163.147213 25.378578 
L 162.948495 25.173452 
L 162.746548 24.971505 
L 162.541422 24.772787 
L 162.333169 24.577349 
L 162.121842 24.38524 
L 161.907493 24.196508 
L 161.690177 24.0112 
L 161.469948 23.829364 
L 161.246862 23.651044 
L 161.020974 23.476287 
L 160.792343 23.305135 
L 160.561024 23.137633 
L 160.327078 22.973822 
L 160.090561 22.813743 
L 159.851535 22.657436 
L 159.610058 22.504942 
L 159.366193 22.356299 
L 159.12 22.211543 
L 158.871541 22.070711 
L 158.620879 21.933839 
L 158.368077 21.800962 
L 158.113199 21.672112 
L 157.856308 21.547322 
L 157.59747 21.426624 
L 157.33675 21.310048 
L 157.074212 21.197623 
L 156.809924 21.089377 
L 156.543952 20.985339 
L 156.276363 20.885533 
L 156.007223 20.789985 
L 155.736602 20.69872 
L 155.464567 20.61176 
L 155.191186 20.529126 
L 154.916529 20.450841 
L 154.640664 20.376923 
L 154.363661 20.307392 
L 154.08559 20.242264 
L 153.80652 20.181556 
L 153.526522 20.125283 
L 153.245667 20.07346 
L 152.964025 20.0261 
L 152.681667 19.983214 
L 152.398664 19.944813 
L 152.115088 19.910908 
L 151.831009 19.881505 
L 151.546499 19.856614 
L 151.261631 19.83624 
L 150.976474 19.820388 
L 150.691103 19.809062 
L 150.405587 19.802266 
L 150.12 19.8 
L 114.12 19.8 
L 113.834413 19.802266 
L 113.548897 19.809062 
L 113.263526 19.820388 
L 112.978369 19.83624 
L 112.693501 19.856614 
L 112.408991 19.881505 
L 112.124912 19.910908 
L 111.841336 19.944813 
L 111.558333 19.983214 
L 111.275975 20.0261 
L 110.994333 20.07346 
L 110.713478 20.125283 
L 110.43348 20.181556 
L 110.15441 20.242264 
L 109.876339 20.307392 
L 109.599336 20.376923 
L 109.323471 20.450841 
L 109.048814 20.529126 
L 108.775433 20.61176 
L 108.503398 20.69872 
L 108.232777 20.789985 
L 107.963637 20.885533 
L 107.696048 20.985339 
L 107.430076 21.089377 
L 107.165788 21.197623 
L 106.90325 21.310048 
L 106.64253 21.426624 
L 106.383692 21.547322 
L 106.126801 21.672112 
L 105.871923 21.800962 
L 105.619121 21.933839 
L 105.368459 22.070711 
L 105.12 22.211543 
L 104.873807 22.356299 
L 104.629942 22.504942 
L 104.388465 22.657436 
L 104.149439 22.813743 
L 103.912922 22.973822 
L 103.678976 23.137633 
L 103.447657 23.305135 
L 103.219026 23.476287 
L 102.993138 23.651044 
L 102.770052 23.829364 
L 102.549823 24.0112 
L 102.332507 24.196508 
L 102.118158 24.38524 
L 101.906831 24.577349 
L 101.698578 24.772787 
L 101.493452 24.971505 
L 101.291505 25.173452 
L 101.092787 25.378578 
L 100.897349 25.586831 
L 100.70524 25.798158 
L 100.516508 26.012507 
L 100.3312 26.229823 
L 100.149364 26.450052 
L 99.971044 26.673138 
L 99.796287 26.899026 
L 99.625135 27.127657 
L 99.457633 27.358976 
L 99.293822 27.592922 
L 99.133743 27.829439 
L 98.977436 28.068465 
L 98.824942 28.309942 
L 98.676299 28.553807 
L 98.531543 28.8 
L 98.390711 29.048459 
L 98.253839 29.299121 
L 98.120962 29.551923 
L 97.992112 29.806801 
L 97.867322 30.063692 
L 97.746624 30.32253 
L 97.630048 30.58325 
L 97.517623 30.845788 
L 97.409377 31.110076 
L 97.305339 31.376048 
L 97.205533 31.643637 
L 97.109985 31.912777 
L 97.01872 32.183398 
L 96.93176 32.455433 
L 96.849126 32.728814 
L 96.770841 33.003471 
L 96.696923 33.279336 
L 96.627392 33.556339 
L 96.562264 33.83441 
L 96.501556 34.11348 
L 96.445283 34.393478 
L 96.39346 34.674333 
L 96.3461 34.955975 
L 96.303214 35.238333 
L 96.264813 35.521336 
L 96.230908 35.804912 
L 96.201505 36.088991 
L 96.176614 36.373501 
L 96.15624 36.658369 
L 96.140388 36.943526 
L 96.129062 37.228897 
L 96.122266 37.514413 
L 96.12 37.8 
L 96.12 37.8 
L 96.122266 38.085587 
L 96.129062 38.371103 
L 96.140388 38.656474 
L 96.15624 38.941631 
L 96.176614 39.226499 
L 96.201505 39.511009 
L 96.230908 39.795088 
L 96.264813 40.078664 
L 96.303214 40.361667 
L 96.3461 40.644025 
L 96.39346 40.925667 
L 96.445283 41.206522 
L 96.501556 41.48652 
L 96.562264 41.76559 
L 96.627392 42.043661 
L 96.696923 42.320664 
L 96.770841 42.596529 
L 96.849126 42.871186 
L 96.93176 43.144567 
L 97.01872 43.416602 
L 97.109985 43.687223 
L 97.205533 43.956363 
L 97.305339 44.223952 
L 97.409377 44.489924 
L 97.517623 44.754212 
L 97.630048 45.01675 
L 97.746624 45.27747 
L 97.867322 45.536308 
L 97.992112 45.793199 
L 98.120962 46.048077 
L 98.253839 46.300879 
L 98.390711 46.551541 
L 98.531543 46.8 
L 98.676299 47.046193 
L 98.824942 47.290058 
L 98.977436 47.531535 
L 99.133743 47.770561 
L 99.293822 48.007078 
L 99.457633 48.241024 
L 99.625135 48.472343 
L 99.796287 48.700974 
L 99.971044 48.926862 
L 100.149364 49.149948 
L 100.3312 49.370177 
L 100.516508 49.587493 
L 100.70524 49.801842 
L 100.897349 50.013169 
L 101.092787 50.221422 
L 101.291505 50.426548 
L 101.493452 50.628495 
L 101.698578 50.827213 
L 101.906831 51.022651 
L 102.118158 51.21476 
L 102.332507 51.403492 
L 102.549823 51.5888 
L 102.770052 51.770636 
L 102.993138 51.948956 
L 103.219026 52.123713 
L 103.447657 52.294865 
L 103.678976 52.462367 
L 103.912922 52.626178 
L 104.149439 52.786257 
L 104.388465 52.942564 
L 104.629942 53.095058 
L 104.873807 53.243701 
L 105.12 53.388457 
L 105.368459 53.529289 
L 105.619121 53.666161 
L 105.871923 53.799038 
L 106.126801 53.927888 
L 106.383692 54.052678 
L 106.64253 54.173376 
L 106.90325 54.289952 
L 107.165788 54.402377 
L 107.430076 54.510623 
L 107.696048 54.614661 
L 107.963637 54.714467 
L 108.232777 54.810015 
L 108.503398 54.90128 
L 108.775433 54.98824 
L 109.048814 55.070874 
L 109.323471 55.149159 
L 109.599336 55.223077 
L 109.876339 55.292608 
L 110.15441 55.357736 
L 110.43348 55.418444 
L 110.713478 55.474717 
L 110.994333 55.52654 
L 111.275975 55.5739 
L 111.558333 55.616786 
L 111.841336 55.655187 
L 112.124912 55.689092 
L 112.408991 55.718495 
L 112.693501 55.743386 
L 112.978369 55.76376 
L 113.263526 55.779612 
L 113.548897 55.790938 
L 113.834413 55.797734 
L 114.12 55.8 
L 150.12 55.8 
z
" clip-path="url(#pdafa84a24f)" style="fill: none; stroke: #000000; stroke-linecap: round"/>
   </g>
   <g id="patch_3">
    <path d="M 69.12 172.8 
L 132.12 145.8 
L 195.12 172.8 
L 132.12 199.8 
L 69.12 172.8 
z
" clip-path="url(#pdafa84a24f)" style="fill: none; stroke: #000000; stroke-linecap: round"/>
   </g>
   <g id="patch_4">
    <path d="M 303.12 190.8 
L 303.405587 190.797734 
L 303.691103 190.790938 
L 303.976474 190.779612 
L 304.261631 190.76376 
L 304.546499 190.743386 
L 304.831009 190.718495 
L 305.115088 190.689092 
L 305.398664 190.655187 
L 305.681667 190.616786 
L 305.964025 190.5739 
L 306.245667 190.52654 
L 306.526522 190.474717 
L 306.80652 190.418444 
L 307.08559 190.357736 
L 307.363661 190.292608 
L 307.640664 190.223077 
L 307.916529 190.149159 
L 308.191186 190.070874 
L 308.464567 189.98824 
L 308.736602 189.90128 
L 309.007223 189.810015 
L 309.276363 189.714467 
L 309.543952 189.614661 
L 309.809924 189.510623 
L 310.074212 189.402377 
L 310.33675 189.289952 
L 310.59747 189.173376 
L 310.856308 189.052678 
L 311.113199 188.927888 
L 311.368077 188.799038 
L 311.620879 188.666161 
L 311.871541 188.529289 
L 312.12 188.388457 
L 312.366193 188.243701 
L 312.610058 188.095058 
L 312.851535 187.942564 
L 313.090561 187.786257 
L 313.327078 187.626178 
L 313.561024 187.462367 
L 313.792343 187.294865 
L 314.020974 187.123713 
L 314.246862 186.948956 
L 314.469948 186.770636 
L 314.690177 186.5888 
L 314.907493 186.403492 
L 315.121842 186.21476 
L 315.333169 186.022651 
L 315.541422 185.827213 
L 315.746548 185.628495 
L 315.948495 185.426548 
L 316.147213 185.221422 
L 316.342651 185.013169 
L 316.53476 184.801842 
L 316.723492 184.587493 
L 316.9088 184.370177 
L 317.090636 184.149948 
L 317.268956 183.926862 
L 317.443713 183.700974 
L 317.614865 183.472343 
L 317.782367 183.241024 
L 317.946178 183.007078 
L 318.106257 182.770561 
L 318.262564 182.531535 
L 318.415058 182.290058 
L 318.563701 182.046193 
L 318.708457 181.8 
L 318.849289 181.551541 
L 318.986161 181.300879 
L 319.119038 181.048077 
L 319.247888 180.793199 
L 319.372678 180.536308 
L 319.493376 180.27747 
L 319.609952 180.01675 
L 319.722377 179.754212 
L 319.830623 179.489924 
L 319.934661 179.223952 
L 320.034467 178.956363 
L 320.130015 178.687223 
L 320.22128 178.416602 
L 320.30824 178.144567 
L 320.390874 177.871186 
L 320.469159 177.596529 
L 320.543077 177.320664 
L 320.612608 177.043661 
L 320.677736 176.76559 
L 320.738444 176.48652 
L 320.794717 176.206522 
L 320.84654 175.925667 
L 320.8939 175.644025 
L 320.936786 175.361667 
L 320.975187 175.078664 
L 321.009092 174.795088 
L 321.038495 174.511009 
L 321.063386 174.226499 
L 321.08376 173.941631 
L 321.099612 173.656474 
L 321.110938 173.371103 
L 321.117734 173.085587 
L 321.12 172.8 
L 321.12 172.8 
L 321.117734 172.514413 
L 321.110938 172.228897 
L 321.099612 171.943526 
L 321.08376 171.658369 
L 321.063386 171.373501 
L 321.038495 171.088991 
L 321.009092 170.804912 
L 320.975187 170.521336 
L 320.936786 170.238333 
L 320.8939 169.955975 
L 320.84654 169.674333 
L 320.794717 169.393478 
L 320.738444 169.11348 
L 320.677736 168.83441 
L 320.612608 168.556339 
L 320.543077 168.279336 
L 320.469159 168.003471 
L 320.390874 167.728814 
L 320.30824 167.455433 
L 320.22128 167.183398 
L 320.130015 166.912777 
L 320.034467 166.643637 
L 319.934661 166.376048 
L 319.830623 166.110076 
L 319.722377 165.845788 
L 319.609952 165.58325 
L 319.493376 165.32253 
L 319.372678 165.063692 
L 319.247888 164.806801 
L 319.119038 164.551923 
L 318.986161 164.299121 
L 318.849289 164.048459 
L 318.708457 163.8 
L 318.563701 163.553807 
L 318.415058 163.309942 
L 318.262564 163.068465 
L 318.106257 162.829439 
L 317.946178 162.592922 
L 317.782367 162.358976 
L 317.614865 162.127657 
L 317.443713 161.899026 
L 317.268956 161.673138 
L 317.090636 161.450052 
L 316.9088 161.229823 
L 316.723492 161.012507 
L 316.53476 160.798158 
L 316.342651 160.586831 
L 316.147213 160.378578 
L 315.948495 160.173452 
L 315.746548 159.971505 
L 315.541422 159.772787 
L 315.333169 159.577349 
L 315.121842 159.38524 
L 314.907493 159.196508 
L 314.690177 159.0112 
L 314.469948 158.829364 
L 314.246862 158.651044 
L 314.020974 158.476287 
L 313.792343 158.305135 
L 313.561024 158.137633 
L 313.327078 157.973822 
L 313.090561 157.813743 
L 312.851535 157.657436 
L 312.610058 157.504942 
L 312.366193 157.356299 
L 312.12 157.211543 
L 311.871541 157.070711 
L 311.620879 156.933839 
L 311.368077 156.800962 
L 311.113199 156.672112 
L 310.856308 156.547322 
L 310.59747 156.426624 
L 310.33675 156.310048 
L 310.074212 156.197623 
L 309.809924 156.089377 
L 309.543952 155.985339 
L 309.276363 155.885533 
L 309.007223 155.789985 
L 308.736602 155.69872 
L 308.464567 155.61176 
L 308.191186 155.529126 
L 307.916529 155.450841 
L 307.640664 155.376923 
L 307.363661 155.307392 
L 307.08559 155.242264 
L 306.80652 155.181556 
L 306.526522 155.125283 
L 306.245667 155.07346 
L 305.964025 155.0261 
L 305.681667 154.983214 
L 305.398664 154.944813 
L 305.115088 154.910908 
L 304.831009 154.881505 
L 304.546499 154.856614 
L 304.261631 154.83624 
L 303.976474 154.820388 
L 303.691103 154.809062 
L 303.405587 154.802266 
L 303.12 154.8 
L 267.12 154.8 
L 266.834413 154.802266 
L 266.548897 154.809062 
L 266.263526 154.820388 
L 265.978369 154.83624 
L 265.693501 154.856614 
L 265.408991 154.881505 
L 265.124912 154.910908 
L 264.841336 154.944813 
L 264.558333 154.983214 
L 264.275975 155.0261 
L 263.994333 155.07346 
L 263.713478 155.125283 
L 263.43348 155.181556 
L 263.15441 155.242264 
L 262.876339 155.307392 
L 262.599336 155.376923 
L 262.323471 155.450841 
L 262.048814 155.529126 
L 261.775433 155.61176 
L 261.503398 155.69872 
L 261.232777 155.789985 
L 260.963637 155.885533 
L 260.696048 155.985339 
L 260.430076 156.089377 
L 260.165788 156.197623 
L 259.90325 156.310048 
L 259.64253 156.426624 
L 259.383692 156.547322 
L 259.126801 156.672112 
L 258.871923 156.800962 
L 258.619121 156.933839 
L 258.368459 157.070711 
L 258.12 157.211543 
L 257.873807 157.356299 
L 257.629942 157.504942 
L 257.388465 157.657436 
L 257.149439 157.813743 
L 256.912922 157.973822 
L 256.678976 158.137633 
L 256.447657 158.305135 
L 256.219026 158.476287 
L 255.993138 158.651044 
L 255.770052 158.829364 
L 255.549823 159.0112 
L 255.332507 159.196508 
L 255.118158 159.38524 
L 254.906831 159.577349 
L 254.698578 159.772787 
L 254.493452 159.971505 
L 254.291505 160.173452 
L 254.092787 160.378578 
L 253.897349 160.586831 
L 253.70524 160.798158 
L 253.516508 161.012507 
L 253.3312 161.229823 
L 253.149364 161.450052 
L 252.971044 161.673138 
L 252.796287 161.899026 
L 252.625135 162.127657 
L 252.457633 162.358976 
L 252.293822 162.592922 
L 252.133743 162.829439 
L 251.977436 163.068465 
L 251.824942 163.309942 
L 251.676299 163.553807 
L 251.531543 163.8 
L 251.390711 164.048459 
L 251.253839 164.299121 
L 251.120962 164.551923 
L 250.992112 164.806801 
L 250.867322 165.063692 
L 250.746624 165.32253 
L 250.630048 165.58325 
L 250.517623 165.845788 
L 250.409377 166.110076 
L 250.305339 166.376048 
L 250.205533 166.643637 
L 250.109985 166.912777 
L 250.01872 167.183398 
L 249.93176 167.455433 
L 249.849126 167.728814 
L 249.770841 168.003471 
L 249.696923 168.279336 
L 249.627392 168.556339 
L 249.562264 168.83441 
L 249.501556 169.11348 
L 249.445283 169.393478 
L 249.39346 169.674333 
L 249.3461 169.955975 
L 249.303214 170.238333 
L 249.264813 170.521336 
L 249.230908 170.804912 
L 249.201505 171.088991 
L 249.176614 171.373501 
L 249.15624 171.658369 
L 249.140388 171.943526 
L 249.129062 172.228897 
L 249.122266 172.514413 
L 249.12 172.8 
L 249.12 172.8 
L 249.122266 173.085587 
L 249.129062 173.371103 
L 249.140388 173.656474 
L 249.15624 173.941631 
L 249.176614 174.226499 
L 249.201505 174.511009 
L 249.230908 174.795088 
L 249.264813 175.078664 
L 249.303214 175.361667 
L 249.3461 175.644025 
L 249.39346 175.925667 
L 249.445283 176.206522 
L 249.501556 176.48652 
L 249.562264 176.76559 
L 249.627392 177.043661 
L 249.696923 177.320664 
L 249.770841 177.596529 
L 249.849126 177.871186 
L 249.93176 178.144567 
L 250.01872 178.416602 
L 250.109985 178.687223 
L 250.205533 178.956363 
L 250.305339 179.223952 
L 250.409377 179.489924 
L 250.517623 179.754212 
L 250.630048 180.01675 
L 250.746624 180.27747 
L 250.867322 180.536308 
L 250.992112 180.793199 
L 251.120962 181.048077 
L 251.253839 181.300879 
L 251.390711 181.551541 
L 251.531543 181.8 
L 251.676299 182.046193 
L 251.824942 182.290058 
L 251.977436 182.531535 
L 252.133743 182.770561 
L 252.293822 183.007078 
L 252.457633 183.241024 
L 252.625135 183.472343 
L 252.796287 183.700974 
L 252.971044 183.926862 
L 253.149364 184.149948 
L 253.3312 184.370177 
L 253.516508 184.587493 
L 253.70524 184.801842 
L 253.897349 185.013169 
L 254.092787 185.221422 
L 254.291505 185.426548 
L 254.493452 185.628495 
L 254.698578 185.827213 
L 254.906831 186.022651 
L 255.118158 186.21476 
L 255.332507 186.403492 
L 255.549823 186.5888 
L 255.770052 186.770636 
L 255.993138 186.948956 
L 256.219026 187.123713 
L 256.447657 187.294865 
L 256.678976 187.462367 
L 256.912922 187.626178 
L 257.149439 187.786257 
L 257.388465 187.942564 
L 257.629942 188.095058 
L 257.873807 188.243701 
L 258.12 188.388457 
L 258.368459 188.529289 
L 258.619121 188.666161 
L 258.871923 188.799038 
L 259.126801 188.927888 
L 259.383692 189.052678 
L 259.64253 189.173376 
L 259.90325 189.289952 
L 260.165788 189.402377 
L 260.430076 189.510623 
L 260.696048 189.614661 
L 260.963637 189.714467 
L 261.232777 189.810015 
L 261.503398 189.90128 
L 261.775433 189.98824 
L 262.048814 190.070874 
L 262.323471 190.149159 
L 262.599336 190.223077 
L 262.876339 190.292608 
L 263.15441 190.357736 
L 263.43348 190.418444 
L 263.713478 190.474717 
L 263.994333 190.52654 
L 264.275975 190.5739 
L 264.558333 190.616786 
L 264.841336 190.655187 
L 265.124912 190.689092 
L 265.408991 190.718495 
L 265.693501 190.743386 
L 265.978369 190.76376 
L 266.263526 190.779612 
L 266.548897 190.790938 
L 266.834413 190.797734 
L 267.12 190.8 
L 303.12 190.8 
z
" clip-path="url(#pdafa84a24f)" style="fill: none; stroke: #000000; stroke-linecap: round"/>
   </g>
   <g id="line2d_1">
    <path d="M 132.12 55.8 
L 132.12 69.3 
L 132.12 73.8 
" clip-path="url(#pdafa84a24f)" style="fill: none; stroke: #000000; stroke-linecap: round"/>
   </g>
   <g id="patch_5">
    <path d="M 134.82 73.8 
L 132.12 82.8 
L 129.42 73.8 
z
" clip-path="url(#pdafa84a24f)"/>
   </g>
   <g id="line2d_2">
    <path d="M 92.52 100.8 
L 92.52 82.8 
L 171.72 82.8 
L 171.72 118.8 
L 92.52 118.8 
L 92.52 100.8 
" clip-path="url(#pdafa84a24f)" style="fill: none; stroke: #000000; stroke-linecap: round"/>
   </g>
   <g id="line2d_3">
    <path d="M 132.12 118.8 
L 132.12 132.3 
L 132.12 136.8 
" clip-path="url(#pdafa84a24f)" style="fill: none; stroke: #000000; stroke-linecap: round"/>
   </g>
   <g id="patch_6">
    <path d="M 134.82 136.8 
L 132.12 145.8 
L 129.42 136.8 
z
" clip-path="url(#pdafa84a24f)"/>
   </g>
   <g id="line2d_4">
    <path d="M 195.12 172.8 
L 222.12 172.8 
L 240.12 172.8 
" clip-path="url(#pdafa84a24f)" style="fill: none; stroke: #000000; stroke-linecap: round"/>
   </g>
   <g id="patch_7">
    <path d="M 240.12 170.1 
L 249.12 172.8 
L 240.12 175.5 
z
" clip-path="url(#pdafa84a24f)"/>
   </g>
   <g id="line2d_5">
    <path d="M 132.12 199.8 
L 132.12 217.8 
L 132.12 226.8 
" clip-path="url(#pdafa84a24f)" style="fill: none; stroke: #000000; stroke-linecap: round"/>
   </g>
   <g id="patch_8">
    <path d="M 134.82 226.8 
L 132.12 235.8 
L 129.42 226.8 
z
" clip-path="url(#pdafa84a24f)"/>
   </g>
   <g id="line2d_6">
    <path d="M 78.12 253.8 
L 78.12 235.8 
L 186.12 235.8 
L 186.12 271.8 
L 78.12 271.8 
L 78.12 253.8 
" clip-path="url(#pdafa84a24f)" style="fill: none; stroke: #000000; stroke-linecap: round"/>
   </g>
   <g id="line2d_7">
    <path d="M 132.12 271.8 
L 132.12 289.8 
L 132.12 298.8 
" clip-path="url(#pdafa84a24f)" style="fill: none; stroke: #000000; stroke-linecap: round"/>
   </g>
   <g id="patch_9">
    <path d="M 134.82 298.8 
L 132.12 307.8 
L 129.42 298.8 
z
" clip-path="url(#pdafa84a24f)"/>
   </g>
   <g id="line2d_8">
    <path d="M 72.72 325.8 
L 72.72 307.8 
L 191.52 307.8 
L 191.52 343.8 
L 72.72 343.8 
L 72.72 325.8 
" clip-path="url(#pdafa84a24f)" style="fill: none; stroke: #000000; stroke-linecap: round"/>
   </g>
   <g id="line2d_9">
    <path d="M 72.72 325.8 
L 18.72 325.8 
L 18.72 172.8 
L 60.12 172.8 
" clip-path="url(#pdafa84a24f)" style="fill: none; stroke: #000000; stroke-linecap: round"/>
   </g>
   <g id="patch_10">
    <path d="M 60.12 170.1 
L 69.12 172.8 
L 60.12 175.5 
z
" clip-path="url(#pdafa84a24f)"/>
   </g>
   <g id="text_1">
    <!-- START -->
    <g transform="translate(112.943242 41.294141) scale(0.125 -0.125)">
     <defs>
      <path id="IPAexGothic-53" d="M 2919 3641 
Q 2563 4259 1853 4259 
Q 1453 4259 1213 4009 
Q 1028 3803 1028 3534 
Q 1028 3238 1266 3047 
Q 1444 2913 1984 2688 
L 2200 2597 
Q 2925 2306 3191 1953 
Q 3422 1644 3422 1259 
Q 3422 644 2969 288 
Q 2559 -31 1931 -31 
Q 881 -31 313 766 
L 753 1100 
Q 1203 459 1938 459 
Q 2288 459 2534 625 
Q 2841 847 2841 1216 
Q 2841 1503 2616 1728 
Q 2375 1959 1728 2206 
L 1541 2278 
Q 453 2694 453 3481 
Q 453 4006 806 4347 
Q 1203 4725 1863 4725 
Q 2841 4725 3359 3956 
L 2919 3641 
z
" transform="scale(0.015625)"/>
      <path id="IPAexGothic-54" d="M 3866 4141 
L 2175 4141 
L 2175 63 
L 1606 63 
L 1606 4141 
L -31 4141 
L -31 4634 
L 3866 4634 
L 3866 4141 
z
" transform="scale(0.015625)"/>
      <path id="IPAexGothic-41" d="M 4056 63 
L 3444 63 
L 2938 1409 
L 1100 1409 
L 603 63 
L -6 63 
L 1806 4666 
L 2259 4666 
L 4056 63 
z
M 2778 1863 
L 2316 3078 
Q 2125 3588 2028 4000 
L 2009 4000 
Q 1897 3563 1716 3078 
L 1263 1863 
L 2778 1863 
z
" transform="scale(0.015625)"/>
      <path id="IPAexGothic-52" d="M 4072 63 
L 3394 63 
Q 3138 641 2828 1197 
Q 2584 1641 2344 1825 
Q 2050 2044 1625 2044 
L 1172 2044 
L 1172 63 
L 609 63 
L 609 4634 
L 2009 4634 
Q 2713 4634 3131 4378 
Q 3688 4044 3688 3381 
Q 3688 2784 3181 2459 
Q 2906 2272 2522 2216 
L 2522 2197 
Q 2941 2050 3247 1581 
Q 3516 1166 4072 63 
z
M 1172 2478 
L 1869 2478 
Q 3106 2478 3106 3369 
Q 3106 4181 1928 4181 
L 1172 4181 
L 1172 2478 
z
" transform="scale(0.015625)"/>
     </defs>
     <use xlink:href="#IPAexGothic-53"/>
     <use xlink:href="#IPAexGothic-54" x="58.496094"/>
     <use xlink:href="#IPAexGothic-41" x="118.408203"/>
     <use xlink:href="#IPAexGothic-52" x="182.128906"/>
     <use xlink:href="#IPAexGothic-54" x="246.923828"/>
    </g>
   </g>
   <g id="text_2">
    <!-- counter = 0 -->
    <g transform="translate(97.81043 104.294141) scale(0.125 -0.125)">
     <defs>
      <path id="IPAexGothic-63" d="M 3269 784 
Q 2834 -31 1900 -31 
Q 1228 -31 788 409 
Q 313 891 313 1663 
Q 313 2428 788 2913 
Q 1222 3347 1881 3347 
Q 2813 3347 3206 2541 
L 2763 2309 
Q 2484 2900 1900 2900 
Q 1516 2900 1234 2619 
Q 881 2266 881 1650 
Q 881 1069 1222 728 
Q 1522 428 1956 428 
Q 2547 428 2847 1016 
L 3269 784 
z
" transform="scale(0.015625)"/>
      <path id="IPAexGothic-6f" d="M 1919 3341 
Q 2594 3341 3056 2888 
Q 3531 2413 3531 1638 
Q 3531 888 3066 422 
Q 2609 -31 1919 -31 
Q 1228 -31 781 416 
Q 313 881 313 1656 
Q 313 2413 788 2888 
Q 1241 3341 1919 3341 
z
M 1919 2919 
Q 1519 2919 1241 2631 
Q 888 2278 888 1650 
Q 888 1031 1234 684 
Q 1516 403 1919 403 
Q 2331 403 2609 691 
Q 2956 1038 2956 1672 
Q 2956 2269 2603 2631 
Q 2316 2919 1919 2919 
z
" transform="scale(0.015625)"/>
      <path id="IPAexGothic-75" d="M 3284 63 
L 2772 63 
L 2772 644 
Q 2300 0 1625 0 
Q 1072 0 763 375 
Q 519 678 519 1241 
L 519 3250 
L 1069 3250 
L 1069 1259 
Q 1069 466 1734 466 
Q 2406 466 2734 1291 
L 2734 3250 
L 3284 3250 
L 3284 63 
z
" transform="scale(0.015625)"/>
      <path id="IPAexGothic-6e" d="M 3328 63 
L 2778 63 
L 2778 2041 
Q 2778 2853 2106 2853 
Q 1428 2853 1113 2041 
L 1113 63 
L 563 63 
L 563 3250 
L 1075 3250 
L 1075 2675 
Q 1525 3316 2222 3316 
Q 3328 3316 3328 2072 
L 3328 63 
z
" transform="scale(0.015625)"/>
      <path id="IPAexGothic-74" d="M 2125 241 
Q 1769 -6 1397 -6 
Q 653 -6 653 831 
L 653 2859 
L 219 2859 
L 219 3250 
L 653 3250 
L 653 3966 
L 1178 4228 
L 1178 3250 
L 2063 3250 
L 2063 2859 
L 1178 2859 
L 1178 906 
Q 1178 416 1513 416 
Q 1738 416 1941 588 
L 2125 241 
z
" transform="scale(0.015625)"/>
      <path id="IPAexGothic-65" d="M 863 1594 
Q 891 1041 1209 722 
Q 1534 397 1997 397 
Q 2606 397 2963 966 
L 3322 728 
Q 2869 -31 1931 -31 
Q 1222 -31 766 422 
Q 306 884 306 1641 
Q 306 2444 788 2925 
Q 1216 3353 1856 3353 
Q 2459 3353 2866 2956 
Q 3322 2494 3322 1722 
L 3322 1594 
L 863 1594 
z
M 2756 1997 
Q 2709 2431 2450 2681 
Q 2194 2938 1844 2938 
Q 1438 2938 1150 2591 
Q 953 2356 894 1997 
L 2756 1997 
z
" transform="scale(0.015625)"/>
      <path id="IPAexGothic-72" d="M 2309 3316 
L 2213 2769 
Q 2106 2791 2022 2791 
Q 1653 2791 1413 2444 
Q 1113 2006 1113 1675 
L 1113 63 
L 563 63 
L 563 3250 
L 1081 3250 
L 1056 2303 
L 1069 2303 
Q 1422 3341 2097 3341 
Q 2206 3341 2309 3316 
z
" transform="scale(0.015625)"/>
      <path id="IPAexGothic-20" transform="scale(0.015625)"/>
      <path id="IPAexGothic-3d" d="M 416 2803 
L 3922 2803 
L 3922 2438 
L 416 2438 
L 416 2803 
z
M 416 1625 
L 3922 1625 
L 3922 1259 
L 416 1259 
L 416 1625 
z
" transform="scale(0.015625)"/>
      <path id="IPAexGothic-30" d="M 2038 4725 
Q 2881 4725 3334 3944 
Q 3694 3325 3694 2344 
Q 3694 1372 3334 741 
Q 2888 -31 2016 -31 
Q 1147 -31 700 741 
Q 341 1372 341 2350 
Q 341 3713 1000 4334 
Q 1419 4725 2038 4725 
z
M 2016 4266 
Q 1516 4266 1228 3759 
Q 934 3247 934 2344 
Q 934 1456 1222 947 
Q 1513 447 2016 447 
Q 2619 447 2909 1153 
Q 3100 1622 3100 2375 
Q 3100 3256 2806 3759 
Q 2509 4266 2016 4266 
z
" transform="scale(0.015625)"/>
     </defs>
     <use xlink:href="#IPAexGothic-63"/>
     <use xlink:href="#IPAexGothic-6f" x="54.394531"/>
     <use xlink:href="#IPAexGothic-75" x="114.794922"/>
     <use xlink:href="#IPAexGothic-6e" x="175.195312"/>
     <use xlink:href="#IPAexGothic-74" x="235.595703"/>
     <use xlink:href="#IPAexGothic-65" x="270.214844"/>
     <use xlink:href="#IPAexGothic-72" x="327.099609"/>
     <use xlink:href="#IPAexGothic-20" x="364.111328"/>
     <use xlink:href="#IPAexGothic-3d" x="391.113281"/>
     <use xlink:href="#IPAexGothic-20" x="458.935547"/>
     <use xlink:href="#IPAexGothic-30" x="485.9375"/>
    </g>
   </g>
   <g id="text_3">
    <!-- True -->
    <g transform="translate(136.8 213.843281) scale(0.125 -0.125)">
     <use xlink:href="#IPAexGothic-54"/>
     <use xlink:href="#IPAexGothic-72" x="59.912109"/>
     <use xlink:href="#IPAexGothic-75" x="96.923828"/>
     <use xlink:href="#IPAexGothic-65" x="157.324219"/>
    </g>
   </g>
   <g id="text_4">
    <!-- False -->
    <g transform="translate(199.8 165.745) scale(0.125 -0.125)">
     <defs>
      <path id="IPAexGothic-46" d="M 3469 4141 
L 1172 4141 
L 1172 2656 
L 3206 2656 
L 3206 2188 
L 1172 2188 
L 1172 63 
L 609 63 
L 609 4634 
L 3469 4634 
L 3469 4141 
z
" transform="scale(0.015625)"/>
      <path id="IPAexGothic-61" d="M 3156 63 
L 2672 63 
Q 2559 303 2531 556 
L 2509 556 
Q 2147 -25 1428 -25 
Q 934 -25 622 288 
Q 347 563 347 959 
Q 347 1947 2050 1997 
L 2478 2009 
L 2478 2175 
Q 2478 2509 2288 2700 
Q 2088 2900 1775 2900 
Q 1238 2900 969 2378 
L 494 2597 
Q 938 3328 1788 3328 
Q 2375 3328 2691 3000 
Q 2984 2706 2984 2169 
L 2984 997 
Q 2984 400 3156 63 
z
M 2491 1625 
L 2141 1619 
Q 903 1591 903 953 
Q 903 728 1050 581 
Q 1231 403 1525 403 
Q 1934 403 2234 703 
Q 2491 969 2491 1344 
L 2491 1625 
z
" transform="scale(0.015625)"/>
      <path id="IPAexGothic-6c" d="M 1131 63 
L 581 63 
L 581 4794 
L 1131 4794 
L 1131 63 
z
" transform="scale(0.015625)"/>
      <path id="IPAexGothic-73" d="M 2234 2547 
Q 1938 2931 1484 2931 
Q 891 2931 891 2475 
Q 891 2153 1531 1944 
L 1741 1875 
Q 2650 1578 2650 894 
Q 2650 434 2272 172 
Q 1972 -31 1497 -31 
Q 766 -31 256 503 
L 603 819 
Q 997 397 1516 397 
Q 2131 397 2131 875 
Q 2131 1238 1453 1478 
L 1234 1553 
Q 378 1853 378 2431 
Q 378 2797 628 3047 
Q 928 3347 1453 3347 
Q 2156 3347 2606 2859 
L 2234 2547 
z
" transform="scale(0.015625)"/>
     </defs>
     <use xlink:href="#IPAexGothic-46"/>
     <use xlink:href="#IPAexGothic-61" x="57.177734"/>
     <use xlink:href="#IPAexGothic-6c" x="112.158203"/>
     <use xlink:href="#IPAexGothic-73" x="139.160156"/>
     <use xlink:href="#IPAexGothic-65" x="185.351562"/>
    </g>
   </g>
   <g id="text_5">
    <!-- counter &lt; 3 ？ -->
    <g transform="translate(89.87293 176.294141) scale(0.125 -0.125)">
     <defs>
      <path id="IPAexGothic-3c" d="M 897 2028 
L 3928 609 
L 3769 263 
L 409 1881 
L 409 2175 
L 3769 3794 
L 3928 3450 
L 897 2028 
z
" transform="scale(0.015625)"/>
      <path id="IPAexGothic-33" d="M 2381 2419 
Q 3506 2216 3506 1278 
Q 3506 716 3128 356 
Q 2709 -31 1944 -31 
Q 797 -31 288 881 
L 756 1131 
Q 1109 441 1938 441 
Q 2425 441 2694 691 
Q 2950 928 2950 1291 
Q 2950 1719 2566 1978 
Q 2216 2213 1644 2213 
L 1363 2213 
L 1363 2669 
L 1656 2669 
Q 2231 2669 2534 2888 
Q 2859 3119 2859 3509 
Q 2859 3934 2494 4138 
Q 2259 4278 1931 4278 
Q 1238 4278 903 3578 
L 434 3803 
Q 897 4725 1938 4725 
Q 2597 4725 3006 4394 
Q 3416 4069 3416 3534 
Q 3416 3028 3019 2706 
Q 2763 2500 2381 2444 
L 2381 2419 
z
" transform="scale(0.015625)"/>
      <path id="IPAexGothic-ff1f" d="M 1503 3444 
Q 1550 4184 1963 4616 
Q 2466 5128 3272 5128 
Q 3888 5128 4313 4853 
Q 4909 4469 4909 3778 
Q 4909 3059 4116 2563 
Q 3628 2250 3506 1881 
Q 3422 1650 3422 1228 
L 2853 1228 
Q 2863 1869 3053 2197 
Q 3281 2588 3847 2950 
Q 4341 3269 4341 3778 
Q 4341 4231 3975 4463 
Q 3697 4634 3266 4634 
Q 2656 4634 2341 4225 
Q 2109 3928 2091 3444 
L 1503 3444 
z
M 2763 647 
L 3506 647 
L 3506 -97 
L 2763 -97 
L 2763 647 
z
" transform="scale(0.015625)"/>
     </defs>
     <use xlink:href="#IPAexGothic-63"/>
     <use xlink:href="#IPAexGothic-6f" x="54.394531"/>
     <use xlink:href="#IPAexGothic-75" x="114.794922"/>
     <use xlink:href="#IPAexGothic-6e" x="175.195312"/>
     <use xlink:href="#IPAexGothic-74" x="235.595703"/>
     <use xlink:href="#IPAexGothic-65" x="270.214844"/>
     <use xlink:href="#IPAexGothic-72" x="327.099609"/>
     <use xlink:href="#IPAexGothic-20" x="364.111328"/>
     <use xlink:href="#IPAexGothic-3c" x="391.113281"/>
     <use xlink:href="#IPAexGothic-20" x="458.935547"/>
     <use xlink:href="#IPAexGothic-33" x="485.9375"/>
     <use xlink:href="#IPAexGothic-20" x="548.925781"/>
     <use xlink:href="#IPAexGothic-ff1f" x="575.927734"/>
    </g>
   </g>
   <g id="text_6">
    <!-- END -->
    <g transform="translate(271.920781 176.294141) scale(0.125 -0.125)">
     <defs>
      <path id="IPAexGothic-45" d="M 3547 63 
L 609 63 
L 609 4634 
L 3469 4634 
L 3469 4147 
L 1166 4147 
L 1166 2650 
L 3206 2650 
L 3206 2191 
L 1166 2191 
L 1166 556 
L 3547 556 
L 3547 63 
z
" transform="scale(0.015625)"/>
      <path id="IPAexGothic-4e" d="M 4244 63 
L 3731 63 
L 1697 3150 
Q 1466 3500 1141 4097 
L 1116 4097 
L 1128 3797 
Q 1159 2803 1159 2469 
L 1159 63 
L 609 63 
L 609 4634 
L 1366 4634 
L 3113 1978 
Q 3453 1447 3713 966 
L 3738 966 
Q 3694 1897 3694 2469 
L 3694 4634 
L 4244 4634 
L 4244 63 
z
" transform="scale(0.015625)"/>
      <path id="IPAexGothic-44" d="M 609 4634 
L 1984 4634 
Q 3159 4634 3791 4050 
Q 4456 3444 4456 2356 
Q 4456 1047 3516 441 
Q 2925 63 1941 63 
L 609 63 
L 609 4634 
z
M 1172 556 
L 1894 556 
Q 3853 556 3853 2356 
Q 3853 4147 1928 4147 
L 1172 4147 
L 1172 556 
z
" transform="scale(0.015625)"/>
     </defs>
     <use xlink:href="#IPAexGothic-45"/>
     <use xlink:href="#IPAexGothic-4e" x="59.521484"/>
     <use xlink:href="#IPAexGothic-44" x="135.498047"/>
    </g>
   </g>
   <g id="text_7">
    <!-- counter += 1 -->
    <g transform="translate(93.571172 257.294141) scale(0.125 -0.125)">
     <defs>
      <path id="IPAexGothic-2b" d="M 2369 1856 
L 2369 219 
L 1984 219 
L 1984 1856 
L 416 1856 
L 416 2216 
L 1984 2216 
L 1984 3725 
L 2369 3725 
L 2369 2216 
L 3922 2216 
L 3922 1856 
L 2369 1856 
z
" transform="scale(0.015625)"/>
      <path id="IPAexGothic-31" d="M 2463 63 
L 1900 63 
L 1900 4103 
Q 1372 3922 788 3797 
L 684 4231 
Q 1519 4441 2106 4731 
L 2463 4731 
L 2463 63 
z
" transform="scale(0.015625)"/>
     </defs>
     <use xlink:href="#IPAexGothic-63"/>
     <use xlink:href="#IPAexGothic-6f" x="54.394531"/>
     <use xlink:href="#IPAexGothic-75" x="114.794922"/>
     <use xlink:href="#IPAexGothic-6e" x="175.195312"/>
     <use xlink:href="#IPAexGothic-74" x="235.595703"/>
     <use xlink:href="#IPAexGothic-65" x="270.214844"/>
     <use xlink:href="#IPAexGothic-72" x="327.099609"/>
     <use xlink:href="#IPAexGothic-20" x="364.111328"/>
     <use xlink:href="#IPAexGothic-2b" x="391.113281"/>
     <use xlink:href="#IPAexGothic-3d" x="458.935547"/>
     <use xlink:href="#IPAexGothic-20" x="526.757812"/>
     <use xlink:href="#IPAexGothic-31" x="553.759766"/>
    </g>
   </g>
   <g id="text_8">
    <!-- print(counter) -->
    <g transform="translate(91.376836 329.406445) scale(0.125 -0.125)">
     <defs>
      <path id="IPAexGothic-70" d="M 1075 2688 
Q 1525 3341 2206 3341 
Q 2769 3341 3172 2938 
Q 3641 2469 3641 1644 
Q 3641 841 3178 372 
Q 2775 -31 2200 -31 
Q 1569 -31 1106 497 
L 1106 -1216 
L 563 -1216 
L 563 3250 
L 1075 3250 
L 1075 2688 
z
M 1106 1950 
L 1106 1291 
Q 1106 897 1516 600 
Q 1791 403 2106 403 
Q 2469 403 2725 659 
Q 3066 997 3066 1631 
Q 3066 2200 2784 2559 
Q 2503 2900 2100 2900 
Q 1656 2900 1338 2484 
Q 1106 2184 1106 1950 
z
" transform="scale(0.015625)"/>
      <path id="IPAexGothic-69" d="M 1178 3928 
L 550 3928 
L 550 4569 
L 1178 4569 
L 1178 3928 
z
M 1138 63 
L 588 63 
L 588 3250 
L 1138 3250 
L 1138 63 
z
" transform="scale(0.015625)"/>
      <path id="IPAexGothic-28" d="M 1928 -1016 
L 1653 -1166 
Q 488 69 488 1875 
Q 488 3678 1653 4909 
L 1928 4763 
Q 1006 3522 1006 1881 
Q 1006 203 1928 -1016 
z
" transform="scale(0.015625)"/>
      <path id="IPAexGothic-29" d="M 466 4909 
Q 1638 3672 1638 1875 
Q 1638 75 466 -1166 
L 191 -1016 
Q 1119 216 1119 1881 
Q 1119 3509 191 4763 
L 466 4909 
z
" transform="scale(0.015625)"/>
     </defs>
     <use xlink:href="#IPAexGothic-70"/>
     <use xlink:href="#IPAexGothic-72" x="62.109375"/>
     <use xlink:href="#IPAexGothic-69" x="99.121094"/>
     <use xlink:href="#IPAexGothic-6e" x="126.123047"/>
     <use xlink:href="#IPAexGothic-74" x="186.523438"/>
     <use xlink:href="#IPAexGothic-28" x="221.142578"/>
     <use xlink:href="#IPAexGothic-63" x="254.443359"/>
     <use xlink:href="#IPAexGothic-6f" x="308.837891"/>
     <use xlink:href="#IPAexGothic-75" x="369.238281"/>
     <use xlink:href="#IPAexGothic-6e" x="429.638672"/>
     <use xlink:href="#IPAexGothic-74" x="490.039062"/>
     <use xlink:href="#IPAexGothic-65" x="524.658203"/>
     <use xlink:href="#IPAexGothic-72" x="581.542969"/>
     <use xlink:href="#IPAexGothic-29" x="618.554688"/>
    </g>
   </g>
  </g>
 </g>
 <defs>
  <clipPath id="pdafa84a24f">
   <rect x="3.6" y="3.6" width="332.64" height="356.4"/>
  </clipPath>
 </defs>
</svg>