<?xml version="1.0" encoding="utf-8" standalone="no"?>
<!DOCTYPE svg PUBLIC "-//W3C//DTD SVG 1.1//EN"
  "http://www.w3.org/Graphics/SVG/1.1/DTD/svg11.dtd">
<svg xmlns:xlink="http://www.w3.org/1999/xlink" width="411.12pt" height="456.66pt" viewBox="0 0 411.12 456.66" xmlns="http://www.w3.org/2000/svg" version="1.1">
 <metadata>
  <rdf:RDF xmlns:dc="http://purl.org/dc/elements/1.1/" xmlns:cc="http://creativecommons.org/ns#" xmlns:rdf="http://www.w3.org/1999/02/22-rdf-syntax-ns#">
   <cc:Work>
    <dc:type rdf:resource="http://purl.org/dc/dcmitype/StillImage"/>
    <dc:date>2024-03-16T03:50:57.505615</dc:date>
    <dc:format>image/svg+xml</dc:format>
    <dc:creator>
     <cc:Agent>
      <dc:title>Matplotlib v3.8.3, https://matplotlib.org/</dc:title>
     </cc:Agent>
    </dc:creator>
   </cc:Work>
  </rdf:RDF>
 </metadata>
 <defs>
  <style type="text/css">*{stroke-linejoin: round; stroke-linecap: butt}</style>
 </defs>
 <g id="figure_1">
  <g id="patch_1">
   <path d="M 0 456.66 
L 411.12 456.66 
L 411.12 0 
L 0 0 
z
" style="fill: #ffffff"/>
  </g>
  <g id="axes_1">
   <g id="patch_2">
    <path d="M 129.96 60.03 
L 130.245587 60.027734 
L 130.531103 60.020938 
L 130.816474 60.009612 
L 131.101631 59.99376 
L 131.386499 59.973386 
L 131.671009 59.948495 
L 131.955088 59.919092 
L 132.238664 59.885187 
L 132.521667 59.846786 
L 132.804025 59.8039 
L 133.085667 59.75654 
L 133.366522 59.704717 
L 133.64652 59.648444 
L 133.92559 59.587736 
L 134.203661 59.522608 
L 134.480664 59.453077 
L 134.756529 59.379159 
L 135.031186 59.300874 
L 135.304567 59.21824 
L 135.576602 59.13128 
L 135.847223 59.040015 
L 136.116363 58.944467 
L 136.383952 58.844661 
L 136.649924 58.740623 
L 136.914212 58.632377 
L 137.17675 58.519952 
L 137.43747 58.403376 
L 137.696308 58.282678 
L 137.953199 58.157888 
L 138.208077 58.029038 
L 138.460879 57.896161 
L 138.711541 57.759289 
L 138.96 57.618457 
L 139.206193 57.473701 
L 139.450058 57.325058 
L 139.691535 57.172564 
L 139.930561 57.016257 
L 140.167078 56.856178 
L 140.401024 56.692367 
L 140.632343 56.524865 
L 140.860974 56.353713 
L 141.086862 56.178956 
L 141.309948 56.000636 
L 141.530177 55.8188 
L 141.747493 55.633492 
L 141.961842 55.44476 
L 142.173169 55.252651 
L 142.381422 55.057213 
L 142.586548 54.858495 
L 142.788495 54.656548 
L 142.987213 54.451422 
L 143.182651 54.243169 
L 143.37476 54.031842 
L 143.563492 53.817493 
L 143.7488 53.600177 
L 143.930636 53.379948 
L 144.108956 53.156862 
L 144.283713 52.930974 
L 144.454865 52.702343 
L 144.622367 52.471024 
L 144.786178 52.237078 
L 144.946257 52.000561 
L 145.102564 51.761535 
L 145.255058 51.520058 
L 145.403701 51.276193 
L 145.548457 51.03 
L 145.689289 50.781541 
L 145.826161 50.530879 
L 145.959038 50.278077 
L 146.087888 50.023199 
L 146.212678 49.766308 
L 146.333376 49.50747 
L 146.449952 49.24675 
L 146.562377 48.984212 
L 146.670623 48.719924 
L 146.774661 48.453952 
L 146.874467 48.186363 
L 146.970015 47.917223 
L 147.06128 47.646602 
L 147.14824 47.374567 
L 147.230874 47.101186 
L 147.309159 46.826529 
L 147.383077 46.550664 
L 147.452608 46.273661 
L 147.517736 45.99559 
L 147.578444 45.71652 
L 147.634717 45.436522 
L 147.68654 45.155667 
L 147.7339 44.874025 
L 147.776786 44.591667 
L 147.815187 44.308664 
L 147.849092 44.025088 
L 147.878495 43.741009 
L 147.903386 43.456499 
L 147.92376 43.171631 
L 147.939612 42.886474 
L 147.950938 42.601103 
L 147.957734 42.315587 
L 147.96 42.03 
L 147.96 42.03 
L 147.957734 41.744413 
L 147.950938 41.458897 
L 147.939612 41.173526 
L 147.92376 40.888369 
L 147.903386 40.603501 
L 147.878495 40.318991 
L 147.849092 40.034912 
L 147.815187 39.751336 
L 147.776786 39.468333 
L 147.7339 39.185975 
L 147.68654 38.904333 
L 147.634717 38.623478 
L 147.578444 38.34348 
L 147.517736 38.06441 
L 147.452608 37.786339 
L 147.383077 37.509336 
L 147.309159 37.233471 
L 147.230874 36.958814 
L 147.14824 36.685433 
L 147.06128 36.413398 
L 146.970015 36.142777 
L 146.874467 35.873637 
L 146.774661 35.606048 
L 146.670623 35.340076 
L 146.562377 35.075788 
L 146.449952 34.81325 
L 146.333376 34.55253 
L 146.212678 34.293692 
L 146.087888 34.036801 
L 145.959038 33.781923 
L 145.826161 33.529121 
L 145.689289 33.278459 
L 145.548457 33.03 
L 145.403701 32.783807 
L 145.255058 32.539942 
L 145.102564 32.298465 
L 144.946257 32.059439 
L 144.786178 31.822922 
L 144.622367 31.588976 
L 144.454865 31.357657 
L 144.283713 31.129026 
L 144.108956 30.903138 
L 143.930636 30.680052 
L 143.7488 30.459823 
L 143.563492 30.242507 
L 143.37476 30.028158 
L 143.182651 29.816831 
L 142.987213 29.608578 
L 142.788495 29.403452 
L 142.586548 29.201505 
L 142.381422 29.002787 
L 142.173169 28.807349 
L 141.961842 28.61524 
L 141.747493 28.426508 
L 141.530177 28.2412 
L 141.309948 28.059364 
L 141.086862 27.881044 
L 140.860974 27.706287 
L 140.632343 27.535135 
L 140.401024 27.367633 
L 140.167078 27.203822 
L 139.930561 27.043743 
L 139.691535 26.887436 
L 139.450058 26.734942 
L 139.206193 26.586299 
L 138.96 26.441543 
L 138.711541 26.300711 
L 138.460879 26.163839 
L 138.208077 26.030962 
L 137.953199 25.902112 
L 137.696308 25.777322 
L 137.43747 25.656624 
L 137.17675 25.540048 
L 136.914212 25.427623 
L 136.649924 25.319377 
L 136.383952 25.215339 
L 136.116363 25.115533 
L 135.847223 25.019985 
L 135.576602 24.92872 
L 135.304567 24.84176 
L 135.031186 24.759126 
L 134.756529 24.680841 
L 134.480664 24.606923 
L 134.203661 24.537392 
L 133.92559 24.472264 
L 133.64652 24.411556 
L 133.366522 24.355283 
L 133.085667 24.30346 
L 132.804025 24.2561 
L 132.521667 24.213214 
L 132.238664 24.174813 
L 131.955088 24.140908 
L 131.671009 24.111505 
L 131.386499 24.086614 
L 131.101631 24.06624 
L 130.816474 24.050388 
L 130.531103 24.039062 
L 130.245587 24.032266 
L 129.96 24.03 
L 93.96 24.03 
L 93.674413 24.032266 
L 93.388897 24.039062 
L 93.103526 24.050388 
L 92.818369 24.06624 
L 92.533501 24.086614 
L 92.248991 24.111505 
L 91.964912 24.140908 
L 91.681336 24.174813 
L 91.398333 24.213214 
L 91.115975 24.2561 
L 90.834333 24.30346 
L 90.553478 24.355283 
L 90.27348 24.411556 
L 89.99441 24.472264 
L 89.716339 24.537392 
L 89.439336 24.606923 
L 89.163471 24.680841 
L 88.888814 24.759126 
L 88.615433 24.84176 
L 88.343398 24.92872 
L 88.072777 25.019985 
L 87.803637 25.115533 
L 87.536048 25.215339 
L 87.270076 25.319377 
L 87.005788 25.427623 
L 86.74325 25.540048 
L 86.48253 25.656624 
L 86.223692 25.777322 
L 85.966801 25.902112 
L 85.711923 26.030962 
L 85.459121 26.163839 
L 85.208459 26.300711 
L 84.96 26.441543 
L 84.713807 26.586299 
L 84.469942 26.734942 
L 84.228465 26.887436 
L 83.989439 27.043743 
L 83.752922 27.203822 
L 83.518976 27.367633 
L 83.287657 27.535135 
L 83.059026 27.706287 
L 82.833138 27.881044 
L 82.610052 28.059364 
L 82.389823 28.2412 
L 82.172507 28.426508 
L 81.958158 28.61524 
L 81.746831 28.807349 
L 81.538578 29.002787 
L 81.333452 29.201505 
L 81.131505 29.403452 
L 80.932787 29.608578 
L 80.737349 29.816831 
L 80.54524 30.028158 
L 80.356508 30.242507 
L 80.1712 30.459823 
L 79.989364 30.680052 
L 79.811044 30.903138 
L 79.636287 31.129026 
L 79.465135 31.357657 
L 79.297633 31.588976 
L 79.133822 31.822922 
L 78.973743 32.059439 
L 78.817436 32.298465 
L 78.664942 32.539942 
L 78.516299 32.783807 
L 78.371543 33.03 
L 78.230711 33.278459 
L 78.093839 33.529121 
L 77.960962 33.781923 
L 77.832112 34.036801 
L 77.707322 34.293692 
L 77.586624 34.55253 
L 77.470048 34.81325 
L 77.357623 35.075788 
L 77.249377 35.340076 
L 77.145339 35.606048 
L 77.045533 35.873637 
L 76.949985 36.142777 
L 76.85872 36.413398 
L 76.77176 36.685433 
L 76.689126 36.958814 
L 76.610841 37.233471 
L 76.536923 37.509336 
L 76.467392 37.786339 
L 76.402264 38.06441 
L 76.341556 38.34348 
L 76.285283 38.623478 
L 76.23346 38.904333 
L 76.1861 39.185975 
L 76.143214 39.468333 
L 76.104813 39.751336 
L 76.070908 40.034912 
L 76.041505 40.318991 
L 76.016614 40.603501 
L 75.99624 40.888369 
L 75.980388 41.173526 
L 75.969062 41.458897 
L 75.962266 41.744413 
L 75.96 42.03 
L 75.96 42.03 
L 75.962266 42.315587 
L 75.969062 42.601103 
L 75.980388 42.886474 
L 75.99624 43.171631 
L 76.016614 43.456499 
L 76.041505 43.741009 
L 76.070908 44.025088 
L 76.104813 44.308664 
L 76.143214 44.591667 
L 76.1861 44.874025 
L 76.23346 45.155667 
L 76.285283 45.436522 
L 76.341556 45.71652 
L 76.402264 45.99559 
L 76.467392 46.273661 
L 76.536923 46.550664 
L 76.610841 46.826529 
L 76.689126 47.101186 
L 76.77176 47.374567 
L 76.85872 47.646602 
L 76.949985 47.917223 
L 77.045533 48.186363 
L 77.145339 48.453952 
L 77.249377 48.719924 
L 77.357623 48.984212 
L 77.470048 49.24675 
L 77.586624 49.50747 
L 77.707322 49.766308 
L 77.832112 50.023199 
L 77.960962 50.278077 
L 78.093839 50.530879 
L 78.230711 50.781541 
L 78.371543 51.03 
L 78.516299 51.276193 
L 78.664942 51.520058 
L 78.817436 51.761535 
L 78.973743 52.000561 
L 79.133822 52.237078 
L 79.297633 52.471024 
L 79.465135 52.702343 
L 79.636287 52.930974 
L 79.811044 53.156862 
L 79.989364 53.379948 
L 80.1712 53.600177 
L 80.356508 53.817493 
L 80.54524 54.031842 
L 80.737349 54.243169 
L 80.932787 54.451422 
L 81.131505 54.656548 
L 81.333452 54.858495 
L 81.538578 55.057213 
L 81.746831 55.252651 
L 81.958158 55.44476 
L 82.172507 55.633492 
L 82.389823 55.8188 
L 82.610052 56.000636 
L 82.833138 56.178956 
L 83.059026 56.353713 
L 83.287657 56.524865 
L 83.518976 56.692367 
L 83.752922 56.856178 
L 83.989439 57.016257 
L 84.228465 57.172564 
L 84.469942 57.325058 
L 84.713807 57.473701 
L 84.96 57.618457 
L 85.208459 57.759289 
L 85.459121 57.896161 
L 85.711923 58.029038 
L 85.966801 58.157888 
L 86.223692 58.282678 
L 86.48253 58.403376 
L 86.74325 58.519952 
L 87.005788 58.632377 
L 87.270076 58.740623 
L 87.536048 58.844661 
L 87.803637 58.944467 
L 88.072777 59.040015 
L 88.343398 59.13128 
L 88.615433 59.21824 
L 88.888814 59.300874 
L 89.163471 59.379159 
L 89.439336 59.453077 
L 89.716339 59.522608 
L 89.99441 59.587736 
L 90.27348 59.648444 
L 90.553478 59.704717 
L 90.834333 59.75654 
L 91.115975 59.8039 
L 91.398333 59.846786 
L 91.681336 59.885187 
L 91.964912 59.919092 
L 92.248991 59.948495 
L 92.533501 59.973386 
L 92.818369 59.99376 
L 93.103526 60.009612 
L 93.388897 60.020938 
L 93.674413 60.027734 
L 93.96 60.03 
L 129.96 60.03 
z
" clip-path="url(#p44f4193040)" style="fill: none; stroke: #000000; stroke-linecap: round"/>
   </g>
   <g id="patch_3">
    <path d="M 21.96 173.43 
L 111.96 150.03 
L 201.96 173.43 
L 111.96 196.83 
L 21.96 173.43 
z
" clip-path="url(#p44f4193040)" style="fill: none; stroke: #000000; stroke-linecap: round"/>
   </g>
   <g id="patch_4">
    <path d="M 340.56 249.03 
L 340.845587 249.027734 
L 341.131103 249.020938 
L 341.416474 249.009612 
L 341.701631 248.99376 
L 341.986499 248.973386 
L 342.271009 248.948495 
L 342.555088 248.919092 
L 342.838664 248.885187 
L 343.121667 248.846786 
L 343.404025 248.8039 
L 343.685667 248.75654 
L 343.966522 248.704717 
L 344.24652 248.648444 
L 344.52559 248.587736 
L 344.803661 248.522608 
L 345.080664 248.453077 
L 345.356529 248.379159 
L 345.631186 248.300874 
L 345.904567 248.21824 
L 346.176602 248.13128 
L 346.447223 248.040015 
L 346.716363 247.944467 
L 346.983952 247.844661 
L 347.249924 247.740623 
L 347.514212 247.632377 
L 347.77675 247.519952 
L 348.03747 247.403376 
L 348.296308 247.282678 
L 348.553199 247.157888 
L 348.808077 247.029038 
L 349.060879 246.896161 
L 349.311541 246.759289 
L 349.56 246.618457 
L 349.806193 246.473701 
L 350.050058 246.325058 
L 350.291535 246.172564 
L 350.530561 246.016257 
L 350.767078 245.856178 
L 351.001024 245.692367 
L 351.232343 245.524865 
L 351.460974 245.353713 
L 351.686862 245.178956 
L 351.909948 245.000636 
L 352.130177 244.8188 
L 352.347493 244.633492 
L 352.561842 244.44476 
L 352.773169 244.252651 
L 352.981422 244.057213 
L 353.186548 243.858495 
L 353.388495 243.656548 
L 353.587213 243.451422 
L 353.782651 243.243169 
L 353.97476 243.031842 
L 354.163492 242.817493 
L 354.3488 242.600177 
L 354.530636 242.379948 
L 354.708956 242.156862 
L 354.883713 241.930974 
L 355.054865 241.702343 
L 355.222367 241.471024 
L 355.386178 241.237078 
L 355.546257 241.000561 
L 355.702564 240.761535 
L 355.855058 240.520058 
L 356.003701 240.276193 
L 356.148457 240.03 
L 356.289289 239.781541 
L 356.426161 239.530879 
L 356.559038 239.278077 
L 356.687888 239.023199 
L 356.812678 238.766308 
L 356.933376 238.50747 
L 357.049952 238.24675 
L 357.162377 237.984212 
L 357.270623 237.719924 
L 357.374661 237.453952 
L 357.474467 237.186363 
L 357.570015 236.917223 
L 357.66128 236.646602 
L 357.74824 236.374567 
L 357.830874 236.101186 
L 357.909159 235.826529 
L 357.983077 235.550664 
L 358.052608 235.273661 
L 358.117736 234.99559 
L 358.178444 234.71652 
L 358.234717 234.436522 
L 358.28654 234.155667 
L 358.3339 233.874025 
L 358.376786 233.591667 
L 358.415187 233.308664 
L 358.449092 233.025088 
L 358.478495 232.741009 
L 358.503386 232.456499 
L 358.52376 232.171631 
L 358.539612 231.886474 
L 358.550938 231.601103 
L 358.557734 231.315587 
L 358.56 231.03 
L 358.56 231.03 
L 358.557734 230.744413 
L 358.550938 230.458897 
L 358.539612 230.173526 
L 358.52376 229.888369 
L 358.503386 229.603501 
L 358.478495 229.318991 
L 358.449092 229.034912 
L 358.415187 228.751336 
L 358.376786 228.468333 
L 358.3339 228.185975 
L 358.28654 227.904333 
L 358.234717 227.623478 
L 358.178444 227.34348 
L 358.117736 227.06441 
L 358.052608 226.786339 
L 357.983077 226.509336 
L 357.909159 226.233471 
L 357.830874 225.958814 
L 357.74824 225.685433 
L 357.66128 225.413398 
L 357.570015 225.142777 
L 357.474467 224.873637 
L 357.374661 224.606048 
L 357.270623 224.340076 
L 357.162377 224.075788 
L 357.049952 223.81325 
L 356.933376 223.55253 
L 356.812678 223.293692 
L 356.687888 223.036801 
L 356.559038 222.781923 
L 356.426161 222.529121 
L 356.289289 222.278459 
L 356.148457 222.03 
L 356.003701 221.783807 
L 355.855058 221.539942 
L 355.702564 221.298465 
L 355.546257 221.059439 
L 355.386178 220.822922 
L 355.222367 220.588976 
L 355.054865 220.357657 
L 354.883713 220.129026 
L 354.708956 219.903138 
L 354.530636 219.680052 
L 354.3488 219.459823 
L 354.163492 219.242507 
L 353.97476 219.028158 
L 353.782651 218.816831 
L 353.587213 218.608578 
L 353.388495 218.403452 
L 353.186548 218.201505 
L 352.981422 218.002787 
L 352.773169 217.807349 
L 352.561842 217.61524 
L 352.347493 217.426508 
L 352.130177 217.2412 
L 351.909948 217.059364 
L 351.686862 216.881044 
L 351.460974 216.706287 
L 351.232343 216.535135 
L 351.001024 216.367633 
L 350.767078 216.203822 
L 350.530561 216.043743 
L 350.291535 215.887436 
L 350.050058 215.734942 
L 349.806193 215.586299 
L 349.56 215.441543 
L 349.311541 215.300711 
L 349.060879 215.163839 
L 348.808077 215.030962 
L 348.553199 214.902112 
L 348.296308 214.777322 
L 348.03747 214.656624 
L 347.77675 214.540048 
L 347.514212 214.427623 
L 347.249924 214.319377 
L 346.983952 214.215339 
L 346.716363 214.115533 
L 346.447223 214.019985 
L 346.176602 213.92872 
L 345.904567 213.84176 
L 345.631186 213.759126 
L 345.356529 213.680841 
L 345.080664 213.606923 
L 344.803661 213.537392 
L 344.52559 213.472264 
L 344.24652 213.411556 
L 343.966522 213.355283 
L 343.685667 213.30346 
L 343.404025 213.2561 
L 343.121667 213.213214 
L 342.838664 213.174813 
L 342.555088 213.140908 
L 342.271009 213.111505 
L 341.986499 213.086614 
L 341.701631 213.06624 
L 341.416474 213.050388 
L 341.131103 213.039062 
L 340.845587 213.032266 
L 340.56 213.03 
L 304.56 213.03 
L 304.274413 213.032266 
L 303.988897 213.039062 
L 303.703526 213.050388 
L 303.418369 213.06624 
L 303.133501 213.086614 
L 302.848991 213.111505 
L 302.564912 213.140908 
L 302.281336 213.174813 
L 301.998333 213.213214 
L 301.715975 213.2561 
L 301.434333 213.30346 
L 301.153478 213.355283 
L 300.87348 213.411556 
L 300.59441 213.472264 
L 300.316339 213.537392 
L 300.039336 213.606923 
L 299.763471 213.680841 
L 299.488814 213.759126 
L 299.215433 213.84176 
L 298.943398 213.92872 
L 298.672777 214.019985 
L 298.403637 214.115533 
L 298.136048 214.215339 
L 297.870076 214.319377 
L 297.605788 214.427623 
L 297.34325 214.540048 
L 297.08253 214.656624 
L 296.823692 214.777322 
L 296.566801 214.902112 
L 296.311923 215.030962 
L 296.059121 215.163839 
L 295.808459 215.300711 
L 295.56 215.441543 
L 295.313807 215.586299 
L 295.069942 215.734942 
L 294.828465 215.887436 
L 294.589439 216.043743 
L 294.352922 216.203822 
L 294.118976 216.367633 
L 293.887657 216.535135 
L 293.659026 216.706287 
L 293.433138 216.881044 
L 293.210052 217.059364 
L 292.989823 217.2412 
L 292.772507 217.426508 
L 292.558158 217.61524 
L 292.346831 217.807349 
L 292.138578 218.002787 
L 291.933452 218.201505 
L 291.731505 218.403452 
L 291.532787 218.608578 
L 291.337349 218.816831 
L 291.14524 219.028158 
L 290.956508 219.242507 
L 290.7712 219.459823 
L 290.589364 219.680052 
L 290.411044 219.903138 
L 290.236287 220.129026 
L 290.065135 220.357657 
L 289.897633 220.588976 
L 289.733822 220.822922 
L 289.573743 221.059439 
L 289.417436 221.298465 
L 289.264942 221.539942 
L 289.116299 221.783807 
L 288.971543 222.03 
L 288.830711 222.278459 
L 288.693839 222.529121 
L 288.560962 222.781923 
L 288.432112 223.036801 
L 288.307322 223.293692 
L 288.186624 223.55253 
L 288.070048 223.81325 
L 287.957623 224.075788 
L 287.849377 224.340076 
L 287.745339 224.606048 
L 287.645533 224.873637 
L 287.549985 225.142777 
L 287.45872 225.413398 
L 287.37176 225.685433 
L 287.289126 225.958814 
L 287.210841 226.233471 
L 287.136923 226.509336 
L 287.067392 226.786339 
L 287.002264 227.06441 
L 286.941556 227.34348 
L 286.885283 227.623478 
L 286.83346 227.904333 
L 286.7861 228.185975 
L 286.743214 228.468333 
L 286.704813 228.751336 
L 286.670908 229.034912 
L 286.641505 229.318991 
L 286.616614 229.603501 
L 286.59624 229.888369 
L 286.580388 230.173526 
L 286.569062 230.458897 
L 286.562266 230.744413 
L 286.56 231.03 
L 286.56 231.03 
L 286.562266 231.315587 
L 286.569062 231.601103 
L 286.580388 231.886474 
L 286.59624 232.171631 
L 286.616614 232.456499 
L 286.641505 232.741009 
L 286.670908 233.025088 
L 286.704813 233.308664 
L 286.743214 233.591667 
L 286.7861 233.874025 
L 286.83346 234.155667 
L 286.885283 234.436522 
L 286.941556 234.71652 
L 287.002264 234.99559 
L 287.067392 235.273661 
L 287.136923 235.550664 
L 287.210841 235.826529 
L 287.289126 236.101186 
L 287.37176 236.374567 
L 287.45872 236.646602 
L 287.549985 236.917223 
L 287.645533 237.186363 
L 287.745339 237.453952 
L 287.849377 237.719924 
L 287.957623 237.984212 
L 288.070048 238.24675 
L 288.186624 238.50747 
L 288.307322 238.766308 
L 288.432112 239.023199 
L 288.560962 239.278077 
L 288.693839 239.530879 
L 288.830711 239.781541 
L 288.971543 240.03 
L 289.116299 240.276193 
L 289.264942 240.520058 
L 289.417436 240.761535 
L 289.573743 241.000561 
L 289.733822 241.237078 
L 289.897633 241.471024 
L 290.065135 241.702343 
L 290.236287 241.930974 
L 290.411044 242.156862 
L 290.589364 242.379948 
L 290.7712 242.600177 
L 290.956508 242.817493 
L 291.14524 243.031842 
L 291.337349 243.243169 
L 291.532787 243.451422 
L 291.731505 243.656548 
L 291.933452 243.858495 
L 292.138578 244.057213 
L 292.346831 244.252651 
L 292.558158 244.44476 
L 292.772507 244.633492 
L 292.989823 244.8188 
L 293.210052 245.000636 
L 293.433138 245.178956 
L 293.659026 245.353713 
L 293.887657 245.524865 
L 294.118976 245.692367 
L 294.352922 245.856178 
L 294.589439 246.016257 
L 294.828465 246.172564 
L 295.069942 246.325058 
L 295.313807 246.473701 
L 295.56 246.618457 
L 295.808459 246.759289 
L 296.059121 246.896161 
L 296.311923 247.029038 
L 296.566801 247.157888 
L 296.823692 247.282678 
L 297.08253 247.403376 
L 297.34325 247.519952 
L 297.605788 247.632377 
L 297.870076 247.740623 
L 298.136048 247.844661 
L 298.403637 247.944467 
L 298.672777 248.040015 
L 298.943398 248.13128 
L 299.215433 248.21824 
L 299.488814 248.300874 
L 299.763471 248.379159 
L 300.039336 248.453077 
L 300.316339 248.522608 
L 300.59441 248.587736 
L 300.87348 248.648444 
L 301.153478 248.704717 
L 301.434333 248.75654 
L 301.715975 248.8039 
L 301.998333 248.846786 
L 302.281336 248.885187 
L 302.564912 248.919092 
L 302.848991 248.948495 
L 303.133501 248.973386 
L 303.418369 248.99376 
L 303.703526 249.009612 
L 303.988897 249.020938 
L 304.274413 249.027734 
L 304.56 249.03 
L 340.56 249.03 
z
" clip-path="url(#p44f4193040)" style="fill: none; stroke: #000000; stroke-linecap: round"/>
   </g>
   <g id="patch_5">
    <path d="M 21.96 274.23 
L 111.96 250.83 
L 201.96 274.23 
L 111.96 297.63 
L 21.96 274.23 
z
" clip-path="url(#p44f4193040)" style="fill: none; stroke: #000000; stroke-linecap: round"/>
   </g>
   <g id="patch_6">
    <path d="M 340.56 349.83 
L 340.845587 349.827734 
L 341.131103 349.820938 
L 341.416474 349.809612 
L 341.701631 349.79376 
L 341.986499 349.773386 
L 342.271009 349.748495 
L 342.555088 349.719092 
L 342.838664 349.685187 
L 343.121667 349.646786 
L 343.404025 349.6039 
L 343.685667 349.55654 
L 343.966522 349.504717 
L 344.24652 349.448444 
L 344.52559 349.387736 
L 344.803661 349.322608 
L 345.080664 349.253077 
L 345.356529 349.179159 
L 345.631186 349.100874 
L 345.904567 349.01824 
L 346.176602 348.93128 
L 346.447223 348.840015 
L 346.716363 348.744467 
L 346.983952 348.644661 
L 347.249924 348.540623 
L 347.514212 348.432377 
L 347.77675 348.319952 
L 348.03747 348.203376 
L 348.296308 348.082678 
L 348.553199 347.957888 
L 348.808077 347.829038 
L 349.060879 347.696161 
L 349.311541 347.559289 
L 349.56 347.418457 
L 349.806193 347.273701 
L 350.050058 347.125058 
L 350.291535 346.972564 
L 350.530561 346.816257 
L 350.767078 346.656178 
L 351.001024 346.492367 
L 351.232343 346.324865 
L 351.460974 346.153713 
L 351.686862 345.978956 
L 351.909948 345.800636 
L 352.130177 345.6188 
L 352.347493 345.433492 
L 352.561842 345.24476 
L 352.773169 345.052651 
L 352.981422 344.857213 
L 353.186548 344.658495 
L 353.388495 344.456548 
L 353.587213 344.251422 
L 353.782651 344.043169 
L 353.97476 343.831842 
L 354.163492 343.617493 
L 354.3488 343.400177 
L 354.530636 343.179948 
L 354.708956 342.956862 
L 354.883713 342.730974 
L 355.054865 342.502343 
L 355.222367 342.271024 
L 355.386178 342.037078 
L 355.546257 341.800561 
L 355.702564 341.561535 
L 355.855058 341.320058 
L 356.003701 341.076193 
L 356.148457 340.83 
L 356.289289 340.581541 
L 356.426161 340.330879 
L 356.559038 340.078077 
L 356.687888 339.823199 
L 356.812678 339.566308 
L 356.933376 339.30747 
L 357.049952 339.04675 
L 357.162377 338.784212 
L 357.270623 338.519924 
L 357.374661 338.253952 
L 357.474467 337.986363 
L 357.570015 337.717223 
L 357.66128 337.446602 
L 357.74824 337.174567 
L 357.830874 336.901186 
L 357.909159 336.626529 
L 357.983077 336.350664 
L 358.052608 336.073661 
L 358.117736 335.79559 
L 358.178444 335.51652 
L 358.234717 335.236522 
L 358.28654 334.955667 
L 358.3339 334.674025 
L 358.376786 334.391667 
L 358.415187 334.108664 
L 358.449092 333.825088 
L 358.478495 333.541009 
L 358.503386 333.256499 
L 358.52376 332.971631 
L 358.539612 332.686474 
L 358.550938 332.401103 
L 358.557734 332.115587 
L 358.56 331.83 
L 358.56 331.83 
L 358.557734 331.544413 
L 358.550938 331.258897 
L 358.539612 330.973526 
L 358.52376 330.688369 
L 358.503386 330.403501 
L 358.478495 330.118991 
L 358.449092 329.834912 
L 358.415187 329.551336 
L 358.376786 329.268333 
L 358.3339 328.985975 
L 358.28654 328.704333 
L 358.234717 328.423478 
L 358.178444 328.14348 
L 358.117736 327.86441 
L 358.052608 327.586339 
L 357.983077 327.309336 
L 357.909159 327.033471 
L 357.830874 326.758814 
L 357.74824 326.485433 
L 357.66128 326.213398 
L 357.570015 325.942777 
L 357.474467 325.673637 
L 357.374661 325.406048 
L 357.270623 325.140076 
L 357.162377 324.875788 
L 357.049952 324.61325 
L 356.933376 324.35253 
L 356.812678 324.093692 
L 356.687888 323.836801 
L 356.559038 323.581923 
L 356.426161 323.329121 
L 356.289289 323.078459 
L 356.148457 322.83 
L 356.003701 322.583807 
L 355.855058 322.339942 
L 355.702564 322.098465 
L 355.546257 321.859439 
L 355.386178 321.622922 
L 355.222367 321.388976 
L 355.054865 321.157657 
L 354.883713 320.929026 
L 354.708956 320.703138 
L 354.530636 320.480052 
L 354.3488 320.259823 
L 354.163492 320.042507 
L 353.97476 319.828158 
L 353.782651 319.616831 
L 353.587213 319.408578 
L 353.388495 319.203452 
L 353.186548 319.001505 
L 352.981422 318.802787 
L 352.773169 318.607349 
L 352.561842 318.41524 
L 352.347493 318.226508 
L 352.130177 318.0412 
L 351.909948 317.859364 
L 351.686862 317.681044 
L 351.460974 317.506287 
L 351.232343 317.335135 
L 351.001024 317.167633 
L 350.767078 317.003822 
L 350.530561 316.843743 
L 350.291535 316.687436 
L 350.050058 316.534942 
L 349.806193 316.386299 
L 349.56 316.241543 
L 349.311541 316.100711 
L 349.060879 315.963839 
L 348.808077 315.830962 
L 348.553199 315.702112 
L 348.296308 315.577322 
L 348.03747 315.456624 
L 347.77675 315.340048 
L 347.514212 315.227623 
L 347.249924 315.119377 
L 346.983952 315.015339 
L 346.716363 314.915533 
L 346.447223 314.819985 
L 346.176602 314.72872 
L 345.904567 314.64176 
L 345.631186 314.559126 
L 345.356529 314.480841 
L 345.080664 314.406923 
L 344.803661 314.337392 
L 344.52559 314.272264 
L 344.24652 314.211556 
L 343.966522 314.155283 
L 343.685667 314.10346 
L 343.404025 314.0561 
L 343.121667 314.013214 
L 342.838664 313.974813 
L 342.555088 313.940908 
L 342.271009 313.911505 
L 341.986499 313.886614 
L 341.701631 313.86624 
L 341.416474 313.850388 
L 341.131103 313.839062 
L 340.845587 313.832266 
L 340.56 313.83 
L 304.56 313.83 
L 304.274413 313.832266 
L 303.988897 313.839062 
L 303.703526 313.850388 
L 303.418369 313.86624 
L 303.133501 313.886614 
L 302.848991 313.911505 
L 302.564912 313.940908 
L 302.281336 313.974813 
L 301.998333 314.013214 
L 301.715975 314.0561 
L 301.434333 314.10346 
L 301.153478 314.155283 
L 300.87348 314.211556 
L 300.59441 314.272264 
L 300.316339 314.337392 
L 300.039336 314.406923 
L 299.763471 314.480841 
L 299.488814 314.559126 
L 299.215433 314.64176 
L 298.943398 314.72872 
L 298.672777 314.819985 
L 298.403637 314.915533 
L 298.136048 315.015339 
L 297.870076 315.119377 
L 297.605788 315.227623 
L 297.34325 315.340048 
L 297.08253 315.456624 
L 296.823692 315.577322 
L 296.566801 315.702112 
L 296.311923 315.830962 
L 296.059121 315.963839 
L 295.808459 316.100711 
L 295.56 316.241543 
L 295.313807 316.386299 
L 295.069942 316.534942 
L 294.828465 316.687436 
L 294.589439 316.843743 
L 294.352922 317.003822 
L 294.118976 317.167633 
L 293.887657 317.335135 
L 293.659026 317.506287 
L 293.433138 317.681044 
L 293.210052 317.859364 
L 292.989823 318.0412 
L 292.772507 318.226508 
L 292.558158 318.41524 
L 292.346831 318.607349 
L 292.138578 318.802787 
L 291.933452 319.001505 
L 291.731505 319.203452 
L 291.532787 319.408578 
L 291.337349 319.616831 
L 291.14524 319.828158 
L 290.956508 320.042507 
L 290.7712 320.259823 
L 290.589364 320.480052 
L 290.411044 320.703138 
L 290.236287 320.929026 
L 290.065135 321.157657 
L 289.897633 321.388976 
L 289.733822 321.622922 
L 289.573743 321.859439 
L 289.417436 322.098465 
L 289.264942 322.339942 
L 289.116299 322.583807 
L 288.971543 322.83 
L 288.830711 323.078459 
L 288.693839 323.329121 
L 288.560962 323.581923 
L 288.432112 323.836801 
L 288.307322 324.093692 
L 288.186624 324.35253 
L 288.070048 324.61325 
L 287.957623 324.875788 
L 287.849377 325.140076 
L 287.745339 325.406048 
L 287.645533 325.673637 
L 287.549985 325.942777 
L 287.45872 326.213398 
L 287.37176 326.485433 
L 287.289126 326.758814 
L 287.210841 327.033471 
L 287.136923 327.309336 
L 287.067392 327.586339 
L 287.002264 327.86441 
L 286.941556 328.14348 
L 286.885283 328.423478 
L 286.83346 328.704333 
L 286.7861 328.985975 
L 286.743214 329.268333 
L 286.704813 329.551336 
L 286.670908 329.834912 
L 286.641505 330.118991 
L 286.616614 330.403501 
L 286.59624 330.688369 
L 286.580388 330.973526 
L 286.569062 331.258897 
L 286.562266 331.544413 
L 286.56 331.83 
L 286.56 331.83 
L 286.562266 332.115587 
L 286.569062 332.401103 
L 286.580388 332.686474 
L 286.59624 332.971631 
L 286.616614 333.256499 
L 286.641505 333.541009 
L 286.670908 333.825088 
L 286.704813 334.108664 
L 286.743214 334.391667 
L 286.7861 334.674025 
L 286.83346 334.955667 
L 286.885283 335.236522 
L 286.941556 335.51652 
L 287.002264 335.79559 
L 287.067392 336.073661 
L 287.136923 336.350664 
L 287.210841 336.626529 
L 287.289126 336.901186 
L 287.37176 337.174567 
L 287.45872 337.446602 
L 287.549985 337.717223 
L 287.645533 337.986363 
L 287.745339 338.253952 
L 287.849377 338.519924 
L 287.957623 338.784212 
L 288.070048 339.04675 
L 288.186624 339.30747 
L 288.307322 339.566308 
L 288.432112 339.823199 
L 288.560962 340.078077 
L 288.693839 340.330879 
L 288.830711 340.581541 
L 288.971543 340.83 
L 289.116299 341.076193 
L 289.264942 341.320058 
L 289.417436 341.561535 
L 289.573743 341.800561 
L 289.733822 342.037078 
L 289.897633 342.271024 
L 290.065135 342.502343 
L 290.236287 342.730974 
L 290.411044 342.956862 
L 290.589364 343.179948 
L 290.7712 343.400177 
L 290.956508 343.617493 
L 291.14524 343.831842 
L 291.337349 344.043169 
L 291.532787 344.251422 
L 291.731505 344.456548 
L 291.933452 344.658495 
L 292.138578 344.857213 
L 292.346831 345.052651 
L 292.558158 345.24476 
L 292.772507 345.433492 
L 292.989823 345.6188 
L 293.210052 345.800636 
L 293.433138 345.978956 
L 293.659026 346.153713 
L 293.887657 346.324865 
L 294.118976 346.492367 
L 294.352922 346.656178 
L 294.589439 346.816257 
L 294.828465 346.972564 
L 295.069942 347.125058 
L 295.313807 347.273701 
L 295.56 347.418457 
L 295.808459 347.559289 
L 296.059121 347.696161 
L 296.311923 347.829038 
L 296.566801 347.957888 
L 296.823692 348.082678 
L 297.08253 348.203376 
L 297.34325 348.319952 
L 297.605788 348.432377 
L 297.870076 348.540623 
L 298.136048 348.644661 
L 298.403637 348.744467 
L 298.672777 348.840015 
L 298.943398 348.93128 
L 299.215433 349.01824 
L 299.488814 349.100874 
L 299.763471 349.179159 
L 300.039336 349.253077 
L 300.316339 349.322608 
L 300.59441 349.387736 
L 300.87348 349.448444 
L 301.153478 349.504717 
L 301.434333 349.55654 
L 301.715975 349.6039 
L 301.998333 349.646786 
L 302.281336 349.685187 
L 302.564912 349.719092 
L 302.848991 349.748495 
L 303.133501 349.773386 
L 303.418369 349.79376 
L 303.703526 349.809612 
L 303.988897 349.820938 
L 304.274413 349.827734 
L 304.56 349.83 
L 340.56 349.83 
z
" clip-path="url(#p44f4193040)" style="fill: none; stroke: #000000; stroke-linecap: round"/>
   </g>
   <g id="patch_7">
    <path d="M 129.96 432.63 
L 130.245587 432.627734 
L 130.531103 432.620938 
L 130.816474 432.609612 
L 131.101631 432.59376 
L 131.386499 432.573386 
L 131.671009 432.548495 
L 131.955088 432.519092 
L 132.238664 432.485187 
L 132.521667 432.446786 
L 132.804025 432.4039 
L 133.085667 432.35654 
L 133.366522 432.304717 
L 133.64652 432.248444 
L 133.92559 432.187736 
L 134.203661 432.122608 
L 134.480664 432.053077 
L 134.756529 431.979159 
L 135.031186 431.900874 
L 135.304567 431.81824 
L 135.576602 431.73128 
L 135.847223 431.640015 
L 136.116363 431.544467 
L 136.383952 431.444661 
L 136.649924 431.340623 
L 136.914212 431.232377 
L 137.17675 431.119952 
L 137.43747 431.003376 
L 137.696308 430.882678 
L 137.953199 430.757888 
L 138.208077 430.629038 
L 138.460879 430.496161 
L 138.711541 430.359289 
L 138.96 430.218457 
L 139.206193 430.073701 
L 139.450058 429.925058 
L 139.691535 429.772564 
L 139.930561 429.616257 
L 140.167078 429.456178 
L 140.401024 429.292367 
L 140.632343 429.124865 
L 140.860974 428.953713 
L 141.086862 428.778956 
L 141.309948 428.600636 
L 141.530177 428.4188 
L 141.747493 428.233492 
L 141.961842 428.04476 
L 142.173169 427.852651 
L 142.381422 427.657213 
L 142.586548 427.458495 
L 142.788495 427.256548 
L 142.987213 427.051422 
L 143.182651 426.843169 
L 143.37476 426.631842 
L 143.563492 426.417493 
L 143.7488 426.200177 
L 143.930636 425.979948 
L 144.108956 425.756862 
L 144.283713 425.530974 
L 144.454865 425.302343 
L 144.622367 425.071024 
L 144.786178 424.837078 
L 144.946257 424.600561 
L 145.102564 424.361535 
L 145.255058 424.120058 
L 145.403701 423.876193 
L 145.548457 423.63 
L 145.689289 423.381541 
L 145.826161 423.130879 
L 145.959038 422.878077 
L 146.087888 422.623199 
L 146.212678 422.366308 
L 146.333376 422.10747 
L 146.449952 421.84675 
L 146.562377 421.584212 
L 146.670623 421.319924 
L 146.774661 421.053952 
L 146.874467 420.786363 
L 146.970015 420.517223 
L 147.06128 420.246602 
L 147.14824 419.974567 
L 147.230874 419.701186 
L 147.309159 419.426529 
L 147.383077 419.150664 
L 147.452608 418.873661 
L 147.517736 418.59559 
L 147.578444 418.31652 
L 147.634717 418.036522 
L 147.68654 417.755667 
L 147.7339 417.474025 
L 147.776786 417.191667 
L 147.815187 416.908664 
L 147.849092 416.625088 
L 147.878495 416.341009 
L 147.903386 416.056499 
L 147.92376 415.771631 
L 147.939612 415.486474 
L 147.950938 415.201103 
L 147.957734 414.915587 
L 147.96 414.63 
L 147.96 414.63 
L 147.957734 414.344413 
L 147.950938 414.058897 
L 147.939612 413.773526 
L 147.92376 413.488369 
L 147.903386 413.203501 
L 147.878495 412.918991 
L 147.849092 412.634912 
L 147.815187 412.351336 
L 147.776786 412.068333 
L 147.7339 411.785975 
L 147.68654 411.504333 
L 147.634717 411.223478 
L 147.578444 410.94348 
L 147.517736 410.66441 
L 147.452608 410.386339 
L 147.383077 410.109336 
L 147.309159 409.833471 
L 147.230874 409.558814 
L 147.14824 409.285433 
L 147.06128 409.013398 
L 146.970015 408.742777 
L 146.874467 408.473637 
L 146.774661 408.206048 
L 146.670623 407.940076 
L 146.562377 407.675788 
L 146.449952 407.41325 
L 146.333376 407.15253 
L 146.212678 406.893692 
L 146.087888 406.636801 
L 145.959038 406.381923 
L 145.826161 406.129121 
L 145.689289 405.878459 
L 145.548457 405.63 
L 145.403701 405.383807 
L 145.255058 405.139942 
L 145.102564 404.898465 
L 144.946257 404.659439 
L 144.786178 404.422922 
L 144.622367 404.188976 
L 144.454865 403.957657 
L 144.283713 403.729026 
L 144.108956 403.503138 
L 143.930636 403.280052 
L 143.7488 403.059823 
L 143.563492 402.842507 
L 143.37476 402.628158 
L 143.182651 402.416831 
L 142.987213 402.208578 
L 142.788495 402.003452 
L 142.586548 401.801505 
L 142.381422 401.602787 
L 142.173169 401.407349 
L 141.961842 401.21524 
L 141.747493 401.026508 
L 141.530177 400.8412 
L 141.309948 400.659364 
L 141.086862 400.481044 
L 140.860974 400.306287 
L 140.632343 400.135135 
L 140.401024 399.967633 
L 140.167078 399.803822 
L 139.930561 399.643743 
L 139.691535 399.487436 
L 139.450058 399.334942 
L 139.206193 399.186299 
L 138.96 399.041543 
L 138.711541 398.900711 
L 138.460879 398.763839 
L 138.208077 398.630962 
L 137.953199 398.502112 
L 137.696308 398.377322 
L 137.43747 398.256624 
L 137.17675 398.140048 
L 136.914212 398.027623 
L 136.649924 397.919377 
L 136.383952 397.815339 
L 136.116363 397.715533 
L 135.847223 397.619985 
L 135.576602 397.52872 
L 135.304567 397.44176 
L 135.031186 397.359126 
L 134.756529 397.280841 
L 134.480664 397.206923 
L 134.203661 397.137392 
L 133.92559 397.072264 
L 133.64652 397.011556 
L 133.366522 396.955283 
L 133.085667 396.90346 
L 132.804025 396.8561 
L 132.521667 396.813214 
L 132.238664 396.774813 
L 131.955088 396.740908 
L 131.671009 396.711505 
L 131.386499 396.686614 
L 131.101631 396.66624 
L 130.816474 396.650388 
L 130.531103 396.639062 
L 130.245587 396.632266 
L 129.96 396.63 
L 93.96 396.63 
L 93.674413 396.632266 
L 93.388897 396.639062 
L 93.103526 396.650388 
L 92.818369 396.66624 
L 92.533501 396.686614 
L 92.248991 396.711505 
L 91.964912 396.740908 
L 91.681336 396.774813 
L 91.398333 396.813214 
L 91.115975 396.8561 
L 90.834333 396.90346 
L 90.553478 396.955283 
L 90.27348 397.011556 
L 89.99441 397.072264 
L 89.716339 397.137392 
L 89.439336 397.206923 
L 89.163471 397.280841 
L 88.888814 397.359126 
L 88.615433 397.44176 
L 88.343398 397.52872 
L 88.072777 397.619985 
L 87.803637 397.715533 
L 87.536048 397.815339 
L 87.270076 397.919377 
L 87.005788 398.027623 
L 86.74325 398.140048 
L 86.48253 398.256624 
L 86.223692 398.377322 
L 85.966801 398.502112 
L 85.711923 398.630962 
L 85.459121 398.763839 
L 85.208459 398.900711 
L 84.96 399.041543 
L 84.713807 399.186299 
L 84.469942 399.334942 
L 84.228465 399.487436 
L 83.989439 399.643743 
L 83.752922 399.803822 
L 83.518976 399.967633 
L 83.287657 400.135135 
L 83.059026 400.306287 
L 82.833138 400.481044 
L 82.610052 400.659364 
L 82.389823 400.8412 
L 82.172507 401.026508 
L 81.958158 401.21524 
L 81.746831 401.407349 
L 81.538578 401.602787 
L 81.333452 401.801505 
L 81.131505 402.003452 
L 80.932787 402.208578 
L 80.737349 402.416831 
L 80.54524 402.628158 
L 80.356508 402.842507 
L 80.1712 403.059823 
L 79.989364 403.280052 
L 79.811044 403.503138 
L 79.636287 403.729026 
L 79.465135 403.957657 
L 79.297633 404.188976 
L 79.133822 404.422922 
L 78.973743 404.659439 
L 78.817436 404.898465 
L 78.664942 405.139942 
L 78.516299 405.383807 
L 78.371543 405.63 
L 78.230711 405.878459 
L 78.093839 406.129121 
L 77.960962 406.381923 
L 77.832112 406.636801 
L 77.707322 406.893692 
L 77.586624 407.15253 
L 77.470048 407.41325 
L 77.357623 407.675788 
L 77.249377 407.940076 
L 77.145339 408.206048 
L 77.045533 408.473637 
L 76.949985 408.742777 
L 76.85872 409.013398 
L 76.77176 409.285433 
L 76.689126 409.558814 
L 76.610841 409.833471 
L 76.536923 410.109336 
L 76.467392 410.386339 
L 76.402264 410.66441 
L 76.341556 410.94348 
L 76.285283 411.223478 
L 76.23346 411.504333 
L 76.1861 411.785975 
L 76.143214 412.068333 
L 76.104813 412.351336 
L 76.070908 412.634912 
L 76.041505 412.918991 
L 76.016614 413.203501 
L 75.99624 413.488369 
L 75.980388 413.773526 
L 75.969062 414.058897 
L 75.962266 414.344413 
L 75.96 414.63 
L 75.96 414.63 
L 75.962266 414.915587 
L 75.969062 415.201103 
L 75.980388 415.486474 
L 75.99624 415.771631 
L 76.016614 416.056499 
L 76.041505 416.341009 
L 76.070908 416.625088 
L 76.104813 416.908664 
L 76.143214 417.191667 
L 76.1861 417.474025 
L 76.23346 417.755667 
L 76.285283 418.036522 
L 76.341556 418.31652 
L 76.402264 418.59559 
L 76.467392 418.873661 
L 76.536923 419.150664 
L 76.610841 419.426529 
L 76.689126 419.701186 
L 76.77176 419.974567 
L 76.85872 420.246602 
L 76.949985 420.517223 
L 77.045533 420.786363 
L 77.145339 421.053952 
L 77.249377 421.319924 
L 77.357623 421.584212 
L 77.470048 421.84675 
L 77.586624 422.10747 
L 77.707322 422.366308 
L 77.832112 422.623199 
L 77.960962 422.878077 
L 78.093839 423.130879 
L 78.230711 423.381541 
L 78.371543 423.63 
L 78.516299 423.876193 
L 78.664942 424.120058 
L 78.817436 424.361535 
L 78.973743 424.600561 
L 79.133822 424.837078 
L 79.297633 425.071024 
L 79.465135 425.302343 
L 79.636287 425.530974 
L 79.811044 425.756862 
L 79.989364 425.979948 
L 80.1712 426.200177 
L 80.356508 426.417493 
L 80.54524 426.631842 
L 80.737349 426.843169 
L 80.932787 427.051422 
L 81.131505 427.256548 
L 81.333452 427.458495 
L 81.538578 427.657213 
L 81.746831 427.852651 
L 81.958158 428.04476 
L 82.172507 428.233492 
L 82.389823 428.4188 
L 82.610052 428.600636 
L 82.833138 428.778956 
L 83.059026 428.953713 
L 83.287657 429.124865 
L 83.518976 429.292367 
L 83.752922 429.456178 
L 83.989439 429.616257 
L 84.228465 429.772564 
L 84.469942 429.925058 
L 84.713807 430.073701 
L 84.96 430.218457 
L 85.208459 430.359289 
L 85.459121 430.496161 
L 85.711923 430.629038 
L 85.966801 430.757888 
L 86.223692 430.882678 
L 86.48253 431.003376 
L 86.74325 431.119952 
L 87.005788 431.232377 
L 87.270076 431.340623 
L 87.536048 431.444661 
L 87.803637 431.544467 
L 88.072777 431.640015 
L 88.343398 431.73128 
L 88.615433 431.81824 
L 88.888814 431.900874 
L 89.163471 431.979159 
L 89.439336 432.053077 
L 89.716339 432.122608 
L 89.99441 432.187736 
L 90.27348 432.248444 
L 90.553478 432.304717 
L 90.834333 432.35654 
L 91.115975 432.4039 
L 91.398333 432.446786 
L 91.681336 432.485187 
L 91.964912 432.519092 
L 92.248991 432.548495 
L 92.533501 432.573386 
L 92.818369 432.59376 
L 93.103526 432.609612 
L 93.388897 432.620938 
L 93.674413 432.627734 
L 93.96 432.63 
L 129.96 432.63 
z
" clip-path="url(#p44f4193040)" style="fill: none; stroke: #000000; stroke-linecap: round"/>
   </g>
   <g id="line2d_1">
    <path d="M 111.96 60.03 
L 111.96 73.53 
L 111.96 78.03 
" clip-path="url(#p44f4193040)" style="fill: none; stroke: #000000; stroke-linecap: round"/>
   </g>
   <g id="patch_8">
    <path d="M 114.66 78.03 
L 111.96 87.03 
L 109.26 78.03 
z
" clip-path="url(#p44f4193040)"/>
   </g>
   <g id="line2d_2">
    <path d="M 39.96 105.03 
L 39.96 87.03 
L 183.96 87.03 
L 183.96 123.03 
L 39.96 123.03 
L 39.96 105.03 
" clip-path="url(#p44f4193040)" style="fill: none; stroke: #000000; stroke-linecap: round"/>
   </g>
   <g id="line2d_3">
    <path d="M 111.96 123.03 
L 111.96 136.53 
L 111.96 141.03 
" clip-path="url(#p44f4193040)" style="fill: none; stroke: #000000; stroke-linecap: round"/>
   </g>
   <g id="patch_9">
    <path d="M 114.66 141.03 
L 111.96 150.03 
L 109.26 141.03 
z
" clip-path="url(#p44f4193040)"/>
   </g>
   <g id="line2d_4">
    <path d="M 201.96 173.43 
L 228.96 173.43 
L 246.96 173.43 
" clip-path="url(#p44f4193040)" style="fill: none; stroke: #000000; stroke-linecap: round"/>
   </g>
   <g id="patch_10">
    <path d="M 246.96 170.73 
L 255.96 173.43 
L 246.96 176.13 
z
" clip-path="url(#p44f4193040)"/>
   </g>
   <g id="line2d_5">
    <path d="M 255.96 173.43 
L 255.96 155.43 
L 389.16 155.43 
L 389.16 191.43 
L 255.96 191.43 
L 255.96 173.43 
" clip-path="url(#p44f4193040)" style="fill: none; stroke: #000000; stroke-linecap: round"/>
   </g>
   <g id="line2d_6">
    <path d="M 322.56 191.43 
L 322.56 202.23 
L 322.56 204.03 
" clip-path="url(#p44f4193040)" style="fill: none; stroke: #000000; stroke-linecap: round"/>
   </g>
   <g id="patch_11">
    <path d="M 325.26 204.03 
L 322.56 213.03 
L 319.86 204.03 
z
" clip-path="url(#p44f4193040)"/>
   </g>
   <g id="line2d_7">
    <path d="M 111.96 196.83 
L 111.96 223.83 
L 111.96 241.83 
" clip-path="url(#p44f4193040)" style="fill: none; stroke: #000000; stroke-linecap: round"/>
   </g>
   <g id="patch_12">
    <path d="M 114.66 241.83 
L 111.96 250.83 
L 109.26 241.83 
z
" clip-path="url(#p44f4193040)"/>
   </g>
   <g id="line2d_8">
    <path d="M 201.96 274.23 
L 228.96 274.23 
L 246.96 274.23 
" clip-path="url(#p44f4193040)" style="fill: none; stroke: #000000; stroke-linecap: round"/>
   </g>
   <g id="patch_13">
    <path d="M 246.96 271.53 
L 255.96 274.23 
L 246.96 276.93 
z
" clip-path="url(#p44f4193040)"/>
   </g>
   <g id="line2d_9">
    <path d="M 255.96 274.23 
L 255.96 256.23 
L 389.16 256.23 
L 389.16 292.23 
L 255.96 292.23 
L 255.96 274.23 
" clip-path="url(#p44f4193040)" style="fill: none; stroke: #000000; stroke-linecap: round"/>
   </g>
   <g id="line2d_10">
    <path d="M 322.56 292.23 
L 322.56 303.03 
L 322.56 304.83 
" clip-path="url(#p44f4193040)" style="fill: none; stroke: #000000; stroke-linecap: round"/>
   </g>
   <g id="patch_14">
    <path d="M 325.26 304.83 
L 322.56 313.83 
L 319.86 304.83 
z
" clip-path="url(#p44f4193040)"/>
   </g>
   <g id="line2d_11">
    <path d="M 111.96 297.63 
L 111.96 315.63 
L 111.96 324.63 
" clip-path="url(#p44f4193040)" style="fill: none; stroke: #000000; stroke-linecap: round"/>
   </g>
   <g id="patch_15">
    <path d="M 114.66 324.63 
L 111.96 333.63 
L 109.26 324.63 
z
" clip-path="url(#p44f4193040)"/>
   </g>
   <g id="line2d_12">
    <path d="M 45.36 351.63 
L 45.36 333.63 
L 178.56 333.63 
L 178.56 369.63 
L 45.36 369.63 
L 45.36 351.63 
" clip-path="url(#p44f4193040)" style="fill: none; stroke: #000000; stroke-linecap: round"/>
   </g>
   <g id="line2d_13">
    <path d="M 111.96 369.63 
L 111.96 383.13 
L 111.96 387.63 
" clip-path="url(#p44f4193040)" style="fill: none; stroke: #000000; stroke-linecap: round"/>
   </g>
   <g id="patch_16">
    <path d="M 114.66 387.63 
L 111.96 396.63 
L 109.26 387.63 
z
" clip-path="url(#p44f4193040)"/>
   </g>
   <g id="text_1">
    <!-- START -->
    <g transform="translate(92.783242 45.524141) scale(0.125 -0.125)">
     <defs>
      <path id="IPAexGothic-53" d="M 2919 3641 
Q 2563 4259 1853 4259 
Q 1453 4259 1213 4009 
Q 1028 3803 1028 3534 
Q 1028 3238 1266 3047 
Q 1444 2913 1984 2688 
L 2200 2597 
Q 2925 2306 3191 1953 
Q 3422 1644 3422 1259 
Q 3422 644 2969 288 
Q 2559 -31 1931 -31 
Q 881 -31 313 766 
L 753 1100 
Q 1203 459 1938 459 
Q 2288 459 2534 625 
Q 2841 847 2841 1216 
Q 2841 1503 2616 1728 
Q 2375 1959 1728 2206 
L 1541 2278 
Q 453 2694 453 3481 
Q 453 4006 806 4347 
Q 1203 4725 1863 4725 
Q 2841 4725 3359 3956 
L 2919 3641 
z
" transform="scale(0.015625)"/>
      <path id="IPAexGothic-54" d="M 3866 4141 
L 2175 4141 
L 2175 63 
L 1606 63 
L 1606 4141 
L -31 4141 
L -31 4634 
L 3866 4634 
L 3866 4141 
z
" transform="scale(0.015625)"/>
      <path id="IPAexGothic-41" d="M 4056 63 
L 3444 63 
L 2938 1409 
L 1100 1409 
L 603 63 
L -6 63 
L 1806 4666 
L 2259 4666 
L 4056 63 
z
M 2778 1863 
L 2316 3078 
Q 2125 3588 2028 4000 
L 2009 4000 
Q 1897 3563 1716 3078 
L 1263 1863 
L 2778 1863 
z
" transform="scale(0.015625)"/>
      <path id="IPAexGothic-52" d="M 4072 63 
L 3394 63 
Q 3138 641 2828 1197 
Q 2584 1641 2344 1825 
Q 2050 2044 1625 2044 
L 1172 2044 
L 1172 63 
L 609 63 
L 609 4634 
L 2009 4634 
Q 2713 4634 3131 4378 
Q 3688 4044 3688 3381 
Q 3688 2784 3181 2459 
Q 2906 2272 2522 2216 
L 2522 2197 
Q 2941 2050 3247 1581 
Q 3516 1166 4072 63 
z
M 1172 2478 
L 1869 2478 
Q 3106 2478 3106 3369 
Q 3106 4181 1928 4181 
L 1172 4181 
L 1172 2478 
z
" transform="scale(0.015625)"/>
     </defs>
     <use xlink:href="#IPAexGothic-53"/>
     <use xlink:href="#IPAexGothic-54" x="58.496094"/>
     <use xlink:href="#IPAexGothic-41" x="118.408203"/>
     <use xlink:href="#IPAexGothic-52" x="182.128906"/>
     <use xlink:href="#IPAexGothic-54" x="246.923828"/>
    </g>
   </g>
   <g id="text_2">
    <!-- change_in_gdp = 200 -->
    <g transform="translate(48.141641 108.488008) scale(0.125 -0.125)">
     <defs>
      <path id="IPAexGothic-63" d="M 3269 784 
Q 2834 -31 1900 -31 
Q 1228 -31 788 409 
Q 313 891 313 1663 
Q 313 2428 788 2913 
Q 1222 3347 1881 3347 
Q 2813 3347 3206 2541 
L 2763 2309 
Q 2484 2900 1900 2900 
Q 1516 2900 1234 2619 
Q 881 2266 881 1650 
Q 881 1069 1222 728 
Q 1522 428 1956 428 
Q 2547 428 2847 1016 
L 3269 784 
z
" transform="scale(0.015625)"/>
      <path id="IPAexGothic-68" d="M 3347 63 
L 2797 63 
L 2797 2041 
Q 2797 2853 2131 2853 
Q 1447 2853 1131 2041 
L 1131 63 
L 581 63 
L 581 4794 
L 1131 4794 
L 1131 2706 
Q 1566 3316 2247 3316 
Q 3347 3316 3347 2072 
L 3347 63 
z
" transform="scale(0.015625)"/>
      <path id="IPAexGothic-61" d="M 3156 63 
L 2672 63 
Q 2559 303 2531 556 
L 2509 556 
Q 2147 -25 1428 -25 
Q 934 -25 622 288 
Q 347 563 347 959 
Q 347 1947 2050 1997 
L 2478 2009 
L 2478 2175 
Q 2478 2509 2288 2700 
Q 2088 2900 1775 2900 
Q 1238 2900 969 2378 
L 494 2597 
Q 938 3328 1788 3328 
Q 2375 3328 2691 3000 
Q 2984 2706 2984 2169 
L 2984 997 
Q 2984 400 3156 63 
z
M 2491 1625 
L 2141 1619 
Q 903 1591 903 953 
Q 903 728 1050 581 
Q 1231 403 1525 403 
Q 1934 403 2234 703 
Q 2491 969 2491 1344 
L 2491 1625 
z
" transform="scale(0.015625)"/>
      <path id="IPAexGothic-6e" d="M 3328 63 
L 2778 63 
L 2778 2041 
Q 2778 2853 2106 2853 
Q 1428 2853 1113 2041 
L 1113 63 
L 563 63 
L 563 3250 
L 1075 3250 
L 1075 2675 
Q 1525 3316 2222 3316 
Q 3328 3316 3328 2072 
L 3328 63 
z
" transform="scale(0.015625)"/>
      <path id="IPAexGothic-67" d="M 1331 1150 
Q 1006 1122 1006 900 
Q 1006 613 1763 575 
L 2131 556 
Q 3303 497 3303 -294 
Q 3303 -700 2925 -959 
Q 2519 -1253 1794 -1253 
Q 1138 -1253 738 -1028 
Q 353 -809 353 -428 
Q 353 84 1075 247 
L 1075 269 
Q 506 413 506 778 
Q 506 1116 994 1297 
Q 456 1575 456 2181 
Q 456 2650 769 2963 
Q 1128 3322 1738 3322 
Q 2125 3322 2422 3153 
Q 2650 3453 3259 3463 
L 3259 3013 
Q 2838 3003 2703 2938 
Q 3034 2613 3034 2169 
Q 3034 1728 2734 1425 
Q 2400 1094 1813 1094 
Q 1563 1094 1331 1150 
z
M 1734 2919 
Q 1409 2919 1197 2706 
Q 988 2497 988 2181 
Q 988 1872 1184 1684 
Q 1397 1472 1756 1472 
Q 2094 1472 2297 1678 
Q 2503 1881 2503 2203 
Q 2503 2497 2297 2700 
Q 2081 2919 1734 2919 
z
M 1753 159 
Q 903 159 903 -366 
Q 903 -875 1800 -875 
Q 2378 -875 2638 -606 
Q 2772 -481 2772 -313 
Q 2772 159 1753 159 
z
" transform="scale(0.015625)"/>
      <path id="IPAexGothic-65" d="M 863 1594 
Q 891 1041 1209 722 
Q 1534 397 1997 397 
Q 2606 397 2963 966 
L 3322 728 
Q 2869 -31 1931 -31 
Q 1222 -31 766 422 
Q 306 884 306 1641 
Q 306 2444 788 2925 
Q 1216 3353 1856 3353 
Q 2459 3353 2866 2956 
Q 3322 2494 3322 1722 
L 3322 1594 
L 863 1594 
z
M 2756 1997 
Q 2709 2431 2450 2681 
Q 2194 2938 1844 2938 
Q 1438 2938 1150 2591 
Q 953 2356 894 1997 
L 2756 1997 
z
" transform="scale(0.015625)"/>
      <path id="IPAexGothic-5f" d="M 3200 -750 
L 0 -750 
L 0 -431 
L 3200 -431 
L 3200 -750 
z
" transform="scale(0.015625)"/>
      <path id="IPAexGothic-69" d="M 1178 3928 
L 550 3928 
L 550 4569 
L 1178 4569 
L 1178 3928 
z
M 1138 63 
L 588 63 
L 588 3250 
L 1138 3250 
L 1138 63 
z
" transform="scale(0.015625)"/>
      <path id="IPAexGothic-64" d="M 3391 63 
L 2891 63 
L 2891 619 
Q 2441 -31 1753 -31 
Q 1181 -31 788 372 
Q 313 844 313 1663 
Q 313 2466 772 2938 
Q 1169 3341 1753 3341 
Q 2384 3341 2847 2809 
L 2847 4794 
L 3391 4794 
L 3391 63 
z
M 2847 1303 
L 2847 2097 
Q 2847 2413 2456 2706 
Q 2181 2906 1853 2906 
Q 1484 2906 1228 2650 
Q 888 2309 888 1678 
Q 888 1109 1169 750 
Q 1441 409 1847 409 
Q 2322 409 2656 875 
Q 2847 1134 2847 1303 
z
" transform="scale(0.015625)"/>
      <path id="IPAexGothic-70" d="M 1075 2688 
Q 1525 3341 2206 3341 
Q 2769 3341 3172 2938 
Q 3641 2469 3641 1644 
Q 3641 841 3178 372 
Q 2775 -31 2200 -31 
Q 1569 -31 1106 497 
L 1106 -1216 
L 563 -1216 
L 563 3250 
L 1075 3250 
L 1075 2688 
z
M 1106 1950 
L 1106 1291 
Q 1106 897 1516 600 
Q 1791 403 2106 403 
Q 2469 403 2725 659 
Q 3066 997 3066 1631 
Q 3066 2200 2784 2559 
Q 2503 2900 2100 2900 
Q 1656 2900 1338 2484 
Q 1106 2184 1106 1950 
z
" transform="scale(0.015625)"/>
      <path id="IPAexGothic-20" transform="scale(0.015625)"/>
      <path id="IPAexGothic-3d" d="M 416 2803 
L 3922 2803 
L 3922 2438 
L 416 2438 
L 416 2803 
z
M 416 1625 
L 3922 1625 
L 3922 1259 
L 416 1259 
L 416 1625 
z
" transform="scale(0.015625)"/>
      <path id="IPAexGothic-32" d="M 3659 63 
L 447 63 
L 447 594 
Q 825 1475 1894 2203 
L 2072 2322 
Q 2619 2697 2791 2906 
Q 2988 3153 2988 3444 
Q 2988 3772 2756 4003 
Q 2500 4259 2084 4259 
Q 1250 4259 991 3328 
L 497 3506 
Q 853 4725 2116 4725 
Q 2806 4725 3216 4316 
Q 3575 3947 3575 3425 
Q 3575 3038 3344 2722 
Q 3131 2416 2366 1938 
L 2231 1856 
Q 1256 1253 978 569 
L 3659 569 
L 3659 63 
z
" transform="scale(0.015625)"/>
      <path id="IPAexGothic-30" d="M 2038 4725 
Q 2881 4725 3334 3944 
Q 3694 3325 3694 2344 
Q 3694 1372 3334 741 
Q 2888 -31 2016 -31 
Q 1147 -31 700 741 
Q 341 1372 341 2350 
Q 341 3713 1000 4334 
Q 1419 4725 2038 4725 
z
M 2016 4266 
Q 1516 4266 1228 3759 
Q 934 3247 934 2344 
Q 934 1456 1222 947 
Q 1513 447 2016 447 
Q 2619 447 2909 1153 
Q 3100 1622 3100 2375 
Q 3100 3256 2806 3759 
Q 2509 4266 2016 4266 
z
" transform="scale(0.015625)"/>
     </defs>
     <use xlink:href="#IPAexGothic-63"/>
     <use xlink:href="#IPAexGothic-68" x="54.394531"/>
     <use xlink:href="#IPAexGothic-61" x="115.087891"/>
     <use xlink:href="#IPAexGothic-6e" x="170.068359"/>
     <use xlink:href="#IPAexGothic-67" x="230.46875"/>
     <use xlink:href="#IPAexGothic-65" x="285.986328"/>
     <use xlink:href="#IPAexGothic-5f" x="342.871094"/>
     <use xlink:href="#IPAexGothic-69" x="392.871094"/>
     <use xlink:href="#IPAexGothic-6e" x="419.873047"/>
     <use xlink:href="#IPAexGothic-5f" x="480.273438"/>
     <use xlink:href="#IPAexGothic-67" x="530.273438"/>
     <use xlink:href="#IPAexGothic-64" x="585.791016"/>
     <use xlink:href="#IPAexGothic-70" x="648.193359"/>
     <use xlink:href="#IPAexGothic-20" x="710.302734"/>
     <use xlink:href="#IPAexGothic-3d" x="737.304688"/>
     <use xlink:href="#IPAexGothic-20" x="805.126953"/>
     <use xlink:href="#IPAexGothic-32" x="832.128906"/>
     <use xlink:href="#IPAexGothic-30" x="895.117188"/>
     <use xlink:href="#IPAexGothic-30" x="958.105469"/>
    </g>
   </g>
   <g id="text_3">
    <!-- False -->
    <g transform="translate(116.64 210.873281) scale(0.125 -0.125)">
     <defs>
      <path id="IPAexGothic-46" d="M 3469 4141 
L 1172 4141 
L 1172 2656 
L 3206 2656 
L 3206 2188 
L 1172 2188 
L 1172 63 
L 609 63 
L 609 4634 
L 3469 4634 
L 3469 4141 
z
" transform="scale(0.015625)"/>
      <path id="IPAexGothic-6c" d="M 1131 63 
L 581 63 
L 581 4794 
L 1131 4794 
L 1131 63 
z
" transform="scale(0.015625)"/>
      <path id="IPAexGothic-73" d="M 2234 2547 
Q 1938 2931 1484 2931 
Q 891 2931 891 2475 
Q 891 2153 1531 1944 
L 1741 1875 
Q 2650 1578 2650 894 
Q 2650 434 2272 172 
Q 1972 -31 1497 -31 
Q 766 -31 256 503 
L 603 819 
Q 997 397 1516 397 
Q 2131 397 2131 875 
Q 2131 1238 1453 1478 
L 1234 1553 
Q 378 1853 378 2431 
Q 378 2797 628 3047 
Q 928 3347 1453 3347 
Q 2156 3347 2606 2859 
L 2234 2547 
z
" transform="scale(0.015625)"/>
     </defs>
     <use xlink:href="#IPAexGothic-46"/>
     <use xlink:href="#IPAexGothic-61" x="57.177734"/>
     <use xlink:href="#IPAexGothic-6c" x="112.158203"/>
     <use xlink:href="#IPAexGothic-73" x="139.160156"/>
     <use xlink:href="#IPAexGothic-65" x="185.351562"/>
    </g>
   </g>
   <g id="text_4">
    <!-- True -->
    <g transform="translate(206.64 166.375) scale(0.125 -0.125)">
     <defs>
      <path id="IPAexGothic-72" d="M 2309 3316 
L 2213 2769 
Q 2106 2791 2022 2791 
Q 1653 2791 1413 2444 
Q 1113 2006 1113 1675 
L 1113 63 
L 563 63 
L 563 3250 
L 1081 3250 
L 1056 2303 
L 1069 2303 
Q 1422 3341 2097 3341 
Q 2206 3341 2309 3316 
z
" transform="scale(0.015625)"/>
      <path id="IPAexGothic-75" d="M 3284 63 
L 2772 63 
L 2772 644 
Q 2300 0 1625 0 
Q 1072 0 763 375 
Q 519 678 519 1241 
L 519 3250 
L 1069 3250 
L 1069 1259 
Q 1069 466 1734 466 
Q 2406 466 2734 1291 
L 2734 3250 
L 3284 3250 
L 3284 63 
z
" transform="scale(0.015625)"/>
     </defs>
     <use xlink:href="#IPAexGothic-54"/>
     <use xlink:href="#IPAexGothic-72" x="59.912109"/>
     <use xlink:href="#IPAexGothic-75" x="96.923828"/>
     <use xlink:href="#IPAexGothic-65" x="157.324219"/>
    </g>
   </g>
   <g id="text_5">
    <!-- change_in_gdp &gt; 0 ? -->
    <g transform="translate(50.884805 176.888008) scale(0.125 -0.125)">
     <defs>
      <path id="IPAexGothic-3e" d="M 3444 2028 
L 409 3450 
L 569 3794 
L 3928 2175 
L 3928 1881 
L 569 263 
L 409 609 
L 3444 2028 
z
" transform="scale(0.015625)"/>
      <path id="IPAexGothic-3f" d="M 225 3425 
Q 503 4725 1763 4725 
Q 2413 4725 2803 4334 
Q 3144 3994 3144 3516 
Q 3144 3081 2838 2716 
Q 2703 2563 2344 2266 
L 2216 2156 
Q 1888 1878 1888 1363 
L 1888 1209 
L 1422 1209 
L 1422 1422 
Q 1422 2050 1881 2491 
L 2022 2625 
L 2075 2669 
Q 2575 3122 2575 3516 
Q 2575 3822 2363 4041 
Q 2128 4278 1763 4278 
Q 963 4278 725 3309 
L 225 3425 
z
M 1978 63 
L 1325 63 
L 1325 728 
L 1978 728 
L 1978 63 
z
" transform="scale(0.015625)"/>
     </defs>
     <use xlink:href="#IPAexGothic-63"/>
     <use xlink:href="#IPAexGothic-68" x="54.394531"/>
     <use xlink:href="#IPAexGothic-61" x="115.087891"/>
     <use xlink:href="#IPAexGothic-6e" x="170.068359"/>
     <use xlink:href="#IPAexGothic-67" x="230.46875"/>
     <use xlink:href="#IPAexGothic-65" x="285.986328"/>
     <use xlink:href="#IPAexGothic-5f" x="342.871094"/>
     <use xlink:href="#IPAexGothic-69" x="392.871094"/>
     <use xlink:href="#IPAexGothic-6e" x="419.873047"/>
     <use xlink:href="#IPAexGothic-5f" x="480.273438"/>
     <use xlink:href="#IPAexGothic-67" x="530.273438"/>
     <use xlink:href="#IPAexGothic-64" x="585.791016"/>
     <use xlink:href="#IPAexGothic-70" x="648.193359"/>
     <use xlink:href="#IPAexGothic-20" x="710.302734"/>
     <use xlink:href="#IPAexGothic-3e" x="737.304688"/>
     <use xlink:href="#IPAexGothic-20" x="805.126953"/>
     <use xlink:href="#IPAexGothic-30" x="832.128906"/>
     <use xlink:href="#IPAexGothic-20" x="895.117188"/>
     <use xlink:href="#IPAexGothic-3f" x="922.119141"/>
    </g>
   </g>
   <g id="text_6">
    <!-- print('GDP') -->
    <g transform="translate(270.097109 177.424141) scale(0.125 -0.125)">
     <defs>
      <path id="IPAexGothic-74" d="M 2125 241 
Q 1769 -6 1397 -6 
Q 653 -6 653 831 
L 653 2859 
L 219 2859 
L 219 3250 
L 653 3250 
L 653 3966 
L 1178 4228 
L 1178 3250 
L 2063 3250 
L 2063 2859 
L 1178 2859 
L 1178 906 
Q 1178 416 1513 416 
Q 1738 416 1941 588 
L 2125 241 
z
" transform="scale(0.015625)"/>
      <path id="IPAexGothic-28" d="M 1928 -1016 
L 1653 -1166 
Q 488 69 488 1875 
Q 488 3678 1653 4909 
L 1928 4763 
Q 1006 3522 1006 1881 
Q 1006 203 1928 -1016 
z
" transform="scale(0.015625)"/>
      <path id="IPAexGothic-27" d="M 900 4794 
L 806 3084 
L 422 3084 
L 325 4794 
L 900 4794 
z
" transform="scale(0.015625)"/>
      <path id="IPAexGothic-47" d="M 4403 781 
Q 4172 494 3731 250 
Q 3209 -31 2591 -31 
Q 1606 -31 988 628 
Q 378 1275 378 2325 
Q 378 3406 1013 4078 
Q 1619 4725 2534 4725 
Q 3800 4725 4325 3628 
L 3816 3391 
Q 3422 4238 2541 4238 
Q 1891 4238 1453 3744 
Q 994 3216 994 2328 
Q 994 1531 1397 1022 
Q 1844 459 2625 459 
Q 3459 459 3878 966 
L 3878 1856 
L 2859 1856 
L 2859 2291 
L 4403 2291 
L 4403 781 
z
" transform="scale(0.015625)"/>
      <path id="IPAexGothic-44" d="M 609 4634 
L 1984 4634 
Q 3159 4634 3791 4050 
Q 4456 3444 4456 2356 
Q 4456 1047 3516 441 
Q 2925 63 1941 63 
L 609 63 
L 609 4634 
z
M 1172 556 
L 1894 556 
Q 3853 556 3853 2356 
Q 3853 4147 1928 4147 
L 1172 4147 
L 1172 556 
z
" transform="scale(0.015625)"/>
      <path id="IPAexGothic-50" d="M 609 4634 
L 1941 4634 
Q 3688 4634 3688 3322 
Q 3688 1934 1906 1934 
L 1172 1934 
L 1172 63 
L 609 63 
L 609 4634 
z
M 1172 2381 
L 1800 2381 
Q 3100 2381 3100 3316 
Q 3100 4181 1894 4181 
L 1172 4181 
L 1172 2381 
z
" transform="scale(0.015625)"/>
      <path id="IPAexGothic-306f" d="M 4066 4875 
L 4538 4875 
L 4556 3769 
Q 5003 3816 5581 3941 
L 5619 3469 
Q 5256 3394 4563 3322 
L 4597 1441 
Q 5100 1284 5934 756 
L 5656 313 
Q 5066 772 4609 978 
Q 4609 441 4384 225 
Q 4128 -13 3634 -13 
Q 2991 -13 2669 231 
Q 2388 444 2388 831 
Q 2388 1225 2772 1484 
Q 3050 1669 3534 1669 
Q 3759 1669 4134 1594 
L 4097 3288 
Q 3697 3269 3359 3269 
Q 2925 3269 2484 3300 
L 2466 3763 
Q 2953 3716 3456 3716 
Q 3738 3716 4091 3738 
L 4066 4875 
z
M 4141 1153 
Q 3753 1259 3513 1259 
Q 2841 1259 2841 850 
Q 2841 422 3634 422 
Q 3888 422 4022 569 
Q 4141 700 4141 922 
Q 4141 1088 4141 1153 
z
M 1000 -50 
Q 794 1072 794 1931 
Q 794 3153 1247 4884 
L 1728 4763 
Q 1269 3044 1269 1900 
Q 1269 1569 1306 1106 
Q 1591 1706 1753 1997 
L 2075 1806 
Q 1484 716 1484 141 
Q 1484 72 1491 0 
L 1000 -50 
z
" transform="scale(0.015625)"/>
      <path id="IPAexGothic-5897" d="M 1125 3719 
L 1125 5147 
L 1572 5147 
L 1572 3719 
L 2181 3719 
L 2181 3291 
L 1572 3291 
L 1572 1313 
Q 1931 1441 2256 1600 
L 2309 1184 
Q 1350 725 447 428 
L 275 891 
Q 784 1016 1125 1147 
L 1125 3291 
L 363 3291 
L 363 3719 
L 1125 3719 
z
M 3272 4434 
Q 3094 4838 2913 5106 
L 3347 5266 
Q 3600 4844 3750 4434 
L 4469 4434 
Q 4691 4872 4831 5306 
L 5306 5125 
Q 5116 4744 4934 4434 
L 5875 4434 
L 5875 2322 
L 2375 2322 
L 2375 4434 
L 3272 4434 
z
M 2803 4094 
L 2803 3566 
L 3897 3566 
L 3897 4094 
L 2803 4094 
z
M 2803 3241 
L 2803 2663 
L 3897 2663 
L 3897 3241 
L 2803 3241 
z
M 5447 2663 
L 5447 3241 
L 4313 3241 
L 4313 2663 
L 5447 2663 
z
M 5447 3566 
L 5447 4094 
L 4313 4094 
L 4313 3566 
L 5447 3566 
z
M 5631 1953 
L 5631 -447 
L 5203 -447 
L 5203 -159 
L 3084 -159 
L 3084 -447 
L 2650 -447 
L 2650 1953 
L 5631 1953 
z
M 3084 1600 
L 3084 1075 
L 5203 1075 
L 5203 1600 
L 3084 1600 
z
M 3084 744 
L 3084 188 
L 5203 188 
L 5203 744 
L 3084 744 
z
" transform="scale(0.015625)"/>
      <path id="IPAexGothic-52a0" d="M 1909 3603 
Q 1888 825 656 -428 
L 316 -56 
Q 1413 916 1463 3553 
L 450 3553 
L 450 3969 
L 1463 3969 
L 1463 5144 
L 1909 5144 
L 1909 4019 
L 3200 4019 
Q 3163 944 3016 219 
Q 2947 -88 2791 -197 
Q 2641 -288 2363 -288 
Q 2000 -288 1672 -228 
L 1603 256 
Q 1919 153 2241 153 
Q 2550 153 2600 500 
Q 2725 1353 2753 3309 
L 2753 3603 
L 1909 3603 
z
M 5819 4313 
L 5819 -306 
L 5378 -306 
L 5378 109 
L 4219 109 
L 4219 -366 
L 3778 -366 
L 3778 4313 
L 5819 4313 
z
M 4219 3897 
L 4219 525 
L 5378 525 
L 5378 3897 
L 4219 3897 
z
" transform="scale(0.015625)"/>
      <path id="IPAexGothic-29" d="M 466 4909 
Q 1638 3672 1638 1875 
Q 1638 75 466 -1166 
L 191 -1016 
Q 1119 216 1119 1881 
Q 1119 3509 191 4763 
L 466 4909 
z
" transform="scale(0.015625)"/>
     </defs>
     <use xlink:href="#IPAexGothic-70"/>
     <use xlink:href="#IPAexGothic-72" x="62.109375"/>
     <use xlink:href="#IPAexGothic-69" x="99.121094"/>
     <use xlink:href="#IPAexGothic-6e" x="126.123047"/>
     <use xlink:href="#IPAexGothic-74" x="186.523438"/>
     <use xlink:href="#IPAexGothic-28" x="221.142578"/>
     <use xlink:href="#IPAexGothic-27" x="254.443359"/>
     <use xlink:href="#IPAexGothic-47" x="273.730469"/>
     <use xlink:href="#IPAexGothic-44" x="349.023438"/>
     <use xlink:href="#IPAexGothic-50" x="424.707031"/>
     <use xlink:href="#IPAexGothic-306f" x="486.816406"/>
     <use xlink:href="#IPAexGothic-5897" x="586.816406"/>
     <use xlink:href="#IPAexGothic-52a0" x="686.816406"/>
     <use xlink:href="#IPAexGothic-27" x="786.816406"/>
     <use xlink:href="#IPAexGothic-29" x="806.103516"/>
    </g>
   </g>
   <g id="text_7">
    <!-- END -->
    <g transform="translate(309.360781 234.524141) scale(0.125 -0.125)">
     <defs>
      <path id="IPAexGothic-45" d="M 3547 63 
L 609 63 
L 609 4634 
L 3469 4634 
L 3469 4147 
L 1166 4147 
L 1166 2650 
L 3206 2650 
L 3206 2191 
L 1166 2191 
L 1166 556 
L 3547 556 
L 3547 63 
z
" transform="scale(0.015625)"/>
      <path id="IPAexGothic-4e" d="M 4244 63 
L 3731 63 
L 1697 3150 
Q 1466 3500 1141 4097 
L 1116 4097 
L 1128 3797 
Q 1159 2803 1159 2469 
L 1159 63 
L 609 63 
L 609 4634 
L 1366 4634 
L 3113 1978 
Q 3453 1447 3713 966 
L 3738 966 
Q 3694 1897 3694 2469 
L 3694 4634 
L 4244 4634 
L 4244 63 
z
" transform="scale(0.015625)"/>
     </defs>
     <use xlink:href="#IPAexGothic-45"/>
     <use xlink:href="#IPAexGothic-4e" x="59.521484"/>
     <use xlink:href="#IPAexGothic-44" x="135.498047"/>
    </g>
   </g>
   <g id="text_8">
    <!-- False -->
    <g transform="translate(116.64 311.673281) scale(0.125 -0.125)">
     <use xlink:href="#IPAexGothic-46"/>
     <use xlink:href="#IPAexGothic-61" x="57.177734"/>
     <use xlink:href="#IPAexGothic-6c" x="112.158203"/>
     <use xlink:href="#IPAexGothic-73" x="139.160156"/>
     <use xlink:href="#IPAexGothic-65" x="185.351562"/>
    </g>
   </g>
   <g id="text_9">
    <!-- True -->
    <g transform="translate(206.64 267.175) scale(0.125 -0.125)">
     <use xlink:href="#IPAexGothic-54"/>
     <use xlink:href="#IPAexGothic-72" x="59.912109"/>
     <use xlink:href="#IPAexGothic-75" x="96.923828"/>
     <use xlink:href="#IPAexGothic-65" x="157.324219"/>
    </g>
   </g>
   <g id="text_10">
    <!-- change_in_gdp &lt; 0 ? -->
    <g transform="translate(50.884805 277.688008) scale(0.125 -0.125)">
     <defs>
      <path id="IPAexGothic-3c" d="M 897 2028 
L 3928 609 
L 3769 263 
L 409 1881 
L 409 2175 
L 3769 3794 
L 3928 3450 
L 897 2028 
z
" transform="scale(0.015625)"/>
     </defs>
     <use xlink:href="#IPAexGothic-63"/>
     <use xlink:href="#IPAexGothic-68" x="54.394531"/>
     <use xlink:href="#IPAexGothic-61" x="115.087891"/>
     <use xlink:href="#IPAexGothic-6e" x="170.068359"/>
     <use xlink:href="#IPAexGothic-67" x="230.46875"/>
     <use xlink:href="#IPAexGothic-65" x="285.986328"/>
     <use xlink:href="#IPAexGothic-5f" x="342.871094"/>
     <use xlink:href="#IPAexGothic-69" x="392.871094"/>
     <use xlink:href="#IPAexGothic-6e" x="419.873047"/>
     <use xlink:href="#IPAexGothic-5f" x="480.273438"/>
     <use xlink:href="#IPAexGothic-67" x="530.273438"/>
     <use xlink:href="#IPAexGothic-64" x="585.791016"/>
     <use xlink:href="#IPAexGothic-70" x="648.193359"/>
     <use xlink:href="#IPAexGothic-20" x="710.302734"/>
     <use xlink:href="#IPAexGothic-3c" x="737.304688"/>
     <use xlink:href="#IPAexGothic-20" x="805.126953"/>
     <use xlink:href="#IPAexGothic-30" x="832.128906"/>
     <use xlink:href="#IPAexGothic-20" x="895.117188"/>
     <use xlink:href="#IPAexGothic-3f" x="922.119141"/>
    </g>
   </g>
   <g id="text_11">
    <!-- print('GDP') -->
    <g transform="translate(270.097109 278.224141) scale(0.125 -0.125)">
     <defs>
      <path id="IPAexGothic-6e1b" d="M 4531 1175 
Q 4263 2144 4184 3794 
L 2419 3794 
L 2419 2566 
Q 2419 1391 2309 741 
Q 2194 59 1844 -481 
L 1491 -156 
Q 1991 622 1991 2419 
L 1991 4172 
L 4172 4172 
L 4153 4469 
Q 4150 4556 4141 4816 
Q 4131 5156 4128 5306 
L 4563 5306 
Q 4575 4588 4594 4206 
L 5938 4206 
L 5938 3822 
L 4613 3822 
Q 4697 2419 4831 1706 
Q 5131 2281 5381 3250 
L 5791 3078 
Q 5466 1978 4991 1144 
Q 5125 753 5306 459 
Q 5391 325 5441 325 
Q 5556 325 5703 1259 
L 6106 947 
Q 5844 -353 5534 -353 
Q 5397 -353 5203 -150 
Q 4922 163 4697 697 
Q 4181 19 3513 -475 
L 3188 -141 
Q 4000 384 4531 1175 
z
M 4038 2431 
L 4038 903 
L 3066 903 
L 3066 506 
L 2694 506 
L 2694 2431 
L 4038 2431 
z
M 3066 2088 
L 3066 1247 
L 3659 1247 
L 3659 2088 
L 3066 2088 
z
M 1472 3872 
Q 963 4463 556 4769 
L 856 5100 
Q 1372 4728 1784 4250 
L 1472 3872 
z
M 1209 2375 
Q 781 2897 294 3256 
L 581 3603 
Q 1109 3213 1516 2759 
L 1209 2375 
z
M 331 -103 
Q 838 763 1172 1931 
L 1547 1644 
Q 1188 422 722 -441 
L 331 -103 
z
M 2609 3272 
L 4081 3272 
L 4081 2900 
L 2609 2900 
L 2609 3272 
z
M 5413 4281 
Q 5128 4753 4881 5019 
L 5259 5209 
Q 5566 4884 5803 4513 
L 5413 4281 
z
" transform="scale(0.015625)"/>
      <path id="IPAexGothic-5c11" d="M 2950 5147 
L 3444 5147 
L 3444 1894 
Q 3444 1597 3291 1472 
Q 3156 1375 2816 1375 
Q 2444 1375 2169 1416 
L 2081 1894 
Q 2472 1822 2738 1822 
Q 2950 1822 2950 2034 
L 2950 5147 
z
M 5613 2228 
Q 4884 3428 4172 4219 
L 4556 4488 
Q 5416 3538 6016 2559 
L 5613 2228 
z
M 581 2150 
Q 1350 3016 1675 4325 
L 2150 4184 
Q 1753 2741 972 1806 
L 581 2150 
z
M 997 25 
Q 3766 525 4691 2706 
L 5138 2503 
Q 4116 253 1319 -409 
L 997 25 
z
" transform="scale(0.015625)"/>
     </defs>
     <use xlink:href="#IPAexGothic-70"/>
     <use xlink:href="#IPAexGothic-72" x="62.109375"/>
     <use xlink:href="#IPAexGothic-69" x="99.121094"/>
     <use xlink:href="#IPAexGothic-6e" x="126.123047"/>
     <use xlink:href="#IPAexGothic-74" x="186.523438"/>
     <use xlink:href="#IPAexGothic-28" x="221.142578"/>
     <use xlink:href="#IPAexGothic-27" x="254.443359"/>
     <use xlink:href="#IPAexGothic-47" x="273.730469"/>
     <use xlink:href="#IPAexGothic-44" x="349.023438"/>
     <use xlink:href="#IPAexGothic-50" x="424.707031"/>
     <use xlink:href="#IPAexGothic-306f" x="486.816406"/>
     <use xlink:href="#IPAexGothic-6e1b" x="586.816406"/>
     <use xlink:href="#IPAexGothic-5c11" x="686.816406"/>
     <use xlink:href="#IPAexGothic-27" x="786.816406"/>
     <use xlink:href="#IPAexGothic-29" x="806.103516"/>
    </g>
   </g>
   <g id="text_12">
    <!-- END -->
    <g transform="translate(309.360781 335.324141) scale(0.125 -0.125)">
     <use xlink:href="#IPAexGothic-45"/>
     <use xlink:href="#IPAexGothic-4e" x="59.521484"/>
     <use xlink:href="#IPAexGothic-44" x="135.498047"/>
    </g>
   </g>
   <g id="text_13">
    <!-- print('GDP') -->
    <g transform="translate(59.497109 355.612422) scale(0.125 -0.125)">
     <defs>
      <path id="IPAexGothic-4e0d" d="M 3706 4309 
Q 3584 4078 3450 3863 
L 3425 3822 
L 3425 -447 
L 2925 -447 
L 2925 3113 
Q 1959 1919 697 1166 
L 372 1584 
Q 2197 2581 3138 4309 
L 513 4309 
L 513 4756 
L 5891 4756 
L 5891 4309 
L 3706 4309 
z
M 5588 1350 
Q 4669 2347 3681 3078 
L 4000 3413 
Q 5075 2675 5997 1753 
L 5588 1350 
z
" transform="scale(0.015625)"/>
      <path id="IPAexGothic-5909" d="M 2147 1253 
Q 1641 822 944 563 
L 672 900 
Q 1938 1391 2556 2394 
L 2972 2231 
Q 2847 2034 2747 1900 
L 4750 1900 
L 4969 1700 
Q 4422 984 3859 563 
Q 4650 241 6094 69 
L 5825 -366 
Q 4275 -125 3431 288 
Q 2441 -272 603 -538 
L 341 -134 
Q 2103 75 2997 538 
Q 2591 791 2184 1209 
L 2147 1253 
z
M 2434 1528 
L 2422 1516 
Q 2803 1106 3425 778 
Q 3888 1078 4269 1528 
L 2434 1528 
z
M 4059 4147 
L 4059 2650 
Q 4059 2272 3663 2272 
Q 3416 2272 3047 2309 
L 2963 2725 
Q 3241 2681 3431 2681 
Q 3631 2681 3631 2872 
L 3631 4147 
L 2822 4147 
Q 2766 3291 2503 2816 
Q 2191 2259 1503 1869 
L 1172 2156 
Q 1878 2572 2144 3066 
Q 2359 3456 2388 4147 
L 403 4147 
L 403 4544 
L 2938 4544 
L 2938 5294 
L 3419 5294 
L 3419 4544 
L 6000 4544 
L 6000 4147 
L 4059 4147 
z
M 5494 2363 
Q 4828 3150 4328 3584 
L 4672 3859 
Q 5266 3369 5878 2656 
L 5494 2363 
z
M 341 2528 
Q 1025 3022 1441 3775 
L 1844 3597 
Q 1406 2781 706 2241 
L 341 2528 
z
" transform="scale(0.015625)"/>
     </defs>
     <use xlink:href="#IPAexGothic-70"/>
     <use xlink:href="#IPAexGothic-72" x="62.109375"/>
     <use xlink:href="#IPAexGothic-69" x="99.121094"/>
     <use xlink:href="#IPAexGothic-6e" x="126.123047"/>
     <use xlink:href="#IPAexGothic-74" x="186.523438"/>
     <use xlink:href="#IPAexGothic-28" x="221.142578"/>
     <use xlink:href="#IPAexGothic-27" x="254.443359"/>
     <use xlink:href="#IPAexGothic-47" x="273.730469"/>
     <use xlink:href="#IPAexGothic-44" x="349.023438"/>
     <use xlink:href="#IPAexGothic-50" x="424.707031"/>
     <use xlink:href="#IPAexGothic-306f" x="486.816406"/>
     <use xlink:href="#IPAexGothic-4e0d" x="586.816406"/>
     <use xlink:href="#IPAexGothic-5909" x="686.816406"/>
     <use xlink:href="#IPAexGothic-27" x="786.816406"/>
     <use xlink:href="#IPAexGothic-29" x="806.103516"/>
    </g>
   </g>
   <g id="text_14">
    <!-- END -->
    <g transform="translate(98.760781 418.124141) scale(0.125 -0.125)">
     <use xlink:href="#IPAexGothic-45"/>
     <use xlink:href="#IPAexGothic-4e" x="59.521484"/>
     <use xlink:href="#IPAexGothic-44" x="135.498047"/>
    </g>
   </g>
  </g>
 </g>
 <defs>
  <clipPath id="p44f4193040">
   <rect x="3.6" y="3.6" width="403.92" height="449.46"/>
  </clipPath>
 </defs>
</svg>