<?xml version="1.0" encoding="utf-8" standalone="no"?>
<!DOCTYPE svg PUBLIC "-//W3C//DTD SVG 1.1//EN"
  "http://www.w3.org/Graphics/SVG/1.1/DTD/svg11.dtd">
<svg xmlns:xlink="http://www.w3.org/1999/xlink" width="385.38pt" height="363.6pt" viewBox="0 0 385.38 363.6" xmlns="http://www.w3.org/2000/svg" version="1.1">
 <metadata>
  <rdf:RDF xmlns:dc="http://purl.org/dc/elements/1.1/" xmlns:cc="http://creativecommons.org/ns#" xmlns:rdf="http://www.w3.org/1999/02/22-rdf-syntax-ns#">
   <cc:Work>
    <dc:type rdf:resource="http://purl.org/dc/dcmitype/StillImage"/>
    <dc:date>2024-03-07T23:59:31.284513</dc:date>
    <dc:format>image/svg+xml</dc:format>
    <dc:creator>
     <cc:Agent>
      <dc:title>Matplotlib v3.8.3, https://matplotlib.org/</dc:title>
     </cc:Agent>
    </dc:creator>
   </cc:Work>
  </rdf:RDF>
 </metadata>
 <defs>
  <style type="text/css">*{stroke-linejoin: round; stroke-linecap: butt}</style>
 </defs>
 <g id="figure_1">
  <g id="patch_1">
   <path d="M 0 363.6 
L 385.38 363.6 
L 385.38 -0 
L 0 -0 
z
" style="fill: #ffffff"/>
  </g>
  <g id="axes_1">
   <g id="patch_2">
    <path d="M 146.79 55.8 
L 147.075587 55.797734 
L 147.361103 55.790938 
L 147.646474 55.779612 
L 147.931631 55.76376 
L 148.216499 55.743386 
L 148.501009 55.718495 
L 148.785088 55.689092 
L 149.068664 55.655187 
L 149.351667 55.616786 
L 149.634025 55.5739 
L 149.915667 55.52654 
L 150.196522 55.474717 
L 150.47652 55.418444 
L 150.75559 55.357736 
L 151.033661 55.292608 
L 151.310664 55.223077 
L 151.586529 55.149159 
L 151.861186 55.070874 
L 152.134567 54.98824 
L 152.406602 54.90128 
L 152.677223 54.810015 
L 152.946363 54.714467 
L 153.213952 54.614661 
L 153.479924 54.510623 
L 153.744212 54.402377 
L 154.00675 54.289952 
L 154.26747 54.173376 
L 154.526308 54.052678 
L 154.783199 53.927888 
L 155.038077 53.799038 
L 155.290879 53.666161 
L 155.541541 53.529289 
L 155.79 53.388457 
L 156.036193 53.243701 
L 156.280058 53.095058 
L 156.521535 52.942564 
L 156.760561 52.786257 
L 156.997078 52.626178 
L 157.231024 52.462367 
L 157.462343 52.294865 
L 157.690974 52.123713 
L 157.916862 51.948956 
L 158.139948 51.770636 
L 158.360177 51.5888 
L 158.577493 51.403492 
L 158.791842 51.21476 
L 159.003169 51.022651 
L 159.211422 50.827213 
L 159.416548 50.628495 
L 159.618495 50.426548 
L 159.817213 50.221422 
L 160.012651 50.013169 
L 160.20476 49.801842 
L 160.393492 49.587493 
L 160.5788 49.370177 
L 160.760636 49.149948 
L 160.938956 48.926862 
L 161.113713 48.700974 
L 161.284865 48.472343 
L 161.452367 48.241024 
L 161.616178 48.007078 
L 161.776257 47.770561 
L 161.932564 47.531535 
L 162.085058 47.290058 
L 162.233701 47.046193 
L 162.378457 46.8 
L 162.519289 46.551541 
L 162.656161 46.300879 
L 162.789038 46.048077 
L 162.917888 45.793199 
L 163.042678 45.536308 
L 163.163376 45.27747 
L 163.279952 45.01675 
L 163.392377 44.754212 
L 163.500623 44.489924 
L 163.604661 44.223952 
L 163.704467 43.956363 
L 163.800015 43.687223 
L 163.89128 43.416602 
L 163.97824 43.144567 
L 164.060874 42.871186 
L 164.139159 42.596529 
L 164.213077 42.320664 
L 164.282608 42.043661 
L 164.347736 41.76559 
L 164.408444 41.48652 
L 164.464717 41.206522 
L 164.51654 40.925667 
L 164.5639 40.644025 
L 164.606786 40.361667 
L 164.645187 40.078664 
L 164.679092 39.795088 
L 164.708495 39.511009 
L 164.733386 39.226499 
L 164.75376 38.941631 
L 164.769612 38.656474 
L 164.780938 38.371103 
L 164.787734 38.085587 
L 164.79 37.8 
L 164.79 37.8 
L 164.787734 37.514413 
L 164.780938 37.228897 
L 164.769612 36.943526 
L 164.75376 36.658369 
L 164.733386 36.373501 
L 164.708495 36.088991 
L 164.679092 35.804912 
L 164.645187 35.521336 
L 164.606786 35.238333 
L 164.5639 34.955975 
L 164.51654 34.674333 
L 164.464717 34.393478 
L 164.408444 34.11348 
L 164.347736 33.83441 
L 164.282608 33.556339 
L 164.213077 33.279336 
L 164.139159 33.003471 
L 164.060874 32.728814 
L 163.97824 32.455433 
L 163.89128 32.183398 
L 163.800015 31.912777 
L 163.704467 31.643637 
L 163.604661 31.376048 
L 163.500623 31.110076 
L 163.392377 30.845788 
L 163.279952 30.58325 
L 163.163376 30.32253 
L 163.042678 30.063692 
L 162.917888 29.806801 
L 162.789038 29.551923 
L 162.656161 29.299121 
L 162.519289 29.048459 
L 162.378457 28.8 
L 162.233701 28.553807 
L 162.085058 28.309942 
L 161.932564 28.068465 
L 161.776257 27.829439 
L 161.616178 27.592922 
L 161.452367 27.358976 
L 161.284865 27.127657 
L 161.113713 26.899026 
L 160.938956 26.673138 
L 160.760636 26.450052 
L 160.5788 26.229823 
L 160.393492 26.012507 
L 160.20476 25.798158 
L 160.012651 25.586831 
L 159.817213 25.378578 
L 159.618495 25.173452 
L 159.416548 24.971505 
L 159.211422 24.772787 
L 159.003169 24.577349 
L 158.791842 24.38524 
L 158.577493 24.196508 
L 158.360177 24.0112 
L 158.139948 23.829364 
L 157.916862 23.651044 
L 157.690974 23.476287 
L 157.462343 23.305135 
L 157.231024 23.137633 
L 156.997078 22.973822 
L 156.760561 22.813743 
L 156.521535 22.657436 
L 156.280058 22.504942 
L 156.036193 22.356299 
L 155.79 22.211543 
L 155.541541 22.070711 
L 155.290879 21.933839 
L 155.038077 21.800962 
L 154.783199 21.672112 
L 154.526308 21.547322 
L 154.26747 21.426624 
L 154.00675 21.310048 
L 153.744212 21.197623 
L 153.479924 21.089377 
L 153.213952 20.985339 
L 152.946363 20.885533 
L 152.677223 20.789985 
L 152.406602 20.69872 
L 152.134567 20.61176 
L 151.861186 20.529126 
L 151.586529 20.450841 
L 151.310664 20.376923 
L 151.033661 20.307392 
L 150.75559 20.242264 
L 150.47652 20.181556 
L 150.196522 20.125283 
L 149.915667 20.07346 
L 149.634025 20.0261 
L 149.351667 19.983214 
L 149.068664 19.944813 
L 148.785088 19.910908 
L 148.501009 19.881505 
L 148.216499 19.856614 
L 147.931631 19.83624 
L 147.646474 19.820388 
L 147.361103 19.809062 
L 147.075587 19.802266 
L 146.79 19.8 
L 110.79 19.8 
L 110.504413 19.802266 
L 110.218897 19.809062 
L 109.933526 19.820388 
L 109.648369 19.83624 
L 109.363501 19.856614 
L 109.078991 19.881505 
L 108.794912 19.910908 
L 108.511336 19.944813 
L 108.228333 19.983214 
L 107.945975 20.0261 
L 107.664333 20.07346 
L 107.383478 20.125283 
L 107.10348 20.181556 
L 106.82441 20.242264 
L 106.546339 20.307392 
L 106.269336 20.376923 
L 105.993471 20.450841 
L 105.718814 20.529126 
L 105.445433 20.61176 
L 105.173398 20.69872 
L 104.902777 20.789985 
L 104.633637 20.885533 
L 104.366048 20.985339 
L 104.100076 21.089377 
L 103.835788 21.197623 
L 103.57325 21.310048 
L 103.31253 21.426624 
L 103.053692 21.547322 
L 102.796801 21.672112 
L 102.541923 21.800962 
L 102.289121 21.933839 
L 102.038459 22.070711 
L 101.79 22.211543 
L 101.543807 22.356299 
L 101.299942 22.504942 
L 101.058465 22.657436 
L 100.819439 22.813743 
L 100.582922 22.973822 
L 100.348976 23.137633 
L 100.117657 23.305135 
L 99.889026 23.476287 
L 99.663138 23.651044 
L 99.440052 23.829364 
L 99.219823 24.0112 
L 99.002507 24.196508 
L 98.788158 24.38524 
L 98.576831 24.577349 
L 98.368578 24.772787 
L 98.163452 24.971505 
L 97.961505 25.173452 
L 97.762787 25.378578 
L 97.567349 25.586831 
L 97.37524 25.798158 
L 97.186508 26.012507 
L 97.0012 26.229823 
L 96.819364 26.450052 
L 96.641044 26.673138 
L 96.466287 26.899026 
L 96.295135 27.127657 
L 96.127633 27.358976 
L 95.963822 27.592922 
L 95.803743 27.829439 
L 95.647436 28.068465 
L 95.494942 28.309942 
L 95.346299 28.553807 
L 95.201543 28.8 
L 95.060711 29.048459 
L 94.923839 29.299121 
L 94.790962 29.551923 
L 94.662112 29.806801 
L 94.537322 30.063692 
L 94.416624 30.32253 
L 94.300048 30.58325 
L 94.187623 30.845788 
L 94.079377 31.110076 
L 93.975339 31.376048 
L 93.875533 31.643637 
L 93.779985 31.912777 
L 93.68872 32.183398 
L 93.60176 32.455433 
L 93.519126 32.728814 
L 93.440841 33.003471 
L 93.366923 33.279336 
L 93.297392 33.556339 
L 93.232264 33.83441 
L 93.171556 34.11348 
L 93.115283 34.393478 
L 93.06346 34.674333 
L 93.0161 34.955975 
L 92.973214 35.238333 
L 92.934813 35.521336 
L 92.900908 35.804912 
L 92.871505 36.088991 
L 92.846614 36.373501 
L 92.82624 36.658369 
L 92.810388 36.943526 
L 92.799062 37.228897 
L 92.792266 37.514413 
L 92.79 37.8 
L 92.79 37.8 
L 92.792266 38.085587 
L 92.799062 38.371103 
L 92.810388 38.656474 
L 92.82624 38.941631 
L 92.846614 39.226499 
L 92.871505 39.511009 
L 92.900908 39.795088 
L 92.934813 40.078664 
L 92.973214 40.361667 
L 93.0161 40.644025 
L 93.06346 40.925667 
L 93.115283 41.206522 
L 93.171556 41.48652 
L 93.232264 41.76559 
L 93.297392 42.043661 
L 93.366923 42.320664 
L 93.440841 42.596529 
L 93.519126 42.871186 
L 93.60176 43.144567 
L 93.68872 43.416602 
L 93.779985 43.687223 
L 93.875533 43.956363 
L 93.975339 44.223952 
L 94.079377 44.489924 
L 94.187623 44.754212 
L 94.300048 45.01675 
L 94.416624 45.27747 
L 94.537322 45.536308 
L 94.662112 45.793199 
L 94.790962 46.048077 
L 94.923839 46.300879 
L 95.060711 46.551541 
L 95.201543 46.8 
L 95.346299 47.046193 
L 95.494942 47.290058 
L 95.647436 47.531535 
L 95.803743 47.770561 
L 95.963822 48.007078 
L 96.127633 48.241024 
L 96.295135 48.472343 
L 96.466287 48.700974 
L 96.641044 48.926862 
L 96.819364 49.149948 
L 97.0012 49.370177 
L 97.186508 49.587493 
L 97.37524 49.801842 
L 97.567349 50.013169 
L 97.762787 50.221422 
L 97.961505 50.426548 
L 98.163452 50.628495 
L 98.368578 50.827213 
L 98.576831 51.022651 
L 98.788158 51.21476 
L 99.002507 51.403492 
L 99.219823 51.5888 
L 99.440052 51.770636 
L 99.663138 51.948956 
L 99.889026 52.123713 
L 100.117657 52.294865 
L 100.348976 52.462367 
L 100.582922 52.626178 
L 100.819439 52.786257 
L 101.058465 52.942564 
L 101.299942 53.095058 
L 101.543807 53.243701 
L 101.79 53.388457 
L 102.038459 53.529289 
L 102.289121 53.666161 
L 102.541923 53.799038 
L 102.796801 53.927888 
L 103.053692 54.052678 
L 103.31253 54.173376 
L 103.57325 54.289952 
L 103.835788 54.402377 
L 104.100076 54.510623 
L 104.366048 54.614661 
L 104.633637 54.714467 
L 104.902777 54.810015 
L 105.173398 54.90128 
L 105.445433 54.98824 
L 105.718814 55.070874 
L 105.993471 55.149159 
L 106.269336 55.223077 
L 106.546339 55.292608 
L 106.82441 55.357736 
L 107.10348 55.418444 
L 107.383478 55.474717 
L 107.664333 55.52654 
L 107.945975 55.5739 
L 108.228333 55.616786 
L 108.511336 55.655187 
L 108.794912 55.689092 
L 109.078991 55.718495 
L 109.363501 55.743386 
L 109.648369 55.76376 
L 109.933526 55.779612 
L 110.218897 55.790938 
L 110.504413 55.797734 
L 110.79 55.8 
L 146.79 55.8 
z
" clip-path="url(#p3b8fca92f2)" style="fill: none; stroke: #000000; stroke-linecap: round"/>
   </g>
   <g id="patch_3">
    <path d="M 65.79 172.8 
L 128.79 145.8 
L 191.79 172.8 
L 128.79 199.8 
L 65.79 172.8 
z
" clip-path="url(#p3b8fca92f2)" style="fill: none; stroke: #000000; stroke-linecap: round"/>
   </g>
   <g id="patch_4">
    <path d="M 323.19 262.8 
L 323.475587 262.797734 
L 323.761103 262.790938 
L 324.046474 262.779612 
L 324.331631 262.76376 
L 324.616499 262.743386 
L 324.901009 262.718495 
L 325.185088 262.689092 
L 325.468664 262.655187 
L 325.751667 262.616786 
L 326.034025 262.5739 
L 326.315667 262.52654 
L 326.596522 262.474717 
L 326.87652 262.418444 
L 327.15559 262.357736 
L 327.433661 262.292608 
L 327.710664 262.223077 
L 327.986529 262.149159 
L 328.261186 262.070874 
L 328.534567 261.98824 
L 328.806602 261.90128 
L 329.077223 261.810015 
L 329.346363 261.714467 
L 329.613952 261.614661 
L 329.879924 261.510623 
L 330.144212 261.402377 
L 330.40675 261.289952 
L 330.66747 261.173376 
L 330.926308 261.052678 
L 331.183199 260.927888 
L 331.438077 260.799038 
L 331.690879 260.666161 
L 331.941541 260.529289 
L 332.19 260.388457 
L 332.436193 260.243701 
L 332.680058 260.095058 
L 332.921535 259.942564 
L 333.160561 259.786257 
L 333.397078 259.626178 
L 333.631024 259.462367 
L 333.862343 259.294865 
L 334.090974 259.123713 
L 334.316862 258.948956 
L 334.539948 258.770636 
L 334.760177 258.5888 
L 334.977493 258.403492 
L 335.191842 258.21476 
L 335.403169 258.022651 
L 335.611422 257.827213 
L 335.816548 257.628495 
L 336.018495 257.426548 
L 336.217213 257.221422 
L 336.412651 257.013169 
L 336.60476 256.801842 
L 336.793492 256.587493 
L 336.9788 256.370177 
L 337.160636 256.149948 
L 337.338956 255.926862 
L 337.513713 255.700974 
L 337.684865 255.472343 
L 337.852367 255.241024 
L 338.016178 255.007078 
L 338.176257 254.770561 
L 338.332564 254.531535 
L 338.485058 254.290058 
L 338.633701 254.046193 
L 338.778457 253.8 
L 338.919289 253.551541 
L 339.056161 253.300879 
L 339.189038 253.048077 
L 339.317888 252.793199 
L 339.442678 252.536308 
L 339.563376 252.27747 
L 339.679952 252.01675 
L 339.792377 251.754212 
L 339.900623 251.489924 
L 340.004661 251.223952 
L 340.104467 250.956363 
L 340.200015 250.687223 
L 340.29128 250.416602 
L 340.37824 250.144567 
L 340.460874 249.871186 
L 340.539159 249.596529 
L 340.613077 249.320664 
L 340.682608 249.043661 
L 340.747736 248.76559 
L 340.808444 248.48652 
L 340.864717 248.206522 
L 340.91654 247.925667 
L 340.9639 247.644025 
L 341.006786 247.361667 
L 341.045187 247.078664 
L 341.079092 246.795088 
L 341.108495 246.511009 
L 341.133386 246.226499 
L 341.15376 245.941631 
L 341.169612 245.656474 
L 341.180938 245.371103 
L 341.187734 245.085587 
L 341.19 244.8 
L 341.19 244.8 
L 341.187734 244.514413 
L 341.180938 244.228897 
L 341.169612 243.943526 
L 341.15376 243.658369 
L 341.133386 243.373501 
L 341.108495 243.088991 
L 341.079092 242.804912 
L 341.045187 242.521336 
L 341.006786 242.238333 
L 340.9639 241.955975 
L 340.91654 241.674333 
L 340.864717 241.393478 
L 340.808444 241.11348 
L 340.747736 240.83441 
L 340.682608 240.556339 
L 340.613077 240.279336 
L 340.539159 240.003471 
L 340.460874 239.728814 
L 340.37824 239.455433 
L 340.29128 239.183398 
L 340.200015 238.912777 
L 340.104467 238.643637 
L 340.004661 238.376048 
L 339.900623 238.110076 
L 339.792377 237.845788 
L 339.679952 237.58325 
L 339.563376 237.32253 
L 339.442678 237.063692 
L 339.317888 236.806801 
L 339.189038 236.551923 
L 339.056161 236.299121 
L 338.919289 236.048459 
L 338.778457 235.8 
L 338.633701 235.553807 
L 338.485058 235.309942 
L 338.332564 235.068465 
L 338.176257 234.829439 
L 338.016178 234.592922 
L 337.852367 234.358976 
L 337.684865 234.127657 
L 337.513713 233.899026 
L 337.338956 233.673138 
L 337.160636 233.450052 
L 336.9788 233.229823 
L 336.793492 233.012507 
L 336.60476 232.798158 
L 336.412651 232.586831 
L 336.217213 232.378578 
L 336.018495 232.173452 
L 335.816548 231.971505 
L 335.611422 231.772787 
L 335.403169 231.577349 
L 335.191842 231.38524 
L 334.977493 231.196508 
L 334.760177 231.0112 
L 334.539948 230.829364 
L 334.316862 230.651044 
L 334.090974 230.476287 
L 333.862343 230.305135 
L 333.631024 230.137633 
L 333.397078 229.973822 
L 333.160561 229.813743 
L 332.921535 229.657436 
L 332.680058 229.504942 
L 332.436193 229.356299 
L 332.19 229.211543 
L 331.941541 229.070711 
L 331.690879 228.933839 
L 331.438077 228.800962 
L 331.183199 228.672112 
L 330.926308 228.547322 
L 330.66747 228.426624 
L 330.40675 228.310048 
L 330.144212 228.197623 
L 329.879924 228.089377 
L 329.613952 227.985339 
L 329.346363 227.885533 
L 329.077223 227.789985 
L 328.806602 227.69872 
L 328.534567 227.61176 
L 328.261186 227.529126 
L 327.986529 227.450841 
L 327.710664 227.376923 
L 327.433661 227.307392 
L 327.15559 227.242264 
L 326.87652 227.181556 
L 326.596522 227.125283 
L 326.315667 227.07346 
L 326.034025 227.0261 
L 325.751667 226.983214 
L 325.468664 226.944813 
L 325.185088 226.910908 
L 324.901009 226.881505 
L 324.616499 226.856614 
L 324.331631 226.83624 
L 324.046474 226.820388 
L 323.761103 226.809062 
L 323.475587 226.802266 
L 323.19 226.8 
L 287.19 226.8 
L 286.904413 226.802266 
L 286.618897 226.809062 
L 286.333526 226.820388 
L 286.048369 226.83624 
L 285.763501 226.856614 
L 285.478991 226.881505 
L 285.194912 226.910908 
L 284.911336 226.944813 
L 284.628333 226.983214 
L 284.345975 227.0261 
L 284.064333 227.07346 
L 283.783478 227.125283 
L 283.50348 227.181556 
L 283.22441 227.242264 
L 282.946339 227.307392 
L 282.669336 227.376923 
L 282.393471 227.450841 
L 282.118814 227.529126 
L 281.845433 227.61176 
L 281.573398 227.69872 
L 281.302777 227.789985 
L 281.033637 227.885533 
L 280.766048 227.985339 
L 280.500076 228.089377 
L 280.235788 228.197623 
L 279.97325 228.310048 
L 279.71253 228.426624 
L 279.453692 228.547322 
L 279.196801 228.672112 
L 278.941923 228.800962 
L 278.689121 228.933839 
L 278.438459 229.070711 
L 278.19 229.211543 
L 277.943807 229.356299 
L 277.699942 229.504942 
L 277.458465 229.657436 
L 277.219439 229.813743 
L 276.982922 229.973822 
L 276.748976 230.137633 
L 276.517657 230.305135 
L 276.289026 230.476287 
L 276.063138 230.651044 
L 275.840052 230.829364 
L 275.619823 231.0112 
L 275.402507 231.196508 
L 275.188158 231.38524 
L 274.976831 231.577349 
L 274.768578 231.772787 
L 274.563452 231.971505 
L 274.361505 232.173452 
L 274.162787 232.378578 
L 273.967349 232.586831 
L 273.77524 232.798158 
L 273.586508 233.012507 
L 273.4012 233.229823 
L 273.219364 233.450052 
L 273.041044 233.673138 
L 272.866287 233.899026 
L 272.695135 234.127657 
L 272.527633 234.358976 
L 272.363822 234.592922 
L 272.203743 234.829439 
L 272.047436 235.068465 
L 271.894942 235.309942 
L 271.746299 235.553807 
L 271.601543 235.8 
L 271.460711 236.048459 
L 271.323839 236.299121 
L 271.190962 236.551923 
L 271.062112 236.806801 
L 270.937322 237.063692 
L 270.816624 237.32253 
L 270.700048 237.58325 
L 270.587623 237.845788 
L 270.479377 238.110076 
L 270.375339 238.376048 
L 270.275533 238.643637 
L 270.179985 238.912777 
L 270.08872 239.183398 
L 270.00176 239.455433 
L 269.919126 239.728814 
L 269.840841 240.003471 
L 269.766923 240.279336 
L 269.697392 240.556339 
L 269.632264 240.83441 
L 269.571556 241.11348 
L 269.515283 241.393478 
L 269.46346 241.674333 
L 269.4161 241.955975 
L 269.373214 242.238333 
L 269.334813 242.521336 
L 269.300908 242.804912 
L 269.271505 243.088991 
L 269.246614 243.373501 
L 269.22624 243.658369 
L 269.210388 243.943526 
L 269.199062 244.228897 
L 269.192266 244.514413 
L 269.19 244.8 
L 269.19 244.8 
L 269.192266 245.085587 
L 269.199062 245.371103 
L 269.210388 245.656474 
L 269.22624 245.941631 
L 269.246614 246.226499 
L 269.271505 246.511009 
L 269.300908 246.795088 
L 269.334813 247.078664 
L 269.373214 247.361667 
L 269.4161 247.644025 
L 269.46346 247.925667 
L 269.515283 248.206522 
L 269.571556 248.48652 
L 269.632264 248.76559 
L 269.697392 249.043661 
L 269.766923 249.320664 
L 269.840841 249.596529 
L 269.919126 249.871186 
L 270.00176 250.144567 
L 270.08872 250.416602 
L 270.179985 250.687223 
L 270.275533 250.956363 
L 270.375339 251.223952 
L 270.479377 251.489924 
L 270.587623 251.754212 
L 270.700048 252.01675 
L 270.816624 252.27747 
L 270.937322 252.536308 
L 271.062112 252.793199 
L 271.190962 253.048077 
L 271.323839 253.300879 
L 271.460711 253.551541 
L 271.601543 253.8 
L 271.746299 254.046193 
L 271.894942 254.290058 
L 272.047436 254.531535 
L 272.203743 254.770561 
L 272.363822 255.007078 
L 272.527633 255.241024 
L 272.695135 255.472343 
L 272.866287 255.700974 
L 273.041044 255.926862 
L 273.219364 256.149948 
L 273.4012 256.370177 
L 273.586508 256.587493 
L 273.77524 256.801842 
L 273.967349 257.013169 
L 274.162787 257.221422 
L 274.361505 257.426548 
L 274.563452 257.628495 
L 274.768578 257.827213 
L 274.976831 258.022651 
L 275.188158 258.21476 
L 275.402507 258.403492 
L 275.619823 258.5888 
L 275.840052 258.770636 
L 276.063138 258.948956 
L 276.289026 259.123713 
L 276.517657 259.294865 
L 276.748976 259.462367 
L 276.982922 259.626178 
L 277.219439 259.786257 
L 277.458465 259.942564 
L 277.699942 260.095058 
L 277.943807 260.243701 
L 278.19 260.388457 
L 278.438459 260.529289 
L 278.689121 260.666161 
L 278.941923 260.799038 
L 279.196801 260.927888 
L 279.453692 261.052678 
L 279.71253 261.173376 
L 279.97325 261.289952 
L 280.235788 261.402377 
L 280.500076 261.510623 
L 280.766048 261.614661 
L 281.033637 261.714467 
L 281.302777 261.810015 
L 281.573398 261.90128 
L 281.845433 261.98824 
L 282.118814 262.070874 
L 282.393471 262.149159 
L 282.669336 262.223077 
L 282.946339 262.292608 
L 283.22441 262.357736 
L 283.50348 262.418444 
L 283.783478 262.474717 
L 284.064333 262.52654 
L 284.345975 262.5739 
L 284.628333 262.616786 
L 284.911336 262.655187 
L 285.194912 262.689092 
L 285.478991 262.718495 
L 285.763501 262.743386 
L 286.048369 262.76376 
L 286.333526 262.779612 
L 286.618897 262.790938 
L 286.904413 262.797734 
L 287.19 262.8 
L 323.19 262.8 
z
" clip-path="url(#p3b8fca92f2)" style="fill: none; stroke: #000000; stroke-linecap: round"/>
   </g>
   <g id="line2d_1">
    <path d="M 128.79 55.8 
L 128.79 69.3 
L 128.79 73.8 
" clip-path="url(#p3b8fca92f2)" style="fill: none; stroke: #000000; stroke-linecap: round"/>
   </g>
   <g id="patch_5">
    <path d="M 131.49 73.8 
L 128.79 82.8 
L 126.09 73.8 
z
" clip-path="url(#p3b8fca92f2)"/>
   </g>
   <g id="line2d_2">
    <path d="M 89.19 100.8 
L 89.19 82.8 
L 168.39 82.8 
L 168.39 118.8 
L 89.19 118.8 
L 89.19 100.8 
" clip-path="url(#p3b8fca92f2)" style="fill: none; stroke: #000000; stroke-linecap: round"/>
   </g>
   <g id="line2d_3">
    <path d="M 128.79 118.8 
L 128.79 132.3 
L 128.79 136.8 
" clip-path="url(#p3b8fca92f2)" style="fill: none; stroke: #000000; stroke-linecap: round"/>
   </g>
   <g id="patch_6">
    <path d="M 131.49 136.8 
L 128.79 145.8 
L 126.09 136.8 
z
" clip-path="url(#p3b8fca92f2)"/>
   </g>
   <g id="line2d_4">
    <path d="M 191.79 172.8 
L 218.79 172.8 
L 236.79 172.8 
" clip-path="url(#p3b8fca92f2)" style="fill: none; stroke: #000000; stroke-linecap: round"/>
   </g>
   <g id="patch_7">
    <path d="M 236.79 170.1 
L 245.79 172.8 
L 236.79 175.5 
z
" clip-path="url(#p3b8fca92f2)"/>
   </g>
   <g id="line2d_5">
    <path d="M 245.79 172.8 
L 245.79 154.8 
L 364.59 154.8 
L 364.59 190.8 
L 245.79 190.8 
L 245.79 172.8 
" clip-path="url(#p3b8fca92f2)" style="fill: none; stroke: #000000; stroke-linecap: round"/>
   </g>
   <g id="line2d_6">
    <path d="M 305.19 190.8 
L 305.19 208.8 
L 305.19 217.8 
" clip-path="url(#p3b8fca92f2)" style="fill: none; stroke: #000000; stroke-linecap: round"/>
   </g>
   <g id="patch_8">
    <path d="M 307.89 217.8 
L 305.19 226.8 
L 302.49 217.8 
z
" clip-path="url(#p3b8fca92f2)"/>
   </g>
   <g id="line2d_7">
    <path d="M 128.79 199.8 
L 128.79 217.8 
L 128.79 226.8 
" clip-path="url(#p3b8fca92f2)" style="fill: none; stroke: #000000; stroke-linecap: round"/>
   </g>
   <g id="patch_9">
    <path d="M 131.49 226.8 
L 128.79 235.8 
L 126.09 226.8 
z
" clip-path="url(#p3b8fca92f2)"/>
   </g>
   <g id="line2d_8">
    <path d="M 69.39 253.8 
L 69.39 235.8 
L 188.19 235.8 
L 188.19 271.8 
L 69.39 271.8 
L 69.39 253.8 
" clip-path="url(#p3b8fca92f2)" style="fill: none; stroke: #000000; stroke-linecap: round"/>
   </g>
   <g id="line2d_9">
    <path d="M 128.79 271.8 
L 128.79 289.8 
L 128.79 298.8 
" clip-path="url(#p3b8fca92f2)" style="fill: none; stroke: #000000; stroke-linecap: round"/>
   </g>
   <g id="patch_10">
    <path d="M 131.49 298.8 
L 128.79 307.8 
L 126.09 298.8 
z
" clip-path="url(#p3b8fca92f2)"/>
   </g>
   <g id="line2d_10">
    <path d="M 74.79 325.8 
L 74.79 307.8 
L 182.79 307.8 
L 182.79 343.8 
L 74.79 343.8 
L 74.79 325.8 
" clip-path="url(#p3b8fca92f2)" style="fill: none; stroke: #000000; stroke-linecap: round"/>
   </g>
   <g id="line2d_11">
    <path d="M 74.79 325.8 
L 47.79 325.8 
L 20.79 325.8 
" clip-path="url(#p3b8fca92f2)" style="fill: none; stroke: #000000; stroke-linecap: round"/>
   </g>
   <g id="line2d_12">
    <path d="M 20.79 325.8 
L 20.79 172.8 
L 56.79 172.8 
" clip-path="url(#p3b8fca92f2)" style="fill: none; stroke: #000000; stroke-linecap: round"/>
   </g>
   <g id="patch_11">
    <path d="M 56.79 170.1 
L 65.79 172.8 
L 56.79 175.5 
z
" clip-path="url(#p3b8fca92f2)"/>
   </g>
   <g id="text_1">
    <!-- START -->
    <g transform="translate(109.613242 41.294141) scale(0.125 -0.125)">
     <defs>
      <path id="IPAexGothic-53" d="M 2919 3641 
Q 2563 4259 1853 4259 
Q 1453 4259 1213 4009 
Q 1028 3803 1028 3534 
Q 1028 3238 1266 3047 
Q 1444 2913 1984 2688 
L 2200 2597 
Q 2925 2306 3191 1953 
Q 3422 1644 3422 1259 
Q 3422 644 2969 288 
Q 2559 -31 1931 -31 
Q 881 -31 313 766 
L 753 1100 
Q 1203 459 1938 459 
Q 2288 459 2534 625 
Q 2841 847 2841 1216 
Q 2841 1503 2616 1728 
Q 2375 1959 1728 2206 
L 1541 2278 
Q 453 2694 453 3481 
Q 453 4006 806 4347 
Q 1203 4725 1863 4725 
Q 2841 4725 3359 3956 
L 2919 3641 
z
" transform="scale(0.015625)"/>
      <path id="IPAexGothic-54" d="M 3866 4141 
L 2175 4141 
L 2175 63 
L 1606 63 
L 1606 4141 
L -31 4141 
L -31 4634 
L 3866 4634 
L 3866 4141 
z
" transform="scale(0.015625)"/>
      <path id="IPAexGothic-41" d="M 4056 63 
L 3444 63 
L 2938 1409 
L 1100 1409 
L 603 63 
L -6 63 
L 1806 4666 
L 2259 4666 
L 4056 63 
z
M 2778 1863 
L 2316 3078 
Q 2125 3588 2028 4000 
L 2009 4000 
Q 1897 3563 1716 3078 
L 1263 1863 
L 2778 1863 
z
" transform="scale(0.015625)"/>
      <path id="IPAexGothic-52" d="M 4072 63 
L 3394 63 
Q 3138 641 2828 1197 
Q 2584 1641 2344 1825 
Q 2050 2044 1625 2044 
L 1172 2044 
L 1172 63 
L 609 63 
L 609 4634 
L 2009 4634 
Q 2713 4634 3131 4378 
Q 3688 4044 3688 3381 
Q 3688 2784 3181 2459 
Q 2906 2272 2522 2216 
L 2522 2197 
Q 2941 2050 3247 1581 
Q 3516 1166 4072 63 
z
M 1172 2478 
L 1869 2478 
Q 3106 2478 3106 3369 
Q 3106 4181 1928 4181 
L 1172 4181 
L 1172 2478 
z
" transform="scale(0.015625)"/>
     </defs>
     <use xlink:href="#IPAexGothic-53"/>
     <use xlink:href="#IPAexGothic-54" x="58.496094"/>
     <use xlink:href="#IPAexGothic-41" x="118.408203"/>
     <use xlink:href="#IPAexGothic-52" x="182.128906"/>
     <use xlink:href="#IPAexGothic-54" x="246.923828"/>
    </g>
   </g>
   <g id="text_2">
    <!-- counter = 0 -->
    <g transform="translate(94.48043 104.294141) scale(0.125 -0.125)">
     <defs>
      <path id="IPAexGothic-63" d="M 3269 784 
Q 2834 -31 1900 -31 
Q 1228 -31 788 409 
Q 313 891 313 1663 
Q 313 2428 788 2913 
Q 1222 3347 1881 3347 
Q 2813 3347 3206 2541 
L 2763 2309 
Q 2484 2900 1900 2900 
Q 1516 2900 1234 2619 
Q 881 2266 881 1650 
Q 881 1069 1222 728 
Q 1522 428 1956 428 
Q 2547 428 2847 1016 
L 3269 784 
z
" transform="scale(0.015625)"/>
      <path id="IPAexGothic-6f" d="M 1919 3341 
Q 2594 3341 3056 2888 
Q 3531 2413 3531 1638 
Q 3531 888 3066 422 
Q 2609 -31 1919 -31 
Q 1228 -31 781 416 
Q 313 881 313 1656 
Q 313 2413 788 2888 
Q 1241 3341 1919 3341 
z
M 1919 2919 
Q 1519 2919 1241 2631 
Q 888 2278 888 1650 
Q 888 1031 1234 684 
Q 1516 403 1919 403 
Q 2331 403 2609 691 
Q 2956 1038 2956 1672 
Q 2956 2269 2603 2631 
Q 2316 2919 1919 2919 
z
" transform="scale(0.015625)"/>
      <path id="IPAexGothic-75" d="M 3284 63 
L 2772 63 
L 2772 644 
Q 2300 0 1625 0 
Q 1072 0 763 375 
Q 519 678 519 1241 
L 519 3250 
L 1069 3250 
L 1069 1259 
Q 1069 466 1734 466 
Q 2406 466 2734 1291 
L 2734 3250 
L 3284 3250 
L 3284 63 
z
" transform="scale(0.015625)"/>
      <path id="IPAexGothic-6e" d="M 3328 63 
L 2778 63 
L 2778 2041 
Q 2778 2853 2106 2853 
Q 1428 2853 1113 2041 
L 1113 63 
L 563 63 
L 563 3250 
L 1075 3250 
L 1075 2675 
Q 1525 3316 2222 3316 
Q 3328 3316 3328 2072 
L 3328 63 
z
" transform="scale(0.015625)"/>
      <path id="IPAexGothic-74" d="M 2125 241 
Q 1769 -6 1397 -6 
Q 653 -6 653 831 
L 653 2859 
L 219 2859 
L 219 3250 
L 653 3250 
L 653 3966 
L 1178 4228 
L 1178 3250 
L 2063 3250 
L 2063 2859 
L 1178 2859 
L 1178 906 
Q 1178 416 1513 416 
Q 1738 416 1941 588 
L 2125 241 
z
" transform="scale(0.015625)"/>
      <path id="IPAexGothic-65" d="M 863 1594 
Q 891 1041 1209 722 
Q 1534 397 1997 397 
Q 2606 397 2963 966 
L 3322 728 
Q 2869 -31 1931 -31 
Q 1222 -31 766 422 
Q 306 884 306 1641 
Q 306 2444 788 2925 
Q 1216 3353 1856 3353 
Q 2459 3353 2866 2956 
Q 3322 2494 3322 1722 
L 3322 1594 
L 863 1594 
z
M 2756 1997 
Q 2709 2431 2450 2681 
Q 2194 2938 1844 2938 
Q 1438 2938 1150 2591 
Q 953 2356 894 1997 
L 2756 1997 
z
" transform="scale(0.015625)"/>
      <path id="IPAexGothic-72" d="M 2309 3316 
L 2213 2769 
Q 2106 2791 2022 2791 
Q 1653 2791 1413 2444 
Q 1113 2006 1113 1675 
L 1113 63 
L 563 63 
L 563 3250 
L 1081 3250 
L 1056 2303 
L 1069 2303 
Q 1422 3341 2097 3341 
Q 2206 3341 2309 3316 
z
" transform="scale(0.015625)"/>
      <path id="IPAexGothic-20" transform="scale(0.015625)"/>
      <path id="IPAexGothic-3d" d="M 416 2803 
L 3922 2803 
L 3922 2438 
L 416 2438 
L 416 2803 
z
M 416 1625 
L 3922 1625 
L 3922 1259 
L 416 1259 
L 416 1625 
z
" transform="scale(0.015625)"/>
      <path id="IPAexGothic-30" d="M 2038 4725 
Q 2881 4725 3334 3944 
Q 3694 3325 3694 2344 
Q 3694 1372 3334 741 
Q 2888 -31 2016 -31 
Q 1147 -31 700 741 
Q 341 1372 341 2350 
Q 341 3713 1000 4334 
Q 1419 4725 2038 4725 
z
M 2016 4266 
Q 1516 4266 1228 3759 
Q 934 3247 934 2344 
Q 934 1456 1222 947 
Q 1513 447 2016 447 
Q 2619 447 2909 1153 
Q 3100 1622 3100 2375 
Q 3100 3256 2806 3759 
Q 2509 4266 2016 4266 
z
" transform="scale(0.015625)"/>
     </defs>
     <use xlink:href="#IPAexGothic-63"/>
     <use xlink:href="#IPAexGothic-6f" x="54.394531"/>
     <use xlink:href="#IPAexGothic-75" x="114.794922"/>
     <use xlink:href="#IPAexGothic-6e" x="175.195312"/>
     <use xlink:href="#IPAexGothic-74" x="235.595703"/>
     <use xlink:href="#IPAexGothic-65" x="270.214844"/>
     <use xlink:href="#IPAexGothic-72" x="327.099609"/>
     <use xlink:href="#IPAexGothic-20" x="364.111328"/>
     <use xlink:href="#IPAexGothic-3d" x="391.113281"/>
     <use xlink:href="#IPAexGothic-20" x="458.935547"/>
     <use xlink:href="#IPAexGothic-30" x="485.9375"/>
    </g>
   </g>
   <g id="text_3">
    <!-- True -->
    <g transform="translate(133.47 213.843281) scale(0.125 -0.125)">
     <use xlink:href="#IPAexGothic-54"/>
     <use xlink:href="#IPAexGothic-72" x="59.912109"/>
     <use xlink:href="#IPAexGothic-75" x="96.923828"/>
     <use xlink:href="#IPAexGothic-65" x="157.324219"/>
    </g>
   </g>
   <g id="text_4">
    <!-- False -->
    <g transform="translate(196.47 165.745) scale(0.125 -0.125)">
     <defs>
      <path id="IPAexGothic-46" d="M 3469 4141 
L 1172 4141 
L 1172 2656 
L 3206 2656 
L 3206 2188 
L 1172 2188 
L 1172 63 
L 609 63 
L 609 4634 
L 3469 4634 
L 3469 4141 
z
" transform="scale(0.015625)"/>
      <path id="IPAexGothic-61" d="M 3156 63 
L 2672 63 
Q 2559 303 2531 556 
L 2509 556 
Q 2147 -25 1428 -25 
Q 934 -25 622 288 
Q 347 563 347 959 
Q 347 1947 2050 1997 
L 2478 2009 
L 2478 2175 
Q 2478 2509 2288 2700 
Q 2088 2900 1775 2900 
Q 1238 2900 969 2378 
L 494 2597 
Q 938 3328 1788 3328 
Q 2375 3328 2691 3000 
Q 2984 2706 2984 2169 
L 2984 997 
Q 2984 400 3156 63 
z
M 2491 1625 
L 2141 1619 
Q 903 1591 903 953 
Q 903 728 1050 581 
Q 1231 403 1525 403 
Q 1934 403 2234 703 
Q 2491 969 2491 1344 
L 2491 1625 
z
" transform="scale(0.015625)"/>
      <path id="IPAexGothic-6c" d="M 1131 63 
L 581 63 
L 581 4794 
L 1131 4794 
L 1131 63 
z
" transform="scale(0.015625)"/>
      <path id="IPAexGothic-73" d="M 2234 2547 
Q 1938 2931 1484 2931 
Q 891 2931 891 2475 
Q 891 2153 1531 1944 
L 1741 1875 
Q 2650 1578 2650 894 
Q 2650 434 2272 172 
Q 1972 -31 1497 -31 
Q 766 -31 256 503 
L 603 819 
Q 997 397 1516 397 
Q 2131 397 2131 875 
Q 2131 1238 1453 1478 
L 1234 1553 
Q 378 1853 378 2431 
Q 378 2797 628 3047 
Q 928 3347 1453 3347 
Q 2156 3347 2606 2859 
L 2234 2547 
z
" transform="scale(0.015625)"/>
     </defs>
     <use xlink:href="#IPAexGothic-46"/>
     <use xlink:href="#IPAexGothic-61" x="57.177734"/>
     <use xlink:href="#IPAexGothic-6c" x="112.158203"/>
     <use xlink:href="#IPAexGothic-73" x="139.160156"/>
     <use xlink:href="#IPAexGothic-65" x="185.351562"/>
    </g>
   </g>
   <g id="text_5">
    <!-- counter &lt; 3 ？ -->
    <g transform="translate(86.54293 176.294141) scale(0.125 -0.125)">
     <defs>
      <path id="IPAexGothic-3c" d="M 897 2028 
L 3928 609 
L 3769 263 
L 409 1881 
L 409 2175 
L 3769 3794 
L 3928 3450 
L 897 2028 
z
" transform="scale(0.015625)"/>
      <path id="IPAexGothic-33" d="M 2381 2419 
Q 3506 2216 3506 1278 
Q 3506 716 3128 356 
Q 2709 -31 1944 -31 
Q 797 -31 288 881 
L 756 1131 
Q 1109 441 1938 441 
Q 2425 441 2694 691 
Q 2950 928 2950 1291 
Q 2950 1719 2566 1978 
Q 2216 2213 1644 2213 
L 1363 2213 
L 1363 2669 
L 1656 2669 
Q 2231 2669 2534 2888 
Q 2859 3119 2859 3509 
Q 2859 3934 2494 4138 
Q 2259 4278 1931 4278 
Q 1238 4278 903 3578 
L 434 3803 
Q 897 4725 1938 4725 
Q 2597 4725 3006 4394 
Q 3416 4069 3416 3534 
Q 3416 3028 3019 2706 
Q 2763 2500 2381 2444 
L 2381 2419 
z
" transform="scale(0.015625)"/>
      <path id="IPAexGothic-ff1f" d="M 1503 3444 
Q 1550 4184 1963 4616 
Q 2466 5128 3272 5128 
Q 3888 5128 4313 4853 
Q 4909 4469 4909 3778 
Q 4909 3059 4116 2563 
Q 3628 2250 3506 1881 
Q 3422 1650 3422 1228 
L 2853 1228 
Q 2863 1869 3053 2197 
Q 3281 2588 3847 2950 
Q 4341 3269 4341 3778 
Q 4341 4231 3975 4463 
Q 3697 4634 3266 4634 
Q 2656 4634 2341 4225 
Q 2109 3928 2091 3444 
L 1503 3444 
z
M 2763 647 
L 3506 647 
L 3506 -97 
L 2763 -97 
L 2763 647 
z
" transform="scale(0.015625)"/>
     </defs>
     <use xlink:href="#IPAexGothic-63"/>
     <use xlink:href="#IPAexGothic-6f" x="54.394531"/>
     <use xlink:href="#IPAexGothic-75" x="114.794922"/>
     <use xlink:href="#IPAexGothic-6e" x="175.195312"/>
     <use xlink:href="#IPAexGothic-74" x="235.595703"/>
     <use xlink:href="#IPAexGothic-65" x="270.214844"/>
     <use xlink:href="#IPAexGothic-72" x="327.099609"/>
     <use xlink:href="#IPAexGothic-20" x="364.111328"/>
     <use xlink:href="#IPAexGothic-3c" x="391.113281"/>
     <use xlink:href="#IPAexGothic-20" x="458.935547"/>
     <use xlink:href="#IPAexGothic-33" x="485.9375"/>
     <use xlink:href="#IPAexGothic-20" x="548.925781"/>
     <use xlink:href="#IPAexGothic-ff1f" x="575.927734"/>
    </g>
   </g>
   <g id="text_6">
    <!-- ループは無事 -->
    <g transform="translate(267.69 168.917969) scale(0.125 -0.125)">
     <defs>
      <path id="IPAexGothic-30eb" d="M 353 331 
Q 1313 994 1544 2022 
Q 1684 2650 1684 4397 
L 2203 4397 
L 2203 4153 
L 2203 4116 
Q 2203 2259 1934 1491 
Q 1619 588 744 -38 
L 353 331 
z
M 3125 4666 
L 3650 4666 
L 3650 769 
Q 4875 1488 5672 2734 
L 6000 2278 
Q 5075 966 3516 63 
L 3125 359 
L 3125 4666 
z
" transform="scale(0.015625)"/>
      <path id="IPAexGothic-30fc" d="M 588 2688 
L 5809 2688 
L 5809 2175 
L 588 2175 
L 588 2688 
z
" transform="scale(0.015625)"/>
      <path id="IPAexGothic-30d7" d="M 4825 4275 
L 5125 4000 
Q 4884 2378 4081 1381 
Q 3294 413 1888 -116 
L 1522 331 
Q 4069 1113 4550 3803 
L 966 3738 
L 966 4225 
L 4825 4275 
z
M 5597 5509 
Q 5906 5509 6119 5275 
Q 6303 5075 6303 4806 
Q 6303 4494 6069 4281 
Q 5866 4097 5597 4097 
Q 5284 4097 5072 4331 
Q 4888 4534 4888 4806 
Q 4888 5116 5122 5328 
Q 5328 5509 5597 5509 
z
M 5597 5228 
Q 5409 5228 5278 5088 
Q 5169 4966 5169 4806 
Q 5169 4616 5309 4488 
Q 5434 4378 5597 4378 
Q 5784 4378 5913 4519 
Q 6022 4641 6022 4806 
Q 6022 4991 5881 5119 
Q 5759 5228 5597 5228 
z
" transform="scale(0.015625)"/>
      <path id="IPAexGothic-306f" d="M 4066 4875 
L 4538 4875 
L 4556 3769 
Q 5003 3816 5581 3941 
L 5619 3469 
Q 5256 3394 4563 3322 
L 4597 1441 
Q 5100 1284 5934 756 
L 5656 313 
Q 5066 772 4609 978 
Q 4609 441 4384 225 
Q 4128 -13 3634 -13 
Q 2991 -13 2669 231 
Q 2388 444 2388 831 
Q 2388 1225 2772 1484 
Q 3050 1669 3534 1669 
Q 3759 1669 4134 1594 
L 4097 3288 
Q 3697 3269 3359 3269 
Q 2925 3269 2484 3300 
L 2466 3763 
Q 2953 3716 3456 3716 
Q 3738 3716 4091 3738 
L 4066 4875 
z
M 4141 1153 
Q 3753 1259 3513 1259 
Q 2841 1259 2841 850 
Q 2841 422 3634 422 
Q 3888 422 4022 569 
Q 4141 700 4141 922 
Q 4141 1088 4141 1153 
z
M 1000 -50 
Q 794 1072 794 1931 
Q 794 3153 1247 4884 
L 1728 4763 
Q 1269 3044 1269 1900 
Q 1269 1569 1306 1106 
Q 1591 1706 1753 1997 
L 2075 1806 
Q 1484 716 1484 141 
Q 1484 72 1491 0 
L 1000 -50 
z
" transform="scale(0.015625)"/>
      <path id="IPAexGothic-7121" d="M 5134 4238 
L 5134 3188 
L 6044 3188 
L 6044 2791 
L 5134 2791 
L 5134 1716 
L 5850 1716 
L 5850 1319 
L 544 1319 
L 544 1716 
L 1409 1716 
L 1409 2791 
L 353 2791 
L 353 3188 
L 1409 3188 
L 1409 4044 
Q 1156 3691 884 3438 
L 572 3731 
Q 1291 4394 1666 5306 
L 2094 5159 
Q 2038 5041 1800 4628 
L 5697 4628 
L 5697 4238 
L 5134 4238 
z
M 1825 4238 
L 1825 3188 
L 2516 3188 
L 2516 4238 
L 1825 4238 
z
M 2906 4238 
L 2906 3188 
L 3597 3188 
L 3597 4238 
L 2906 4238 
z
M 3988 4238 
L 3988 3188 
L 4719 3188 
L 4719 4238 
L 3988 4238 
z
M 4719 2791 
L 3988 2791 
L 3988 1716 
L 4719 1716 
L 4719 2791 
z
M 3597 2791 
L 2906 2791 
L 2906 1716 
L 3597 1716 
L 3597 2791 
z
M 2516 2791 
L 1825 2791 
L 1825 1716 
L 2516 1716 
L 2516 2791 
z
M 506 -159 
Q 997 369 1294 1106 
L 1716 934 
Q 1400 91 909 -488 
L 506 -159 
z
M 2466 -441 
Q 2391 256 2222 903 
L 2656 991 
Q 2869 350 2963 -331 
L 2466 -441 
z
M 3859 -341 
Q 3659 413 3381 953 
L 3822 1094 
Q 4100 578 4347 -159 
L 3859 -341 
z
M 5569 -359 
Q 5094 469 4616 991 
L 5006 1209 
Q 5578 609 6009 -63 
L 5569 -359 
z
" transform="scale(0.015625)"/>
      <path id="IPAexGothic-4e8b" d="M 2950 3922 
L 2950 4294 
L 478 4294 
L 478 4659 
L 2950 4659 
L 2950 5313 
L 3403 5313 
L 3403 4659 
L 5919 4659 
L 5919 4294 
L 3403 4294 
L 3403 3922 
L 5234 3922 
L 5234 2822 
L 3403 2822 
L 3403 2450 
L 5325 2450 
L 5325 1759 
L 6081 1759 
L 6081 1381 
L 5325 1381 
L 5325 397 
L 4881 397 
L 4881 672 
L 3403 672 
L 3403 6 
Q 3403 -263 3269 -356 
Q 3150 -441 2841 -441 
Q 2497 -441 2116 -403 
L 2041 56 
Q 2450 -25 2731 -25 
Q 2950 -25 2950 159 
L 2950 672 
L 844 672 
L 844 1025 
L 2950 1025 
L 2950 1394 
L 319 1394 
L 319 1747 
L 2950 1747 
L 2950 2097 
L 838 2097 
L 838 2450 
L 2950 2450 
L 2950 2822 
L 1156 2822 
L 1156 3922 
L 2950 3922 
z
M 2950 3591 
L 1584 3591 
L 1584 3163 
L 2950 3163 
L 2950 3591 
z
M 3403 3591 
L 3403 3163 
L 4806 3163 
L 4806 3591 
L 3403 3591 
z
M 3403 1025 
L 4881 1025 
L 4881 1394 
L 3403 1394 
L 3403 1025 
z
M 3403 1747 
L 4881 1747 
L 4881 2097 
L 3403 2097 
L 3403 1747 
z
" transform="scale(0.015625)"/>
     </defs>
     <use xlink:href="#IPAexGothic-30eb"/>
     <use xlink:href="#IPAexGothic-30fc" x="100"/>
     <use xlink:href="#IPAexGothic-30d7" x="200"/>
     <use xlink:href="#IPAexGothic-306f" x="300"/>
     <use xlink:href="#IPAexGothic-7121" x="400"/>
     <use xlink:href="#IPAexGothic-4e8b" x="500"/>
    </g>
    <!-- 終わったよ(^^) -->
    <g transform="translate(263.527891 183.670312) scale(0.125 -0.125)">
     <defs>
      <path id="IPAexGothic-7d42" d="M 1259 3066 
Q 825 3678 378 4128 
L 666 4422 
Q 828 4259 916 4153 
Q 1300 4750 1541 5331 
L 1956 5119 
Q 1547 4363 1150 3859 
Q 1338 3625 1491 3391 
Q 1900 3994 2200 4544 
L 2578 4300 
Q 1994 3347 1338 2572 
L 1638 2591 
Q 2006 2609 2200 2631 
Q 2075 2919 1950 3150 
L 2297 3297 
Q 2606 2763 2822 2106 
L 2444 1919 
Q 2403 2063 2316 2316 
Q 2228 2294 1778 2234 
L 1778 -447 
L 1363 -447 
L 1363 2181 
Q 972 2134 428 2106 
L 281 2534 
Q 619 2544 869 2553 
Q 1138 2900 1259 3066 
z
M 4709 2859 
Q 5281 2319 6144 1984 
L 5844 1575 
Q 5028 1969 4447 2547 
Q 3819 1869 2888 1388 
L 2603 1753 
Q 3584 2172 4172 2834 
Q 3800 3291 3553 3719 
Q 3284 3294 2866 2888 
L 2591 3206 
Q 3384 3944 3800 5288 
L 4219 5153 
Q 4066 4738 4031 4659 
L 5325 4659 
L 5556 4447 
Q 5234 3569 4709 2859 
z
M 4428 3150 
Q 4838 3706 5031 4269 
L 3859 4269 
Q 3813 4166 3769 4097 
Q 4028 3609 4428 3150 
z
M 359 197 
Q 588 863 653 1759 
L 1063 1709 
Q 994 684 769 -13 
L 359 197 
z
M 2253 306 
Q 2125 1138 1919 1759 
L 2278 1869 
Q 2525 1250 2681 481 
L 2253 306 
z
M 5003 831 
Q 4456 1244 3794 1563 
L 4056 1894 
Q 4644 1597 5278 1191 
L 5003 831 
z
M 5344 -422 
Q 4356 134 3175 594 
L 3397 947 
Q 4528 509 5600 -44 
L 5344 -422 
z
" transform="scale(0.015625)"/>
      <path id="IPAexGothic-308f" d="M 609 3672 
Q 1272 3750 1894 3884 
L 1934 4978 
L 2406 4972 
L 2369 3934 
L 2753 3634 
Q 2416 3238 2356 3153 
Q 2350 3078 2350 2853 
Q 3322 3616 4219 3616 
Q 4878 3616 5331 3200 
Q 5819 2750 5819 2028 
Q 5819 419 3584 -53 
L 3266 391 
Q 5294 766 5294 2034 
Q 5294 2534 5000 2847 
Q 4691 3175 4175 3175 
Q 3341 3175 2344 2303 
Q 2344 678 2369 -150 
L 1881 -150 
Q 1863 1200 1869 1888 
Q 1766 1781 866 716 
L 513 1081 
Q 1450 2088 1869 2469 
Q 1869 2500 1878 2947 
Q 1881 3225 1888 3456 
Q 1406 3319 744 3178 
L 609 3672 
z
" transform="scale(0.015625)"/>
      <path id="IPAexGothic-3063" d="M 1113 2656 
Q 2778 3103 3709 3103 
Q 4359 3103 4734 2778 
Q 5150 2409 5150 1803 
Q 5150 247 2456 25 
L 2231 494 
Q 3425 541 4028 878 
Q 4663 1231 4663 1806 
Q 4663 2681 3647 2681 
Q 2834 2681 1319 2203 
L 1113 2656 
z
" transform="scale(0.015625)"/>
      <path id="IPAexGothic-305f" d="M 684 3994 
Q 1138 3953 1556 3953 
Q 1797 3953 2106 3975 
Q 2266 4594 2369 5113 
L 2875 5025 
Q 2806 4731 2619 4013 
Q 3209 4084 3656 4191 
L 3688 3719 
Q 3109 3613 2497 3566 
Q 1822 1294 1153 -44 
L 653 172 
Q 1406 1500 1991 3531 
Q 1634 3513 1256 3513 
Q 1106 3513 697 3525 
L 684 3994 
z
M 5753 78 
Q 5059 -13 4597 -13 
Q 3619 -13 3206 334 
Q 2866 625 2766 1222 
L 3213 1388 
Q 3247 1069 3347 903 
Q 3425 775 3578 672 
Q 3866 481 4556 481 
Q 5009 481 5728 575 
L 5753 78 
z
M 3144 2859 
Q 4216 3147 5409 3072 
L 5381 2597 
L 5356 2597 
Q 4263 2663 3194 2419 
L 3144 2859 
z
" transform="scale(0.015625)"/>
      <path id="IPAexGothic-3088" d="M 2784 5019 
L 3272 5019 
Q 3247 4378 3272 3647 
Q 4184 3719 4850 3903 
L 4997 3431 
Q 4369 3291 3272 3200 
Q 3288 2366 3378 1550 
Q 4134 1353 5344 647 
L 5031 213 
Q 4244 759 3406 1044 
L 3413 891 
Q 3434 359 3122 84 
Q 2863 -141 2272 -141 
Q 1641 -141 1272 116 
Q 934 350 934 738 
Q 934 1294 1500 1534 
Q 1841 1678 2278 1678 
Q 2581 1678 2906 1631 
Q 2813 2559 2784 5019 
z
M 2931 1178 
Q 2613 1244 2369 1244 
Q 1422 1244 1422 794 
Q 1422 300 2278 300 
Q 2956 300 2938 934 
L 2931 1178 
z
" transform="scale(0.015625)"/>
      <path id="IPAexGothic-28" d="M 1928 -1016 
L 1653 -1166 
Q 488 69 488 1875 
Q 488 3678 1653 4909 
L 1928 4763 
Q 1006 3522 1006 1881 
Q 1006 203 1928 -1016 
z
" transform="scale(0.015625)"/>
      <path id="IPAexGothic-5e" d="M 3059 2344 
L 2784 2075 
L 1600 3469 
L 416 2075 
L 141 2344 
L 1600 4013 
L 3059 2344 
z
" transform="scale(0.015625)"/>
      <path id="IPAexGothic-29" d="M 466 4909 
Q 1638 3672 1638 1875 
Q 1638 75 466 -1166 
L 191 -1016 
Q 1119 216 1119 1881 
Q 1119 3509 191 4763 
L 466 4909 
z
" transform="scale(0.015625)"/>
     </defs>
     <use xlink:href="#IPAexGothic-7d42"/>
     <use xlink:href="#IPAexGothic-308f" x="100"/>
     <use xlink:href="#IPAexGothic-3063" x="200"/>
     <use xlink:href="#IPAexGothic-305f" x="300"/>
     <use xlink:href="#IPAexGothic-3088" x="400"/>
     <use xlink:href="#IPAexGothic-28" x="500"/>
     <use xlink:href="#IPAexGothic-5e" x="533.300781"/>
     <use xlink:href="#IPAexGothic-5e" x="583.300781"/>
     <use xlink:href="#IPAexGothic-29" x="633.300781"/>
    </g>
   </g>
   <g id="text_7">
    <!-- END -->
    <g transform="translate(291.990781 248.294141) scale(0.125 -0.125)">
     <defs>
      <path id="IPAexGothic-45" d="M 3547 63 
L 609 63 
L 609 4634 
L 3469 4634 
L 3469 4147 
L 1166 4147 
L 1166 2650 
L 3206 2650 
L 3206 2191 
L 1166 2191 
L 1166 556 
L 3547 556 
L 3547 63 
z
" transform="scale(0.015625)"/>
      <path id="IPAexGothic-4e" d="M 4244 63 
L 3731 63 
L 1697 3150 
Q 1466 3500 1141 4097 
L 1116 4097 
L 1128 3797 
Q 1159 2803 1159 2469 
L 1159 63 
L 609 63 
L 609 4634 
L 1366 4634 
L 3113 1978 
Q 3453 1447 3713 966 
L 3738 966 
Q 3694 1897 3694 2469 
L 3694 4634 
L 4244 4634 
L 4244 63 
z
" transform="scale(0.015625)"/>
      <path id="IPAexGothic-44" d="M 609 4634 
L 1984 4634 
Q 3159 4634 3791 4050 
Q 4456 3444 4456 2356 
Q 4456 1047 3516 441 
Q 2925 63 1941 63 
L 609 63 
L 609 4634 
z
M 1172 556 
L 1894 556 
Q 3853 556 3853 2356 
Q 3853 4147 1928 4147 
L 1172 4147 
L 1172 556 
z
" transform="scale(0.015625)"/>
     </defs>
     <use xlink:href="#IPAexGothic-45"/>
     <use xlink:href="#IPAexGothic-4e" x="59.521484"/>
     <use xlink:href="#IPAexGothic-44" x="135.498047"/>
    </g>
   </g>
   <g id="text_8">
    <!-- 「counter」を表示 -->
    <g transform="translate(74.781211 257.294141) scale(0.125 -0.125)">
     <defs>
      <path id="IPAexGothic-300c" d="M 4134 5300 
L 5875 5300 
L 5875 4853 
L 4581 4853 
L 4581 656 
L 4134 656 
L 4134 5300 
z
" transform="scale(0.015625)"/>
      <path id="IPAexGothic-300d" d="M 1819 4209 
L 2266 4209 
L 2266 -434 
L 525 -434 
L 525 13 
L 1819 13 
L 1819 4209 
z
" transform="scale(0.015625)"/>
      <path id="IPAexGothic-3092" d="M 1094 4263 
Q 1544 4222 2359 4222 
Q 2581 4734 2700 5163 
L 3175 5028 
Q 2997 4538 2859 4256 
Q 3516 4284 4294 4459 
L 4356 4019 
Q 3603 3869 2656 3819 
Q 2391 3284 2059 2797 
Q 2531 3200 2963 3200 
Q 3638 3200 3859 2378 
Q 4556 2681 5338 2950 
L 5575 2528 
Q 4641 2253 3941 1956 
Q 3981 1678 3994 1028 
L 3513 991 
Q 3513 1456 3494 1753 
Q 2388 1194 2388 716 
Q 2388 428 2753 328 
Q 3066 241 3806 241 
Q 4394 241 5178 344 
L 5216 -128 
Q 4434 -213 3653 -213 
Q 2656 -213 2244 41 
Q 1913 244 1913 631 
Q 1913 1094 2344 1497 
Q 2709 1841 3428 2181 
Q 3266 2797 2878 2797 
Q 2238 2797 1209 1419 
L 838 1694 
Q 1625 2716 2163 3800 
Q 1522 3800 1088 3825 
L 1094 4263 
z
" transform="scale(0.015625)"/>
      <path id="IPAexGothic-8868" d="M 3209 2350 
Q 2856 1944 2328 1563 
L 2328 288 
Q 2975 438 3756 691 
L 3763 275 
Q 2534 -163 1184 -447 
L 978 13 
Q 1566 119 1819 175 
L 1875 188 
L 1875 1275 
Q 1306 941 506 666 
L 219 1056 
Q 1813 1509 2675 2356 
L 384 2356 
L 384 2753 
L 2978 2753 
L 2978 3309 
L 959 3309 
L 959 3694 
L 2978 3694 
L 2978 4219 
L 641 4219 
L 641 4603 
L 2978 4603 
L 2978 5313 
L 3431 5313 
L 3431 4603 
L 5759 4603 
L 5759 4219 
L 3431 4219 
L 3431 3694 
L 5434 3694 
L 5434 3309 
L 3431 3309 
L 3431 2753 
L 6016 2753 
L 6016 2356 
L 3634 2356 
Q 3863 1838 4244 1356 
Q 4781 1756 5166 2191 
L 5588 1894 
Q 5084 1419 4525 1056 
Q 5150 459 6106 66 
L 5734 -356 
Q 3850 575 3209 2350 
z
" transform="scale(0.015625)"/>
      <path id="IPAexGothic-793a" d="M 3488 2822 
L 3488 153 
Q 3488 -144 3334 -247 
Q 3213 -331 2872 -331 
Q 2425 -331 1950 -294 
L 1859 213 
Q 2350 128 2775 128 
Q 3000 128 3000 353 
L 3000 2822 
L 447 2822 
L 447 3250 
L 5950 3250 
L 5950 2822 
L 3488 2822 
z
M 1125 4813 
L 5266 4813 
L 5266 4384 
L 1125 4384 
L 1125 4813 
z
M 5581 244 
Q 4966 1263 4206 2081 
L 4563 2369 
Q 5319 1575 6009 622 
L 5581 244 
z
M 403 616 
Q 1184 1238 1741 2259 
L 2163 2053 
Q 1631 975 763 238 
L 403 616 
z
" transform="scale(0.015625)"/>
     </defs>
     <use xlink:href="#IPAexGothic-300c"/>
     <use xlink:href="#IPAexGothic-63" x="100"/>
     <use xlink:href="#IPAexGothic-6f" x="154.394531"/>
     <use xlink:href="#IPAexGothic-75" x="214.794922"/>
     <use xlink:href="#IPAexGothic-6e" x="275.195312"/>
     <use xlink:href="#IPAexGothic-74" x="335.595703"/>
     <use xlink:href="#IPAexGothic-65" x="370.214844"/>
     <use xlink:href="#IPAexGothic-72" x="427.099609"/>
     <use xlink:href="#IPAexGothic-300d" x="464.111328"/>
     <use xlink:href="#IPAexGothic-3092" x="564.111328"/>
     <use xlink:href="#IPAexGothic-8868" x="664.111328"/>
     <use xlink:href="#IPAexGothic-793a" x="764.111328"/>
    </g>
   </g>
   <g id="text_9">
    <!-- counter += 1 -->
    <g transform="translate(90.241172 329.294141) scale(0.125 -0.125)">
     <defs>
      <path id="IPAexGothic-2b" d="M 2369 1856 
L 2369 219 
L 1984 219 
L 1984 1856 
L 416 1856 
L 416 2216 
L 1984 2216 
L 1984 3725 
L 2369 3725 
L 2369 2216 
L 3922 2216 
L 3922 1856 
L 2369 1856 
z
" transform="scale(0.015625)"/>
      <path id="IPAexGothic-31" d="M 2463 63 
L 1900 63 
L 1900 4103 
Q 1372 3922 788 3797 
L 684 4231 
Q 1519 4441 2106 4731 
L 2463 4731 
L 2463 63 
z
" transform="scale(0.015625)"/>
     </defs>
     <use xlink:href="#IPAexGothic-63"/>
     <use xlink:href="#IPAexGothic-6f" x="54.394531"/>
     <use xlink:href="#IPAexGothic-75" x="114.794922"/>
     <use xlink:href="#IPAexGothic-6e" x="175.195312"/>
     <use xlink:href="#IPAexGothic-74" x="235.595703"/>
     <use xlink:href="#IPAexGothic-65" x="270.214844"/>
     <use xlink:href="#IPAexGothic-72" x="327.099609"/>
     <use xlink:href="#IPAexGothic-20" x="364.111328"/>
     <use xlink:href="#IPAexGothic-2b" x="391.113281"/>
     <use xlink:href="#IPAexGothic-3d" x="458.935547"/>
     <use xlink:href="#IPAexGothic-20" x="526.757812"/>
     <use xlink:href="#IPAexGothic-31" x="553.759766"/>
    </g>
   </g>
  </g>
 </g>
 <defs>
  <clipPath id="p3b8fca92f2">
   <rect x="3.6" y="3.6" width="378.18" height="356.4"/>
  </clipPath>
 </defs>
</svg>