<?xml version="1.0" encoding="utf-8" standalone="no"?>
<!DOCTYPE svg PUBLIC "-//W3C//DTD SVG 1.1//EN"
  "http://www.w3.org/Graphics/SVG/1.1/DTD/svg11.dtd">
<svg xmlns:xlink="http://www.w3.org/1999/xlink" width="393.3pt" height="424.98pt" viewBox="0 0 393.3 424.98" xmlns="http://www.w3.org/2000/svg" version="1.1">
 <metadata>
  <rdf:RDF xmlns:dc="http://purl.org/dc/elements/1.1/" xmlns:cc="http://creativecommons.org/ns#" xmlns:rdf="http://www.w3.org/1999/02/22-rdf-syntax-ns#">
   <cc:Work>
    <dc:type rdf:resource="http://purl.org/dc/dcmitype/StillImage"/>
    <dc:date>2024-03-07T12:08:12.475418</dc:date>
    <dc:format>image/svg+xml</dc:format>
    <dc:creator>
     <cc:Agent>
      <dc:title>Matplotlib v3.8.3, https://matplotlib.org/</dc:title>
     </cc:Agent>
    </dc:creator>
   </cc:Work>
  </rdf:RDF>
 </metadata>
 <defs>
  <style type="text/css">*{stroke-linejoin: round; stroke-linecap: butt}</style>
 </defs>
 <g id="figure_1">
  <g id="patch_1">
   <path d="M 0 424.98 
L 393.3 424.98 
L 393.3 0 
L 0 0 
z
" style="fill: #ffffff"/>
  </g>
  <g id="axes_1">
   <g id="patch_2">
    <path d="M 102.15 58.59 
L 102.435587 58.587734 
L 102.721103 58.580938 
L 103.006474 58.569612 
L 103.291631 58.55376 
L 103.576499 58.533386 
L 103.861009 58.508495 
L 104.145088 58.479092 
L 104.428664 58.445187 
L 104.711667 58.406786 
L 104.994025 58.3639 
L 105.275667 58.31654 
L 105.556522 58.264717 
L 105.83652 58.208444 
L 106.11559 58.147736 
L 106.393661 58.082608 
L 106.670664 58.013077 
L 106.946529 57.939159 
L 107.221186 57.860874 
L 107.494567 57.77824 
L 107.766602 57.69128 
L 108.037223 57.600015 
L 108.306363 57.504467 
L 108.573952 57.404661 
L 108.839924 57.300623 
L 109.104212 57.192377 
L 109.36675 57.079952 
L 109.62747 56.963376 
L 109.886308 56.842678 
L 110.143199 56.717888 
L 110.398077 56.589038 
L 110.650879 56.456161 
L 110.901541 56.319289 
L 111.15 56.178457 
L 111.396193 56.033701 
L 111.640058 55.885058 
L 111.881535 55.732564 
L 112.120561 55.576257 
L 112.357078 55.416178 
L 112.591024 55.252367 
L 112.822343 55.084865 
L 113.050974 54.913713 
L 113.276862 54.738956 
L 113.499948 54.560636 
L 113.720177 54.3788 
L 113.937493 54.193492 
L 114.151842 54.00476 
L 114.363169 53.812651 
L 114.571422 53.617213 
L 114.776548 53.418495 
L 114.978495 53.216548 
L 115.177213 53.011422 
L 115.372651 52.803169 
L 115.56476 52.591842 
L 115.753492 52.377493 
L 115.9388 52.160177 
L 116.120636 51.939948 
L 116.298956 51.716862 
L 116.473713 51.490974 
L 116.644865 51.262343 
L 116.812367 51.031024 
L 116.976178 50.797078 
L 117.136257 50.560561 
L 117.292564 50.321535 
L 117.445058 50.080058 
L 117.593701 49.836193 
L 117.738457 49.59 
L 117.879289 49.341541 
L 118.016161 49.090879 
L 118.149038 48.838077 
L 118.277888 48.583199 
L 118.402678 48.326308 
L 118.523376 48.06747 
L 118.639952 47.80675 
L 118.752377 47.544212 
L 118.860623 47.279924 
L 118.964661 47.013952 
L 119.064467 46.746363 
L 119.160015 46.477223 
L 119.25128 46.206602 
L 119.33824 45.934567 
L 119.420874 45.661186 
L 119.499159 45.386529 
L 119.573077 45.110664 
L 119.642608 44.833661 
L 119.707736 44.55559 
L 119.768444 44.27652 
L 119.824717 43.996522 
L 119.87654 43.715667 
L 119.9239 43.434025 
L 119.966786 43.151667 
L 120.005187 42.868664 
L 120.039092 42.585088 
L 120.068495 42.301009 
L 120.093386 42.016499 
L 120.11376 41.731631 
L 120.129612 41.446474 
L 120.140938 41.161103 
L 120.147734 40.875587 
L 120.15 40.59 
L 120.15 40.59 
L 120.147734 40.304413 
L 120.140938 40.018897 
L 120.129612 39.733526 
L 120.11376 39.448369 
L 120.093386 39.163501 
L 120.068495 38.878991 
L 120.039092 38.594912 
L 120.005187 38.311336 
L 119.966786 38.028333 
L 119.9239 37.745975 
L 119.87654 37.464333 
L 119.824717 37.183478 
L 119.768444 36.90348 
L 119.707736 36.62441 
L 119.642608 36.346339 
L 119.573077 36.069336 
L 119.499159 35.793471 
L 119.420874 35.518814 
L 119.33824 35.245433 
L 119.25128 34.973398 
L 119.160015 34.702777 
L 119.064467 34.433637 
L 118.964661 34.166048 
L 118.860623 33.900076 
L 118.752377 33.635788 
L 118.639952 33.37325 
L 118.523376 33.11253 
L 118.402678 32.853692 
L 118.277888 32.596801 
L 118.149038 32.341923 
L 118.016161 32.089121 
L 117.879289 31.838459 
L 117.738457 31.59 
L 117.593701 31.343807 
L 117.445058 31.099942 
L 117.292564 30.858465 
L 117.136257 30.619439 
L 116.976178 30.382922 
L 116.812367 30.148976 
L 116.644865 29.917657 
L 116.473713 29.689026 
L 116.298956 29.463138 
L 116.120636 29.240052 
L 115.9388 29.019823 
L 115.753492 28.802507 
L 115.56476 28.588158 
L 115.372651 28.376831 
L 115.177213 28.168578 
L 114.978495 27.963452 
L 114.776548 27.761505 
L 114.571422 27.562787 
L 114.363169 27.367349 
L 114.151842 27.17524 
L 113.937493 26.986508 
L 113.720177 26.8012 
L 113.499948 26.619364 
L 113.276862 26.441044 
L 113.050974 26.266287 
L 112.822343 26.095135 
L 112.591024 25.927633 
L 112.357078 25.763822 
L 112.120561 25.603743 
L 111.881535 25.447436 
L 111.640058 25.294942 
L 111.396193 25.146299 
L 111.15 25.001543 
L 110.901541 24.860711 
L 110.650879 24.723839 
L 110.398077 24.590962 
L 110.143199 24.462112 
L 109.886308 24.337322 
L 109.62747 24.216624 
L 109.36675 24.100048 
L 109.104212 23.987623 
L 108.839924 23.879377 
L 108.573952 23.775339 
L 108.306363 23.675533 
L 108.037223 23.579985 
L 107.766602 23.48872 
L 107.494567 23.40176 
L 107.221186 23.319126 
L 106.946529 23.240841 
L 106.670664 23.166923 
L 106.393661 23.097392 
L 106.11559 23.032264 
L 105.83652 22.971556 
L 105.556522 22.915283 
L 105.275667 22.86346 
L 104.994025 22.8161 
L 104.711667 22.773214 
L 104.428664 22.734813 
L 104.145088 22.700908 
L 103.861009 22.671505 
L 103.576499 22.646614 
L 103.291631 22.62624 
L 103.006474 22.610388 
L 102.721103 22.599062 
L 102.435587 22.592266 
L 102.15 22.59 
L 66.15 22.59 
L 65.864413 22.592266 
L 65.578897 22.599062 
L 65.293526 22.610388 
L 65.008369 22.62624 
L 64.723501 22.646614 
L 64.438991 22.671505 
L 64.154912 22.700908 
L 63.871336 22.734813 
L 63.588333 22.773214 
L 63.305975 22.8161 
L 63.024333 22.86346 
L 62.743478 22.915283 
L 62.46348 22.971556 
L 62.18441 23.032264 
L 61.906339 23.097392 
L 61.629336 23.166923 
L 61.353471 23.240841 
L 61.078814 23.319126 
L 60.805433 23.40176 
L 60.533398 23.48872 
L 60.262777 23.579985 
L 59.993637 23.675533 
L 59.726048 23.775339 
L 59.460076 23.879377 
L 59.195788 23.987623 
L 58.93325 24.100048 
L 58.67253 24.216624 
L 58.413692 24.337322 
L 58.156801 24.462112 
L 57.901923 24.590962 
L 57.649121 24.723839 
L 57.398459 24.860711 
L 57.15 25.001543 
L 56.903807 25.146299 
L 56.659942 25.294942 
L 56.418465 25.447436 
L 56.179439 25.603743 
L 55.942922 25.763822 
L 55.708976 25.927633 
L 55.477657 26.095135 
L 55.249026 26.266287 
L 55.023138 26.441044 
L 54.800052 26.619364 
L 54.579823 26.8012 
L 54.362507 26.986508 
L 54.148158 27.17524 
L 53.936831 27.367349 
L 53.728578 27.562787 
L 53.523452 27.761505 
L 53.321505 27.963452 
L 53.122787 28.168578 
L 52.927349 28.376831 
L 52.73524 28.588158 
L 52.546508 28.802507 
L 52.3612 29.019823 
L 52.179364 29.240052 
L 52.001044 29.463138 
L 51.826287 29.689026 
L 51.655135 29.917657 
L 51.487633 30.148976 
L 51.323822 30.382922 
L 51.163743 30.619439 
L 51.007436 30.858465 
L 50.854942 31.099942 
L 50.706299 31.343807 
L 50.561543 31.59 
L 50.420711 31.838459 
L 50.283839 32.089121 
L 50.150962 32.341923 
L 50.022112 32.596801 
L 49.897322 32.853692 
L 49.776624 33.11253 
L 49.660048 33.37325 
L 49.547623 33.635788 
L 49.439377 33.900076 
L 49.335339 34.166048 
L 49.235533 34.433637 
L 49.139985 34.702777 
L 49.04872 34.973398 
L 48.96176 35.245433 
L 48.879126 35.518814 
L 48.800841 35.793471 
L 48.726923 36.069336 
L 48.657392 36.346339 
L 48.592264 36.62441 
L 48.531556 36.90348 
L 48.475283 37.183478 
L 48.42346 37.464333 
L 48.3761 37.745975 
L 48.333214 38.028333 
L 48.294813 38.311336 
L 48.260908 38.594912 
L 48.231505 38.878991 
L 48.206614 39.163501 
L 48.18624 39.448369 
L 48.170388 39.733526 
L 48.159062 40.018897 
L 48.152266 40.304413 
L 48.15 40.59 
L 48.15 40.59 
L 48.152266 40.875587 
L 48.159062 41.161103 
L 48.170388 41.446474 
L 48.18624 41.731631 
L 48.206614 42.016499 
L 48.231505 42.301009 
L 48.260908 42.585088 
L 48.294813 42.868664 
L 48.333214 43.151667 
L 48.3761 43.434025 
L 48.42346 43.715667 
L 48.475283 43.996522 
L 48.531556 44.27652 
L 48.592264 44.55559 
L 48.657392 44.833661 
L 48.726923 45.110664 
L 48.800841 45.386529 
L 48.879126 45.661186 
L 48.96176 45.934567 
L 49.04872 46.206602 
L 49.139985 46.477223 
L 49.235533 46.746363 
L 49.335339 47.013952 
L 49.439377 47.279924 
L 49.547623 47.544212 
L 49.660048 47.80675 
L 49.776624 48.06747 
L 49.897322 48.326308 
L 50.022112 48.583199 
L 50.150962 48.838077 
L 50.283839 49.090879 
L 50.420711 49.341541 
L 50.561543 49.59 
L 50.706299 49.836193 
L 50.854942 50.080058 
L 51.007436 50.321535 
L 51.163743 50.560561 
L 51.323822 50.797078 
L 51.487633 51.031024 
L 51.655135 51.262343 
L 51.826287 51.490974 
L 52.001044 51.716862 
L 52.179364 51.939948 
L 52.3612 52.160177 
L 52.546508 52.377493 
L 52.73524 52.591842 
L 52.927349 52.803169 
L 53.122787 53.011422 
L 53.321505 53.216548 
L 53.523452 53.418495 
L 53.728578 53.617213 
L 53.936831 53.812651 
L 54.148158 54.00476 
L 54.362507 54.193492 
L 54.579823 54.3788 
L 54.800052 54.560636 
L 55.023138 54.738956 
L 55.249026 54.913713 
L 55.477657 55.084865 
L 55.708976 55.252367 
L 55.942922 55.416178 
L 56.179439 55.576257 
L 56.418465 55.732564 
L 56.659942 55.885058 
L 56.903807 56.033701 
L 57.15 56.178457 
L 57.398459 56.319289 
L 57.649121 56.456161 
L 57.901923 56.589038 
L 58.156801 56.717888 
L 58.413692 56.842678 
L 58.67253 56.963376 
L 58.93325 57.079952 
L 59.195788 57.192377 
L 59.460076 57.300623 
L 59.726048 57.404661 
L 59.993637 57.504467 
L 60.262777 57.600015 
L 60.533398 57.69128 
L 60.805433 57.77824 
L 61.078814 57.860874 
L 61.353471 57.939159 
L 61.629336 58.013077 
L 61.906339 58.082608 
L 62.18441 58.147736 
L 62.46348 58.208444 
L 62.743478 58.264717 
L 63.024333 58.31654 
L 63.305975 58.3639 
L 63.588333 58.406786 
L 63.871336 58.445187 
L 64.154912 58.479092 
L 64.438991 58.508495 
L 64.723501 58.533386 
L 65.008369 58.55376 
L 65.293526 58.569612 
L 65.578897 58.580938 
L 65.864413 58.587734 
L 66.15 58.59 
L 102.15 58.59 
z
" clip-path="url(#p93ab688bab)" style="fill: none; stroke: #000000; stroke-linecap: round"/>
   </g>
   <g id="patch_3">
    <path d="M 21.15 170.19 
L 84.15 148.59 
L 147.15 170.19 
L 84.15 191.79 
L 21.15 170.19 
z
" clip-path="url(#p93ab688bab)" style="fill: none; stroke: #000000; stroke-linecap: round"/>
   </g>
   <g id="patch_4">
    <path d="M 354.15 188.19 
L 354.435587 188.187734 
L 354.721103 188.180938 
L 355.006474 188.169612 
L 355.291631 188.15376 
L 355.576499 188.133386 
L 355.861009 188.108495 
L 356.145088 188.079092 
L 356.428664 188.045187 
L 356.711667 188.006786 
L 356.994025 187.9639 
L 357.275667 187.91654 
L 357.556522 187.864717 
L 357.83652 187.808444 
L 358.11559 187.747736 
L 358.393661 187.682608 
L 358.670664 187.613077 
L 358.946529 187.539159 
L 359.221186 187.460874 
L 359.494567 187.37824 
L 359.766602 187.29128 
L 360.037223 187.200015 
L 360.306363 187.104467 
L 360.573952 187.004661 
L 360.839924 186.900623 
L 361.104212 186.792377 
L 361.36675 186.679952 
L 361.62747 186.563376 
L 361.886308 186.442678 
L 362.143199 186.317888 
L 362.398077 186.189038 
L 362.650879 186.056161 
L 362.901541 185.919289 
L 363.15 185.778457 
L 363.396193 185.633701 
L 363.640058 185.485058 
L 363.881535 185.332564 
L 364.120561 185.176257 
L 364.357078 185.016178 
L 364.591024 184.852367 
L 364.822343 184.684865 
L 365.050974 184.513713 
L 365.276862 184.338956 
L 365.499948 184.160636 
L 365.720177 183.9788 
L 365.937493 183.793492 
L 366.151842 183.60476 
L 366.363169 183.412651 
L 366.571422 183.217213 
L 366.776548 183.018495 
L 366.978495 182.816548 
L 367.177213 182.611422 
L 367.372651 182.403169 
L 367.56476 182.191842 
L 367.753492 181.977493 
L 367.9388 181.760177 
L 368.120636 181.539948 
L 368.298956 181.316862 
L 368.473713 181.090974 
L 368.644865 180.862343 
L 368.812367 180.631024 
L 368.976178 180.397078 
L 369.136257 180.160561 
L 369.292564 179.921535 
L 369.445058 179.680058 
L 369.593701 179.436193 
L 369.738457 179.19 
L 369.879289 178.941541 
L 370.016161 178.690879 
L 370.149038 178.438077 
L 370.277888 178.183199 
L 370.402678 177.926308 
L 370.523376 177.66747 
L 370.639952 177.40675 
L 370.752377 177.144212 
L 370.860623 176.879924 
L 370.964661 176.613952 
L 371.064467 176.346363 
L 371.160015 176.077223 
L 371.25128 175.806602 
L 371.33824 175.534567 
L 371.420874 175.261186 
L 371.499159 174.986529 
L 371.573077 174.710664 
L 371.642608 174.433661 
L 371.707736 174.15559 
L 371.768444 173.87652 
L 371.824717 173.596522 
L 371.87654 173.315667 
L 371.9239 173.034025 
L 371.966786 172.751667 
L 372.005187 172.468664 
L 372.039092 172.185088 
L 372.068495 171.901009 
L 372.093386 171.616499 
L 372.11376 171.331631 
L 372.129612 171.046474 
L 372.140938 170.761103 
L 372.147734 170.475587 
L 372.15 170.19 
L 372.15 170.19 
L 372.147734 169.904413 
L 372.140938 169.618897 
L 372.129612 169.333526 
L 372.11376 169.048369 
L 372.093386 168.763501 
L 372.068495 168.478991 
L 372.039092 168.194912 
L 372.005187 167.911336 
L 371.966786 167.628333 
L 371.9239 167.345975 
L 371.87654 167.064333 
L 371.824717 166.783478 
L 371.768444 166.50348 
L 371.707736 166.22441 
L 371.642608 165.946339 
L 371.573077 165.669336 
L 371.499159 165.393471 
L 371.420874 165.118814 
L 371.33824 164.845433 
L 371.25128 164.573398 
L 371.160015 164.302777 
L 371.064467 164.033637 
L 370.964661 163.766048 
L 370.860623 163.500076 
L 370.752377 163.235788 
L 370.639952 162.97325 
L 370.523376 162.71253 
L 370.402678 162.453692 
L 370.277888 162.196801 
L 370.149038 161.941923 
L 370.016161 161.689121 
L 369.879289 161.438459 
L 369.738457 161.19 
L 369.593701 160.943807 
L 369.445058 160.699942 
L 369.292564 160.458465 
L 369.136257 160.219439 
L 368.976178 159.982922 
L 368.812367 159.748976 
L 368.644865 159.517657 
L 368.473713 159.289026 
L 368.298956 159.063138 
L 368.120636 158.840052 
L 367.9388 158.619823 
L 367.753492 158.402507 
L 367.56476 158.188158 
L 367.372651 157.976831 
L 367.177213 157.768578 
L 366.978495 157.563452 
L 366.776548 157.361505 
L 366.571422 157.162787 
L 366.363169 156.967349 
L 366.151842 156.77524 
L 365.937493 156.586508 
L 365.720177 156.4012 
L 365.499948 156.219364 
L 365.276862 156.041044 
L 365.050974 155.866287 
L 364.822343 155.695135 
L 364.591024 155.527633 
L 364.357078 155.363822 
L 364.120561 155.203743 
L 363.881535 155.047436 
L 363.640058 154.894942 
L 363.396193 154.746299 
L 363.15 154.601543 
L 362.901541 154.460711 
L 362.650879 154.323839 
L 362.398077 154.190962 
L 362.143199 154.062112 
L 361.886308 153.937322 
L 361.62747 153.816624 
L 361.36675 153.700048 
L 361.104212 153.587623 
L 360.839924 153.479377 
L 360.573952 153.375339 
L 360.306363 153.275533 
L 360.037223 153.179985 
L 359.766602 153.08872 
L 359.494567 153.00176 
L 359.221186 152.919126 
L 358.946529 152.840841 
L 358.670664 152.766923 
L 358.393661 152.697392 
L 358.11559 152.632264 
L 357.83652 152.571556 
L 357.556522 152.515283 
L 357.275667 152.46346 
L 356.994025 152.4161 
L 356.711667 152.373214 
L 356.428664 152.334813 
L 356.145088 152.300908 
L 355.861009 152.271505 
L 355.576499 152.246614 
L 355.291631 152.22624 
L 355.006474 152.210388 
L 354.721103 152.199062 
L 354.435587 152.192266 
L 354.15 152.19 
L 318.15 152.19 
L 317.864413 152.192266 
L 317.578897 152.199062 
L 317.293526 152.210388 
L 317.008369 152.22624 
L 316.723501 152.246614 
L 316.438991 152.271505 
L 316.154912 152.300908 
L 315.871336 152.334813 
L 315.588333 152.373214 
L 315.305975 152.4161 
L 315.024333 152.46346 
L 314.743478 152.515283 
L 314.46348 152.571556 
L 314.18441 152.632264 
L 313.906339 152.697392 
L 313.629336 152.766923 
L 313.353471 152.840841 
L 313.078814 152.919126 
L 312.805433 153.00176 
L 312.533398 153.08872 
L 312.262777 153.179985 
L 311.993637 153.275533 
L 311.726048 153.375339 
L 311.460076 153.479377 
L 311.195788 153.587623 
L 310.93325 153.700048 
L 310.67253 153.816624 
L 310.413692 153.937322 
L 310.156801 154.062112 
L 309.901923 154.190962 
L 309.649121 154.323839 
L 309.398459 154.460711 
L 309.15 154.601543 
L 308.903807 154.746299 
L 308.659942 154.894942 
L 308.418465 155.047436 
L 308.179439 155.203743 
L 307.942922 155.363822 
L 307.708976 155.527633 
L 307.477657 155.695135 
L 307.249026 155.866287 
L 307.023138 156.041044 
L 306.800052 156.219364 
L 306.579823 156.4012 
L 306.362507 156.586508 
L 306.148158 156.77524 
L 305.936831 156.967349 
L 305.728578 157.162787 
L 305.523452 157.361505 
L 305.321505 157.563452 
L 305.122787 157.768578 
L 304.927349 157.976831 
L 304.73524 158.188158 
L 304.546508 158.402507 
L 304.3612 158.619823 
L 304.179364 158.840052 
L 304.001044 159.063138 
L 303.826287 159.289026 
L 303.655135 159.517657 
L 303.487633 159.748976 
L 303.323822 159.982922 
L 303.163743 160.219439 
L 303.007436 160.458465 
L 302.854942 160.699942 
L 302.706299 160.943807 
L 302.561543 161.19 
L 302.420711 161.438459 
L 302.283839 161.689121 
L 302.150962 161.941923 
L 302.022112 162.196801 
L 301.897322 162.453692 
L 301.776624 162.71253 
L 301.660048 162.97325 
L 301.547623 163.235788 
L 301.439377 163.500076 
L 301.335339 163.766048 
L 301.235533 164.033637 
L 301.139985 164.302777 
L 301.04872 164.573398 
L 300.96176 164.845433 
L 300.879126 165.118814 
L 300.800841 165.393471 
L 300.726923 165.669336 
L 300.657392 165.946339 
L 300.592264 166.22441 
L 300.531556 166.50348 
L 300.475283 166.783478 
L 300.42346 167.064333 
L 300.3761 167.345975 
L 300.333214 167.628333 
L 300.294813 167.911336 
L 300.260908 168.194912 
L 300.231505 168.478991 
L 300.206614 168.763501 
L 300.18624 169.048369 
L 300.170388 169.333526 
L 300.159062 169.618897 
L 300.152266 169.904413 
L 300.15 170.19 
L 300.15 170.19 
L 300.152266 170.475587 
L 300.159062 170.761103 
L 300.170388 171.046474 
L 300.18624 171.331631 
L 300.206614 171.616499 
L 300.231505 171.901009 
L 300.260908 172.185088 
L 300.294813 172.468664 
L 300.333214 172.751667 
L 300.3761 173.034025 
L 300.42346 173.315667 
L 300.475283 173.596522 
L 300.531556 173.87652 
L 300.592264 174.15559 
L 300.657392 174.433661 
L 300.726923 174.710664 
L 300.800841 174.986529 
L 300.879126 175.261186 
L 300.96176 175.534567 
L 301.04872 175.806602 
L 301.139985 176.077223 
L 301.235533 176.346363 
L 301.335339 176.613952 
L 301.439377 176.879924 
L 301.547623 177.144212 
L 301.660048 177.40675 
L 301.776624 177.66747 
L 301.897322 177.926308 
L 302.022112 178.183199 
L 302.150962 178.438077 
L 302.283839 178.690879 
L 302.420711 178.941541 
L 302.561543 179.19 
L 302.706299 179.436193 
L 302.854942 179.680058 
L 303.007436 179.921535 
L 303.163743 180.160561 
L 303.323822 180.397078 
L 303.487633 180.631024 
L 303.655135 180.862343 
L 303.826287 181.090974 
L 304.001044 181.316862 
L 304.179364 181.539948 
L 304.3612 181.760177 
L 304.546508 181.977493 
L 304.73524 182.191842 
L 304.927349 182.403169 
L 305.122787 182.611422 
L 305.321505 182.816548 
L 305.523452 183.018495 
L 305.728578 183.217213 
L 305.936831 183.412651 
L 306.148158 183.60476 
L 306.362507 183.793492 
L 306.579823 183.9788 
L 306.800052 184.160636 
L 307.023138 184.338956 
L 307.249026 184.513713 
L 307.477657 184.684865 
L 307.708976 184.852367 
L 307.942922 185.016178 
L 308.179439 185.176257 
L 308.418465 185.332564 
L 308.659942 185.485058 
L 308.903807 185.633701 
L 309.15 185.778457 
L 309.398459 185.919289 
L 309.649121 186.056161 
L 309.901923 186.189038 
L 310.156801 186.317888 
L 310.413692 186.442678 
L 310.67253 186.563376 
L 310.93325 186.679952 
L 311.195788 186.792377 
L 311.460076 186.900623 
L 311.726048 187.004661 
L 311.993637 187.104467 
L 312.262777 187.200015 
L 312.533398 187.29128 
L 312.805433 187.37824 
L 313.078814 187.460874 
L 313.353471 187.539159 
L 313.629336 187.613077 
L 313.906339 187.682608 
L 314.18441 187.747736 
L 314.46348 187.808444 
L 314.743478 187.864717 
L 315.024333 187.91654 
L 315.305975 187.9639 
L 315.588333 188.006786 
L 315.871336 188.045187 
L 316.154912 188.079092 
L 316.438991 188.108495 
L 316.723501 188.133386 
L 317.008369 188.15376 
L 317.293526 188.169612 
L 317.578897 188.180938 
L 317.864413 188.187734 
L 318.15 188.19 
L 354.15 188.19 
z
" clip-path="url(#p93ab688bab)" style="fill: none; stroke: #000000; stroke-linecap: round"/>
   </g>
   <g id="patch_5">
    <path d="M 21.15 249.39 
L 84.15 227.79 
L 147.15 249.39 
L 84.15 270.99 
L 21.15 249.39 
z
" clip-path="url(#p93ab688bab)" style="fill: none; stroke: #000000; stroke-linecap: round"/>
   </g>
   <g id="patch_6">
    <path d="M 354.15 267.39 
L 354.435587 267.387734 
L 354.721103 267.380938 
L 355.006474 267.369612 
L 355.291631 267.35376 
L 355.576499 267.333386 
L 355.861009 267.308495 
L 356.145088 267.279092 
L 356.428664 267.245187 
L 356.711667 267.206786 
L 356.994025 267.1639 
L 357.275667 267.11654 
L 357.556522 267.064717 
L 357.83652 267.008444 
L 358.11559 266.947736 
L 358.393661 266.882608 
L 358.670664 266.813077 
L 358.946529 266.739159 
L 359.221186 266.660874 
L 359.494567 266.57824 
L 359.766602 266.49128 
L 360.037223 266.400015 
L 360.306363 266.304467 
L 360.573952 266.204661 
L 360.839924 266.100623 
L 361.104212 265.992377 
L 361.36675 265.879952 
L 361.62747 265.763376 
L 361.886308 265.642678 
L 362.143199 265.517888 
L 362.398077 265.389038 
L 362.650879 265.256161 
L 362.901541 265.119289 
L 363.15 264.978457 
L 363.396193 264.833701 
L 363.640058 264.685058 
L 363.881535 264.532564 
L 364.120561 264.376257 
L 364.357078 264.216178 
L 364.591024 264.052367 
L 364.822343 263.884865 
L 365.050974 263.713713 
L 365.276862 263.538956 
L 365.499948 263.360636 
L 365.720177 263.1788 
L 365.937493 262.993492 
L 366.151842 262.80476 
L 366.363169 262.612651 
L 366.571422 262.417213 
L 366.776548 262.218495 
L 366.978495 262.016548 
L 367.177213 261.811422 
L 367.372651 261.603169 
L 367.56476 261.391842 
L 367.753492 261.177493 
L 367.9388 260.960177 
L 368.120636 260.739948 
L 368.298956 260.516862 
L 368.473713 260.290974 
L 368.644865 260.062343 
L 368.812367 259.831024 
L 368.976178 259.597078 
L 369.136257 259.360561 
L 369.292564 259.121535 
L 369.445058 258.880058 
L 369.593701 258.636193 
L 369.738457 258.39 
L 369.879289 258.141541 
L 370.016161 257.890879 
L 370.149038 257.638077 
L 370.277888 257.383199 
L 370.402678 257.126308 
L 370.523376 256.86747 
L 370.639952 256.60675 
L 370.752377 256.344212 
L 370.860623 256.079924 
L 370.964661 255.813952 
L 371.064467 255.546363 
L 371.160015 255.277223 
L 371.25128 255.006602 
L 371.33824 254.734567 
L 371.420874 254.461186 
L 371.499159 254.186529 
L 371.573077 253.910664 
L 371.642608 253.633661 
L 371.707736 253.35559 
L 371.768444 253.07652 
L 371.824717 252.796522 
L 371.87654 252.515667 
L 371.9239 252.234025 
L 371.966786 251.951667 
L 372.005187 251.668664 
L 372.039092 251.385088 
L 372.068495 251.101009 
L 372.093386 250.816499 
L 372.11376 250.531631 
L 372.129612 250.246474 
L 372.140938 249.961103 
L 372.147734 249.675587 
L 372.15 249.39 
L 372.15 249.39 
L 372.147734 249.104413 
L 372.140938 248.818897 
L 372.129612 248.533526 
L 372.11376 248.248369 
L 372.093386 247.963501 
L 372.068495 247.678991 
L 372.039092 247.394912 
L 372.005187 247.111336 
L 371.966786 246.828333 
L 371.9239 246.545975 
L 371.87654 246.264333 
L 371.824717 245.983478 
L 371.768444 245.70348 
L 371.707736 245.42441 
L 371.642608 245.146339 
L 371.573077 244.869336 
L 371.499159 244.593471 
L 371.420874 244.318814 
L 371.33824 244.045433 
L 371.25128 243.773398 
L 371.160015 243.502777 
L 371.064467 243.233637 
L 370.964661 242.966048 
L 370.860623 242.700076 
L 370.752377 242.435788 
L 370.639952 242.17325 
L 370.523376 241.91253 
L 370.402678 241.653692 
L 370.277888 241.396801 
L 370.149038 241.141923 
L 370.016161 240.889121 
L 369.879289 240.638459 
L 369.738457 240.39 
L 369.593701 240.143807 
L 369.445058 239.899942 
L 369.292564 239.658465 
L 369.136257 239.419439 
L 368.976178 239.182922 
L 368.812367 238.948976 
L 368.644865 238.717657 
L 368.473713 238.489026 
L 368.298956 238.263138 
L 368.120636 238.040052 
L 367.9388 237.819823 
L 367.753492 237.602507 
L 367.56476 237.388158 
L 367.372651 237.176831 
L 367.177213 236.968578 
L 366.978495 236.763452 
L 366.776548 236.561505 
L 366.571422 236.362787 
L 366.363169 236.167349 
L 366.151842 235.97524 
L 365.937493 235.786508 
L 365.720177 235.6012 
L 365.499948 235.419364 
L 365.276862 235.241044 
L 365.050974 235.066287 
L 364.822343 234.895135 
L 364.591024 234.727633 
L 364.357078 234.563822 
L 364.120561 234.403743 
L 363.881535 234.247436 
L 363.640058 234.094942 
L 363.396193 233.946299 
L 363.15 233.801543 
L 362.901541 233.660711 
L 362.650879 233.523839 
L 362.398077 233.390962 
L 362.143199 233.262112 
L 361.886308 233.137322 
L 361.62747 233.016624 
L 361.36675 232.900048 
L 361.104212 232.787623 
L 360.839924 232.679377 
L 360.573952 232.575339 
L 360.306363 232.475533 
L 360.037223 232.379985 
L 359.766602 232.28872 
L 359.494567 232.20176 
L 359.221186 232.119126 
L 358.946529 232.040841 
L 358.670664 231.966923 
L 358.393661 231.897392 
L 358.11559 231.832264 
L 357.83652 231.771556 
L 357.556522 231.715283 
L 357.275667 231.66346 
L 356.994025 231.6161 
L 356.711667 231.573214 
L 356.428664 231.534813 
L 356.145088 231.500908 
L 355.861009 231.471505 
L 355.576499 231.446614 
L 355.291631 231.42624 
L 355.006474 231.410388 
L 354.721103 231.399062 
L 354.435587 231.392266 
L 354.15 231.39 
L 318.15 231.39 
L 317.864413 231.392266 
L 317.578897 231.399062 
L 317.293526 231.410388 
L 317.008369 231.42624 
L 316.723501 231.446614 
L 316.438991 231.471505 
L 316.154912 231.500908 
L 315.871336 231.534813 
L 315.588333 231.573214 
L 315.305975 231.6161 
L 315.024333 231.66346 
L 314.743478 231.715283 
L 314.46348 231.771556 
L 314.18441 231.832264 
L 313.906339 231.897392 
L 313.629336 231.966923 
L 313.353471 232.040841 
L 313.078814 232.119126 
L 312.805433 232.20176 
L 312.533398 232.28872 
L 312.262777 232.379985 
L 311.993637 232.475533 
L 311.726048 232.575339 
L 311.460076 232.679377 
L 311.195788 232.787623 
L 310.93325 232.900048 
L 310.67253 233.016624 
L 310.413692 233.137322 
L 310.156801 233.262112 
L 309.901923 233.390962 
L 309.649121 233.523839 
L 309.398459 233.660711 
L 309.15 233.801543 
L 308.903807 233.946299 
L 308.659942 234.094942 
L 308.418465 234.247436 
L 308.179439 234.403743 
L 307.942922 234.563822 
L 307.708976 234.727633 
L 307.477657 234.895135 
L 307.249026 235.066287 
L 307.023138 235.241044 
L 306.800052 235.419364 
L 306.579823 235.6012 
L 306.362507 235.786508 
L 306.148158 235.97524 
L 305.936831 236.167349 
L 305.728578 236.362787 
L 305.523452 236.561505 
L 305.321505 236.763452 
L 305.122787 236.968578 
L 304.927349 237.176831 
L 304.73524 237.388158 
L 304.546508 237.602507 
L 304.3612 237.819823 
L 304.179364 238.040052 
L 304.001044 238.263138 
L 303.826287 238.489026 
L 303.655135 238.717657 
L 303.487633 238.948976 
L 303.323822 239.182922 
L 303.163743 239.419439 
L 303.007436 239.658465 
L 302.854942 239.899942 
L 302.706299 240.143807 
L 302.561543 240.39 
L 302.420711 240.638459 
L 302.283839 240.889121 
L 302.150962 241.141923 
L 302.022112 241.396801 
L 301.897322 241.653692 
L 301.776624 241.91253 
L 301.660048 242.17325 
L 301.547623 242.435788 
L 301.439377 242.700076 
L 301.335339 242.966048 
L 301.235533 243.233637 
L 301.139985 243.502777 
L 301.04872 243.773398 
L 300.96176 244.045433 
L 300.879126 244.318814 
L 300.800841 244.593471 
L 300.726923 244.869336 
L 300.657392 245.146339 
L 300.592264 245.42441 
L 300.531556 245.70348 
L 300.475283 245.983478 
L 300.42346 246.264333 
L 300.3761 246.545975 
L 300.333214 246.828333 
L 300.294813 247.111336 
L 300.260908 247.394912 
L 300.231505 247.678991 
L 300.206614 247.963501 
L 300.18624 248.248369 
L 300.170388 248.533526 
L 300.159062 248.818897 
L 300.152266 249.104413 
L 300.15 249.39 
L 300.15 249.39 
L 300.152266 249.675587 
L 300.159062 249.961103 
L 300.170388 250.246474 
L 300.18624 250.531631 
L 300.206614 250.816499 
L 300.231505 251.101009 
L 300.260908 251.385088 
L 300.294813 251.668664 
L 300.333214 251.951667 
L 300.3761 252.234025 
L 300.42346 252.515667 
L 300.475283 252.796522 
L 300.531556 253.07652 
L 300.592264 253.35559 
L 300.657392 253.633661 
L 300.726923 253.910664 
L 300.800841 254.186529 
L 300.879126 254.461186 
L 300.96176 254.734567 
L 301.04872 255.006602 
L 301.139985 255.277223 
L 301.235533 255.546363 
L 301.335339 255.813952 
L 301.439377 256.079924 
L 301.547623 256.344212 
L 301.660048 256.60675 
L 301.776624 256.86747 
L 301.897322 257.126308 
L 302.022112 257.383199 
L 302.150962 257.638077 
L 302.283839 257.890879 
L 302.420711 258.141541 
L 302.561543 258.39 
L 302.706299 258.636193 
L 302.854942 258.880058 
L 303.007436 259.121535 
L 303.163743 259.360561 
L 303.323822 259.597078 
L 303.487633 259.831024 
L 303.655135 260.062343 
L 303.826287 260.290974 
L 304.001044 260.516862 
L 304.179364 260.739948 
L 304.3612 260.960177 
L 304.546508 261.177493 
L 304.73524 261.391842 
L 304.927349 261.603169 
L 305.122787 261.811422 
L 305.321505 262.016548 
L 305.523452 262.218495 
L 305.728578 262.417213 
L 305.936831 262.612651 
L 306.148158 262.80476 
L 306.362507 262.993492 
L 306.579823 263.1788 
L 306.800052 263.360636 
L 307.023138 263.538956 
L 307.249026 263.713713 
L 307.477657 263.884865 
L 307.708976 264.052367 
L 307.942922 264.216178 
L 308.179439 264.376257 
L 308.418465 264.532564 
L 308.659942 264.685058 
L 308.903807 264.833701 
L 309.15 264.978457 
L 309.398459 265.119289 
L 309.649121 265.256161 
L 309.901923 265.389038 
L 310.156801 265.517888 
L 310.413692 265.642678 
L 310.67253 265.763376 
L 310.93325 265.879952 
L 311.195788 265.992377 
L 311.460076 266.100623 
L 311.726048 266.204661 
L 311.993637 266.304467 
L 312.262777 266.400015 
L 312.533398 266.49128 
L 312.805433 266.57824 
L 313.078814 266.660874 
L 313.353471 266.739159 
L 313.629336 266.813077 
L 313.906339 266.882608 
L 314.18441 266.947736 
L 314.46348 267.008444 
L 314.743478 267.064717 
L 315.024333 267.11654 
L 315.305975 267.1639 
L 315.588333 267.206786 
L 315.871336 267.245187 
L 316.154912 267.279092 
L 316.438991 267.308495 
L 316.723501 267.333386 
L 317.008369 267.35376 
L 317.293526 267.369612 
L 317.578897 267.380938 
L 317.864413 267.387734 
L 318.15 267.39 
L 354.15 267.39 
z
" clip-path="url(#p93ab688bab)" style="fill: none; stroke: #000000; stroke-linecap: round"/>
   </g>
   <g id="patch_7">
    <path d="M 102.15 402.39 
L 102.435587 402.387734 
L 102.721103 402.380938 
L 103.006474 402.369612 
L 103.291631 402.35376 
L 103.576499 402.333386 
L 103.861009 402.308495 
L 104.145088 402.279092 
L 104.428664 402.245187 
L 104.711667 402.206786 
L 104.994025 402.1639 
L 105.275667 402.11654 
L 105.556522 402.064717 
L 105.83652 402.008444 
L 106.11559 401.947736 
L 106.393661 401.882608 
L 106.670664 401.813077 
L 106.946529 401.739159 
L 107.221186 401.660874 
L 107.494567 401.57824 
L 107.766602 401.49128 
L 108.037223 401.400015 
L 108.306363 401.304467 
L 108.573952 401.204661 
L 108.839924 401.100623 
L 109.104212 400.992377 
L 109.36675 400.879952 
L 109.62747 400.763376 
L 109.886308 400.642678 
L 110.143199 400.517888 
L 110.398077 400.389038 
L 110.650879 400.256161 
L 110.901541 400.119289 
L 111.15 399.978457 
L 111.396193 399.833701 
L 111.640058 399.685058 
L 111.881535 399.532564 
L 112.120561 399.376257 
L 112.357078 399.216178 
L 112.591024 399.052367 
L 112.822343 398.884865 
L 113.050974 398.713713 
L 113.276862 398.538956 
L 113.499948 398.360636 
L 113.720177 398.1788 
L 113.937493 397.993492 
L 114.151842 397.80476 
L 114.363169 397.612651 
L 114.571422 397.417213 
L 114.776548 397.218495 
L 114.978495 397.016548 
L 115.177213 396.811422 
L 115.372651 396.603169 
L 115.56476 396.391842 
L 115.753492 396.177493 
L 115.9388 395.960177 
L 116.120636 395.739948 
L 116.298956 395.516862 
L 116.473713 395.290974 
L 116.644865 395.062343 
L 116.812367 394.831024 
L 116.976178 394.597078 
L 117.136257 394.360561 
L 117.292564 394.121535 
L 117.445058 393.880058 
L 117.593701 393.636193 
L 117.738457 393.39 
L 117.879289 393.141541 
L 118.016161 392.890879 
L 118.149038 392.638077 
L 118.277888 392.383199 
L 118.402678 392.126308 
L 118.523376 391.86747 
L 118.639952 391.60675 
L 118.752377 391.344212 
L 118.860623 391.079924 
L 118.964661 390.813952 
L 119.064467 390.546363 
L 119.160015 390.277223 
L 119.25128 390.006602 
L 119.33824 389.734567 
L 119.420874 389.461186 
L 119.499159 389.186529 
L 119.573077 388.910664 
L 119.642608 388.633661 
L 119.707736 388.35559 
L 119.768444 388.07652 
L 119.824717 387.796522 
L 119.87654 387.515667 
L 119.9239 387.234025 
L 119.966786 386.951667 
L 120.005187 386.668664 
L 120.039092 386.385088 
L 120.068495 386.101009 
L 120.093386 385.816499 
L 120.11376 385.531631 
L 120.129612 385.246474 
L 120.140938 384.961103 
L 120.147734 384.675587 
L 120.15 384.39 
L 120.15 384.39 
L 120.147734 384.104413 
L 120.140938 383.818897 
L 120.129612 383.533526 
L 120.11376 383.248369 
L 120.093386 382.963501 
L 120.068495 382.678991 
L 120.039092 382.394912 
L 120.005187 382.111336 
L 119.966786 381.828333 
L 119.9239 381.545975 
L 119.87654 381.264333 
L 119.824717 380.983478 
L 119.768444 380.70348 
L 119.707736 380.42441 
L 119.642608 380.146339 
L 119.573077 379.869336 
L 119.499159 379.593471 
L 119.420874 379.318814 
L 119.33824 379.045433 
L 119.25128 378.773398 
L 119.160015 378.502777 
L 119.064467 378.233637 
L 118.964661 377.966048 
L 118.860623 377.700076 
L 118.752377 377.435788 
L 118.639952 377.17325 
L 118.523376 376.91253 
L 118.402678 376.653692 
L 118.277888 376.396801 
L 118.149038 376.141923 
L 118.016161 375.889121 
L 117.879289 375.638459 
L 117.738457 375.39 
L 117.593701 375.143807 
L 117.445058 374.899942 
L 117.292564 374.658465 
L 117.136257 374.419439 
L 116.976178 374.182922 
L 116.812367 373.948976 
L 116.644865 373.717657 
L 116.473713 373.489026 
L 116.298956 373.263138 
L 116.120636 373.040052 
L 115.9388 372.819823 
L 115.753492 372.602507 
L 115.56476 372.388158 
L 115.372651 372.176831 
L 115.177213 371.968578 
L 114.978495 371.763452 
L 114.776548 371.561505 
L 114.571422 371.362787 
L 114.363169 371.167349 
L 114.151842 370.97524 
L 113.937493 370.786508 
L 113.720177 370.6012 
L 113.499948 370.419364 
L 113.276862 370.241044 
L 113.050974 370.066287 
L 112.822343 369.895135 
L 112.591024 369.727633 
L 112.357078 369.563822 
L 112.120561 369.403743 
L 111.881535 369.247436 
L 111.640058 369.094942 
L 111.396193 368.946299 
L 111.15 368.801543 
L 110.901541 368.660711 
L 110.650879 368.523839 
L 110.398077 368.390962 
L 110.143199 368.262112 
L 109.886308 368.137322 
L 109.62747 368.016624 
L 109.36675 367.900048 
L 109.104212 367.787623 
L 108.839924 367.679377 
L 108.573952 367.575339 
L 108.306363 367.475533 
L 108.037223 367.379985 
L 107.766602 367.28872 
L 107.494567 367.20176 
L 107.221186 367.119126 
L 106.946529 367.040841 
L 106.670664 366.966923 
L 106.393661 366.897392 
L 106.11559 366.832264 
L 105.83652 366.771556 
L 105.556522 366.715283 
L 105.275667 366.66346 
L 104.994025 366.6161 
L 104.711667 366.573214 
L 104.428664 366.534813 
L 104.145088 366.500908 
L 103.861009 366.471505 
L 103.576499 366.446614 
L 103.291631 366.42624 
L 103.006474 366.410388 
L 102.721103 366.399062 
L 102.435587 366.392266 
L 102.15 366.39 
L 66.15 366.39 
L 65.864413 366.392266 
L 65.578897 366.399062 
L 65.293526 366.410388 
L 65.008369 366.42624 
L 64.723501 366.446614 
L 64.438991 366.471505 
L 64.154912 366.500908 
L 63.871336 366.534813 
L 63.588333 366.573214 
L 63.305975 366.6161 
L 63.024333 366.66346 
L 62.743478 366.715283 
L 62.46348 366.771556 
L 62.18441 366.832264 
L 61.906339 366.897392 
L 61.629336 366.966923 
L 61.353471 367.040841 
L 61.078814 367.119126 
L 60.805433 367.20176 
L 60.533398 367.28872 
L 60.262777 367.379985 
L 59.993637 367.475533 
L 59.726048 367.575339 
L 59.460076 367.679377 
L 59.195788 367.787623 
L 58.93325 367.900048 
L 58.67253 368.016624 
L 58.413692 368.137322 
L 58.156801 368.262112 
L 57.901923 368.390962 
L 57.649121 368.523839 
L 57.398459 368.660711 
L 57.15 368.801543 
L 56.903807 368.946299 
L 56.659942 369.094942 
L 56.418465 369.247436 
L 56.179439 369.403743 
L 55.942922 369.563822 
L 55.708976 369.727633 
L 55.477657 369.895135 
L 55.249026 370.066287 
L 55.023138 370.241044 
L 54.800052 370.419364 
L 54.579823 370.6012 
L 54.362507 370.786508 
L 54.148158 370.97524 
L 53.936831 371.167349 
L 53.728578 371.362787 
L 53.523452 371.561505 
L 53.321505 371.763452 
L 53.122787 371.968578 
L 52.927349 372.176831 
L 52.73524 372.388158 
L 52.546508 372.602507 
L 52.3612 372.819823 
L 52.179364 373.040052 
L 52.001044 373.263138 
L 51.826287 373.489026 
L 51.655135 373.717657 
L 51.487633 373.948976 
L 51.323822 374.182922 
L 51.163743 374.419439 
L 51.007436 374.658465 
L 50.854942 374.899942 
L 50.706299 375.143807 
L 50.561543 375.39 
L 50.420711 375.638459 
L 50.283839 375.889121 
L 50.150962 376.141923 
L 50.022112 376.396801 
L 49.897322 376.653692 
L 49.776624 376.91253 
L 49.660048 377.17325 
L 49.547623 377.435788 
L 49.439377 377.700076 
L 49.335339 377.966048 
L 49.235533 378.233637 
L 49.139985 378.502777 
L 49.04872 378.773398 
L 48.96176 379.045433 
L 48.879126 379.318814 
L 48.800841 379.593471 
L 48.726923 379.869336 
L 48.657392 380.146339 
L 48.592264 380.42441 
L 48.531556 380.70348 
L 48.475283 380.983478 
L 48.42346 381.264333 
L 48.3761 381.545975 
L 48.333214 381.828333 
L 48.294813 382.111336 
L 48.260908 382.394912 
L 48.231505 382.678991 
L 48.206614 382.963501 
L 48.18624 383.248369 
L 48.170388 383.533526 
L 48.159062 383.818897 
L 48.152266 384.104413 
L 48.15 384.39 
L 48.15 384.39 
L 48.152266 384.675587 
L 48.159062 384.961103 
L 48.170388 385.246474 
L 48.18624 385.531631 
L 48.206614 385.816499 
L 48.231505 386.101009 
L 48.260908 386.385088 
L 48.294813 386.668664 
L 48.333214 386.951667 
L 48.3761 387.234025 
L 48.42346 387.515667 
L 48.475283 387.796522 
L 48.531556 388.07652 
L 48.592264 388.35559 
L 48.657392 388.633661 
L 48.726923 388.910664 
L 48.800841 389.186529 
L 48.879126 389.461186 
L 48.96176 389.734567 
L 49.04872 390.006602 
L 49.139985 390.277223 
L 49.235533 390.546363 
L 49.335339 390.813952 
L 49.439377 391.079924 
L 49.547623 391.344212 
L 49.660048 391.60675 
L 49.776624 391.86747 
L 49.897322 392.126308 
L 50.022112 392.383199 
L 50.150962 392.638077 
L 50.283839 392.890879 
L 50.420711 393.141541 
L 50.561543 393.39 
L 50.706299 393.636193 
L 50.854942 393.880058 
L 51.007436 394.121535 
L 51.163743 394.360561 
L 51.323822 394.597078 
L 51.487633 394.831024 
L 51.655135 395.062343 
L 51.826287 395.290974 
L 52.001044 395.516862 
L 52.179364 395.739948 
L 52.3612 395.960177 
L 52.546508 396.177493 
L 52.73524 396.391842 
L 52.927349 396.603169 
L 53.122787 396.811422 
L 53.321505 397.016548 
L 53.523452 397.218495 
L 53.728578 397.417213 
L 53.936831 397.612651 
L 54.148158 397.80476 
L 54.362507 397.993492 
L 54.579823 398.1788 
L 54.800052 398.360636 
L 55.023138 398.538956 
L 55.249026 398.713713 
L 55.477657 398.884865 
L 55.708976 399.052367 
L 55.942922 399.216178 
L 56.179439 399.376257 
L 56.418465 399.532564 
L 56.659942 399.685058 
L 56.903807 399.833701 
L 57.15 399.978457 
L 57.398459 400.119289 
L 57.649121 400.256161 
L 57.901923 400.389038 
L 58.156801 400.517888 
L 58.413692 400.642678 
L 58.67253 400.763376 
L 58.93325 400.879952 
L 59.195788 400.992377 
L 59.460076 401.100623 
L 59.726048 401.204661 
L 59.993637 401.304467 
L 60.262777 401.400015 
L 60.533398 401.49128 
L 60.805433 401.57824 
L 61.078814 401.660874 
L 61.353471 401.739159 
L 61.629336 401.813077 
L 61.906339 401.882608 
L 62.18441 401.947736 
L 62.46348 402.008444 
L 62.743478 402.064717 
L 63.024333 402.11654 
L 63.305975 402.1639 
L 63.588333 402.206786 
L 63.871336 402.245187 
L 64.154912 402.279092 
L 64.438991 402.308495 
L 64.723501 402.333386 
L 65.008369 402.35376 
L 65.293526 402.369612 
L 65.578897 402.380938 
L 65.864413 402.387734 
L 66.15 402.39 
L 102.15 402.39 
z
" clip-path="url(#p93ab688bab)" style="fill: none; stroke: #000000; stroke-linecap: round"/>
   </g>
   <g id="line2d_1">
    <path d="M 84.15 58.59 
L 84.15 72.09 
L 84.15 76.59 
" clip-path="url(#p93ab688bab)" style="fill: none; stroke: #000000; stroke-linecap: round"/>
   </g>
   <g id="patch_8">
    <path d="M 86.85 76.59 
L 84.15 85.59 
L 81.45 76.59 
z
" clip-path="url(#p93ab688bab)"/>
   </g>
   <g id="line2d_2">
    <path d="M 21.15 103.59 
L 21.15 85.59 
L 147.15 85.59 
L 147.15 121.59 
L 21.15 121.59 
L 21.15 103.59 
" clip-path="url(#p93ab688bab)" style="fill: none; stroke: #000000; stroke-linecap: round"/>
   </g>
   <g id="line2d_3">
    <path d="M 84.15 121.59 
L 84.15 135.09 
L 84.15 139.59 
" clip-path="url(#p93ab688bab)" style="fill: none; stroke: #000000; stroke-linecap: round"/>
   </g>
   <g id="patch_9">
    <path d="M 86.85 139.59 
L 84.15 148.59 
L 81.45 139.59 
z
" clip-path="url(#p93ab688bab)"/>
   </g>
   <g id="line2d_4">
    <path d="M 147.15 170.19 
L 174.15 170.19 
L 192.15 170.19 
" clip-path="url(#p93ab688bab)" style="fill: none; stroke: #000000; stroke-linecap: round"/>
   </g>
   <g id="patch_10">
    <path d="M 192.15 167.49 
L 201.15 170.19 
L 192.15 172.89 
z
" clip-path="url(#p93ab688bab)"/>
   </g>
   <g id="line2d_5">
    <path d="M 201.15 170.19 
L 201.15 153.99 
L 273.15 153.99 
L 273.15 186.39 
L 201.15 186.39 
L 201.15 170.19 
" clip-path="url(#p93ab688bab)" style="fill: none; stroke: #000000; stroke-linecap: round"/>
   </g>
   <g id="line2d_6">
    <path d="M 273.15 170.19 
L 286.65 170.19 
L 291.15 170.19 
" clip-path="url(#p93ab688bab)" style="fill: none; stroke: #000000; stroke-linecap: round"/>
   </g>
   <g id="patch_11">
    <path d="M 291.15 167.49 
L 300.15 170.19 
L 291.15 172.89 
z
" clip-path="url(#p93ab688bab)"/>
   </g>
   <g id="line2d_7">
    <path d="M 84.15 191.79 
L 84.15 209.79 
L 84.15 218.79 
" clip-path="url(#p93ab688bab)" style="fill: none; stroke: #000000; stroke-linecap: round"/>
   </g>
   <g id="patch_12">
    <path d="M 86.85 218.79 
L 84.15 227.79 
L 81.45 218.79 
z
" clip-path="url(#p93ab688bab)"/>
   </g>
   <g id="line2d_8">
    <path d="M 147.15 249.39 
L 174.15 249.39 
L 192.15 249.39 
" clip-path="url(#p93ab688bab)" style="fill: none; stroke: #000000; stroke-linecap: round"/>
   </g>
   <g id="patch_13">
    <path d="M 192.15 246.69 
L 201.15 249.39 
L 192.15 252.09 
z
" clip-path="url(#p93ab688bab)"/>
   </g>
   <g id="line2d_9">
    <path d="M 201.15 249.39 
L 201.15 233.19 
L 273.15 233.19 
L 273.15 265.59 
L 201.15 265.59 
L 201.15 249.39 
" clip-path="url(#p93ab688bab)" style="fill: none; stroke: #000000; stroke-linecap: round"/>
   </g>
   <g id="line2d_10">
    <path d="M 273.15 249.39 
L 286.65 249.39 
L 291.15 249.39 
" clip-path="url(#p93ab688bab)" style="fill: none; stroke: #000000; stroke-linecap: round"/>
   </g>
   <g id="patch_14">
    <path d="M 291.15 246.69 
L 300.15 249.39 
L 291.15 252.09 
z
" clip-path="url(#p93ab688bab)"/>
   </g>
   <g id="line2d_11">
    <path d="M 84.15 270.99 
L 84.15 288.99 
L 84.15 297.99 
" clip-path="url(#p93ab688bab)" style="fill: none; stroke: #000000; stroke-linecap: round"/>
   </g>
   <g id="patch_15">
    <path d="M 86.85 297.99 
L 84.15 306.99 
L 81.45 297.99 
z
" clip-path="url(#p93ab688bab)"/>
   </g>
   <g id="line2d_12">
    <path d="M 48.15 323.19 
L 48.15 306.99 
L 120.15 306.99 
L 120.15 339.39 
L 48.15 339.39 
L 48.15 323.19 
" clip-path="url(#p93ab688bab)" style="fill: none; stroke: #000000; stroke-linecap: round"/>
   </g>
   <g id="line2d_13">
    <path d="M 84.15 339.39 
L 84.15 352.89 
L 84.15 357.39 
" clip-path="url(#p93ab688bab)" style="fill: none; stroke: #000000; stroke-linecap: round"/>
   </g>
   <g id="patch_16">
    <path d="M 86.85 357.39 
L 84.15 366.39 
L 81.45 357.39 
z
" clip-path="url(#p93ab688bab)"/>
   </g>
   <g id="text_1">
    <!-- START -->
    <g transform="translate(64.973242 44.084141) scale(0.125 -0.125)">
     <defs>
      <path id="IPAexGothic-53" d="M 2919 3641 
Q 2563 4259 1853 4259 
Q 1453 4259 1213 4009 
Q 1028 3803 1028 3534 
Q 1028 3238 1266 3047 
Q 1444 2913 1984 2688 
L 2200 2597 
Q 2925 2306 3191 1953 
Q 3422 1644 3422 1259 
Q 3422 644 2969 288 
Q 2559 -31 1931 -31 
Q 881 -31 313 766 
L 753 1100 
Q 1203 459 1938 459 
Q 2288 459 2534 625 
Q 2841 847 2841 1216 
Q 2841 1503 2616 1728 
Q 2375 1959 1728 2206 
L 1541 2278 
Q 453 2694 453 3481 
Q 453 4006 806 4347 
Q 1203 4725 1863 4725 
Q 2841 4725 3359 3956 
L 2919 3641 
z
" transform="scale(0.015625)"/>
      <path id="IPAexGothic-54" d="M 3866 4141 
L 2175 4141 
L 2175 63 
L 1606 63 
L 1606 4141 
L -31 4141 
L -31 4634 
L 3866 4634 
L 3866 4141 
z
" transform="scale(0.015625)"/>
      <path id="IPAexGothic-41" d="M 4056 63 
L 3444 63 
L 2938 1409 
L 1100 1409 
L 603 63 
L -6 63 
L 1806 4666 
L 2259 4666 
L 4056 63 
z
M 2778 1863 
L 2316 3078 
Q 2125 3588 2028 4000 
L 2009 4000 
Q 1897 3563 1716 3078 
L 1263 1863 
L 2778 1863 
z
" transform="scale(0.015625)"/>
      <path id="IPAexGothic-52" d="M 4072 63 
L 3394 63 
Q 3138 641 2828 1197 
Q 2584 1641 2344 1825 
Q 2050 2044 1625 2044 
L 1172 2044 
L 1172 63 
L 609 63 
L 609 4634 
L 2009 4634 
Q 2713 4634 3131 4378 
Q 3688 4044 3688 3381 
Q 3688 2784 3181 2459 
Q 2906 2272 2522 2216 
L 2522 2197 
Q 2941 2050 3247 1581 
Q 3516 1166 4072 63 
z
M 1172 2478 
L 1869 2478 
Q 3106 2478 3106 3369 
Q 3106 4181 1928 4181 
L 1172 4181 
L 1172 2478 
z
" transform="scale(0.015625)"/>
     </defs>
     <use xlink:href="#IPAexGothic-53"/>
     <use xlink:href="#IPAexGothic-54" x="58.496094"/>
     <use xlink:href="#IPAexGothic-41" x="118.408203"/>
     <use xlink:href="#IPAexGothic-52" x="182.128906"/>
     <use xlink:href="#IPAexGothic-54" x="246.923828"/>
    </g>
   </g>
   <g id="text_2">
    <!-- $x$ に値を割り当てる -->
    <g transform="translate(28.7125 100.121641) scale(0.125 -0.125)">
     <defs>
      <path id="DejaVuSans-Oblique-78" d="M 3841 3500 
L 2234 1784 
L 3219 0 
L 2559 0 
L 1819 1388 
L 531 0 
L -166 0 
L 1556 1844 
L 641 3500 
L 1300 3500 
L 1972 2234 
L 3144 3500 
L 3841 3500 
z
" transform="scale(0.015625)"/>
      <path id="IPAexGothic-20" transform="scale(0.015625)"/>
      <path id="IPAexGothic-306b" d="M 1088 -38 
Q 922 1003 922 2081 
Q 922 3222 1331 4794 
L 1813 4684 
Q 1391 3113 1391 2003 
Q 1391 1441 1422 1147 
Q 1434 1181 1813 2016 
L 2125 1797 
Q 1800 1081 1691 763 
Q 1581 453 1581 269 
Q 1581 78 1588 6 
L 1088 -38 
z
M 2834 4038 
Q 3969 4213 5313 4172 
L 5338 3681 
Q 3959 3728 2869 3547 
L 2834 4038 
z
M 5650 256 
Q 5044 172 4372 172 
Q 3463 172 3047 434 
Q 2784 594 2675 841 
Q 2572 1075 2572 1447 
Q 2572 1563 2578 1656 
L 3053 1684 
Q 3050 1613 3044 1528 
Q 3041 1481 3041 1466 
Q 3041 1200 3119 1053 
Q 3178 944 3309 850 
Q 3569 678 4275 678 
Q 4891 678 5588 763 
L 5650 256 
z
" transform="scale(0.015625)"/>
      <path id="IPAexGothic-5024" d="M 4172 3675 
L 5453 3675 
L 5453 684 
L 3019 684 
L 3019 3675 
L 3750 3675 
Q 3788 3884 3825 4153 
L 2141 4153 
L 2141 4544 
L 3884 4544 
Q 3922 4844 3966 5325 
L 4434 5272 
L 4388 4953 
Q 4331 4578 4331 4544 
L 5863 4544 
L 5863 4153 
L 4269 4153 
Q 4200 3781 4172 3675 
z
M 5038 3316 
L 3434 3316 
L 3434 2803 
L 5038 2803 
L 5038 3316 
z
M 3434 2450 
L 3434 1941 
L 5038 1941 
L 5038 2450 
L 3434 2450 
z
M 3434 1588 
L 3434 1044 
L 5038 1044 
L 5038 1588 
L 3434 1588 
z
M 1509 3669 
L 1509 -447 
L 1069 -447 
L 1069 2725 
Q 856 2338 531 1875 
L 288 2266 
Q 1163 3531 1541 5325 
L 1975 5222 
Q 1791 4378 1509 3669 
z
M 2488 244 
L 6031 244 
L 6031 -153 
L 2488 -153 
L 2488 -447 
L 2059 -447 
L 2059 3213 
L 2488 3213 
L 2488 244 
z
" transform="scale(0.015625)"/>
      <path id="IPAexGothic-3092" d="M 1094 4263 
Q 1544 4222 2359 4222 
Q 2581 4734 2700 5163 
L 3175 5028 
Q 2997 4538 2859 4256 
Q 3516 4284 4294 4459 
L 4356 4019 
Q 3603 3869 2656 3819 
Q 2391 3284 2059 2797 
Q 2531 3200 2963 3200 
Q 3638 3200 3859 2378 
Q 4556 2681 5338 2950 
L 5575 2528 
Q 4641 2253 3941 1956 
Q 3981 1678 3994 1028 
L 3513 991 
Q 3513 1456 3494 1753 
Q 2388 1194 2388 716 
Q 2388 428 2753 328 
Q 3066 241 3806 241 
Q 4394 241 5178 344 
L 5216 -128 
Q 4434 -213 3653 -213 
Q 2656 -213 2244 41 
Q 1913 244 1913 631 
Q 1913 1094 2344 1497 
Q 2709 1841 3428 2181 
Q 3266 2797 2878 2797 
Q 2238 2797 1209 1419 
L 838 1694 
Q 1625 2716 2163 3800 
Q 1522 3800 1088 3825 
L 1094 4263 
z
" transform="scale(0.015625)"/>
      <path id="IPAexGothic-5272" d="M 2325 4209 
L 2325 3713 
L 3272 3713 
L 3272 3381 
L 2325 3381 
L 2325 2950 
L 3494 2950 
L 3494 2619 
L 2325 2619 
L 2325 2175 
L 3956 2175 
L 3956 1809 
L 353 1809 
L 353 2175 
L 1909 2175 
L 1909 2619 
L 753 2619 
L 753 2950 
L 1909 2950 
L 1909 3381 
L 984 3381 
L 984 3713 
L 1909 3713 
L 1909 4209 
L 838 4209 
L 838 3609 
L 409 3609 
L 409 4569 
L 1903 4569 
L 1903 5313 
L 2338 5313 
L 2338 4569 
L 3872 4569 
L 3872 3609 
L 3444 3609 
L 3444 4209 
L 2325 4209 
z
M 3388 1397 
L 3388 -384 
L 2966 -384 
L 2966 -122 
L 1269 -122 
L 1269 -447 
L 847 -447 
L 847 1397 
L 3388 1397 
z
M 1269 1038 
L 1269 238 
L 2966 238 
L 2966 1038 
L 1269 1038 
z
M 4259 4550 
L 4700 4550 
L 4700 953 
L 4259 953 
L 4259 4550 
z
M 5403 5081 
L 5844 5081 
L 5844 159 
Q 5844 -106 5747 -231 
Q 5634 -372 5263 -372 
Q 4763 -372 4391 -325 
L 4303 141 
Q 4803 75 5206 75 
Q 5403 75 5403 300 
L 5403 5081 
z
" transform="scale(0.015625)"/>
      <path id="IPAexGothic-308a" d="M 2878 2925 
Q 2503 2294 2372 2041 
Q 2222 1750 2163 1459 
L 1716 1503 
Q 1509 2131 1509 3091 
Q 1509 3744 1663 4872 
L 2181 4806 
Q 2003 3541 2003 3016 
Q 2003 2613 2028 2259 
Q 2109 2413 2313 2766 
Q 2484 3063 2578 3238 
L 2878 2925 
z
M 2488 128 
Q 3534 503 3928 1184 
Q 4234 1713 4234 2975 
Q 4234 3872 4122 4928 
L 4666 4928 
Q 4759 3794 4759 2975 
Q 4759 1516 4356 844 
Q 3913 103 2853 -288 
L 2488 128 
z
" transform="scale(0.015625)"/>
      <path id="IPAexGothic-5f53" d="M 3413 2931 
L 5466 2931 
L 5466 -447 
L 4991 -447 
L 4991 -128 
L 825 -128 
L 825 288 
L 4991 288 
L 4991 1241 
L 978 1241 
L 978 1650 
L 4991 1650 
L 4991 2528 
L 819 2528 
L 819 2931 
L 2938 2931 
L 2938 5147 
L 3413 5147 
L 3413 2931 
z
M 1716 3219 
Q 1375 3966 972 4506 
L 1388 4738 
Q 1800 4228 2175 3450 
L 1716 3219 
z
M 4088 3416 
Q 4531 4009 4916 4844 
L 5394 4625 
Q 4984 3828 4513 3194 
L 4088 3416 
z
" transform="scale(0.015625)"/>
      <path id="IPAexGothic-3066" d="M 581 4034 
Q 2978 4363 5466 4556 
L 5509 4097 
Q 4388 4031 3750 3572 
Q 2797 2878 2797 1913 
Q 2797 1169 3291 819 
Q 3778 484 4869 416 
L 4906 -116 
Q 2278 0 2278 1850 
Q 2278 3125 3691 4000 
Q 2066 3784 684 3553 
L 581 4034 
z
" transform="scale(0.015625)"/>
      <path id="IPAexGothic-308b" d="M 4391 4397 
L 2613 2588 
Q 3225 2809 3759 2809 
Q 4263 2809 4659 2625 
Q 5391 2269 5391 1484 
Q 5391 756 4706 275 
Q 4072 -166 3053 -166 
Q 2559 -166 2247 19 
Q 1863 250 1863 666 
Q 1863 934 2069 1141 
Q 2331 1403 2741 1403 
Q 3509 1403 4019 428 
Q 4872 784 4872 1491 
Q 4872 1981 4469 2222 
Q 4166 2406 3681 2406 
Q 2425 2406 1238 1209 
L 891 1581 
Q 2438 2934 3578 4281 
Q 2594 4125 1588 4066 
L 1478 4550 
Q 2594 4581 4109 4763 
L 4391 4397 
z
M 3591 303 
Q 3244 1025 2731 1025 
Q 2553 1025 2434 934 
Q 2316 844 2316 700 
Q 2316 250 3034 250 
Q 3275 250 3591 303 
z
" transform="scale(0.015625)"/>
     </defs>
     <use xlink:href="#DejaVuSans-Oblique-78" transform="translate(0 0.796875)"/>
     <use xlink:href="#IPAexGothic-20" transform="translate(59.179688 0.796875)"/>
     <use xlink:href="#IPAexGothic-306b" transform="translate(86.181641 0.796875)"/>
     <use xlink:href="#IPAexGothic-5024" transform="translate(186.181641 0.796875)"/>
     <use xlink:href="#IPAexGothic-3092" transform="translate(286.181641 0.796875)"/>
     <use xlink:href="#IPAexGothic-5272" transform="translate(386.181641 0.796875)"/>
     <use xlink:href="#IPAexGothic-308a" transform="translate(486.181641 0.796875)"/>
     <use xlink:href="#IPAexGothic-5f53" transform="translate(586.181641 0.796875)"/>
     <use xlink:href="#IPAexGothic-3066" transform="translate(686.181641 0.796875)"/>
     <use xlink:href="#IPAexGothic-308b" transform="translate(786.181641 0.796875)"/>
    </g>
    <!-- （例えば，$-10$） -->
    <g transform="translate(33.4 114.046641) scale(0.125 -0.125)">
     <defs>
      <path id="IPAexGothic-ff08" d="M 5419 -434 
Q 4197 769 4197 2438 
Q 4197 4097 5419 5300 
L 5919 5300 
Q 4678 4078 4678 2425 
Q 4678 788 5919 -434 
L 5419 -434 
z
" transform="scale(0.015625)"/>
      <path id="IPAexGothic-4f8b" d="M 2869 3713 
L 3750 3713 
L 4006 3522 
Q 3872 2134 3463 1241 
Q 3019 247 2094 -472 
L 1778 -128 
Q 2691 516 3163 1600 
Q 2791 1994 2388 2284 
Q 2163 1853 1928 1544 
L 1638 1888 
Q 2331 2806 2572 4488 
L 1906 4488 
L 1906 4891 
L 4206 4891 
L 4206 4488 
L 2997 4488 
L 2991 4450 
Q 2938 4013 2869 3713 
z
M 2772 3322 
Q 2659 2916 2534 2613 
Q 2997 2319 3316 2009 
Q 3338 2078 3341 2094 
Q 3519 2644 3566 3322 
L 2772 3322 
z
M 1400 3816 
L 1400 -447 
L 972 -447 
L 972 2797 
Q 753 2347 484 1966 
L 250 2363 
Q 981 3531 1388 5313 
L 1822 5203 
Q 1613 4419 1400 3816 
z
M 4378 4519 
L 4806 4519 
L 4806 959 
L 4378 959 
L 4378 4519 
z
M 5422 5088 
L 5850 5088 
L 5850 109 
Q 5850 -391 5300 -391 
Q 4925 -391 4544 -359 
L 4444 109 
Q 4863 44 5225 44 
Q 5422 44 5422 238 
L 5422 5088 
z
" transform="scale(0.015625)"/>
      <path id="IPAexGothic-3048" d="M 3797 4038 
Q 3144 4428 2013 4709 
L 2266 5106 
Q 3388 4838 4078 4469 
L 3797 4038 
z
M 1263 3347 
Q 2566 3428 3956 3641 
L 4291 3263 
Q 3759 2741 2875 1778 
Q 3156 1881 3356 1881 
Q 3909 1881 3919 1253 
L 3931 709 
Q 3941 456 4116 409 
Q 4244 372 4519 372 
Q 4944 372 5538 481 
L 5581 -31 
Q 5097 -103 4675 -103 
Q 4047 -103 3791 25 
Q 3484 178 3463 594 
L 3444 1094 
Q 3434 1491 3150 1491 
Q 2800 1491 2322 1072 
Q 1950 747 1109 -184 
L 738 166 
Q 2053 1434 3597 3181 
Q 2600 2988 1391 2841 
L 1263 3347 
z
" transform="scale(0.015625)"/>
      <path id="IPAexGothic-3070" d="M 5294 4134 
Q 5066 4672 4775 5025 
L 5122 5203 
Q 5403 4881 5659 4341 
L 5294 4134 
z
M 5928 4481 
Q 5678 4991 5391 5313 
L 5722 5503 
Q 5978 5231 6278 4697 
L 5928 4481 
z
M 4028 4831 
L 4500 4831 
L 4519 3725 
Q 4966 3772 5544 3897 
L 5581 3422 
Q 5219 3350 4525 3275 
L 4559 1394 
Q 5063 1238 5897 709 
L 5619 269 
Q 5031 728 4572 934 
Q 4572 397 4347 181 
Q 4091 -56 3597 -56 
Q 2953 -56 2631 188 
Q 2350 400 2350 788 
Q 2350 1181 2734 1441 
Q 3013 1625 3497 1625 
Q 3722 1625 4097 1547 
L 4059 3244 
Q 3659 3225 3322 3225 
Q 2881 3225 2447 3256 
L 2428 3716 
Q 2909 3672 3419 3672 
Q 3709 3672 4053 3691 
L 4028 4831 
z
M 4103 1106 
Q 3716 1216 3475 1216 
Q 2803 1216 2803 806 
Q 2803 378 3597 378 
Q 3850 378 3984 525 
Q 4103 656 4103 878 
Q 4103 1044 4103 1106 
z
M 963 -97 
Q 756 1025 756 1888 
Q 756 3109 1209 4838 
L 1691 4716 
Q 1231 2997 1231 1856 
Q 1231 1522 1269 1063 
Q 1553 1663 1716 1953 
L 2038 1759 
Q 1447 669 1447 97 
Q 1447 25 1453 -44 
L 963 -97 
z
" transform="scale(0.015625)"/>
      <path id="IPAexGothic-ff0c" d="M 588 1088 
L 1444 1088 
L 1444 622 
Q 1444 -122 934 -597 
L 531 -597 
Q 909 -216 978 294 
L 588 294 
L 588 1088 
z
" transform="scale(0.015625)"/>
      <path id="DejaVuSans-2212" d="M 678 2272 
L 4684 2272 
L 4684 1741 
L 678 1741 
L 678 2272 
z
" transform="scale(0.015625)"/>
      <path id="DejaVuSans-31" d="M 794 531 
L 1825 531 
L 1825 4091 
L 703 3866 
L 703 4441 
L 1819 4666 
L 2450 4666 
L 2450 531 
L 3481 531 
L 3481 0 
L 794 0 
L 794 531 
z
" transform="scale(0.015625)"/>
      <path id="DejaVuSans-30" d="M 2034 4250 
Q 1547 4250 1301 3770 
Q 1056 3291 1056 2328 
Q 1056 1369 1301 889 
Q 1547 409 2034 409 
Q 2525 409 2770 889 
Q 3016 1369 3016 2328 
Q 3016 3291 2770 3770 
Q 2525 4250 2034 4250 
z
M 2034 4750 
Q 2819 4750 3233 4129 
Q 3647 3509 3647 2328 
Q 3647 1150 3233 529 
Q 2819 -91 2034 -91 
Q 1250 -91 836 529 
Q 422 1150 422 2328 
Q 422 3509 836 4129 
Q 1250 4750 2034 4750 
z
" transform="scale(0.015625)"/>
      <path id="IPAexGothic-ff09" d="M 481 -434 
Q 1722 788 1722 2431 
Q 1722 4066 481 5300 
L 981 5300 
Q 2203 4097 2203 2431 
Q 2203 769 981 -434 
L 481 -434 
z
" transform="scale(0.015625)"/>
     </defs>
     <use xlink:href="#IPAexGothic-ff08" transform="translate(0 0.015625)"/>
     <use xlink:href="#IPAexGothic-4f8b" transform="translate(100 0.015625)"/>
     <use xlink:href="#IPAexGothic-3048" transform="translate(200 0.015625)"/>
     <use xlink:href="#IPAexGothic-3070" transform="translate(300 0.015625)"/>
     <use xlink:href="#IPAexGothic-ff0c" transform="translate(400 0.015625)"/>
     <use xlink:href="#DejaVuSans-2212" transform="translate(500 0.015625)"/>
     <use xlink:href="#DejaVuSans-31" transform="translate(583.789062 0.015625)"/>
     <use xlink:href="#DejaVuSans-30" transform="translate(647.412109 0.015625)"/>
     <use xlink:href="#IPAexGothic-ff09" transform="translate(711.035156 0.015625)"/>
    </g>
   </g>
   <g id="text_3">
    <!-- False -->
    <g transform="translate(88.83 205.833281) scale(0.125 -0.125)">
     <defs>
      <path id="IPAexGothic-46" d="M 3469 4141 
L 1172 4141 
L 1172 2656 
L 3206 2656 
L 3206 2188 
L 1172 2188 
L 1172 63 
L 609 63 
L 609 4634 
L 3469 4634 
L 3469 4141 
z
" transform="scale(0.015625)"/>
      <path id="IPAexGothic-61" d="M 3156 63 
L 2672 63 
Q 2559 303 2531 556 
L 2509 556 
Q 2147 -25 1428 -25 
Q 934 -25 622 288 
Q 347 563 347 959 
Q 347 1947 2050 1997 
L 2478 2009 
L 2478 2175 
Q 2478 2509 2288 2700 
Q 2088 2900 1775 2900 
Q 1238 2900 969 2378 
L 494 2597 
Q 938 3328 1788 3328 
Q 2375 3328 2691 3000 
Q 2984 2706 2984 2169 
L 2984 997 
Q 2984 400 3156 63 
z
M 2491 1625 
L 2141 1619 
Q 903 1591 903 953 
Q 903 728 1050 581 
Q 1231 403 1525 403 
Q 1934 403 2234 703 
Q 2491 969 2491 1344 
L 2491 1625 
z
" transform="scale(0.015625)"/>
      <path id="IPAexGothic-6c" d="M 1131 63 
L 581 63 
L 581 4794 
L 1131 4794 
L 1131 63 
z
" transform="scale(0.015625)"/>
      <path id="IPAexGothic-73" d="M 2234 2547 
Q 1938 2931 1484 2931 
Q 891 2931 891 2475 
Q 891 2153 1531 1944 
L 1741 1875 
Q 2650 1578 2650 894 
Q 2650 434 2272 172 
Q 1972 -31 1497 -31 
Q 766 -31 256 503 
L 603 819 
Q 997 397 1516 397 
Q 2131 397 2131 875 
Q 2131 1238 1453 1478 
L 1234 1553 
Q 378 1853 378 2431 
Q 378 2797 628 3047 
Q 928 3347 1453 3347 
Q 2156 3347 2606 2859 
L 2234 2547 
z
" transform="scale(0.015625)"/>
      <path id="IPAexGothic-65" d="M 863 1594 
Q 891 1041 1209 722 
Q 1534 397 1997 397 
Q 2606 397 2963 966 
L 3322 728 
Q 2869 -31 1931 -31 
Q 1222 -31 766 422 
Q 306 884 306 1641 
Q 306 2444 788 2925 
Q 1216 3353 1856 3353 
Q 2459 3353 2866 2956 
Q 3322 2494 3322 1722 
L 3322 1594 
L 863 1594 
z
M 2756 1997 
Q 2709 2431 2450 2681 
Q 2194 2938 1844 2938 
Q 1438 2938 1150 2591 
Q 953 2356 894 1997 
L 2756 1997 
z
" transform="scale(0.015625)"/>
     </defs>
     <use xlink:href="#IPAexGothic-46"/>
     <use xlink:href="#IPAexGothic-61" x="57.177734"/>
     <use xlink:href="#IPAexGothic-6c" x="112.158203"/>
     <use xlink:href="#IPAexGothic-73" x="139.160156"/>
     <use xlink:href="#IPAexGothic-65" x="185.351562"/>
    </g>
   </g>
   <g id="text_4">
    <!-- True -->
    <g transform="translate(151.83 163.135) scale(0.125 -0.125)">
     <defs>
      <path id="IPAexGothic-72" d="M 2309 3316 
L 2213 2769 
Q 2106 2791 2022 2791 
Q 1653 2791 1413 2444 
Q 1113 2006 1113 1675 
L 1113 63 
L 563 63 
L 563 3250 
L 1081 3250 
L 1056 2303 
L 1069 2303 
Q 1422 3341 2097 3341 
Q 2206 3341 2309 3316 
z
" transform="scale(0.015625)"/>
      <path id="IPAexGothic-75" d="M 3284 63 
L 2772 63 
L 2772 644 
Q 2300 0 1625 0 
Q 1072 0 763 375 
Q 519 678 519 1241 
L 519 3250 
L 1069 3250 
L 1069 1259 
Q 1069 466 1734 466 
Q 2406 466 2734 1291 
L 2734 3250 
L 3284 3250 
L 3284 63 
z
" transform="scale(0.015625)"/>
     </defs>
     <use xlink:href="#IPAexGothic-54"/>
     <use xlink:href="#IPAexGothic-72" x="59.912109"/>
     <use xlink:href="#IPAexGothic-75" x="96.923828"/>
     <use xlink:href="#IPAexGothic-65" x="157.324219"/>
    </g>
   </g>
   <g id="text_5">
    <!-- $x=0$ ? -->
    <g transform="translate(63.65 173.684141) scale(0.125 -0.125)">
     <defs>
      <path id="DejaVuSans-3d" d="M 678 2906 
L 4684 2906 
L 4684 2381 
L 678 2381 
L 678 2906 
z
M 678 1631 
L 4684 1631 
L 4684 1100 
L 678 1100 
L 678 1631 
z
" transform="scale(0.015625)"/>
      <path id="IPAexGothic-3f" d="M 225 3425 
Q 503 4725 1763 4725 
Q 2413 4725 2803 4334 
Q 3144 3994 3144 3516 
Q 3144 3081 2838 2716 
Q 2703 2563 2344 2266 
L 2216 2156 
Q 1888 1878 1888 1363 
L 1888 1209 
L 1422 1209 
L 1422 1422 
Q 1422 2050 1881 2491 
L 2022 2625 
L 2075 2669 
Q 2575 3122 2575 3516 
Q 2575 3822 2363 4041 
Q 2128 4278 1763 4278 
Q 963 4278 725 3309 
L 225 3425 
z
M 1978 63 
L 1325 63 
L 1325 728 
L 1978 728 
L 1978 63 
z
" transform="scale(0.015625)"/>
     </defs>
     <use xlink:href="#DejaVuSans-Oblique-78" transform="translate(0 0.78125)"/>
     <use xlink:href="#DejaVuSans-3d" transform="translate(78.662109 0.78125)"/>
     <use xlink:href="#DejaVuSans-30" transform="translate(181.933594 0.78125)"/>
     <use xlink:href="#IPAexGothic-20" transform="translate(245.556641 0.78125)"/>
     <use xlink:href="#IPAexGothic-3f" transform="translate(272.558594 0.78125)"/>
    </g>
   </g>
   <g id="text_6">
    <!-- $0$ -->
    <g transform="translate(233.15 173.684141) scale(0.125 -0.125)">
     <use xlink:href="#DejaVuSans-30" transform="translate(0 0.78125)"/>
    </g>
   </g>
   <g id="text_7">
    <!-- END -->
    <g transform="translate(322.950781 173.684141) scale(0.125 -0.125)">
     <defs>
      <path id="IPAexGothic-45" d="M 3547 63 
L 609 63 
L 609 4634 
L 3469 4634 
L 3469 4147 
L 1166 4147 
L 1166 2650 
L 3206 2650 
L 3206 2191 
L 1166 2191 
L 1166 556 
L 3547 556 
L 3547 63 
z
" transform="scale(0.015625)"/>
      <path id="IPAexGothic-4e" d="M 4244 63 
L 3731 63 
L 1697 3150 
Q 1466 3500 1141 4097 
L 1116 4097 
L 1128 3797 
Q 1159 2803 1159 2469 
L 1159 63 
L 609 63 
L 609 4634 
L 1366 4634 
L 3113 1978 
Q 3453 1447 3713 966 
L 3738 966 
Q 3694 1897 3694 2469 
L 3694 4634 
L 4244 4634 
L 4244 63 
z
" transform="scale(0.015625)"/>
      <path id="IPAexGothic-44" d="M 609 4634 
L 1984 4634 
Q 3159 4634 3791 4050 
Q 4456 3444 4456 2356 
Q 4456 1047 3516 441 
Q 2925 63 1941 63 
L 609 63 
L 609 4634 
z
M 1172 556 
L 1894 556 
Q 3853 556 3853 2356 
Q 3853 4147 1928 4147 
L 1172 4147 
L 1172 556 
z
" transform="scale(0.015625)"/>
     </defs>
     <use xlink:href="#IPAexGothic-45"/>
     <use xlink:href="#IPAexGothic-4e" x="59.521484"/>
     <use xlink:href="#IPAexGothic-44" x="135.498047"/>
    </g>
   </g>
   <g id="text_8">
    <!-- False -->
    <g transform="translate(88.83 285.033281) scale(0.125 -0.125)">
     <use xlink:href="#IPAexGothic-46"/>
     <use xlink:href="#IPAexGothic-61" x="57.177734"/>
     <use xlink:href="#IPAexGothic-6c" x="112.158203"/>
     <use xlink:href="#IPAexGothic-73" x="139.160156"/>
     <use xlink:href="#IPAexGothic-65" x="185.351562"/>
    </g>
   </g>
   <g id="text_9">
    <!-- True -->
    <g transform="translate(151.83 242.335) scale(0.125 -0.125)">
     <use xlink:href="#IPAexGothic-54"/>
     <use xlink:href="#IPAexGothic-72" x="59.912109"/>
     <use xlink:href="#IPAexGothic-75" x="96.923828"/>
     <use xlink:href="#IPAexGothic-65" x="157.324219"/>
    </g>
   </g>
   <g id="text_10">
    <!-- $x&gt;0$ ? -->
    <g transform="translate(63.65 252.884141) scale(0.125 -0.125)">
     <defs>
      <path id="DejaVuSans-3e" d="M 678 3150 
L 678 3719 
L 4684 2266 
L 4684 1747 
L 678 294 
L 678 863 
L 3897 2003 
L 678 3150 
z
" transform="scale(0.015625)"/>
     </defs>
     <use xlink:href="#DejaVuSans-Oblique-78" transform="translate(0 0.78125)"/>
     <use xlink:href="#DejaVuSans-3e" transform="translate(78.662109 0.78125)"/>
     <use xlink:href="#DejaVuSans-30" transform="translate(181.933594 0.78125)"/>
     <use xlink:href="#IPAexGothic-20" transform="translate(245.556641 0.78125)"/>
     <use xlink:href="#IPAexGothic-3f" transform="translate(272.558594 0.78125)"/>
    </g>
   </g>
   <g id="text_11">
    <!-- $x$ -->
    <g transform="translate(233.4 252.884141) scale(0.125 -0.125)">
     <use xlink:href="#DejaVuSans-Oblique-78" transform="translate(0 0.3125)"/>
    </g>
   </g>
   <g id="text_12">
    <!-- END -->
    <g transform="translate(322.950781 252.884141) scale(0.125 -0.125)">
     <use xlink:href="#IPAexGothic-45"/>
     <use xlink:href="#IPAexGothic-4e" x="59.521484"/>
     <use xlink:href="#IPAexGothic-44" x="135.498047"/>
    </g>
   </g>
   <g id="text_13">
    <!-- $-x$ -->
    <g transform="translate(75.2125 326.684141) scale(0.125 -0.125)">
     <use xlink:href="#DejaVuSans-2212" transform="translate(0 0.3125)"/>
     <use xlink:href="#DejaVuSans-Oblique-78" transform="translate(83.789062 0.3125)"/>
    </g>
   </g>
   <g id="text_14">
    <!-- END -->
    <g transform="translate(70.950781 387.884141) scale(0.125 -0.125)">
     <use xlink:href="#IPAexGothic-45"/>
     <use xlink:href="#IPAexGothic-4e" x="59.521484"/>
     <use xlink:href="#IPAexGothic-44" x="135.498047"/>
    </g>
   </g>
  </g>
 </g>
 <defs>
  <clipPath id="p93ab688bab">
   <rect x="3.6" y="3.6" width="386.1" height="417.78"/>
  </clipPath>
 </defs>
</svg>