<?xml version="1.0" encoding="utf-8" standalone="no"?>
<!DOCTYPE svg PUBLIC "-//W3C//DTD SVG 1.1//EN"
  "http://www.w3.org/Graphics/SVG/1.1/DTD/svg11.dtd">
<svg xmlns:xlink="http://www.w3.org/1999/xlink" width="320.76pt" height="493.817143pt" viewBox="0 0 320.76 493.817143" xmlns="http://www.w3.org/2000/svg" version="1.1">
 <metadata>
  <rdf:RDF xmlns:dc="http://purl.org/dc/elements/1.1/" xmlns:cc="http://creativecommons.org/ns#" xmlns:rdf="http://www.w3.org/1999/02/22-rdf-syntax-ns#">
   <cc:Work>
    <dc:type rdf:resource="http://purl.org/dc/dcmitype/StillImage"/>
    <dc:date>2024-06-14T10:58:51.405822</dc:date>
    <dc:format>image/svg+xml</dc:format>
    <dc:creator>
     <cc:Agent>
      <dc:title>Matplotlib v3.9.0, https://matplotlib.org/</dc:title>
     </cc:Agent>
    </dc:creator>
   </cc:Work>
  </rdf:RDF>
 </metadata>
 <defs>
  <style type="text/css">*{stroke-linejoin: round; stroke-linecap: butt}</style>
 </defs>
 <g id="figure_1">
  <g id="patch_1">
   <path d="M 0 493.817143 
L 320.76 493.817143 
L 320.76 0 
L 0 0 
z
" style="fill: #ffffff"/>
  </g>
  <g id="axes_1">
   <g id="patch_2">
    <path d="M 145.08 40.68 
L 145.365587 40.677734 
L 145.651103 40.670938 
L 145.936474 40.659612 
L 146.221631 40.64376 
L 146.506499 40.623386 
L 146.791009 40.598495 
L 147.075088 40.569092 
L 147.358664 40.535187 
L 147.641667 40.496786 
L 147.924025 40.4539 
L 148.205667 40.40654 
L 148.486522 40.354717 
L 148.76652 40.298444 
L 149.04559 40.237736 
L 149.323661 40.172608 
L 149.600664 40.103077 
L 149.876529 40.029159 
L 150.151186 39.950874 
L 150.424567 39.86824 
L 150.696602 39.78128 
L 150.967223 39.690015 
L 151.236363 39.594467 
L 151.503952 39.494661 
L 151.769924 39.390623 
L 152.034212 39.282377 
L 152.29675 39.169952 
L 152.55747 39.053376 
L 152.816308 38.932678 
L 153.073199 38.807888 
L 153.328077 38.679038 
L 153.580879 38.546161 
L 153.831541 38.409289 
L 154.08 38.268457 
L 154.326193 38.123701 
L 154.570058 37.975058 
L 154.811535 37.822564 
L 155.050561 37.666257 
L 155.287078 37.506178 
L 155.521024 37.342367 
L 155.752343 37.174865 
L 155.980974 37.003713 
L 156.206862 36.828956 
L 156.429948 36.650636 
L 156.650177 36.4688 
L 156.867493 36.283492 
L 157.081842 36.09476 
L 157.293169 35.902651 
L 157.501422 35.707213 
L 157.706548 35.508495 
L 157.908495 35.306548 
L 158.107213 35.101422 
L 158.302651 34.893169 
L 158.49476 34.681842 
L 158.683492 34.467493 
L 158.8688 34.250177 
L 159.050636 34.029948 
L 159.228956 33.806862 
L 159.403713 33.580974 
L 159.574865 33.352343 
L 159.742367 33.121024 
L 159.906178 32.887078 
L 160.066257 32.650561 
L 160.222564 32.411535 
L 160.375058 32.170058 
L 160.523701 31.926193 
L 160.668457 31.68 
L 160.809289 31.431541 
L 160.946161 31.180879 
L 161.079038 30.928077 
L 161.207888 30.673199 
L 161.332678 30.416308 
L 161.453376 30.15747 
L 161.569952 29.89675 
L 161.682377 29.634212 
L 161.790623 29.369924 
L 161.894661 29.103952 
L 161.994467 28.836363 
L 162.090015 28.567223 
L 162.18128 28.296602 
L 162.26824 28.024567 
L 162.350874 27.751186 
L 162.429159 27.476529 
L 162.503077 27.200664 
L 162.572608 26.923661 
L 162.637736 26.64559 
L 162.698444 26.36652 
L 162.754717 26.086522 
L 162.80654 25.805667 
L 162.8539 25.524025 
L 162.896786 25.241667 
L 162.935187 24.958664 
L 162.969092 24.675088 
L 162.998495 24.391009 
L 163.023386 24.106499 
L 163.04376 23.821631 
L 163.059612 23.536474 
L 163.070938 23.251103 
L 163.077734 22.965587 
L 163.08 22.68 
L 163.08 22.68 
L 163.077734 22.394413 
L 163.070938 22.108897 
L 163.059612 21.823526 
L 163.04376 21.538369 
L 163.023386 21.253501 
L 162.998495 20.968991 
L 162.969092 20.684912 
L 162.935187 20.401336 
L 162.896786 20.118333 
L 162.8539 19.835975 
L 162.80654 19.554333 
L 162.754717 19.273478 
L 162.698444 18.99348 
L 162.637736 18.71441 
L 162.572608 18.436339 
L 162.503077 18.159336 
L 162.429159 17.883471 
L 162.350874 17.608814 
L 162.26824 17.335433 
L 162.18128 17.063398 
L 162.090015 16.792777 
L 161.994467 16.523637 
L 161.894661 16.256048 
L 161.790623 15.990076 
L 161.682377 15.725788 
L 161.569952 15.46325 
L 161.453376 15.20253 
L 161.332678 14.943692 
L 161.207888 14.686801 
L 161.079038 14.431923 
L 160.946161 14.179121 
L 160.809289 13.928459 
L 160.668457 13.68 
L 160.523701 13.433807 
L 160.375058 13.189942 
L 160.222564 12.948465 
L 160.066257 12.709439 
L 159.906178 12.472922 
L 159.742367 12.238976 
L 159.574865 12.007657 
L 159.403713 11.779026 
L 159.228956 11.553138 
L 159.050636 11.330052 
L 158.8688 11.109823 
L 158.683492 10.892507 
L 158.49476 10.678158 
L 158.302651 10.466831 
L 158.107213 10.258578 
L 157.908495 10.053452 
L 157.706548 9.851505 
L 157.501422 9.652787 
L 157.293169 9.457349 
L 157.081842 9.26524 
L 156.867493 9.076508 
L 156.650177 8.8912 
L 156.429948 8.709364 
L 156.206862 8.531044 
L 155.980974 8.356287 
L 155.752343 8.185135 
L 155.521024 8.017633 
L 155.287078 7.853822 
L 155.050561 7.693743 
L 154.811535 7.537436 
L 154.570058 7.384942 
L 154.326193 7.236299 
L 154.08 7.091543 
L 153.831541 6.950711 
L 153.580879 6.813839 
L 153.328077 6.680962 
L 153.073199 6.552112 
L 152.816308 6.427322 
L 152.55747 6.306624 
L 152.29675 6.190048 
L 152.034212 6.077623 
L 151.769924 5.969377 
L 151.503952 5.865339 
L 151.236363 5.765533 
L 150.967223 5.669985 
L 150.696602 5.57872 
L 150.424567 5.49176 
L 150.151186 5.409126 
L 149.876529 5.330841 
L 149.600664 5.256923 
L 149.323661 5.187392 
L 149.04559 5.122264 
L 148.76652 5.061556 
L 148.486522 5.005283 
L 148.205667 4.95346 
L 147.924025 4.9061 
L 147.641667 4.863214 
L 147.358664 4.824813 
L 147.075088 4.790908 
L 146.791009 4.761505 
L 146.506499 4.736614 
L 146.221631 4.71624 
L 145.936474 4.700388 
L 145.651103 4.689062 
L 145.365587 4.682266 
L 145.08 4.68 
L 109.08 4.68 
L 108.794413 4.682266 
L 108.508897 4.689062 
L 108.223526 4.700388 
L 107.938369 4.71624 
L 107.653501 4.736614 
L 107.368991 4.761505 
L 107.084912 4.790908 
L 106.801336 4.824813 
L 106.518333 4.863214 
L 106.235975 4.9061 
L 105.954333 4.95346 
L 105.673478 5.005283 
L 105.39348 5.061556 
L 105.11441 5.122264 
L 104.836339 5.187392 
L 104.559336 5.256923 
L 104.283471 5.330841 
L 104.008814 5.409126 
L 103.735433 5.49176 
L 103.463398 5.57872 
L 103.192777 5.669985 
L 102.923637 5.765533 
L 102.656048 5.865339 
L 102.390076 5.969377 
L 102.125788 6.077623 
L 101.86325 6.190048 
L 101.60253 6.306624 
L 101.343692 6.427322 
L 101.086801 6.552112 
L 100.831923 6.680962 
L 100.579121 6.813839 
L 100.328459 6.950711 
L 100.08 7.091543 
L 99.833807 7.236299 
L 99.589942 7.384942 
L 99.348465 7.537436 
L 99.109439 7.693743 
L 98.872922 7.853822 
L 98.638976 8.017633 
L 98.407657 8.185135 
L 98.179026 8.356287 
L 97.953138 8.531044 
L 97.730052 8.709364 
L 97.509823 8.8912 
L 97.292507 9.076508 
L 97.078158 9.26524 
L 96.866831 9.457349 
L 96.658578 9.652787 
L 96.453452 9.851505 
L 96.251505 10.053452 
L 96.052787 10.258578 
L 95.857349 10.466831 
L 95.66524 10.678158 
L 95.476508 10.892507 
L 95.2912 11.109823 
L 95.109364 11.330052 
L 94.931044 11.553138 
L 94.756287 11.779026 
L 94.585135 12.007657 
L 94.417633 12.238976 
L 94.253822 12.472922 
L 94.093743 12.709439 
L 93.937436 12.948465 
L 93.784942 13.189942 
L 93.636299 13.433807 
L 93.491543 13.68 
L 93.350711 13.928459 
L 93.213839 14.179121 
L 93.080962 14.431923 
L 92.952112 14.686801 
L 92.827322 14.943692 
L 92.706624 15.20253 
L 92.590048 15.46325 
L 92.477623 15.725788 
L 92.369377 15.990076 
L 92.265339 16.256048 
L 92.165533 16.523637 
L 92.069985 16.792777 
L 91.97872 17.063398 
L 91.89176 17.335433 
L 91.809126 17.608814 
L 91.730841 17.883471 
L 91.656923 18.159336 
L 91.587392 18.436339 
L 91.522264 18.71441 
L 91.461556 18.99348 
L 91.405283 19.273478 
L 91.35346 19.554333 
L 91.3061 19.835975 
L 91.263214 20.118333 
L 91.224813 20.401336 
L 91.190908 20.684912 
L 91.161505 20.968991 
L 91.136614 21.253501 
L 91.11624 21.538369 
L 91.100388 21.823526 
L 91.089062 22.108897 
L 91.082266 22.394413 
L 91.08 22.68 
L 91.08 22.68 
L 91.082266 22.965587 
L 91.089062 23.251103 
L 91.100388 23.536474 
L 91.11624 23.821631 
L 91.136614 24.106499 
L 91.161505 24.391009 
L 91.190908 24.675088 
L 91.224813 24.958664 
L 91.263214 25.241667 
L 91.3061 25.524025 
L 91.35346 25.805667 
L 91.405283 26.086522 
L 91.461556 26.36652 
L 91.522264 26.64559 
L 91.587392 26.923661 
L 91.656923 27.200664 
L 91.730841 27.476529 
L 91.809126 27.751186 
L 91.89176 28.024567 
L 91.97872 28.296602 
L 92.069985 28.567223 
L 92.165533 28.836363 
L 92.265339 29.103952 
L 92.369377 29.369924 
L 92.477623 29.634212 
L 92.590048 29.89675 
L 92.706624 30.15747 
L 92.827322 30.416308 
L 92.952112 30.673199 
L 93.080962 30.928077 
L 93.213839 31.180879 
L 93.350711 31.431541 
L 93.491543 31.68 
L 93.636299 31.926193 
L 93.784942 32.170058 
L 93.937436 32.411535 
L 94.093743 32.650561 
L 94.253822 32.887078 
L 94.417633 33.121024 
L 94.585135 33.352343 
L 94.756287 33.580974 
L 94.931044 33.806862 
L 95.109364 34.029948 
L 95.2912 34.250177 
L 95.476508 34.467493 
L 95.66524 34.681842 
L 95.857349 34.893169 
L 96.052787 35.101422 
L 96.251505 35.306548 
L 96.453452 35.508495 
L 96.658578 35.707213 
L 96.866831 35.902651 
L 97.078158 36.09476 
L 97.292507 36.283492 
L 97.509823 36.4688 
L 97.730052 36.650636 
L 97.953138 36.828956 
L 98.179026 37.003713 
L 98.407657 37.174865 
L 98.638976 37.342367 
L 98.872922 37.506178 
L 99.109439 37.666257 
L 99.348465 37.822564 
L 99.589942 37.975058 
L 99.833807 38.123701 
L 100.08 38.268457 
L 100.328459 38.409289 
L 100.579121 38.546161 
L 100.831923 38.679038 
L 101.086801 38.807888 
L 101.343692 38.932678 
L 101.60253 39.053376 
L 101.86325 39.169952 
L 102.125788 39.282377 
L 102.390076 39.390623 
L 102.656048 39.494661 
L 102.923637 39.594467 
L 103.192777 39.690015 
L 103.463398 39.78128 
L 103.735433 39.86824 
L 104.008814 39.950874 
L 104.283471 40.029159 
L 104.559336 40.103077 
L 104.836339 40.172608 
L 105.11441 40.237736 
L 105.39348 40.298444 
L 105.673478 40.354717 
L 105.954333 40.40654 
L 106.235975 40.4539 
L 106.518333 40.496786 
L 106.801336 40.535187 
L 107.084912 40.569092 
L 107.368991 40.598495 
L 107.653501 40.623386 
L 107.938369 40.64376 
L 108.223526 40.659612 
L 108.508897 40.670938 
L 108.794413 40.677734 
L 109.08 40.68 
L 145.08 40.68 
z
" clip-path="url(#p362a7e209b)" style="fill: none; stroke: #000000; stroke-linecap: round"/>
   </g>
   <g id="patch_3">
    <path d="M 64.08 145.08 
L 127.08 127.08 
L 190.08 145.08 
L 127.08 163.08 
L 64.08 145.08 
z
" clip-path="url(#p362a7e209b)" style="fill: none; stroke: #000000; stroke-linecap: round"/>
   </g>
   <g id="patch_4">
    <path d="M 298.08 163.08 
L 298.365587 163.077734 
L 298.651103 163.070938 
L 298.936474 163.059612 
L 299.221631 163.04376 
L 299.506499 163.023386 
L 299.791009 162.998495 
L 300.075088 162.969092 
L 300.358664 162.935187 
L 300.641667 162.896786 
L 300.924025 162.8539 
L 301.205667 162.80654 
L 301.486522 162.754717 
L 301.76652 162.698444 
L 302.04559 162.637736 
L 302.323661 162.572608 
L 302.600664 162.503077 
L 302.876529 162.429159 
L 303.151186 162.350874 
L 303.424567 162.26824 
L 303.696602 162.18128 
L 303.967223 162.090015 
L 304.236363 161.994467 
L 304.503952 161.894661 
L 304.769924 161.790623 
L 305.034212 161.682377 
L 305.29675 161.569952 
L 305.55747 161.453376 
L 305.816308 161.332678 
L 306.073199 161.207888 
L 306.328077 161.079038 
L 306.580879 160.946161 
L 306.831541 160.809289 
L 307.08 160.668457 
L 307.326193 160.523701 
L 307.570058 160.375058 
L 307.811535 160.222564 
L 308.050561 160.066257 
L 308.287078 159.906178 
L 308.521024 159.742367 
L 308.752343 159.574865 
L 308.980974 159.403713 
L 309.206862 159.228956 
L 309.429948 159.050636 
L 309.650177 158.8688 
L 309.867493 158.683492 
L 310.081842 158.49476 
L 310.293169 158.302651 
L 310.501422 158.107213 
L 310.706548 157.908495 
L 310.908495 157.706548 
L 311.107213 157.501422 
L 311.302651 157.293169 
L 311.49476 157.081842 
L 311.683492 156.867493 
L 311.8688 156.650177 
L 312.050636 156.429948 
L 312.228956 156.206862 
L 312.403713 155.980974 
L 312.574865 155.752343 
L 312.742367 155.521024 
L 312.906178 155.287078 
L 313.066257 155.050561 
L 313.222564 154.811535 
L 313.375058 154.570058 
L 313.523701 154.326193 
L 313.668457 154.08 
L 313.809289 153.831541 
L 313.946161 153.580879 
L 314.079038 153.328077 
L 314.207888 153.073199 
L 314.332678 152.816308 
L 314.453376 152.55747 
L 314.569952 152.29675 
L 314.682377 152.034212 
L 314.790623 151.769924 
L 314.894661 151.503952 
L 314.994467 151.236363 
L 315.090015 150.967223 
L 315.18128 150.696602 
L 315.26824 150.424567 
L 315.350874 150.151186 
L 315.429159 149.876529 
L 315.503077 149.600664 
L 315.572608 149.323661 
L 315.637736 149.04559 
L 315.698444 148.76652 
L 315.754717 148.486522 
L 315.80654 148.205667 
L 315.8539 147.924025 
L 315.896786 147.641667 
L 315.935187 147.358664 
L 315.969092 147.075088 
L 315.998495 146.791009 
L 316.023386 146.506499 
L 316.04376 146.221631 
L 316.059612 145.936474 
L 316.070938 145.651103 
L 316.077734 145.365587 
L 316.08 145.08 
L 316.08 145.08 
L 316.077734 144.794413 
L 316.070938 144.508897 
L 316.059612 144.223526 
L 316.04376 143.938369 
L 316.023386 143.653501 
L 315.998495 143.368991 
L 315.969092 143.084912 
L 315.935187 142.801336 
L 315.896786 142.518333 
L 315.8539 142.235975 
L 315.80654 141.954333 
L 315.754717 141.673478 
L 315.698444 141.39348 
L 315.637736 141.11441 
L 315.572608 140.836339 
L 315.503077 140.559336 
L 315.429159 140.283471 
L 315.350874 140.008814 
L 315.26824 139.735433 
L 315.18128 139.463398 
L 315.090015 139.192777 
L 314.994467 138.923637 
L 314.894661 138.656048 
L 314.790623 138.390076 
L 314.682377 138.125788 
L 314.569952 137.86325 
L 314.453376 137.60253 
L 314.332678 137.343692 
L 314.207888 137.086801 
L 314.079038 136.831923 
L 313.946161 136.579121 
L 313.809289 136.328459 
L 313.668457 136.08 
L 313.523701 135.833807 
L 313.375058 135.589942 
L 313.222564 135.348465 
L 313.066257 135.109439 
L 312.906178 134.872922 
L 312.742367 134.638976 
L 312.574865 134.407657 
L 312.403713 134.179026 
L 312.228956 133.953138 
L 312.050636 133.730052 
L 311.8688 133.509823 
L 311.683492 133.292507 
L 311.49476 133.078158 
L 311.302651 132.866831 
L 311.107213 132.658578 
L 310.908495 132.453452 
L 310.706548 132.251505 
L 310.501422 132.052787 
L 310.293169 131.857349 
L 310.081842 131.66524 
L 309.867493 131.476508 
L 309.650177 131.2912 
L 309.429948 131.109364 
L 309.206862 130.931044 
L 308.980974 130.756287 
L 308.752343 130.585135 
L 308.521024 130.417633 
L 308.287078 130.253822 
L 308.050561 130.093743 
L 307.811535 129.937436 
L 307.570058 129.784942 
L 307.326193 129.636299 
L 307.08 129.491543 
L 306.831541 129.350711 
L 306.580879 129.213839 
L 306.328077 129.080962 
L 306.073199 128.952112 
L 305.816308 128.827322 
L 305.55747 128.706624 
L 305.29675 128.590048 
L 305.034212 128.477623 
L 304.769924 128.369377 
L 304.503952 128.265339 
L 304.236363 128.165533 
L 303.967223 128.069985 
L 303.696602 127.97872 
L 303.424567 127.89176 
L 303.151186 127.809126 
L 302.876529 127.730841 
L 302.600664 127.656923 
L 302.323661 127.587392 
L 302.04559 127.522264 
L 301.76652 127.461556 
L 301.486522 127.405283 
L 301.205667 127.35346 
L 300.924025 127.3061 
L 300.641667 127.263214 
L 300.358664 127.224813 
L 300.075088 127.190908 
L 299.791009 127.161505 
L 299.506499 127.136614 
L 299.221631 127.11624 
L 298.936474 127.100388 
L 298.651103 127.089062 
L 298.365587 127.082266 
L 298.08 127.08 
L 262.08 127.08 
L 261.794413 127.082266 
L 261.508897 127.089062 
L 261.223526 127.100388 
L 260.938369 127.11624 
L 260.653501 127.136614 
L 260.368991 127.161505 
L 260.084912 127.190908 
L 259.801336 127.224813 
L 259.518333 127.263214 
L 259.235975 127.3061 
L 258.954333 127.35346 
L 258.673478 127.405283 
L 258.39348 127.461556 
L 258.11441 127.522264 
L 257.836339 127.587392 
L 257.559336 127.656923 
L 257.283471 127.730841 
L 257.008814 127.809126 
L 256.735433 127.89176 
L 256.463398 127.97872 
L 256.192777 128.069985 
L 255.923637 128.165533 
L 255.656048 128.265339 
L 255.390076 128.369377 
L 255.125788 128.477623 
L 254.86325 128.590048 
L 254.60253 128.706624 
L 254.343692 128.827322 
L 254.086801 128.952112 
L 253.831923 129.080962 
L 253.579121 129.213839 
L 253.328459 129.350711 
L 253.08 129.491543 
L 252.833807 129.636299 
L 252.589942 129.784942 
L 252.348465 129.937436 
L 252.109439 130.093743 
L 251.872922 130.253822 
L 251.638976 130.417633 
L 251.407657 130.585135 
L 251.179026 130.756287 
L 250.953138 130.931044 
L 250.730052 131.109364 
L 250.509823 131.2912 
L 250.292507 131.476508 
L 250.078158 131.66524 
L 249.866831 131.857349 
L 249.658578 132.052787 
L 249.453452 132.251505 
L 249.251505 132.453452 
L 249.052787 132.658578 
L 248.857349 132.866831 
L 248.66524 133.078158 
L 248.476508 133.292507 
L 248.2912 133.509823 
L 248.109364 133.730052 
L 247.931044 133.953138 
L 247.756287 134.179026 
L 247.585135 134.407657 
L 247.417633 134.638976 
L 247.253822 134.872922 
L 247.093743 135.109439 
L 246.937436 135.348465 
L 246.784942 135.589942 
L 246.636299 135.833807 
L 246.491543 136.08 
L 246.350711 136.328459 
L 246.213839 136.579121 
L 246.080962 136.831923 
L 245.952112 137.086801 
L 245.827322 137.343692 
L 245.706624 137.60253 
L 245.590048 137.86325 
L 245.477623 138.125788 
L 245.369377 138.390076 
L 245.265339 138.656048 
L 245.165533 138.923637 
L 245.069985 139.192777 
L 244.97872 139.463398 
L 244.89176 139.735433 
L 244.809126 140.008814 
L 244.730841 140.283471 
L 244.656923 140.559336 
L 244.587392 140.836339 
L 244.522264 141.11441 
L 244.461556 141.39348 
L 244.405283 141.673478 
L 244.35346 141.954333 
L 244.3061 142.235975 
L 244.263214 142.518333 
L 244.224813 142.801336 
L 244.190908 143.084912 
L 244.161505 143.368991 
L 244.136614 143.653501 
L 244.11624 143.938369 
L 244.100388 144.223526 
L 244.089062 144.508897 
L 244.082266 144.794413 
L 244.08 145.08 
L 244.08 145.08 
L 244.082266 145.365587 
L 244.089062 145.651103 
L 244.100388 145.936474 
L 244.11624 146.221631 
L 244.136614 146.506499 
L 244.161505 146.791009 
L 244.190908 147.075088 
L 244.224813 147.358664 
L 244.263214 147.641667 
L 244.3061 147.924025 
L 244.35346 148.205667 
L 244.405283 148.486522 
L 244.461556 148.76652 
L 244.522264 149.04559 
L 244.587392 149.323661 
L 244.656923 149.600664 
L 244.730841 149.876529 
L 244.809126 150.151186 
L 244.89176 150.424567 
L 244.97872 150.696602 
L 245.069985 150.967223 
L 245.165533 151.236363 
L 245.265339 151.503952 
L 245.369377 151.769924 
L 245.477623 152.034212 
L 245.590048 152.29675 
L 245.706624 152.55747 
L 245.827322 152.816308 
L 245.952112 153.073199 
L 246.080962 153.328077 
L 246.213839 153.580879 
L 246.350711 153.831541 
L 246.491543 154.08 
L 246.636299 154.326193 
L 246.784942 154.570058 
L 246.937436 154.811535 
L 247.093743 155.050561 
L 247.253822 155.287078 
L 247.417633 155.521024 
L 247.585135 155.752343 
L 247.756287 155.980974 
L 247.931044 156.206862 
L 248.109364 156.429948 
L 248.2912 156.650177 
L 248.476508 156.867493 
L 248.66524 157.081842 
L 248.857349 157.293169 
L 249.052787 157.501422 
L 249.251505 157.706548 
L 249.453452 157.908495 
L 249.658578 158.107213 
L 249.866831 158.302651 
L 250.078158 158.49476 
L 250.292507 158.683492 
L 250.509823 158.8688 
L 250.730052 159.050636 
L 250.953138 159.228956 
L 251.179026 159.403713 
L 251.407657 159.574865 
L 251.638976 159.742367 
L 251.872922 159.906178 
L 252.109439 160.066257 
L 252.348465 160.222564 
L 252.589942 160.375058 
L 252.833807 160.523701 
L 253.08 160.668457 
L 253.328459 160.809289 
L 253.579121 160.946161 
L 253.831923 161.079038 
L 254.086801 161.207888 
L 254.343692 161.332678 
L 254.60253 161.453376 
L 254.86325 161.569952 
L 255.125788 161.682377 
L 255.390076 161.790623 
L 255.656048 161.894661 
L 255.923637 161.994467 
L 256.192777 162.090015 
L 256.463398 162.18128 
L 256.735433 162.26824 
L 257.008814 162.350874 
L 257.283471 162.429159 
L 257.559336 162.503077 
L 257.836339 162.572608 
L 258.11441 162.637736 
L 258.39348 162.698444 
L 258.673478 162.754717 
L 258.954333 162.80654 
L 259.235975 162.8539 
L 259.518333 162.896786 
L 259.801336 162.935187 
L 260.084912 162.969092 
L 260.368991 162.998495 
L 260.653501 163.023386 
L 260.938369 163.04376 
L 261.223526 163.059612 
L 261.508897 163.070938 
L 261.794413 163.077734 
L 262.08 163.08 
L 298.08 163.08 
z
" clip-path="url(#p362a7e209b)" style="fill: none; stroke: #000000; stroke-linecap: round"/>
   </g>
   <g id="patch_5">
    <path d="M 58.68 271.08 
L 127.08 249.48 
L 195.48 271.08 
L 127.08 292.68 
L 58.68 271.08 
z
" clip-path="url(#p362a7e209b)" style="fill: none; stroke: #000000; stroke-linecap: round"/>
   </g>
   <g id="patch_6">
    <path d="M 58.68 400.68 
L 127.08 379.08 
L 195.48 400.68 
L 127.08 422.28 
L 58.68 400.68 
z
" clip-path="url(#p362a7e209b)" style="fill: none; stroke: #000000; stroke-linecap: round"/>
   </g>
   <g id="patch_7">
    <path d="M 145.08 489.137143 
L 145.365587 489.134877 
L 145.651103 489.128081 
L 145.936474 489.116755 
L 146.221631 489.100903 
L 146.506499 489.080529 
L 146.791009 489.055637 
L 147.075088 489.026235 
L 147.358664 488.992329 
L 147.641667 488.953929 
L 147.924025 488.911043 
L 148.205667 488.863682 
L 148.486522 488.811859 
L 148.76652 488.755587 
L 149.04559 488.694879 
L 149.323661 488.629751 
L 149.600664 488.560219 
L 149.876529 488.486302 
L 150.151186 488.408016 
L 150.424567 488.325383 
L 150.696602 488.238423 
L 150.967223 488.147158 
L 151.236363 488.05161 
L 151.503952 487.951804 
L 151.769924 487.847766 
L 152.034212 487.73952 
L 152.29675 487.627095 
L 152.55747 487.510519 
L 152.816308 487.389821 
L 153.073199 487.265031 
L 153.328077 487.136181 
L 153.580879 487.003303 
L 153.831541 486.866432 
L 154.08 486.7256 
L 154.326193 486.580844 
L 154.570058 486.432201 
L 154.811535 486.279706 
L 155.050561 486.1234 
L 155.287078 485.963321 
L 155.521024 485.79951 
L 155.752343 485.632007 
L 155.980974 485.460856 
L 156.206862 485.286099 
L 156.429948 485.107779 
L 156.650177 484.925943 
L 156.867493 484.740635 
L 157.081842 484.551903 
L 157.293169 484.359794 
L 157.501422 484.164356 
L 157.706548 483.965638 
L 157.908495 483.763691 
L 158.107213 483.558565 
L 158.302651 483.350312 
L 158.49476 483.138985 
L 158.683492 482.924636 
L 158.8688 482.70732 
L 159.050636 482.487091 
L 159.228956 482.264005 
L 159.403713 482.038117 
L 159.574865 481.809486 
L 159.742367 481.578167 
L 159.906178 481.34422 
L 160.066257 481.107704 
L 160.222564 480.868678 
L 160.375058 480.627201 
L 160.523701 480.383336 
L 160.668457 480.137143 
L 160.809289 479.888684 
L 160.946161 479.638022 
L 161.079038 479.38522 
L 161.207888 479.130342 
L 161.332678 478.873451 
L 161.453376 478.614613 
L 161.569952 478.353892 
L 161.682377 478.091355 
L 161.790623 477.827067 
L 161.894661 477.561095 
L 161.994467 477.293505 
L 162.090015 477.024366 
L 162.18128 476.753745 
L 162.26824 476.48171 
L 162.350874 476.208329 
L 162.429159 475.933672 
L 162.503077 475.657807 
L 162.572608 475.380804 
L 162.637736 475.102732 
L 162.698444 474.823663 
L 162.754717 474.543665 
L 162.80654 474.26281 
L 162.8539 473.981168 
L 162.896786 473.69881 
L 162.935187 473.415807 
L 162.969092 473.13223 
L 162.998495 472.848152 
L 163.023386 472.563642 
L 163.04376 472.278773 
L 163.059612 471.993617 
L 163.070938 471.708246 
L 163.077734 471.42273 
L 163.08 471.137143 
L 163.08 471.137143 
L 163.077734 470.851556 
L 163.070938 470.56604 
L 163.059612 470.280668 
L 163.04376 469.995512 
L 163.023386 469.710644 
L 162.998495 469.426134 
L 162.969092 469.142055 
L 162.935187 468.858479 
L 162.896786 468.575476 
L 162.8539 468.293118 
L 162.80654 468.011476 
L 162.754717 467.73062 
L 162.698444 467.450623 
L 162.637736 467.171553 
L 162.572608 466.893482 
L 162.503077 466.616479 
L 162.429159 466.340614 
L 162.350874 466.065957 
L 162.26824 465.792576 
L 162.18128 465.520541 
L 162.090015 465.24992 
L 161.994467 464.98078 
L 161.894661 464.713191 
L 161.790623 464.447219 
L 161.682377 464.182931 
L 161.569952 463.920393 
L 161.453376 463.659673 
L 161.332678 463.400834 
L 161.207888 463.143944 
L 161.079038 462.889065 
L 160.946161 462.636264 
L 160.809289 462.385602 
L 160.668457 462.137143 
L 160.523701 461.89095 
L 160.375058 461.647084 
L 160.222564 461.405608 
L 160.066257 461.166582 
L 159.906178 460.930065 
L 159.742367 460.696118 
L 159.574865 460.4648 
L 159.403713 460.236168 
L 159.228956 460.010281 
L 159.050636 459.787195 
L 158.8688 459.566966 
L 158.683492 459.34965 
L 158.49476 459.135301 
L 158.302651 458.923973 
L 158.107213 458.715721 
L 157.908495 458.510595 
L 157.706548 458.308648 
L 157.501422 458.10993 
L 157.293169 457.914492 
L 157.081842 457.722383 
L 156.867493 457.533651 
L 156.650177 457.348343 
L 156.429948 457.166506 
L 156.206862 456.988187 
L 155.980974 456.81343 
L 155.752343 456.642278 
L 155.521024 456.474776 
L 155.287078 456.310964 
L 155.050561 456.150885 
L 154.811535 455.994579 
L 154.570058 455.842085 
L 154.326193 455.693441 
L 154.08 455.548686 
L 153.831541 455.407854 
L 153.580879 455.270982 
L 153.328077 455.138105 
L 153.073199 455.009255 
L 152.816308 454.884465 
L 152.55747 454.763767 
L 152.29675 454.647191 
L 152.034212 454.534766 
L 151.769924 454.42652 
L 151.503952 454.322481 
L 151.236363 454.222676 
L 150.967223 454.127128 
L 150.696602 454.035863 
L 150.424567 453.948903 
L 150.151186 453.866269 
L 149.876529 453.787984 
L 149.600664 453.714066 
L 149.323661 453.644535 
L 149.04559 453.579407 
L 148.76652 453.518699 
L 148.486522 453.462426 
L 148.205667 453.410603 
L 147.924025 453.363243 
L 147.641667 453.320357 
L 147.358664 453.281956 
L 147.075088 453.24805 
L 146.791009 453.218648 
L 146.506499 453.193757 
L 146.221631 453.173383 
L 145.936474 453.157531 
L 145.651103 453.146205 
L 145.365587 453.139409 
L 145.08 453.137143 
L 109.08 453.137143 
L 108.794413 453.139409 
L 108.508897 453.146205 
L 108.223526 453.157531 
L 107.938369 453.173383 
L 107.653501 453.193757 
L 107.368991 453.218648 
L 107.084912 453.24805 
L 106.801336 453.281956 
L 106.518333 453.320357 
L 106.235975 453.363243 
L 105.954333 453.410603 
L 105.673478 453.462426 
L 105.39348 453.518699 
L 105.11441 453.579407 
L 104.836339 453.644535 
L 104.559336 453.714066 
L 104.283471 453.787984 
L 104.008814 453.866269 
L 103.735433 453.948903 
L 103.463398 454.035863 
L 103.192777 454.127128 
L 102.923637 454.222676 
L 102.656048 454.322481 
L 102.390076 454.42652 
L 102.125788 454.534766 
L 101.86325 454.647191 
L 101.60253 454.763767 
L 101.343692 454.884465 
L 101.086801 455.009255 
L 100.831923 455.138105 
L 100.579121 455.270982 
L 100.328459 455.407854 
L 100.08 455.548686 
L 99.833807 455.693441 
L 99.589942 455.842085 
L 99.348465 455.994579 
L 99.109439 456.150885 
L 98.872922 456.310964 
L 98.638976 456.474776 
L 98.407657 456.642278 
L 98.179026 456.81343 
L 97.953138 456.988187 
L 97.730052 457.166506 
L 97.509823 457.348343 
L 97.292507 457.533651 
L 97.078158 457.722383 
L 96.866831 457.914492 
L 96.658578 458.10993 
L 96.453452 458.308648 
L 96.251505 458.510595 
L 96.052787 458.715721 
L 95.857349 458.923973 
L 95.66524 459.135301 
L 95.476508 459.34965 
L 95.2912 459.566966 
L 95.109364 459.787195 
L 94.931044 460.010281 
L 94.756287 460.236168 
L 94.585135 460.4648 
L 94.417633 460.696118 
L 94.253822 460.930065 
L 94.093743 461.166582 
L 93.937436 461.405608 
L 93.784942 461.647084 
L 93.636299 461.89095 
L 93.491543 462.137143 
L 93.350711 462.385602 
L 93.213839 462.636264 
L 93.080962 462.889065 
L 92.952112 463.143944 
L 92.827322 463.400834 
L 92.706624 463.659673 
L 92.590048 463.920393 
L 92.477623 464.182931 
L 92.369377 464.447219 
L 92.265339 464.713191 
L 92.165533 464.98078 
L 92.069985 465.24992 
L 91.97872 465.520541 
L 91.89176 465.792576 
L 91.809126 466.065957 
L 91.730841 466.340614 
L 91.656923 466.616479 
L 91.587392 466.893482 
L 91.522264 467.171553 
L 91.461556 467.450623 
L 91.405283 467.73062 
L 91.35346 468.011476 
L 91.3061 468.293118 
L 91.263214 468.575476 
L 91.224813 468.858479 
L 91.190908 469.142055 
L 91.161505 469.426134 
L 91.136614 469.710644 
L 91.11624 469.995512 
L 91.100388 470.280668 
L 91.089062 470.56604 
L 91.082266 470.851556 
L 91.08 471.137143 
L 91.08 471.137143 
L 91.082266 471.42273 
L 91.089062 471.708246 
L 91.100388 471.993617 
L 91.11624 472.278773 
L 91.136614 472.563642 
L 91.161505 472.848152 
L 91.190908 473.13223 
L 91.224813 473.415807 
L 91.263214 473.69881 
L 91.3061 473.981168 
L 91.35346 474.26281 
L 91.405283 474.543665 
L 91.461556 474.823663 
L 91.522264 475.102732 
L 91.587392 475.380804 
L 91.656923 475.657807 
L 91.730841 475.933672 
L 91.809126 476.208329 
L 91.89176 476.48171 
L 91.97872 476.753745 
L 92.069985 477.024366 
L 92.165533 477.293505 
L 92.265339 477.561095 
L 92.369377 477.827067 
L 92.477623 478.091355 
L 92.590048 478.353892 
L 92.706624 478.614613 
L 92.827322 478.873451 
L 92.952112 479.130342 
L 93.080962 479.38522 
L 93.213839 479.638022 
L 93.350711 479.888684 
L 93.491543 480.137143 
L 93.636299 480.383336 
L 93.784942 480.627201 
L 93.937436 480.868678 
L 94.093743 481.107704 
L 94.253822 481.34422 
L 94.417633 481.578167 
L 94.585135 481.809486 
L 94.756287 482.038117 
L 94.931044 482.264005 
L 95.109364 482.487091 
L 95.2912 482.70732 
L 95.476508 482.924636 
L 95.66524 483.138985 
L 95.857349 483.350312 
L 96.052787 483.558565 
L 96.251505 483.763691 
L 96.453452 483.965638 
L 96.658578 484.164356 
L 96.866831 484.359794 
L 97.078158 484.551903 
L 97.292507 484.740635 
L 97.509823 484.925943 
L 97.730052 485.107779 
L 97.953138 485.286099 
L 98.179026 485.460856 
L 98.407657 485.632007 
L 98.638976 485.79951 
L 98.872922 485.963321 
L 99.109439 486.1234 
L 99.348465 486.279706 
L 99.589942 486.432201 
L 99.833807 486.580844 
L 100.08 486.7256 
L 100.328459 486.866432 
L 100.579121 487.003303 
L 100.831923 487.136181 
L 101.086801 487.265031 
L 101.343692 487.389821 
L 101.60253 487.510519 
L 101.86325 487.627095 
L 102.125788 487.73952 
L 102.390076 487.847766 
L 102.656048 487.951804 
L 102.923637 488.05161 
L 103.192777 488.147158 
L 103.463398 488.238423 
L 103.735433 488.325383 
L 104.008814 488.408016 
L 104.283471 488.486302 
L 104.559336 488.560219 
L 104.836339 488.629751 
L 105.11441 488.694879 
L 105.39348 488.755587 
L 105.673478 488.811859 
L 105.954333 488.863682 
L 106.235975 488.911043 
L 106.518333 488.953929 
L 106.801336 488.992329 
L 107.084912 489.026235 
L 107.368991 489.055637 
L 107.653501 489.080529 
L 107.938369 489.100903 
L 108.223526 489.116755 
L 108.508897 489.128081 
L 108.794413 489.134877 
L 109.08 489.137143 
L 145.08 489.137143 
z
" clip-path="url(#p362a7e209b)" style="fill: none; stroke: #000000; stroke-linecap: round"/>
   </g>
   <g id="line2d_1">
    <path d="M 127.08 40.68 
L 127.08 54.18 
L 127.08 58.68 
" clip-path="url(#p362a7e209b)" style="fill: none; stroke: #000000; stroke-linecap: round"/>
   </g>
   <g id="patch_8">
    <path d="M 129.78 58.68 
L 127.08 67.68 
L 124.38 58.68 
z
" clip-path="url(#p362a7e209b)"/>
   </g>
   <g id="line2d_2">
    <path d="M 82.08 83.88 
L 82.08 67.68 
L 172.08 67.68 
L 172.08 100.08 
L 82.08 100.08 
L 82.08 83.88 
" clip-path="url(#p362a7e209b)" style="fill: none; stroke: #000000; stroke-linecap: round"/>
   </g>
   <g id="line2d_3">
    <path d="M 127.08 100.08 
L 127.08 113.58 
L 127.08 118.08 
" clip-path="url(#p362a7e209b)" style="fill: none; stroke: #000000; stroke-linecap: round"/>
   </g>
   <g id="patch_9">
    <path d="M 129.78 118.08 
L 127.08 127.08 
L 124.38 118.08 
z
" clip-path="url(#p362a7e209b)"/>
   </g>
   <g id="line2d_4">
    <path d="M 190.08 145.08 
L 217.08 145.08 
L 235.08 145.08 
" clip-path="url(#p362a7e209b)" style="fill: none; stroke-dasharray: 3.7,1.6; stroke-dashoffset: 0; stroke: #000000"/>
   </g>
   <g id="patch_10">
    <path d="M 235.08 142.38 
L 244.08 145.08 
L 235.08 147.78 
z
" clip-path="url(#p362a7e209b)"/>
   </g>
   <g id="line2d_5">
    <path d="M 127.08 163.08 
L 127.08 176.58 
L 127.08 181.08 
" clip-path="url(#p362a7e209b)" style="fill: none; stroke: #000000; stroke-linecap: round"/>
   </g>
   <g id="patch_11">
    <path d="M 129.78 181.08 
L 127.08 190.08 
L 124.38 181.08 
z
" clip-path="url(#p362a7e209b)"/>
   </g>
   <g id="line2d_6">
    <path d="M 82.08 206.28 
L 82.08 190.08 
L 172.08 190.08 
L 172.08 222.48 
L 82.08 222.48 
L 82.08 206.28 
" clip-path="url(#p362a7e209b)" style="fill: none; stroke: #000000; stroke-linecap: round"/>
   </g>
   <g id="line2d_7">
    <path d="M 127.08 222.48 
L 127.08 235.98 
L 127.08 240.48 
" clip-path="url(#p362a7e209b)" style="fill: none; stroke: #000000; stroke-linecap: round"/>
   </g>
   <g id="patch_12">
    <path d="M 129.78 240.48 
L 127.08 249.48 
L 124.38 240.48 
z
" clip-path="url(#p362a7e209b)"/>
   </g>
   <g id="line2d_8">
    <path d="M 58.68 271.08 
L 31.68 271.08 
L 13.68 271.08 
" clip-path="url(#p362a7e209b)" style="fill: none; stroke: #000000; stroke-linecap: round"/>
   </g>
   <g id="patch_13">
    <path d="M 13.68 273.78 
L 4.68 271.08 
L 13.68 268.38 
z
" clip-path="url(#p362a7e209b)"/>
   </g>
   <g id="line2d_9">
    <path d="M 127.08 292.68 
L 127.08 306.18 
L 127.08 310.68 
" clip-path="url(#p362a7e209b)" style="fill: none; stroke: #000000; stroke-linecap: round"/>
   </g>
   <g id="patch_14">
    <path d="M 129.78 310.68 
L 127.08 319.68 
L 124.38 310.68 
z
" clip-path="url(#p362a7e209b)"/>
   </g>
   <g id="line2d_10">
    <path d="M 73.08 335.88 
L 73.08 319.68 
L 181.08 319.68 
L 181.08 352.08 
L 73.08 352.08 
L 73.08 335.88 
" clip-path="url(#p362a7e209b)" style="fill: none; stroke: #000000; stroke-linecap: round"/>
   </g>
   <g id="line2d_11">
    <path d="M 127.08 352.08 
L 127.08 365.58 
L 127.08 370.08 
" clip-path="url(#p362a7e209b)" style="fill: none; stroke: #000000; stroke-linecap: round"/>
   </g>
   <g id="patch_15">
    <path d="M 129.78 370.08 
L 127.08 379.08 
L 124.38 370.08 
z
" clip-path="url(#p362a7e209b)"/>
   </g>
   <g id="line2d_12">
    <path d="M 127.08 422.28 
L 127.08 437.708571 
L 127.08 444.137143 
" clip-path="url(#p362a7e209b)" style="fill: none; stroke: #000000; stroke-linecap: round"/>
   </g>
   <g id="patch_16">
    <path d="M 129.78 444.137143 
L 127.08 453.137143 
L 124.38 444.137143 
z
" clip-path="url(#p362a7e209b)"/>
   </g>
   <g id="line2d_13">
    <path d="M 58.68 400.68 
L 4.68 400.68 
L 4.68 145.08 
L 55.08 145.08 
" clip-path="url(#p362a7e209b)" style="fill: none; stroke: #000000; stroke-linecap: round"/>
   </g>
   <g id="patch_17">
    <path d="M 55.08 142.38 
L 64.08 145.08 
L 55.08 147.78 
z
" clip-path="url(#p362a7e209b)"/>
   </g>
   <g id="text_1">
    <!-- START -->
    <g transform="translate(105.602031 26.593437) scale(0.14 -0.14)">
     <defs>
      <path id="IPAexGothic-53" d="M 2919 3641 
Q 2563 4259 1853 4259 
Q 1453 4259 1213 4009 
Q 1028 3803 1028 3534 
Q 1028 3238 1266 3047 
Q 1444 2913 1984 2688 
L 2200 2597 
Q 2925 2306 3191 1953 
Q 3422 1644 3422 1259 
Q 3422 644 2969 288 
Q 2559 -31 1931 -31 
Q 881 -31 313 766 
L 753 1100 
Q 1203 459 1938 459 
Q 2288 459 2534 625 
Q 2841 847 2841 1216 
Q 2841 1503 2616 1728 
Q 2375 1959 1728 2206 
L 1541 2278 
Q 453 2694 453 3481 
Q 453 4006 806 4347 
Q 1203 4725 1863 4725 
Q 2841 4725 3359 3956 
L 2919 3641 
z
" transform="scale(0.015625)"/>
      <path id="IPAexGothic-54" d="M 3866 4141 
L 2175 4141 
L 2175 63 
L 1606 63 
L 1606 4141 
L -31 4141 
L -31 4634 
L 3866 4634 
L 3866 4141 
z
" transform="scale(0.015625)"/>
      <path id="IPAexGothic-41" d="M 4056 63 
L 3444 63 
L 2938 1409 
L 1100 1409 
L 603 63 
L -6 63 
L 1806 4666 
L 2259 4666 
L 4056 63 
z
M 2778 1863 
L 2316 3078 
Q 2125 3588 2028 4000 
L 2009 4000 
Q 1897 3563 1716 3078 
L 1263 1863 
L 2778 1863 
z
" transform="scale(0.015625)"/>
      <path id="IPAexGothic-52" d="M 4072 63 
L 3394 63 
Q 3138 641 2828 1197 
Q 2584 1641 2344 1825 
Q 2050 2044 1625 2044 
L 1172 2044 
L 1172 63 
L 609 63 
L 609 4634 
L 2009 4634 
Q 2713 4634 3131 4378 
Q 3688 4044 3688 3381 
Q 3688 2784 3181 2459 
Q 2906 2272 2522 2216 
L 2522 2197 
Q 2941 2050 3247 1581 
Q 3516 1166 4072 63 
z
M 1172 2478 
L 1869 2478 
Q 3106 2478 3106 3369 
Q 3106 4181 1928 4181 
L 1172 4181 
L 1172 2478 
z
" transform="scale(0.015625)"/>
     </defs>
     <use xlink:href="#IPAexGothic-53"/>
     <use xlink:href="#IPAexGothic-54" x="58.496094"/>
     <use xlink:href="#IPAexGothic-41" x="118.408203"/>
     <use xlink:href="#IPAexGothic-52" x="182.128906"/>
     <use xlink:href="#IPAexGothic-54" x="246.923828"/>
    </g>
   </g>
   <g id="text_2">
    <!-- counter = 0 -->
    <g transform="translate(88.653281 87.793437) scale(0.14 -0.14)">
     <defs>
      <path id="IPAexGothic-63" d="M 3269 784 
Q 2834 -31 1900 -31 
Q 1228 -31 788 409 
Q 313 891 313 1663 
Q 313 2428 788 2913 
Q 1222 3347 1881 3347 
Q 2813 3347 3206 2541 
L 2763 2309 
Q 2484 2900 1900 2900 
Q 1516 2900 1234 2619 
Q 881 2266 881 1650 
Q 881 1069 1222 728 
Q 1522 428 1956 428 
Q 2547 428 2847 1016 
L 3269 784 
z
" transform="scale(0.015625)"/>
      <path id="IPAexGothic-6f" d="M 1919 3341 
Q 2594 3341 3056 2888 
Q 3531 2413 3531 1638 
Q 3531 888 3066 422 
Q 2609 -31 1919 -31 
Q 1228 -31 781 416 
Q 313 881 313 1656 
Q 313 2413 788 2888 
Q 1241 3341 1919 3341 
z
M 1919 2919 
Q 1519 2919 1241 2631 
Q 888 2278 888 1650 
Q 888 1031 1234 684 
Q 1516 403 1919 403 
Q 2331 403 2609 691 
Q 2956 1038 2956 1672 
Q 2956 2269 2603 2631 
Q 2316 2919 1919 2919 
z
" transform="scale(0.015625)"/>
      <path id="IPAexGothic-75" d="M 3284 63 
L 2772 63 
L 2772 644 
Q 2300 0 1625 0 
Q 1072 0 763 375 
Q 519 678 519 1241 
L 519 3250 
L 1069 3250 
L 1069 1259 
Q 1069 466 1734 466 
Q 2406 466 2734 1291 
L 2734 3250 
L 3284 3250 
L 3284 63 
z
" transform="scale(0.015625)"/>
      <path id="IPAexGothic-6e" d="M 3328 63 
L 2778 63 
L 2778 2041 
Q 2778 2853 2106 2853 
Q 1428 2853 1113 2041 
L 1113 63 
L 563 63 
L 563 3250 
L 1075 3250 
L 1075 2675 
Q 1525 3316 2222 3316 
Q 3328 3316 3328 2072 
L 3328 63 
z
" transform="scale(0.015625)"/>
      <path id="IPAexGothic-74" d="M 2125 241 
Q 1769 -6 1397 -6 
Q 653 -6 653 831 
L 653 2859 
L 219 2859 
L 219 3250 
L 653 3250 
L 653 3966 
L 1178 4228 
L 1178 3250 
L 2063 3250 
L 2063 2859 
L 1178 2859 
L 1178 906 
Q 1178 416 1513 416 
Q 1738 416 1941 588 
L 2125 241 
z
" transform="scale(0.015625)"/>
      <path id="IPAexGothic-65" d="M 863 1594 
Q 891 1041 1209 722 
Q 1534 397 1997 397 
Q 2606 397 2963 966 
L 3322 728 
Q 2869 -31 1931 -31 
Q 1222 -31 766 422 
Q 306 884 306 1641 
Q 306 2444 788 2925 
Q 1216 3353 1856 3353 
Q 2459 3353 2866 2956 
Q 3322 2494 3322 1722 
L 3322 1594 
L 863 1594 
z
M 2756 1997 
Q 2709 2431 2450 2681 
Q 2194 2938 1844 2938 
Q 1438 2938 1150 2591 
Q 953 2356 894 1997 
L 2756 1997 
z
" transform="scale(0.015625)"/>
      <path id="IPAexGothic-72" d="M 2309 3316 
L 2213 2769 
Q 2106 2791 2022 2791 
Q 1653 2791 1413 2444 
Q 1113 2006 1113 1675 
L 1113 63 
L 563 63 
L 563 3250 
L 1081 3250 
L 1056 2303 
L 1069 2303 
Q 1422 3341 2097 3341 
Q 2206 3341 2309 3316 
z
" transform="scale(0.015625)"/>
      <path id="IPAexGothic-20" transform="scale(0.015625)"/>
      <path id="IPAexGothic-3d" d="M 416 2803 
L 3922 2803 
L 3922 2438 
L 416 2438 
L 416 2803 
z
M 416 1625 
L 3922 1625 
L 3922 1259 
L 416 1259 
L 416 1625 
z
" transform="scale(0.015625)"/>
      <path id="IPAexGothic-30" d="M 2038 4725 
Q 2881 4725 3334 3944 
Q 3694 3325 3694 2344 
Q 3694 1372 3334 741 
Q 2888 -31 2016 -31 
Q 1147 -31 700 741 
Q 341 1372 341 2350 
Q 341 3713 1000 4334 
Q 1419 4725 2038 4725 
z
M 2016 4266 
Q 1516 4266 1228 3759 
Q 934 3247 934 2344 
Q 934 1456 1222 947 
Q 1513 447 2016 447 
Q 2619 447 2909 1153 
Q 3100 1622 3100 2375 
Q 3100 3256 2806 3759 
Q 2509 4266 2016 4266 
z
" transform="scale(0.015625)"/>
     </defs>
     <use xlink:href="#IPAexGothic-63"/>
     <use xlink:href="#IPAexGothic-6f" x="54.394531"/>
     <use xlink:href="#IPAexGothic-75" x="114.794922"/>
     <use xlink:href="#IPAexGothic-6e" x="175.195312"/>
     <use xlink:href="#IPAexGothic-74" x="235.595703"/>
     <use xlink:href="#IPAexGothic-65" x="270.214844"/>
     <use xlink:href="#IPAexGothic-72" x="327.099609"/>
     <use xlink:href="#IPAexGothic-20" x="364.111328"/>
     <use xlink:href="#IPAexGothic-3d" x="391.113281"/>
     <use xlink:href="#IPAexGothic-20" x="458.935547"/>
     <use xlink:href="#IPAexGothic-30" x="485.9375"/>
    </g>
   </g>
   <g id="text_3">
    <!-- True -->
    <g transform="translate(131.76 178.246875) scale(0.14 -0.14)">
     <use xlink:href="#IPAexGothic-54"/>
     <use xlink:href="#IPAexGothic-72" x="59.912109"/>
     <use xlink:href="#IPAexGothic-75" x="96.923828"/>
     <use xlink:href="#IPAexGothic-65" x="157.324219"/>
    </g>
   </g>
   <g id="text_4">
    <!-- False -->
    <g transform="translate(194.76 137.74) scale(0.14 -0.14)">
     <defs>
      <path id="IPAexGothic-46" d="M 3469 4141 
L 1172 4141 
L 1172 2656 
L 3206 2656 
L 3206 2188 
L 1172 2188 
L 1172 63 
L 609 63 
L 609 4634 
L 3469 4634 
L 3469 4141 
z
" transform="scale(0.015625)"/>
      <path id="IPAexGothic-61" d="M 3156 63 
L 2672 63 
Q 2559 303 2531 556 
L 2509 556 
Q 2147 -25 1428 -25 
Q 934 -25 622 288 
Q 347 563 347 959 
Q 347 1947 2050 1997 
L 2478 2009 
L 2478 2175 
Q 2478 2509 2288 2700 
Q 2088 2900 1775 2900 
Q 1238 2900 969 2378 
L 494 2597 
Q 938 3328 1788 3328 
Q 2375 3328 2691 3000 
Q 2984 2706 2984 2169 
L 2984 997 
Q 2984 400 3156 63 
z
M 2491 1625 
L 2141 1619 
Q 903 1591 903 953 
Q 903 728 1050 581 
Q 1231 403 1525 403 
Q 1934 403 2234 703 
Q 2491 969 2491 1344 
L 2491 1625 
z
" transform="scale(0.015625)"/>
      <path id="IPAexGothic-6c" d="M 1131 63 
L 581 63 
L 581 4794 
L 1131 4794 
L 1131 63 
z
" transform="scale(0.015625)"/>
      <path id="IPAexGothic-73" d="M 2234 2547 
Q 1938 2931 1484 2931 
Q 891 2931 891 2475 
Q 891 2153 1531 1944 
L 1741 1875 
Q 2650 1578 2650 894 
Q 2650 434 2272 172 
Q 1972 -31 1497 -31 
Q 766 -31 256 503 
L 603 819 
Q 997 397 1516 397 
Q 2131 397 2131 875 
Q 2131 1238 1453 1478 
L 1234 1553 
Q 378 1853 378 2431 
Q 378 2797 628 3047 
Q 928 3347 1453 3347 
Q 2156 3347 2606 2859 
L 2234 2547 
z
" transform="scale(0.015625)"/>
     </defs>
     <use xlink:href="#IPAexGothic-46"/>
     <use xlink:href="#IPAexGothic-61" x="57.177734"/>
     <use xlink:href="#IPAexGothic-6c" x="112.158203"/>
     <use xlink:href="#IPAexGothic-73" x="139.160156"/>
     <use xlink:href="#IPAexGothic-65" x="185.351562"/>
    </g>
   </g>
   <g id="text_5">
    <!-- True ？ -->
    <g transform="translate(103.194688 148.993438) scale(0.14 -0.14)">
     <defs>
      <path id="IPAexGothic-ff1f" d="M 1503 3444 
Q 1550 4184 1963 4616 
Q 2466 5128 3272 5128 
Q 3888 5128 4313 4853 
Q 4909 4469 4909 3778 
Q 4909 3059 4116 2563 
Q 3628 2250 3506 1881 
Q 3422 1650 3422 1228 
L 2853 1228 
Q 2863 1869 3053 2197 
Q 3281 2588 3847 2950 
Q 4341 3269 4341 3778 
Q 4341 4231 3975 4463 
Q 3697 4634 3266 4634 
Q 2656 4634 2341 4225 
Q 2109 3928 2091 3444 
L 1503 3444 
z
M 2763 647 
L 3506 647 
L 3506 -97 
L 2763 -97 
L 2763 647 
z
" transform="scale(0.015625)"/>
     </defs>
     <use xlink:href="#IPAexGothic-54"/>
     <use xlink:href="#IPAexGothic-72" x="59.912109"/>
     <use xlink:href="#IPAexGothic-75" x="96.923828"/>
     <use xlink:href="#IPAexGothic-65" x="157.324219"/>
     <use xlink:href="#IPAexGothic-20" x="214.208984"/>
     <use xlink:href="#IPAexGothic-ff1f" x="241.210938"/>
    </g>
   </g>
   <g id="text_6">
    <!-- END -->
    <g transform="translate(265.296875 148.993438) scale(0.14 -0.14)">
     <defs>
      <path id="IPAexGothic-45" d="M 3547 63 
L 609 63 
L 609 4634 
L 3469 4634 
L 3469 4147 
L 1166 4147 
L 1166 2650 
L 3206 2650 
L 3206 2191 
L 1166 2191 
L 1166 556 
L 3547 556 
L 3547 63 
z
" transform="scale(0.015625)"/>
      <path id="IPAexGothic-4e" d="M 4244 63 
L 3731 63 
L 1697 3150 
Q 1466 3500 1141 4097 
L 1116 4097 
L 1128 3797 
Q 1159 2803 1159 2469 
L 1159 63 
L 609 63 
L 609 4634 
L 1366 4634 
L 3113 1978 
Q 3453 1447 3713 966 
L 3738 966 
Q 3694 1897 3694 2469 
L 3694 4634 
L 4244 4634 
L 4244 63 
z
" transform="scale(0.015625)"/>
      <path id="IPAexGothic-44" d="M 609 4634 
L 1984 4634 
Q 3159 4634 3791 4050 
Q 4456 3444 4456 2356 
Q 4456 1047 3516 441 
Q 2925 63 1941 63 
L 609 63 
L 609 4634 
z
M 1172 556 
L 1894 556 
Q 3853 556 3853 2356 
Q 3853 4147 1928 4147 
L 1172 4147 
L 1172 556 
z
" transform="scale(0.015625)"/>
     </defs>
     <use xlink:href="#IPAexGothic-45"/>
     <use xlink:href="#IPAexGothic-4e" x="59.521484"/>
     <use xlink:href="#IPAexGothic-44" x="135.498047"/>
    </g>
   </g>
   <g id="text_7">
    <!-- counter += 1 -->
    <g transform="translate(83.905313 210.193438) scale(0.14 -0.14)">
     <defs>
      <path id="IPAexGothic-2b" d="M 2369 1856 
L 2369 219 
L 1984 219 
L 1984 1856 
L 416 1856 
L 416 2216 
L 1984 2216 
L 1984 3725 
L 2369 3725 
L 2369 2216 
L 3922 2216 
L 3922 1856 
L 2369 1856 
z
" transform="scale(0.015625)"/>
      <path id="IPAexGothic-31" d="M 2463 63 
L 1900 63 
L 1900 4103 
Q 1372 3922 788 3797 
L 684 4231 
Q 1519 4441 2106 4731 
L 2463 4731 
L 2463 63 
z
" transform="scale(0.015625)"/>
     </defs>
     <use xlink:href="#IPAexGothic-63"/>
     <use xlink:href="#IPAexGothic-6f" x="54.394531"/>
     <use xlink:href="#IPAexGothic-75" x="114.794922"/>
     <use xlink:href="#IPAexGothic-6e" x="175.195312"/>
     <use xlink:href="#IPAexGothic-74" x="235.595703"/>
     <use xlink:href="#IPAexGothic-65" x="270.214844"/>
     <use xlink:href="#IPAexGothic-72" x="327.099609"/>
     <use xlink:href="#IPAexGothic-20" x="364.111328"/>
     <use xlink:href="#IPAexGothic-2b" x="391.113281"/>
     <use xlink:href="#IPAexGothic-3d" x="458.935547"/>
     <use xlink:href="#IPAexGothic-20" x="526.757812"/>
     <use xlink:href="#IPAexGothic-31" x="553.759766"/>
    </g>
   </g>
   <g id="text_8">
    <!-- False -->
    <g transform="translate(131.76 307.846875) scale(0.14 -0.14)">
     <use xlink:href="#IPAexGothic-46"/>
     <use xlink:href="#IPAexGothic-61" x="57.177734"/>
     <use xlink:href="#IPAexGothic-6c" x="112.158203"/>
     <use xlink:href="#IPAexGothic-73" x="139.160156"/>
     <use xlink:href="#IPAexGothic-65" x="185.351562"/>
    </g>
   </g>
   <g id="text_9">
    <!-- True -->
    <g transform="translate(24.009375 263.74) scale(0.14 -0.14)">
     <use xlink:href="#IPAexGothic-54"/>
     <use xlink:href="#IPAexGothic-72" x="59.912109"/>
     <use xlink:href="#IPAexGothic-75" x="96.923828"/>
     <use xlink:href="#IPAexGothic-65" x="157.324219"/>
    </g>
   </g>
   <g id="text_10">
    <!-- counter == 3 ？ -->
    <g transform="translate(75.015313 274.993438) scale(0.14 -0.14)">
     <defs>
      <path id="IPAexGothic-33" d="M 2381 2419 
Q 3506 2216 3506 1278 
Q 3506 716 3128 356 
Q 2709 -31 1944 -31 
Q 797 -31 288 881 
L 756 1131 
Q 1109 441 1938 441 
Q 2425 441 2694 691 
Q 2950 928 2950 1291 
Q 2950 1719 2566 1978 
Q 2216 2213 1644 2213 
L 1363 2213 
L 1363 2669 
L 1656 2669 
Q 2231 2669 2534 2888 
Q 2859 3119 2859 3509 
Q 2859 3934 2494 4138 
Q 2259 4278 1931 4278 
Q 1238 4278 903 3578 
L 434 3803 
Q 897 4725 1938 4725 
Q 2597 4725 3006 4394 
Q 3416 4069 3416 3534 
Q 3416 3028 3019 2706 
Q 2763 2500 2381 2444 
L 2381 2419 
z
" transform="scale(0.015625)"/>
     </defs>
     <use xlink:href="#IPAexGothic-63"/>
     <use xlink:href="#IPAexGothic-6f" x="54.394531"/>
     <use xlink:href="#IPAexGothic-75" x="114.794922"/>
     <use xlink:href="#IPAexGothic-6e" x="175.195312"/>
     <use xlink:href="#IPAexGothic-74" x="235.595703"/>
     <use xlink:href="#IPAexGothic-65" x="270.214844"/>
     <use xlink:href="#IPAexGothic-72" x="327.099609"/>
     <use xlink:href="#IPAexGothic-20" x="364.111328"/>
     <use xlink:href="#IPAexGothic-3d" x="391.113281"/>
     <use xlink:href="#IPAexGothic-3d" x="458.935547"/>
     <use xlink:href="#IPAexGothic-20" x="526.757812"/>
     <use xlink:href="#IPAexGothic-33" x="553.759766"/>
     <use xlink:href="#IPAexGothic-20" x="616.748047"/>
     <use xlink:href="#IPAexGothic-ff1f" x="643.75"/>
    </g>
   </g>
   <g id="text_11">
    <!-- print(counter) -->
    <g transform="translate(81.447656 339.919219) scale(0.14 -0.14)">
     <defs>
      <path id="IPAexGothic-70" d="M 1075 2688 
Q 1525 3341 2206 3341 
Q 2769 3341 3172 2938 
Q 3641 2469 3641 1644 
Q 3641 841 3178 372 
Q 2775 -31 2200 -31 
Q 1569 -31 1106 497 
L 1106 -1216 
L 563 -1216 
L 563 3250 
L 1075 3250 
L 1075 2688 
z
M 1106 1950 
L 1106 1291 
Q 1106 897 1516 600 
Q 1791 403 2106 403 
Q 2469 403 2725 659 
Q 3066 997 3066 1631 
Q 3066 2200 2784 2559 
Q 2503 2900 2100 2900 
Q 1656 2900 1338 2484 
Q 1106 2184 1106 1950 
z
" transform="scale(0.015625)"/>
      <path id="IPAexGothic-69" d="M 1178 3928 
L 550 3928 
L 550 4569 
L 1178 4569 
L 1178 3928 
z
M 1138 63 
L 588 63 
L 588 3250 
L 1138 3250 
L 1138 63 
z
" transform="scale(0.015625)"/>
      <path id="IPAexGothic-28" d="M 1928 -1016 
L 1653 -1166 
Q 488 69 488 1875 
Q 488 3678 1653 4909 
L 1928 4763 
Q 1006 3522 1006 1881 
Q 1006 203 1928 -1016 
z
" transform="scale(0.015625)"/>
      <path id="IPAexGothic-29" d="M 466 4909 
Q 1638 3672 1638 1875 
Q 1638 75 466 -1166 
L 191 -1016 
Q 1119 216 1119 1881 
Q 1119 3509 191 4763 
L 466 4909 
z
" transform="scale(0.015625)"/>
     </defs>
     <use xlink:href="#IPAexGothic-70"/>
     <use xlink:href="#IPAexGothic-72" x="62.109375"/>
     <use xlink:href="#IPAexGothic-69" x="99.121094"/>
     <use xlink:href="#IPAexGothic-6e" x="126.123047"/>
     <use xlink:href="#IPAexGothic-74" x="186.523438"/>
     <use xlink:href="#IPAexGothic-28" x="221.142578"/>
     <use xlink:href="#IPAexGothic-63" x="254.443359"/>
     <use xlink:href="#IPAexGothic-6f" x="308.837891"/>
     <use xlink:href="#IPAexGothic-75" x="369.238281"/>
     <use xlink:href="#IPAexGothic-6e" x="429.638672"/>
     <use xlink:href="#IPAexGothic-74" x="490.039062"/>
     <use xlink:href="#IPAexGothic-65" x="524.658203"/>
     <use xlink:href="#IPAexGothic-72" x="581.542969"/>
     <use xlink:href="#IPAexGothic-29" x="618.554688"/>
    </g>
   </g>
   <g id="text_12">
    <!-- False -->
    <g transform="translate(131.76 437.446875) scale(0.14 -0.14)">
     <use xlink:href="#IPAexGothic-46"/>
     <use xlink:href="#IPAexGothic-61" x="57.177734"/>
     <use xlink:href="#IPAexGothic-6c" x="112.158203"/>
     <use xlink:href="#IPAexGothic-73" x="139.160156"/>
     <use xlink:href="#IPAexGothic-65" x="185.351562"/>
    </g>
   </g>
   <g id="text_13">
    <!-- True -->
    <g transform="translate(24.009375 393.34) scale(0.14 -0.14)">
     <use xlink:href="#IPAexGothic-54"/>
     <use xlink:href="#IPAexGothic-72" x="59.912109"/>
     <use xlink:href="#IPAexGothic-75" x="96.923828"/>
     <use xlink:href="#IPAexGothic-65" x="157.324219"/>
    </g>
   </g>
   <g id="text_14">
    <!-- counter &gt;= 4 ？ -->
    <g transform="translate(75.015312 404.593437) scale(0.14 -0.14)">
     <defs>
      <path id="IPAexGothic-3e" d="M 3444 2028 
L 409 3450 
L 569 3794 
L 3928 2175 
L 3928 1881 
L 569 263 
L 409 609 
L 3444 2028 
z
" transform="scale(0.015625)"/>
      <path id="IPAexGothic-34" d="M 3813 1159 
L 3059 1159 
L 3059 63 
L 2547 63 
L 2547 1159 
L 197 1159 
L 197 1672 
L 2456 4678 
L 3059 4678 
L 3059 1634 
L 3813 1634 
L 3813 1159 
z
M 2578 4109 
L 2559 4109 
Q 2278 3656 2003 3284 
L 759 1634 
L 2547 1634 
L 2547 3144 
Q 2547 3481 2578 4109 
z
" transform="scale(0.015625)"/>
     </defs>
     <use xlink:href="#IPAexGothic-63"/>
     <use xlink:href="#IPAexGothic-6f" x="54.394531"/>
     <use xlink:href="#IPAexGothic-75" x="114.794922"/>
     <use xlink:href="#IPAexGothic-6e" x="175.195312"/>
     <use xlink:href="#IPAexGothic-74" x="235.595703"/>
     <use xlink:href="#IPAexGothic-65" x="270.214844"/>
     <use xlink:href="#IPAexGothic-72" x="327.099609"/>
     <use xlink:href="#IPAexGothic-20" x="364.111328"/>
     <use xlink:href="#IPAexGothic-3e" x="391.113281"/>
     <use xlink:href="#IPAexGothic-3d" x="458.935547"/>
     <use xlink:href="#IPAexGothic-20" x="526.757812"/>
     <use xlink:href="#IPAexGothic-34" x="553.759766"/>
     <use xlink:href="#IPAexGothic-20" x="616.748047"/>
     <use xlink:href="#IPAexGothic-ff1f" x="643.75"/>
    </g>
   </g>
   <g id="text_15">
    <!-- END -->
    <g transform="translate(112.296875 475.05058) scale(0.14 -0.14)">
     <use xlink:href="#IPAexGothic-45"/>
     <use xlink:href="#IPAexGothic-4e" x="59.521484"/>
     <use xlink:href="#IPAexGothic-44" x="135.498047"/>
    </g>
   </g>
  </g>
 </g>
 <defs>
  <clipPath id="p362a7e209b">
   <rect x="0" y="0" width="320.76" height="493.817143"/>
  </clipPath>
 </defs>
</svg>