<?xml version="1.0" encoding="utf-8" standalone="no"?>
<!DOCTYPE svg PUBLIC "-//W3C//DTD SVG 1.1//EN"
  "http://www.w3.org/Graphics/SVG/1.1/DTD/svg11.dtd">
<svg xmlns:xlink="http://www.w3.org/1999/xlink" width="315.36pt" height="314.074286pt" viewBox="0 0 315.36 314.074286" xmlns="http://www.w3.org/2000/svg" version="1.1">
 <metadata>
  <rdf:RDF xmlns:dc="http://purl.org/dc/elements/1.1/" xmlns:cc="http://creativecommons.org/ns#" xmlns:rdf="http://www.w3.org/1999/02/22-rdf-syntax-ns#">
   <cc:Work>
    <dc:type rdf:resource="http://purl.org/dc/dcmitype/StillImage"/>
    <dc:date>2025-09-20T14:00:38.110367</dc:date>
    <dc:format>image/svg+xml</dc:format>
    <dc:creator>
     <cc:Agent>
      <dc:title>Matplotlib v3.10.6, https://matplotlib.org/</dc:title>
     </cc:Agent>
    </dc:creator>
   </cc:Work>
  </rdf:RDF>
 </metadata>
 <defs>
  <style type="text/css">*{stroke-linejoin: round; stroke-linecap: butt}</style>
 </defs>
 <g id="figure_1">
  <g id="patch_1">
   <path d="M 0 314.074286 
L 315.36 314.074286 
L 315.36 0 
L 0 0 
z
" style="fill: #ffffff"/>
  </g>
  <g id="axes_1">
   <g id="patch_2">
    <path d="M 139.68 40.68 
L 139.965587 40.677734 
L 140.251103 40.670938 
L 140.536474 40.659612 
L 140.821631 40.64376 
L 141.106499 40.623386 
L 141.391009 40.598495 
L 141.675088 40.569092 
L 141.958664 40.535187 
L 142.241667 40.496786 
L 142.524025 40.4539 
L 142.805667 40.40654 
L 143.086522 40.354717 
L 143.36652 40.298444 
L 143.64559 40.237736 
L 143.923661 40.172608 
L 144.200664 40.103077 
L 144.476529 40.029159 
L 144.751186 39.950874 
L 145.024567 39.86824 
L 145.296602 39.78128 
L 145.567223 39.690015 
L 145.836363 39.594467 
L 146.103952 39.494661 
L 146.369924 39.390623 
L 146.634212 39.282377 
L 146.89675 39.169952 
L 147.15747 39.053376 
L 147.416308 38.932678 
L 147.673199 38.807888 
L 147.928077 38.679038 
L 148.180879 38.546161 
L 148.431541 38.409289 
L 148.68 38.268457 
L 148.926193 38.123701 
L 149.170058 37.975058 
L 149.411535 37.822564 
L 149.650561 37.666257 
L 149.887078 37.506178 
L 150.121024 37.342367 
L 150.352343 37.174865 
L 150.580974 37.003713 
L 150.806862 36.828956 
L 151.029948 36.650636 
L 151.250177 36.4688 
L 151.467493 36.283492 
L 151.681842 36.09476 
L 151.893169 35.902651 
L 152.101422 35.707213 
L 152.306548 35.508495 
L 152.508495 35.306548 
L 152.707213 35.101422 
L 152.902651 34.893169 
L 153.09476 34.681842 
L 153.283492 34.467493 
L 153.4688 34.250177 
L 153.650636 34.029948 
L 153.828956 33.806862 
L 154.003713 33.580974 
L 154.174865 33.352343 
L 154.342367 33.121024 
L 154.506178 32.887078 
L 154.666257 32.650561 
L 154.822564 32.411535 
L 154.975058 32.170058 
L 155.123701 31.926193 
L 155.268457 31.68 
L 155.409289 31.431541 
L 155.546161 31.180879 
L 155.679038 30.928077 
L 155.807888 30.673199 
L 155.932678 30.416308 
L 156.053376 30.15747 
L 156.169952 29.89675 
L 156.282377 29.634212 
L 156.390623 29.369924 
L 156.494661 29.103952 
L 156.594467 28.836363 
L 156.690015 28.567223 
L 156.78128 28.296602 
L 156.86824 28.024567 
L 156.950874 27.751186 
L 157.029159 27.476529 
L 157.103077 27.200664 
L 157.172608 26.923661 
L 157.237736 26.64559 
L 157.298444 26.36652 
L 157.354717 26.086522 
L 157.40654 25.805667 
L 157.4539 25.524025 
L 157.496786 25.241667 
L 157.535187 24.958664 
L 157.569092 24.675088 
L 157.598495 24.391009 
L 157.623386 24.106499 
L 157.64376 23.821631 
L 157.659612 23.536474 
L 157.670938 23.251103 
L 157.677734 22.965587 
L 157.68 22.68 
L 157.68 22.68 
L 157.677734 22.394413 
L 157.670938 22.108897 
L 157.659612 21.823526 
L 157.64376 21.538369 
L 157.623386 21.253501 
L 157.598495 20.968991 
L 157.569092 20.684912 
L 157.535187 20.401336 
L 157.496786 20.118333 
L 157.4539 19.835975 
L 157.40654 19.554333 
L 157.354717 19.273478 
L 157.298444 18.99348 
L 157.237736 18.71441 
L 157.172608 18.436339 
L 157.103077 18.159336 
L 157.029159 17.883471 
L 156.950874 17.608814 
L 156.86824 17.335433 
L 156.78128 17.063398 
L 156.690015 16.792777 
L 156.594467 16.523637 
L 156.494661 16.256048 
L 156.390623 15.990076 
L 156.282377 15.725788 
L 156.169952 15.46325 
L 156.053376 15.20253 
L 155.932678 14.943692 
L 155.807888 14.686801 
L 155.679038 14.431923 
L 155.546161 14.179121 
L 155.409289 13.928459 
L 155.268457 13.68 
L 155.123701 13.433807 
L 154.975058 13.189942 
L 154.822564 12.948465 
L 154.666257 12.709439 
L 154.506178 12.472922 
L 154.342367 12.238976 
L 154.174865 12.007657 
L 154.003713 11.779026 
L 153.828956 11.553138 
L 153.650636 11.330052 
L 153.4688 11.109823 
L 153.283492 10.892507 
L 153.09476 10.678158 
L 152.902651 10.466831 
L 152.707213 10.258578 
L 152.508495 10.053452 
L 152.306548 9.851505 
L 152.101422 9.652787 
L 151.893169 9.457349 
L 151.681842 9.26524 
L 151.467493 9.076508 
L 151.250177 8.8912 
L 151.029948 8.709364 
L 150.806862 8.531044 
L 150.580974 8.356287 
L 150.352343 8.185135 
L 150.121024 8.017633 
L 149.887078 7.853822 
L 149.650561 7.693743 
L 149.411535 7.537436 
L 149.170058 7.384942 
L 148.926193 7.236299 
L 148.68 7.091543 
L 148.431541 6.950711 
L 148.180879 6.813839 
L 147.928077 6.680962 
L 147.673199 6.552112 
L 147.416308 6.427322 
L 147.15747 6.306624 
L 146.89675 6.190048 
L 146.634212 6.077623 
L 146.369924 5.969377 
L 146.103952 5.865339 
L 145.836363 5.765533 
L 145.567223 5.669985 
L 145.296602 5.57872 
L 145.024567 5.49176 
L 144.751186 5.409126 
L 144.476529 5.330841 
L 144.200664 5.256923 
L 143.923661 5.187392 
L 143.64559 5.122264 
L 143.36652 5.061556 
L 143.086522 5.005283 
L 142.805667 4.95346 
L 142.524025 4.9061 
L 142.241667 4.863214 
L 141.958664 4.824813 
L 141.675088 4.790908 
L 141.391009 4.761505 
L 141.106499 4.736614 
L 140.821631 4.71624 
L 140.536474 4.700388 
L 140.251103 4.689062 
L 139.965587 4.682266 
L 139.68 4.68 
L 103.68 4.68 
L 103.394413 4.682266 
L 103.108897 4.689062 
L 102.823526 4.700388 
L 102.538369 4.71624 
L 102.253501 4.736614 
L 101.968991 4.761505 
L 101.684912 4.790908 
L 101.401336 4.824813 
L 101.118333 4.863214 
L 100.835975 4.9061 
L 100.554333 4.95346 
L 100.273478 5.005283 
L 99.99348 5.061556 
L 99.71441 5.122264 
L 99.436339 5.187392 
L 99.159336 5.256923 
L 98.883471 5.330841 
L 98.608814 5.409126 
L 98.335433 5.49176 
L 98.063398 5.57872 
L 97.792777 5.669985 
L 97.523637 5.765533 
L 97.256048 5.865339 
L 96.990076 5.969377 
L 96.725788 6.077623 
L 96.46325 6.190048 
L 96.20253 6.306624 
L 95.943692 6.427322 
L 95.686801 6.552112 
L 95.431923 6.680962 
L 95.179121 6.813839 
L 94.928459 6.950711 
L 94.68 7.091543 
L 94.433807 7.236299 
L 94.189942 7.384942 
L 93.948465 7.537436 
L 93.709439 7.693743 
L 93.472922 7.853822 
L 93.238976 8.017633 
L 93.007657 8.185135 
L 92.779026 8.356287 
L 92.553138 8.531044 
L 92.330052 8.709364 
L 92.109823 8.8912 
L 91.892507 9.076508 
L 91.678158 9.26524 
L 91.466831 9.457349 
L 91.258578 9.652787 
L 91.053452 9.851505 
L 90.851505 10.053452 
L 90.652787 10.258578 
L 90.457349 10.466831 
L 90.26524 10.678158 
L 90.076508 10.892507 
L 89.8912 11.109823 
L 89.709364 11.330052 
L 89.531044 11.553138 
L 89.356287 11.779026 
L 89.185135 12.007657 
L 89.017633 12.238976 
L 88.853822 12.472922 
L 88.693743 12.709439 
L 88.537436 12.948465 
L 88.384942 13.189942 
L 88.236299 13.433807 
L 88.091543 13.68 
L 87.950711 13.928459 
L 87.813839 14.179121 
L 87.680962 14.431923 
L 87.552112 14.686801 
L 87.427322 14.943692 
L 87.306624 15.20253 
L 87.190048 15.46325 
L 87.077623 15.725788 
L 86.969377 15.990076 
L 86.865339 16.256048 
L 86.765533 16.523637 
L 86.669985 16.792777 
L 86.57872 17.063398 
L 86.49176 17.335433 
L 86.409126 17.608814 
L 86.330841 17.883471 
L 86.256923 18.159336 
L 86.187392 18.436339 
L 86.122264 18.71441 
L 86.061556 18.99348 
L 86.005283 19.273478 
L 85.95346 19.554333 
L 85.9061 19.835975 
L 85.863214 20.118333 
L 85.824813 20.401336 
L 85.790908 20.684912 
L 85.761505 20.968991 
L 85.736614 21.253501 
L 85.71624 21.538369 
L 85.700388 21.823526 
L 85.689062 22.108897 
L 85.682266 22.394413 
L 85.68 22.68 
L 85.68 22.68 
L 85.682266 22.965587 
L 85.689062 23.251103 
L 85.700388 23.536474 
L 85.71624 23.821631 
L 85.736614 24.106499 
L 85.761505 24.391009 
L 85.790908 24.675088 
L 85.824813 24.958664 
L 85.863214 25.241667 
L 85.9061 25.524025 
L 85.95346 25.805667 
L 86.005283 26.086522 
L 86.061556 26.36652 
L 86.122264 26.64559 
L 86.187392 26.923661 
L 86.256923 27.200664 
L 86.330841 27.476529 
L 86.409126 27.751186 
L 86.49176 28.024567 
L 86.57872 28.296602 
L 86.669985 28.567223 
L 86.765533 28.836363 
L 86.865339 29.103952 
L 86.969377 29.369924 
L 87.077623 29.634212 
L 87.190048 29.89675 
L 87.306624 30.15747 
L 87.427322 30.416308 
L 87.552112 30.673199 
L 87.680962 30.928077 
L 87.813839 31.180879 
L 87.950711 31.431541 
L 88.091543 31.68 
L 88.236299 31.926193 
L 88.384942 32.170058 
L 88.537436 32.411535 
L 88.693743 32.650561 
L 88.853822 32.887078 
L 89.017633 33.121024 
L 89.185135 33.352343 
L 89.356287 33.580974 
L 89.531044 33.806862 
L 89.709364 34.029948 
L 89.8912 34.250177 
L 90.076508 34.467493 
L 90.26524 34.681842 
L 90.457349 34.893169 
L 90.652787 35.101422 
L 90.851505 35.306548 
L 91.053452 35.508495 
L 91.258578 35.707213 
L 91.466831 35.902651 
L 91.678158 36.09476 
L 91.892507 36.283492 
L 92.109823 36.4688 
L 92.330052 36.650636 
L 92.553138 36.828956 
L 92.779026 37.003713 
L 93.007657 37.174865 
L 93.238976 37.342367 
L 93.472922 37.506178 
L 93.709439 37.666257 
L 93.948465 37.822564 
L 94.189942 37.975058 
L 94.433807 38.123701 
L 94.68 38.268457 
L 94.928459 38.409289 
L 95.179121 38.546161 
L 95.431923 38.679038 
L 95.686801 38.807888 
L 95.943692 38.932678 
L 96.20253 39.053376 
L 96.46325 39.169952 
L 96.725788 39.282377 
L 96.990076 39.390623 
L 97.256048 39.494661 
L 97.523637 39.594467 
L 97.792777 39.690015 
L 98.063398 39.78128 
L 98.335433 39.86824 
L 98.608814 39.950874 
L 98.883471 40.029159 
L 99.159336 40.103077 
L 99.436339 40.172608 
L 99.71441 40.237736 
L 99.99348 40.298444 
L 100.273478 40.354717 
L 100.554333 40.40654 
L 100.835975 40.4539 
L 101.118333 40.496786 
L 101.401336 40.535187 
L 101.684912 40.569092 
L 101.968991 40.598495 
L 102.253501 40.623386 
L 102.538369 40.64376 
L 102.823526 40.659612 
L 103.108897 40.670938 
L 103.394413 40.677734 
L 103.68 40.68 
L 139.68 40.68 
z
" clip-path="url(#p546fc7f21f)" style="fill: none; stroke: #000000; stroke-linecap: round"/>
   </g>
   <g id="patch_3">
    <path d="M 58.68 85.68 
L 121.68 67.68 
L 184.68 85.68 
L 121.68 103.68 
L 58.68 85.68 
z
" clip-path="url(#p546fc7f21f)" style="fill: none; stroke: #000000; stroke-linecap: round"/>
   </g>
   <g id="patch_4">
    <path d="M 292.68 103.68 
L 292.965587 103.677734 
L 293.251103 103.670938 
L 293.536474 103.659612 
L 293.821631 103.64376 
L 294.106499 103.623386 
L 294.391009 103.598495 
L 294.675088 103.569092 
L 294.958664 103.535187 
L 295.241667 103.496786 
L 295.524025 103.4539 
L 295.805667 103.40654 
L 296.086522 103.354717 
L 296.36652 103.298444 
L 296.64559 103.237736 
L 296.923661 103.172608 
L 297.200664 103.103077 
L 297.476529 103.029159 
L 297.751186 102.950874 
L 298.024567 102.86824 
L 298.296602 102.78128 
L 298.567223 102.690015 
L 298.836363 102.594467 
L 299.103952 102.494661 
L 299.369924 102.390623 
L 299.634212 102.282377 
L 299.89675 102.169952 
L 300.15747 102.053376 
L 300.416308 101.932678 
L 300.673199 101.807888 
L 300.928077 101.679038 
L 301.180879 101.546161 
L 301.431541 101.409289 
L 301.68 101.268457 
L 301.926193 101.123701 
L 302.170058 100.975058 
L 302.411535 100.822564 
L 302.650561 100.666257 
L 302.887078 100.506178 
L 303.121024 100.342367 
L 303.352343 100.174865 
L 303.580974 100.003713 
L 303.806862 99.828956 
L 304.029948 99.650636 
L 304.250177 99.4688 
L 304.467493 99.283492 
L 304.681842 99.09476 
L 304.893169 98.902651 
L 305.101422 98.707213 
L 305.306548 98.508495 
L 305.508495 98.306548 
L 305.707213 98.101422 
L 305.902651 97.893169 
L 306.09476 97.681842 
L 306.283492 97.467493 
L 306.4688 97.250177 
L 306.650636 97.029948 
L 306.828956 96.806862 
L 307.003713 96.580974 
L 307.174865 96.352343 
L 307.342367 96.121024 
L 307.506178 95.887078 
L 307.666257 95.650561 
L 307.822564 95.411535 
L 307.975058 95.170058 
L 308.123701 94.926193 
L 308.268457 94.68 
L 308.409289 94.431541 
L 308.546161 94.180879 
L 308.679038 93.928077 
L 308.807888 93.673199 
L 308.932678 93.416308 
L 309.053376 93.15747 
L 309.169952 92.89675 
L 309.282377 92.634212 
L 309.390623 92.369924 
L 309.494661 92.103952 
L 309.594467 91.836363 
L 309.690015 91.567223 
L 309.78128 91.296602 
L 309.86824 91.024567 
L 309.950874 90.751186 
L 310.029159 90.476529 
L 310.103077 90.200664 
L 310.172608 89.923661 
L 310.237736 89.64559 
L 310.298444 89.36652 
L 310.354717 89.086522 
L 310.40654 88.805667 
L 310.4539 88.524025 
L 310.496786 88.241667 
L 310.535187 87.958664 
L 310.569092 87.675088 
L 310.598495 87.391009 
L 310.623386 87.106499 
L 310.64376 86.821631 
L 310.659612 86.536474 
L 310.670938 86.251103 
L 310.677734 85.965587 
L 310.68 85.68 
L 310.68 85.68 
L 310.677734 85.394413 
L 310.670938 85.108897 
L 310.659612 84.823526 
L 310.64376 84.538369 
L 310.623386 84.253501 
L 310.598495 83.968991 
L 310.569092 83.684912 
L 310.535187 83.401336 
L 310.496786 83.118333 
L 310.4539 82.835975 
L 310.40654 82.554333 
L 310.354717 82.273478 
L 310.298444 81.99348 
L 310.237736 81.71441 
L 310.172608 81.436339 
L 310.103077 81.159336 
L 310.029159 80.883471 
L 309.950874 80.608814 
L 309.86824 80.335433 
L 309.78128 80.063398 
L 309.690015 79.792777 
L 309.594467 79.523637 
L 309.494661 79.256048 
L 309.390623 78.990076 
L 309.282377 78.725788 
L 309.169952 78.46325 
L 309.053376 78.20253 
L 308.932678 77.943692 
L 308.807888 77.686801 
L 308.679038 77.431923 
L 308.546161 77.179121 
L 308.409289 76.928459 
L 308.268457 76.68 
L 308.123701 76.433807 
L 307.975058 76.189942 
L 307.822564 75.948465 
L 307.666257 75.709439 
L 307.506178 75.472922 
L 307.342367 75.238976 
L 307.174865 75.007657 
L 307.003713 74.779026 
L 306.828956 74.553138 
L 306.650636 74.330052 
L 306.4688 74.109823 
L 306.283492 73.892507 
L 306.09476 73.678158 
L 305.902651 73.466831 
L 305.707213 73.258578 
L 305.508495 73.053452 
L 305.306548 72.851505 
L 305.101422 72.652787 
L 304.893169 72.457349 
L 304.681842 72.26524 
L 304.467493 72.076508 
L 304.250177 71.8912 
L 304.029948 71.709364 
L 303.806862 71.531044 
L 303.580974 71.356287 
L 303.352343 71.185135 
L 303.121024 71.017633 
L 302.887078 70.853822 
L 302.650561 70.693743 
L 302.411535 70.537436 
L 302.170058 70.384942 
L 301.926193 70.236299 
L 301.68 70.091543 
L 301.431541 69.950711 
L 301.180879 69.813839 
L 300.928077 69.680962 
L 300.673199 69.552112 
L 300.416308 69.427322 
L 300.15747 69.306624 
L 299.89675 69.190048 
L 299.634212 69.077623 
L 299.369924 68.969377 
L 299.103952 68.865339 
L 298.836363 68.765533 
L 298.567223 68.669985 
L 298.296602 68.57872 
L 298.024567 68.49176 
L 297.751186 68.409126 
L 297.476529 68.330841 
L 297.200664 68.256923 
L 296.923661 68.187392 
L 296.64559 68.122264 
L 296.36652 68.061556 
L 296.086522 68.005283 
L 295.805667 67.95346 
L 295.524025 67.9061 
L 295.241667 67.863214 
L 294.958664 67.824813 
L 294.675088 67.790908 
L 294.391009 67.761505 
L 294.106499 67.736614 
L 293.821631 67.71624 
L 293.536474 67.700388 
L 293.251103 67.689062 
L 292.965587 67.682266 
L 292.68 67.68 
L 256.68 67.68 
L 256.394413 67.682266 
L 256.108897 67.689062 
L 255.823526 67.700388 
L 255.538369 67.71624 
L 255.253501 67.736614 
L 254.968991 67.761505 
L 254.684912 67.790908 
L 254.401336 67.824813 
L 254.118333 67.863214 
L 253.835975 67.9061 
L 253.554333 67.95346 
L 253.273478 68.005283 
L 252.99348 68.061556 
L 252.71441 68.122264 
L 252.436339 68.187392 
L 252.159336 68.256923 
L 251.883471 68.330841 
L 251.608814 68.409126 
L 251.335433 68.49176 
L 251.063398 68.57872 
L 250.792777 68.669985 
L 250.523637 68.765533 
L 250.256048 68.865339 
L 249.990076 68.969377 
L 249.725788 69.077623 
L 249.46325 69.190048 
L 249.20253 69.306624 
L 248.943692 69.427322 
L 248.686801 69.552112 
L 248.431923 69.680962 
L 248.179121 69.813839 
L 247.928459 69.950711 
L 247.68 70.091543 
L 247.433807 70.236299 
L 247.189942 70.384942 
L 246.948465 70.537436 
L 246.709439 70.693743 
L 246.472922 70.853822 
L 246.238976 71.017633 
L 246.007657 71.185135 
L 245.779026 71.356287 
L 245.553138 71.531044 
L 245.330052 71.709364 
L 245.109823 71.8912 
L 244.892507 72.076508 
L 244.678158 72.26524 
L 244.466831 72.457349 
L 244.258578 72.652787 
L 244.053452 72.851505 
L 243.851505 73.053452 
L 243.652787 73.258578 
L 243.457349 73.466831 
L 243.26524 73.678158 
L 243.076508 73.892507 
L 242.8912 74.109823 
L 242.709364 74.330052 
L 242.531044 74.553138 
L 242.356287 74.779026 
L 242.185135 75.007657 
L 242.017633 75.238976 
L 241.853822 75.472922 
L 241.693743 75.709439 
L 241.537436 75.948465 
L 241.384942 76.189942 
L 241.236299 76.433807 
L 241.091543 76.68 
L 240.950711 76.928459 
L 240.813839 77.179121 
L 240.680962 77.431923 
L 240.552112 77.686801 
L 240.427322 77.943692 
L 240.306624 78.20253 
L 240.190048 78.46325 
L 240.077623 78.725788 
L 239.969377 78.990076 
L 239.865339 79.256048 
L 239.765533 79.523637 
L 239.669985 79.792777 
L 239.57872 80.063398 
L 239.49176 80.335433 
L 239.409126 80.608814 
L 239.330841 80.883471 
L 239.256923 81.159336 
L 239.187392 81.436339 
L 239.122264 81.71441 
L 239.061556 81.99348 
L 239.005283 82.273478 
L 238.95346 82.554333 
L 238.9061 82.835975 
L 238.863214 83.118333 
L 238.824813 83.401336 
L 238.790908 83.684912 
L 238.761505 83.968991 
L 238.736614 84.253501 
L 238.71624 84.538369 
L 238.700388 84.823526 
L 238.689062 85.108897 
L 238.682266 85.394413 
L 238.68 85.68 
L 238.68 85.68 
L 238.682266 85.965587 
L 238.689062 86.251103 
L 238.700388 86.536474 
L 238.71624 86.821631 
L 238.736614 87.106499 
L 238.761505 87.391009 
L 238.790908 87.675088 
L 238.824813 87.958664 
L 238.863214 88.241667 
L 238.9061 88.524025 
L 238.95346 88.805667 
L 239.005283 89.086522 
L 239.061556 89.36652 
L 239.122264 89.64559 
L 239.187392 89.923661 
L 239.256923 90.200664 
L 239.330841 90.476529 
L 239.409126 90.751186 
L 239.49176 91.024567 
L 239.57872 91.296602 
L 239.669985 91.567223 
L 239.765533 91.836363 
L 239.865339 92.103952 
L 239.969377 92.369924 
L 240.077623 92.634212 
L 240.190048 92.89675 
L 240.306624 93.15747 
L 240.427322 93.416308 
L 240.552112 93.673199 
L 240.680962 93.928077 
L 240.813839 94.180879 
L 240.950711 94.431541 
L 241.091543 94.68 
L 241.236299 94.926193 
L 241.384942 95.170058 
L 241.537436 95.411535 
L 241.693743 95.650561 
L 241.853822 95.887078 
L 242.017633 96.121024 
L 242.185135 96.352343 
L 242.356287 96.580974 
L 242.531044 96.806862 
L 242.709364 97.029948 
L 242.8912 97.250177 
L 243.076508 97.467493 
L 243.26524 97.681842 
L 243.457349 97.893169 
L 243.652787 98.101422 
L 243.851505 98.306548 
L 244.053452 98.508495 
L 244.258578 98.707213 
L 244.466831 98.902651 
L 244.678158 99.09476 
L 244.892507 99.283492 
L 245.109823 99.4688 
L 245.330052 99.650636 
L 245.553138 99.828956 
L 245.779026 100.003713 
L 246.007657 100.174865 
L 246.238976 100.342367 
L 246.472922 100.506178 
L 246.709439 100.666257 
L 246.948465 100.822564 
L 247.189942 100.975058 
L 247.433807 101.123701 
L 247.68 101.268457 
L 247.928459 101.409289 
L 248.179121 101.546161 
L 248.431923 101.679038 
L 248.686801 101.807888 
L 248.943692 101.932678 
L 249.20253 102.053376 
L 249.46325 102.169952 
L 249.725788 102.282377 
L 249.990076 102.390623 
L 250.256048 102.494661 
L 250.523637 102.594467 
L 250.792777 102.690015 
L 251.063398 102.78128 
L 251.335433 102.86824 
L 251.608814 102.950874 
L 251.883471 103.029159 
L 252.159336 103.103077 
L 252.436339 103.172608 
L 252.71441 103.237736 
L 252.99348 103.298444 
L 253.273478 103.354717 
L 253.554333 103.40654 
L 253.835975 103.4539 
L 254.118333 103.496786 
L 254.401336 103.535187 
L 254.684912 103.569092 
L 254.968991 103.598495 
L 255.253501 103.623386 
L 255.538369 103.64376 
L 255.823526 103.659612 
L 256.108897 103.670938 
L 256.394413 103.677734 
L 256.68 103.68 
L 292.68 103.68 
z
" clip-path="url(#p546fc7f21f)" style="fill: none; stroke: #000000; stroke-linecap: round"/>
   </g>
   <g id="patch_5">
    <path d="M 58.68 224.537143 
L 121.68 206.537143 
L 184.68 224.537143 
L 121.68 242.537143 
L 58.68 224.537143 
z
" clip-path="url(#p546fc7f21f)" style="fill: none; stroke: #000000; stroke-linecap: round"/>
   </g>
   <g id="patch_6">
    <path d="M 139.68 309.394286 
L 139.965587 309.39202 
L 140.251103 309.385223 
L 140.536474 309.373898 
L 140.821631 309.358046 
L 141.106499 309.337672 
L 141.391009 309.31278 
L 141.675088 309.283378 
L 141.958664 309.249472 
L 142.241667 309.211072 
L 142.524025 309.168186 
L 142.805667 309.120825 
L 143.086522 309.069002 
L 143.36652 309.01273 
L 143.64559 308.952022 
L 143.923661 308.886894 
L 144.200664 308.817362 
L 144.476529 308.743445 
L 144.751186 308.665159 
L 145.024567 308.582526 
L 145.296602 308.495566 
L 145.567223 308.4043 
L 145.836363 308.308753 
L 146.103952 308.208947 
L 146.369924 308.104909 
L 146.634212 307.996663 
L 146.89675 307.884238 
L 147.15747 307.767662 
L 147.416308 307.646963 
L 147.673199 307.522174 
L 147.928077 307.393324 
L 148.180879 307.260446 
L 148.431541 307.123575 
L 148.68 306.982743 
L 148.926193 306.837987 
L 149.170058 306.689343 
L 149.411535 306.536849 
L 149.650561 306.380543 
L 149.887078 306.220464 
L 150.121024 306.056653 
L 150.352343 305.88915 
L 150.580974 305.717999 
L 150.806862 305.543241 
L 151.029948 305.364922 
L 151.250177 305.183086 
L 151.467493 304.997778 
L 151.681842 304.809046 
L 151.893169 304.616936 
L 152.101422 304.421498 
L 152.306548 304.222781 
L 152.508495 304.020834 
L 152.707213 303.815708 
L 152.902651 303.607455 
L 153.09476 303.396128 
L 153.283492 303.181779 
L 153.4688 302.964463 
L 153.650636 302.744234 
L 153.828956 302.521147 
L 154.003713 302.29526 
L 154.174865 302.066628 
L 154.342367 301.83531 
L 154.506178 301.601363 
L 154.666257 301.364847 
L 154.822564 301.12582 
L 154.975058 300.884344 
L 155.123701 300.640479 
L 155.268457 300.394286 
L 155.409289 300.145827 
L 155.546161 299.895165 
L 155.679038 299.642363 
L 155.807888 299.387485 
L 155.932678 299.130594 
L 156.053376 298.871756 
L 156.169952 298.611035 
L 156.282377 298.348498 
L 156.390623 298.08421 
L 156.494661 297.818238 
L 156.594467 297.550648 
L 156.690015 297.281509 
L 156.78128 297.010888 
L 156.86824 296.738852 
L 156.950874 296.465472 
L 157.029159 296.190814 
L 157.103077 295.914949 
L 157.172608 295.637947 
L 157.237736 295.359875 
L 157.298444 295.080806 
L 157.354717 294.800808 
L 157.40654 294.519953 
L 157.4539 294.238311 
L 157.496786 293.955953 
L 157.535187 293.67295 
L 157.569092 293.389373 
L 157.598495 293.105294 
L 157.623386 292.820785 
L 157.64376 292.535916 
L 157.659612 292.25076 
L 157.670938 291.965389 
L 157.677734 291.679873 
L 157.68 291.394286 
L 157.68 291.394286 
L 157.677734 291.108698 
L 157.670938 290.823183 
L 157.659612 290.537811 
L 157.64376 290.252655 
L 157.623386 289.967786 
L 157.598495 289.683277 
L 157.569092 289.399198 
L 157.535187 289.115622 
L 157.496786 288.832619 
L 157.4539 288.550261 
L 157.40654 288.268619 
L 157.354717 287.987763 
L 157.298444 287.707766 
L 157.237736 287.428696 
L 157.172608 287.150625 
L 157.103077 286.873622 
L 157.029159 286.597757 
L 156.950874 286.3231 
L 156.86824 286.049719 
L 156.78128 285.777684 
L 156.690015 285.507062 
L 156.594467 285.237923 
L 156.494661 284.970334 
L 156.390623 284.704362 
L 156.282377 284.440073 
L 156.169952 284.177536 
L 156.053376 283.916815 
L 155.932678 283.657977 
L 155.807888 283.401087 
L 155.679038 283.146208 
L 155.546161 282.893406 
L 155.409289 282.642744 
L 155.268457 282.394286 
L 155.123701 282.148093 
L 154.975058 281.904227 
L 154.822564 281.662751 
L 154.666257 281.423725 
L 154.506178 281.187208 
L 154.342367 280.953261 
L 154.174865 280.721943 
L 154.003713 280.493311 
L 153.828956 280.267424 
L 153.650636 280.044338 
L 153.4688 279.824109 
L 153.283492 279.606793 
L 153.09476 279.392444 
L 152.902651 279.181116 
L 152.707213 278.972864 
L 152.508495 278.767738 
L 152.306548 278.565791 
L 152.101422 278.367073 
L 151.893169 278.171635 
L 151.681842 277.979526 
L 151.467493 277.790793 
L 151.250177 277.605486 
L 151.029948 277.423649 
L 150.806862 277.24533 
L 150.580974 277.070573 
L 150.352343 276.899421 
L 150.121024 276.731919 
L 149.887078 276.568107 
L 149.650561 276.408028 
L 149.411535 276.251722 
L 149.170058 276.099228 
L 148.926193 275.950584 
L 148.68 275.805828 
L 148.431541 275.664997 
L 148.180879 275.528125 
L 147.928077 275.395248 
L 147.673199 275.266398 
L 147.416308 275.141608 
L 147.15747 275.02091 
L 146.89675 274.904333 
L 146.634212 274.791908 
L 146.369924 274.683663 
L 146.103952 274.579624 
L 145.836363 274.479819 
L 145.567223 274.384271 
L 145.296602 274.293006 
L 145.024567 274.206045 
L 144.751186 274.123412 
L 144.476529 274.045127 
L 144.200664 273.971209 
L 143.923661 273.901677 
L 143.64559 273.83655 
L 143.36652 273.775842 
L 143.086522 273.719569 
L 142.805667 273.667746 
L 142.524025 273.620386 
L 142.241667 273.5775 
L 141.958664 273.539099 
L 141.675088 273.505193 
L 141.391009 273.475791 
L 141.106499 273.4509 
L 140.821631 273.430526 
L 140.536474 273.414674 
L 140.251103 273.403348 
L 139.965587 273.396551 
L 139.68 273.394286 
L 103.68 273.394286 
L 103.394413 273.396551 
L 103.108897 273.403348 
L 102.823526 273.414674 
L 102.538369 273.430526 
L 102.253501 273.4509 
L 101.968991 273.475791 
L 101.684912 273.505193 
L 101.401336 273.539099 
L 101.118333 273.5775 
L 100.835975 273.620386 
L 100.554333 273.667746 
L 100.273478 273.719569 
L 99.99348 273.775842 
L 99.71441 273.83655 
L 99.436339 273.901677 
L 99.159336 273.971209 
L 98.883471 274.045127 
L 98.608814 274.123412 
L 98.335433 274.206045 
L 98.063398 274.293006 
L 97.792777 274.384271 
L 97.523637 274.479819 
L 97.256048 274.579624 
L 96.990076 274.683663 
L 96.725788 274.791908 
L 96.46325 274.904333 
L 96.20253 275.02091 
L 95.943692 275.141608 
L 95.686801 275.266398 
L 95.431923 275.395248 
L 95.179121 275.528125 
L 94.928459 275.664997 
L 94.68 275.805828 
L 94.433807 275.950584 
L 94.189942 276.099228 
L 93.948465 276.251722 
L 93.709439 276.408028 
L 93.472922 276.568107 
L 93.238976 276.731919 
L 93.007657 276.899421 
L 92.779026 277.070573 
L 92.553138 277.24533 
L 92.330052 277.423649 
L 92.109823 277.605486 
L 91.892507 277.790793 
L 91.678158 277.979526 
L 91.466831 278.171635 
L 91.258578 278.367073 
L 91.053452 278.565791 
L 90.851505 278.767738 
L 90.652787 278.972864 
L 90.457349 279.181116 
L 90.26524 279.392444 
L 90.076508 279.606793 
L 89.8912 279.824109 
L 89.709364 280.044338 
L 89.531044 280.267424 
L 89.356287 280.493311 
L 89.185135 280.721943 
L 89.017633 280.953261 
L 88.853822 281.187208 
L 88.693743 281.423725 
L 88.537436 281.662751 
L 88.384942 281.904227 
L 88.236299 282.148093 
L 88.091543 282.394286 
L 87.950711 282.642744 
L 87.813839 282.893406 
L 87.680962 283.146208 
L 87.552112 283.401087 
L 87.427322 283.657977 
L 87.306624 283.916815 
L 87.190048 284.177536 
L 87.077623 284.440073 
L 86.969377 284.704362 
L 86.865339 284.970334 
L 86.765533 285.237923 
L 86.669985 285.507062 
L 86.57872 285.777684 
L 86.49176 286.049719 
L 86.409126 286.3231 
L 86.330841 286.597757 
L 86.256923 286.873622 
L 86.187392 287.150625 
L 86.122264 287.428696 
L 86.061556 287.707766 
L 86.005283 287.987763 
L 85.95346 288.268619 
L 85.9061 288.550261 
L 85.863214 288.832619 
L 85.824813 289.115622 
L 85.790908 289.399198 
L 85.761505 289.683277 
L 85.736614 289.967786 
L 85.71624 290.252655 
L 85.700388 290.537811 
L 85.689062 290.823183 
L 85.682266 291.108698 
L 85.68 291.394286 
L 85.68 291.394286 
L 85.682266 291.679873 
L 85.689062 291.965389 
L 85.700388 292.25076 
L 85.71624 292.535916 
L 85.736614 292.820785 
L 85.761505 293.105294 
L 85.790908 293.389373 
L 85.824813 293.67295 
L 85.863214 293.955953 
L 85.9061 294.238311 
L 85.95346 294.519953 
L 86.005283 294.800808 
L 86.061556 295.080806 
L 86.122264 295.359875 
L 86.187392 295.637947 
L 86.256923 295.914949 
L 86.330841 296.190814 
L 86.409126 296.465472 
L 86.49176 296.738852 
L 86.57872 297.010888 
L 86.669985 297.281509 
L 86.765533 297.550648 
L 86.865339 297.818238 
L 86.969377 298.08421 
L 87.077623 298.348498 
L 87.190048 298.611035 
L 87.306624 298.871756 
L 87.427322 299.130594 
L 87.552112 299.387485 
L 87.680962 299.642363 
L 87.813839 299.895165 
L 87.950711 300.145827 
L 88.091543 300.394286 
L 88.236299 300.640479 
L 88.384942 300.884344 
L 88.537436 301.12582 
L 88.693743 301.364847 
L 88.853822 301.601363 
L 89.017633 301.83531 
L 89.185135 302.066628 
L 89.356287 302.29526 
L 89.531044 302.521147 
L 89.709364 302.744234 
L 89.8912 302.964463 
L 90.076508 303.181779 
L 90.26524 303.396128 
L 90.457349 303.607455 
L 90.652787 303.815708 
L 90.851505 304.020834 
L 91.053452 304.222781 
L 91.258578 304.421498 
L 91.466831 304.616936 
L 91.678158 304.809046 
L 91.892507 304.997778 
L 92.109823 305.183086 
L 92.330052 305.364922 
L 92.553138 305.543241 
L 92.779026 305.717999 
L 93.007657 305.88915 
L 93.238976 306.056653 
L 93.472922 306.220464 
L 93.709439 306.380543 
L 93.948465 306.536849 
L 94.189942 306.689343 
L 94.433807 306.837987 
L 94.68 306.982743 
L 94.928459 307.123575 
L 95.179121 307.260446 
L 95.431923 307.393324 
L 95.686801 307.522174 
L 95.943692 307.646963 
L 96.20253 307.767662 
L 96.46325 307.884238 
L 96.725788 307.996663 
L 96.990076 308.104909 
L 97.256048 308.208947 
L 97.523637 308.308753 
L 97.792777 308.4043 
L 98.063398 308.495566 
L 98.335433 308.582526 
L 98.608814 308.665159 
L 98.883471 308.743445 
L 99.159336 308.817362 
L 99.436339 308.886894 
L 99.71441 308.952022 
L 99.99348 309.01273 
L 100.273478 309.069002 
L 100.554333 309.120825 
L 100.835975 309.168186 
L 101.118333 309.211072 
L 101.401336 309.249472 
L 101.684912 309.283378 
L 101.968991 309.31278 
L 102.253501 309.337672 
L 102.538369 309.358046 
L 102.823526 309.373898 
L 103.108897 309.385223 
L 103.394413 309.39202 
L 103.68 309.394286 
L 139.68 309.394286 
z
" clip-path="url(#p546fc7f21f)" style="fill: none; stroke: #000000; stroke-linecap: round"/>
   </g>
   <g id="line2d_1">
    <path d="M 121.68 40.68 
L 121.68 54.18 
L 121.68 58.68 
" clip-path="url(#p546fc7f21f)" style="fill: none; stroke: #000000; stroke-linecap: round"/>
   </g>
   <g id="patch_7">
    <path d="M 124.38 58.68 
L 121.68 67.68 
L 118.98 58.68 
z
" clip-path="url(#p546fc7f21f)"/>
   </g>
   <g id="line2d_2">
    <path d="M 184.68 85.68 
L 211.68 85.68 
L 229.68 85.68 
" clip-path="url(#p546fc7f21f)" style="fill: none; stroke-dasharray: 3.7,1.6; stroke-dashoffset: 0; stroke: #000000"/>
   </g>
   <g id="patch_8">
    <path d="M 229.68 82.98 
L 238.68 85.68 
L 229.68 88.38 
z
" clip-path="url(#p546fc7f21f)"/>
   </g>
   <g id="line2d_3">
    <path d="M 121.68 103.68 
L 121.68 121.68 
L 121.68 130.68 
" clip-path="url(#p546fc7f21f)" style="fill: none; stroke: #000000; stroke-linecap: round"/>
   </g>
   <g id="patch_9">
    <path d="M 124.38 130.68 
L 121.68 139.68 
L 118.98 130.68 
z
" clip-path="url(#p546fc7f21f)"/>
   </g>
   <g id="line2d_4">
    <path d="M 85.68 157.68 
L 85.68 139.68 
L 157.68 139.68 
L 157.68 175.68 
L 85.68 175.68 
L 85.68 157.68 
" clip-path="url(#p546fc7f21f)" style="fill: none; stroke: #000000; stroke-linecap: round"/>
   </g>
   <g id="line2d_5">
    <path d="M 121.68 175.68 
L 121.68 191.108571 
L 121.68 197.537143 
" clip-path="url(#p546fc7f21f)" style="fill: none; stroke: #000000; stroke-linecap: round"/>
   </g>
   <g id="patch_10">
    <path d="M 124.38 197.537143 
L 121.68 206.537143 
L 118.98 197.537143 
z
" clip-path="url(#p546fc7f21f)"/>
   </g>
   <g id="line2d_6">
    <path d="M 121.68 242.537143 
L 121.68 257.965714 
L 121.68 264.394286 
" clip-path="url(#p546fc7f21f)" style="fill: none; stroke: #000000; stroke-linecap: round"/>
   </g>
   <g id="patch_11">
    <path d="M 124.38 264.394286 
L 121.68 273.394286 
L 118.98 264.394286 
z
" clip-path="url(#p546fc7f21f)"/>
   </g>
   <g id="line2d_7">
    <path d="M 58.68 224.537143 
L 4.68 224.537143 
L 4.68 85.68 
L 49.68 85.68 
" clip-path="url(#p546fc7f21f)" style="fill: none; stroke: #000000; stroke-linecap: round"/>
   </g>
   <g id="patch_12">
    <path d="M 49.68 82.98 
L 58.68 85.68 
L 49.68 88.38 
z
" clip-path="url(#p546fc7f21f)"/>
   </g>
   <g id="text_1">
    <!-- START -->
    <g transform="translate(100.202031 26.593437) scale(0.14 -0.14)">
     <defs>
      <path id="IPAexGothic-53" d="M 2919 3641 
Q 2563 4259 1853 4259 
Q 1453 4259 1213 4009 
Q 1028 3803 1028 3534 
Q 1028 3238 1266 3047 
Q 1444 2913 1984 2688 
L 2200 2597 
Q 2925 2306 3191 1953 
Q 3422 1644 3422 1259 
Q 3422 644 2969 288 
Q 2559 -31 1931 -31 
Q 881 -31 313 766 
L 753 1100 
Q 1203 459 1938 459 
Q 2288 459 2534 625 
Q 2841 847 2841 1216 
Q 2841 1503 2616 1728 
Q 2375 1959 1728 2206 
L 1541 2278 
Q 453 2694 453 3481 
Q 453 4006 806 4347 
Q 1203 4725 1863 4725 
Q 2841 4725 3359 3956 
L 2919 3641 
z
" transform="scale(0.015625)"/>
      <path id="IPAexGothic-54" d="M 3866 4141 
L 2175 4141 
L 2175 63 
L 1606 63 
L 1606 4141 
L -31 4141 
L -31 4634 
L 3866 4634 
L 3866 4141 
z
" transform="scale(0.015625)"/>
      <path id="IPAexGothic-41" d="M 4056 63 
L 3444 63 
L 2938 1409 
L 1100 1409 
L 603 63 
L -6 63 
L 1806 4666 
L 2259 4666 
L 4056 63 
z
M 2778 1863 
L 2316 3078 
Q 2125 3588 2028 4000 
L 2009 4000 
Q 1897 3563 1716 3078 
L 1263 1863 
L 2778 1863 
z
" transform="scale(0.015625)"/>
      <path id="IPAexGothic-52" d="M 4072 63 
L 3394 63 
Q 3138 641 2828 1197 
Q 2584 1641 2344 1825 
Q 2050 2044 1625 2044 
L 1172 2044 
L 1172 63 
L 609 63 
L 609 4634 
L 2009 4634 
Q 2713 4634 3131 4378 
Q 3688 4044 3688 3381 
Q 3688 2784 3181 2459 
Q 2906 2272 2522 2216 
L 2522 2197 
Q 2941 2050 3247 1581 
Q 3516 1166 4072 63 
z
M 1172 2478 
L 1869 2478 
Q 3106 2478 3106 3369 
Q 3106 4181 1928 4181 
L 1172 4181 
L 1172 2478 
z
" transform="scale(0.015625)"/>
     </defs>
     <use xlink:href="#IPAexGothic-53"/>
     <use xlink:href="#IPAexGothic-54" transform="translate(58.496094 0)"/>
     <use xlink:href="#IPAexGothic-41" transform="translate(118.408203 0)"/>
     <use xlink:href="#IPAexGothic-52" transform="translate(182.128906 0)"/>
     <use xlink:href="#IPAexGothic-54" transform="translate(246.923828 0)"/>
    </g>
   </g>
   <g id="text_2">
    <!-- True -->
    <g transform="translate(126.36 118.846875) scale(0.14 -0.14)">
     <defs>
      <path id="IPAexGothic-72" d="M 2309 3316 
L 2213 2769 
Q 2106 2791 2022 2791 
Q 1653 2791 1413 2444 
Q 1113 2006 1113 1675 
L 1113 63 
L 563 63 
L 563 3250 
L 1081 3250 
L 1056 2303 
L 1069 2303 
Q 1422 3341 2097 3341 
Q 2206 3341 2309 3316 
z
" transform="scale(0.015625)"/>
      <path id="IPAexGothic-75" d="M 3284 63 
L 2772 63 
L 2772 644 
Q 2300 0 1625 0 
Q 1072 0 763 375 
Q 519 678 519 1241 
L 519 3250 
L 1069 3250 
L 1069 1259 
Q 1069 466 1734 466 
Q 2406 466 2734 1291 
L 2734 3250 
L 3284 3250 
L 3284 63 
z
" transform="scale(0.015625)"/>
      <path id="IPAexGothic-65" d="M 863 1594 
Q 891 1041 1209 722 
Q 1534 397 1997 397 
Q 2606 397 2963 966 
L 3322 728 
Q 2869 -31 1931 -31 
Q 1222 -31 766 422 
Q 306 884 306 1641 
Q 306 2444 788 2925 
Q 1216 3353 1856 3353 
Q 2459 3353 2866 2956 
Q 3322 2494 3322 1722 
L 3322 1594 
L 863 1594 
z
M 2756 1997 
Q 2709 2431 2450 2681 
Q 2194 2938 1844 2938 
Q 1438 2938 1150 2591 
Q 953 2356 894 1997 
L 2756 1997 
z
" transform="scale(0.015625)"/>
     </defs>
     <use xlink:href="#IPAexGothic-54"/>
     <use xlink:href="#IPAexGothic-72" transform="translate(59.912109 0)"/>
     <use xlink:href="#IPAexGothic-75" transform="translate(96.923828 0)"/>
     <use xlink:href="#IPAexGothic-65" transform="translate(157.324219 0)"/>
    </g>
   </g>
   <g id="text_3">
    <!-- False -->
    <g transform="translate(189.36 78.34) scale(0.14 -0.14)">
     <defs>
      <path id="IPAexGothic-46" d="M 3469 4141 
L 1172 4141 
L 1172 2656 
L 3206 2656 
L 3206 2188 
L 1172 2188 
L 1172 63 
L 609 63 
L 609 4634 
L 3469 4634 
L 3469 4141 
z
" transform="scale(0.015625)"/>
      <path id="IPAexGothic-61" d="M 3156 63 
L 2672 63 
Q 2559 303 2531 556 
L 2509 556 
Q 2147 -25 1428 -25 
Q 934 -25 622 288 
Q 347 563 347 959 
Q 347 1947 2050 1997 
L 2478 2009 
L 2478 2175 
Q 2478 2509 2288 2700 
Q 2088 2900 1775 2900 
Q 1238 2900 969 2378 
L 494 2597 
Q 938 3328 1788 3328 
Q 2375 3328 2691 3000 
Q 2984 2706 2984 2169 
L 2984 997 
Q 2984 400 3156 63 
z
M 2491 1625 
L 2141 1619 
Q 903 1591 903 953 
Q 903 728 1050 581 
Q 1231 403 1525 403 
Q 1934 403 2234 703 
Q 2491 969 2491 1344 
L 2491 1625 
z
" transform="scale(0.015625)"/>
      <path id="IPAexGothic-6c" d="M 1131 63 
L 581 63 
L 581 4794 
L 1131 4794 
L 1131 63 
z
" transform="scale(0.015625)"/>
      <path id="IPAexGothic-73" d="M 2234 2547 
Q 1938 2931 1484 2931 
Q 891 2931 891 2475 
Q 891 2153 1531 1944 
L 1741 1875 
Q 2650 1578 2650 894 
Q 2650 434 2272 172 
Q 1972 -31 1497 -31 
Q 766 -31 256 503 
L 603 819 
Q 997 397 1516 397 
Q 2131 397 2131 875 
Q 2131 1238 1453 1478 
L 1234 1553 
Q 378 1853 378 2431 
Q 378 2797 628 3047 
Q 928 3347 1453 3347 
Q 2156 3347 2606 2859 
L 2234 2547 
z
" transform="scale(0.015625)"/>
     </defs>
     <use xlink:href="#IPAexGothic-46"/>
     <use xlink:href="#IPAexGothic-61" transform="translate(57.177734 0)"/>
     <use xlink:href="#IPAexGothic-6c" transform="translate(112.158203 0)"/>
     <use xlink:href="#IPAexGothic-73" transform="translate(139.160156 0)"/>
     <use xlink:href="#IPAexGothic-65" transform="translate(185.351562 0)"/>
    </g>
   </g>
   <g id="text_4">
    <!-- True ？ -->
    <g transform="translate(97.794688 89.593437) scale(0.14 -0.14)">
     <defs>
      <path id="IPAexGothic-20" transform="scale(0.015625)"/>
      <path id="IPAexGothic-ff1f" d="M 1503 3444 
Q 1550 4184 1963 4616 
Q 2466 5128 3272 5128 
Q 3888 5128 4313 4853 
Q 4909 4469 4909 3778 
Q 4909 3059 4116 2563 
Q 3628 2250 3506 1881 
Q 3422 1650 3422 1228 
L 2853 1228 
Q 2863 1869 3053 2197 
Q 3281 2588 3847 2950 
Q 4341 3269 4341 3778 
Q 4341 4231 3975 4463 
Q 3697 4634 3266 4634 
Q 2656 4634 2341 4225 
Q 2109 3928 2091 3444 
L 1503 3444 
z
M 2763 647 
L 3506 647 
L 3506 -97 
L 2763 -97 
L 2763 647 
z
" transform="scale(0.015625)"/>
     </defs>
     <use xlink:href="#IPAexGothic-54"/>
     <use xlink:href="#IPAexGothic-72" transform="translate(59.912109 0)"/>
     <use xlink:href="#IPAexGothic-75" transform="translate(96.923828 0)"/>
     <use xlink:href="#IPAexGothic-65" transform="translate(157.324219 0)"/>
     <use xlink:href="#IPAexGothic-20" transform="translate(214.208984 0)"/>
     <use xlink:href="#IPAexGothic-ff1f" transform="translate(241.210938 0)"/>
    </g>
   </g>
   <g id="text_5">
    <!-- END -->
    <g transform="translate(259.896875 89.593437) scale(0.14 -0.14)">
     <defs>
      <path id="IPAexGothic-45" d="M 3547 63 
L 609 63 
L 609 4634 
L 3469 4634 
L 3469 4147 
L 1166 4147 
L 1166 2650 
L 3206 2650 
L 3206 2191 
L 1166 2191 
L 1166 556 
L 3547 556 
L 3547 63 
z
" transform="scale(0.015625)"/>
      <path id="IPAexGothic-4e" d="M 4244 63 
L 3731 63 
L 1697 3150 
Q 1466 3500 1141 4097 
L 1116 4097 
L 1128 3797 
Q 1159 2803 1159 2469 
L 1159 63 
L 609 63 
L 609 4634 
L 1366 4634 
L 3113 1978 
Q 3453 1447 3713 966 
L 3738 966 
Q 3694 1897 3694 2469 
L 3694 4634 
L 4244 4634 
L 4244 63 
z
" transform="scale(0.015625)"/>
      <path id="IPAexGothic-44" d="M 609 4634 
L 1984 4634 
Q 3159 4634 3791 4050 
Q 4456 3444 4456 2356 
Q 4456 1047 3516 441 
Q 2925 63 1941 63 
L 609 63 
L 609 4634 
z
M 1172 556 
L 1894 556 
Q 3853 556 3853 2356 
Q 3853 4147 1928 4147 
L 1172 4147 
L 1172 556 
z
" transform="scale(0.015625)"/>
     </defs>
     <use xlink:href="#IPAexGothic-45"/>
     <use xlink:href="#IPAexGothic-4e" transform="translate(59.521484 0)"/>
     <use xlink:href="#IPAexGothic-44" transform="translate(135.498047 0)"/>
    </g>
   </g>
   <g id="text_6">
    <!-- 実行コード -->
    <g transform="translate(86.68 161.593437) scale(0.14 -0.14)">
     <defs>
      <path id="IPAexGothic-5b9f" d="M 3525 1275 
Q 4288 350 6022 91 
L 5738 -375 
Q 3953 -41 3219 1050 
Q 2731 -144 728 -472 
L 466 -44 
Q 2422 150 2872 1275 
L 384 1275 
L 384 1659 
L 2950 1659 
L 2950 2144 
L 966 2144 
L 966 2509 
L 2950 2509 
L 2950 2969 
L 1266 2969 
L 1266 3341 
L 2950 3341 
L 2950 3988 
L 3403 3988 
L 3403 3341 
L 5125 3341 
L 5125 2969 
L 3403 2969 
L 3403 2509 
L 5444 2509 
L 5444 2144 
L 3403 2144 
L 3403 1659 
L 6016 1659 
L 6016 1275 
L 3525 1275 
z
M 3413 4544 
L 5778 4544 
L 5778 3269 
L 5309 3269 
L 5309 4147 
L 1084 4147 
L 1084 3269 
L 616 3269 
L 616 4544 
L 2938 4544 
L 2938 5313 
L 3413 5313 
L 3413 4544 
z
" transform="scale(0.015625)"/>
      <path id="IPAexGothic-884c" d="M 1822 2753 
L 1822 -447 
L 1353 -447 
L 1353 2169 
Q 966 1744 622 1466 
L 316 1791 
Q 1294 2559 1969 3822 
L 2397 3634 
Q 2109 3138 1822 2753 
z
M 4975 2803 
L 4975 103 
Q 4975 -391 4369 -391 
Q 3925 -391 3356 -341 
L 3288 159 
Q 3775 78 4259 78 
Q 4516 78 4516 319 
L 4516 2803 
L 2384 2803 
L 2384 3225 
L 6013 3225 
L 6013 2803 
L 4975 2803 
z
M 384 3691 
Q 1231 4256 1756 5075 
L 2144 4850 
Q 1541 3947 666 3347 
L 384 3691 
z
M 2709 4794 
L 5659 4794 
L 5659 4378 
L 2709 4378 
L 2709 4794 
z
" transform="scale(0.015625)"/>
      <path id="IPAexGothic-30b3" d="M 1134 4213 
L 5166 4213 
L 5166 153 
L 4653 153 
L 4653 594 
L 1063 594 
L 1063 1088 
L 4653 1088 
L 4653 3725 
L 1134 3725 
L 1134 4213 
z
" transform="scale(0.015625)"/>
      <path id="IPAexGothic-30fc" d="M 588 2688 
L 5809 2688 
L 5809 2175 
L 588 2175 
L 588 2688 
z
" transform="scale(0.015625)"/>
      <path id="IPAexGothic-30c9" d="M 2247 4959 
L 2766 4959 
L 2766 3169 
Q 4050 2581 5178 1850 
L 4841 1331 
Q 3781 2138 2766 2650 
L 2766 -225 
L 2247 -225 
L 2247 4959 
z
M 5263 3847 
Q 4900 4388 4506 4716 
L 4806 4947 
Q 5191 4638 5581 4122 
L 5263 3847 
z
M 4666 3378 
Q 4375 3869 3931 4269 
L 4244 4513 
Q 4616 4206 5000 3653 
L 4666 3378 
z
" transform="scale(0.015625)"/>
     </defs>
     <use xlink:href="#IPAexGothic-5b9f"/>
     <use xlink:href="#IPAexGothic-884c" transform="translate(100 0)"/>
     <use xlink:href="#IPAexGothic-30b3" transform="translate(200 0)"/>
     <use xlink:href="#IPAexGothic-30fc" transform="translate(300 0)"/>
     <use xlink:href="#IPAexGothic-30c9" transform="translate(400 0)"/>
    </g>
   </g>
   <g id="text_7">
    <!-- True -->
    <g transform="translate(126.36 257.704018) scale(0.14 -0.14)">
     <use xlink:href="#IPAexGothic-54"/>
     <use xlink:href="#IPAexGothic-72" transform="translate(59.912109 0)"/>
     <use xlink:href="#IPAexGothic-75" transform="translate(96.923828 0)"/>
     <use xlink:href="#IPAexGothic-65" transform="translate(157.324219 0)"/>
    </g>
   </g>
   <g id="text_8">
    <!-- False -->
    <g transform="translate(20.087187 217.197143) scale(0.14 -0.14)">
     <use xlink:href="#IPAexGothic-46"/>
     <use xlink:href="#IPAexGothic-61" transform="translate(57.177734 0)"/>
     <use xlink:href="#IPAexGothic-6c" transform="translate(112.158203 0)"/>
     <use xlink:href="#IPAexGothic-73" transform="translate(139.160156 0)"/>
     <use xlink:href="#IPAexGothic-65" transform="translate(185.351562 0)"/>
    </g>
   </g>
   <g id="text_9">
    <!-- 条件 ？ -->
    <g transform="translate(98.79 228.45058) scale(0.14 -0.14)">
     <defs>
      <path id="IPAexGothic-6761" d="M 3406 1475 
L 3406 -447 
L 2953 -447 
L 2953 1422 
Q 2147 306 641 -331 
L 334 59 
Q 1738 569 2563 1538 
L 488 1538 
L 488 1941 
L 2953 1941 
L 2953 2691 
L 3406 2691 
L 3406 1941 
L 5928 1941 
L 5928 1538 
L 3847 1538 
Q 4597 769 6063 238 
L 5759 -203 
Q 4256 400 3406 1475 
z
M 3738 3419 
Q 4619 2991 5959 2772 
L 5684 2356 
Q 4216 2631 3353 3150 
Q 2350 2494 813 2175 
L 531 2566 
Q 2063 2825 2997 3391 
Q 2494 3763 2163 4219 
Q 1694 3747 1038 3359 
L 725 3688 
Q 1897 4319 2466 5306 
L 2900 5203 
Q 2784 5003 2713 4903 
L 4641 4903 
L 4872 4691 
Q 4384 3938 3738 3419 
z
M 3353 3634 
Q 3919 4075 4219 4531 
L 2438 4531 
L 2425 4513 
Q 2838 3956 3353 3634 
z
" transform="scale(0.015625)"/>
      <path id="IPAexGothic-4ef6" d="M 3903 3425 
L 2906 3425 
Q 2697 2825 2309 2247 
L 1991 2572 
Q 2588 3497 2803 4788 
L 3256 4713 
Q 3175 4313 3041 3834 
L 3903 3834 
L 3903 5250 
L 4356 5250 
L 4356 3834 
L 5731 3834 
L 5731 3425 
L 4356 3425 
L 4356 2009 
L 6041 2009 
L 6041 1594 
L 4356 1594 
L 4356 -447 
L 3903 -447 
L 3903 1594 
L 2078 1594 
L 2078 2009 
L 3903 2009 
L 3903 3425 
z
M 1638 3681 
L 1638 -447 
L 1169 -447 
L 1169 2753 
Q 881 2272 575 1863 
L 313 2253 
Q 1238 3463 1650 5184 
L 2125 5069 
Q 1909 4316 1638 3681 
z
" transform="scale(0.015625)"/>
     </defs>
     <use xlink:href="#IPAexGothic-6761"/>
     <use xlink:href="#IPAexGothic-4ef6" transform="translate(100 0)"/>
     <use xlink:href="#IPAexGothic-20" transform="translate(200 0)"/>
     <use xlink:href="#IPAexGothic-ff1f" transform="translate(227.001953 0)"/>
    </g>
   </g>
   <g id="text_10">
    <!-- END -->
    <g transform="translate(106.896875 295.307723) scale(0.14 -0.14)">
     <use xlink:href="#IPAexGothic-45"/>
     <use xlink:href="#IPAexGothic-4e" transform="translate(59.521484 0)"/>
     <use xlink:href="#IPAexGothic-44" transform="translate(135.498047 0)"/>
    </g>
   </g>
  </g>
 </g>
 <defs>
  <clipPath id="p546fc7f21f">
   <rect x="0" y="0" width="315.36" height="314.074286"/>
  </clipPath>
 </defs>
</svg>