<?xml version="1.0" encoding="utf-8" standalone="no"?>
<!DOCTYPE svg PUBLIC "-//W3C//DTD SVG 1.1//EN"
  "http://www.w3.org/Graphics/SVG/1.1/DTD/svg11.dtd">
<svg xmlns:xlink="http://www.w3.org/1999/xlink" width="362.16pt" height="317.16pt" viewBox="0 0 362.16 317.16" xmlns="http://www.w3.org/2000/svg" version="1.1">
 <metadata>
  <rdf:RDF xmlns:dc="http://purl.org/dc/elements/1.1/" xmlns:cc="http://creativecommons.org/ns#" xmlns:rdf="http://www.w3.org/1999/02/22-rdf-syntax-ns#">
   <cc:Work>
    <dc:type rdf:resource="http://purl.org/dc/dcmitype/StillImage"/>
    <dc:date>2024-06-14T01:39:00.483389</dc:date>
    <dc:format>image/svg+xml</dc:format>
    <dc:creator>
     <cc:Agent>
      <dc:title>Matplotlib v3.9.0, https://matplotlib.org/</dc:title>
     </cc:Agent>
    </dc:creator>
   </cc:Work>
  </rdf:RDF>
 </metadata>
 <defs>
  <style type="text/css">*{stroke-linejoin: round; stroke-linecap: butt}</style>
 </defs>
 <g id="figure_1">
  <g id="patch_1">
   <path d="M 0 317.16 
L 362.16 317.16 
L 362.16 0 
L 0 0 
z
" style="fill: #ffffff"/>
  </g>
  <g id="axes_1">
   <g id="patch_2">
    <path d="M 98.28 40.68 
L 98.565587 40.677734 
L 98.851103 40.670938 
L 99.136474 40.659612 
L 99.421631 40.64376 
L 99.706499 40.623386 
L 99.991009 40.598495 
L 100.275088 40.569092 
L 100.558664 40.535187 
L 100.841667 40.496786 
L 101.124025 40.4539 
L 101.405667 40.40654 
L 101.686522 40.354717 
L 101.96652 40.298444 
L 102.24559 40.237736 
L 102.523661 40.172608 
L 102.800664 40.103077 
L 103.076529 40.029159 
L 103.351186 39.950874 
L 103.624567 39.86824 
L 103.896602 39.78128 
L 104.167223 39.690015 
L 104.436363 39.594467 
L 104.703952 39.494661 
L 104.969924 39.390623 
L 105.234212 39.282377 
L 105.49675 39.169952 
L 105.75747 39.053376 
L 106.016308 38.932678 
L 106.273199 38.807888 
L 106.528077 38.679038 
L 106.780879 38.546161 
L 107.031541 38.409289 
L 107.28 38.268457 
L 107.526193 38.123701 
L 107.770058 37.975058 
L 108.011535 37.822564 
L 108.250561 37.666257 
L 108.487078 37.506178 
L 108.721024 37.342367 
L 108.952343 37.174865 
L 109.180974 37.003713 
L 109.406862 36.828956 
L 109.629948 36.650636 
L 109.850177 36.4688 
L 110.067493 36.283492 
L 110.281842 36.09476 
L 110.493169 35.902651 
L 110.701422 35.707213 
L 110.906548 35.508495 
L 111.108495 35.306548 
L 111.307213 35.101422 
L 111.502651 34.893169 
L 111.69476 34.681842 
L 111.883492 34.467493 
L 112.0688 34.250177 
L 112.250636 34.029948 
L 112.428956 33.806862 
L 112.603713 33.580974 
L 112.774865 33.352343 
L 112.942367 33.121024 
L 113.106178 32.887078 
L 113.266257 32.650561 
L 113.422564 32.411535 
L 113.575058 32.170058 
L 113.723701 31.926193 
L 113.868457 31.68 
L 114.009289 31.431541 
L 114.146161 31.180879 
L 114.279038 30.928077 
L 114.407888 30.673199 
L 114.532678 30.416308 
L 114.653376 30.15747 
L 114.769952 29.89675 
L 114.882377 29.634212 
L 114.990623 29.369924 
L 115.094661 29.103952 
L 115.194467 28.836363 
L 115.290015 28.567223 
L 115.38128 28.296602 
L 115.46824 28.024567 
L 115.550874 27.751186 
L 115.629159 27.476529 
L 115.703077 27.200664 
L 115.772608 26.923661 
L 115.837736 26.64559 
L 115.898444 26.36652 
L 115.954717 26.086522 
L 116.00654 25.805667 
L 116.0539 25.524025 
L 116.096786 25.241667 
L 116.135187 24.958664 
L 116.169092 24.675088 
L 116.198495 24.391009 
L 116.223386 24.106499 
L 116.24376 23.821631 
L 116.259612 23.536474 
L 116.270938 23.251103 
L 116.277734 22.965587 
L 116.28 22.68 
L 116.28 22.68 
L 116.277734 22.394413 
L 116.270938 22.108897 
L 116.259612 21.823526 
L 116.24376 21.538369 
L 116.223386 21.253501 
L 116.198495 20.968991 
L 116.169092 20.684912 
L 116.135187 20.401336 
L 116.096786 20.118333 
L 116.0539 19.835975 
L 116.00654 19.554333 
L 115.954717 19.273478 
L 115.898444 18.99348 
L 115.837736 18.71441 
L 115.772608 18.436339 
L 115.703077 18.159336 
L 115.629159 17.883471 
L 115.550874 17.608814 
L 115.46824 17.335433 
L 115.38128 17.063398 
L 115.290015 16.792777 
L 115.194467 16.523637 
L 115.094661 16.256048 
L 114.990623 15.990076 
L 114.882377 15.725788 
L 114.769952 15.46325 
L 114.653376 15.20253 
L 114.532678 14.943692 
L 114.407888 14.686801 
L 114.279038 14.431923 
L 114.146161 14.179121 
L 114.009289 13.928459 
L 113.868457 13.68 
L 113.723701 13.433807 
L 113.575058 13.189942 
L 113.422564 12.948465 
L 113.266257 12.709439 
L 113.106178 12.472922 
L 112.942367 12.238976 
L 112.774865 12.007657 
L 112.603713 11.779026 
L 112.428956 11.553138 
L 112.250636 11.330052 
L 112.0688 11.109823 
L 111.883492 10.892507 
L 111.69476 10.678158 
L 111.502651 10.466831 
L 111.307213 10.258578 
L 111.108495 10.053452 
L 110.906548 9.851505 
L 110.701422 9.652787 
L 110.493169 9.457349 
L 110.281842 9.26524 
L 110.067493 9.076508 
L 109.850177 8.8912 
L 109.629948 8.709364 
L 109.406862 8.531044 
L 109.180974 8.356287 
L 108.952343 8.185135 
L 108.721024 8.017633 
L 108.487078 7.853822 
L 108.250561 7.693743 
L 108.011535 7.537436 
L 107.770058 7.384942 
L 107.526193 7.236299 
L 107.28 7.091543 
L 107.031541 6.950711 
L 106.780879 6.813839 
L 106.528077 6.680962 
L 106.273199 6.552112 
L 106.016308 6.427322 
L 105.75747 6.306624 
L 105.49675 6.190048 
L 105.234212 6.077623 
L 104.969924 5.969377 
L 104.703952 5.865339 
L 104.436363 5.765533 
L 104.167223 5.669985 
L 103.896602 5.57872 
L 103.624567 5.49176 
L 103.351186 5.409126 
L 103.076529 5.330841 
L 102.800664 5.256923 
L 102.523661 5.187392 
L 102.24559 5.122264 
L 101.96652 5.061556 
L 101.686522 5.005283 
L 101.405667 4.95346 
L 101.124025 4.9061 
L 100.841667 4.863214 
L 100.558664 4.824813 
L 100.275088 4.790908 
L 99.991009 4.761505 
L 99.706499 4.736614 
L 99.421631 4.71624 
L 99.136474 4.700388 
L 98.851103 4.689062 
L 98.565587 4.682266 
L 98.28 4.68 
L 62.28 4.68 
L 61.994413 4.682266 
L 61.708897 4.689062 
L 61.423526 4.700388 
L 61.138369 4.71624 
L 60.853501 4.736614 
L 60.568991 4.761505 
L 60.284912 4.790908 
L 60.001336 4.824813 
L 59.718333 4.863214 
L 59.435975 4.9061 
L 59.154333 4.95346 
L 58.873478 5.005283 
L 58.59348 5.061556 
L 58.31441 5.122264 
L 58.036339 5.187392 
L 57.759336 5.256923 
L 57.483471 5.330841 
L 57.208814 5.409126 
L 56.935433 5.49176 
L 56.663398 5.57872 
L 56.392777 5.669985 
L 56.123637 5.765533 
L 55.856048 5.865339 
L 55.590076 5.969377 
L 55.325788 6.077623 
L 55.06325 6.190048 
L 54.80253 6.306624 
L 54.543692 6.427322 
L 54.286801 6.552112 
L 54.031923 6.680962 
L 53.779121 6.813839 
L 53.528459 6.950711 
L 53.28 7.091543 
L 53.033807 7.236299 
L 52.789942 7.384942 
L 52.548465 7.537436 
L 52.309439 7.693743 
L 52.072922 7.853822 
L 51.838976 8.017633 
L 51.607657 8.185135 
L 51.379026 8.356287 
L 51.153138 8.531044 
L 50.930052 8.709364 
L 50.709823 8.8912 
L 50.492507 9.076508 
L 50.278158 9.26524 
L 50.066831 9.457349 
L 49.858578 9.652787 
L 49.653452 9.851505 
L 49.451505 10.053452 
L 49.252787 10.258578 
L 49.057349 10.466831 
L 48.86524 10.678158 
L 48.676508 10.892507 
L 48.4912 11.109823 
L 48.309364 11.330052 
L 48.131044 11.553138 
L 47.956287 11.779026 
L 47.785135 12.007657 
L 47.617633 12.238976 
L 47.453822 12.472922 
L 47.293743 12.709439 
L 47.137436 12.948465 
L 46.984942 13.189942 
L 46.836299 13.433807 
L 46.691543 13.68 
L 46.550711 13.928459 
L 46.413839 14.179121 
L 46.280962 14.431923 
L 46.152112 14.686801 
L 46.027322 14.943692 
L 45.906624 15.20253 
L 45.790048 15.46325 
L 45.677623 15.725788 
L 45.569377 15.990076 
L 45.465339 16.256048 
L 45.365533 16.523637 
L 45.269985 16.792777 
L 45.17872 17.063398 
L 45.09176 17.335433 
L 45.009126 17.608814 
L 44.930841 17.883471 
L 44.856923 18.159336 
L 44.787392 18.436339 
L 44.722264 18.71441 
L 44.661556 18.99348 
L 44.605283 19.273478 
L 44.55346 19.554333 
L 44.5061 19.835975 
L 44.463214 20.118333 
L 44.424813 20.401336 
L 44.390908 20.684912 
L 44.361505 20.968991 
L 44.336614 21.253501 
L 44.31624 21.538369 
L 44.300388 21.823526 
L 44.289062 22.108897 
L 44.282266 22.394413 
L 44.28 22.68 
L 44.28 22.68 
L 44.282266 22.965587 
L 44.289062 23.251103 
L 44.300388 23.536474 
L 44.31624 23.821631 
L 44.336614 24.106499 
L 44.361505 24.391009 
L 44.390908 24.675088 
L 44.424813 24.958664 
L 44.463214 25.241667 
L 44.5061 25.524025 
L 44.55346 25.805667 
L 44.605283 26.086522 
L 44.661556 26.36652 
L 44.722264 26.64559 
L 44.787392 26.923661 
L 44.856923 27.200664 
L 44.930841 27.476529 
L 45.009126 27.751186 
L 45.09176 28.024567 
L 45.17872 28.296602 
L 45.269985 28.567223 
L 45.365533 28.836363 
L 45.465339 29.103952 
L 45.569377 29.369924 
L 45.677623 29.634212 
L 45.790048 29.89675 
L 45.906624 30.15747 
L 46.027322 30.416308 
L 46.152112 30.673199 
L 46.280962 30.928077 
L 46.413839 31.180879 
L 46.550711 31.431541 
L 46.691543 31.68 
L 46.836299 31.926193 
L 46.984942 32.170058 
L 47.137436 32.411535 
L 47.293743 32.650561 
L 47.453822 32.887078 
L 47.617633 33.121024 
L 47.785135 33.352343 
L 47.956287 33.580974 
L 48.131044 33.806862 
L 48.309364 34.029948 
L 48.4912 34.250177 
L 48.676508 34.467493 
L 48.86524 34.681842 
L 49.057349 34.893169 
L 49.252787 35.101422 
L 49.451505 35.306548 
L 49.653452 35.508495 
L 49.858578 35.707213 
L 50.066831 35.902651 
L 50.278158 36.09476 
L 50.492507 36.283492 
L 50.709823 36.4688 
L 50.930052 36.650636 
L 51.153138 36.828956 
L 51.379026 37.003713 
L 51.607657 37.174865 
L 51.838976 37.342367 
L 52.072922 37.506178 
L 52.309439 37.666257 
L 52.548465 37.822564 
L 52.789942 37.975058 
L 53.033807 38.123701 
L 53.28 38.268457 
L 53.528459 38.409289 
L 53.779121 38.546161 
L 54.031923 38.679038 
L 54.286801 38.807888 
L 54.543692 38.932678 
L 54.80253 39.053376 
L 55.06325 39.169952 
L 55.325788 39.282377 
L 55.590076 39.390623 
L 55.856048 39.494661 
L 56.123637 39.594467 
L 56.392777 39.690015 
L 56.663398 39.78128 
L 56.935433 39.86824 
L 57.208814 39.950874 
L 57.483471 40.029159 
L 57.759336 40.103077 
L 58.036339 40.172608 
L 58.31441 40.237736 
L 58.59348 40.298444 
L 58.873478 40.354717 
L 59.154333 40.40654 
L 59.435975 40.4539 
L 59.718333 40.496786 
L 60.001336 40.535187 
L 60.284912 40.569092 
L 60.568991 40.598495 
L 60.853501 40.623386 
L 61.138369 40.64376 
L 61.423526 40.659612 
L 61.708897 40.670938 
L 61.994413 40.677734 
L 62.28 40.68 
L 98.28 40.68 
z
" clip-path="url(#p98c10923c9)" style="fill: none; stroke: #000000; stroke-linecap: round"/>
   </g>
   <g id="patch_3">
    <path d="M 26.28 154.08 
L 80.28 130.68 
L 134.28 154.08 
L 80.28 177.48 
L 26.28 154.08 
z
" clip-path="url(#p98c10923c9)" style="fill: none; stroke: #000000; stroke-linecap: round"/>
   </g>
   <g id="patch_4">
    <path d="M 299.88 235.08 
L 300.165587 235.077734 
L 300.451103 235.070938 
L 300.736474 235.059612 
L 301.021631 235.04376 
L 301.306499 235.023386 
L 301.591009 234.998495 
L 301.875088 234.969092 
L 302.158664 234.935187 
L 302.441667 234.896786 
L 302.724025 234.8539 
L 303.005667 234.80654 
L 303.286522 234.754717 
L 303.56652 234.698444 
L 303.84559 234.637736 
L 304.123661 234.572608 
L 304.400664 234.503077 
L 304.676529 234.429159 
L 304.951186 234.350874 
L 305.224567 234.26824 
L 305.496602 234.18128 
L 305.767223 234.090015 
L 306.036363 233.994467 
L 306.303952 233.894661 
L 306.569924 233.790623 
L 306.834212 233.682377 
L 307.09675 233.569952 
L 307.35747 233.453376 
L 307.616308 233.332678 
L 307.873199 233.207888 
L 308.128077 233.079038 
L 308.380879 232.946161 
L 308.631541 232.809289 
L 308.88 232.668457 
L 309.126193 232.523701 
L 309.370058 232.375058 
L 309.611535 232.222564 
L 309.850561 232.066257 
L 310.087078 231.906178 
L 310.321024 231.742367 
L 310.552343 231.574865 
L 310.780974 231.403713 
L 311.006862 231.228956 
L 311.229948 231.050636 
L 311.450177 230.8688 
L 311.667493 230.683492 
L 311.881842 230.49476 
L 312.093169 230.302651 
L 312.301422 230.107213 
L 312.506548 229.908495 
L 312.708495 229.706548 
L 312.907213 229.501422 
L 313.102651 229.293169 
L 313.29476 229.081842 
L 313.483492 228.867493 
L 313.6688 228.650177 
L 313.850636 228.429948 
L 314.028956 228.206862 
L 314.203713 227.980974 
L 314.374865 227.752343 
L 314.542367 227.521024 
L 314.706178 227.287078 
L 314.866257 227.050561 
L 315.022564 226.811535 
L 315.175058 226.570058 
L 315.323701 226.326193 
L 315.468457 226.08 
L 315.609289 225.831541 
L 315.746161 225.580879 
L 315.879038 225.328077 
L 316.007888 225.073199 
L 316.132678 224.816308 
L 316.253376 224.55747 
L 316.369952 224.29675 
L 316.482377 224.034212 
L 316.590623 223.769924 
L 316.694661 223.503952 
L 316.794467 223.236363 
L 316.890015 222.967223 
L 316.98128 222.696602 
L 317.06824 222.424567 
L 317.150874 222.151186 
L 317.229159 221.876529 
L 317.303077 221.600664 
L 317.372608 221.323661 
L 317.437736 221.04559 
L 317.498444 220.76652 
L 317.554717 220.486522 
L 317.60654 220.205667 
L 317.6539 219.924025 
L 317.696786 219.641667 
L 317.735187 219.358664 
L 317.769092 219.075088 
L 317.798495 218.791009 
L 317.823386 218.506499 
L 317.84376 218.221631 
L 317.859612 217.936474 
L 317.870938 217.651103 
L 317.877734 217.365587 
L 317.88 217.08 
L 317.88 217.08 
L 317.877734 216.794413 
L 317.870938 216.508897 
L 317.859612 216.223526 
L 317.84376 215.938369 
L 317.823386 215.653501 
L 317.798495 215.368991 
L 317.769092 215.084912 
L 317.735187 214.801336 
L 317.696786 214.518333 
L 317.6539 214.235975 
L 317.60654 213.954333 
L 317.554717 213.673478 
L 317.498444 213.39348 
L 317.437736 213.11441 
L 317.372608 212.836339 
L 317.303077 212.559336 
L 317.229159 212.283471 
L 317.150874 212.008814 
L 317.06824 211.735433 
L 316.98128 211.463398 
L 316.890015 211.192777 
L 316.794467 210.923637 
L 316.694661 210.656048 
L 316.590623 210.390076 
L 316.482377 210.125788 
L 316.369952 209.86325 
L 316.253376 209.60253 
L 316.132678 209.343692 
L 316.007888 209.086801 
L 315.879038 208.831923 
L 315.746161 208.579121 
L 315.609289 208.328459 
L 315.468457 208.08 
L 315.323701 207.833807 
L 315.175058 207.589942 
L 315.022564 207.348465 
L 314.866257 207.109439 
L 314.706178 206.872922 
L 314.542367 206.638976 
L 314.374865 206.407657 
L 314.203713 206.179026 
L 314.028956 205.953138 
L 313.850636 205.730052 
L 313.6688 205.509823 
L 313.483492 205.292507 
L 313.29476 205.078158 
L 313.102651 204.866831 
L 312.907213 204.658578 
L 312.708495 204.453452 
L 312.506548 204.251505 
L 312.301422 204.052787 
L 312.093169 203.857349 
L 311.881842 203.66524 
L 311.667493 203.476508 
L 311.450177 203.2912 
L 311.229948 203.109364 
L 311.006862 202.931044 
L 310.780974 202.756287 
L 310.552343 202.585135 
L 310.321024 202.417633 
L 310.087078 202.253822 
L 309.850561 202.093743 
L 309.611535 201.937436 
L 309.370058 201.784942 
L 309.126193 201.636299 
L 308.88 201.491543 
L 308.631541 201.350711 
L 308.380879 201.213839 
L 308.128077 201.080962 
L 307.873199 200.952112 
L 307.616308 200.827322 
L 307.35747 200.706624 
L 307.09675 200.590048 
L 306.834212 200.477623 
L 306.569924 200.369377 
L 306.303952 200.265339 
L 306.036363 200.165533 
L 305.767223 200.069985 
L 305.496602 199.97872 
L 305.224567 199.89176 
L 304.951186 199.809126 
L 304.676529 199.730841 
L 304.400664 199.656923 
L 304.123661 199.587392 
L 303.84559 199.522264 
L 303.56652 199.461556 
L 303.286522 199.405283 
L 303.005667 199.35346 
L 302.724025 199.3061 
L 302.441667 199.263214 
L 302.158664 199.224813 
L 301.875088 199.190908 
L 301.591009 199.161505 
L 301.306499 199.136614 
L 301.021631 199.11624 
L 300.736474 199.100388 
L 300.451103 199.089062 
L 300.165587 199.082266 
L 299.88 199.08 
L 263.88 199.08 
L 263.594413 199.082266 
L 263.308897 199.089062 
L 263.023526 199.100388 
L 262.738369 199.11624 
L 262.453501 199.136614 
L 262.168991 199.161505 
L 261.884912 199.190908 
L 261.601336 199.224813 
L 261.318333 199.263214 
L 261.035975 199.3061 
L 260.754333 199.35346 
L 260.473478 199.405283 
L 260.19348 199.461556 
L 259.91441 199.522264 
L 259.636339 199.587392 
L 259.359336 199.656923 
L 259.083471 199.730841 
L 258.808814 199.809126 
L 258.535433 199.89176 
L 258.263398 199.97872 
L 257.992777 200.069985 
L 257.723637 200.165533 
L 257.456048 200.265339 
L 257.190076 200.369377 
L 256.925788 200.477623 
L 256.66325 200.590048 
L 256.40253 200.706624 
L 256.143692 200.827322 
L 255.886801 200.952112 
L 255.631923 201.080962 
L 255.379121 201.213839 
L 255.128459 201.350711 
L 254.88 201.491543 
L 254.633807 201.636299 
L 254.389942 201.784942 
L 254.148465 201.937436 
L 253.909439 202.093743 
L 253.672922 202.253822 
L 253.438976 202.417633 
L 253.207657 202.585135 
L 252.979026 202.756287 
L 252.753138 202.931044 
L 252.530052 203.109364 
L 252.309823 203.2912 
L 252.092507 203.476508 
L 251.878158 203.66524 
L 251.666831 203.857349 
L 251.458578 204.052787 
L 251.253452 204.251505 
L 251.051505 204.453452 
L 250.852787 204.658578 
L 250.657349 204.866831 
L 250.46524 205.078158 
L 250.276508 205.292507 
L 250.0912 205.509823 
L 249.909364 205.730052 
L 249.731044 205.953138 
L 249.556287 206.179026 
L 249.385135 206.407657 
L 249.217633 206.638976 
L 249.053822 206.872922 
L 248.893743 207.109439 
L 248.737436 207.348465 
L 248.584942 207.589942 
L 248.436299 207.833807 
L 248.291543 208.08 
L 248.150711 208.328459 
L 248.013839 208.579121 
L 247.880962 208.831923 
L 247.752112 209.086801 
L 247.627322 209.343692 
L 247.506624 209.60253 
L 247.390048 209.86325 
L 247.277623 210.125788 
L 247.169377 210.390076 
L 247.065339 210.656048 
L 246.965533 210.923637 
L 246.869985 211.192777 
L 246.77872 211.463398 
L 246.69176 211.735433 
L 246.609126 212.008814 
L 246.530841 212.283471 
L 246.456923 212.559336 
L 246.387392 212.836339 
L 246.322264 213.11441 
L 246.261556 213.39348 
L 246.205283 213.673478 
L 246.15346 213.954333 
L 246.1061 214.235975 
L 246.063214 214.518333 
L 246.024813 214.801336 
L 245.990908 215.084912 
L 245.961505 215.368991 
L 245.936614 215.653501 
L 245.91624 215.938369 
L 245.900388 216.223526 
L 245.889062 216.508897 
L 245.882266 216.794413 
L 245.88 217.08 
L 245.88 217.08 
L 245.882266 217.365587 
L 245.889062 217.651103 
L 245.900388 217.936474 
L 245.91624 218.221631 
L 245.936614 218.506499 
L 245.961505 218.791009 
L 245.990908 219.075088 
L 246.024813 219.358664 
L 246.063214 219.641667 
L 246.1061 219.924025 
L 246.15346 220.205667 
L 246.205283 220.486522 
L 246.261556 220.76652 
L 246.322264 221.04559 
L 246.387392 221.323661 
L 246.456923 221.600664 
L 246.530841 221.876529 
L 246.609126 222.151186 
L 246.69176 222.424567 
L 246.77872 222.696602 
L 246.869985 222.967223 
L 246.965533 223.236363 
L 247.065339 223.503952 
L 247.169377 223.769924 
L 247.277623 224.034212 
L 247.390048 224.29675 
L 247.506624 224.55747 
L 247.627322 224.816308 
L 247.752112 225.073199 
L 247.880962 225.328077 
L 248.013839 225.580879 
L 248.150711 225.831541 
L 248.291543 226.08 
L 248.436299 226.326193 
L 248.584942 226.570058 
L 248.737436 226.811535 
L 248.893743 227.050561 
L 249.053822 227.287078 
L 249.217633 227.521024 
L 249.385135 227.752343 
L 249.556287 227.980974 
L 249.731044 228.206862 
L 249.909364 228.429948 
L 250.0912 228.650177 
L 250.276508 228.867493 
L 250.46524 229.081842 
L 250.657349 229.293169 
L 250.852787 229.501422 
L 251.051505 229.706548 
L 251.253452 229.908495 
L 251.458578 230.107213 
L 251.666831 230.302651 
L 251.878158 230.49476 
L 252.092507 230.683492 
L 252.309823 230.8688 
L 252.530052 231.050636 
L 252.753138 231.228956 
L 252.979026 231.403713 
L 253.207657 231.574865 
L 253.438976 231.742367 
L 253.672922 231.906178 
L 253.909439 232.066257 
L 254.148465 232.222564 
L 254.389942 232.375058 
L 254.633807 232.523701 
L 254.88 232.668457 
L 255.128459 232.809289 
L 255.379121 232.946161 
L 255.631923 233.079038 
L 255.886801 233.207888 
L 256.143692 233.332678 
L 256.40253 233.453376 
L 256.66325 233.569952 
L 256.925788 233.682377 
L 257.190076 233.790623 
L 257.456048 233.894661 
L 257.723637 233.994467 
L 257.992777 234.090015 
L 258.263398 234.18128 
L 258.535433 234.26824 
L 258.808814 234.350874 
L 259.083471 234.429159 
L 259.359336 234.503077 
L 259.636339 234.572608 
L 259.91441 234.637736 
L 260.19348 234.698444 
L 260.473478 234.754717 
L 260.754333 234.80654 
L 261.035975 234.8539 
L 261.318333 234.896786 
L 261.601336 234.935187 
L 261.884912 234.969092 
L 262.168991 234.998495 
L 262.453501 235.023386 
L 262.738369 235.04376 
L 263.023526 235.059612 
L 263.308897 235.070938 
L 263.594413 235.077734 
L 263.88 235.08 
L 299.88 235.08 
z
" clip-path="url(#p98c10923c9)" style="fill: none; stroke: #000000; stroke-linecap: round"/>
   </g>
   <g id="patch_5">
    <path d="M 98.28 312.48 
L 98.565587 312.477734 
L 98.851103 312.470938 
L 99.136474 312.459612 
L 99.421631 312.44376 
L 99.706499 312.423386 
L 99.991009 312.398495 
L 100.275088 312.369092 
L 100.558664 312.335187 
L 100.841667 312.296786 
L 101.124025 312.2539 
L 101.405667 312.20654 
L 101.686522 312.154717 
L 101.96652 312.098444 
L 102.24559 312.037736 
L 102.523661 311.972608 
L 102.800664 311.903077 
L 103.076529 311.829159 
L 103.351186 311.750874 
L 103.624567 311.66824 
L 103.896602 311.58128 
L 104.167223 311.490015 
L 104.436363 311.394467 
L 104.703952 311.294661 
L 104.969924 311.190623 
L 105.234212 311.082377 
L 105.49675 310.969952 
L 105.75747 310.853376 
L 106.016308 310.732678 
L 106.273199 310.607888 
L 106.528077 310.479038 
L 106.780879 310.346161 
L 107.031541 310.209289 
L 107.28 310.068457 
L 107.526193 309.923701 
L 107.770058 309.775058 
L 108.011535 309.622564 
L 108.250561 309.466257 
L 108.487078 309.306178 
L 108.721024 309.142367 
L 108.952343 308.974865 
L 109.180974 308.803713 
L 109.406862 308.628956 
L 109.629948 308.450636 
L 109.850177 308.2688 
L 110.067493 308.083492 
L 110.281842 307.89476 
L 110.493169 307.702651 
L 110.701422 307.507213 
L 110.906548 307.308495 
L 111.108495 307.106548 
L 111.307213 306.901422 
L 111.502651 306.693169 
L 111.69476 306.481842 
L 111.883492 306.267493 
L 112.0688 306.050177 
L 112.250636 305.829948 
L 112.428956 305.606862 
L 112.603713 305.380974 
L 112.774865 305.152343 
L 112.942367 304.921024 
L 113.106178 304.687078 
L 113.266257 304.450561 
L 113.422564 304.211535 
L 113.575058 303.970058 
L 113.723701 303.726193 
L 113.868457 303.48 
L 114.009289 303.231541 
L 114.146161 302.980879 
L 114.279038 302.728077 
L 114.407888 302.473199 
L 114.532678 302.216308 
L 114.653376 301.95747 
L 114.769952 301.69675 
L 114.882377 301.434212 
L 114.990623 301.169924 
L 115.094661 300.903952 
L 115.194467 300.636363 
L 115.290015 300.367223 
L 115.38128 300.096602 
L 115.46824 299.824567 
L 115.550874 299.551186 
L 115.629159 299.276529 
L 115.703077 299.000664 
L 115.772608 298.723661 
L 115.837736 298.44559 
L 115.898444 298.16652 
L 115.954717 297.886522 
L 116.00654 297.605667 
L 116.0539 297.324025 
L 116.096786 297.041667 
L 116.135187 296.758664 
L 116.169092 296.475088 
L 116.198495 296.191009 
L 116.223386 295.906499 
L 116.24376 295.621631 
L 116.259612 295.336474 
L 116.270938 295.051103 
L 116.277734 294.765587 
L 116.28 294.48 
L 116.28 294.48 
L 116.277734 294.194413 
L 116.270938 293.908897 
L 116.259612 293.623526 
L 116.24376 293.338369 
L 116.223386 293.053501 
L 116.198495 292.768991 
L 116.169092 292.484912 
L 116.135187 292.201336 
L 116.096786 291.918333 
L 116.0539 291.635975 
L 116.00654 291.354333 
L 115.954717 291.073478 
L 115.898444 290.79348 
L 115.837736 290.51441 
L 115.772608 290.236339 
L 115.703077 289.959336 
L 115.629159 289.683471 
L 115.550874 289.408814 
L 115.46824 289.135433 
L 115.38128 288.863398 
L 115.290015 288.592777 
L 115.194467 288.323637 
L 115.094661 288.056048 
L 114.990623 287.790076 
L 114.882377 287.525788 
L 114.769952 287.26325 
L 114.653376 287.00253 
L 114.532678 286.743692 
L 114.407888 286.486801 
L 114.279038 286.231923 
L 114.146161 285.979121 
L 114.009289 285.728459 
L 113.868457 285.48 
L 113.723701 285.233807 
L 113.575058 284.989942 
L 113.422564 284.748465 
L 113.266257 284.509439 
L 113.106178 284.272922 
L 112.942367 284.038976 
L 112.774865 283.807657 
L 112.603713 283.579026 
L 112.428956 283.353138 
L 112.250636 283.130052 
L 112.0688 282.909823 
L 111.883492 282.692507 
L 111.69476 282.478158 
L 111.502651 282.266831 
L 111.307213 282.058578 
L 111.108495 281.853452 
L 110.906548 281.651505 
L 110.701422 281.452787 
L 110.493169 281.257349 
L 110.281842 281.06524 
L 110.067493 280.876508 
L 109.850177 280.6912 
L 109.629948 280.509364 
L 109.406862 280.331044 
L 109.180974 280.156287 
L 108.952343 279.985135 
L 108.721024 279.817633 
L 108.487078 279.653822 
L 108.250561 279.493743 
L 108.011535 279.337436 
L 107.770058 279.184942 
L 107.526193 279.036299 
L 107.28 278.891543 
L 107.031541 278.750711 
L 106.780879 278.613839 
L 106.528077 278.480962 
L 106.273199 278.352112 
L 106.016308 278.227322 
L 105.75747 278.106624 
L 105.49675 277.990048 
L 105.234212 277.877623 
L 104.969924 277.769377 
L 104.703952 277.665339 
L 104.436363 277.565533 
L 104.167223 277.469985 
L 103.896602 277.37872 
L 103.624567 277.29176 
L 103.351186 277.209126 
L 103.076529 277.130841 
L 102.800664 277.056923 
L 102.523661 276.987392 
L 102.24559 276.922264 
L 101.96652 276.861556 
L 101.686522 276.805283 
L 101.405667 276.75346 
L 101.124025 276.7061 
L 100.841667 276.663214 
L 100.558664 276.624813 
L 100.275088 276.590908 
L 99.991009 276.561505 
L 99.706499 276.536614 
L 99.421631 276.51624 
L 99.136474 276.500388 
L 98.851103 276.489062 
L 98.565587 276.482266 
L 98.28 276.48 
L 62.28 276.48 
L 61.994413 276.482266 
L 61.708897 276.489062 
L 61.423526 276.500388 
L 61.138369 276.51624 
L 60.853501 276.536614 
L 60.568991 276.561505 
L 60.284912 276.590908 
L 60.001336 276.624813 
L 59.718333 276.663214 
L 59.435975 276.7061 
L 59.154333 276.75346 
L 58.873478 276.805283 
L 58.59348 276.861556 
L 58.31441 276.922264 
L 58.036339 276.987392 
L 57.759336 277.056923 
L 57.483471 277.130841 
L 57.208814 277.209126 
L 56.935433 277.29176 
L 56.663398 277.37872 
L 56.392777 277.469985 
L 56.123637 277.565533 
L 55.856048 277.665339 
L 55.590076 277.769377 
L 55.325788 277.877623 
L 55.06325 277.990048 
L 54.80253 278.106624 
L 54.543692 278.227322 
L 54.286801 278.352112 
L 54.031923 278.480962 
L 53.779121 278.613839 
L 53.528459 278.750711 
L 53.28 278.891543 
L 53.033807 279.036299 
L 52.789942 279.184942 
L 52.548465 279.337436 
L 52.309439 279.493743 
L 52.072922 279.653822 
L 51.838976 279.817633 
L 51.607657 279.985135 
L 51.379026 280.156287 
L 51.153138 280.331044 
L 50.930052 280.509364 
L 50.709823 280.6912 
L 50.492507 280.876508 
L 50.278158 281.06524 
L 50.066831 281.257349 
L 49.858578 281.452787 
L 49.653452 281.651505 
L 49.451505 281.853452 
L 49.252787 282.058578 
L 49.057349 282.266831 
L 48.86524 282.478158 
L 48.676508 282.692507 
L 48.4912 282.909823 
L 48.309364 283.130052 
L 48.131044 283.353138 
L 47.956287 283.579026 
L 47.785135 283.807657 
L 47.617633 284.038976 
L 47.453822 284.272922 
L 47.293743 284.509439 
L 47.137436 284.748465 
L 46.984942 284.989942 
L 46.836299 285.233807 
L 46.691543 285.48 
L 46.550711 285.728459 
L 46.413839 285.979121 
L 46.280962 286.231923 
L 46.152112 286.486801 
L 46.027322 286.743692 
L 45.906624 287.00253 
L 45.790048 287.26325 
L 45.677623 287.525788 
L 45.569377 287.790076 
L 45.465339 288.056048 
L 45.365533 288.323637 
L 45.269985 288.592777 
L 45.17872 288.863398 
L 45.09176 289.135433 
L 45.009126 289.408814 
L 44.930841 289.683471 
L 44.856923 289.959336 
L 44.787392 290.236339 
L 44.722264 290.51441 
L 44.661556 290.79348 
L 44.605283 291.073478 
L 44.55346 291.354333 
L 44.5061 291.635975 
L 44.463214 291.918333 
L 44.424813 292.201336 
L 44.390908 292.484912 
L 44.361505 292.768991 
L 44.336614 293.053501 
L 44.31624 293.338369 
L 44.300388 293.623526 
L 44.289062 293.908897 
L 44.282266 294.194413 
L 44.28 294.48 
L 44.28 294.48 
L 44.282266 294.765587 
L 44.289062 295.051103 
L 44.300388 295.336474 
L 44.31624 295.621631 
L 44.336614 295.906499 
L 44.361505 296.191009 
L 44.390908 296.475088 
L 44.424813 296.758664 
L 44.463214 297.041667 
L 44.5061 297.324025 
L 44.55346 297.605667 
L 44.605283 297.886522 
L 44.661556 298.16652 
L 44.722264 298.44559 
L 44.787392 298.723661 
L 44.856923 299.000664 
L 44.930841 299.276529 
L 45.009126 299.551186 
L 45.09176 299.824567 
L 45.17872 300.096602 
L 45.269985 300.367223 
L 45.365533 300.636363 
L 45.465339 300.903952 
L 45.569377 301.169924 
L 45.677623 301.434212 
L 45.790048 301.69675 
L 45.906624 301.95747 
L 46.027322 302.216308 
L 46.152112 302.473199 
L 46.280962 302.728077 
L 46.413839 302.980879 
L 46.550711 303.231541 
L 46.691543 303.48 
L 46.836299 303.726193 
L 46.984942 303.970058 
L 47.137436 304.211535 
L 47.293743 304.450561 
L 47.453822 304.687078 
L 47.617633 304.921024 
L 47.785135 305.152343 
L 47.956287 305.380974 
L 48.131044 305.606862 
L 48.309364 305.829948 
L 48.4912 306.050177 
L 48.676508 306.267493 
L 48.86524 306.481842 
L 49.057349 306.693169 
L 49.252787 306.901422 
L 49.451505 307.106548 
L 49.653452 307.308495 
L 49.858578 307.507213 
L 50.066831 307.702651 
L 50.278158 307.89476 
L 50.492507 308.083492 
L 50.709823 308.2688 
L 50.930052 308.450636 
L 51.153138 308.628956 
L 51.379026 308.803713 
L 51.607657 308.974865 
L 51.838976 309.142367 
L 52.072922 309.306178 
L 52.309439 309.466257 
L 52.548465 309.622564 
L 52.789942 309.775058 
L 53.033807 309.923701 
L 53.28 310.068457 
L 53.528459 310.209289 
L 53.779121 310.346161 
L 54.031923 310.479038 
L 54.286801 310.607888 
L 54.543692 310.732678 
L 54.80253 310.853376 
L 55.06325 310.969952 
L 55.325788 311.082377 
L 55.590076 311.190623 
L 55.856048 311.294661 
L 56.123637 311.394467 
L 56.392777 311.490015 
L 56.663398 311.58128 
L 56.935433 311.66824 
L 57.208814 311.750874 
L 57.483471 311.829159 
L 57.759336 311.903077 
L 58.036339 311.972608 
L 58.31441 312.037736 
L 58.59348 312.098444 
L 58.873478 312.154717 
L 59.154333 312.20654 
L 59.435975 312.2539 
L 59.718333 312.296786 
L 60.001336 312.335187 
L 60.284912 312.369092 
L 60.568991 312.398495 
L 60.853501 312.423386 
L 61.138369 312.44376 
L 61.423526 312.459612 
L 61.708897 312.470938 
L 61.994413 312.477734 
L 62.28 312.48 
L 98.28 312.48 
z
" clip-path="url(#p98c10923c9)" style="fill: none; stroke: #000000; stroke-linecap: round"/>
   </g>
   <g id="line2d_1">
    <path d="M 80.28 40.68 
L 80.28 54.18 
L 80.28 58.68 
" clip-path="url(#p98c10923c9)" style="fill: none; stroke: #000000; stroke-linecap: round"/>
   </g>
   <g id="patch_6">
    <path d="M 82.98 58.68 
L 80.28 67.68 
L 77.58 58.68 
z
" clip-path="url(#p98c10923c9)"/>
   </g>
   <g id="line2d_2">
    <path d="M 44.28 85.68 
L 44.28 67.68 
L 116.28 67.68 
L 116.28 103.68 
L 44.28 103.68 
L 44.28 85.68 
" clip-path="url(#p98c10923c9)" style="fill: none; stroke: #000000; stroke-linecap: round"/>
   </g>
   <g id="line2d_3">
    <path d="M 80.28 103.68 
L 80.28 117.18 
L 80.28 121.68 
" clip-path="url(#p98c10923c9)" style="fill: none; stroke: #000000; stroke-linecap: round"/>
   </g>
   <g id="patch_7">
    <path d="M 82.98 121.68 
L 80.28 130.68 
L 77.58 121.68 
z
" clip-path="url(#p98c10923c9)"/>
   </g>
   <g id="line2d_4">
    <path d="M 134.28 154.08 
L 170.28 154.08 
L 197.28 154.08 
" clip-path="url(#p98c10923c9)" style="fill: none; stroke: #000000; stroke-linecap: round"/>
   </g>
   <g id="patch_8">
    <path d="M 197.28 151.38 
L 206.28 154.08 
L 197.28 156.78 
z
" clip-path="url(#p98c10923c9)"/>
   </g>
   <g id="line2d_5">
    <path d="M 206.28 154.08 
L 206.28 136.08 
L 357.48 136.08 
L 357.48 172.08 
L 206.28 172.08 
L 206.28 154.08 
" clip-path="url(#p98c10923c9)" style="fill: none; stroke: #000000; stroke-linecap: round"/>
   </g>
   <g id="line2d_6">
    <path d="M 281.88 172.08 
L 281.88 185.58 
L 281.88 190.08 
" clip-path="url(#p98c10923c9)" style="fill: none; stroke: #000000; stroke-linecap: round"/>
   </g>
   <g id="patch_9">
    <path d="M 284.58 190.08 
L 281.88 199.08 
L 279.18 190.08 
z
" clip-path="url(#p98c10923c9)"/>
   </g>
   <g id="line2d_7">
    <path d="M 80.28 177.48 
L 80.28 195.48 
L 80.28 204.48 
" clip-path="url(#p98c10923c9)" style="fill: none; stroke: #000000; stroke-linecap: round"/>
   </g>
   <g id="patch_10">
    <path d="M 82.98 204.48 
L 80.28 213.48 
L 77.58 204.48 
z
" clip-path="url(#p98c10923c9)"/>
   </g>
   <g id="line2d_8">
    <path d="M 4.68 231.48 
L 4.68 213.48 
L 155.88 213.48 
L 155.88 249.48 
L 4.68 249.48 
L 4.68 231.48 
" clip-path="url(#p98c10923c9)" style="fill: none; stroke: #000000; stroke-linecap: round"/>
   </g>
   <g id="line2d_9">
    <path d="M 80.28 249.48 
L 80.28 262.98 
L 80.28 267.48 
" clip-path="url(#p98c10923c9)" style="fill: none; stroke: #000000; stroke-linecap: round"/>
   </g>
   <g id="patch_11">
    <path d="M 82.98 267.48 
L 80.28 276.48 
L 77.58 267.48 
z
" clip-path="url(#p98c10923c9)"/>
   </g>
   <g id="text_1">
    <!-- START -->
    <g transform="translate(58.802031 26.593438) scale(0.14 -0.14)">
     <defs>
      <path id="IPAexGothic-53" d="M 2919 3641 
Q 2563 4259 1853 4259 
Q 1453 4259 1213 4009 
Q 1028 3803 1028 3534 
Q 1028 3238 1266 3047 
Q 1444 2913 1984 2688 
L 2200 2597 
Q 2925 2306 3191 1953 
Q 3422 1644 3422 1259 
Q 3422 644 2969 288 
Q 2559 -31 1931 -31 
Q 881 -31 313 766 
L 753 1100 
Q 1203 459 1938 459 
Q 2288 459 2534 625 
Q 2841 847 2841 1216 
Q 2841 1503 2616 1728 
Q 2375 1959 1728 2206 
L 1541 2278 
Q 453 2694 453 3481 
Q 453 4006 806 4347 
Q 1203 4725 1863 4725 
Q 2841 4725 3359 3956 
L 2919 3641 
z
" transform="scale(0.015625)"/>
      <path id="IPAexGothic-54" d="M 3866 4141 
L 2175 4141 
L 2175 63 
L 1606 63 
L 1606 4141 
L -31 4141 
L -31 4634 
L 3866 4634 
L 3866 4141 
z
" transform="scale(0.015625)"/>
      <path id="IPAexGothic-41" d="M 4056 63 
L 3444 63 
L 2938 1409 
L 1100 1409 
L 603 63 
L -6 63 
L 1806 4666 
L 2259 4666 
L 4056 63 
z
M 2778 1863 
L 2316 3078 
Q 2125 3588 2028 4000 
L 2009 4000 
Q 1897 3563 1716 3078 
L 1263 1863 
L 2778 1863 
z
" transform="scale(0.015625)"/>
      <path id="IPAexGothic-52" d="M 4072 63 
L 3394 63 
Q 3138 641 2828 1197 
Q 2584 1641 2344 1825 
Q 2050 2044 1625 2044 
L 1172 2044 
L 1172 63 
L 609 63 
L 609 4634 
L 2009 4634 
Q 2713 4634 3131 4378 
Q 3688 4044 3688 3381 
Q 3688 2784 3181 2459 
Q 2906 2272 2522 2216 
L 2522 2197 
Q 2941 2050 3247 1581 
Q 3516 1166 4072 63 
z
M 1172 2478 
L 1869 2478 
Q 3106 2478 3106 3369 
Q 3106 4181 1928 4181 
L 1172 4181 
L 1172 2478 
z
" transform="scale(0.015625)"/>
     </defs>
     <use xlink:href="#IPAexGothic-53"/>
     <use xlink:href="#IPAexGothic-54" x="58.496094"/>
     <use xlink:href="#IPAexGothic-41" x="118.408203"/>
     <use xlink:href="#IPAexGothic-52" x="182.128906"/>
     <use xlink:href="#IPAexGothic-54" x="246.923828"/>
    </g>
   </g>
   <g id="text_2">
    <!-- x = 10 -->
    <g transform="translate(59.512969 89.593438) scale(0.14 -0.14)">
     <defs>
      <path id="IPAexGothic-78" d="M 3050 63 
L 2419 63 
L 1547 1338 
L 691 63 
L 56 63 
L 1247 1675 
L 106 3250 
L 747 3250 
L 1578 2016 
L 2413 3250 
L 3019 3250 
L 1875 1681 
L 3050 63 
z
" transform="scale(0.015625)"/>
      <path id="IPAexGothic-20" transform="scale(0.015625)"/>
      <path id="IPAexGothic-3d" d="M 416 2803 
L 3922 2803 
L 3922 2438 
L 416 2438 
L 416 2803 
z
M 416 1625 
L 3922 1625 
L 3922 1259 
L 416 1259 
L 416 1625 
z
" transform="scale(0.015625)"/>
      <path id="IPAexGothic-31" d="M 2463 63 
L 1900 63 
L 1900 4103 
Q 1372 3922 788 3797 
L 684 4231 
Q 1519 4441 2106 4731 
L 2463 4731 
L 2463 63 
z
" transform="scale(0.015625)"/>
      <path id="IPAexGothic-30" d="M 2038 4725 
Q 2881 4725 3334 3944 
Q 3694 3325 3694 2344 
Q 3694 1372 3334 741 
Q 2888 -31 2016 -31 
Q 1147 -31 700 741 
Q 341 1372 341 2350 
Q 341 3713 1000 4334 
Q 1419 4725 2038 4725 
z
M 2016 4266 
Q 1516 4266 1228 3759 
Q 934 3247 934 2344 
Q 934 1456 1222 947 
Q 1513 447 2016 447 
Q 2619 447 2909 1153 
Q 3100 1622 3100 2375 
Q 3100 3256 2806 3759 
Q 2509 4266 2016 4266 
z
" transform="scale(0.015625)"/>
     </defs>
     <use xlink:href="#IPAexGothic-78"/>
     <use xlink:href="#IPAexGothic-20" x="48.876953"/>
     <use xlink:href="#IPAexGothic-3d" x="75.878906"/>
     <use xlink:href="#IPAexGothic-20" x="143.701172"/>
     <use xlink:href="#IPAexGothic-31" x="170.703125"/>
     <use xlink:href="#IPAexGothic-30" x="233.691406"/>
    </g>
   </g>
   <g id="text_3">
    <!-- False -->
    <g transform="translate(84.96 192.646875) scale(0.14 -0.14)">
     <defs>
      <path id="IPAexGothic-46" d="M 3469 4141 
L 1172 4141 
L 1172 2656 
L 3206 2656 
L 3206 2188 
L 1172 2188 
L 1172 63 
L 609 63 
L 609 4634 
L 3469 4634 
L 3469 4141 
z
" transform="scale(0.015625)"/>
      <path id="IPAexGothic-61" d="M 3156 63 
L 2672 63 
Q 2559 303 2531 556 
L 2509 556 
Q 2147 -25 1428 -25 
Q 934 -25 622 288 
Q 347 563 347 959 
Q 347 1947 2050 1997 
L 2478 2009 
L 2478 2175 
Q 2478 2509 2288 2700 
Q 2088 2900 1775 2900 
Q 1238 2900 969 2378 
L 494 2597 
Q 938 3328 1788 3328 
Q 2375 3328 2691 3000 
Q 2984 2706 2984 2169 
L 2984 997 
Q 2984 400 3156 63 
z
M 2491 1625 
L 2141 1619 
Q 903 1591 903 953 
Q 903 728 1050 581 
Q 1231 403 1525 403 
Q 1934 403 2234 703 
Q 2491 969 2491 1344 
L 2491 1625 
z
" transform="scale(0.015625)"/>
      <path id="IPAexGothic-6c" d="M 1131 63 
L 581 63 
L 581 4794 
L 1131 4794 
L 1131 63 
z
" transform="scale(0.015625)"/>
      <path id="IPAexGothic-73" d="M 2234 2547 
Q 1938 2931 1484 2931 
Q 891 2931 891 2475 
Q 891 2153 1531 1944 
L 1741 1875 
Q 2650 1578 2650 894 
Q 2650 434 2272 172 
Q 1972 -31 1497 -31 
Q 766 -31 256 503 
L 603 819 
Q 997 397 1516 397 
Q 2131 397 2131 875 
Q 2131 1238 1453 1478 
L 1234 1553 
Q 378 1853 378 2431 
Q 378 2797 628 3047 
Q 928 3347 1453 3347 
Q 2156 3347 2606 2859 
L 2234 2547 
z
" transform="scale(0.015625)"/>
      <path id="IPAexGothic-65" d="M 863 1594 
Q 891 1041 1209 722 
Q 1534 397 1997 397 
Q 2606 397 2963 966 
L 3322 728 
Q 2869 -31 1931 -31 
Q 1222 -31 766 422 
Q 306 884 306 1641 
Q 306 2444 788 2925 
Q 1216 3353 1856 3353 
Q 2459 3353 2866 2956 
Q 3322 2494 3322 1722 
L 3322 1594 
L 863 1594 
z
M 2756 1997 
Q 2709 2431 2450 2681 
Q 2194 2938 1844 2938 
Q 1438 2938 1150 2591 
Q 953 2356 894 1997 
L 2756 1997 
z
" transform="scale(0.015625)"/>
     </defs>
     <use xlink:href="#IPAexGothic-46"/>
     <use xlink:href="#IPAexGothic-61" x="57.177734"/>
     <use xlink:href="#IPAexGothic-6c" x="112.158203"/>
     <use xlink:href="#IPAexGothic-73" x="139.160156"/>
     <use xlink:href="#IPAexGothic-65" x="185.351562"/>
    </g>
   </g>
   <g id="text_4">
    <!-- True -->
    <g transform="translate(138.96 146.74) scale(0.14 -0.14)">
     <defs>
      <path id="IPAexGothic-72" d="M 2309 3316 
L 2213 2769 
Q 2106 2791 2022 2791 
Q 1653 2791 1413 2444 
Q 1113 2006 1113 1675 
L 1113 63 
L 563 63 
L 563 3250 
L 1081 3250 
L 1056 2303 
L 1069 2303 
Q 1422 3341 2097 3341 
Q 2206 3341 2309 3316 
z
" transform="scale(0.015625)"/>
      <path id="IPAexGothic-75" d="M 3284 63 
L 2772 63 
L 2772 644 
Q 2300 0 1625 0 
Q 1072 0 763 375 
Q 519 678 519 1241 
L 519 3250 
L 1069 3250 
L 1069 1259 
Q 1069 466 1734 466 
Q 2406 466 2734 1291 
L 2734 3250 
L 3284 3250 
L 3284 63 
z
" transform="scale(0.015625)"/>
     </defs>
     <use xlink:href="#IPAexGothic-54"/>
     <use xlink:href="#IPAexGothic-72" x="59.912109"/>
     <use xlink:href="#IPAexGothic-75" x="96.923828"/>
     <use xlink:href="#IPAexGothic-65" x="157.324219"/>
    </g>
   </g>
   <g id="text_5">
    <!-- x = 10 ? -->
    <g transform="translate(53.7675 157.993438) scale(0.14 -0.14)">
     <defs>
      <path id="IPAexGothic-3f" d="M 225 3425 
Q 503 4725 1763 4725 
Q 2413 4725 2803 4334 
Q 3144 3994 3144 3516 
Q 3144 3081 2838 2716 
Q 2703 2563 2344 2266 
L 2216 2156 
Q 1888 1878 1888 1363 
L 1888 1209 
L 1422 1209 
L 1422 1422 
Q 1422 2050 1881 2491 
L 2022 2625 
L 2075 2669 
Q 2575 3122 2575 3516 
Q 2575 3822 2363 4041 
Q 2128 4278 1763 4278 
Q 963 4278 725 3309 
L 225 3425 
z
M 1978 63 
L 1325 63 
L 1325 728 
L 1978 728 
L 1978 63 
z
" transform="scale(0.015625)"/>
     </defs>
     <use xlink:href="#IPAexGothic-78"/>
     <use xlink:href="#IPAexGothic-20" x="48.876953"/>
     <use xlink:href="#IPAexGothic-3d" x="75.878906"/>
     <use xlink:href="#IPAexGothic-20" x="143.701172"/>
     <use xlink:href="#IPAexGothic-31" x="170.703125"/>
     <use xlink:href="#IPAexGothic-30" x="233.691406"/>
     <use xlink:href="#IPAexGothic-20" x="296.679688"/>
     <use xlink:href="#IPAexGothic-3f" x="323.681641"/>
    </g>
   </g>
   <g id="text_6">
    <!-- print('条件はTrueです') -->
    <g transform="translate(209.042812 158.553438) scale(0.14 -0.14)">
     <defs>
      <path id="IPAexGothic-70" d="M 1075 2688 
Q 1525 3341 2206 3341 
Q 2769 3341 3172 2938 
Q 3641 2469 3641 1644 
Q 3641 841 3178 372 
Q 2775 -31 2200 -31 
Q 1569 -31 1106 497 
L 1106 -1216 
L 563 -1216 
L 563 3250 
L 1075 3250 
L 1075 2688 
z
M 1106 1950 
L 1106 1291 
Q 1106 897 1516 600 
Q 1791 403 2106 403 
Q 2469 403 2725 659 
Q 3066 997 3066 1631 
Q 3066 2200 2784 2559 
Q 2503 2900 2100 2900 
Q 1656 2900 1338 2484 
Q 1106 2184 1106 1950 
z
" transform="scale(0.015625)"/>
      <path id="IPAexGothic-69" d="M 1178 3928 
L 550 3928 
L 550 4569 
L 1178 4569 
L 1178 3928 
z
M 1138 63 
L 588 63 
L 588 3250 
L 1138 3250 
L 1138 63 
z
" transform="scale(0.015625)"/>
      <path id="IPAexGothic-6e" d="M 3328 63 
L 2778 63 
L 2778 2041 
Q 2778 2853 2106 2853 
Q 1428 2853 1113 2041 
L 1113 63 
L 563 63 
L 563 3250 
L 1075 3250 
L 1075 2675 
Q 1525 3316 2222 3316 
Q 3328 3316 3328 2072 
L 3328 63 
z
" transform="scale(0.015625)"/>
      <path id="IPAexGothic-74" d="M 2125 241 
Q 1769 -6 1397 -6 
Q 653 -6 653 831 
L 653 2859 
L 219 2859 
L 219 3250 
L 653 3250 
L 653 3966 
L 1178 4228 
L 1178 3250 
L 2063 3250 
L 2063 2859 
L 1178 2859 
L 1178 906 
Q 1178 416 1513 416 
Q 1738 416 1941 588 
L 2125 241 
z
" transform="scale(0.015625)"/>
      <path id="IPAexGothic-28" d="M 1928 -1016 
L 1653 -1166 
Q 488 69 488 1875 
Q 488 3678 1653 4909 
L 1928 4763 
Q 1006 3522 1006 1881 
Q 1006 203 1928 -1016 
z
" transform="scale(0.015625)"/>
      <path id="IPAexGothic-27" d="M 900 4794 
L 806 3084 
L 422 3084 
L 325 4794 
L 900 4794 
z
" transform="scale(0.015625)"/>
      <path id="IPAexGothic-6761" d="M 3406 1475 
L 3406 -447 
L 2953 -447 
L 2953 1422 
Q 2147 306 641 -331 
L 334 59 
Q 1738 569 2563 1538 
L 488 1538 
L 488 1941 
L 2953 1941 
L 2953 2691 
L 3406 2691 
L 3406 1941 
L 5928 1941 
L 5928 1538 
L 3847 1538 
Q 4597 769 6063 238 
L 5759 -203 
Q 4256 400 3406 1475 
z
M 3738 3419 
Q 4619 2991 5959 2772 
L 5684 2356 
Q 4216 2631 3353 3150 
Q 2350 2494 813 2175 
L 531 2566 
Q 2063 2825 2997 3391 
Q 2494 3763 2163 4219 
Q 1694 3747 1038 3359 
L 725 3688 
Q 1897 4319 2466 5306 
L 2900 5203 
Q 2784 5003 2713 4903 
L 4641 4903 
L 4872 4691 
Q 4384 3938 3738 3419 
z
M 3353 3634 
Q 3919 4075 4219 4531 
L 2438 4531 
L 2425 4513 
Q 2838 3956 3353 3634 
z
" transform="scale(0.015625)"/>
      <path id="IPAexGothic-4ef6" d="M 3903 3425 
L 2906 3425 
Q 2697 2825 2309 2247 
L 1991 2572 
Q 2588 3497 2803 4788 
L 3256 4713 
Q 3175 4313 3041 3834 
L 3903 3834 
L 3903 5250 
L 4356 5250 
L 4356 3834 
L 5731 3834 
L 5731 3425 
L 4356 3425 
L 4356 2009 
L 6041 2009 
L 6041 1594 
L 4356 1594 
L 4356 -447 
L 3903 -447 
L 3903 1594 
L 2078 1594 
L 2078 2009 
L 3903 2009 
L 3903 3425 
z
M 1638 3681 
L 1638 -447 
L 1169 -447 
L 1169 2753 
Q 881 2272 575 1863 
L 313 2253 
Q 1238 3463 1650 5184 
L 2125 5069 
Q 1909 4316 1638 3681 
z
" transform="scale(0.015625)"/>
      <path id="IPAexGothic-306f" d="M 4066 4875 
L 4538 4875 
L 4556 3769 
Q 5003 3816 5581 3941 
L 5619 3469 
Q 5256 3394 4563 3322 
L 4597 1441 
Q 5100 1284 5934 756 
L 5656 313 
Q 5066 772 4609 978 
Q 4609 441 4384 225 
Q 4128 -13 3634 -13 
Q 2991 -13 2669 231 
Q 2388 444 2388 831 
Q 2388 1225 2772 1484 
Q 3050 1669 3534 1669 
Q 3759 1669 4134 1594 
L 4097 3288 
Q 3697 3269 3359 3269 
Q 2925 3269 2484 3300 
L 2466 3763 
Q 2953 3716 3456 3716 
Q 3738 3716 4091 3738 
L 4066 4875 
z
M 4141 1153 
Q 3753 1259 3513 1259 
Q 2841 1259 2841 850 
Q 2841 422 3634 422 
Q 3888 422 4022 569 
Q 4141 700 4141 922 
Q 4141 1088 4141 1153 
z
M 1000 -50 
Q 794 1072 794 1931 
Q 794 3153 1247 4884 
L 1728 4763 
Q 1269 3044 1269 1900 
Q 1269 1569 1306 1106 
Q 1591 1706 1753 1997 
L 2075 1806 
Q 1484 716 1484 141 
Q 1484 72 1491 0 
L 1000 -50 
z
" transform="scale(0.015625)"/>
      <path id="IPAexGothic-3067" d="M 581 4034 
Q 2978 4363 5466 4556 
L 5509 4097 
Q 4388 4031 3750 3572 
Q 2797 2878 2797 1913 
Q 2797 1169 3291 819 
Q 3778 484 4869 416 
L 4906 -116 
Q 2278 0 2278 1850 
Q 2278 3125 3691 4000 
Q 2066 3784 684 3553 
L 581 4034 
z
M 5631 2522 
Q 5269 3063 4875 3391 
L 5175 3622 
Q 5559 3313 5950 2797 
L 5631 2522 
z
M 5034 2053 
Q 4747 2544 4300 2944 
L 4613 3184 
Q 4984 2878 5369 2328 
L 5034 2053 
z
" transform="scale(0.015625)"/>
      <path id="IPAexGothic-3059" d="M 3322 5075 
L 3816 5075 
L 3816 4063 
Q 4131 4075 5756 4116 
L 5756 3669 
Q 5431 3672 3816 3653 
L 3816 2463 
Q 3956 2125 3956 1741 
Q 3956 922 3519 397 
Q 3128 -72 2309 -409 
L 1941 -31 
Q 3263 453 3488 1363 
Q 3250 1031 2809 1031 
Q 2441 1031 2150 1313 
Q 1875 1588 1875 2050 
Q 1875 2475 2166 2769 
Q 2431 3041 2822 3041 
Q 3088 3041 3322 2881 
L 3322 3641 
Q 3000 3634 609 3547 
L 609 3988 
Q 1197 4000 2106 4022 
Q 3066 4047 3322 4050 
L 3322 5075 
z
M 3372 2044 
Q 3372 2300 3194 2478 
Q 3050 2613 2869 2613 
Q 2622 2613 2463 2406 
Q 2344 2250 2344 2088 
Q 2344 1797 2484 1622 
Q 2625 1453 2859 1453 
Q 3372 1453 3372 2044 
z
" transform="scale(0.015625)"/>
      <path id="IPAexGothic-29" d="M 466 4909 
Q 1638 3672 1638 1875 
Q 1638 75 466 -1166 
L 191 -1016 
Q 1119 216 1119 1881 
Q 1119 3509 191 4763 
L 466 4909 
z
" transform="scale(0.015625)"/>
     </defs>
     <use xlink:href="#IPAexGothic-70"/>
     <use xlink:href="#IPAexGothic-72" x="62.109375"/>
     <use xlink:href="#IPAexGothic-69" x="99.121094"/>
     <use xlink:href="#IPAexGothic-6e" x="126.123047"/>
     <use xlink:href="#IPAexGothic-74" x="186.523438"/>
     <use xlink:href="#IPAexGothic-28" x="221.142578"/>
     <use xlink:href="#IPAexGothic-27" x="254.443359"/>
     <use xlink:href="#IPAexGothic-6761" x="273.730469"/>
     <use xlink:href="#IPAexGothic-4ef6" x="373.730469"/>
     <use xlink:href="#IPAexGothic-306f" x="473.730469"/>
     <use xlink:href="#IPAexGothic-54" x="573.730469"/>
     <use xlink:href="#IPAexGothic-72" x="633.642578"/>
     <use xlink:href="#IPAexGothic-75" x="670.654297"/>
     <use xlink:href="#IPAexGothic-65" x="731.054688"/>
     <use xlink:href="#IPAexGothic-3067" x="787.939453"/>
     <use xlink:href="#IPAexGothic-3059" x="887.939453"/>
     <use xlink:href="#IPAexGothic-27" x="987.939453"/>
     <use xlink:href="#IPAexGothic-29" x="1007.226562"/>
    </g>
   </g>
   <g id="text_7">
    <!-- END -->
    <g transform="translate(267.096875 220.993438) scale(0.14 -0.14)">
     <defs>
      <path id="IPAexGothic-45" d="M 3547 63 
L 609 63 
L 609 4634 
L 3469 4634 
L 3469 4147 
L 1166 4147 
L 1166 2650 
L 3206 2650 
L 3206 2191 
L 1166 2191 
L 1166 556 
L 3547 556 
L 3547 63 
z
" transform="scale(0.015625)"/>
      <path id="IPAexGothic-4e" d="M 4244 63 
L 3731 63 
L 1697 3150 
Q 1466 3500 1141 4097 
L 1116 4097 
L 1128 3797 
Q 1159 2803 1159 2469 
L 1159 63 
L 609 63 
L 609 4634 
L 1366 4634 
L 3113 1978 
Q 3453 1447 3713 966 
L 3738 966 
Q 3694 1897 3694 2469 
L 3694 4634 
L 4244 4634 
L 4244 63 
z
" transform="scale(0.015625)"/>
      <path id="IPAexGothic-44" d="M 609 4634 
L 1984 4634 
Q 3159 4634 3791 4050 
Q 4456 3444 4456 2356 
Q 4456 1047 3516 441 
Q 2925 63 1941 63 
L 609 63 
L 609 4634 
z
M 1172 556 
L 1894 556 
Q 3853 556 3853 2356 
Q 3853 4147 1928 4147 
L 1172 4147 
L 1172 556 
z
" transform="scale(0.015625)"/>
     </defs>
     <use xlink:href="#IPAexGothic-45"/>
     <use xlink:href="#IPAexGothic-4e" x="59.521484"/>
     <use xlink:href="#IPAexGothic-44" x="135.498047"/>
    </g>
   </g>
   <g id="text_8">
    <!-- print('条件はFalseです') -->
    <g transform="translate(5.481719 235.953438) scale(0.14 -0.14)">
     <use xlink:href="#IPAexGothic-70"/>
     <use xlink:href="#IPAexGothic-72" x="62.109375"/>
     <use xlink:href="#IPAexGothic-69" x="99.121094"/>
     <use xlink:href="#IPAexGothic-6e" x="126.123047"/>
     <use xlink:href="#IPAexGothic-74" x="186.523438"/>
     <use xlink:href="#IPAexGothic-28" x="221.142578"/>
     <use xlink:href="#IPAexGothic-27" x="254.443359"/>
     <use xlink:href="#IPAexGothic-6761" x="273.730469"/>
     <use xlink:href="#IPAexGothic-4ef6" x="373.730469"/>
     <use xlink:href="#IPAexGothic-306f" x="473.730469"/>
     <use xlink:href="#IPAexGothic-46" x="573.730469"/>
     <use xlink:href="#IPAexGothic-61" x="630.908203"/>
     <use xlink:href="#IPAexGothic-6c" x="685.888672"/>
     <use xlink:href="#IPAexGothic-73" x="712.890625"/>
     <use xlink:href="#IPAexGothic-65" x="759.082031"/>
     <use xlink:href="#IPAexGothic-3067" x="815.966797"/>
     <use xlink:href="#IPAexGothic-3059" x="915.966797"/>
     <use xlink:href="#IPAexGothic-27" x="1015.966797"/>
     <use xlink:href="#IPAexGothic-29" x="1035.253906"/>
    </g>
   </g>
   <g id="text_9">
    <!-- END -->
    <g transform="translate(65.496875 298.393438) scale(0.14 -0.14)">
     <use xlink:href="#IPAexGothic-45"/>
     <use xlink:href="#IPAexGothic-4e" x="59.521484"/>
     <use xlink:href="#IPAexGothic-44" x="135.498047"/>
    </g>
   </g>
  </g>
 </g>
 <defs>
  <clipPath id="p98c10923c9">
   <rect x="0" y="0" width="362.16" height="317.16"/>
  </clipPath>
 </defs>
</svg>