<?xml version="1.0" encoding="utf-8" standalone="no"?>
<!DOCTYPE svg PUBLIC "-//W3C//DTD SVG 1.1//EN"
  "http://www.w3.org/Graphics/SVG/1.1/DTD/svg11.dtd">
<svg xmlns:xlink="http://www.w3.org/1999/xlink" width="343.8pt" height="480.985714pt" viewBox="0 0 343.8 480.985714" xmlns="http://www.w3.org/2000/svg" version="1.1">
 <metadata>
  <rdf:RDF xmlns:dc="http://purl.org/dc/elements/1.1/" xmlns:cc="http://creativecommons.org/ns#" xmlns:rdf="http://www.w3.org/1999/02/22-rdf-syntax-ns#">
   <cc:Work>
    <dc:type rdf:resource="http://purl.org/dc/dcmitype/StillImage"/>
    <dc:date>2024-03-09T02:32:53.181154</dc:date>
    <dc:format>image/svg+xml</dc:format>
    <dc:creator>
     <cc:Agent>
      <dc:title>Matplotlib v3.8.3, https://matplotlib.org/</dc:title>
     </cc:Agent>
    </dc:creator>
   </cc:Work>
  </rdf:RDF>
 </metadata>
 <defs>
  <style type="text/css">*{stroke-linejoin: round; stroke-linecap: butt}</style>
 </defs>
 <g id="figure_1">
  <g id="patch_1">
   <path d="M 0 480.985714 
L 343.8 480.985714 
L 343.8 0 
L 0 0 
z
" style="fill: #ffffff"/>
  </g>
  <g id="axes_1">
   <g id="patch_2">
    <path d="M 153.9 61.135714 
L 154.185587 61.133449 
L 154.471103 61.126652 
L 154.756474 61.115326 
L 155.041631 61.099474 
L 155.326499 61.0791 
L 155.611009 61.054209 
L 155.895088 61.024807 
L 156.178664 60.990901 
L 156.461667 60.9525 
L 156.744025 60.909614 
L 157.025667 60.862254 
L 157.306522 60.810431 
L 157.58652 60.754158 
L 157.86559 60.69345 
L 158.143661 60.628323 
L 158.420664 60.558791 
L 158.696529 60.484873 
L 158.971186 60.406588 
L 159.244567 60.323955 
L 159.516602 60.236994 
L 159.787223 60.145729 
L 160.056363 60.050181 
L 160.323952 59.950376 
L 160.589924 59.846337 
L 160.854212 59.738092 
L 161.11675 59.625667 
L 161.37747 59.50909 
L 161.636308 59.388392 
L 161.893199 59.263602 
L 162.148077 59.134752 
L 162.400879 59.001875 
L 162.651541 58.865003 
L 162.9 58.724172 
L 163.146193 58.579416 
L 163.390058 58.430772 
L 163.631535 58.278278 
L 163.870561 58.121972 
L 164.107078 57.961893 
L 164.341024 57.798081 
L 164.572343 57.630579 
L 164.800974 57.459427 
L 165.026862 57.28467 
L 165.249948 57.106351 
L 165.470177 56.924514 
L 165.687493 56.739207 
L 165.901842 56.550474 
L 166.113169 56.358365 
L 166.321422 56.162927 
L 166.526548 55.964209 
L 166.728495 55.762262 
L 166.927213 55.557136 
L 167.122651 55.348884 
L 167.31476 55.137556 
L 167.503492 54.923207 
L 167.6888 54.705891 
L 167.870636 54.485662 
L 168.048956 54.262576 
L 168.223713 54.036689 
L 168.394865 53.808057 
L 168.562367 53.576739 
L 168.726178 53.342792 
L 168.886257 53.106275 
L 169.042564 52.867249 
L 169.195058 52.625773 
L 169.343701 52.381907 
L 169.488457 52.135714 
L 169.629289 51.887256 
L 169.766161 51.636594 
L 169.899038 51.383792 
L 170.027888 51.128913 
L 170.152678 50.872023 
L 170.273376 50.613185 
L 170.389952 50.352464 
L 170.502377 50.089927 
L 170.610623 49.825638 
L 170.714661 49.559666 
L 170.814467 49.292077 
L 170.910015 49.022938 
L 171.00128 48.752316 
L 171.08824 48.480281 
L 171.170874 48.2069 
L 171.249159 47.932243 
L 171.323077 47.656378 
L 171.392608 47.379375 
L 171.457736 47.101304 
L 171.518444 46.822234 
L 171.574717 46.542237 
L 171.62654 46.261381 
L 171.6739 45.979739 
L 171.716786 45.697381 
L 171.755187 45.414378 
L 171.789092 45.130802 
L 171.818495 44.846723 
L 171.843386 44.562214 
L 171.86376 44.277345 
L 171.879612 43.992189 
L 171.890938 43.706817 
L 171.897734 43.421302 
L 171.9 43.135714 
L 171.9 43.135714 
L 171.897734 42.850127 
L 171.890938 42.564611 
L 171.879612 42.27924 
L 171.86376 41.994084 
L 171.843386 41.709215 
L 171.818495 41.424706 
L 171.789092 41.140627 
L 171.755187 40.85705 
L 171.716786 40.574047 
L 171.6739 40.291689 
L 171.62654 40.010047 
L 171.574717 39.729192 
L 171.518444 39.449194 
L 171.457736 39.170125 
L 171.392608 38.892053 
L 171.323077 38.615051 
L 171.249159 38.339186 
L 171.170874 38.064528 
L 171.08824 37.791148 
L 171.00128 37.519112 
L 170.910015 37.248491 
L 170.814467 36.979352 
L 170.714661 36.711762 
L 170.610623 36.44579 
L 170.502377 36.181502 
L 170.389952 35.918965 
L 170.273376 35.658244 
L 170.152678 35.399406 
L 170.027888 35.142515 
L 169.899038 34.887637 
L 169.766161 34.634835 
L 169.629289 34.384173 
L 169.488457 34.135714 
L 169.343701 33.889521 
L 169.195058 33.645656 
L 169.042564 33.40418 
L 168.886257 33.165153 
L 168.726178 32.928637 
L 168.562367 32.69469 
L 168.394865 32.463372 
L 168.223713 32.23474 
L 168.048956 32.008853 
L 167.870636 31.785766 
L 167.6888 31.565537 
L 167.503492 31.348221 
L 167.31476 31.133872 
L 167.122651 30.922545 
L 166.927213 30.714292 
L 166.728495 30.509166 
L 166.526548 30.307219 
L 166.321422 30.108502 
L 166.113169 29.913064 
L 165.901842 29.720954 
L 165.687493 29.532222 
L 165.470177 29.346914 
L 165.249948 29.165078 
L 165.026862 28.986759 
L 164.800974 28.812001 
L 164.572343 28.64085 
L 164.341024 28.473347 
L 164.107078 28.309536 
L 163.870561 28.149457 
L 163.631535 27.993151 
L 163.390058 27.840657 
L 163.146193 27.692013 
L 162.9 27.547257 
L 162.651541 27.406425 
L 162.400879 27.269554 
L 162.148077 27.136676 
L 161.893199 27.007826 
L 161.636308 26.883037 
L 161.37747 26.762338 
L 161.11675 26.645762 
L 160.854212 26.533337 
L 160.589924 26.425091 
L 160.323952 26.321053 
L 160.056363 26.221247 
L 159.787223 26.1257 
L 159.516602 26.034434 
L 159.244567 25.947474 
L 158.971186 25.864841 
L 158.696529 25.786555 
L 158.420664 25.712638 
L 158.143661 25.643106 
L 157.86559 25.577978 
L 157.58652 25.51727 
L 157.306522 25.460998 
L 157.025667 25.409175 
L 156.744025 25.361814 
L 156.461667 25.318928 
L 156.178664 25.280528 
L 155.895088 25.246622 
L 155.611009 25.21722 
L 155.326499 25.192328 
L 155.041631 25.171954 
L 154.756474 25.156102 
L 154.471103 25.144777 
L 154.185587 25.13798 
L 153.9 25.135714 
L 117.9 25.135714 
L 117.614413 25.13798 
L 117.328897 25.144777 
L 117.043526 25.156102 
L 116.758369 25.171954 
L 116.473501 25.192328 
L 116.188991 25.21722 
L 115.904912 25.246622 
L 115.621336 25.280528 
L 115.338333 25.318928 
L 115.055975 25.361814 
L 114.774333 25.409175 
L 114.493478 25.460998 
L 114.21348 25.51727 
L 113.93441 25.577978 
L 113.656339 25.643106 
L 113.379336 25.712638 
L 113.103471 25.786555 
L 112.828814 25.864841 
L 112.555433 25.947474 
L 112.283398 26.034434 
L 112.012777 26.1257 
L 111.743637 26.221247 
L 111.476048 26.321053 
L 111.210076 26.425091 
L 110.945788 26.533337 
L 110.68325 26.645762 
L 110.42253 26.762338 
L 110.163692 26.883037 
L 109.906801 27.007826 
L 109.651923 27.136676 
L 109.399121 27.269554 
L 109.148459 27.406425 
L 108.9 27.547257 
L 108.653807 27.692013 
L 108.409942 27.840657 
L 108.168465 27.993151 
L 107.929439 28.149457 
L 107.692922 28.309536 
L 107.458976 28.473347 
L 107.227657 28.64085 
L 106.999026 28.812001 
L 106.773138 28.986759 
L 106.550052 29.165078 
L 106.329823 29.346914 
L 106.112507 29.532222 
L 105.898158 29.720954 
L 105.686831 29.913064 
L 105.478578 30.108502 
L 105.273452 30.307219 
L 105.071505 30.509166 
L 104.872787 30.714292 
L 104.677349 30.922545 
L 104.48524 31.133872 
L 104.296508 31.348221 
L 104.1112 31.565537 
L 103.929364 31.785766 
L 103.751044 32.008853 
L 103.576287 32.23474 
L 103.405135 32.463372 
L 103.237633 32.69469 
L 103.073822 32.928637 
L 102.913743 33.165153 
L 102.757436 33.40418 
L 102.604942 33.645656 
L 102.456299 33.889521 
L 102.311543 34.135714 
L 102.170711 34.384173 
L 102.033839 34.634835 
L 101.900962 34.887637 
L 101.772112 35.142515 
L 101.647322 35.399406 
L 101.526624 35.658244 
L 101.410048 35.918965 
L 101.297623 36.181502 
L 101.189377 36.44579 
L 101.085339 36.711762 
L 100.985533 36.979352 
L 100.889985 37.248491 
L 100.79872 37.519112 
L 100.71176 37.791148 
L 100.629126 38.064528 
L 100.550841 38.339186 
L 100.476923 38.615051 
L 100.407392 38.892053 
L 100.342264 39.170125 
L 100.281556 39.449194 
L 100.225283 39.729192 
L 100.17346 40.010047 
L 100.1261 40.291689 
L 100.083214 40.574047 
L 100.044813 40.85705 
L 100.010908 41.140627 
L 99.981505 41.424706 
L 99.956614 41.709215 
L 99.93624 41.994084 
L 99.920388 42.27924 
L 99.909062 42.564611 
L 99.902266 42.850127 
L 99.9 43.135714 
L 99.9 43.135714 
L 99.902266 43.421302 
L 99.909062 43.706817 
L 99.920388 43.992189 
L 99.93624 44.277345 
L 99.956614 44.562214 
L 99.981505 44.846723 
L 100.010908 45.130802 
L 100.044813 45.414378 
L 100.083214 45.697381 
L 100.1261 45.979739 
L 100.17346 46.261381 
L 100.225283 46.542237 
L 100.281556 46.822234 
L 100.342264 47.101304 
L 100.407392 47.379375 
L 100.476923 47.656378 
L 100.550841 47.932243 
L 100.629126 48.2069 
L 100.71176 48.480281 
L 100.79872 48.752316 
L 100.889985 49.022938 
L 100.985533 49.292077 
L 101.085339 49.559666 
L 101.189377 49.825638 
L 101.297623 50.089927 
L 101.410048 50.352464 
L 101.526624 50.613185 
L 101.647322 50.872023 
L 101.772112 51.128913 
L 101.900962 51.383792 
L 102.033839 51.636594 
L 102.170711 51.887256 
L 102.311543 52.135714 
L 102.456299 52.381907 
L 102.604942 52.625773 
L 102.757436 52.867249 
L 102.913743 53.106275 
L 103.073822 53.342792 
L 103.237633 53.576739 
L 103.405135 53.808057 
L 103.576287 54.036689 
L 103.751044 54.262576 
L 103.929364 54.485662 
L 104.1112 54.705891 
L 104.296508 54.923207 
L 104.48524 55.137556 
L 104.677349 55.348884 
L 104.872787 55.557136 
L 105.071505 55.762262 
L 105.273452 55.964209 
L 105.478578 56.162927 
L 105.686831 56.358365 
L 105.898158 56.550474 
L 106.112507 56.739207 
L 106.329823 56.924514 
L 106.550052 57.106351 
L 106.773138 57.28467 
L 106.999026 57.459427 
L 107.227657 57.630579 
L 107.458976 57.798081 
L 107.692922 57.961893 
L 107.929439 58.121972 
L 108.168465 58.278278 
L 108.409942 58.430772 
L 108.653807 58.579416 
L 108.9 58.724172 
L 109.148459 58.865003 
L 109.399121 59.001875 
L 109.651923 59.134752 
L 109.906801 59.263602 
L 110.163692 59.388392 
L 110.42253 59.50909 
L 110.68325 59.625667 
L 110.945788 59.738092 
L 111.210076 59.846337 
L 111.476048 59.950376 
L 111.743637 60.050181 
L 112.012777 60.145729 
L 112.283398 60.236994 
L 112.555433 60.323955 
L 112.828814 60.406588 
L 113.103471 60.484873 
L 113.379336 60.558791 
L 113.656339 60.628323 
L 113.93441 60.69345 
L 114.21348 60.754158 
L 114.493478 60.810431 
L 114.774333 60.862254 
L 115.055975 60.909614 
L 115.338333 60.9525 
L 115.621336 60.990901 
L 115.904912 61.024807 
L 116.188991 61.054209 
L 116.473501 61.0791 
L 116.758369 61.099474 
L 117.043526 61.115326 
L 117.328897 61.126652 
L 117.614413 61.133449 
L 117.9 61.135714 
L 153.9 61.135714 
z
" clip-path="url(#pef133da422)" style="fill: none; stroke: #000000; stroke-linecap: round"/>
   </g>
   <g id="patch_3">
    <path d="M 72.9 165.535714 
L 135.9 147.535714 
L 198.9 165.535714 
L 135.9 183.535714 
L 72.9 165.535714 
z
" clip-path="url(#pef133da422)" style="fill: none; stroke: #000000; stroke-linecap: round"/>
   </g>
   <g id="patch_4">
    <path d="M 306.9 183.535714 
L 307.185587 183.533449 
L 307.471103 183.526652 
L 307.756474 183.515326 
L 308.041631 183.499474 
L 308.326499 183.4791 
L 308.611009 183.454209 
L 308.895088 183.424807 
L 309.178664 183.390901 
L 309.461667 183.3525 
L 309.744025 183.309614 
L 310.025667 183.262254 
L 310.306522 183.210431 
L 310.58652 183.154158 
L 310.86559 183.09345 
L 311.143661 183.028323 
L 311.420664 182.958791 
L 311.696529 182.884873 
L 311.971186 182.806588 
L 312.244567 182.723955 
L 312.516602 182.636994 
L 312.787223 182.545729 
L 313.056363 182.450181 
L 313.323952 182.350376 
L 313.589924 182.246337 
L 313.854212 182.138092 
L 314.11675 182.025667 
L 314.37747 181.90909 
L 314.636308 181.788392 
L 314.893199 181.663602 
L 315.148077 181.534752 
L 315.400879 181.401875 
L 315.651541 181.265003 
L 315.9 181.124172 
L 316.146193 180.979416 
L 316.390058 180.830772 
L 316.631535 180.678278 
L 316.870561 180.521972 
L 317.107078 180.361893 
L 317.341024 180.198081 
L 317.572343 180.030579 
L 317.800974 179.859427 
L 318.026862 179.68467 
L 318.249948 179.506351 
L 318.470177 179.324514 
L 318.687493 179.139207 
L 318.901842 178.950474 
L 319.113169 178.758365 
L 319.321422 178.562927 
L 319.526548 178.364209 
L 319.728495 178.162262 
L 319.927213 177.957136 
L 320.122651 177.748884 
L 320.31476 177.537556 
L 320.503492 177.323207 
L 320.6888 177.105891 
L 320.870636 176.885662 
L 321.048956 176.662576 
L 321.223713 176.436689 
L 321.394865 176.208057 
L 321.562367 175.976739 
L 321.726178 175.742792 
L 321.886257 175.506275 
L 322.042564 175.267249 
L 322.195058 175.025773 
L 322.343701 174.781907 
L 322.488457 174.535714 
L 322.629289 174.287256 
L 322.766161 174.036594 
L 322.899038 173.783792 
L 323.027888 173.528913 
L 323.152678 173.272023 
L 323.273376 173.013185 
L 323.389952 172.752464 
L 323.502377 172.489927 
L 323.610623 172.225638 
L 323.714661 171.959666 
L 323.814467 171.692077 
L 323.910015 171.422938 
L 324.00128 171.152316 
L 324.08824 170.880281 
L 324.170874 170.6069 
L 324.249159 170.332243 
L 324.323077 170.056378 
L 324.392608 169.779375 
L 324.457736 169.501304 
L 324.518444 169.222234 
L 324.574717 168.942237 
L 324.62654 168.661381 
L 324.6739 168.379739 
L 324.716786 168.097381 
L 324.755187 167.814378 
L 324.789092 167.530802 
L 324.818495 167.246723 
L 324.843386 166.962214 
L 324.86376 166.677345 
L 324.879612 166.392189 
L 324.890938 166.106817 
L 324.897734 165.821302 
L 324.9 165.535714 
L 324.9 165.535714 
L 324.897734 165.250127 
L 324.890938 164.964611 
L 324.879612 164.67924 
L 324.86376 164.394084 
L 324.843386 164.109215 
L 324.818495 163.824706 
L 324.789092 163.540627 
L 324.755187 163.25705 
L 324.716786 162.974047 
L 324.6739 162.691689 
L 324.62654 162.410047 
L 324.574717 162.129192 
L 324.518444 161.849194 
L 324.457736 161.570125 
L 324.392608 161.292053 
L 324.323077 161.015051 
L 324.249159 160.739186 
L 324.170874 160.464528 
L 324.08824 160.191148 
L 324.00128 159.919112 
L 323.910015 159.648491 
L 323.814467 159.379352 
L 323.714661 159.111762 
L 323.610623 158.84579 
L 323.502377 158.581502 
L 323.389952 158.318965 
L 323.273376 158.058244 
L 323.152678 157.799406 
L 323.027888 157.542515 
L 322.899038 157.287637 
L 322.766161 157.034835 
L 322.629289 156.784173 
L 322.488457 156.535714 
L 322.343701 156.289521 
L 322.195058 156.045656 
L 322.042564 155.80418 
L 321.886257 155.565153 
L 321.726178 155.328637 
L 321.562367 155.09469 
L 321.394865 154.863372 
L 321.223713 154.63474 
L 321.048956 154.408853 
L 320.870636 154.185766 
L 320.6888 153.965537 
L 320.503492 153.748221 
L 320.31476 153.533872 
L 320.122651 153.322545 
L 319.927213 153.114292 
L 319.728495 152.909166 
L 319.526548 152.707219 
L 319.321422 152.508502 
L 319.113169 152.313064 
L 318.901842 152.120954 
L 318.687493 151.932222 
L 318.470177 151.746914 
L 318.249948 151.565078 
L 318.026862 151.386759 
L 317.800974 151.212001 
L 317.572343 151.04085 
L 317.341024 150.873347 
L 317.107078 150.709536 
L 316.870561 150.549457 
L 316.631535 150.393151 
L 316.390058 150.240657 
L 316.146193 150.092013 
L 315.9 149.947257 
L 315.651541 149.806425 
L 315.400879 149.669554 
L 315.148077 149.536676 
L 314.893199 149.407826 
L 314.636308 149.283037 
L 314.37747 149.162338 
L 314.11675 149.045762 
L 313.854212 148.933337 
L 313.589924 148.825091 
L 313.323952 148.721053 
L 313.056363 148.621247 
L 312.787223 148.5257 
L 312.516602 148.434434 
L 312.244567 148.347474 
L 311.971186 148.264841 
L 311.696529 148.186555 
L 311.420664 148.112638 
L 311.143661 148.043106 
L 310.86559 147.977978 
L 310.58652 147.91727 
L 310.306522 147.860998 
L 310.025667 147.809175 
L 309.744025 147.761814 
L 309.461667 147.718928 
L 309.178664 147.680528 
L 308.895088 147.646622 
L 308.611009 147.61722 
L 308.326499 147.592328 
L 308.041631 147.571954 
L 307.756474 147.556102 
L 307.471103 147.544777 
L 307.185587 147.53798 
L 306.9 147.535714 
L 270.9 147.535714 
L 270.614413 147.53798 
L 270.328897 147.544777 
L 270.043526 147.556102 
L 269.758369 147.571954 
L 269.473501 147.592328 
L 269.188991 147.61722 
L 268.904912 147.646622 
L 268.621336 147.680528 
L 268.338333 147.718928 
L 268.055975 147.761814 
L 267.774333 147.809175 
L 267.493478 147.860998 
L 267.21348 147.91727 
L 266.93441 147.977978 
L 266.656339 148.043106 
L 266.379336 148.112638 
L 266.103471 148.186555 
L 265.828814 148.264841 
L 265.555433 148.347474 
L 265.283398 148.434434 
L 265.012777 148.5257 
L 264.743637 148.621247 
L 264.476048 148.721053 
L 264.210076 148.825091 
L 263.945788 148.933337 
L 263.68325 149.045762 
L 263.42253 149.162338 
L 263.163692 149.283037 
L 262.906801 149.407826 
L 262.651923 149.536676 
L 262.399121 149.669554 
L 262.148459 149.806425 
L 261.9 149.947257 
L 261.653807 150.092013 
L 261.409942 150.240657 
L 261.168465 150.393151 
L 260.929439 150.549457 
L 260.692922 150.709536 
L 260.458976 150.873347 
L 260.227657 151.04085 
L 259.999026 151.212001 
L 259.773138 151.386759 
L 259.550052 151.565078 
L 259.329823 151.746914 
L 259.112507 151.932222 
L 258.898158 152.120954 
L 258.686831 152.313064 
L 258.478578 152.508502 
L 258.273452 152.707219 
L 258.071505 152.909166 
L 257.872787 153.114292 
L 257.677349 153.322545 
L 257.48524 153.533872 
L 257.296508 153.748221 
L 257.1112 153.965537 
L 256.929364 154.185766 
L 256.751044 154.408853 
L 256.576287 154.63474 
L 256.405135 154.863372 
L 256.237633 155.09469 
L 256.073822 155.328637 
L 255.913743 155.565153 
L 255.757436 155.80418 
L 255.604942 156.045656 
L 255.456299 156.289521 
L 255.311543 156.535714 
L 255.170711 156.784173 
L 255.033839 157.034835 
L 254.900962 157.287637 
L 254.772112 157.542515 
L 254.647322 157.799406 
L 254.526624 158.058244 
L 254.410048 158.318965 
L 254.297623 158.581502 
L 254.189377 158.84579 
L 254.085339 159.111762 
L 253.985533 159.379352 
L 253.889985 159.648491 
L 253.79872 159.919112 
L 253.71176 160.191148 
L 253.629126 160.464528 
L 253.550841 160.739186 
L 253.476923 161.015051 
L 253.407392 161.292053 
L 253.342264 161.570125 
L 253.281556 161.849194 
L 253.225283 162.129192 
L 253.17346 162.410047 
L 253.1261 162.691689 
L 253.083214 162.974047 
L 253.044813 163.25705 
L 253.010908 163.540627 
L 252.981505 163.824706 
L 252.956614 164.109215 
L 252.93624 164.394084 
L 252.920388 164.67924 
L 252.909062 164.964611 
L 252.902266 165.250127 
L 252.9 165.535714 
L 252.9 165.535714 
L 252.902266 165.821302 
L 252.909062 166.106817 
L 252.920388 166.392189 
L 252.93624 166.677345 
L 252.956614 166.962214 
L 252.981505 167.246723 
L 253.010908 167.530802 
L 253.044813 167.814378 
L 253.083214 168.097381 
L 253.1261 168.379739 
L 253.17346 168.661381 
L 253.225283 168.942237 
L 253.281556 169.222234 
L 253.342264 169.501304 
L 253.407392 169.779375 
L 253.476923 170.056378 
L 253.550841 170.332243 
L 253.629126 170.6069 
L 253.71176 170.880281 
L 253.79872 171.152316 
L 253.889985 171.422938 
L 253.985533 171.692077 
L 254.085339 171.959666 
L 254.189377 172.225638 
L 254.297623 172.489927 
L 254.410048 172.752464 
L 254.526624 173.013185 
L 254.647322 173.272023 
L 254.772112 173.528913 
L 254.900962 173.783792 
L 255.033839 174.036594 
L 255.170711 174.287256 
L 255.311543 174.535714 
L 255.456299 174.781907 
L 255.604942 175.025773 
L 255.757436 175.267249 
L 255.913743 175.506275 
L 256.073822 175.742792 
L 256.237633 175.976739 
L 256.405135 176.208057 
L 256.576287 176.436689 
L 256.751044 176.662576 
L 256.929364 176.885662 
L 257.1112 177.105891 
L 257.296508 177.323207 
L 257.48524 177.537556 
L 257.677349 177.748884 
L 257.872787 177.957136 
L 258.071505 178.162262 
L 258.273452 178.364209 
L 258.478578 178.562927 
L 258.686831 178.758365 
L 258.898158 178.950474 
L 259.112507 179.139207 
L 259.329823 179.324514 
L 259.550052 179.506351 
L 259.773138 179.68467 
L 259.999026 179.859427 
L 260.227657 180.030579 
L 260.458976 180.198081 
L 260.692922 180.361893 
L 260.929439 180.521972 
L 261.168465 180.678278 
L 261.409942 180.830772 
L 261.653807 180.979416 
L 261.9 181.124172 
L 262.148459 181.265003 
L 262.399121 181.401875 
L 262.651923 181.534752 
L 262.906801 181.663602 
L 263.163692 181.788392 
L 263.42253 181.90909 
L 263.68325 182.025667 
L 263.945788 182.138092 
L 264.210076 182.246337 
L 264.476048 182.350376 
L 264.743637 182.450181 
L 265.012777 182.545729 
L 265.283398 182.636994 
L 265.555433 182.723955 
L 265.828814 182.806588 
L 266.103471 182.884873 
L 266.379336 182.958791 
L 266.656339 183.028323 
L 266.93441 183.09345 
L 267.21348 183.154158 
L 267.493478 183.210431 
L 267.774333 183.262254 
L 268.055975 183.309614 
L 268.338333 183.3525 
L 268.621336 183.390901 
L 268.904912 183.424807 
L 269.188991 183.454209 
L 269.473501 183.4791 
L 269.758369 183.499474 
L 270.043526 183.515326 
L 270.328897 183.526652 
L 270.614413 183.533449 
L 270.9 183.535714 
L 306.9 183.535714 
z
" clip-path="url(#pef133da422)" style="fill: none; stroke: #000000; stroke-linecap: round"/>
   </g>
   <g id="patch_5">
    <path d="M 72.9 367.392857 
L 135.9 345.792857 
L 198.9 367.392857 
L 135.9 388.992857 
L 72.9 367.392857 
z
" clip-path="url(#pef133da422)" style="fill: none; stroke: #000000; stroke-linecap: round"/>
   </g>
   <g id="patch_6">
    <path d="M 153.9 455.85 
L 154.185587 455.847734 
L 154.471103 455.840938 
L 154.756474 455.829612 
L 155.041631 455.81376 
L 155.326499 455.793386 
L 155.611009 455.768495 
L 155.895088 455.739092 
L 156.178664 455.705187 
L 156.461667 455.666786 
L 156.744025 455.6239 
L 157.025667 455.57654 
L 157.306522 455.524717 
L 157.58652 455.468444 
L 157.86559 455.407736 
L 158.143661 455.342608 
L 158.420664 455.273077 
L 158.696529 455.199159 
L 158.971186 455.120874 
L 159.244567 455.03824 
L 159.516602 454.95128 
L 159.787223 454.860015 
L 160.056363 454.764467 
L 160.323952 454.664661 
L 160.589924 454.560623 
L 160.854212 454.452377 
L 161.11675 454.339952 
L 161.37747 454.223376 
L 161.636308 454.102678 
L 161.893199 453.977888 
L 162.148077 453.849038 
L 162.400879 453.716161 
L 162.651541 453.579289 
L 162.9 453.438457 
L 163.146193 453.293701 
L 163.390058 453.145058 
L 163.631535 452.992564 
L 163.870561 452.836257 
L 164.107078 452.676178 
L 164.341024 452.512367 
L 164.572343 452.344865 
L 164.800974 452.173713 
L 165.026862 451.998956 
L 165.249948 451.820636 
L 165.470177 451.6388 
L 165.687493 451.453492 
L 165.901842 451.26476 
L 166.113169 451.072651 
L 166.321422 450.877213 
L 166.526548 450.678495 
L 166.728495 450.476548 
L 166.927213 450.271422 
L 167.122651 450.063169 
L 167.31476 449.851842 
L 167.503492 449.637493 
L 167.6888 449.420177 
L 167.870636 449.199948 
L 168.048956 448.976862 
L 168.223713 448.750974 
L 168.394865 448.522343 
L 168.562367 448.291024 
L 168.726178 448.057078 
L 168.886257 447.820561 
L 169.042564 447.581535 
L 169.195058 447.340058 
L 169.343701 447.096193 
L 169.488457 446.85 
L 169.629289 446.601541 
L 169.766161 446.350879 
L 169.899038 446.098077 
L 170.027888 445.843199 
L 170.152678 445.586308 
L 170.273376 445.32747 
L 170.389952 445.06675 
L 170.502377 444.804212 
L 170.610623 444.539924 
L 170.714661 444.273952 
L 170.814467 444.006363 
L 170.910015 443.737223 
L 171.00128 443.466602 
L 171.08824 443.194567 
L 171.170874 442.921186 
L 171.249159 442.646529 
L 171.323077 442.370664 
L 171.392608 442.093661 
L 171.457736 441.81559 
L 171.518444 441.53652 
L 171.574717 441.256522 
L 171.62654 440.975667 
L 171.6739 440.694025 
L 171.716786 440.411667 
L 171.755187 440.128664 
L 171.789092 439.845088 
L 171.818495 439.561009 
L 171.843386 439.276499 
L 171.86376 438.991631 
L 171.879612 438.706474 
L 171.890938 438.421103 
L 171.897734 438.135587 
L 171.9 437.85 
L 171.9 437.85 
L 171.897734 437.564413 
L 171.890938 437.278897 
L 171.879612 436.993526 
L 171.86376 436.708369 
L 171.843386 436.423501 
L 171.818495 436.138991 
L 171.789092 435.854912 
L 171.755187 435.571336 
L 171.716786 435.288333 
L 171.6739 435.005975 
L 171.62654 434.724333 
L 171.574717 434.443478 
L 171.518444 434.16348 
L 171.457736 433.88441 
L 171.392608 433.606339 
L 171.323077 433.329336 
L 171.249159 433.053471 
L 171.170874 432.778814 
L 171.08824 432.505433 
L 171.00128 432.233398 
L 170.910015 431.962777 
L 170.814467 431.693637 
L 170.714661 431.426048 
L 170.610623 431.160076 
L 170.502377 430.895788 
L 170.389952 430.63325 
L 170.273376 430.37253 
L 170.152678 430.113692 
L 170.027888 429.856801 
L 169.899038 429.601923 
L 169.766161 429.349121 
L 169.629289 429.098459 
L 169.488457 428.85 
L 169.343701 428.603807 
L 169.195058 428.359942 
L 169.042564 428.118465 
L 168.886257 427.879439 
L 168.726178 427.642922 
L 168.562367 427.408976 
L 168.394865 427.177657 
L 168.223713 426.949026 
L 168.048956 426.723138 
L 167.870636 426.500052 
L 167.6888 426.279823 
L 167.503492 426.062507 
L 167.31476 425.848158 
L 167.122651 425.636831 
L 166.927213 425.428578 
L 166.728495 425.223452 
L 166.526548 425.021505 
L 166.321422 424.822787 
L 166.113169 424.627349 
L 165.901842 424.43524 
L 165.687493 424.246508 
L 165.470177 424.0612 
L 165.249948 423.879364 
L 165.026862 423.701044 
L 164.800974 423.526287 
L 164.572343 423.355135 
L 164.341024 423.187633 
L 164.107078 423.023822 
L 163.870561 422.863743 
L 163.631535 422.707436 
L 163.390058 422.554942 
L 163.146193 422.406299 
L 162.9 422.261543 
L 162.651541 422.120711 
L 162.400879 421.983839 
L 162.148077 421.850962 
L 161.893199 421.722112 
L 161.636308 421.597322 
L 161.37747 421.476624 
L 161.11675 421.360048 
L 160.854212 421.247623 
L 160.589924 421.139377 
L 160.323952 421.035339 
L 160.056363 420.935533 
L 159.787223 420.839985 
L 159.516602 420.74872 
L 159.244567 420.66176 
L 158.971186 420.579126 
L 158.696529 420.500841 
L 158.420664 420.426923 
L 158.143661 420.357392 
L 157.86559 420.292264 
L 157.58652 420.231556 
L 157.306522 420.175283 
L 157.025667 420.12346 
L 156.744025 420.0761 
L 156.461667 420.033214 
L 156.178664 419.994813 
L 155.895088 419.960908 
L 155.611009 419.931505 
L 155.326499 419.906614 
L 155.041631 419.88624 
L 154.756474 419.870388 
L 154.471103 419.859062 
L 154.185587 419.852266 
L 153.9 419.85 
L 117.9 419.85 
L 117.614413 419.852266 
L 117.328897 419.859062 
L 117.043526 419.870388 
L 116.758369 419.88624 
L 116.473501 419.906614 
L 116.188991 419.931505 
L 115.904912 419.960908 
L 115.621336 419.994813 
L 115.338333 420.033214 
L 115.055975 420.0761 
L 114.774333 420.12346 
L 114.493478 420.175283 
L 114.21348 420.231556 
L 113.93441 420.292264 
L 113.656339 420.357392 
L 113.379336 420.426923 
L 113.103471 420.500841 
L 112.828814 420.579126 
L 112.555433 420.66176 
L 112.283398 420.74872 
L 112.012777 420.839985 
L 111.743637 420.935533 
L 111.476048 421.035339 
L 111.210076 421.139377 
L 110.945788 421.247623 
L 110.68325 421.360048 
L 110.42253 421.476624 
L 110.163692 421.597322 
L 109.906801 421.722112 
L 109.651923 421.850962 
L 109.399121 421.983839 
L 109.148459 422.120711 
L 108.9 422.261543 
L 108.653807 422.406299 
L 108.409942 422.554942 
L 108.168465 422.707436 
L 107.929439 422.863743 
L 107.692922 423.023822 
L 107.458976 423.187633 
L 107.227657 423.355135 
L 106.999026 423.526287 
L 106.773138 423.701044 
L 106.550052 423.879364 
L 106.329823 424.0612 
L 106.112507 424.246508 
L 105.898158 424.43524 
L 105.686831 424.627349 
L 105.478578 424.822787 
L 105.273452 425.021505 
L 105.071505 425.223452 
L 104.872787 425.428578 
L 104.677349 425.636831 
L 104.48524 425.848158 
L 104.296508 426.062507 
L 104.1112 426.279823 
L 103.929364 426.500052 
L 103.751044 426.723138 
L 103.576287 426.949026 
L 103.405135 427.177657 
L 103.237633 427.408976 
L 103.073822 427.642922 
L 102.913743 427.879439 
L 102.757436 428.118465 
L 102.604942 428.359942 
L 102.456299 428.603807 
L 102.311543 428.85 
L 102.170711 429.098459 
L 102.033839 429.349121 
L 101.900962 429.601923 
L 101.772112 429.856801 
L 101.647322 430.113692 
L 101.526624 430.37253 
L 101.410048 430.63325 
L 101.297623 430.895788 
L 101.189377 431.160076 
L 101.085339 431.426048 
L 100.985533 431.693637 
L 100.889985 431.962777 
L 100.79872 432.233398 
L 100.71176 432.505433 
L 100.629126 432.778814 
L 100.550841 433.053471 
L 100.476923 433.329336 
L 100.407392 433.606339 
L 100.342264 433.88441 
L 100.281556 434.16348 
L 100.225283 434.443478 
L 100.17346 434.724333 
L 100.1261 435.005975 
L 100.083214 435.288333 
L 100.044813 435.571336 
L 100.010908 435.854912 
L 99.981505 436.138991 
L 99.956614 436.423501 
L 99.93624 436.708369 
L 99.920388 436.993526 
L 99.909062 437.278897 
L 99.902266 437.564413 
L 99.9 437.85 
L 99.9 437.85 
L 99.902266 438.135587 
L 99.909062 438.421103 
L 99.920388 438.706474 
L 99.93624 438.991631 
L 99.956614 439.276499 
L 99.981505 439.561009 
L 100.010908 439.845088 
L 100.044813 440.128664 
L 100.083214 440.411667 
L 100.1261 440.694025 
L 100.17346 440.975667 
L 100.225283 441.256522 
L 100.281556 441.53652 
L 100.342264 441.81559 
L 100.407392 442.093661 
L 100.476923 442.370664 
L 100.550841 442.646529 
L 100.629126 442.921186 
L 100.71176 443.194567 
L 100.79872 443.466602 
L 100.889985 443.737223 
L 100.985533 444.006363 
L 101.085339 444.273952 
L 101.189377 444.539924 
L 101.297623 444.804212 
L 101.410048 445.06675 
L 101.526624 445.32747 
L 101.647322 445.586308 
L 101.772112 445.843199 
L 101.900962 446.098077 
L 102.033839 446.350879 
L 102.170711 446.601541 
L 102.311543 446.85 
L 102.456299 447.096193 
L 102.604942 447.340058 
L 102.757436 447.581535 
L 102.913743 447.820561 
L 103.073822 448.057078 
L 103.237633 448.291024 
L 103.405135 448.522343 
L 103.576287 448.750974 
L 103.751044 448.976862 
L 103.929364 449.199948 
L 104.1112 449.420177 
L 104.296508 449.637493 
L 104.48524 449.851842 
L 104.677349 450.063169 
L 104.872787 450.271422 
L 105.071505 450.476548 
L 105.273452 450.678495 
L 105.478578 450.877213 
L 105.686831 451.072651 
L 105.898158 451.26476 
L 106.112507 451.453492 
L 106.329823 451.6388 
L 106.550052 451.820636 
L 106.773138 451.998956 
L 106.999026 452.173713 
L 107.227657 452.344865 
L 107.458976 452.512367 
L 107.692922 452.676178 
L 107.929439 452.836257 
L 108.168465 452.992564 
L 108.409942 453.145058 
L 108.653807 453.293701 
L 108.9 453.438457 
L 109.148459 453.579289 
L 109.399121 453.716161 
L 109.651923 453.849038 
L 109.906801 453.977888 
L 110.163692 454.102678 
L 110.42253 454.223376 
L 110.68325 454.339952 
L 110.945788 454.452377 
L 111.210076 454.560623 
L 111.476048 454.664661 
L 111.743637 454.764467 
L 112.012777 454.860015 
L 112.283398 454.95128 
L 112.555433 455.03824 
L 112.828814 455.120874 
L 113.103471 455.199159 
L 113.379336 455.273077 
L 113.656339 455.342608 
L 113.93441 455.407736 
L 114.21348 455.468444 
L 114.493478 455.524717 
L 114.774333 455.57654 
L 115.055975 455.6239 
L 115.338333 455.666786 
L 115.621336 455.705187 
L 115.904912 455.739092 
L 116.188991 455.768495 
L 116.473501 455.793386 
L 116.758369 455.81376 
L 117.043526 455.829612 
L 117.328897 455.840938 
L 117.614413 455.847734 
L 117.9 455.85 
L 153.9 455.85 
z
" clip-path="url(#pef133da422)" style="fill: none; stroke: #000000; stroke-linecap: round"/>
   </g>
   <g id="line2d_1">
    <path d="M 135.9 61.135714 
L 135.9 74.635714 
L 135.9 79.135714 
" clip-path="url(#pef133da422)" style="fill: none; stroke: #000000; stroke-linecap: round"/>
   </g>
   <g id="patch_7">
    <path d="M 138.6 79.135714 
L 135.9 88.135714 
L 133.2 79.135714 
z
" clip-path="url(#pef133da422)"/>
   </g>
   <g id="line2d_2">
    <path d="M 90.9 104.335714 
L 90.9 88.135714 
L 180.9 88.135714 
L 180.9 120.535714 
L 90.9 120.535714 
L 90.9 104.335714 
" clip-path="url(#pef133da422)" style="fill: none; stroke: #000000; stroke-linecap: round"/>
   </g>
   <g id="line2d_3">
    <path d="M 135.9 120.535714 
L 135.9 134.035714 
L 135.9 138.535714 
" clip-path="url(#pef133da422)" style="fill: none; stroke: #000000; stroke-linecap: round"/>
   </g>
   <g id="patch_8">
    <path d="M 138.6 138.535714 
L 135.9 147.535714 
L 133.2 138.535714 
z
" clip-path="url(#pef133da422)"/>
   </g>
   <g id="line2d_4">
    <path d="M 198.9 165.535714 
L 225.9 165.535714 
L 243.9 165.535714 
" clip-path="url(#pef133da422)" style="fill: none; stroke-dasharray: 3.7,1.6; stroke-dashoffset: 0; stroke: #000000"/>
   </g>
   <g id="patch_9">
    <path d="M 243.9 162.835714 
L 252.9 165.535714 
L 243.9 168.235714 
z
" clip-path="url(#pef133da422)"/>
   </g>
   <g id="line2d_5">
    <path d="M 135.9 183.535714 
L 135.9 201.535714 
L 135.9 210.535714 
" clip-path="url(#pef133da422)" style="fill: none; stroke: #000000; stroke-linecap: round"/>
   </g>
   <g id="patch_10">
    <path d="M 138.6 210.535714 
L 135.9 219.535714 
L 133.2 210.535714 
z
" clip-path="url(#pef133da422)"/>
   </g>
   <g id="line2d_6">
    <path d="M 81.9 237.535714 
L 81.9 219.535714 
L 189.9 219.535714 
L 189.9 255.535714 
L 81.9 255.535714 
L 81.9 237.535714 
" clip-path="url(#pef133da422)" style="fill: none; stroke: #000000; stroke-linecap: round"/>
   </g>
   <g id="line2d_7">
    <path d="M 135.9 255.535714 
L 135.9 269.035714 
L 135.9 273.535714 
" clip-path="url(#pef133da422)" style="fill: none; stroke: #000000; stroke-linecap: round"/>
   </g>
   <g id="patch_11">
    <path d="M 138.6 273.535714 
L 135.9 282.535714 
L 133.2 273.535714 
z
" clip-path="url(#pef133da422)"/>
   </g>
   <g id="line2d_8">
    <path d="M 90.9 298.735714 
L 90.9 282.535714 
L 180.9 282.535714 
L 180.9 314.935714 
L 90.9 314.935714 
L 90.9 298.735714 
" clip-path="url(#pef133da422)" style="fill: none; stroke: #000000; stroke-linecap: round"/>
   </g>
   <g id="line2d_9">
    <path d="M 135.9 314.935714 
L 135.9 330.364286 
L 135.9 336.792857 
" clip-path="url(#pef133da422)" style="fill: none; stroke: #000000; stroke-linecap: round"/>
   </g>
   <g id="patch_12">
    <path d="M 138.6 336.792857 
L 135.9 345.792857 
L 133.2 336.792857 
z
" clip-path="url(#pef133da422)"/>
   </g>
   <g id="line2d_10">
    <path d="M 135.9 388.992857 
L 135.9 404.421429 
L 135.9 410.85 
" clip-path="url(#pef133da422)" style="fill: none; stroke: #000000; stroke-linecap: round"/>
   </g>
   <g id="patch_13">
    <path d="M 138.6 410.85 
L 135.9 419.85 
L 133.2 410.85 
z
" clip-path="url(#pef133da422)"/>
   </g>
   <g id="line2d_11">
    <path d="M 72.9 367.392857 
L 45.9 367.392857 
L 18.9 367.392857 
" clip-path="url(#pef133da422)" style="fill: none; stroke: #000000; stroke-linecap: round"/>
   </g>
   <g id="line2d_12">
    <path d="M 18.9 367.392857 
L 18.9 165.535714 
L 63.9 165.535714 
" clip-path="url(#pef133da422)" style="fill: none; stroke: #000000; stroke-linecap: round"/>
   </g>
   <g id="patch_14">
    <path d="M 63.9 162.835714 
L 72.9 165.535714 
L 63.9 168.235714 
z
" clip-path="url(#pef133da422)"/>
   </g>
   <g id="text_1">
    <!-- START -->
    <g transform="translate(116.723242 46.629855) scale(0.125 -0.125)">
     <defs>
      <path id="IPAexGothic-53" d="M 2919 3641 
Q 2563 4259 1853 4259 
Q 1453 4259 1213 4009 
Q 1028 3803 1028 3534 
Q 1028 3238 1266 3047 
Q 1444 2913 1984 2688 
L 2200 2597 
Q 2925 2306 3191 1953 
Q 3422 1644 3422 1259 
Q 3422 644 2969 288 
Q 2559 -31 1931 -31 
Q 881 -31 313 766 
L 753 1100 
Q 1203 459 1938 459 
Q 2288 459 2534 625 
Q 2841 847 2841 1216 
Q 2841 1503 2616 1728 
Q 2375 1959 1728 2206 
L 1541 2278 
Q 453 2694 453 3481 
Q 453 4006 806 4347 
Q 1203 4725 1863 4725 
Q 2841 4725 3359 3956 
L 2919 3641 
z
" transform="scale(0.015625)"/>
      <path id="IPAexGothic-54" d="M 3866 4141 
L 2175 4141 
L 2175 63 
L 1606 63 
L 1606 4141 
L -31 4141 
L -31 4634 
L 3866 4634 
L 3866 4141 
z
" transform="scale(0.015625)"/>
      <path id="IPAexGothic-41" d="M 4056 63 
L 3444 63 
L 2938 1409 
L 1100 1409 
L 603 63 
L -6 63 
L 1806 4666 
L 2259 4666 
L 4056 63 
z
M 2778 1863 
L 2316 3078 
Q 2125 3588 2028 4000 
L 2009 4000 
Q 1897 3563 1716 3078 
L 1263 1863 
L 2778 1863 
z
" transform="scale(0.015625)"/>
      <path id="IPAexGothic-52" d="M 4072 63 
L 3394 63 
Q 3138 641 2828 1197 
Q 2584 1641 2344 1825 
Q 2050 2044 1625 2044 
L 1172 2044 
L 1172 63 
L 609 63 
L 609 4634 
L 2009 4634 
Q 2713 4634 3131 4378 
Q 3688 4044 3688 3381 
Q 3688 2784 3181 2459 
Q 2906 2272 2522 2216 
L 2522 2197 
Q 2941 2050 3247 1581 
Q 3516 1166 4072 63 
z
M 1172 2478 
L 1869 2478 
Q 3106 2478 3106 3369 
Q 3106 4181 1928 4181 
L 1172 4181 
L 1172 2478 
z
" transform="scale(0.015625)"/>
     </defs>
     <use xlink:href="#IPAexGothic-53"/>
     <use xlink:href="#IPAexGothic-54" x="58.496094"/>
     <use xlink:href="#IPAexGothic-41" x="118.408203"/>
     <use xlink:href="#IPAexGothic-52" x="182.128906"/>
     <use xlink:href="#IPAexGothic-54" x="246.923828"/>
    </g>
   </g>
   <g id="text_2">
    <!-- counter = 0 -->
    <g transform="translate(101.59043 107.829855) scale(0.125 -0.125)">
     <defs>
      <path id="IPAexGothic-63" d="M 3269 784 
Q 2834 -31 1900 -31 
Q 1228 -31 788 409 
Q 313 891 313 1663 
Q 313 2428 788 2913 
Q 1222 3347 1881 3347 
Q 2813 3347 3206 2541 
L 2763 2309 
Q 2484 2900 1900 2900 
Q 1516 2900 1234 2619 
Q 881 2266 881 1650 
Q 881 1069 1222 728 
Q 1522 428 1956 428 
Q 2547 428 2847 1016 
L 3269 784 
z
" transform="scale(0.015625)"/>
      <path id="IPAexGothic-6f" d="M 1919 3341 
Q 2594 3341 3056 2888 
Q 3531 2413 3531 1638 
Q 3531 888 3066 422 
Q 2609 -31 1919 -31 
Q 1228 -31 781 416 
Q 313 881 313 1656 
Q 313 2413 788 2888 
Q 1241 3341 1919 3341 
z
M 1919 2919 
Q 1519 2919 1241 2631 
Q 888 2278 888 1650 
Q 888 1031 1234 684 
Q 1516 403 1919 403 
Q 2331 403 2609 691 
Q 2956 1038 2956 1672 
Q 2956 2269 2603 2631 
Q 2316 2919 1919 2919 
z
" transform="scale(0.015625)"/>
      <path id="IPAexGothic-75" d="M 3284 63 
L 2772 63 
L 2772 644 
Q 2300 0 1625 0 
Q 1072 0 763 375 
Q 519 678 519 1241 
L 519 3250 
L 1069 3250 
L 1069 1259 
Q 1069 466 1734 466 
Q 2406 466 2734 1291 
L 2734 3250 
L 3284 3250 
L 3284 63 
z
" transform="scale(0.015625)"/>
      <path id="IPAexGothic-6e" d="M 3328 63 
L 2778 63 
L 2778 2041 
Q 2778 2853 2106 2853 
Q 1428 2853 1113 2041 
L 1113 63 
L 563 63 
L 563 3250 
L 1075 3250 
L 1075 2675 
Q 1525 3316 2222 3316 
Q 3328 3316 3328 2072 
L 3328 63 
z
" transform="scale(0.015625)"/>
      <path id="IPAexGothic-74" d="M 2125 241 
Q 1769 -6 1397 -6 
Q 653 -6 653 831 
L 653 2859 
L 219 2859 
L 219 3250 
L 653 3250 
L 653 3966 
L 1178 4228 
L 1178 3250 
L 2063 3250 
L 2063 2859 
L 1178 2859 
L 1178 906 
Q 1178 416 1513 416 
Q 1738 416 1941 588 
L 2125 241 
z
" transform="scale(0.015625)"/>
      <path id="IPAexGothic-65" d="M 863 1594 
Q 891 1041 1209 722 
Q 1534 397 1997 397 
Q 2606 397 2963 966 
L 3322 728 
Q 2869 -31 1931 -31 
Q 1222 -31 766 422 
Q 306 884 306 1641 
Q 306 2444 788 2925 
Q 1216 3353 1856 3353 
Q 2459 3353 2866 2956 
Q 3322 2494 3322 1722 
L 3322 1594 
L 863 1594 
z
M 2756 1997 
Q 2709 2431 2450 2681 
Q 2194 2938 1844 2938 
Q 1438 2938 1150 2591 
Q 953 2356 894 1997 
L 2756 1997 
z
" transform="scale(0.015625)"/>
      <path id="IPAexGothic-72" d="M 2309 3316 
L 2213 2769 
Q 2106 2791 2022 2791 
Q 1653 2791 1413 2444 
Q 1113 2006 1113 1675 
L 1113 63 
L 563 63 
L 563 3250 
L 1081 3250 
L 1056 2303 
L 1069 2303 
Q 1422 3341 2097 3341 
Q 2206 3341 2309 3316 
z
" transform="scale(0.015625)"/>
      <path id="IPAexGothic-20" transform="scale(0.015625)"/>
      <path id="IPAexGothic-3d" d="M 416 2803 
L 3922 2803 
L 3922 2438 
L 416 2438 
L 416 2803 
z
M 416 1625 
L 3922 1625 
L 3922 1259 
L 416 1259 
L 416 1625 
z
" transform="scale(0.015625)"/>
      <path id="IPAexGothic-30" d="M 2038 4725 
Q 2881 4725 3334 3944 
Q 3694 3325 3694 2344 
Q 3694 1372 3334 741 
Q 2888 -31 2016 -31 
Q 1147 -31 700 741 
Q 341 1372 341 2350 
Q 341 3713 1000 4334 
Q 1419 4725 2038 4725 
z
M 2016 4266 
Q 1516 4266 1228 3759 
Q 934 3247 934 2344 
Q 934 1456 1222 947 
Q 1513 447 2016 447 
Q 2619 447 2909 1153 
Q 3100 1622 3100 2375 
Q 3100 3256 2806 3759 
Q 2509 4266 2016 4266 
z
" transform="scale(0.015625)"/>
     </defs>
     <use xlink:href="#IPAexGothic-63"/>
     <use xlink:href="#IPAexGothic-6f" x="54.394531"/>
     <use xlink:href="#IPAexGothic-75" x="114.794922"/>
     <use xlink:href="#IPAexGothic-6e" x="175.195312"/>
     <use xlink:href="#IPAexGothic-74" x="235.595703"/>
     <use xlink:href="#IPAexGothic-65" x="270.214844"/>
     <use xlink:href="#IPAexGothic-72" x="327.099609"/>
     <use xlink:href="#IPAexGothic-20" x="364.111328"/>
     <use xlink:href="#IPAexGothic-3d" x="391.113281"/>
     <use xlink:href="#IPAexGothic-20" x="458.935547"/>
     <use xlink:href="#IPAexGothic-30" x="485.9375"/>
    </g>
   </g>
   <g id="text_3">
    <!-- True -->
    <g transform="translate(140.58 197.578996) scale(0.125 -0.125)">
     <use xlink:href="#IPAexGothic-54"/>
     <use xlink:href="#IPAexGothic-72" x="59.912109"/>
     <use xlink:href="#IPAexGothic-75" x="96.923828"/>
     <use xlink:href="#IPAexGothic-65" x="157.324219"/>
    </g>
   </g>
   <g id="text_4">
    <!-- False -->
    <g transform="translate(203.58 158.480714) scale(0.125 -0.125)">
     <defs>
      <path id="IPAexGothic-46" d="M 3469 4141 
L 1172 4141 
L 1172 2656 
L 3206 2656 
L 3206 2188 
L 1172 2188 
L 1172 63 
L 609 63 
L 609 4634 
L 3469 4634 
L 3469 4141 
z
" transform="scale(0.015625)"/>
      <path id="IPAexGothic-61" d="M 3156 63 
L 2672 63 
Q 2559 303 2531 556 
L 2509 556 
Q 2147 -25 1428 -25 
Q 934 -25 622 288 
Q 347 563 347 959 
Q 347 1947 2050 1997 
L 2478 2009 
L 2478 2175 
Q 2478 2509 2288 2700 
Q 2088 2900 1775 2900 
Q 1238 2900 969 2378 
L 494 2597 
Q 938 3328 1788 3328 
Q 2375 3328 2691 3000 
Q 2984 2706 2984 2169 
L 2984 997 
Q 2984 400 3156 63 
z
M 2491 1625 
L 2141 1619 
Q 903 1591 903 953 
Q 903 728 1050 581 
Q 1231 403 1525 403 
Q 1934 403 2234 703 
Q 2491 969 2491 1344 
L 2491 1625 
z
" transform="scale(0.015625)"/>
      <path id="IPAexGothic-6c" d="M 1131 63 
L 581 63 
L 581 4794 
L 1131 4794 
L 1131 63 
z
" transform="scale(0.015625)"/>
      <path id="IPAexGothic-73" d="M 2234 2547 
Q 1938 2931 1484 2931 
Q 891 2931 891 2475 
Q 891 2153 1531 1944 
L 1741 1875 
Q 2650 1578 2650 894 
Q 2650 434 2272 172 
Q 1972 -31 1497 -31 
Q 766 -31 256 503 
L 603 819 
Q 997 397 1516 397 
Q 2131 397 2131 875 
Q 2131 1238 1453 1478 
L 1234 1553 
Q 378 1853 378 2431 
Q 378 2797 628 3047 
Q 928 3347 1453 3347 
Q 2156 3347 2606 2859 
L 2234 2547 
z
" transform="scale(0.015625)"/>
     </defs>
     <use xlink:href="#IPAexGothic-46"/>
     <use xlink:href="#IPAexGothic-61" x="57.177734"/>
     <use xlink:href="#IPAexGothic-6c" x="112.158203"/>
     <use xlink:href="#IPAexGothic-73" x="139.160156"/>
     <use xlink:href="#IPAexGothic-65" x="185.351562"/>
    </g>
   </g>
   <g id="text_5">
    <!-- True ？ -->
    <g transform="translate(114.573828 169.029855) scale(0.125 -0.125)">
     <defs>
      <path id="IPAexGothic-ff1f" d="M 1503 3444 
Q 1550 4184 1963 4616 
Q 2466 5128 3272 5128 
Q 3888 5128 4313 4853 
Q 4909 4469 4909 3778 
Q 4909 3059 4116 2563 
Q 3628 2250 3506 1881 
Q 3422 1650 3422 1228 
L 2853 1228 
Q 2863 1869 3053 2197 
Q 3281 2588 3847 2950 
Q 4341 3269 4341 3778 
Q 4341 4231 3975 4463 
Q 3697 4634 3266 4634 
Q 2656 4634 2341 4225 
Q 2109 3928 2091 3444 
L 1503 3444 
z
M 2763 647 
L 3506 647 
L 3506 -97 
L 2763 -97 
L 2763 647 
z
" transform="scale(0.015625)"/>
     </defs>
     <use xlink:href="#IPAexGothic-54"/>
     <use xlink:href="#IPAexGothic-72" x="59.912109"/>
     <use xlink:href="#IPAexGothic-75" x="96.923828"/>
     <use xlink:href="#IPAexGothic-65" x="157.324219"/>
     <use xlink:href="#IPAexGothic-20" x="214.208984"/>
     <use xlink:href="#IPAexGothic-ff1f" x="241.210938"/>
    </g>
   </g>
   <g id="text_6">
    <!-- END -->
    <g transform="translate(275.700781 169.029855) scale(0.125 -0.125)">
     <defs>
      <path id="IPAexGothic-45" d="M 3547 63 
L 609 63 
L 609 4634 
L 3469 4634 
L 3469 4147 
L 1166 4147 
L 1166 2650 
L 3206 2650 
L 3206 2191 
L 1166 2191 
L 1166 556 
L 3547 556 
L 3547 63 
z
" transform="scale(0.015625)"/>
      <path id="IPAexGothic-4e" d="M 4244 63 
L 3731 63 
L 1697 3150 
Q 1466 3500 1141 4097 
L 1116 4097 
L 1128 3797 
Q 1159 2803 1159 2469 
L 1159 63 
L 609 63 
L 609 4634 
L 1366 4634 
L 3113 1978 
Q 3453 1447 3713 966 
L 3738 966 
Q 3694 1897 3694 2469 
L 3694 4634 
L 4244 4634 
L 4244 63 
z
" transform="scale(0.015625)"/>
      <path id="IPAexGothic-44" d="M 609 4634 
L 1984 4634 
Q 3159 4634 3791 4050 
Q 4456 3444 4456 2356 
Q 4456 1047 3516 441 
Q 2925 63 1941 63 
L 609 63 
L 609 4634 
z
M 1172 556 
L 1894 556 
Q 3853 556 3853 2356 
Q 3853 4147 1928 4147 
L 1172 4147 
L 1172 556 
z
" transform="scale(0.015625)"/>
     </defs>
     <use xlink:href="#IPAexGothic-45"/>
     <use xlink:href="#IPAexGothic-4e" x="59.521484"/>
     <use xlink:href="#IPAexGothic-44" x="135.498047"/>
    </g>
   </g>
   <g id="text_7">
    <!-- print(counter) -->
    <g transform="translate(95.156836 241.14216) scale(0.125 -0.125)">
     <defs>
      <path id="IPAexGothic-70" d="M 1075 2688 
Q 1525 3341 2206 3341 
Q 2769 3341 3172 2938 
Q 3641 2469 3641 1644 
Q 3641 841 3178 372 
Q 2775 -31 2200 -31 
Q 1569 -31 1106 497 
L 1106 -1216 
L 563 -1216 
L 563 3250 
L 1075 3250 
L 1075 2688 
z
M 1106 1950 
L 1106 1291 
Q 1106 897 1516 600 
Q 1791 403 2106 403 
Q 2469 403 2725 659 
Q 3066 997 3066 1631 
Q 3066 2200 2784 2559 
Q 2503 2900 2100 2900 
Q 1656 2900 1338 2484 
Q 1106 2184 1106 1950 
z
" transform="scale(0.015625)"/>
      <path id="IPAexGothic-69" d="M 1178 3928 
L 550 3928 
L 550 4569 
L 1178 4569 
L 1178 3928 
z
M 1138 63 
L 588 63 
L 588 3250 
L 1138 3250 
L 1138 63 
z
" transform="scale(0.015625)"/>
      <path id="IPAexGothic-28" d="M 1928 -1016 
L 1653 -1166 
Q 488 69 488 1875 
Q 488 3678 1653 4909 
L 1928 4763 
Q 1006 3522 1006 1881 
Q 1006 203 1928 -1016 
z
" transform="scale(0.015625)"/>
      <path id="IPAexGothic-29" d="M 466 4909 
Q 1638 3672 1638 1875 
Q 1638 75 466 -1166 
L 191 -1016 
Q 1119 216 1119 1881 
Q 1119 3509 191 4763 
L 466 4909 
z
" transform="scale(0.015625)"/>
     </defs>
     <use xlink:href="#IPAexGothic-70"/>
     <use xlink:href="#IPAexGothic-72" x="62.109375"/>
     <use xlink:href="#IPAexGothic-69" x="99.121094"/>
     <use xlink:href="#IPAexGothic-6e" x="126.123047"/>
     <use xlink:href="#IPAexGothic-74" x="186.523438"/>
     <use xlink:href="#IPAexGothic-28" x="221.142578"/>
     <use xlink:href="#IPAexGothic-63" x="254.443359"/>
     <use xlink:href="#IPAexGothic-6f" x="308.837891"/>
     <use xlink:href="#IPAexGothic-75" x="369.238281"/>
     <use xlink:href="#IPAexGothic-6e" x="429.638672"/>
     <use xlink:href="#IPAexGothic-74" x="490.039062"/>
     <use xlink:href="#IPAexGothic-65" x="524.658203"/>
     <use xlink:href="#IPAexGothic-72" x="581.542969"/>
     <use xlink:href="#IPAexGothic-29" x="618.554688"/>
    </g>
   </g>
   <g id="text_8">
    <!-- counter += 1 -->
    <g transform="translate(97.351172 302.229855) scale(0.125 -0.125)">
     <defs>
      <path id="IPAexGothic-2b" d="M 2369 1856 
L 2369 219 
L 1984 219 
L 1984 1856 
L 416 1856 
L 416 2216 
L 1984 2216 
L 1984 3725 
L 2369 3725 
L 2369 2216 
L 3922 2216 
L 3922 1856 
L 2369 1856 
z
" transform="scale(0.015625)"/>
      <path id="IPAexGothic-31" d="M 2463 63 
L 1900 63 
L 1900 4103 
Q 1372 3922 788 3797 
L 684 4231 
Q 1519 4441 2106 4731 
L 2463 4731 
L 2463 63 
z
" transform="scale(0.015625)"/>
     </defs>
     <use xlink:href="#IPAexGothic-63"/>
     <use xlink:href="#IPAexGothic-6f" x="54.394531"/>
     <use xlink:href="#IPAexGothic-75" x="114.794922"/>
     <use xlink:href="#IPAexGothic-6e" x="175.195312"/>
     <use xlink:href="#IPAexGothic-74" x="235.595703"/>
     <use xlink:href="#IPAexGothic-65" x="270.214844"/>
     <use xlink:href="#IPAexGothic-72" x="327.099609"/>
     <use xlink:href="#IPAexGothic-20" x="364.111328"/>
     <use xlink:href="#IPAexGothic-2b" x="391.113281"/>
     <use xlink:href="#IPAexGothic-3d" x="458.935547"/>
     <use xlink:href="#IPAexGothic-20" x="526.757812"/>
     <use xlink:href="#IPAexGothic-31" x="553.759766"/>
    </g>
   </g>
   <g id="text_9">
    <!-- True -->
    <g transform="translate(140.58 403.036138) scale(0.125 -0.125)">
     <use xlink:href="#IPAexGothic-54"/>
     <use xlink:href="#IPAexGothic-72" x="59.912109"/>
     <use xlink:href="#IPAexGothic-75" x="96.923828"/>
     <use xlink:href="#IPAexGothic-65" x="157.324219"/>
    </g>
   </g>
   <g id="text_10">
    <!-- False -->
    <g transform="translate(37.940703 360.337857) scale(0.125 -0.125)">
     <use xlink:href="#IPAexGothic-46"/>
     <use xlink:href="#IPAexGothic-61" x="57.177734"/>
     <use xlink:href="#IPAexGothic-6c" x="112.158203"/>
     <use xlink:href="#IPAexGothic-73" x="139.160156"/>
     <use xlink:href="#IPAexGothic-65" x="185.351562"/>
    </g>
   </g>
   <g id="text_11">
    <!-- counter &gt; 2 ？ -->
    <g transform="translate(93.65293 370.886998) scale(0.125 -0.125)">
     <defs>
      <path id="IPAexGothic-3e" d="M 3444 2028 
L 409 3450 
L 569 3794 
L 3928 2175 
L 3928 1881 
L 569 263 
L 409 609 
L 3444 2028 
z
" transform="scale(0.015625)"/>
      <path id="IPAexGothic-32" d="M 3659 63 
L 447 63 
L 447 594 
Q 825 1475 1894 2203 
L 2072 2322 
Q 2619 2697 2791 2906 
Q 2988 3153 2988 3444 
Q 2988 3772 2756 4003 
Q 2500 4259 2084 4259 
Q 1250 4259 991 3328 
L 497 3506 
Q 853 4725 2116 4725 
Q 2806 4725 3216 4316 
Q 3575 3947 3575 3425 
Q 3575 3038 3344 2722 
Q 3131 2416 2366 1938 
L 2231 1856 
Q 1256 1253 978 569 
L 3659 569 
L 3659 63 
z
" transform="scale(0.015625)"/>
     </defs>
     <use xlink:href="#IPAexGothic-63"/>
     <use xlink:href="#IPAexGothic-6f" x="54.394531"/>
     <use xlink:href="#IPAexGothic-75" x="114.794922"/>
     <use xlink:href="#IPAexGothic-6e" x="175.195312"/>
     <use xlink:href="#IPAexGothic-74" x="235.595703"/>
     <use xlink:href="#IPAexGothic-65" x="270.214844"/>
     <use xlink:href="#IPAexGothic-72" x="327.099609"/>
     <use xlink:href="#IPAexGothic-20" x="364.111328"/>
     <use xlink:href="#IPAexGothic-3e" x="391.113281"/>
     <use xlink:href="#IPAexGothic-20" x="458.935547"/>
     <use xlink:href="#IPAexGothic-32" x="485.9375"/>
     <use xlink:href="#IPAexGothic-20" x="548.925781"/>
     <use xlink:href="#IPAexGothic-ff1f" x="575.927734"/>
    </g>
   </g>
   <g id="text_12">
    <!-- END -->
    <g transform="translate(122.700781 441.344141) scale(0.125 -0.125)">
     <use xlink:href="#IPAexGothic-45"/>
     <use xlink:href="#IPAexGothic-4e" x="59.521484"/>
     <use xlink:href="#IPAexGothic-44" x="135.498047"/>
    </g>
   </g>
  </g>
 </g>
 <defs>
  <clipPath id="pef133da422">
   <rect x="3.6" y="3.6" width="336.6" height="473.785714"/>
  </clipPath>
 </defs>
</svg>