<?xml version="1.0" encoding="utf-8" standalone="no"?>
<!DOCTYPE svg PUBLIC "-//W3C//DTD SVG 1.1//EN"
  "http://www.w3.org/Graphics/SVG/1.1/DTD/svg11.dtd">
<svg xmlns:xlink="http://www.w3.org/1999/xlink" width="315.36pt" height="440.074286pt" viewBox="0 0 315.36 440.074286" xmlns="http://www.w3.org/2000/svg" version="1.1">
 <metadata>
  <rdf:RDF xmlns:dc="http://purl.org/dc/elements/1.1/" xmlns:cc="http://creativecommons.org/ns#" xmlns:rdf="http://www.w3.org/1999/02/22-rdf-syntax-ns#">
   <cc:Work>
    <dc:type rdf:resource="http://purl.org/dc/dcmitype/StillImage"/>
    <dc:date>2024-07-11T00:27:46.060266</dc:date>
    <dc:format>image/svg+xml</dc:format>
    <dc:creator>
     <cc:Agent>
      <dc:title>Matplotlib v3.9.1, https://matplotlib.org/</dc:title>
     </cc:Agent>
    </dc:creator>
   </cc:Work>
  </rdf:RDF>
 </metadata>
 <defs>
  <style type="text/css">*{stroke-linejoin: round; stroke-linecap: butt}</style>
 </defs>
 <g id="figure_1">
  <g id="patch_1">
   <path d="M 0 440.074286 
L 315.36 440.074286 
L 315.36 0 
L 0 0 
z
" style="fill: #ffffff"/>
  </g>
  <g id="axes_1">
   <g id="patch_2">
    <path d="M 139.68 40.68 
L 139.965587 40.677734 
L 140.251103 40.670938 
L 140.536474 40.659612 
L 140.821631 40.64376 
L 141.106499 40.623386 
L 141.391009 40.598495 
L 141.675088 40.569092 
L 141.958664 40.535187 
L 142.241667 40.496786 
L 142.524025 40.4539 
L 142.805667 40.40654 
L 143.086522 40.354717 
L 143.36652 40.298444 
L 143.64559 40.237736 
L 143.923661 40.172608 
L 144.200664 40.103077 
L 144.476529 40.029159 
L 144.751186 39.950874 
L 145.024567 39.86824 
L 145.296602 39.78128 
L 145.567223 39.690015 
L 145.836363 39.594467 
L 146.103952 39.494661 
L 146.369924 39.390623 
L 146.634212 39.282377 
L 146.89675 39.169952 
L 147.15747 39.053376 
L 147.416308 38.932678 
L 147.673199 38.807888 
L 147.928077 38.679038 
L 148.180879 38.546161 
L 148.431541 38.409289 
L 148.68 38.268457 
L 148.926193 38.123701 
L 149.170058 37.975058 
L 149.411535 37.822564 
L 149.650561 37.666257 
L 149.887078 37.506178 
L 150.121024 37.342367 
L 150.352343 37.174865 
L 150.580974 37.003713 
L 150.806862 36.828956 
L 151.029948 36.650636 
L 151.250177 36.4688 
L 151.467493 36.283492 
L 151.681842 36.09476 
L 151.893169 35.902651 
L 152.101422 35.707213 
L 152.306548 35.508495 
L 152.508495 35.306548 
L 152.707213 35.101422 
L 152.902651 34.893169 
L 153.09476 34.681842 
L 153.283492 34.467493 
L 153.4688 34.250177 
L 153.650636 34.029948 
L 153.828956 33.806862 
L 154.003713 33.580974 
L 154.174865 33.352343 
L 154.342367 33.121024 
L 154.506178 32.887078 
L 154.666257 32.650561 
L 154.822564 32.411535 
L 154.975058 32.170058 
L 155.123701 31.926193 
L 155.268457 31.68 
L 155.409289 31.431541 
L 155.546161 31.180879 
L 155.679038 30.928077 
L 155.807888 30.673199 
L 155.932678 30.416308 
L 156.053376 30.15747 
L 156.169952 29.89675 
L 156.282377 29.634212 
L 156.390623 29.369924 
L 156.494661 29.103952 
L 156.594467 28.836363 
L 156.690015 28.567223 
L 156.78128 28.296602 
L 156.86824 28.024567 
L 156.950874 27.751186 
L 157.029159 27.476529 
L 157.103077 27.200664 
L 157.172608 26.923661 
L 157.237736 26.64559 
L 157.298444 26.36652 
L 157.354717 26.086522 
L 157.40654 25.805667 
L 157.4539 25.524025 
L 157.496786 25.241667 
L 157.535187 24.958664 
L 157.569092 24.675088 
L 157.598495 24.391009 
L 157.623386 24.106499 
L 157.64376 23.821631 
L 157.659612 23.536474 
L 157.670938 23.251103 
L 157.677734 22.965587 
L 157.68 22.68 
L 157.68 22.68 
L 157.677734 22.394413 
L 157.670938 22.108897 
L 157.659612 21.823526 
L 157.64376 21.538369 
L 157.623386 21.253501 
L 157.598495 20.968991 
L 157.569092 20.684912 
L 157.535187 20.401336 
L 157.496786 20.118333 
L 157.4539 19.835975 
L 157.40654 19.554333 
L 157.354717 19.273478 
L 157.298444 18.99348 
L 157.237736 18.71441 
L 157.172608 18.436339 
L 157.103077 18.159336 
L 157.029159 17.883471 
L 156.950874 17.608814 
L 156.86824 17.335433 
L 156.78128 17.063398 
L 156.690015 16.792777 
L 156.594467 16.523637 
L 156.494661 16.256048 
L 156.390623 15.990076 
L 156.282377 15.725788 
L 156.169952 15.46325 
L 156.053376 15.20253 
L 155.932678 14.943692 
L 155.807888 14.686801 
L 155.679038 14.431923 
L 155.546161 14.179121 
L 155.409289 13.928459 
L 155.268457 13.68 
L 155.123701 13.433807 
L 154.975058 13.189942 
L 154.822564 12.948465 
L 154.666257 12.709439 
L 154.506178 12.472922 
L 154.342367 12.238976 
L 154.174865 12.007657 
L 154.003713 11.779026 
L 153.828956 11.553138 
L 153.650636 11.330052 
L 153.4688 11.109823 
L 153.283492 10.892507 
L 153.09476 10.678158 
L 152.902651 10.466831 
L 152.707213 10.258578 
L 152.508495 10.053452 
L 152.306548 9.851505 
L 152.101422 9.652787 
L 151.893169 9.457349 
L 151.681842 9.26524 
L 151.467493 9.076508 
L 151.250177 8.8912 
L 151.029948 8.709364 
L 150.806862 8.531044 
L 150.580974 8.356287 
L 150.352343 8.185135 
L 150.121024 8.017633 
L 149.887078 7.853822 
L 149.650561 7.693743 
L 149.411535 7.537436 
L 149.170058 7.384942 
L 148.926193 7.236299 
L 148.68 7.091543 
L 148.431541 6.950711 
L 148.180879 6.813839 
L 147.928077 6.680962 
L 147.673199 6.552112 
L 147.416308 6.427322 
L 147.15747 6.306624 
L 146.89675 6.190048 
L 146.634212 6.077623 
L 146.369924 5.969377 
L 146.103952 5.865339 
L 145.836363 5.765533 
L 145.567223 5.669985 
L 145.296602 5.57872 
L 145.024567 5.49176 
L 144.751186 5.409126 
L 144.476529 5.330841 
L 144.200664 5.256923 
L 143.923661 5.187392 
L 143.64559 5.122264 
L 143.36652 5.061556 
L 143.086522 5.005283 
L 142.805667 4.95346 
L 142.524025 4.9061 
L 142.241667 4.863214 
L 141.958664 4.824813 
L 141.675088 4.790908 
L 141.391009 4.761505 
L 141.106499 4.736614 
L 140.821631 4.71624 
L 140.536474 4.700388 
L 140.251103 4.689062 
L 139.965587 4.682266 
L 139.68 4.68 
L 103.68 4.68 
L 103.394413 4.682266 
L 103.108897 4.689062 
L 102.823526 4.700388 
L 102.538369 4.71624 
L 102.253501 4.736614 
L 101.968991 4.761505 
L 101.684912 4.790908 
L 101.401336 4.824813 
L 101.118333 4.863214 
L 100.835975 4.9061 
L 100.554333 4.95346 
L 100.273478 5.005283 
L 99.99348 5.061556 
L 99.71441 5.122264 
L 99.436339 5.187392 
L 99.159336 5.256923 
L 98.883471 5.330841 
L 98.608814 5.409126 
L 98.335433 5.49176 
L 98.063398 5.57872 
L 97.792777 5.669985 
L 97.523637 5.765533 
L 97.256048 5.865339 
L 96.990076 5.969377 
L 96.725788 6.077623 
L 96.46325 6.190048 
L 96.20253 6.306624 
L 95.943692 6.427322 
L 95.686801 6.552112 
L 95.431923 6.680962 
L 95.179121 6.813839 
L 94.928459 6.950711 
L 94.68 7.091543 
L 94.433807 7.236299 
L 94.189942 7.384942 
L 93.948465 7.537436 
L 93.709439 7.693743 
L 93.472922 7.853822 
L 93.238976 8.017633 
L 93.007657 8.185135 
L 92.779026 8.356287 
L 92.553138 8.531044 
L 92.330052 8.709364 
L 92.109823 8.8912 
L 91.892507 9.076508 
L 91.678158 9.26524 
L 91.466831 9.457349 
L 91.258578 9.652787 
L 91.053452 9.851505 
L 90.851505 10.053452 
L 90.652787 10.258578 
L 90.457349 10.466831 
L 90.26524 10.678158 
L 90.076508 10.892507 
L 89.8912 11.109823 
L 89.709364 11.330052 
L 89.531044 11.553138 
L 89.356287 11.779026 
L 89.185135 12.007657 
L 89.017633 12.238976 
L 88.853822 12.472922 
L 88.693743 12.709439 
L 88.537436 12.948465 
L 88.384942 13.189942 
L 88.236299 13.433807 
L 88.091543 13.68 
L 87.950711 13.928459 
L 87.813839 14.179121 
L 87.680962 14.431923 
L 87.552112 14.686801 
L 87.427322 14.943692 
L 87.306624 15.20253 
L 87.190048 15.46325 
L 87.077623 15.725788 
L 86.969377 15.990076 
L 86.865339 16.256048 
L 86.765533 16.523637 
L 86.669985 16.792777 
L 86.57872 17.063398 
L 86.49176 17.335433 
L 86.409126 17.608814 
L 86.330841 17.883471 
L 86.256923 18.159336 
L 86.187392 18.436339 
L 86.122264 18.71441 
L 86.061556 18.99348 
L 86.005283 19.273478 
L 85.95346 19.554333 
L 85.9061 19.835975 
L 85.863214 20.118333 
L 85.824813 20.401336 
L 85.790908 20.684912 
L 85.761505 20.968991 
L 85.736614 21.253501 
L 85.71624 21.538369 
L 85.700388 21.823526 
L 85.689062 22.108897 
L 85.682266 22.394413 
L 85.68 22.68 
L 85.68 22.68 
L 85.682266 22.965587 
L 85.689062 23.251103 
L 85.700388 23.536474 
L 85.71624 23.821631 
L 85.736614 24.106499 
L 85.761505 24.391009 
L 85.790908 24.675088 
L 85.824813 24.958664 
L 85.863214 25.241667 
L 85.9061 25.524025 
L 85.95346 25.805667 
L 86.005283 26.086522 
L 86.061556 26.36652 
L 86.122264 26.64559 
L 86.187392 26.923661 
L 86.256923 27.200664 
L 86.330841 27.476529 
L 86.409126 27.751186 
L 86.49176 28.024567 
L 86.57872 28.296602 
L 86.669985 28.567223 
L 86.765533 28.836363 
L 86.865339 29.103952 
L 86.969377 29.369924 
L 87.077623 29.634212 
L 87.190048 29.89675 
L 87.306624 30.15747 
L 87.427322 30.416308 
L 87.552112 30.673199 
L 87.680962 30.928077 
L 87.813839 31.180879 
L 87.950711 31.431541 
L 88.091543 31.68 
L 88.236299 31.926193 
L 88.384942 32.170058 
L 88.537436 32.411535 
L 88.693743 32.650561 
L 88.853822 32.887078 
L 89.017633 33.121024 
L 89.185135 33.352343 
L 89.356287 33.580974 
L 89.531044 33.806862 
L 89.709364 34.029948 
L 89.8912 34.250177 
L 90.076508 34.467493 
L 90.26524 34.681842 
L 90.457349 34.893169 
L 90.652787 35.101422 
L 90.851505 35.306548 
L 91.053452 35.508495 
L 91.258578 35.707213 
L 91.466831 35.902651 
L 91.678158 36.09476 
L 91.892507 36.283492 
L 92.109823 36.4688 
L 92.330052 36.650636 
L 92.553138 36.828956 
L 92.779026 37.003713 
L 93.007657 37.174865 
L 93.238976 37.342367 
L 93.472922 37.506178 
L 93.709439 37.666257 
L 93.948465 37.822564 
L 94.189942 37.975058 
L 94.433807 38.123701 
L 94.68 38.268457 
L 94.928459 38.409289 
L 95.179121 38.546161 
L 95.431923 38.679038 
L 95.686801 38.807888 
L 95.943692 38.932678 
L 96.20253 39.053376 
L 96.46325 39.169952 
L 96.725788 39.282377 
L 96.990076 39.390623 
L 97.256048 39.494661 
L 97.523637 39.594467 
L 97.792777 39.690015 
L 98.063398 39.78128 
L 98.335433 39.86824 
L 98.608814 39.950874 
L 98.883471 40.029159 
L 99.159336 40.103077 
L 99.436339 40.172608 
L 99.71441 40.237736 
L 99.99348 40.298444 
L 100.273478 40.354717 
L 100.554333 40.40654 
L 100.835975 40.4539 
L 101.118333 40.496786 
L 101.401336 40.535187 
L 101.684912 40.569092 
L 101.968991 40.598495 
L 102.253501 40.623386 
L 102.538369 40.64376 
L 102.823526 40.659612 
L 103.108897 40.670938 
L 103.394413 40.677734 
L 103.68 40.68 
L 139.68 40.68 
z
" clip-path="url(#p16263fd372)" style="fill: none; stroke: #000000; stroke-linecap: round"/>
   </g>
   <g id="patch_3">
    <path d="M 58.68 145.08 
L 121.68 127.08 
L 184.68 145.08 
L 121.68 163.08 
L 58.68 145.08 
z
" clip-path="url(#p16263fd372)" style="fill: none; stroke: #000000; stroke-linecap: round"/>
   </g>
   <g id="patch_4">
    <path d="M 292.68 163.08 
L 292.965587 163.077734 
L 293.251103 163.070938 
L 293.536474 163.059612 
L 293.821631 163.04376 
L 294.106499 163.023386 
L 294.391009 162.998495 
L 294.675088 162.969092 
L 294.958664 162.935187 
L 295.241667 162.896786 
L 295.524025 162.8539 
L 295.805667 162.80654 
L 296.086522 162.754717 
L 296.36652 162.698444 
L 296.64559 162.637736 
L 296.923661 162.572608 
L 297.200664 162.503077 
L 297.476529 162.429159 
L 297.751186 162.350874 
L 298.024567 162.26824 
L 298.296602 162.18128 
L 298.567223 162.090015 
L 298.836363 161.994467 
L 299.103952 161.894661 
L 299.369924 161.790623 
L 299.634212 161.682377 
L 299.89675 161.569952 
L 300.15747 161.453376 
L 300.416308 161.332678 
L 300.673199 161.207888 
L 300.928077 161.079038 
L 301.180879 160.946161 
L 301.431541 160.809289 
L 301.68 160.668457 
L 301.926193 160.523701 
L 302.170058 160.375058 
L 302.411535 160.222564 
L 302.650561 160.066257 
L 302.887078 159.906178 
L 303.121024 159.742367 
L 303.352343 159.574865 
L 303.580974 159.403713 
L 303.806862 159.228956 
L 304.029948 159.050636 
L 304.250177 158.8688 
L 304.467493 158.683492 
L 304.681842 158.49476 
L 304.893169 158.302651 
L 305.101422 158.107213 
L 305.306548 157.908495 
L 305.508495 157.706548 
L 305.707213 157.501422 
L 305.902651 157.293169 
L 306.09476 157.081842 
L 306.283492 156.867493 
L 306.4688 156.650177 
L 306.650636 156.429948 
L 306.828956 156.206862 
L 307.003713 155.980974 
L 307.174865 155.752343 
L 307.342367 155.521024 
L 307.506178 155.287078 
L 307.666257 155.050561 
L 307.822564 154.811535 
L 307.975058 154.570058 
L 308.123701 154.326193 
L 308.268457 154.08 
L 308.409289 153.831541 
L 308.546161 153.580879 
L 308.679038 153.328077 
L 308.807888 153.073199 
L 308.932678 152.816308 
L 309.053376 152.55747 
L 309.169952 152.29675 
L 309.282377 152.034212 
L 309.390623 151.769924 
L 309.494661 151.503952 
L 309.594467 151.236363 
L 309.690015 150.967223 
L 309.78128 150.696602 
L 309.86824 150.424567 
L 309.950874 150.151186 
L 310.029159 149.876529 
L 310.103077 149.600664 
L 310.172608 149.323661 
L 310.237736 149.04559 
L 310.298444 148.76652 
L 310.354717 148.486522 
L 310.40654 148.205667 
L 310.4539 147.924025 
L 310.496786 147.641667 
L 310.535187 147.358664 
L 310.569092 147.075088 
L 310.598495 146.791009 
L 310.623386 146.506499 
L 310.64376 146.221631 
L 310.659612 145.936474 
L 310.670938 145.651103 
L 310.677734 145.365587 
L 310.68 145.08 
L 310.68 145.08 
L 310.677734 144.794413 
L 310.670938 144.508897 
L 310.659612 144.223526 
L 310.64376 143.938369 
L 310.623386 143.653501 
L 310.598495 143.368991 
L 310.569092 143.084912 
L 310.535187 142.801336 
L 310.496786 142.518333 
L 310.4539 142.235975 
L 310.40654 141.954333 
L 310.354717 141.673478 
L 310.298444 141.39348 
L 310.237736 141.11441 
L 310.172608 140.836339 
L 310.103077 140.559336 
L 310.029159 140.283471 
L 309.950874 140.008814 
L 309.86824 139.735433 
L 309.78128 139.463398 
L 309.690015 139.192777 
L 309.594467 138.923637 
L 309.494661 138.656048 
L 309.390623 138.390076 
L 309.282377 138.125788 
L 309.169952 137.86325 
L 309.053376 137.60253 
L 308.932678 137.343692 
L 308.807888 137.086801 
L 308.679038 136.831923 
L 308.546161 136.579121 
L 308.409289 136.328459 
L 308.268457 136.08 
L 308.123701 135.833807 
L 307.975058 135.589942 
L 307.822564 135.348465 
L 307.666257 135.109439 
L 307.506178 134.872922 
L 307.342367 134.638976 
L 307.174865 134.407657 
L 307.003713 134.179026 
L 306.828956 133.953138 
L 306.650636 133.730052 
L 306.4688 133.509823 
L 306.283492 133.292507 
L 306.09476 133.078158 
L 305.902651 132.866831 
L 305.707213 132.658578 
L 305.508495 132.453452 
L 305.306548 132.251505 
L 305.101422 132.052787 
L 304.893169 131.857349 
L 304.681842 131.66524 
L 304.467493 131.476508 
L 304.250177 131.2912 
L 304.029948 131.109364 
L 303.806862 130.931044 
L 303.580974 130.756287 
L 303.352343 130.585135 
L 303.121024 130.417633 
L 302.887078 130.253822 
L 302.650561 130.093743 
L 302.411535 129.937436 
L 302.170058 129.784942 
L 301.926193 129.636299 
L 301.68 129.491543 
L 301.431541 129.350711 
L 301.180879 129.213839 
L 300.928077 129.080962 
L 300.673199 128.952112 
L 300.416308 128.827322 
L 300.15747 128.706624 
L 299.89675 128.590048 
L 299.634212 128.477623 
L 299.369924 128.369377 
L 299.103952 128.265339 
L 298.836363 128.165533 
L 298.567223 128.069985 
L 298.296602 127.97872 
L 298.024567 127.89176 
L 297.751186 127.809126 
L 297.476529 127.730841 
L 297.200664 127.656923 
L 296.923661 127.587392 
L 296.64559 127.522264 
L 296.36652 127.461556 
L 296.086522 127.405283 
L 295.805667 127.35346 
L 295.524025 127.3061 
L 295.241667 127.263214 
L 294.958664 127.224813 
L 294.675088 127.190908 
L 294.391009 127.161505 
L 294.106499 127.136614 
L 293.821631 127.11624 
L 293.536474 127.100388 
L 293.251103 127.089062 
L 292.965587 127.082266 
L 292.68 127.08 
L 256.68 127.08 
L 256.394413 127.082266 
L 256.108897 127.089062 
L 255.823526 127.100388 
L 255.538369 127.11624 
L 255.253501 127.136614 
L 254.968991 127.161505 
L 254.684912 127.190908 
L 254.401336 127.224813 
L 254.118333 127.263214 
L 253.835975 127.3061 
L 253.554333 127.35346 
L 253.273478 127.405283 
L 252.99348 127.461556 
L 252.71441 127.522264 
L 252.436339 127.587392 
L 252.159336 127.656923 
L 251.883471 127.730841 
L 251.608814 127.809126 
L 251.335433 127.89176 
L 251.063398 127.97872 
L 250.792777 128.069985 
L 250.523637 128.165533 
L 250.256048 128.265339 
L 249.990076 128.369377 
L 249.725788 128.477623 
L 249.46325 128.590048 
L 249.20253 128.706624 
L 248.943692 128.827322 
L 248.686801 128.952112 
L 248.431923 129.080962 
L 248.179121 129.213839 
L 247.928459 129.350711 
L 247.68 129.491543 
L 247.433807 129.636299 
L 247.189942 129.784942 
L 246.948465 129.937436 
L 246.709439 130.093743 
L 246.472922 130.253822 
L 246.238976 130.417633 
L 246.007657 130.585135 
L 245.779026 130.756287 
L 245.553138 130.931044 
L 245.330052 131.109364 
L 245.109823 131.2912 
L 244.892507 131.476508 
L 244.678158 131.66524 
L 244.466831 131.857349 
L 244.258578 132.052787 
L 244.053452 132.251505 
L 243.851505 132.453452 
L 243.652787 132.658578 
L 243.457349 132.866831 
L 243.26524 133.078158 
L 243.076508 133.292507 
L 242.8912 133.509823 
L 242.709364 133.730052 
L 242.531044 133.953138 
L 242.356287 134.179026 
L 242.185135 134.407657 
L 242.017633 134.638976 
L 241.853822 134.872922 
L 241.693743 135.109439 
L 241.537436 135.348465 
L 241.384942 135.589942 
L 241.236299 135.833807 
L 241.091543 136.08 
L 240.950711 136.328459 
L 240.813839 136.579121 
L 240.680962 136.831923 
L 240.552112 137.086801 
L 240.427322 137.343692 
L 240.306624 137.60253 
L 240.190048 137.86325 
L 240.077623 138.125788 
L 239.969377 138.390076 
L 239.865339 138.656048 
L 239.765533 138.923637 
L 239.669985 139.192777 
L 239.57872 139.463398 
L 239.49176 139.735433 
L 239.409126 140.008814 
L 239.330841 140.283471 
L 239.256923 140.559336 
L 239.187392 140.836339 
L 239.122264 141.11441 
L 239.061556 141.39348 
L 239.005283 141.673478 
L 238.95346 141.954333 
L 238.9061 142.235975 
L 238.863214 142.518333 
L 238.824813 142.801336 
L 238.790908 143.084912 
L 238.761505 143.368991 
L 238.736614 143.653501 
L 238.71624 143.938369 
L 238.700388 144.223526 
L 238.689062 144.508897 
L 238.682266 144.794413 
L 238.68 145.08 
L 238.68 145.08 
L 238.682266 145.365587 
L 238.689062 145.651103 
L 238.700388 145.936474 
L 238.71624 146.221631 
L 238.736614 146.506499 
L 238.761505 146.791009 
L 238.790908 147.075088 
L 238.824813 147.358664 
L 238.863214 147.641667 
L 238.9061 147.924025 
L 238.95346 148.205667 
L 239.005283 148.486522 
L 239.061556 148.76652 
L 239.122264 149.04559 
L 239.187392 149.323661 
L 239.256923 149.600664 
L 239.330841 149.876529 
L 239.409126 150.151186 
L 239.49176 150.424567 
L 239.57872 150.696602 
L 239.669985 150.967223 
L 239.765533 151.236363 
L 239.865339 151.503952 
L 239.969377 151.769924 
L 240.077623 152.034212 
L 240.190048 152.29675 
L 240.306624 152.55747 
L 240.427322 152.816308 
L 240.552112 153.073199 
L 240.680962 153.328077 
L 240.813839 153.580879 
L 240.950711 153.831541 
L 241.091543 154.08 
L 241.236299 154.326193 
L 241.384942 154.570058 
L 241.537436 154.811535 
L 241.693743 155.050561 
L 241.853822 155.287078 
L 242.017633 155.521024 
L 242.185135 155.752343 
L 242.356287 155.980974 
L 242.531044 156.206862 
L 242.709364 156.429948 
L 242.8912 156.650177 
L 243.076508 156.867493 
L 243.26524 157.081842 
L 243.457349 157.293169 
L 243.652787 157.501422 
L 243.851505 157.706548 
L 244.053452 157.908495 
L 244.258578 158.107213 
L 244.466831 158.302651 
L 244.678158 158.49476 
L 244.892507 158.683492 
L 245.109823 158.8688 
L 245.330052 159.050636 
L 245.553138 159.228956 
L 245.779026 159.403713 
L 246.007657 159.574865 
L 246.238976 159.742367 
L 246.472922 159.906178 
L 246.709439 160.066257 
L 246.948465 160.222564 
L 247.189942 160.375058 
L 247.433807 160.523701 
L 247.68 160.668457 
L 247.928459 160.809289 
L 248.179121 160.946161 
L 248.431923 161.079038 
L 248.686801 161.207888 
L 248.943692 161.332678 
L 249.20253 161.453376 
L 249.46325 161.569952 
L 249.725788 161.682377 
L 249.990076 161.790623 
L 250.256048 161.894661 
L 250.523637 161.994467 
L 250.792777 162.090015 
L 251.063398 162.18128 
L 251.335433 162.26824 
L 251.608814 162.350874 
L 251.883471 162.429159 
L 252.159336 162.503077 
L 252.436339 162.572608 
L 252.71441 162.637736 
L 252.99348 162.698444 
L 253.273478 162.754717 
L 253.554333 162.80654 
L 253.835975 162.8539 
L 254.118333 162.896786 
L 254.401336 162.935187 
L 254.684912 162.969092 
L 254.968991 162.998495 
L 255.253501 163.023386 
L 255.538369 163.04376 
L 255.823526 163.059612 
L 256.108897 163.070938 
L 256.394413 163.077734 
L 256.68 163.08 
L 292.68 163.08 
z
" clip-path="url(#p16263fd372)" style="fill: none; stroke: #000000; stroke-linecap: round"/>
   </g>
   <g id="patch_5">
    <path d="M 58.68 346.937143 
L 121.68 325.337143 
L 184.68 346.937143 
L 121.68 368.537143 
L 58.68 346.937143 
z
" clip-path="url(#p16263fd372)" style="fill: none; stroke: #000000; stroke-linecap: round"/>
   </g>
   <g id="patch_6">
    <path d="M 139.68 435.394286 
L 139.965587 435.39202 
L 140.251103 435.385223 
L 140.536474 435.373898 
L 140.821631 435.358046 
L 141.106499 435.337672 
L 141.391009 435.31278 
L 141.675088 435.283378 
L 141.958664 435.249472 
L 142.241667 435.211072 
L 142.524025 435.168186 
L 142.805667 435.120825 
L 143.086522 435.069002 
L 143.36652 435.01273 
L 143.64559 434.952022 
L 143.923661 434.886894 
L 144.200664 434.817362 
L 144.476529 434.743445 
L 144.751186 434.665159 
L 145.024567 434.582526 
L 145.296602 434.495566 
L 145.567223 434.4043 
L 145.836363 434.308753 
L 146.103952 434.208947 
L 146.369924 434.104909 
L 146.634212 433.996663 
L 146.89675 433.884238 
L 147.15747 433.767662 
L 147.416308 433.646963 
L 147.673199 433.522174 
L 147.928077 433.393324 
L 148.180879 433.260446 
L 148.431541 433.123575 
L 148.68 432.982743 
L 148.926193 432.837987 
L 149.170058 432.689343 
L 149.411535 432.536849 
L 149.650561 432.380543 
L 149.887078 432.220464 
L 150.121024 432.056653 
L 150.352343 431.88915 
L 150.580974 431.717999 
L 150.806862 431.543241 
L 151.029948 431.364922 
L 151.250177 431.183086 
L 151.467493 430.997778 
L 151.681842 430.809046 
L 151.893169 430.616936 
L 152.101422 430.421498 
L 152.306548 430.222781 
L 152.508495 430.020834 
L 152.707213 429.815708 
L 152.902651 429.607455 
L 153.09476 429.396128 
L 153.283492 429.181779 
L 153.4688 428.964463 
L 153.650636 428.744234 
L 153.828956 428.521147 
L 154.003713 428.29526 
L 154.174865 428.066628 
L 154.342367 427.83531 
L 154.506178 427.601363 
L 154.666257 427.364847 
L 154.822564 427.12582 
L 154.975058 426.884344 
L 155.123701 426.640479 
L 155.268457 426.394286 
L 155.409289 426.145827 
L 155.546161 425.895165 
L 155.679038 425.642363 
L 155.807888 425.387485 
L 155.932678 425.130594 
L 156.053376 424.871756 
L 156.169952 424.611035 
L 156.282377 424.348498 
L 156.390623 424.08421 
L 156.494661 423.818238 
L 156.594467 423.550648 
L 156.690015 423.281509 
L 156.78128 423.010888 
L 156.86824 422.738852 
L 156.950874 422.465472 
L 157.029159 422.190814 
L 157.103077 421.914949 
L 157.172608 421.637947 
L 157.237736 421.359875 
L 157.298444 421.080806 
L 157.354717 420.800808 
L 157.40654 420.519953 
L 157.4539 420.238311 
L 157.496786 419.955953 
L 157.535187 419.67295 
L 157.569092 419.389373 
L 157.598495 419.105294 
L 157.623386 418.820785 
L 157.64376 418.535916 
L 157.659612 418.25076 
L 157.670938 417.965389 
L 157.677734 417.679873 
L 157.68 417.394286 
L 157.68 417.394286 
L 157.677734 417.108698 
L 157.670938 416.823183 
L 157.659612 416.537811 
L 157.64376 416.252655 
L 157.623386 415.967786 
L 157.598495 415.683277 
L 157.569092 415.399198 
L 157.535187 415.115622 
L 157.496786 414.832619 
L 157.4539 414.550261 
L 157.40654 414.268619 
L 157.354717 413.987763 
L 157.298444 413.707766 
L 157.237736 413.428696 
L 157.172608 413.150625 
L 157.103077 412.873622 
L 157.029159 412.597757 
L 156.950874 412.3231 
L 156.86824 412.049719 
L 156.78128 411.777684 
L 156.690015 411.507062 
L 156.594467 411.237923 
L 156.494661 410.970334 
L 156.390623 410.704362 
L 156.282377 410.440073 
L 156.169952 410.177536 
L 156.053376 409.916815 
L 155.932678 409.657977 
L 155.807888 409.401087 
L 155.679038 409.146208 
L 155.546161 408.893406 
L 155.409289 408.642744 
L 155.268457 408.394286 
L 155.123701 408.148093 
L 154.975058 407.904227 
L 154.822564 407.662751 
L 154.666257 407.423725 
L 154.506178 407.187208 
L 154.342367 406.953261 
L 154.174865 406.721943 
L 154.003713 406.493311 
L 153.828956 406.267424 
L 153.650636 406.044338 
L 153.4688 405.824109 
L 153.283492 405.606793 
L 153.09476 405.392444 
L 152.902651 405.181116 
L 152.707213 404.972864 
L 152.508495 404.767738 
L 152.306548 404.565791 
L 152.101422 404.367073 
L 151.893169 404.171635 
L 151.681842 403.979526 
L 151.467493 403.790793 
L 151.250177 403.605486 
L 151.029948 403.423649 
L 150.806862 403.24533 
L 150.580974 403.070573 
L 150.352343 402.899421 
L 150.121024 402.731919 
L 149.887078 402.568107 
L 149.650561 402.408028 
L 149.411535 402.251722 
L 149.170058 402.099228 
L 148.926193 401.950584 
L 148.68 401.805828 
L 148.431541 401.664997 
L 148.180879 401.528125 
L 147.928077 401.395248 
L 147.673199 401.266398 
L 147.416308 401.141608 
L 147.15747 401.02091 
L 146.89675 400.904333 
L 146.634212 400.791908 
L 146.369924 400.683663 
L 146.103952 400.579624 
L 145.836363 400.479819 
L 145.567223 400.384271 
L 145.296602 400.293006 
L 145.024567 400.206045 
L 144.751186 400.123412 
L 144.476529 400.045127 
L 144.200664 399.971209 
L 143.923661 399.901677 
L 143.64559 399.83655 
L 143.36652 399.775842 
L 143.086522 399.719569 
L 142.805667 399.667746 
L 142.524025 399.620386 
L 142.241667 399.5775 
L 141.958664 399.539099 
L 141.675088 399.505193 
L 141.391009 399.475791 
L 141.106499 399.4509 
L 140.821631 399.430526 
L 140.536474 399.414674 
L 140.251103 399.403348 
L 139.965587 399.396551 
L 139.68 399.394286 
L 103.68 399.394286 
L 103.394413 399.396551 
L 103.108897 399.403348 
L 102.823526 399.414674 
L 102.538369 399.430526 
L 102.253501 399.4509 
L 101.968991 399.475791 
L 101.684912 399.505193 
L 101.401336 399.539099 
L 101.118333 399.5775 
L 100.835975 399.620386 
L 100.554333 399.667746 
L 100.273478 399.719569 
L 99.99348 399.775842 
L 99.71441 399.83655 
L 99.436339 399.901677 
L 99.159336 399.971209 
L 98.883471 400.045127 
L 98.608814 400.123412 
L 98.335433 400.206045 
L 98.063398 400.293006 
L 97.792777 400.384271 
L 97.523637 400.479819 
L 97.256048 400.579624 
L 96.990076 400.683663 
L 96.725788 400.791908 
L 96.46325 400.904333 
L 96.20253 401.02091 
L 95.943692 401.141608 
L 95.686801 401.266398 
L 95.431923 401.395248 
L 95.179121 401.528125 
L 94.928459 401.664997 
L 94.68 401.805828 
L 94.433807 401.950584 
L 94.189942 402.099228 
L 93.948465 402.251722 
L 93.709439 402.408028 
L 93.472922 402.568107 
L 93.238976 402.731919 
L 93.007657 402.899421 
L 92.779026 403.070573 
L 92.553138 403.24533 
L 92.330052 403.423649 
L 92.109823 403.605486 
L 91.892507 403.790793 
L 91.678158 403.979526 
L 91.466831 404.171635 
L 91.258578 404.367073 
L 91.053452 404.565791 
L 90.851505 404.767738 
L 90.652787 404.972864 
L 90.457349 405.181116 
L 90.26524 405.392444 
L 90.076508 405.606793 
L 89.8912 405.824109 
L 89.709364 406.044338 
L 89.531044 406.267424 
L 89.356287 406.493311 
L 89.185135 406.721943 
L 89.017633 406.953261 
L 88.853822 407.187208 
L 88.693743 407.423725 
L 88.537436 407.662751 
L 88.384942 407.904227 
L 88.236299 408.148093 
L 88.091543 408.394286 
L 87.950711 408.642744 
L 87.813839 408.893406 
L 87.680962 409.146208 
L 87.552112 409.401087 
L 87.427322 409.657977 
L 87.306624 409.916815 
L 87.190048 410.177536 
L 87.077623 410.440073 
L 86.969377 410.704362 
L 86.865339 410.970334 
L 86.765533 411.237923 
L 86.669985 411.507062 
L 86.57872 411.777684 
L 86.49176 412.049719 
L 86.409126 412.3231 
L 86.330841 412.597757 
L 86.256923 412.873622 
L 86.187392 413.150625 
L 86.122264 413.428696 
L 86.061556 413.707766 
L 86.005283 413.987763 
L 85.95346 414.268619 
L 85.9061 414.550261 
L 85.863214 414.832619 
L 85.824813 415.115622 
L 85.790908 415.399198 
L 85.761505 415.683277 
L 85.736614 415.967786 
L 85.71624 416.252655 
L 85.700388 416.537811 
L 85.689062 416.823183 
L 85.682266 417.108698 
L 85.68 417.394286 
L 85.68 417.394286 
L 85.682266 417.679873 
L 85.689062 417.965389 
L 85.700388 418.25076 
L 85.71624 418.535916 
L 85.736614 418.820785 
L 85.761505 419.105294 
L 85.790908 419.389373 
L 85.824813 419.67295 
L 85.863214 419.955953 
L 85.9061 420.238311 
L 85.95346 420.519953 
L 86.005283 420.800808 
L 86.061556 421.080806 
L 86.122264 421.359875 
L 86.187392 421.637947 
L 86.256923 421.914949 
L 86.330841 422.190814 
L 86.409126 422.465472 
L 86.49176 422.738852 
L 86.57872 423.010888 
L 86.669985 423.281509 
L 86.765533 423.550648 
L 86.865339 423.818238 
L 86.969377 424.08421 
L 87.077623 424.348498 
L 87.190048 424.611035 
L 87.306624 424.871756 
L 87.427322 425.130594 
L 87.552112 425.387485 
L 87.680962 425.642363 
L 87.813839 425.895165 
L 87.950711 426.145827 
L 88.091543 426.394286 
L 88.236299 426.640479 
L 88.384942 426.884344 
L 88.537436 427.12582 
L 88.693743 427.364847 
L 88.853822 427.601363 
L 89.017633 427.83531 
L 89.185135 428.066628 
L 89.356287 428.29526 
L 89.531044 428.521147 
L 89.709364 428.744234 
L 89.8912 428.964463 
L 90.076508 429.181779 
L 90.26524 429.396128 
L 90.457349 429.607455 
L 90.652787 429.815708 
L 90.851505 430.020834 
L 91.053452 430.222781 
L 91.258578 430.421498 
L 91.466831 430.616936 
L 91.678158 430.809046 
L 91.892507 430.997778 
L 92.109823 431.183086 
L 92.330052 431.364922 
L 92.553138 431.543241 
L 92.779026 431.717999 
L 93.007657 431.88915 
L 93.238976 432.056653 
L 93.472922 432.220464 
L 93.709439 432.380543 
L 93.948465 432.536849 
L 94.189942 432.689343 
L 94.433807 432.837987 
L 94.68 432.982743 
L 94.928459 433.123575 
L 95.179121 433.260446 
L 95.431923 433.393324 
L 95.686801 433.522174 
L 95.943692 433.646963 
L 96.20253 433.767662 
L 96.46325 433.884238 
L 96.725788 433.996663 
L 96.990076 434.104909 
L 97.256048 434.208947 
L 97.523637 434.308753 
L 97.792777 434.4043 
L 98.063398 434.495566 
L 98.335433 434.582526 
L 98.608814 434.665159 
L 98.883471 434.743445 
L 99.159336 434.817362 
L 99.436339 434.886894 
L 99.71441 434.952022 
L 99.99348 435.01273 
L 100.273478 435.069002 
L 100.554333 435.120825 
L 100.835975 435.168186 
L 101.118333 435.211072 
L 101.401336 435.249472 
L 101.684912 435.283378 
L 101.968991 435.31278 
L 102.253501 435.337672 
L 102.538369 435.358046 
L 102.823526 435.373898 
L 103.108897 435.385223 
L 103.394413 435.39202 
L 103.68 435.394286 
L 139.68 435.394286 
z
" clip-path="url(#p16263fd372)" style="fill: none; stroke: #000000; stroke-linecap: round"/>
   </g>
   <g id="line2d_1">
    <path d="M 121.68 40.68 
L 121.68 54.18 
L 121.68 58.68 
" clip-path="url(#p16263fd372)" style="fill: none; stroke: #000000; stroke-linecap: round"/>
   </g>
   <g id="patch_7">
    <path d="M 124.38 58.68 
L 121.68 67.68 
L 118.98 58.68 
z
" clip-path="url(#p16263fd372)"/>
   </g>
   <g id="line2d_2">
    <path d="M 76.68 83.88 
L 76.68 67.68 
L 166.68 67.68 
L 166.68 100.08 
L 76.68 100.08 
L 76.68 83.88 
" clip-path="url(#p16263fd372)" style="fill: none; stroke: #000000; stroke-linecap: round"/>
   </g>
   <g id="line2d_3">
    <path d="M 121.68 100.08 
L 121.68 113.58 
L 121.68 118.08 
" clip-path="url(#p16263fd372)" style="fill: none; stroke: #000000; stroke-linecap: round"/>
   </g>
   <g id="patch_8">
    <path d="M 124.38 118.08 
L 121.68 127.08 
L 118.98 118.08 
z
" clip-path="url(#p16263fd372)"/>
   </g>
   <g id="line2d_4">
    <path d="M 184.68 145.08 
L 211.68 145.08 
L 229.68 145.08 
" clip-path="url(#p16263fd372)" style="fill: none; stroke-dasharray: 3.7,1.6; stroke-dashoffset: 0; stroke: #000000"/>
   </g>
   <g id="patch_9">
    <path d="M 229.68 142.38 
L 238.68 145.08 
L 229.68 147.78 
z
" clip-path="url(#p16263fd372)"/>
   </g>
   <g id="line2d_5">
    <path d="M 121.68 163.08 
L 121.68 181.08 
L 121.68 190.08 
" clip-path="url(#p16263fd372)" style="fill: none; stroke: #000000; stroke-linecap: round"/>
   </g>
   <g id="patch_10">
    <path d="M 124.38 190.08 
L 121.68 199.08 
L 118.98 190.08 
z
" clip-path="url(#p16263fd372)"/>
   </g>
   <g id="line2d_6">
    <path d="M 67.68 217.08 
L 67.68 199.08 
L 175.68 199.08 
L 175.68 235.08 
L 67.68 235.08 
L 67.68 217.08 
" clip-path="url(#p16263fd372)" style="fill: none; stroke: #000000; stroke-linecap: round"/>
   </g>
   <g id="line2d_7">
    <path d="M 121.68 235.08 
L 121.68 248.58 
L 121.68 253.08 
" clip-path="url(#p16263fd372)" style="fill: none; stroke: #000000; stroke-linecap: round"/>
   </g>
   <g id="patch_11">
    <path d="M 124.38 253.08 
L 121.68 262.08 
L 118.98 253.08 
z
" clip-path="url(#p16263fd372)"/>
   </g>
   <g id="line2d_8">
    <path d="M 76.68 278.28 
L 76.68 262.08 
L 166.68 262.08 
L 166.68 294.48 
L 76.68 294.48 
L 76.68 278.28 
" clip-path="url(#p16263fd372)" style="fill: none; stroke: #000000; stroke-linecap: round"/>
   </g>
   <g id="line2d_9">
    <path d="M 121.68 294.48 
L 121.68 309.908571 
L 121.68 316.337143 
" clip-path="url(#p16263fd372)" style="fill: none; stroke: #000000; stroke-linecap: round"/>
   </g>
   <g id="patch_12">
    <path d="M 124.38 316.337143 
L 121.68 325.337143 
L 118.98 316.337143 
z
" clip-path="url(#p16263fd372)"/>
   </g>
   <g id="line2d_10">
    <path d="M 121.68 368.537143 
L 121.68 383.965714 
L 121.68 390.394286 
" clip-path="url(#p16263fd372)" style="fill: none; stroke: #000000; stroke-linecap: round"/>
   </g>
   <g id="patch_13">
    <path d="M 124.38 390.394286 
L 121.68 399.394286 
L 118.98 390.394286 
z
" clip-path="url(#p16263fd372)"/>
   </g>
   <g id="line2d_11">
    <path d="M 58.68 346.937143 
L 4.68 346.937143 
L 4.68 145.08 
L 49.68 145.08 
" clip-path="url(#p16263fd372)" style="fill: none; stroke: #000000; stroke-linecap: round"/>
   </g>
   <g id="patch_14">
    <path d="M 49.68 142.38 
L 58.68 145.08 
L 49.68 147.78 
z
" clip-path="url(#p16263fd372)"/>
   </g>
   <g id="text_1">
    <!-- START -->
    <g transform="translate(100.202031 26.593437) scale(0.14 -0.14)">
     <defs>
      <path id="IPAexGothic-53" d="M 2919 3641 
Q 2563 4259 1853 4259 
Q 1453 4259 1213 4009 
Q 1028 3803 1028 3534 
Q 1028 3238 1266 3047 
Q 1444 2913 1984 2688 
L 2200 2597 
Q 2925 2306 3191 1953 
Q 3422 1644 3422 1259 
Q 3422 644 2969 288 
Q 2559 -31 1931 -31 
Q 881 -31 313 766 
L 753 1100 
Q 1203 459 1938 459 
Q 2288 459 2534 625 
Q 2841 847 2841 1216 
Q 2841 1503 2616 1728 
Q 2375 1959 1728 2206 
L 1541 2278 
Q 453 2694 453 3481 
Q 453 4006 806 4347 
Q 1203 4725 1863 4725 
Q 2841 4725 3359 3956 
L 2919 3641 
z
" transform="scale(0.015625)"/>
      <path id="IPAexGothic-54" d="M 3866 4141 
L 2175 4141 
L 2175 63 
L 1606 63 
L 1606 4141 
L -31 4141 
L -31 4634 
L 3866 4634 
L 3866 4141 
z
" transform="scale(0.015625)"/>
      <path id="IPAexGothic-41" d="M 4056 63 
L 3444 63 
L 2938 1409 
L 1100 1409 
L 603 63 
L -6 63 
L 1806 4666 
L 2259 4666 
L 4056 63 
z
M 2778 1863 
L 2316 3078 
Q 2125 3588 2028 4000 
L 2009 4000 
Q 1897 3563 1716 3078 
L 1263 1863 
L 2778 1863 
z
" transform="scale(0.015625)"/>
      <path id="IPAexGothic-52" d="M 4072 63 
L 3394 63 
Q 3138 641 2828 1197 
Q 2584 1641 2344 1825 
Q 2050 2044 1625 2044 
L 1172 2044 
L 1172 63 
L 609 63 
L 609 4634 
L 2009 4634 
Q 2713 4634 3131 4378 
Q 3688 4044 3688 3381 
Q 3688 2784 3181 2459 
Q 2906 2272 2522 2216 
L 2522 2197 
Q 2941 2050 3247 1581 
Q 3516 1166 4072 63 
z
M 1172 2478 
L 1869 2478 
Q 3106 2478 3106 3369 
Q 3106 4181 1928 4181 
L 1172 4181 
L 1172 2478 
z
" transform="scale(0.015625)"/>
     </defs>
     <use xlink:href="#IPAexGothic-53"/>
     <use xlink:href="#IPAexGothic-54" x="58.496094"/>
     <use xlink:href="#IPAexGothic-41" x="118.408203"/>
     <use xlink:href="#IPAexGothic-52" x="182.128906"/>
     <use xlink:href="#IPAexGothic-54" x="246.923828"/>
    </g>
   </g>
   <g id="text_2">
    <!-- counter = 0 -->
    <g transform="translate(83.253281 87.793437) scale(0.14 -0.14)">
     <defs>
      <path id="IPAexGothic-63" d="M 3269 784 
Q 2834 -31 1900 -31 
Q 1228 -31 788 409 
Q 313 891 313 1663 
Q 313 2428 788 2913 
Q 1222 3347 1881 3347 
Q 2813 3347 3206 2541 
L 2763 2309 
Q 2484 2900 1900 2900 
Q 1516 2900 1234 2619 
Q 881 2266 881 1650 
Q 881 1069 1222 728 
Q 1522 428 1956 428 
Q 2547 428 2847 1016 
L 3269 784 
z
" transform="scale(0.015625)"/>
      <path id="IPAexGothic-6f" d="M 1919 3341 
Q 2594 3341 3056 2888 
Q 3531 2413 3531 1638 
Q 3531 888 3066 422 
Q 2609 -31 1919 -31 
Q 1228 -31 781 416 
Q 313 881 313 1656 
Q 313 2413 788 2888 
Q 1241 3341 1919 3341 
z
M 1919 2919 
Q 1519 2919 1241 2631 
Q 888 2278 888 1650 
Q 888 1031 1234 684 
Q 1516 403 1919 403 
Q 2331 403 2609 691 
Q 2956 1038 2956 1672 
Q 2956 2269 2603 2631 
Q 2316 2919 1919 2919 
z
" transform="scale(0.015625)"/>
      <path id="IPAexGothic-75" d="M 3284 63 
L 2772 63 
L 2772 644 
Q 2300 0 1625 0 
Q 1072 0 763 375 
Q 519 678 519 1241 
L 519 3250 
L 1069 3250 
L 1069 1259 
Q 1069 466 1734 466 
Q 2406 466 2734 1291 
L 2734 3250 
L 3284 3250 
L 3284 63 
z
" transform="scale(0.015625)"/>
      <path id="IPAexGothic-6e" d="M 3328 63 
L 2778 63 
L 2778 2041 
Q 2778 2853 2106 2853 
Q 1428 2853 1113 2041 
L 1113 63 
L 563 63 
L 563 3250 
L 1075 3250 
L 1075 2675 
Q 1525 3316 2222 3316 
Q 3328 3316 3328 2072 
L 3328 63 
z
" transform="scale(0.015625)"/>
      <path id="IPAexGothic-74" d="M 2125 241 
Q 1769 -6 1397 -6 
Q 653 -6 653 831 
L 653 2859 
L 219 2859 
L 219 3250 
L 653 3250 
L 653 3966 
L 1178 4228 
L 1178 3250 
L 2063 3250 
L 2063 2859 
L 1178 2859 
L 1178 906 
Q 1178 416 1513 416 
Q 1738 416 1941 588 
L 2125 241 
z
" transform="scale(0.015625)"/>
      <path id="IPAexGothic-65" d="M 863 1594 
Q 891 1041 1209 722 
Q 1534 397 1997 397 
Q 2606 397 2963 966 
L 3322 728 
Q 2869 -31 1931 -31 
Q 1222 -31 766 422 
Q 306 884 306 1641 
Q 306 2444 788 2925 
Q 1216 3353 1856 3353 
Q 2459 3353 2866 2956 
Q 3322 2494 3322 1722 
L 3322 1594 
L 863 1594 
z
M 2756 1997 
Q 2709 2431 2450 2681 
Q 2194 2938 1844 2938 
Q 1438 2938 1150 2591 
Q 953 2356 894 1997 
L 2756 1997 
z
" transform="scale(0.015625)"/>
      <path id="IPAexGothic-72" d="M 2309 3316 
L 2213 2769 
Q 2106 2791 2022 2791 
Q 1653 2791 1413 2444 
Q 1113 2006 1113 1675 
L 1113 63 
L 563 63 
L 563 3250 
L 1081 3250 
L 1056 2303 
L 1069 2303 
Q 1422 3341 2097 3341 
Q 2206 3341 2309 3316 
z
" transform="scale(0.015625)"/>
      <path id="IPAexGothic-20" transform="scale(0.015625)"/>
      <path id="IPAexGothic-3d" d="M 416 2803 
L 3922 2803 
L 3922 2438 
L 416 2438 
L 416 2803 
z
M 416 1625 
L 3922 1625 
L 3922 1259 
L 416 1259 
L 416 1625 
z
" transform="scale(0.015625)"/>
      <path id="IPAexGothic-30" d="M 2038 4725 
Q 2881 4725 3334 3944 
Q 3694 3325 3694 2344 
Q 3694 1372 3334 741 
Q 2888 -31 2016 -31 
Q 1147 -31 700 741 
Q 341 1372 341 2350 
Q 341 3713 1000 4334 
Q 1419 4725 2038 4725 
z
M 2016 4266 
Q 1516 4266 1228 3759 
Q 934 3247 934 2344 
Q 934 1456 1222 947 
Q 1513 447 2016 447 
Q 2619 447 2909 1153 
Q 3100 1622 3100 2375 
Q 3100 3256 2806 3759 
Q 2509 4266 2016 4266 
z
" transform="scale(0.015625)"/>
     </defs>
     <use xlink:href="#IPAexGothic-63"/>
     <use xlink:href="#IPAexGothic-6f" x="54.394531"/>
     <use xlink:href="#IPAexGothic-75" x="114.794922"/>
     <use xlink:href="#IPAexGothic-6e" x="175.195312"/>
     <use xlink:href="#IPAexGothic-74" x="235.595703"/>
     <use xlink:href="#IPAexGothic-65" x="270.214844"/>
     <use xlink:href="#IPAexGothic-72" x="327.099609"/>
     <use xlink:href="#IPAexGothic-20" x="364.111328"/>
     <use xlink:href="#IPAexGothic-3d" x="391.113281"/>
     <use xlink:href="#IPAexGothic-20" x="458.935547"/>
     <use xlink:href="#IPAexGothic-30" x="485.9375"/>
    </g>
   </g>
   <g id="text_3">
    <!-- True -->
    <g transform="translate(126.36 178.246875) scale(0.14 -0.14)">
     <use xlink:href="#IPAexGothic-54"/>
     <use xlink:href="#IPAexGothic-72" x="59.912109"/>
     <use xlink:href="#IPAexGothic-75" x="96.923828"/>
     <use xlink:href="#IPAexGothic-65" x="157.324219"/>
    </g>
   </g>
   <g id="text_4">
    <!-- False -->
    <g transform="translate(189.36 137.74) scale(0.14 -0.14)">
     <defs>
      <path id="IPAexGothic-46" d="M 3469 4141 
L 1172 4141 
L 1172 2656 
L 3206 2656 
L 3206 2188 
L 1172 2188 
L 1172 63 
L 609 63 
L 609 4634 
L 3469 4634 
L 3469 4141 
z
" transform="scale(0.015625)"/>
      <path id="IPAexGothic-61" d="M 3156 63 
L 2672 63 
Q 2559 303 2531 556 
L 2509 556 
Q 2147 -25 1428 -25 
Q 934 -25 622 288 
Q 347 563 347 959 
Q 347 1947 2050 1997 
L 2478 2009 
L 2478 2175 
Q 2478 2509 2288 2700 
Q 2088 2900 1775 2900 
Q 1238 2900 969 2378 
L 494 2597 
Q 938 3328 1788 3328 
Q 2375 3328 2691 3000 
Q 2984 2706 2984 2169 
L 2984 997 
Q 2984 400 3156 63 
z
M 2491 1625 
L 2141 1619 
Q 903 1591 903 953 
Q 903 728 1050 581 
Q 1231 403 1525 403 
Q 1934 403 2234 703 
Q 2491 969 2491 1344 
L 2491 1625 
z
" transform="scale(0.015625)"/>
      <path id="IPAexGothic-6c" d="M 1131 63 
L 581 63 
L 581 4794 
L 1131 4794 
L 1131 63 
z
" transform="scale(0.015625)"/>
      <path id="IPAexGothic-73" d="M 2234 2547 
Q 1938 2931 1484 2931 
Q 891 2931 891 2475 
Q 891 2153 1531 1944 
L 1741 1875 
Q 2650 1578 2650 894 
Q 2650 434 2272 172 
Q 1972 -31 1497 -31 
Q 766 -31 256 503 
L 603 819 
Q 997 397 1516 397 
Q 2131 397 2131 875 
Q 2131 1238 1453 1478 
L 1234 1553 
Q 378 1853 378 2431 
Q 378 2797 628 3047 
Q 928 3347 1453 3347 
Q 2156 3347 2606 2859 
L 2234 2547 
z
" transform="scale(0.015625)"/>
     </defs>
     <use xlink:href="#IPAexGothic-46"/>
     <use xlink:href="#IPAexGothic-61" x="57.177734"/>
     <use xlink:href="#IPAexGothic-6c" x="112.158203"/>
     <use xlink:href="#IPAexGothic-73" x="139.160156"/>
     <use xlink:href="#IPAexGothic-65" x="185.351562"/>
    </g>
   </g>
   <g id="text_5">
    <!-- True ？ -->
    <g transform="translate(97.794688 148.993437) scale(0.14 -0.14)">
     <defs>
      <path id="IPAexGothic-ff1f" d="M 1503 3444 
Q 1550 4184 1963 4616 
Q 2466 5128 3272 5128 
Q 3888 5128 4313 4853 
Q 4909 4469 4909 3778 
Q 4909 3059 4116 2563 
Q 3628 2250 3506 1881 
Q 3422 1650 3422 1228 
L 2853 1228 
Q 2863 1869 3053 2197 
Q 3281 2588 3847 2950 
Q 4341 3269 4341 3778 
Q 4341 4231 3975 4463 
Q 3697 4634 3266 4634 
Q 2656 4634 2341 4225 
Q 2109 3928 2091 3444 
L 1503 3444 
z
M 2763 647 
L 3506 647 
L 3506 -97 
L 2763 -97 
L 2763 647 
z
" transform="scale(0.015625)"/>
     </defs>
     <use xlink:href="#IPAexGothic-54"/>
     <use xlink:href="#IPAexGothic-72" x="59.912109"/>
     <use xlink:href="#IPAexGothic-75" x="96.923828"/>
     <use xlink:href="#IPAexGothic-65" x="157.324219"/>
     <use xlink:href="#IPAexGothic-20" x="214.208984"/>
     <use xlink:href="#IPAexGothic-ff1f" x="241.210938"/>
    </g>
   </g>
   <g id="text_6">
    <!-- END -->
    <g transform="translate(259.896875 148.993437) scale(0.14 -0.14)">
     <defs>
      <path id="IPAexGothic-45" d="M 3547 63 
L 609 63 
L 609 4634 
L 3469 4634 
L 3469 4147 
L 1166 4147 
L 1166 2650 
L 3206 2650 
L 3206 2191 
L 1166 2191 
L 1166 556 
L 3547 556 
L 3547 63 
z
" transform="scale(0.015625)"/>
      <path id="IPAexGothic-4e" d="M 4244 63 
L 3731 63 
L 1697 3150 
Q 1466 3500 1141 4097 
L 1116 4097 
L 1128 3797 
Q 1159 2803 1159 2469 
L 1159 63 
L 609 63 
L 609 4634 
L 1366 4634 
L 3113 1978 
Q 3453 1447 3713 966 
L 3738 966 
Q 3694 1897 3694 2469 
L 3694 4634 
L 4244 4634 
L 4244 63 
z
" transform="scale(0.015625)"/>
      <path id="IPAexGothic-44" d="M 609 4634 
L 1984 4634 
Q 3159 4634 3791 4050 
Q 4456 3444 4456 2356 
Q 4456 1047 3516 441 
Q 2925 63 1941 63 
L 609 63 
L 609 4634 
z
M 1172 556 
L 1894 556 
Q 3853 556 3853 2356 
Q 3853 4147 1928 4147 
L 1172 4147 
L 1172 556 
z
" transform="scale(0.015625)"/>
     </defs>
     <use xlink:href="#IPAexGothic-45"/>
     <use xlink:href="#IPAexGothic-4e" x="59.521484"/>
     <use xlink:href="#IPAexGothic-44" x="135.498047"/>
    </g>
   </g>
   <g id="text_7">
    <!-- print(counter) -->
    <g transform="translate(76.047656 221.119219) scale(0.14 -0.14)">
     <defs>
      <path id="IPAexGothic-70" d="M 1075 2688 
Q 1525 3341 2206 3341 
Q 2769 3341 3172 2938 
Q 3641 2469 3641 1644 
Q 3641 841 3178 372 
Q 2775 -31 2200 -31 
Q 1569 -31 1106 497 
L 1106 -1216 
L 563 -1216 
L 563 3250 
L 1075 3250 
L 1075 2688 
z
M 1106 1950 
L 1106 1291 
Q 1106 897 1516 600 
Q 1791 403 2106 403 
Q 2469 403 2725 659 
Q 3066 997 3066 1631 
Q 3066 2200 2784 2559 
Q 2503 2900 2100 2900 
Q 1656 2900 1338 2484 
Q 1106 2184 1106 1950 
z
" transform="scale(0.015625)"/>
      <path id="IPAexGothic-69" d="M 1178 3928 
L 550 3928 
L 550 4569 
L 1178 4569 
L 1178 3928 
z
M 1138 63 
L 588 63 
L 588 3250 
L 1138 3250 
L 1138 63 
z
" transform="scale(0.015625)"/>
      <path id="IPAexGothic-28" d="M 1928 -1016 
L 1653 -1166 
Q 488 69 488 1875 
Q 488 3678 1653 4909 
L 1928 4763 
Q 1006 3522 1006 1881 
Q 1006 203 1928 -1016 
z
" transform="scale(0.015625)"/>
      <path id="IPAexGothic-29" d="M 466 4909 
Q 1638 3672 1638 1875 
Q 1638 75 466 -1166 
L 191 -1016 
Q 1119 216 1119 1881 
Q 1119 3509 191 4763 
L 466 4909 
z
" transform="scale(0.015625)"/>
     </defs>
     <use xlink:href="#IPAexGothic-70"/>
     <use xlink:href="#IPAexGothic-72" x="62.109375"/>
     <use xlink:href="#IPAexGothic-69" x="99.121094"/>
     <use xlink:href="#IPAexGothic-6e" x="126.123047"/>
     <use xlink:href="#IPAexGothic-74" x="186.523438"/>
     <use xlink:href="#IPAexGothic-28" x="221.142578"/>
     <use xlink:href="#IPAexGothic-63" x="254.443359"/>
     <use xlink:href="#IPAexGothic-6f" x="308.837891"/>
     <use xlink:href="#IPAexGothic-75" x="369.238281"/>
     <use xlink:href="#IPAexGothic-6e" x="429.638672"/>
     <use xlink:href="#IPAexGothic-74" x="490.039062"/>
     <use xlink:href="#IPAexGothic-65" x="524.658203"/>
     <use xlink:href="#IPAexGothic-72" x="581.542969"/>
     <use xlink:href="#IPAexGothic-29" x="618.554688"/>
    </g>
   </g>
   <g id="text_8">
    <!-- counter += 1 -->
    <g transform="translate(78.505313 282.193438) scale(0.14 -0.14)">
     <defs>
      <path id="IPAexGothic-2b" d="M 2369 1856 
L 2369 219 
L 1984 219 
L 1984 1856 
L 416 1856 
L 416 2216 
L 1984 2216 
L 1984 3725 
L 2369 3725 
L 2369 2216 
L 3922 2216 
L 3922 1856 
L 2369 1856 
z
" transform="scale(0.015625)"/>
      <path id="IPAexGothic-31" d="M 2463 63 
L 1900 63 
L 1900 4103 
Q 1372 3922 788 3797 
L 684 4231 
Q 1519 4441 2106 4731 
L 2463 4731 
L 2463 63 
z
" transform="scale(0.015625)"/>
     </defs>
     <use xlink:href="#IPAexGothic-63"/>
     <use xlink:href="#IPAexGothic-6f" x="54.394531"/>
     <use xlink:href="#IPAexGothic-75" x="114.794922"/>
     <use xlink:href="#IPAexGothic-6e" x="175.195312"/>
     <use xlink:href="#IPAexGothic-74" x="235.595703"/>
     <use xlink:href="#IPAexGothic-65" x="270.214844"/>
     <use xlink:href="#IPAexGothic-72" x="327.099609"/>
     <use xlink:href="#IPAexGothic-20" x="364.111328"/>
     <use xlink:href="#IPAexGothic-2b" x="391.113281"/>
     <use xlink:href="#IPAexGothic-3d" x="458.935547"/>
     <use xlink:href="#IPAexGothic-20" x="526.757812"/>
     <use xlink:href="#IPAexGothic-31" x="553.759766"/>
    </g>
   </g>
   <g id="text_9">
    <!-- True -->
    <g transform="translate(126.36 383.704018) scale(0.14 -0.14)">
     <use xlink:href="#IPAexGothic-54"/>
     <use xlink:href="#IPAexGothic-72" x="59.912109"/>
     <use xlink:href="#IPAexGothic-75" x="96.923828"/>
     <use xlink:href="#IPAexGothic-65" x="157.324219"/>
    </g>
   </g>
   <g id="text_10">
    <!-- False -->
    <g transform="translate(20.087188 339.597143) scale(0.14 -0.14)">
     <use xlink:href="#IPAexGothic-46"/>
     <use xlink:href="#IPAexGothic-61" x="57.177734"/>
     <use xlink:href="#IPAexGothic-6c" x="112.158203"/>
     <use xlink:href="#IPAexGothic-73" x="139.160156"/>
     <use xlink:href="#IPAexGothic-65" x="185.351562"/>
    </g>
   </g>
   <g id="text_11">
    <!-- counter &gt; 2 ？ -->
    <g transform="translate(74.363281 350.85058) scale(0.14 -0.14)">
     <defs>
      <path id="IPAexGothic-3e" d="M 3444 2028 
L 409 3450 
L 569 3794 
L 3928 2175 
L 3928 1881 
L 569 263 
L 409 609 
L 3444 2028 
z
" transform="scale(0.015625)"/>
      <path id="IPAexGothic-32" d="M 3659 63 
L 447 63 
L 447 594 
Q 825 1475 1894 2203 
L 2072 2322 
Q 2619 2697 2791 2906 
Q 2988 3153 2988 3444 
Q 2988 3772 2756 4003 
Q 2500 4259 2084 4259 
Q 1250 4259 991 3328 
L 497 3506 
Q 853 4725 2116 4725 
Q 2806 4725 3216 4316 
Q 3575 3947 3575 3425 
Q 3575 3038 3344 2722 
Q 3131 2416 2366 1938 
L 2231 1856 
Q 1256 1253 978 569 
L 3659 569 
L 3659 63 
z
" transform="scale(0.015625)"/>
     </defs>
     <use xlink:href="#IPAexGothic-63"/>
     <use xlink:href="#IPAexGothic-6f" x="54.394531"/>
     <use xlink:href="#IPAexGothic-75" x="114.794922"/>
     <use xlink:href="#IPAexGothic-6e" x="175.195312"/>
     <use xlink:href="#IPAexGothic-74" x="235.595703"/>
     <use xlink:href="#IPAexGothic-65" x="270.214844"/>
     <use xlink:href="#IPAexGothic-72" x="327.099609"/>
     <use xlink:href="#IPAexGothic-20" x="364.111328"/>
     <use xlink:href="#IPAexGothic-3e" x="391.113281"/>
     <use xlink:href="#IPAexGothic-20" x="458.935547"/>
     <use xlink:href="#IPAexGothic-32" x="485.9375"/>
     <use xlink:href="#IPAexGothic-20" x="548.925781"/>
     <use xlink:href="#IPAexGothic-ff1f" x="575.927734"/>
    </g>
   </g>
   <g id="text_12">
    <!-- END -->
    <g transform="translate(106.896875 421.307723) scale(0.14 -0.14)">
     <use xlink:href="#IPAexGothic-45"/>
     <use xlink:href="#IPAexGothic-4e" x="59.521484"/>
     <use xlink:href="#IPAexGothic-44" x="135.498047"/>
    </g>
   </g>
  </g>
 </g>
 <defs>
  <clipPath id="p16263fd372">
   <rect x="0" y="-0" width="315.36" height="440.074286"/>
  </clipPath>
 </defs>
</svg>