<?xml version="1.0" encoding="utf-8" standalone="no"?>
<!DOCTYPE svg PUBLIC "-//W3C//DTD SVG 1.1//EN"
  "http://www.w3.org/Graphics/SVG/1.1/DTD/svg11.dtd">
<svg xmlns:xlink="http://www.w3.org/1999/xlink" width="343.8pt" height="342.385714pt" viewBox="0 0 343.8 342.385714" xmlns="http://www.w3.org/2000/svg" version="1.1">
 <metadata>
  <rdf:RDF xmlns:dc="http://purl.org/dc/elements/1.1/" xmlns:cc="http://creativecommons.org/ns#" xmlns:rdf="http://www.w3.org/1999/02/22-rdf-syntax-ns#">
   <cc:Work>
    <dc:type rdf:resource="http://purl.org/dc/dcmitype/StillImage"/>
    <dc:date>2024-03-09T08:19:51.403536</dc:date>
    <dc:format>image/svg+xml</dc:format>
    <dc:creator>
     <cc:Agent>
      <dc:title>Matplotlib v3.8.3, https://matplotlib.org/</dc:title>
     </cc:Agent>
    </dc:creator>
   </cc:Work>
  </rdf:RDF>
 </metadata>
 <defs>
  <style type="text/css">*{stroke-linejoin: round; stroke-linecap: butt}</style>
 </defs>
 <g id="figure_1">
  <g id="patch_1">
   <path d="M 0 342.385714 
L 343.8 342.385714 
L 343.8 0 
L 0 0 
z
" style="fill: #ffffff"/>
  </g>
  <g id="axes_1">
   <g id="patch_2">
    <path d="M 153.9 54.835714 
L 154.185587 54.833449 
L 154.471103 54.826652 
L 154.756474 54.815326 
L 155.041631 54.799474 
L 155.326499 54.7791 
L 155.611009 54.754209 
L 155.895088 54.724807 
L 156.178664 54.690901 
L 156.461667 54.6525 
L 156.744025 54.609614 
L 157.025667 54.562254 
L 157.306522 54.510431 
L 157.58652 54.454158 
L 157.86559 54.39345 
L 158.143661 54.328323 
L 158.420664 54.258791 
L 158.696529 54.184873 
L 158.971186 54.106588 
L 159.244567 54.023955 
L 159.516602 53.936994 
L 159.787223 53.845729 
L 160.056363 53.750181 
L 160.323952 53.650376 
L 160.589924 53.546337 
L 160.854212 53.438092 
L 161.11675 53.325667 
L 161.37747 53.20909 
L 161.636308 53.088392 
L 161.893199 52.963602 
L 162.148077 52.834752 
L 162.400879 52.701875 
L 162.651541 52.565003 
L 162.9 52.424172 
L 163.146193 52.279416 
L 163.390058 52.130772 
L 163.631535 51.978278 
L 163.870561 51.821972 
L 164.107078 51.661893 
L 164.341024 51.498081 
L 164.572343 51.330579 
L 164.800974 51.159427 
L 165.026862 50.98467 
L 165.249948 50.806351 
L 165.470177 50.624514 
L 165.687493 50.439207 
L 165.901842 50.250474 
L 166.113169 50.058365 
L 166.321422 49.862927 
L 166.526548 49.664209 
L 166.728495 49.462262 
L 166.927213 49.257136 
L 167.122651 49.048884 
L 167.31476 48.837556 
L 167.503492 48.623207 
L 167.6888 48.405891 
L 167.870636 48.185662 
L 168.048956 47.962576 
L 168.223713 47.736689 
L 168.394865 47.508057 
L 168.562367 47.276739 
L 168.726178 47.042792 
L 168.886257 46.806275 
L 169.042564 46.567249 
L 169.195058 46.325773 
L 169.343701 46.081907 
L 169.488457 45.835714 
L 169.629289 45.587256 
L 169.766161 45.336594 
L 169.899038 45.083792 
L 170.027888 44.828913 
L 170.152678 44.572023 
L 170.273376 44.313185 
L 170.389952 44.052464 
L 170.502377 43.789927 
L 170.610623 43.525638 
L 170.714661 43.259666 
L 170.814467 42.992077 
L 170.910015 42.722938 
L 171.00128 42.452316 
L 171.08824 42.180281 
L 171.170874 41.9069 
L 171.249159 41.632243 
L 171.323077 41.356378 
L 171.392608 41.079375 
L 171.457736 40.801304 
L 171.518444 40.522234 
L 171.574717 40.242237 
L 171.62654 39.961381 
L 171.6739 39.679739 
L 171.716786 39.397381 
L 171.755187 39.114378 
L 171.789092 38.830802 
L 171.818495 38.546723 
L 171.843386 38.262214 
L 171.86376 37.977345 
L 171.879612 37.692189 
L 171.890938 37.406817 
L 171.897734 37.121302 
L 171.9 36.835714 
L 171.9 36.835714 
L 171.897734 36.550127 
L 171.890938 36.264611 
L 171.879612 35.97924 
L 171.86376 35.694084 
L 171.843386 35.409215 
L 171.818495 35.124706 
L 171.789092 34.840627 
L 171.755187 34.55705 
L 171.716786 34.274047 
L 171.6739 33.991689 
L 171.62654 33.710047 
L 171.574717 33.429192 
L 171.518444 33.149194 
L 171.457736 32.870125 
L 171.392608 32.592053 
L 171.323077 32.315051 
L 171.249159 32.039186 
L 171.170874 31.764528 
L 171.08824 31.491148 
L 171.00128 31.219112 
L 170.910015 30.948491 
L 170.814467 30.679352 
L 170.714661 30.411762 
L 170.610623 30.14579 
L 170.502377 29.881502 
L 170.389952 29.618965 
L 170.273376 29.358244 
L 170.152678 29.099406 
L 170.027888 28.842515 
L 169.899038 28.587637 
L 169.766161 28.334835 
L 169.629289 28.084173 
L 169.488457 27.835714 
L 169.343701 27.589521 
L 169.195058 27.345656 
L 169.042564 27.10418 
L 168.886257 26.865153 
L 168.726178 26.628637 
L 168.562367 26.39469 
L 168.394865 26.163372 
L 168.223713 25.93474 
L 168.048956 25.708853 
L 167.870636 25.485766 
L 167.6888 25.265537 
L 167.503492 25.048221 
L 167.31476 24.833872 
L 167.122651 24.622545 
L 166.927213 24.414292 
L 166.728495 24.209166 
L 166.526548 24.007219 
L 166.321422 23.808502 
L 166.113169 23.613064 
L 165.901842 23.420954 
L 165.687493 23.232222 
L 165.470177 23.046914 
L 165.249948 22.865078 
L 165.026862 22.686759 
L 164.800974 22.512001 
L 164.572343 22.34085 
L 164.341024 22.173347 
L 164.107078 22.009536 
L 163.870561 21.849457 
L 163.631535 21.693151 
L 163.390058 21.540657 
L 163.146193 21.392013 
L 162.9 21.247257 
L 162.651541 21.106425 
L 162.400879 20.969554 
L 162.148077 20.836676 
L 161.893199 20.707826 
L 161.636308 20.583037 
L 161.37747 20.462338 
L 161.11675 20.345762 
L 160.854212 20.233337 
L 160.589924 20.125091 
L 160.323952 20.021053 
L 160.056363 19.921247 
L 159.787223 19.8257 
L 159.516602 19.734434 
L 159.244567 19.647474 
L 158.971186 19.564841 
L 158.696529 19.486555 
L 158.420664 19.412638 
L 158.143661 19.343106 
L 157.86559 19.277978 
L 157.58652 19.21727 
L 157.306522 19.160998 
L 157.025667 19.109175 
L 156.744025 19.061814 
L 156.461667 19.018928 
L 156.178664 18.980528 
L 155.895088 18.946622 
L 155.611009 18.91722 
L 155.326499 18.892328 
L 155.041631 18.871954 
L 154.756474 18.856102 
L 154.471103 18.844777 
L 154.185587 18.83798 
L 153.9 18.835714 
L 117.9 18.835714 
L 117.614413 18.83798 
L 117.328897 18.844777 
L 117.043526 18.856102 
L 116.758369 18.871954 
L 116.473501 18.892328 
L 116.188991 18.91722 
L 115.904912 18.946622 
L 115.621336 18.980528 
L 115.338333 19.018928 
L 115.055975 19.061814 
L 114.774333 19.109175 
L 114.493478 19.160998 
L 114.21348 19.21727 
L 113.93441 19.277978 
L 113.656339 19.343106 
L 113.379336 19.412638 
L 113.103471 19.486555 
L 112.828814 19.564841 
L 112.555433 19.647474 
L 112.283398 19.734434 
L 112.012777 19.8257 
L 111.743637 19.921247 
L 111.476048 20.021053 
L 111.210076 20.125091 
L 110.945788 20.233337 
L 110.68325 20.345762 
L 110.42253 20.462338 
L 110.163692 20.583037 
L 109.906801 20.707826 
L 109.651923 20.836676 
L 109.399121 20.969554 
L 109.148459 21.106425 
L 108.9 21.247257 
L 108.653807 21.392013 
L 108.409942 21.540657 
L 108.168465 21.693151 
L 107.929439 21.849457 
L 107.692922 22.009536 
L 107.458976 22.173347 
L 107.227657 22.34085 
L 106.999026 22.512001 
L 106.773138 22.686759 
L 106.550052 22.865078 
L 106.329823 23.046914 
L 106.112507 23.232222 
L 105.898158 23.420954 
L 105.686831 23.613064 
L 105.478578 23.808502 
L 105.273452 24.007219 
L 105.071505 24.209166 
L 104.872787 24.414292 
L 104.677349 24.622545 
L 104.48524 24.833872 
L 104.296508 25.048221 
L 104.1112 25.265537 
L 103.929364 25.485766 
L 103.751044 25.708853 
L 103.576287 25.93474 
L 103.405135 26.163372 
L 103.237633 26.39469 
L 103.073822 26.628637 
L 102.913743 26.865153 
L 102.757436 27.10418 
L 102.604942 27.345656 
L 102.456299 27.589521 
L 102.311543 27.835714 
L 102.170711 28.084173 
L 102.033839 28.334835 
L 101.900962 28.587637 
L 101.772112 28.842515 
L 101.647322 29.099406 
L 101.526624 29.358244 
L 101.410048 29.618965 
L 101.297623 29.881502 
L 101.189377 30.14579 
L 101.085339 30.411762 
L 100.985533 30.679352 
L 100.889985 30.948491 
L 100.79872 31.219112 
L 100.71176 31.491148 
L 100.629126 31.764528 
L 100.550841 32.039186 
L 100.476923 32.315051 
L 100.407392 32.592053 
L 100.342264 32.870125 
L 100.281556 33.149194 
L 100.225283 33.429192 
L 100.17346 33.710047 
L 100.1261 33.991689 
L 100.083214 34.274047 
L 100.044813 34.55705 
L 100.010908 34.840627 
L 99.981505 35.124706 
L 99.956614 35.409215 
L 99.93624 35.694084 
L 99.920388 35.97924 
L 99.909062 36.264611 
L 99.902266 36.550127 
L 99.9 36.835714 
L 99.9 36.835714 
L 99.902266 37.121302 
L 99.909062 37.406817 
L 99.920388 37.692189 
L 99.93624 37.977345 
L 99.956614 38.262214 
L 99.981505 38.546723 
L 100.010908 38.830802 
L 100.044813 39.114378 
L 100.083214 39.397381 
L 100.1261 39.679739 
L 100.17346 39.961381 
L 100.225283 40.242237 
L 100.281556 40.522234 
L 100.342264 40.801304 
L 100.407392 41.079375 
L 100.476923 41.356378 
L 100.550841 41.632243 
L 100.629126 41.9069 
L 100.71176 42.180281 
L 100.79872 42.452316 
L 100.889985 42.722938 
L 100.985533 42.992077 
L 101.085339 43.259666 
L 101.189377 43.525638 
L 101.297623 43.789927 
L 101.410048 44.052464 
L 101.526624 44.313185 
L 101.647322 44.572023 
L 101.772112 44.828913 
L 101.900962 45.083792 
L 102.033839 45.336594 
L 102.170711 45.587256 
L 102.311543 45.835714 
L 102.456299 46.081907 
L 102.604942 46.325773 
L 102.757436 46.567249 
L 102.913743 46.806275 
L 103.073822 47.042792 
L 103.237633 47.276739 
L 103.405135 47.508057 
L 103.576287 47.736689 
L 103.751044 47.962576 
L 103.929364 48.185662 
L 104.1112 48.405891 
L 104.296508 48.623207 
L 104.48524 48.837556 
L 104.677349 49.048884 
L 104.872787 49.257136 
L 105.071505 49.462262 
L 105.273452 49.664209 
L 105.478578 49.862927 
L 105.686831 50.058365 
L 105.898158 50.250474 
L 106.112507 50.439207 
L 106.329823 50.624514 
L 106.550052 50.806351 
L 106.773138 50.98467 
L 106.999026 51.159427 
L 107.227657 51.330579 
L 107.458976 51.498081 
L 107.692922 51.661893 
L 107.929439 51.821972 
L 108.168465 51.978278 
L 108.409942 52.130772 
L 108.653807 52.279416 
L 108.9 52.424172 
L 109.148459 52.565003 
L 109.399121 52.701875 
L 109.651923 52.834752 
L 109.906801 52.963602 
L 110.163692 53.088392 
L 110.42253 53.20909 
L 110.68325 53.325667 
L 110.945788 53.438092 
L 111.210076 53.546337 
L 111.476048 53.650376 
L 111.743637 53.750181 
L 112.012777 53.845729 
L 112.283398 53.936994 
L 112.555433 54.023955 
L 112.828814 54.106588 
L 113.103471 54.184873 
L 113.379336 54.258791 
L 113.656339 54.328323 
L 113.93441 54.39345 
L 114.21348 54.454158 
L 114.493478 54.510431 
L 114.774333 54.562254 
L 115.055975 54.609614 
L 115.338333 54.6525 
L 115.621336 54.690901 
L 115.904912 54.724807 
L 116.188991 54.754209 
L 116.473501 54.7791 
L 116.758369 54.799474 
L 117.043526 54.815326 
L 117.328897 54.826652 
L 117.614413 54.833449 
L 117.9 54.835714 
L 153.9 54.835714 
z
" clip-path="url(#p73db31bf6a)" style="fill: none; stroke: #000000; stroke-linecap: round"/>
   </g>
   <g id="patch_3">
    <path d="M 72.9 99.835714 
L 135.9 81.835714 
L 198.9 99.835714 
L 135.9 117.835714 
L 72.9 99.835714 
z
" clip-path="url(#p73db31bf6a)" style="fill: none; stroke: #000000; stroke-linecap: round"/>
   </g>
   <g id="patch_4">
    <path d="M 306.9 117.835714 
L 307.185587 117.833449 
L 307.471103 117.826652 
L 307.756474 117.815326 
L 308.041631 117.799474 
L 308.326499 117.7791 
L 308.611009 117.754209 
L 308.895088 117.724807 
L 309.178664 117.690901 
L 309.461667 117.6525 
L 309.744025 117.609614 
L 310.025667 117.562254 
L 310.306522 117.510431 
L 310.58652 117.454158 
L 310.86559 117.39345 
L 311.143661 117.328323 
L 311.420664 117.258791 
L 311.696529 117.184873 
L 311.971186 117.106588 
L 312.244567 117.023955 
L 312.516602 116.936994 
L 312.787223 116.845729 
L 313.056363 116.750181 
L 313.323952 116.650376 
L 313.589924 116.546337 
L 313.854212 116.438092 
L 314.11675 116.325667 
L 314.37747 116.20909 
L 314.636308 116.088392 
L 314.893199 115.963602 
L 315.148077 115.834752 
L 315.400879 115.701875 
L 315.651541 115.565003 
L 315.9 115.424172 
L 316.146193 115.279416 
L 316.390058 115.130772 
L 316.631535 114.978278 
L 316.870561 114.821972 
L 317.107078 114.661893 
L 317.341024 114.498081 
L 317.572343 114.330579 
L 317.800974 114.159427 
L 318.026862 113.98467 
L 318.249948 113.806351 
L 318.470177 113.624514 
L 318.687493 113.439207 
L 318.901842 113.250474 
L 319.113169 113.058365 
L 319.321422 112.862927 
L 319.526548 112.664209 
L 319.728495 112.462262 
L 319.927213 112.257136 
L 320.122651 112.048884 
L 320.31476 111.837556 
L 320.503492 111.623207 
L 320.6888 111.405891 
L 320.870636 111.185662 
L 321.048956 110.962576 
L 321.223713 110.736689 
L 321.394865 110.508057 
L 321.562367 110.276739 
L 321.726178 110.042792 
L 321.886257 109.806275 
L 322.042564 109.567249 
L 322.195058 109.325773 
L 322.343701 109.081907 
L 322.488457 108.835714 
L 322.629289 108.587256 
L 322.766161 108.336594 
L 322.899038 108.083792 
L 323.027888 107.828913 
L 323.152678 107.572023 
L 323.273376 107.313185 
L 323.389952 107.052464 
L 323.502377 106.789927 
L 323.610623 106.525638 
L 323.714661 106.259666 
L 323.814467 105.992077 
L 323.910015 105.722938 
L 324.00128 105.452316 
L 324.08824 105.180281 
L 324.170874 104.9069 
L 324.249159 104.632243 
L 324.323077 104.356378 
L 324.392608 104.079375 
L 324.457736 103.801304 
L 324.518444 103.522234 
L 324.574717 103.242237 
L 324.62654 102.961381 
L 324.6739 102.679739 
L 324.716786 102.397381 
L 324.755187 102.114378 
L 324.789092 101.830802 
L 324.818495 101.546723 
L 324.843386 101.262214 
L 324.86376 100.977345 
L 324.879612 100.692189 
L 324.890938 100.406817 
L 324.897734 100.121302 
L 324.9 99.835714 
L 324.9 99.835714 
L 324.897734 99.550127 
L 324.890938 99.264611 
L 324.879612 98.97924 
L 324.86376 98.694084 
L 324.843386 98.409215 
L 324.818495 98.124706 
L 324.789092 97.840627 
L 324.755187 97.55705 
L 324.716786 97.274047 
L 324.6739 96.991689 
L 324.62654 96.710047 
L 324.574717 96.429192 
L 324.518444 96.149194 
L 324.457736 95.870125 
L 324.392608 95.592053 
L 324.323077 95.315051 
L 324.249159 95.039186 
L 324.170874 94.764528 
L 324.08824 94.491148 
L 324.00128 94.219112 
L 323.910015 93.948491 
L 323.814467 93.679352 
L 323.714661 93.411762 
L 323.610623 93.14579 
L 323.502377 92.881502 
L 323.389952 92.618965 
L 323.273376 92.358244 
L 323.152678 92.099406 
L 323.027888 91.842515 
L 322.899038 91.587637 
L 322.766161 91.334835 
L 322.629289 91.084173 
L 322.488457 90.835714 
L 322.343701 90.589521 
L 322.195058 90.345656 
L 322.042564 90.10418 
L 321.886257 89.865153 
L 321.726178 89.628637 
L 321.562367 89.39469 
L 321.394865 89.163372 
L 321.223713 88.93474 
L 321.048956 88.708853 
L 320.870636 88.485766 
L 320.6888 88.265537 
L 320.503492 88.048221 
L 320.31476 87.833872 
L 320.122651 87.622545 
L 319.927213 87.414292 
L 319.728495 87.209166 
L 319.526548 87.007219 
L 319.321422 86.808502 
L 319.113169 86.613064 
L 318.901842 86.420954 
L 318.687493 86.232222 
L 318.470177 86.046914 
L 318.249948 85.865078 
L 318.026862 85.686759 
L 317.800974 85.512001 
L 317.572343 85.34085 
L 317.341024 85.173347 
L 317.107078 85.009536 
L 316.870561 84.849457 
L 316.631535 84.693151 
L 316.390058 84.540657 
L 316.146193 84.392013 
L 315.9 84.247257 
L 315.651541 84.106425 
L 315.400879 83.969554 
L 315.148077 83.836676 
L 314.893199 83.707826 
L 314.636308 83.583037 
L 314.37747 83.462338 
L 314.11675 83.345762 
L 313.854212 83.233337 
L 313.589924 83.125091 
L 313.323952 83.021053 
L 313.056363 82.921247 
L 312.787223 82.8257 
L 312.516602 82.734434 
L 312.244567 82.647474 
L 311.971186 82.564841 
L 311.696529 82.486555 
L 311.420664 82.412638 
L 311.143661 82.343106 
L 310.86559 82.277978 
L 310.58652 82.21727 
L 310.306522 82.160998 
L 310.025667 82.109175 
L 309.744025 82.061814 
L 309.461667 82.018928 
L 309.178664 81.980528 
L 308.895088 81.946622 
L 308.611009 81.91722 
L 308.326499 81.892328 
L 308.041631 81.871954 
L 307.756474 81.856102 
L 307.471103 81.844777 
L 307.185587 81.83798 
L 306.9 81.835714 
L 270.9 81.835714 
L 270.614413 81.83798 
L 270.328897 81.844777 
L 270.043526 81.856102 
L 269.758369 81.871954 
L 269.473501 81.892328 
L 269.188991 81.91722 
L 268.904912 81.946622 
L 268.621336 81.980528 
L 268.338333 82.018928 
L 268.055975 82.061814 
L 267.774333 82.109175 
L 267.493478 82.160998 
L 267.21348 82.21727 
L 266.93441 82.277978 
L 266.656339 82.343106 
L 266.379336 82.412638 
L 266.103471 82.486555 
L 265.828814 82.564841 
L 265.555433 82.647474 
L 265.283398 82.734434 
L 265.012777 82.8257 
L 264.743637 82.921247 
L 264.476048 83.021053 
L 264.210076 83.125091 
L 263.945788 83.233337 
L 263.68325 83.345762 
L 263.42253 83.462338 
L 263.163692 83.583037 
L 262.906801 83.707826 
L 262.651923 83.836676 
L 262.399121 83.969554 
L 262.148459 84.106425 
L 261.9 84.247257 
L 261.653807 84.392013 
L 261.409942 84.540657 
L 261.168465 84.693151 
L 260.929439 84.849457 
L 260.692922 85.009536 
L 260.458976 85.173347 
L 260.227657 85.34085 
L 259.999026 85.512001 
L 259.773138 85.686759 
L 259.550052 85.865078 
L 259.329823 86.046914 
L 259.112507 86.232222 
L 258.898158 86.420954 
L 258.686831 86.613064 
L 258.478578 86.808502 
L 258.273452 87.007219 
L 258.071505 87.209166 
L 257.872787 87.414292 
L 257.677349 87.622545 
L 257.48524 87.833872 
L 257.296508 88.048221 
L 257.1112 88.265537 
L 256.929364 88.485766 
L 256.751044 88.708853 
L 256.576287 88.93474 
L 256.405135 89.163372 
L 256.237633 89.39469 
L 256.073822 89.628637 
L 255.913743 89.865153 
L 255.757436 90.10418 
L 255.604942 90.345656 
L 255.456299 90.589521 
L 255.311543 90.835714 
L 255.170711 91.084173 
L 255.033839 91.334835 
L 254.900962 91.587637 
L 254.772112 91.842515 
L 254.647322 92.099406 
L 254.526624 92.358244 
L 254.410048 92.618965 
L 254.297623 92.881502 
L 254.189377 93.14579 
L 254.085339 93.411762 
L 253.985533 93.679352 
L 253.889985 93.948491 
L 253.79872 94.219112 
L 253.71176 94.491148 
L 253.629126 94.764528 
L 253.550841 95.039186 
L 253.476923 95.315051 
L 253.407392 95.592053 
L 253.342264 95.870125 
L 253.281556 96.149194 
L 253.225283 96.429192 
L 253.17346 96.710047 
L 253.1261 96.991689 
L 253.083214 97.274047 
L 253.044813 97.55705 
L 253.010908 97.840627 
L 252.981505 98.124706 
L 252.956614 98.409215 
L 252.93624 98.694084 
L 252.920388 98.97924 
L 252.909062 99.264611 
L 252.902266 99.550127 
L 252.9 99.835714 
L 252.9 99.835714 
L 252.902266 100.121302 
L 252.909062 100.406817 
L 252.920388 100.692189 
L 252.93624 100.977345 
L 252.956614 101.262214 
L 252.981505 101.546723 
L 253.010908 101.830802 
L 253.044813 102.114378 
L 253.083214 102.397381 
L 253.1261 102.679739 
L 253.17346 102.961381 
L 253.225283 103.242237 
L 253.281556 103.522234 
L 253.342264 103.801304 
L 253.407392 104.079375 
L 253.476923 104.356378 
L 253.550841 104.632243 
L 253.629126 104.9069 
L 253.71176 105.180281 
L 253.79872 105.452316 
L 253.889985 105.722938 
L 253.985533 105.992077 
L 254.085339 106.259666 
L 254.189377 106.525638 
L 254.297623 106.789927 
L 254.410048 107.052464 
L 254.526624 107.313185 
L 254.647322 107.572023 
L 254.772112 107.828913 
L 254.900962 108.083792 
L 255.033839 108.336594 
L 255.170711 108.587256 
L 255.311543 108.835714 
L 255.456299 109.081907 
L 255.604942 109.325773 
L 255.757436 109.567249 
L 255.913743 109.806275 
L 256.073822 110.042792 
L 256.237633 110.276739 
L 256.405135 110.508057 
L 256.576287 110.736689 
L 256.751044 110.962576 
L 256.929364 111.185662 
L 257.1112 111.405891 
L 257.296508 111.623207 
L 257.48524 111.837556 
L 257.677349 112.048884 
L 257.872787 112.257136 
L 258.071505 112.462262 
L 258.273452 112.664209 
L 258.478578 112.862927 
L 258.686831 113.058365 
L 258.898158 113.250474 
L 259.112507 113.439207 
L 259.329823 113.624514 
L 259.550052 113.806351 
L 259.773138 113.98467 
L 259.999026 114.159427 
L 260.227657 114.330579 
L 260.458976 114.498081 
L 260.692922 114.661893 
L 260.929439 114.821972 
L 261.168465 114.978278 
L 261.409942 115.130772 
L 261.653807 115.279416 
L 261.9 115.424172 
L 262.148459 115.565003 
L 262.399121 115.701875 
L 262.651923 115.834752 
L 262.906801 115.963602 
L 263.163692 116.088392 
L 263.42253 116.20909 
L 263.68325 116.325667 
L 263.945788 116.438092 
L 264.210076 116.546337 
L 264.476048 116.650376 
L 264.743637 116.750181 
L 265.012777 116.845729 
L 265.283398 116.936994 
L 265.555433 117.023955 
L 265.828814 117.106588 
L 266.103471 117.184873 
L 266.379336 117.258791 
L 266.656339 117.328323 
L 266.93441 117.39345 
L 267.21348 117.454158 
L 267.493478 117.510431 
L 267.774333 117.562254 
L 268.055975 117.609614 
L 268.338333 117.6525 
L 268.621336 117.690901 
L 268.904912 117.724807 
L 269.188991 117.754209 
L 269.473501 117.7791 
L 269.758369 117.799474 
L 270.043526 117.815326 
L 270.328897 117.826652 
L 270.614413 117.833449 
L 270.9 117.835714 
L 306.9 117.835714 
z
" clip-path="url(#p73db31bf6a)" style="fill: none; stroke: #000000; stroke-linecap: round"/>
   </g>
   <g id="patch_5">
    <path d="M 72.9 238.692857 
L 135.9 220.692857 
L 198.9 238.692857 
L 135.9 256.692857 
L 72.9 238.692857 
z
" clip-path="url(#p73db31bf6a)" style="fill: none; stroke: #000000; stroke-linecap: round"/>
   </g>
   <g id="patch_6">
    <path d="M 153.9 323.55 
L 154.185587 323.547734 
L 154.471103 323.540938 
L 154.756474 323.529612 
L 155.041631 323.51376 
L 155.326499 323.493386 
L 155.611009 323.468495 
L 155.895088 323.439092 
L 156.178664 323.405187 
L 156.461667 323.366786 
L 156.744025 323.3239 
L 157.025667 323.27654 
L 157.306522 323.224717 
L 157.58652 323.168444 
L 157.86559 323.107736 
L 158.143661 323.042608 
L 158.420664 322.973077 
L 158.696529 322.899159 
L 158.971186 322.820874 
L 159.244567 322.73824 
L 159.516602 322.65128 
L 159.787223 322.560015 
L 160.056363 322.464467 
L 160.323952 322.364661 
L 160.589924 322.260623 
L 160.854212 322.152377 
L 161.11675 322.039952 
L 161.37747 321.923376 
L 161.636308 321.802678 
L 161.893199 321.677888 
L 162.148077 321.549038 
L 162.400879 321.416161 
L 162.651541 321.279289 
L 162.9 321.138457 
L 163.146193 320.993701 
L 163.390058 320.845058 
L 163.631535 320.692564 
L 163.870561 320.536257 
L 164.107078 320.376178 
L 164.341024 320.212367 
L 164.572343 320.044865 
L 164.800974 319.873713 
L 165.026862 319.698956 
L 165.249948 319.520636 
L 165.470177 319.3388 
L 165.687493 319.153492 
L 165.901842 318.96476 
L 166.113169 318.772651 
L 166.321422 318.577213 
L 166.526548 318.378495 
L 166.728495 318.176548 
L 166.927213 317.971422 
L 167.122651 317.763169 
L 167.31476 317.551842 
L 167.503492 317.337493 
L 167.6888 317.120177 
L 167.870636 316.899948 
L 168.048956 316.676862 
L 168.223713 316.450974 
L 168.394865 316.222343 
L 168.562367 315.991024 
L 168.726178 315.757078 
L 168.886257 315.520561 
L 169.042564 315.281535 
L 169.195058 315.040058 
L 169.343701 314.796193 
L 169.488457 314.55 
L 169.629289 314.301541 
L 169.766161 314.050879 
L 169.899038 313.798077 
L 170.027888 313.543199 
L 170.152678 313.286308 
L 170.273376 313.02747 
L 170.389952 312.76675 
L 170.502377 312.504212 
L 170.610623 312.239924 
L 170.714661 311.973952 
L 170.814467 311.706363 
L 170.910015 311.437223 
L 171.00128 311.166602 
L 171.08824 310.894567 
L 171.170874 310.621186 
L 171.249159 310.346529 
L 171.323077 310.070664 
L 171.392608 309.793661 
L 171.457736 309.51559 
L 171.518444 309.23652 
L 171.574717 308.956522 
L 171.62654 308.675667 
L 171.6739 308.394025 
L 171.716786 308.111667 
L 171.755187 307.828664 
L 171.789092 307.545088 
L 171.818495 307.261009 
L 171.843386 306.976499 
L 171.86376 306.691631 
L 171.879612 306.406474 
L 171.890938 306.121103 
L 171.897734 305.835587 
L 171.9 305.55 
L 171.9 305.55 
L 171.897734 305.264413 
L 171.890938 304.978897 
L 171.879612 304.693526 
L 171.86376 304.408369 
L 171.843386 304.123501 
L 171.818495 303.838991 
L 171.789092 303.554912 
L 171.755187 303.271336 
L 171.716786 302.988333 
L 171.6739 302.705975 
L 171.62654 302.424333 
L 171.574717 302.143478 
L 171.518444 301.86348 
L 171.457736 301.58441 
L 171.392608 301.306339 
L 171.323077 301.029336 
L 171.249159 300.753471 
L 171.170874 300.478814 
L 171.08824 300.205433 
L 171.00128 299.933398 
L 170.910015 299.662777 
L 170.814467 299.393637 
L 170.714661 299.126048 
L 170.610623 298.860076 
L 170.502377 298.595788 
L 170.389952 298.33325 
L 170.273376 298.07253 
L 170.152678 297.813692 
L 170.027888 297.556801 
L 169.899038 297.301923 
L 169.766161 297.049121 
L 169.629289 296.798459 
L 169.488457 296.55 
L 169.343701 296.303807 
L 169.195058 296.059942 
L 169.042564 295.818465 
L 168.886257 295.579439 
L 168.726178 295.342922 
L 168.562367 295.108976 
L 168.394865 294.877657 
L 168.223713 294.649026 
L 168.048956 294.423138 
L 167.870636 294.200052 
L 167.6888 293.979823 
L 167.503492 293.762507 
L 167.31476 293.548158 
L 167.122651 293.336831 
L 166.927213 293.128578 
L 166.728495 292.923452 
L 166.526548 292.721505 
L 166.321422 292.522787 
L 166.113169 292.327349 
L 165.901842 292.13524 
L 165.687493 291.946508 
L 165.470177 291.7612 
L 165.249948 291.579364 
L 165.026862 291.401044 
L 164.800974 291.226287 
L 164.572343 291.055135 
L 164.341024 290.887633 
L 164.107078 290.723822 
L 163.870561 290.563743 
L 163.631535 290.407436 
L 163.390058 290.254942 
L 163.146193 290.106299 
L 162.9 289.961543 
L 162.651541 289.820711 
L 162.400879 289.683839 
L 162.148077 289.550962 
L 161.893199 289.422112 
L 161.636308 289.297322 
L 161.37747 289.176624 
L 161.11675 289.060048 
L 160.854212 288.947623 
L 160.589924 288.839377 
L 160.323952 288.735339 
L 160.056363 288.635533 
L 159.787223 288.539985 
L 159.516602 288.44872 
L 159.244567 288.36176 
L 158.971186 288.279126 
L 158.696529 288.200841 
L 158.420664 288.126923 
L 158.143661 288.057392 
L 157.86559 287.992264 
L 157.58652 287.931556 
L 157.306522 287.875283 
L 157.025667 287.82346 
L 156.744025 287.7761 
L 156.461667 287.733214 
L 156.178664 287.694813 
L 155.895088 287.660908 
L 155.611009 287.631505 
L 155.326499 287.606614 
L 155.041631 287.58624 
L 154.756474 287.570388 
L 154.471103 287.559062 
L 154.185587 287.552266 
L 153.9 287.55 
L 117.9 287.55 
L 117.614413 287.552266 
L 117.328897 287.559062 
L 117.043526 287.570388 
L 116.758369 287.58624 
L 116.473501 287.606614 
L 116.188991 287.631505 
L 115.904912 287.660908 
L 115.621336 287.694813 
L 115.338333 287.733214 
L 115.055975 287.7761 
L 114.774333 287.82346 
L 114.493478 287.875283 
L 114.21348 287.931556 
L 113.93441 287.992264 
L 113.656339 288.057392 
L 113.379336 288.126923 
L 113.103471 288.200841 
L 112.828814 288.279126 
L 112.555433 288.36176 
L 112.283398 288.44872 
L 112.012777 288.539985 
L 111.743637 288.635533 
L 111.476048 288.735339 
L 111.210076 288.839377 
L 110.945788 288.947623 
L 110.68325 289.060048 
L 110.42253 289.176624 
L 110.163692 289.297322 
L 109.906801 289.422112 
L 109.651923 289.550962 
L 109.399121 289.683839 
L 109.148459 289.820711 
L 108.9 289.961543 
L 108.653807 290.106299 
L 108.409942 290.254942 
L 108.168465 290.407436 
L 107.929439 290.563743 
L 107.692922 290.723822 
L 107.458976 290.887633 
L 107.227657 291.055135 
L 106.999026 291.226287 
L 106.773138 291.401044 
L 106.550052 291.579364 
L 106.329823 291.7612 
L 106.112507 291.946508 
L 105.898158 292.13524 
L 105.686831 292.327349 
L 105.478578 292.522787 
L 105.273452 292.721505 
L 105.071505 292.923452 
L 104.872787 293.128578 
L 104.677349 293.336831 
L 104.48524 293.548158 
L 104.296508 293.762507 
L 104.1112 293.979823 
L 103.929364 294.200052 
L 103.751044 294.423138 
L 103.576287 294.649026 
L 103.405135 294.877657 
L 103.237633 295.108976 
L 103.073822 295.342922 
L 102.913743 295.579439 
L 102.757436 295.818465 
L 102.604942 296.059942 
L 102.456299 296.303807 
L 102.311543 296.55 
L 102.170711 296.798459 
L 102.033839 297.049121 
L 101.900962 297.301923 
L 101.772112 297.556801 
L 101.647322 297.813692 
L 101.526624 298.07253 
L 101.410048 298.33325 
L 101.297623 298.595788 
L 101.189377 298.860076 
L 101.085339 299.126048 
L 100.985533 299.393637 
L 100.889985 299.662777 
L 100.79872 299.933398 
L 100.71176 300.205433 
L 100.629126 300.478814 
L 100.550841 300.753471 
L 100.476923 301.029336 
L 100.407392 301.306339 
L 100.342264 301.58441 
L 100.281556 301.86348 
L 100.225283 302.143478 
L 100.17346 302.424333 
L 100.1261 302.705975 
L 100.083214 302.988333 
L 100.044813 303.271336 
L 100.010908 303.554912 
L 99.981505 303.838991 
L 99.956614 304.123501 
L 99.93624 304.408369 
L 99.920388 304.693526 
L 99.909062 304.978897 
L 99.902266 305.264413 
L 99.9 305.55 
L 99.9 305.55 
L 99.902266 305.835587 
L 99.909062 306.121103 
L 99.920388 306.406474 
L 99.93624 306.691631 
L 99.956614 306.976499 
L 99.981505 307.261009 
L 100.010908 307.545088 
L 100.044813 307.828664 
L 100.083214 308.111667 
L 100.1261 308.394025 
L 100.17346 308.675667 
L 100.225283 308.956522 
L 100.281556 309.23652 
L 100.342264 309.51559 
L 100.407392 309.793661 
L 100.476923 310.070664 
L 100.550841 310.346529 
L 100.629126 310.621186 
L 100.71176 310.894567 
L 100.79872 311.166602 
L 100.889985 311.437223 
L 100.985533 311.706363 
L 101.085339 311.973952 
L 101.189377 312.239924 
L 101.297623 312.504212 
L 101.410048 312.76675 
L 101.526624 313.02747 
L 101.647322 313.286308 
L 101.772112 313.543199 
L 101.900962 313.798077 
L 102.033839 314.050879 
L 102.170711 314.301541 
L 102.311543 314.55 
L 102.456299 314.796193 
L 102.604942 315.040058 
L 102.757436 315.281535 
L 102.913743 315.520561 
L 103.073822 315.757078 
L 103.237633 315.991024 
L 103.405135 316.222343 
L 103.576287 316.450974 
L 103.751044 316.676862 
L 103.929364 316.899948 
L 104.1112 317.120177 
L 104.296508 317.337493 
L 104.48524 317.551842 
L 104.677349 317.763169 
L 104.872787 317.971422 
L 105.071505 318.176548 
L 105.273452 318.378495 
L 105.478578 318.577213 
L 105.686831 318.772651 
L 105.898158 318.96476 
L 106.112507 319.153492 
L 106.329823 319.3388 
L 106.550052 319.520636 
L 106.773138 319.698956 
L 106.999026 319.873713 
L 107.227657 320.044865 
L 107.458976 320.212367 
L 107.692922 320.376178 
L 107.929439 320.536257 
L 108.168465 320.692564 
L 108.409942 320.845058 
L 108.653807 320.993701 
L 108.9 321.138457 
L 109.148459 321.279289 
L 109.399121 321.416161 
L 109.651923 321.549038 
L 109.906801 321.677888 
L 110.163692 321.802678 
L 110.42253 321.923376 
L 110.68325 322.039952 
L 110.945788 322.152377 
L 111.210076 322.260623 
L 111.476048 322.364661 
L 111.743637 322.464467 
L 112.012777 322.560015 
L 112.283398 322.65128 
L 112.555433 322.73824 
L 112.828814 322.820874 
L 113.103471 322.899159 
L 113.379336 322.973077 
L 113.656339 323.042608 
L 113.93441 323.107736 
L 114.21348 323.168444 
L 114.493478 323.224717 
L 114.774333 323.27654 
L 115.055975 323.3239 
L 115.338333 323.366786 
L 115.621336 323.405187 
L 115.904912 323.439092 
L 116.188991 323.468495 
L 116.473501 323.493386 
L 116.758369 323.51376 
L 117.043526 323.529612 
L 117.328897 323.540938 
L 117.614413 323.547734 
L 117.9 323.55 
L 153.9 323.55 
z
" clip-path="url(#p73db31bf6a)" style="fill: none; stroke: #000000; stroke-linecap: round"/>
   </g>
   <g id="line2d_1">
    <path d="M 135.9 54.835714 
L 135.9 68.335714 
L 135.9 72.835714 
" clip-path="url(#p73db31bf6a)" style="fill: none; stroke: #000000; stroke-linecap: round"/>
   </g>
   <g id="patch_7">
    <path d="M 138.6 72.835714 
L 135.9 81.835714 
L 133.2 72.835714 
z
" clip-path="url(#p73db31bf6a)"/>
   </g>
   <g id="line2d_2">
    <path d="M 198.9 99.835714 
L 225.9 99.835714 
L 243.9 99.835714 
" clip-path="url(#p73db31bf6a)" style="fill: none; stroke-dasharray: 3.7,1.6; stroke-dashoffset: 0; stroke: #000000"/>
   </g>
   <g id="patch_8">
    <path d="M 243.9 97.135714 
L 252.9 99.835714 
L 243.9 102.535714 
z
" clip-path="url(#p73db31bf6a)"/>
   </g>
   <g id="line2d_3">
    <path d="M 135.9 117.835714 
L 135.9 135.835714 
L 135.9 144.835714 
" clip-path="url(#p73db31bf6a)" style="fill: none; stroke: #000000; stroke-linecap: round"/>
   </g>
   <g id="patch_9">
    <path d="M 138.6 144.835714 
L 135.9 153.835714 
L 133.2 144.835714 
z
" clip-path="url(#p73db31bf6a)"/>
   </g>
   <g id="line2d_4">
    <path d="M 99.9 171.835714 
L 99.9 153.835714 
L 171.9 153.835714 
L 171.9 189.835714 
L 99.9 189.835714 
L 99.9 171.835714 
" clip-path="url(#p73db31bf6a)" style="fill: none; stroke: #000000; stroke-linecap: round"/>
   </g>
   <g id="line2d_5">
    <path d="M 135.9 189.835714 
L 135.9 205.264286 
L 135.9 211.692857 
" clip-path="url(#p73db31bf6a)" style="fill: none; stroke: #000000; stroke-linecap: round"/>
   </g>
   <g id="patch_10">
    <path d="M 138.6 211.692857 
L 135.9 220.692857 
L 133.2 211.692857 
z
" clip-path="url(#p73db31bf6a)"/>
   </g>
   <g id="line2d_6">
    <path d="M 135.9 256.692857 
L 135.9 272.121429 
L 135.9 278.55 
" clip-path="url(#p73db31bf6a)" style="fill: none; stroke: #000000; stroke-linecap: round"/>
   </g>
   <g id="patch_11">
    <path d="M 138.6 278.55 
L 135.9 287.55 
L 133.2 278.55 
z
" clip-path="url(#p73db31bf6a)"/>
   </g>
   <g id="line2d_7">
    <path d="M 72.9 238.692857 
L 18.9 238.692857 
L 18.9 99.835714 
L 63.9 99.835714 
" clip-path="url(#p73db31bf6a)" style="fill: none; stroke: #000000; stroke-linecap: round"/>
   </g>
   <g id="patch_12">
    <path d="M 63.9 97.135714 
L 72.9 99.835714 
L 63.9 102.535714 
z
" clip-path="url(#p73db31bf6a)"/>
   </g>
   <g id="text_1">
    <!-- START -->
    <g transform="translate(116.723242 40.329855) scale(0.125 -0.125)">
     <defs>
      <path id="IPAexGothic-53" d="M 2919 3641 
Q 2563 4259 1853 4259 
Q 1453 4259 1213 4009 
Q 1028 3803 1028 3534 
Q 1028 3238 1266 3047 
Q 1444 2913 1984 2688 
L 2200 2597 
Q 2925 2306 3191 1953 
Q 3422 1644 3422 1259 
Q 3422 644 2969 288 
Q 2559 -31 1931 -31 
Q 881 -31 313 766 
L 753 1100 
Q 1203 459 1938 459 
Q 2288 459 2534 625 
Q 2841 847 2841 1216 
Q 2841 1503 2616 1728 
Q 2375 1959 1728 2206 
L 1541 2278 
Q 453 2694 453 3481 
Q 453 4006 806 4347 
Q 1203 4725 1863 4725 
Q 2841 4725 3359 3956 
L 2919 3641 
z
" transform="scale(0.015625)"/>
      <path id="IPAexGothic-54" d="M 3866 4141 
L 2175 4141 
L 2175 63 
L 1606 63 
L 1606 4141 
L -31 4141 
L -31 4634 
L 3866 4634 
L 3866 4141 
z
" transform="scale(0.015625)"/>
      <path id="IPAexGothic-41" d="M 4056 63 
L 3444 63 
L 2938 1409 
L 1100 1409 
L 603 63 
L -6 63 
L 1806 4666 
L 2259 4666 
L 4056 63 
z
M 2778 1863 
L 2316 3078 
Q 2125 3588 2028 4000 
L 2009 4000 
Q 1897 3563 1716 3078 
L 1263 1863 
L 2778 1863 
z
" transform="scale(0.015625)"/>
      <path id="IPAexGothic-52" d="M 4072 63 
L 3394 63 
Q 3138 641 2828 1197 
Q 2584 1641 2344 1825 
Q 2050 2044 1625 2044 
L 1172 2044 
L 1172 63 
L 609 63 
L 609 4634 
L 2009 4634 
Q 2713 4634 3131 4378 
Q 3688 4044 3688 3381 
Q 3688 2784 3181 2459 
Q 2906 2272 2522 2216 
L 2522 2197 
Q 2941 2050 3247 1581 
Q 3516 1166 4072 63 
z
M 1172 2478 
L 1869 2478 
Q 3106 2478 3106 3369 
Q 3106 4181 1928 4181 
L 1172 4181 
L 1172 2478 
z
" transform="scale(0.015625)"/>
     </defs>
     <use xlink:href="#IPAexGothic-53"/>
     <use xlink:href="#IPAexGothic-54" x="58.496094"/>
     <use xlink:href="#IPAexGothic-41" x="118.408203"/>
     <use xlink:href="#IPAexGothic-52" x="182.128906"/>
     <use xlink:href="#IPAexGothic-54" x="246.923828"/>
    </g>
   </g>
   <g id="text_2">
    <!-- True -->
    <g transform="translate(140.58 131.878996) scale(0.125 -0.125)">
     <defs>
      <path id="IPAexGothic-72" d="M 2309 3316 
L 2213 2769 
Q 2106 2791 2022 2791 
Q 1653 2791 1413 2444 
Q 1113 2006 1113 1675 
L 1113 63 
L 563 63 
L 563 3250 
L 1081 3250 
L 1056 2303 
L 1069 2303 
Q 1422 3341 2097 3341 
Q 2206 3341 2309 3316 
z
" transform="scale(0.015625)"/>
      <path id="IPAexGothic-75" d="M 3284 63 
L 2772 63 
L 2772 644 
Q 2300 0 1625 0 
Q 1072 0 763 375 
Q 519 678 519 1241 
L 519 3250 
L 1069 3250 
L 1069 1259 
Q 1069 466 1734 466 
Q 2406 466 2734 1291 
L 2734 3250 
L 3284 3250 
L 3284 63 
z
" transform="scale(0.015625)"/>
      <path id="IPAexGothic-65" d="M 863 1594 
Q 891 1041 1209 722 
Q 1534 397 1997 397 
Q 2606 397 2963 966 
L 3322 728 
Q 2869 -31 1931 -31 
Q 1222 -31 766 422 
Q 306 884 306 1641 
Q 306 2444 788 2925 
Q 1216 3353 1856 3353 
Q 2459 3353 2866 2956 
Q 3322 2494 3322 1722 
L 3322 1594 
L 863 1594 
z
M 2756 1997 
Q 2709 2431 2450 2681 
Q 2194 2938 1844 2938 
Q 1438 2938 1150 2591 
Q 953 2356 894 1997 
L 2756 1997 
z
" transform="scale(0.015625)"/>
     </defs>
     <use xlink:href="#IPAexGothic-54"/>
     <use xlink:href="#IPAexGothic-72" x="59.912109"/>
     <use xlink:href="#IPAexGothic-75" x="96.923828"/>
     <use xlink:href="#IPAexGothic-65" x="157.324219"/>
    </g>
   </g>
   <g id="text_3">
    <!-- False -->
    <g transform="translate(203.58 92.780714) scale(0.125 -0.125)">
     <defs>
      <path id="IPAexGothic-46" d="M 3469 4141 
L 1172 4141 
L 1172 2656 
L 3206 2656 
L 3206 2188 
L 1172 2188 
L 1172 63 
L 609 63 
L 609 4634 
L 3469 4634 
L 3469 4141 
z
" transform="scale(0.015625)"/>
      <path id="IPAexGothic-61" d="M 3156 63 
L 2672 63 
Q 2559 303 2531 556 
L 2509 556 
Q 2147 -25 1428 -25 
Q 934 -25 622 288 
Q 347 563 347 959 
Q 347 1947 2050 1997 
L 2478 2009 
L 2478 2175 
Q 2478 2509 2288 2700 
Q 2088 2900 1775 2900 
Q 1238 2900 969 2378 
L 494 2597 
Q 938 3328 1788 3328 
Q 2375 3328 2691 3000 
Q 2984 2706 2984 2169 
L 2984 997 
Q 2984 400 3156 63 
z
M 2491 1625 
L 2141 1619 
Q 903 1591 903 953 
Q 903 728 1050 581 
Q 1231 403 1525 403 
Q 1934 403 2234 703 
Q 2491 969 2491 1344 
L 2491 1625 
z
" transform="scale(0.015625)"/>
      <path id="IPAexGothic-6c" d="M 1131 63 
L 581 63 
L 581 4794 
L 1131 4794 
L 1131 63 
z
" transform="scale(0.015625)"/>
      <path id="IPAexGothic-73" d="M 2234 2547 
Q 1938 2931 1484 2931 
Q 891 2931 891 2475 
Q 891 2153 1531 1944 
L 1741 1875 
Q 2650 1578 2650 894 
Q 2650 434 2272 172 
Q 1972 -31 1497 -31 
Q 766 -31 256 503 
L 603 819 
Q 997 397 1516 397 
Q 2131 397 2131 875 
Q 2131 1238 1453 1478 
L 1234 1553 
Q 378 1853 378 2431 
Q 378 2797 628 3047 
Q 928 3347 1453 3347 
Q 2156 3347 2606 2859 
L 2234 2547 
z
" transform="scale(0.015625)"/>
     </defs>
     <use xlink:href="#IPAexGothic-46"/>
     <use xlink:href="#IPAexGothic-61" x="57.177734"/>
     <use xlink:href="#IPAexGothic-6c" x="112.158203"/>
     <use xlink:href="#IPAexGothic-73" x="139.160156"/>
     <use xlink:href="#IPAexGothic-65" x="185.351562"/>
    </g>
   </g>
   <g id="text_4">
    <!-- True ？ -->
    <g transform="translate(114.573828 103.329855) scale(0.125 -0.125)">
     <defs>
      <path id="IPAexGothic-20" transform="scale(0.015625)"/>
      <path id="IPAexGothic-ff1f" d="M 1503 3444 
Q 1550 4184 1963 4616 
Q 2466 5128 3272 5128 
Q 3888 5128 4313 4853 
Q 4909 4469 4909 3778 
Q 4909 3059 4116 2563 
Q 3628 2250 3506 1881 
Q 3422 1650 3422 1228 
L 2853 1228 
Q 2863 1869 3053 2197 
Q 3281 2588 3847 2950 
Q 4341 3269 4341 3778 
Q 4341 4231 3975 4463 
Q 3697 4634 3266 4634 
Q 2656 4634 2341 4225 
Q 2109 3928 2091 3444 
L 1503 3444 
z
M 2763 647 
L 3506 647 
L 3506 -97 
L 2763 -97 
L 2763 647 
z
" transform="scale(0.015625)"/>
     </defs>
     <use xlink:href="#IPAexGothic-54"/>
     <use xlink:href="#IPAexGothic-72" x="59.912109"/>
     <use xlink:href="#IPAexGothic-75" x="96.923828"/>
     <use xlink:href="#IPAexGothic-65" x="157.324219"/>
     <use xlink:href="#IPAexGothic-20" x="214.208984"/>
     <use xlink:href="#IPAexGothic-ff1f" x="241.210938"/>
    </g>
   </g>
   <g id="text_5">
    <!-- END -->
    <g transform="translate(275.700781 103.329855) scale(0.125 -0.125)">
     <defs>
      <path id="IPAexGothic-45" d="M 3547 63 
L 609 63 
L 609 4634 
L 3469 4634 
L 3469 4147 
L 1166 4147 
L 1166 2650 
L 3206 2650 
L 3206 2191 
L 1166 2191 
L 1166 556 
L 3547 556 
L 3547 63 
z
" transform="scale(0.015625)"/>
      <path id="IPAexGothic-4e" d="M 4244 63 
L 3731 63 
L 1697 3150 
Q 1466 3500 1141 4097 
L 1116 4097 
L 1128 3797 
Q 1159 2803 1159 2469 
L 1159 63 
L 609 63 
L 609 4634 
L 1366 4634 
L 3113 1978 
Q 3453 1447 3713 966 
L 3738 966 
Q 3694 1897 3694 2469 
L 3694 4634 
L 4244 4634 
L 4244 63 
z
" transform="scale(0.015625)"/>
      <path id="IPAexGothic-44" d="M 609 4634 
L 1984 4634 
Q 3159 4634 3791 4050 
Q 4456 3444 4456 2356 
Q 4456 1047 3516 441 
Q 2925 63 1941 63 
L 609 63 
L 609 4634 
z
M 1172 556 
L 1894 556 
Q 3853 556 3853 2356 
Q 3853 4147 1928 4147 
L 1172 4147 
L 1172 556 
z
" transform="scale(0.015625)"/>
     </defs>
     <use xlink:href="#IPAexGothic-45"/>
     <use xlink:href="#IPAexGothic-4e" x="59.521484"/>
     <use xlink:href="#IPAexGothic-44" x="135.498047"/>
    </g>
   </g>
   <g id="text_6">
    <!-- 実行コード -->
    <g transform="translate(104.65 175.329855) scale(0.125 -0.125)">
     <defs>
      <path id="IPAexGothic-5b9f" d="M 3525 1275 
Q 4288 350 6022 91 
L 5738 -375 
Q 3953 -41 3219 1050 
Q 2731 -144 728 -472 
L 466 -44 
Q 2422 150 2872 1275 
L 384 1275 
L 384 1659 
L 2950 1659 
L 2950 2144 
L 966 2144 
L 966 2509 
L 2950 2509 
L 2950 2969 
L 1266 2969 
L 1266 3341 
L 2950 3341 
L 2950 3988 
L 3403 3988 
L 3403 3341 
L 5125 3341 
L 5125 2969 
L 3403 2969 
L 3403 2509 
L 5444 2509 
L 5444 2144 
L 3403 2144 
L 3403 1659 
L 6016 1659 
L 6016 1275 
L 3525 1275 
z
M 3413 4544 
L 5778 4544 
L 5778 3269 
L 5309 3269 
L 5309 4147 
L 1084 4147 
L 1084 3269 
L 616 3269 
L 616 4544 
L 2938 4544 
L 2938 5313 
L 3413 5313 
L 3413 4544 
z
" transform="scale(0.015625)"/>
      <path id="IPAexGothic-884c" d="M 1822 2753 
L 1822 -447 
L 1353 -447 
L 1353 2169 
Q 966 1744 622 1466 
L 316 1791 
Q 1294 2559 1969 3822 
L 2397 3634 
Q 2109 3138 1822 2753 
z
M 4975 2803 
L 4975 103 
Q 4975 -391 4369 -391 
Q 3925 -391 3356 -341 
L 3288 159 
Q 3775 78 4259 78 
Q 4516 78 4516 319 
L 4516 2803 
L 2384 2803 
L 2384 3225 
L 6013 3225 
L 6013 2803 
L 4975 2803 
z
M 384 3691 
Q 1231 4256 1756 5075 
L 2144 4850 
Q 1541 3947 666 3347 
L 384 3691 
z
M 2709 4794 
L 5659 4794 
L 5659 4378 
L 2709 4378 
L 2709 4794 
z
" transform="scale(0.015625)"/>
      <path id="IPAexGothic-30b3" d="M 1134 4213 
L 5166 4213 
L 5166 153 
L 4653 153 
L 4653 594 
L 1063 594 
L 1063 1088 
L 4653 1088 
L 4653 3725 
L 1134 3725 
L 1134 4213 
z
" transform="scale(0.015625)"/>
      <path id="IPAexGothic-30fc" d="M 588 2688 
L 5809 2688 
L 5809 2175 
L 588 2175 
L 588 2688 
z
" transform="scale(0.015625)"/>
      <path id="IPAexGothic-30c9" d="M 2247 4959 
L 2766 4959 
L 2766 3169 
Q 4050 2581 5178 1850 
L 4841 1331 
Q 3781 2138 2766 2650 
L 2766 -225 
L 2247 -225 
L 2247 4959 
z
M 5263 3847 
Q 4900 4388 4506 4716 
L 4806 4947 
Q 5191 4638 5581 4122 
L 5263 3847 
z
M 4666 3378 
Q 4375 3869 3931 4269 
L 4244 4513 
Q 4616 4206 5000 3653 
L 4666 3378 
z
" transform="scale(0.015625)"/>
     </defs>
     <use xlink:href="#IPAexGothic-5b9f"/>
     <use xlink:href="#IPAexGothic-884c" x="100"/>
     <use xlink:href="#IPAexGothic-30b3" x="200"/>
     <use xlink:href="#IPAexGothic-30fc" x="300"/>
     <use xlink:href="#IPAexGothic-30c9" x="400"/>
    </g>
   </g>
   <g id="text_7">
    <!-- True -->
    <g transform="translate(140.58 270.736138) scale(0.125 -0.125)">
     <use xlink:href="#IPAexGothic-54"/>
     <use xlink:href="#IPAexGothic-72" x="59.912109"/>
     <use xlink:href="#IPAexGothic-75" x="96.923828"/>
     <use xlink:href="#IPAexGothic-65" x="157.324219"/>
    </g>
   </g>
   <g id="text_8">
    <!-- False -->
    <g transform="translate(37.940703 231.637857) scale(0.125 -0.125)">
     <use xlink:href="#IPAexGothic-46"/>
     <use xlink:href="#IPAexGothic-61" x="57.177734"/>
     <use xlink:href="#IPAexGothic-6c" x="112.158203"/>
     <use xlink:href="#IPAexGothic-73" x="139.160156"/>
     <use xlink:href="#IPAexGothic-65" x="185.351562"/>
    </g>
   </g>
   <g id="text_9">
    <!-- 条件 ？ -->
    <g transform="translate(115.4625 242.186998) scale(0.125 -0.125)">
     <defs>
      <path id="IPAexGothic-6761" d="M 3406 1475 
L 3406 -447 
L 2953 -447 
L 2953 1422 
Q 2147 306 641 -331 
L 334 59 
Q 1738 569 2563 1538 
L 488 1538 
L 488 1941 
L 2953 1941 
L 2953 2691 
L 3406 2691 
L 3406 1941 
L 5928 1941 
L 5928 1538 
L 3847 1538 
Q 4597 769 6063 238 
L 5759 -203 
Q 4256 400 3406 1475 
z
M 3738 3419 
Q 4619 2991 5959 2772 
L 5684 2356 
Q 4216 2631 3353 3150 
Q 2350 2494 813 2175 
L 531 2566 
Q 2063 2825 2997 3391 
Q 2494 3763 2163 4219 
Q 1694 3747 1038 3359 
L 725 3688 
Q 1897 4319 2466 5306 
L 2900 5203 
Q 2784 5003 2713 4903 
L 4641 4903 
L 4872 4691 
Q 4384 3938 3738 3419 
z
M 3353 3634 
Q 3919 4075 4219 4531 
L 2438 4531 
L 2425 4513 
Q 2838 3956 3353 3634 
z
" transform="scale(0.015625)"/>
      <path id="IPAexGothic-4ef6" d="M 3903 3425 
L 2906 3425 
Q 2697 2825 2309 2247 
L 1991 2572 
Q 2588 3497 2803 4788 
L 3256 4713 
Q 3175 4313 3041 3834 
L 3903 3834 
L 3903 5250 
L 4356 5250 
L 4356 3834 
L 5731 3834 
L 5731 3425 
L 4356 3425 
L 4356 2009 
L 6041 2009 
L 6041 1594 
L 4356 1594 
L 4356 -447 
L 3903 -447 
L 3903 1594 
L 2078 1594 
L 2078 2009 
L 3903 2009 
L 3903 3425 
z
M 1638 3681 
L 1638 -447 
L 1169 -447 
L 1169 2753 
Q 881 2272 575 1863 
L 313 2253 
Q 1238 3463 1650 5184 
L 2125 5069 
Q 1909 4316 1638 3681 
z
" transform="scale(0.015625)"/>
     </defs>
     <use xlink:href="#IPAexGothic-6761"/>
     <use xlink:href="#IPAexGothic-4ef6" x="100"/>
     <use xlink:href="#IPAexGothic-20" x="200"/>
     <use xlink:href="#IPAexGothic-ff1f" x="227.001953"/>
    </g>
   </g>
   <g id="text_10">
    <!-- END -->
    <g transform="translate(122.700781 309.044141) scale(0.125 -0.125)">
     <use xlink:href="#IPAexGothic-45"/>
     <use xlink:href="#IPAexGothic-4e" x="59.521484"/>
     <use xlink:href="#IPAexGothic-44" x="135.498047"/>
    </g>
   </g>
  </g>
 </g>
 <defs>
  <clipPath id="p73db31bf6a">
   <rect x="3.6" y="3.6" width="336.6" height="335.185714"/>
  </clipPath>
 </defs>
</svg>