<?xml version="1.0" encoding="utf-8" standalone="no"?>
<!DOCTYPE svg PUBLIC "-//W3C//DTD SVG 1.1//EN"
  "http://www.w3.org/Graphics/SVG/1.1/DTD/svg11.dtd">
<svg xmlns:xlink="http://www.w3.org/1999/xlink" width="322.56pt" height="277.56pt" viewBox="0 0 322.56 277.56" xmlns="http://www.w3.org/2000/svg" version="1.1">
 <metadata>
  <rdf:RDF xmlns:dc="http://purl.org/dc/elements/1.1/" xmlns:cc="http://creativecommons.org/ns#" xmlns:rdf="http://www.w3.org/1999/02/22-rdf-syntax-ns#">
   <cc:Work>
    <dc:type rdf:resource="http://purl.org/dc/dcmitype/StillImage"/>
    <dc:date>2024-06-16T04:22:13.711359</dc:date>
    <dc:format>image/svg+xml</dc:format>
    <dc:creator>
     <cc:Agent>
      <dc:title>Matplotlib v3.9.0, https://matplotlib.org/</dc:title>
     </cc:Agent>
    </dc:creator>
   </cc:Work>
  </rdf:RDF>
 </metadata>
 <defs>
  <style type="text/css">*{stroke-linejoin: round; stroke-linecap: butt}</style>
 </defs>
 <g id="figure_1">
  <g id="patch_1">
   <path d="M 0 277.56 
L 322.56 277.56 
L 322.56 0 
L 0 0 
z
" style="fill: #ffffff"/>
  </g>
  <g id="axes_1">
   <g id="patch_2">
    <path d="M 134.28 40.68 
L 134.565587 40.677734 
L 134.851103 40.670938 
L 135.136474 40.659612 
L 135.421631 40.64376 
L 135.706499 40.623386 
L 135.991009 40.598495 
L 136.275088 40.569092 
L 136.558664 40.535187 
L 136.841667 40.496786 
L 137.124025 40.4539 
L 137.405667 40.40654 
L 137.686522 40.354717 
L 137.96652 40.298444 
L 138.24559 40.237736 
L 138.523661 40.172608 
L 138.800664 40.103077 
L 139.076529 40.029159 
L 139.351186 39.950874 
L 139.624567 39.86824 
L 139.896602 39.78128 
L 140.167223 39.690015 
L 140.436363 39.594467 
L 140.703952 39.494661 
L 140.969924 39.390623 
L 141.234212 39.282377 
L 141.49675 39.169952 
L 141.75747 39.053376 
L 142.016308 38.932678 
L 142.273199 38.807888 
L 142.528077 38.679038 
L 142.780879 38.546161 
L 143.031541 38.409289 
L 143.28 38.268457 
L 143.526193 38.123701 
L 143.770058 37.975058 
L 144.011535 37.822564 
L 144.250561 37.666257 
L 144.487078 37.506178 
L 144.721024 37.342367 
L 144.952343 37.174865 
L 145.180974 37.003713 
L 145.406862 36.828956 
L 145.629948 36.650636 
L 145.850177 36.4688 
L 146.067493 36.283492 
L 146.281842 36.09476 
L 146.493169 35.902651 
L 146.701422 35.707213 
L 146.906548 35.508495 
L 147.108495 35.306548 
L 147.307213 35.101422 
L 147.502651 34.893169 
L 147.69476 34.681842 
L 147.883492 34.467493 
L 148.0688 34.250177 
L 148.250636 34.029948 
L 148.428956 33.806862 
L 148.603713 33.580974 
L 148.774865 33.352343 
L 148.942367 33.121024 
L 149.106178 32.887078 
L 149.266257 32.650561 
L 149.422564 32.411535 
L 149.575058 32.170058 
L 149.723701 31.926193 
L 149.868457 31.68 
L 150.009289 31.431541 
L 150.146161 31.180879 
L 150.279038 30.928077 
L 150.407888 30.673199 
L 150.532678 30.416308 
L 150.653376 30.15747 
L 150.769952 29.89675 
L 150.882377 29.634212 
L 150.990623 29.369924 
L 151.094661 29.103952 
L 151.194467 28.836363 
L 151.290015 28.567223 
L 151.38128 28.296602 
L 151.46824 28.024567 
L 151.550874 27.751186 
L 151.629159 27.476529 
L 151.703077 27.200664 
L 151.772608 26.923661 
L 151.837736 26.64559 
L 151.898444 26.36652 
L 151.954717 26.086522 
L 152.00654 25.805667 
L 152.0539 25.524025 
L 152.096786 25.241667 
L 152.135187 24.958664 
L 152.169092 24.675088 
L 152.198495 24.391009 
L 152.223386 24.106499 
L 152.24376 23.821631 
L 152.259612 23.536474 
L 152.270938 23.251103 
L 152.277734 22.965587 
L 152.28 22.68 
L 152.28 22.68 
L 152.277734 22.394413 
L 152.270938 22.108897 
L 152.259612 21.823526 
L 152.24376 21.538369 
L 152.223386 21.253501 
L 152.198495 20.968991 
L 152.169092 20.684912 
L 152.135187 20.401336 
L 152.096786 20.118333 
L 152.0539 19.835975 
L 152.00654 19.554333 
L 151.954717 19.273478 
L 151.898444 18.99348 
L 151.837736 18.71441 
L 151.772608 18.436339 
L 151.703077 18.159336 
L 151.629159 17.883471 
L 151.550874 17.608814 
L 151.46824 17.335433 
L 151.38128 17.063398 
L 151.290015 16.792777 
L 151.194467 16.523637 
L 151.094661 16.256048 
L 150.990623 15.990076 
L 150.882377 15.725788 
L 150.769952 15.46325 
L 150.653376 15.20253 
L 150.532678 14.943692 
L 150.407888 14.686801 
L 150.279038 14.431923 
L 150.146161 14.179121 
L 150.009289 13.928459 
L 149.868457 13.68 
L 149.723701 13.433807 
L 149.575058 13.189942 
L 149.422564 12.948465 
L 149.266257 12.709439 
L 149.106178 12.472922 
L 148.942367 12.238976 
L 148.774865 12.007657 
L 148.603713 11.779026 
L 148.428956 11.553138 
L 148.250636 11.330052 
L 148.0688 11.109823 
L 147.883492 10.892507 
L 147.69476 10.678158 
L 147.502651 10.466831 
L 147.307213 10.258578 
L 147.108495 10.053452 
L 146.906548 9.851505 
L 146.701422 9.652787 
L 146.493169 9.457349 
L 146.281842 9.26524 
L 146.067493 9.076508 
L 145.850177 8.8912 
L 145.629948 8.709364 
L 145.406862 8.531044 
L 145.180974 8.356287 
L 144.952343 8.185135 
L 144.721024 8.017633 
L 144.487078 7.853822 
L 144.250561 7.693743 
L 144.011535 7.537436 
L 143.770058 7.384942 
L 143.526193 7.236299 
L 143.28 7.091543 
L 143.031541 6.950711 
L 142.780879 6.813839 
L 142.528077 6.680962 
L 142.273199 6.552112 
L 142.016308 6.427322 
L 141.75747 6.306624 
L 141.49675 6.190048 
L 141.234212 6.077623 
L 140.969924 5.969377 
L 140.703952 5.865339 
L 140.436363 5.765533 
L 140.167223 5.669985 
L 139.896602 5.57872 
L 139.624567 5.49176 
L 139.351186 5.409126 
L 139.076529 5.330841 
L 138.800664 5.256923 
L 138.523661 5.187392 
L 138.24559 5.122264 
L 137.96652 5.061556 
L 137.686522 5.005283 
L 137.405667 4.95346 
L 137.124025 4.9061 
L 136.841667 4.863214 
L 136.558664 4.824813 
L 136.275088 4.790908 
L 135.991009 4.761505 
L 135.706499 4.736614 
L 135.421631 4.71624 
L 135.136474 4.700388 
L 134.851103 4.689062 
L 134.565587 4.682266 
L 134.28 4.68 
L 98.28 4.68 
L 97.994413 4.682266 
L 97.708897 4.689062 
L 97.423526 4.700388 
L 97.138369 4.71624 
L 96.853501 4.736614 
L 96.568991 4.761505 
L 96.284912 4.790908 
L 96.001336 4.824813 
L 95.718333 4.863214 
L 95.435975 4.9061 
L 95.154333 4.95346 
L 94.873478 5.005283 
L 94.59348 5.061556 
L 94.31441 5.122264 
L 94.036339 5.187392 
L 93.759336 5.256923 
L 93.483471 5.330841 
L 93.208814 5.409126 
L 92.935433 5.49176 
L 92.663398 5.57872 
L 92.392777 5.669985 
L 92.123637 5.765533 
L 91.856048 5.865339 
L 91.590076 5.969377 
L 91.325788 6.077623 
L 91.06325 6.190048 
L 90.80253 6.306624 
L 90.543692 6.427322 
L 90.286801 6.552112 
L 90.031923 6.680962 
L 89.779121 6.813839 
L 89.528459 6.950711 
L 89.28 7.091543 
L 89.033807 7.236299 
L 88.789942 7.384942 
L 88.548465 7.537436 
L 88.309439 7.693743 
L 88.072922 7.853822 
L 87.838976 8.017633 
L 87.607657 8.185135 
L 87.379026 8.356287 
L 87.153138 8.531044 
L 86.930052 8.709364 
L 86.709823 8.8912 
L 86.492507 9.076508 
L 86.278158 9.26524 
L 86.066831 9.457349 
L 85.858578 9.652787 
L 85.653452 9.851505 
L 85.451505 10.053452 
L 85.252787 10.258578 
L 85.057349 10.466831 
L 84.86524 10.678158 
L 84.676508 10.892507 
L 84.4912 11.109823 
L 84.309364 11.330052 
L 84.131044 11.553138 
L 83.956287 11.779026 
L 83.785135 12.007657 
L 83.617633 12.238976 
L 83.453822 12.472922 
L 83.293743 12.709439 
L 83.137436 12.948465 
L 82.984942 13.189942 
L 82.836299 13.433807 
L 82.691543 13.68 
L 82.550711 13.928459 
L 82.413839 14.179121 
L 82.280962 14.431923 
L 82.152112 14.686801 
L 82.027322 14.943692 
L 81.906624 15.20253 
L 81.790048 15.46325 
L 81.677623 15.725788 
L 81.569377 15.990076 
L 81.465339 16.256048 
L 81.365533 16.523637 
L 81.269985 16.792777 
L 81.17872 17.063398 
L 81.09176 17.335433 
L 81.009126 17.608814 
L 80.930841 17.883471 
L 80.856923 18.159336 
L 80.787392 18.436339 
L 80.722264 18.71441 
L 80.661556 18.99348 
L 80.605283 19.273478 
L 80.55346 19.554333 
L 80.5061 19.835975 
L 80.463214 20.118333 
L 80.424813 20.401336 
L 80.390908 20.684912 
L 80.361505 20.968991 
L 80.336614 21.253501 
L 80.31624 21.538369 
L 80.300388 21.823526 
L 80.289062 22.108897 
L 80.282266 22.394413 
L 80.28 22.68 
L 80.28 22.68 
L 80.282266 22.965587 
L 80.289062 23.251103 
L 80.300388 23.536474 
L 80.31624 23.821631 
L 80.336614 24.106499 
L 80.361505 24.391009 
L 80.390908 24.675088 
L 80.424813 24.958664 
L 80.463214 25.241667 
L 80.5061 25.524025 
L 80.55346 25.805667 
L 80.605283 26.086522 
L 80.661556 26.36652 
L 80.722264 26.64559 
L 80.787392 26.923661 
L 80.856923 27.200664 
L 80.930841 27.476529 
L 81.009126 27.751186 
L 81.09176 28.024567 
L 81.17872 28.296602 
L 81.269985 28.567223 
L 81.365533 28.836363 
L 81.465339 29.103952 
L 81.569377 29.369924 
L 81.677623 29.634212 
L 81.790048 29.89675 
L 81.906624 30.15747 
L 82.027322 30.416308 
L 82.152112 30.673199 
L 82.280962 30.928077 
L 82.413839 31.180879 
L 82.550711 31.431541 
L 82.691543 31.68 
L 82.836299 31.926193 
L 82.984942 32.170058 
L 83.137436 32.411535 
L 83.293743 32.650561 
L 83.453822 32.887078 
L 83.617633 33.121024 
L 83.785135 33.352343 
L 83.956287 33.580974 
L 84.131044 33.806862 
L 84.309364 34.029948 
L 84.4912 34.250177 
L 84.676508 34.467493 
L 84.86524 34.681842 
L 85.057349 34.893169 
L 85.252787 35.101422 
L 85.451505 35.306548 
L 85.653452 35.508495 
L 85.858578 35.707213 
L 86.066831 35.902651 
L 86.278158 36.09476 
L 86.492507 36.283492 
L 86.709823 36.4688 
L 86.930052 36.650636 
L 87.153138 36.828956 
L 87.379026 37.003713 
L 87.607657 37.174865 
L 87.838976 37.342367 
L 88.072922 37.506178 
L 88.309439 37.666257 
L 88.548465 37.822564 
L 88.789942 37.975058 
L 89.033807 38.123701 
L 89.28 38.268457 
L 89.528459 38.409289 
L 89.779121 38.546161 
L 90.031923 38.679038 
L 90.286801 38.807888 
L 90.543692 38.932678 
L 90.80253 39.053376 
L 91.06325 39.169952 
L 91.325788 39.282377 
L 91.590076 39.390623 
L 91.856048 39.494661 
L 92.123637 39.594467 
L 92.392777 39.690015 
L 92.663398 39.78128 
L 92.935433 39.86824 
L 93.208814 39.950874 
L 93.483471 40.029159 
L 93.759336 40.103077 
L 94.036339 40.172608 
L 94.31441 40.237736 
L 94.59348 40.298444 
L 94.873478 40.354717 
L 95.154333 40.40654 
L 95.435975 40.4539 
L 95.718333 40.496786 
L 96.001336 40.535187 
L 96.284912 40.569092 
L 96.568991 40.598495 
L 96.853501 40.623386 
L 97.138369 40.64376 
L 97.423526 40.659612 
L 97.708897 40.670938 
L 97.994413 40.677734 
L 98.28 40.68 
L 134.28 40.68 
z
" clip-path="url(#p6ad4772de9)" style="fill: none; stroke: #000000; stroke-linecap: round"/>
   </g>
   <g id="patch_3">
    <path d="M 40.68 161.28 
L 116.28 130.68 
L 191.88 161.28 
L 116.28 191.88 
L 40.68 161.28 
z
" clip-path="url(#p6ad4772de9)" style="fill: none; stroke: #000000; stroke-linecap: round"/>
   </g>
   <g id="patch_4">
    <path d="M 299.88 179.28 
L 300.165587 179.277734 
L 300.451103 179.270938 
L 300.736474 179.259612 
L 301.021631 179.24376 
L 301.306499 179.223386 
L 301.591009 179.198495 
L 301.875088 179.169092 
L 302.158664 179.135187 
L 302.441667 179.096786 
L 302.724025 179.0539 
L 303.005667 179.00654 
L 303.286522 178.954717 
L 303.56652 178.898444 
L 303.84559 178.837736 
L 304.123661 178.772608 
L 304.400664 178.703077 
L 304.676529 178.629159 
L 304.951186 178.550874 
L 305.224567 178.46824 
L 305.496602 178.38128 
L 305.767223 178.290015 
L 306.036363 178.194467 
L 306.303952 178.094661 
L 306.569924 177.990623 
L 306.834212 177.882377 
L 307.09675 177.769952 
L 307.35747 177.653376 
L 307.616308 177.532678 
L 307.873199 177.407888 
L 308.128077 177.279038 
L 308.380879 177.146161 
L 308.631541 177.009289 
L 308.88 176.868457 
L 309.126193 176.723701 
L 309.370058 176.575058 
L 309.611535 176.422564 
L 309.850561 176.266257 
L 310.087078 176.106178 
L 310.321024 175.942367 
L 310.552343 175.774865 
L 310.780974 175.603713 
L 311.006862 175.428956 
L 311.229948 175.250636 
L 311.450177 175.0688 
L 311.667493 174.883492 
L 311.881842 174.69476 
L 312.093169 174.502651 
L 312.301422 174.307213 
L 312.506548 174.108495 
L 312.708495 173.906548 
L 312.907213 173.701422 
L 313.102651 173.493169 
L 313.29476 173.281842 
L 313.483492 173.067493 
L 313.6688 172.850177 
L 313.850636 172.629948 
L 314.028956 172.406862 
L 314.203713 172.180974 
L 314.374865 171.952343 
L 314.542367 171.721024 
L 314.706178 171.487078 
L 314.866257 171.250561 
L 315.022564 171.011535 
L 315.175058 170.770058 
L 315.323701 170.526193 
L 315.468457 170.28 
L 315.609289 170.031541 
L 315.746161 169.780879 
L 315.879038 169.528077 
L 316.007888 169.273199 
L 316.132678 169.016308 
L 316.253376 168.75747 
L 316.369952 168.49675 
L 316.482377 168.234212 
L 316.590623 167.969924 
L 316.694661 167.703952 
L 316.794467 167.436363 
L 316.890015 167.167223 
L 316.98128 166.896602 
L 317.06824 166.624567 
L 317.150874 166.351186 
L 317.229159 166.076529 
L 317.303077 165.800664 
L 317.372608 165.523661 
L 317.437736 165.24559 
L 317.498444 164.96652 
L 317.554717 164.686522 
L 317.60654 164.405667 
L 317.6539 164.124025 
L 317.696786 163.841667 
L 317.735187 163.558664 
L 317.769092 163.275088 
L 317.798495 162.991009 
L 317.823386 162.706499 
L 317.84376 162.421631 
L 317.859612 162.136474 
L 317.870938 161.851103 
L 317.877734 161.565587 
L 317.88 161.28 
L 317.88 161.28 
L 317.877734 160.994413 
L 317.870938 160.708897 
L 317.859612 160.423526 
L 317.84376 160.138369 
L 317.823386 159.853501 
L 317.798495 159.568991 
L 317.769092 159.284912 
L 317.735187 159.001336 
L 317.696786 158.718333 
L 317.6539 158.435975 
L 317.60654 158.154333 
L 317.554717 157.873478 
L 317.498444 157.59348 
L 317.437736 157.31441 
L 317.372608 157.036339 
L 317.303077 156.759336 
L 317.229159 156.483471 
L 317.150874 156.208814 
L 317.06824 155.935433 
L 316.98128 155.663398 
L 316.890015 155.392777 
L 316.794467 155.123637 
L 316.694661 154.856048 
L 316.590623 154.590076 
L 316.482377 154.325788 
L 316.369952 154.06325 
L 316.253376 153.80253 
L 316.132678 153.543692 
L 316.007888 153.286801 
L 315.879038 153.031923 
L 315.746161 152.779121 
L 315.609289 152.528459 
L 315.468457 152.28 
L 315.323701 152.033807 
L 315.175058 151.789942 
L 315.022564 151.548465 
L 314.866257 151.309439 
L 314.706178 151.072922 
L 314.542367 150.838976 
L 314.374865 150.607657 
L 314.203713 150.379026 
L 314.028956 150.153138 
L 313.850636 149.930052 
L 313.6688 149.709823 
L 313.483492 149.492507 
L 313.29476 149.278158 
L 313.102651 149.066831 
L 312.907213 148.858578 
L 312.708495 148.653452 
L 312.506548 148.451505 
L 312.301422 148.252787 
L 312.093169 148.057349 
L 311.881842 147.86524 
L 311.667493 147.676508 
L 311.450177 147.4912 
L 311.229948 147.309364 
L 311.006862 147.131044 
L 310.780974 146.956287 
L 310.552343 146.785135 
L 310.321024 146.617633 
L 310.087078 146.453822 
L 309.850561 146.293743 
L 309.611535 146.137436 
L 309.370058 145.984942 
L 309.126193 145.836299 
L 308.88 145.691543 
L 308.631541 145.550711 
L 308.380879 145.413839 
L 308.128077 145.280962 
L 307.873199 145.152112 
L 307.616308 145.027322 
L 307.35747 144.906624 
L 307.09675 144.790048 
L 306.834212 144.677623 
L 306.569924 144.569377 
L 306.303952 144.465339 
L 306.036363 144.365533 
L 305.767223 144.269985 
L 305.496602 144.17872 
L 305.224567 144.09176 
L 304.951186 144.009126 
L 304.676529 143.930841 
L 304.400664 143.856923 
L 304.123661 143.787392 
L 303.84559 143.722264 
L 303.56652 143.661556 
L 303.286522 143.605283 
L 303.005667 143.55346 
L 302.724025 143.5061 
L 302.441667 143.463214 
L 302.158664 143.424813 
L 301.875088 143.390908 
L 301.591009 143.361505 
L 301.306499 143.336614 
L 301.021631 143.31624 
L 300.736474 143.300388 
L 300.451103 143.289062 
L 300.165587 143.282266 
L 299.88 143.28 
L 263.88 143.28 
L 263.594413 143.282266 
L 263.308897 143.289062 
L 263.023526 143.300388 
L 262.738369 143.31624 
L 262.453501 143.336614 
L 262.168991 143.361505 
L 261.884912 143.390908 
L 261.601336 143.424813 
L 261.318333 143.463214 
L 261.035975 143.5061 
L 260.754333 143.55346 
L 260.473478 143.605283 
L 260.19348 143.661556 
L 259.91441 143.722264 
L 259.636339 143.787392 
L 259.359336 143.856923 
L 259.083471 143.930841 
L 258.808814 144.009126 
L 258.535433 144.09176 
L 258.263398 144.17872 
L 257.992777 144.269985 
L 257.723637 144.365533 
L 257.456048 144.465339 
L 257.190076 144.569377 
L 256.925788 144.677623 
L 256.66325 144.790048 
L 256.40253 144.906624 
L 256.143692 145.027322 
L 255.886801 145.152112 
L 255.631923 145.280962 
L 255.379121 145.413839 
L 255.128459 145.550711 
L 254.88 145.691543 
L 254.633807 145.836299 
L 254.389942 145.984942 
L 254.148465 146.137436 
L 253.909439 146.293743 
L 253.672922 146.453822 
L 253.438976 146.617633 
L 253.207657 146.785135 
L 252.979026 146.956287 
L 252.753138 147.131044 
L 252.530052 147.309364 
L 252.309823 147.4912 
L 252.092507 147.676508 
L 251.878158 147.86524 
L 251.666831 148.057349 
L 251.458578 148.252787 
L 251.253452 148.451505 
L 251.051505 148.653452 
L 250.852787 148.858578 
L 250.657349 149.066831 
L 250.46524 149.278158 
L 250.276508 149.492507 
L 250.0912 149.709823 
L 249.909364 149.930052 
L 249.731044 150.153138 
L 249.556287 150.379026 
L 249.385135 150.607657 
L 249.217633 150.838976 
L 249.053822 151.072922 
L 248.893743 151.309439 
L 248.737436 151.548465 
L 248.584942 151.789942 
L 248.436299 152.033807 
L 248.291543 152.28 
L 248.150711 152.528459 
L 248.013839 152.779121 
L 247.880962 153.031923 
L 247.752112 153.286801 
L 247.627322 153.543692 
L 247.506624 153.80253 
L 247.390048 154.06325 
L 247.277623 154.325788 
L 247.169377 154.590076 
L 247.065339 154.856048 
L 246.965533 155.123637 
L 246.869985 155.392777 
L 246.77872 155.663398 
L 246.69176 155.935433 
L 246.609126 156.208814 
L 246.530841 156.483471 
L 246.456923 156.759336 
L 246.387392 157.036339 
L 246.322264 157.31441 
L 246.261556 157.59348 
L 246.205283 157.873478 
L 246.15346 158.154333 
L 246.1061 158.435975 
L 246.063214 158.718333 
L 246.024813 159.001336 
L 245.990908 159.284912 
L 245.961505 159.568991 
L 245.936614 159.853501 
L 245.91624 160.138369 
L 245.900388 160.423526 
L 245.889062 160.708897 
L 245.882266 160.994413 
L 245.88 161.28 
L 245.88 161.28 
L 245.882266 161.565587 
L 245.889062 161.851103 
L 245.900388 162.136474 
L 245.91624 162.421631 
L 245.936614 162.706499 
L 245.961505 162.991009 
L 245.990908 163.275088 
L 246.024813 163.558664 
L 246.063214 163.841667 
L 246.1061 164.124025 
L 246.15346 164.405667 
L 246.205283 164.686522 
L 246.261556 164.96652 
L 246.322264 165.24559 
L 246.387392 165.523661 
L 246.456923 165.800664 
L 246.530841 166.076529 
L 246.609126 166.351186 
L 246.69176 166.624567 
L 246.77872 166.896602 
L 246.869985 167.167223 
L 246.965533 167.436363 
L 247.065339 167.703952 
L 247.169377 167.969924 
L 247.277623 168.234212 
L 247.390048 168.49675 
L 247.506624 168.75747 
L 247.627322 169.016308 
L 247.752112 169.273199 
L 247.880962 169.528077 
L 248.013839 169.780879 
L 248.150711 170.031541 
L 248.291543 170.28 
L 248.436299 170.526193 
L 248.584942 170.770058 
L 248.737436 171.011535 
L 248.893743 171.250561 
L 249.053822 171.487078 
L 249.217633 171.721024 
L 249.385135 171.952343 
L 249.556287 172.180974 
L 249.731044 172.406862 
L 249.909364 172.629948 
L 250.0912 172.850177 
L 250.276508 173.067493 
L 250.46524 173.281842 
L 250.657349 173.493169 
L 250.852787 173.701422 
L 251.051505 173.906548 
L 251.253452 174.108495 
L 251.458578 174.307213 
L 251.666831 174.502651 
L 251.878158 174.69476 
L 252.092507 174.883492 
L 252.309823 175.0688 
L 252.530052 175.250636 
L 252.753138 175.428956 
L 252.979026 175.603713 
L 253.207657 175.774865 
L 253.438976 175.942367 
L 253.672922 176.106178 
L 253.909439 176.266257 
L 254.148465 176.422564 
L 254.389942 176.575058 
L 254.633807 176.723701 
L 254.88 176.868457 
L 255.128459 177.009289 
L 255.379121 177.146161 
L 255.631923 177.279038 
L 255.886801 177.407888 
L 256.143692 177.532678 
L 256.40253 177.653376 
L 256.66325 177.769952 
L 256.925788 177.882377 
L 257.190076 177.990623 
L 257.456048 178.094661 
L 257.723637 178.194467 
L 257.992777 178.290015 
L 258.263398 178.38128 
L 258.535433 178.46824 
L 258.808814 178.550874 
L 259.083471 178.629159 
L 259.359336 178.703077 
L 259.636339 178.772608 
L 259.91441 178.837736 
L 260.19348 178.898444 
L 260.473478 178.954717 
L 260.754333 179.00654 
L 261.035975 179.0539 
L 261.318333 179.096786 
L 261.601336 179.135187 
L 261.884912 179.169092 
L 262.168991 179.198495 
L 262.453501 179.223386 
L 262.738369 179.24376 
L 263.023526 179.259612 
L 263.308897 179.270938 
L 263.594413 179.277734 
L 263.88 179.28 
L 299.88 179.28 
z
" clip-path="url(#p6ad4772de9)" style="fill: none; stroke: #000000; stroke-linecap: round"/>
   </g>
   <g id="line2d_1">
    <path d="M 116.28 40.68 
L 116.28 54.18 
L 116.28 58.68 
" clip-path="url(#p6ad4772de9)" style="fill: none; stroke: #000000; stroke-linecap: round"/>
   </g>
   <g id="patch_5">
    <path d="M 118.98 58.68 
L 116.28 67.68 
L 113.58 58.68 
z
" clip-path="url(#p6ad4772de9)"/>
   </g>
   <g id="line2d_2">
    <path d="M 42.48 85.68 
L 42.48 67.68 
L 190.08 67.68 
L 190.08 103.68 
L 42.48 103.68 
L 42.48 85.68 
" clip-path="url(#p6ad4772de9)" style="fill: none; stroke: #000000; stroke-linecap: round"/>
   </g>
   <g id="line2d_3">
    <path d="M 116.28 103.68 
L 116.28 117.18 
L 116.28 121.68 
" clip-path="url(#p6ad4772de9)" style="fill: none; stroke: #000000; stroke-linecap: round"/>
   </g>
   <g id="patch_6">
    <path d="M 118.98 121.68 
L 116.28 130.68 
L 113.58 121.68 
z
" clip-path="url(#p6ad4772de9)"/>
   </g>
   <g id="line2d_4">
    <path d="M 191.88 161.28 
L 218.88 161.28 
L 236.88 161.28 
" clip-path="url(#p6ad4772de9)" style="fill: none; stroke: #000000; stroke-linecap: round"/>
   </g>
   <g id="patch_7">
    <path d="M 236.88 158.58 
L 245.88 161.28 
L 236.88 163.98 
z
" clip-path="url(#p6ad4772de9)"/>
   </g>
   <g id="line2d_5">
    <path d="M 116.28 191.88 
L 116.28 214.38 
L 116.28 227.88 
" clip-path="url(#p6ad4772de9)" style="fill: none; stroke: #000000; stroke-linecap: round"/>
   </g>
   <g id="patch_8">
    <path d="M 118.98 227.88 
L 116.28 236.88 
L 113.58 227.88 
z
" clip-path="url(#p6ad4772de9)"/>
   </g>
   <g id="line2d_6">
    <path d="M 58.68 254.88 
L 58.68 236.88 
L 173.88 236.88 
L 173.88 272.88 
L 58.68 272.88 
L 58.68 254.88 
" clip-path="url(#p6ad4772de9)" style="fill: none; stroke: #000000; stroke-linecap: round"/>
   </g>
   <g id="line2d_7">
    <path d="M 58.68 254.88 
L 4.68 254.88 
L 4.68 85.68 
L 33.48 85.68 
" clip-path="url(#p6ad4772de9)" style="fill: none; stroke: #000000; stroke-linecap: round"/>
   </g>
   <g id="patch_9">
    <path d="M 33.48 82.98 
L 42.48 85.68 
L 33.48 88.38 
z
" clip-path="url(#p6ad4772de9)"/>
   </g>
   <g id="text_1">
    <!-- START -->
    <g transform="translate(94.802031 26.593437) scale(0.14 -0.14)">
     <defs>
      <path id="IPAexGothic-53" d="M 2919 3641 
Q 2563 4259 1853 4259 
Q 1453 4259 1213 4009 
Q 1028 3803 1028 3534 
Q 1028 3238 1266 3047 
Q 1444 2913 1984 2688 
L 2200 2597 
Q 2925 2306 3191 1953 
Q 3422 1644 3422 1259 
Q 3422 644 2969 288 
Q 2559 -31 1931 -31 
Q 881 -31 313 766 
L 753 1100 
Q 1203 459 1938 459 
Q 2288 459 2534 625 
Q 2841 847 2841 1216 
Q 2841 1503 2616 1728 
Q 2375 1959 1728 2206 
L 1541 2278 
Q 453 2694 453 3481 
Q 453 4006 806 4347 
Q 1203 4725 1863 4725 
Q 2841 4725 3359 3956 
L 2919 3641 
z
" transform="scale(0.015625)"/>
      <path id="IPAexGothic-54" d="M 3866 4141 
L 2175 4141 
L 2175 63 
L 1606 63 
L 1606 4141 
L -31 4141 
L -31 4634 
L 3866 4634 
L 3866 4141 
z
" transform="scale(0.015625)"/>
      <path id="IPAexGothic-41" d="M 4056 63 
L 3444 63 
L 2938 1409 
L 1100 1409 
L 603 63 
L -6 63 
L 1806 4666 
L 2259 4666 
L 4056 63 
z
M 2778 1863 
L 2316 3078 
Q 2125 3588 2028 4000 
L 2009 4000 
Q 1897 3563 1716 3078 
L 1263 1863 
L 2778 1863 
z
" transform="scale(0.015625)"/>
      <path id="IPAexGothic-52" d="M 4072 63 
L 3394 63 
Q 3138 641 2828 1197 
Q 2584 1641 2344 1825 
Q 2050 2044 1625 2044 
L 1172 2044 
L 1172 63 
L 609 63 
L 609 4634 
L 2009 4634 
Q 2713 4634 3131 4378 
Q 3688 4044 3688 3381 
Q 3688 2784 3181 2459 
Q 2906 2272 2522 2216 
L 2522 2197 
Q 2941 2050 3247 1581 
Q 3516 1166 4072 63 
z
M 1172 2478 
L 1869 2478 
Q 3106 2478 3106 3369 
Q 3106 4181 1928 4181 
L 1172 4181 
L 1172 2478 
z
" transform="scale(0.015625)"/>
     </defs>
     <use xlink:href="#IPAexGothic-53"/>
     <use xlink:href="#IPAexGothic-54" x="58.496094"/>
     <use xlink:href="#IPAexGothic-41" x="118.408203"/>
     <use xlink:href="#IPAexGothic-52" x="182.128906"/>
     <use xlink:href="#IPAexGothic-54" x="246.923828"/>
    </g>
   </g>
   <g id="text_2">
    <!-- gdp_componentsの -->
    <g transform="translate(52.372188 82.979531) scale(0.14 -0.14)">
     <defs>
      <path id="IPAexGothic-67" d="M 1331 1150 
Q 1006 1122 1006 900 
Q 1006 613 1763 575 
L 2131 556 
Q 3303 497 3303 -294 
Q 3303 -700 2925 -959 
Q 2519 -1253 1794 -1253 
Q 1138 -1253 738 -1028 
Q 353 -809 353 -428 
Q 353 84 1075 247 
L 1075 269 
Q 506 413 506 778 
Q 506 1116 994 1297 
Q 456 1575 456 2181 
Q 456 2650 769 2963 
Q 1128 3322 1738 3322 
Q 2125 3322 2422 3153 
Q 2650 3453 3259 3463 
L 3259 3013 
Q 2838 3003 2703 2938 
Q 3034 2613 3034 2169 
Q 3034 1728 2734 1425 
Q 2400 1094 1813 1094 
Q 1563 1094 1331 1150 
z
M 1734 2919 
Q 1409 2919 1197 2706 
Q 988 2497 988 2181 
Q 988 1872 1184 1684 
Q 1397 1472 1756 1472 
Q 2094 1472 2297 1678 
Q 2503 1881 2503 2203 
Q 2503 2497 2297 2700 
Q 2081 2919 1734 2919 
z
M 1753 159 
Q 903 159 903 -366 
Q 903 -875 1800 -875 
Q 2378 -875 2638 -606 
Q 2772 -481 2772 -313 
Q 2772 159 1753 159 
z
" transform="scale(0.015625)"/>
      <path id="IPAexGothic-64" d="M 3391 63 
L 2891 63 
L 2891 619 
Q 2441 -31 1753 -31 
Q 1181 -31 788 372 
Q 313 844 313 1663 
Q 313 2466 772 2938 
Q 1169 3341 1753 3341 
Q 2384 3341 2847 2809 
L 2847 4794 
L 3391 4794 
L 3391 63 
z
M 2847 1303 
L 2847 2097 
Q 2847 2413 2456 2706 
Q 2181 2906 1853 2906 
Q 1484 2906 1228 2650 
Q 888 2309 888 1678 
Q 888 1109 1169 750 
Q 1441 409 1847 409 
Q 2322 409 2656 875 
Q 2847 1134 2847 1303 
z
" transform="scale(0.015625)"/>
      <path id="IPAexGothic-70" d="M 1075 2688 
Q 1525 3341 2206 3341 
Q 2769 3341 3172 2938 
Q 3641 2469 3641 1644 
Q 3641 841 3178 372 
Q 2775 -31 2200 -31 
Q 1569 -31 1106 497 
L 1106 -1216 
L 563 -1216 
L 563 3250 
L 1075 3250 
L 1075 2688 
z
M 1106 1950 
L 1106 1291 
Q 1106 897 1516 600 
Q 1791 403 2106 403 
Q 2469 403 2725 659 
Q 3066 997 3066 1631 
Q 3066 2200 2784 2559 
Q 2503 2900 2100 2900 
Q 1656 2900 1338 2484 
Q 1106 2184 1106 1950 
z
" transform="scale(0.015625)"/>
      <path id="IPAexGothic-5f" d="M 3200 -750 
L 0 -750 
L 0 -431 
L 3200 -431 
L 3200 -750 
z
" transform="scale(0.015625)"/>
      <path id="IPAexGothic-63" d="M 3269 784 
Q 2834 -31 1900 -31 
Q 1228 -31 788 409 
Q 313 891 313 1663 
Q 313 2428 788 2913 
Q 1222 3347 1881 3347 
Q 2813 3347 3206 2541 
L 2763 2309 
Q 2484 2900 1900 2900 
Q 1516 2900 1234 2619 
Q 881 2266 881 1650 
Q 881 1069 1222 728 
Q 1522 428 1956 428 
Q 2547 428 2847 1016 
L 3269 784 
z
" transform="scale(0.015625)"/>
      <path id="IPAexGothic-6f" d="M 1919 3341 
Q 2594 3341 3056 2888 
Q 3531 2413 3531 1638 
Q 3531 888 3066 422 
Q 2609 -31 1919 -31 
Q 1228 -31 781 416 
Q 313 881 313 1656 
Q 313 2413 788 2888 
Q 1241 3341 1919 3341 
z
M 1919 2919 
Q 1519 2919 1241 2631 
Q 888 2278 888 1650 
Q 888 1031 1234 684 
Q 1516 403 1919 403 
Q 2331 403 2609 691 
Q 2956 1038 2956 1672 
Q 2956 2269 2603 2631 
Q 2316 2919 1919 2919 
z
" transform="scale(0.015625)"/>
      <path id="IPAexGothic-6d" d="M 5022 63 
L 4472 63 
L 4472 2059 
Q 4472 2869 3847 2869 
Q 3550 2869 3303 2594 
Q 3128 2397 3059 2103 
L 3059 63 
L 2509 63 
L 2509 2066 
Q 2509 2869 1919 2869 
Q 1606 2869 1369 2594 
Q 1113 2306 1113 2041 
L 1113 63 
L 563 63 
L 563 3250 
L 1075 3250 
L 1075 2700 
Q 1391 3316 2028 3316 
Q 2725 3316 2956 2647 
Q 3303 3316 3953 3316 
Q 4478 3316 4772 2944 
Q 5022 2638 5022 2072 
L 5022 63 
z
" transform="scale(0.015625)"/>
      <path id="IPAexGothic-6e" d="M 3328 63 
L 2778 63 
L 2778 2041 
Q 2778 2853 2106 2853 
Q 1428 2853 1113 2041 
L 1113 63 
L 563 63 
L 563 3250 
L 1075 3250 
L 1075 2675 
Q 1525 3316 2222 3316 
Q 3328 3316 3328 2072 
L 3328 63 
z
" transform="scale(0.015625)"/>
      <path id="IPAexGothic-65" d="M 863 1594 
Q 891 1041 1209 722 
Q 1534 397 1997 397 
Q 2606 397 2963 966 
L 3322 728 
Q 2869 -31 1931 -31 
Q 1222 -31 766 422 
Q 306 884 306 1641 
Q 306 2444 788 2925 
Q 1216 3353 1856 3353 
Q 2459 3353 2866 2956 
Q 3322 2494 3322 1722 
L 3322 1594 
L 863 1594 
z
M 2756 1997 
Q 2709 2431 2450 2681 
Q 2194 2938 1844 2938 
Q 1438 2938 1150 2591 
Q 953 2356 894 1997 
L 2756 1997 
z
" transform="scale(0.015625)"/>
      <path id="IPAexGothic-74" d="M 2125 241 
Q 1769 -6 1397 -6 
Q 653 -6 653 831 
L 653 2859 
L 219 2859 
L 219 3250 
L 653 3250 
L 653 3966 
L 1178 4228 
L 1178 3250 
L 2063 3250 
L 2063 2859 
L 1178 2859 
L 1178 906 
Q 1178 416 1513 416 
Q 1738 416 1941 588 
L 2125 241 
z
" transform="scale(0.015625)"/>
      <path id="IPAexGothic-73" d="M 2234 2547 
Q 1938 2931 1484 2931 
Q 891 2931 891 2475 
Q 891 2153 1531 1944 
L 1741 1875 
Q 2650 1578 2650 894 
Q 2650 434 2272 172 
Q 1972 -31 1497 -31 
Q 766 -31 256 503 
L 603 819 
Q 997 397 1516 397 
Q 2131 397 2131 875 
Q 2131 1238 1453 1478 
L 1234 1553 
Q 378 1853 378 2431 
Q 378 2797 628 3047 
Q 928 3347 1453 3347 
Q 2156 3347 2606 2859 
L 2234 2547 
z
" transform="scale(0.015625)"/>
      <path id="IPAexGothic-306e" d="M 3119 469 
Q 5275 766 5275 2425 
Q 5275 3453 4413 3925 
Q 4041 4116 3547 4159 
Q 3394 2525 2850 1400 
Q 2322 306 1722 306 
Q 1384 306 1084 666 
Q 609 1244 609 2003 
Q 609 3025 1397 3794 
Q 2184 4563 3431 4563 
Q 4306 4563 4928 4122 
Q 5813 3506 5813 2425 
Q 5813 438 3431 6 
L 3119 469 
z
M 3053 4147 
Q 2378 4044 1891 3641 
Q 1097 2981 1097 1991 
Q 1097 1366 1434 978 
Q 1581 813 1719 813 
Q 2022 813 2416 1625 
Q 2909 2638 3053 4147 
z
" transform="scale(0.015625)"/>
     </defs>
     <use xlink:href="#IPAexGothic-67"/>
     <use xlink:href="#IPAexGothic-64" x="55.517578"/>
     <use xlink:href="#IPAexGothic-70" x="117.919922"/>
     <use xlink:href="#IPAexGothic-5f" x="180.029297"/>
     <use xlink:href="#IPAexGothic-63" x="230.029297"/>
     <use xlink:href="#IPAexGothic-6f" x="284.423828"/>
     <use xlink:href="#IPAexGothic-6d" x="344.824219"/>
     <use xlink:href="#IPAexGothic-70" x="431.933594"/>
     <use xlink:href="#IPAexGothic-6f" x="494.042969"/>
     <use xlink:href="#IPAexGothic-6e" x="554.443359"/>
     <use xlink:href="#IPAexGothic-65" x="614.84375"/>
     <use xlink:href="#IPAexGothic-6e" x="671.728516"/>
     <use xlink:href="#IPAexGothic-74" x="732.128906"/>
     <use xlink:href="#IPAexGothic-73" x="766.748047"/>
     <use xlink:href="#IPAexGothic-306e" x="812.939453"/>
    </g>
    <!-- 要素を $i$ に割り当てる -->
    <g transform="translate(47.54 96.207344) scale(0.14 -0.14)">
     <defs>
      <path id="IPAexGothic-8981" d="M 2278 4025 
L 2278 4581 
L 528 4581 
L 528 4978 
L 5856 4978 
L 5856 4581 
L 4081 4581 
L 4081 4025 
L 5522 4025 
L 5522 2547 
L 863 2547 
L 863 4025 
L 2278 4025 
z
M 2694 4025 
L 3659 4025 
L 3659 4581 
L 2694 4581 
L 2694 4025 
z
M 2278 3666 
L 1316 3666 
L 1316 2906 
L 2278 2906 
L 2278 3666 
z
M 2694 3666 
L 2694 2906 
L 3659 2906 
L 3659 3666 
L 2694 3666 
z
M 4081 3666 
L 4081 2906 
L 5075 2906 
L 5075 3666 
L 4081 3666 
z
M 3066 338 
Q 2547 503 1694 722 
L 1503 775 
Q 1816 1141 2066 1503 
L 447 1503 
L 447 1900 
L 2316 1900 
Q 2497 2225 2641 2516 
L 3084 2366 
Q 2984 2172 2834 1900 
L 5950 1900 
L 5950 1503 
L 4619 1503 
Q 4369 878 3988 484 
Q 4750 263 5797 -91 
L 5413 -488 
Q 4441 -100 3597 172 
Q 2706 -406 869 -531 
L 625 -97 
Q 2122 -28 3066 338 
z
M 3513 619 
Q 3934 1025 4134 1503 
L 2597 1503 
Q 2413 1213 2238 984 
L 2213 953 
Q 2656 853 3513 619 
z
" transform="scale(0.015625)"/>
      <path id="IPAexGothic-7d20" d="M 3419 1172 
L 3419 -450 
L 2931 -450 
L 2931 1144 
L 2553 1125 
Q 1875 1094 538 1063 
L 397 1497 
Q 1191 1497 2175 1509 
L 2350 1516 
Q 1784 2013 1350 2316 
L 1678 2584 
Q 2013 2347 2188 2206 
Q 2488 2456 2803 2841 
L 347 2841 
L 347 3213 
L 2944 3213 
L 2944 3603 
L 953 3603 
L 953 3956 
L 2944 3956 
L 2944 4313 
L 666 4313 
L 666 4678 
L 2944 4678 
L 2944 5313 
L 3413 5313 
L 3413 4678 
L 5728 4678 
L 5728 4313 
L 3413 4313 
L 3413 3956 
L 5441 3956 
L 5441 3603 
L 3413 3603 
L 3413 3213 
L 6050 3213 
L 6050 2841 
L 2931 2841 
L 3234 2656 
Q 2897 2309 2472 1963 
Q 2669 1800 2938 1541 
Q 3656 2131 4175 2669 
L 4591 2444 
Q 4069 1922 3541 1547 
Q 3719 1547 3809 1553 
L 4666 1588 
L 4781 1594 
L 5056 1606 
Q 4819 1819 4578 1997 
L 4916 2247 
Q 5531 1794 6056 1241 
L 5697 941 
Q 5506 1163 5378 1291 
Q 5319 1291 5275 1284 
Q 4719 1238 3663 1178 
L 3419 1172 
z
M 500 -13 
Q 1347 356 1947 966 
L 2375 750 
Q 1775 81 884 -384 
L 500 -13 
z
M 5581 -256 
Q 4844 369 4084 769 
L 4463 1044 
Q 5219 669 5991 109 
L 5581 -256 
z
" transform="scale(0.015625)"/>
      <path id="IPAexGothic-3092" d="M 1094 4263 
Q 1544 4222 2359 4222 
Q 2581 4734 2700 5163 
L 3175 5028 
Q 2997 4538 2859 4256 
Q 3516 4284 4294 4459 
L 4356 4019 
Q 3603 3869 2656 3819 
Q 2391 3284 2059 2797 
Q 2531 3200 2963 3200 
Q 3638 3200 3859 2378 
Q 4556 2681 5338 2950 
L 5575 2528 
Q 4641 2253 3941 1956 
Q 3981 1678 3994 1028 
L 3513 991 
Q 3513 1456 3494 1753 
Q 2388 1194 2388 716 
Q 2388 428 2753 328 
Q 3066 241 3806 241 
Q 4394 241 5178 344 
L 5216 -128 
Q 4434 -213 3653 -213 
Q 2656 -213 2244 41 
Q 1913 244 1913 631 
Q 1913 1094 2344 1497 
Q 2709 1841 3428 2181 
Q 3266 2797 2878 2797 
Q 2238 2797 1209 1419 
L 838 1694 
Q 1625 2716 2163 3800 
Q 1522 3800 1088 3825 
L 1094 4263 
z
" transform="scale(0.015625)"/>
      <path id="IPAexGothic-20" transform="scale(0.015625)"/>
      <path id="DejaVuSans-Oblique-69" d="M 1172 4863 
L 1747 4863 
L 1606 4134 
L 1031 4134 
L 1172 4863 
z
M 909 3500 
L 1484 3500 
L 800 0 
L 225 0 
L 909 3500 
z
" transform="scale(0.015625)"/>
      <path id="IPAexGothic-306b" d="M 1088 -38 
Q 922 1003 922 2081 
Q 922 3222 1331 4794 
L 1813 4684 
Q 1391 3113 1391 2003 
Q 1391 1441 1422 1147 
Q 1434 1181 1813 2016 
L 2125 1797 
Q 1800 1081 1691 763 
Q 1581 453 1581 269 
Q 1581 78 1588 6 
L 1088 -38 
z
M 2834 4038 
Q 3969 4213 5313 4172 
L 5338 3681 
Q 3959 3728 2869 3547 
L 2834 4038 
z
M 5650 256 
Q 5044 172 4372 172 
Q 3463 172 3047 434 
Q 2784 594 2675 841 
Q 2572 1075 2572 1447 
Q 2572 1563 2578 1656 
L 3053 1684 
Q 3050 1613 3044 1528 
Q 3041 1481 3041 1466 
Q 3041 1200 3119 1053 
Q 3178 944 3309 850 
Q 3569 678 4275 678 
Q 4891 678 5588 763 
L 5650 256 
z
" transform="scale(0.015625)"/>
      <path id="IPAexGothic-5272" d="M 2325 4209 
L 2325 3713 
L 3272 3713 
L 3272 3381 
L 2325 3381 
L 2325 2950 
L 3494 2950 
L 3494 2619 
L 2325 2619 
L 2325 2175 
L 3956 2175 
L 3956 1809 
L 353 1809 
L 353 2175 
L 1909 2175 
L 1909 2619 
L 753 2619 
L 753 2950 
L 1909 2950 
L 1909 3381 
L 984 3381 
L 984 3713 
L 1909 3713 
L 1909 4209 
L 838 4209 
L 838 3609 
L 409 3609 
L 409 4569 
L 1903 4569 
L 1903 5313 
L 2338 5313 
L 2338 4569 
L 3872 4569 
L 3872 3609 
L 3444 3609 
L 3444 4209 
L 2325 4209 
z
M 3388 1397 
L 3388 -384 
L 2966 -384 
L 2966 -122 
L 1269 -122 
L 1269 -447 
L 847 -447 
L 847 1397 
L 3388 1397 
z
M 1269 1038 
L 1269 238 
L 2966 238 
L 2966 1038 
L 1269 1038 
z
M 4259 4550 
L 4700 4550 
L 4700 953 
L 4259 953 
L 4259 4550 
z
M 5403 5081 
L 5844 5081 
L 5844 159 
Q 5844 -106 5747 -231 
Q 5634 -372 5263 -372 
Q 4763 -372 4391 -325 
L 4303 141 
Q 4803 75 5206 75 
Q 5403 75 5403 300 
L 5403 5081 
z
" transform="scale(0.015625)"/>
      <path id="IPAexGothic-308a" d="M 2878 2925 
Q 2503 2294 2372 2041 
Q 2222 1750 2163 1459 
L 1716 1503 
Q 1509 2131 1509 3091 
Q 1509 3744 1663 4872 
L 2181 4806 
Q 2003 3541 2003 3016 
Q 2003 2613 2028 2259 
Q 2109 2413 2313 2766 
Q 2484 3063 2578 3238 
L 2878 2925 
z
M 2488 128 
Q 3534 503 3928 1184 
Q 4234 1713 4234 2975 
Q 4234 3872 4122 4928 
L 4666 4928 
Q 4759 3794 4759 2975 
Q 4759 1516 4356 844 
Q 3913 103 2853 -288 
L 2488 128 
z
" transform="scale(0.015625)"/>
      <path id="IPAexGothic-5f53" d="M 3413 2931 
L 5466 2931 
L 5466 -447 
L 4991 -447 
L 4991 -128 
L 825 -128 
L 825 288 
L 4991 288 
L 4991 1241 
L 978 1241 
L 978 1650 
L 4991 1650 
L 4991 2528 
L 819 2528 
L 819 2931 
L 2938 2931 
L 2938 5147 
L 3413 5147 
L 3413 2931 
z
M 1716 3219 
Q 1375 3966 972 4506 
L 1388 4738 
Q 1800 4228 2175 3450 
L 1716 3219 
z
M 4088 3416 
Q 4531 4009 4916 4844 
L 5394 4625 
Q 4984 3828 4513 3194 
L 4088 3416 
z
" transform="scale(0.015625)"/>
      <path id="IPAexGothic-3066" d="M 581 4034 
Q 2978 4363 5466 4556 
L 5509 4097 
Q 4388 4031 3750 3572 
Q 2797 2878 2797 1913 
Q 2797 1169 3291 819 
Q 3778 484 4869 416 
L 4906 -116 
Q 2278 0 2278 1850 
Q 2278 3125 3691 4000 
Q 2066 3784 684 3553 
L 581 4034 
z
" transform="scale(0.015625)"/>
      <path id="IPAexGothic-308b" d="M 4391 4397 
L 2613 2588 
Q 3225 2809 3759 2809 
Q 4263 2809 4659 2625 
Q 5391 2269 5391 1484 
Q 5391 756 4706 275 
Q 4072 -166 3053 -166 
Q 2559 -166 2247 19 
Q 1863 250 1863 666 
Q 1863 934 2069 1141 
Q 2331 1403 2741 1403 
Q 3509 1403 4019 428 
Q 4872 784 4872 1491 
Q 4872 1981 4469 2222 
Q 4166 2406 3681 2406 
Q 2425 2406 1238 1209 
L 891 1581 
Q 2438 2934 3578 4281 
Q 2594 4125 1588 4066 
L 1478 4550 
Q 2594 4581 4109 4763 
L 4391 4397 
z
M 3591 303 
Q 3244 1025 2731 1025 
Q 2553 1025 2434 934 
Q 2316 844 2316 700 
Q 2316 250 3034 250 
Q 3275 250 3591 303 
z
" transform="scale(0.015625)"/>
     </defs>
     <use xlink:href="#IPAexGothic-8981" transform="translate(0 0.984375)"/>
     <use xlink:href="#IPAexGothic-7d20" transform="translate(100 0.984375)"/>
     <use xlink:href="#IPAexGothic-3092" transform="translate(200 0.984375)"/>
     <use xlink:href="#IPAexGothic-20" transform="translate(300 0.984375)"/>
     <use xlink:href="#DejaVuSans-Oblique-69" transform="translate(327.001953 0.984375)"/>
     <use xlink:href="#IPAexGothic-20" transform="translate(354.785156 0.984375)"/>
     <use xlink:href="#IPAexGothic-306b" transform="translate(381.787109 0.984375)"/>
     <use xlink:href="#IPAexGothic-5272" transform="translate(481.787109 0.984375)"/>
     <use xlink:href="#IPAexGothic-308a" transform="translate(581.787109 0.984375)"/>
     <use xlink:href="#IPAexGothic-5f53" transform="translate(681.787109 0.984375)"/>
     <use xlink:href="#IPAexGothic-3066" transform="translate(781.787109 0.984375)"/>
     <use xlink:href="#IPAexGothic-308b" transform="translate(881.787109 0.984375)"/>
    </g>
   </g>
   <g id="text_3">
    <!-- False -->
    <g transform="translate(120.96 207.046875) scale(0.14 -0.14)">
     <defs>
      <path id="IPAexGothic-46" d="M 3469 4141 
L 1172 4141 
L 1172 2656 
L 3206 2656 
L 3206 2188 
L 1172 2188 
L 1172 63 
L 609 63 
L 609 4634 
L 3469 4634 
L 3469 4141 
z
" transform="scale(0.015625)"/>
      <path id="IPAexGothic-61" d="M 3156 63 
L 2672 63 
Q 2559 303 2531 556 
L 2509 556 
Q 2147 -25 1428 -25 
Q 934 -25 622 288 
Q 347 563 347 959 
Q 347 1947 2050 1997 
L 2478 2009 
L 2478 2175 
Q 2478 2509 2288 2700 
Q 2088 2900 1775 2900 
Q 1238 2900 969 2378 
L 494 2597 
Q 938 3328 1788 3328 
Q 2375 3328 2691 3000 
Q 2984 2706 2984 2169 
L 2984 997 
Q 2984 400 3156 63 
z
M 2491 1625 
L 2141 1619 
Q 903 1591 903 953 
Q 903 728 1050 581 
Q 1231 403 1525 403 
Q 1934 403 2234 703 
Q 2491 969 2491 1344 
L 2491 1625 
z
" transform="scale(0.015625)"/>
      <path id="IPAexGothic-6c" d="M 1131 63 
L 581 63 
L 581 4794 
L 1131 4794 
L 1131 63 
z
" transform="scale(0.015625)"/>
     </defs>
     <use xlink:href="#IPAexGothic-46"/>
     <use xlink:href="#IPAexGothic-61" x="57.177734"/>
     <use xlink:href="#IPAexGothic-6c" x="112.158203"/>
     <use xlink:href="#IPAexGothic-73" x="139.160156"/>
     <use xlink:href="#IPAexGothic-65" x="185.351562"/>
    </g>
   </g>
   <g id="text_4">
    <!-- True -->
    <g transform="translate(196.56 153.94) scale(0.14 -0.14)">
     <defs>
      <path id="IPAexGothic-72" d="M 2309 3316 
L 2213 2769 
Q 2106 2791 2022 2791 
Q 1653 2791 1413 2444 
Q 1113 2006 1113 1675 
L 1113 63 
L 563 63 
L 563 3250 
L 1081 3250 
L 1056 2303 
L 1069 2303 
Q 1422 3341 2097 3341 
Q 2206 3341 2309 3316 
z
" transform="scale(0.015625)"/>
      <path id="IPAexGothic-75" d="M 3284 63 
L 2772 63 
L 2772 644 
Q 2300 0 1625 0 
Q 1072 0 763 375 
Q 519 678 519 1241 
L 519 3250 
L 1069 3250 
L 1069 1259 
Q 1069 466 1734 466 
Q 2406 466 2734 1291 
L 2734 3250 
L 3284 3250 
L 3284 63 
z
" transform="scale(0.015625)"/>
     </defs>
     <use xlink:href="#IPAexGothic-54"/>
     <use xlink:href="#IPAexGothic-72" x="59.912109"/>
     <use xlink:href="#IPAexGothic-75" x="96.923828"/>
     <use xlink:href="#IPAexGothic-65" x="157.324219"/>
    </g>
   </g>
   <g id="text_5">
    <!-- 最後の要素を -->
    <g transform="translate(74.28 158.62) scale(0.14 -0.14)">
     <defs>
      <path id="IPAexGothic-6700" d="M 5106 5050 
L 5106 3275 
L 1284 3275 
L 1284 5050 
L 5106 5050 
z
M 1741 4697 
L 1741 4331 
L 4656 4331 
L 4656 4697 
L 1741 4697 
z
M 1741 4000 
L 1741 3622 
L 4656 3622 
L 4656 4000 
L 1741 4000 
z
M 2925 2528 
L 2925 -450 
L 2503 -450 
L 2503 228 
Q 1869 94 525 -78 
L 409 356 
Q 491 363 609 372 
Q 725 381 756 381 
L 994 403 
L 994 2528 
L 384 2528 
L 384 2900 
L 6016 2900 
L 6016 2528 
L 2925 2528 
z
M 2503 2528 
L 1400 2528 
L 1400 2088 
L 2503 2088 
L 2503 2528 
z
M 2503 1763 
L 1400 1763 
L 1400 1309 
L 2503 1309 
L 2503 1763 
z
M 2503 984 
L 1400 984 
L 1400 434 
L 1759 472 
Q 2159 500 2503 550 
L 2503 984 
z
M 4844 588 
Q 5350 225 6047 -9 
L 5753 -419 
Q 5066 -128 4556 288 
Q 4000 -241 3281 -534 
L 3006 -163 
Q 3734 84 4263 563 
Q 3722 1141 3463 1803 
L 3084 1803 
L 3084 2169 
L 5425 2169 
L 5656 1963 
Q 5328 1178 4881 638 
L 4844 588 
z
M 4538 850 
Q 4884 1275 5119 1803 
L 3872 1803 
Q 4113 1275 4538 850 
z
" transform="scale(0.015625)"/>
      <path id="IPAexGothic-5f8c" d="M 3309 2475 
Q 3184 2469 2291 2425 
L 2125 2859 
Q 2625 2859 2822 2866 
L 3169 2878 
L 3488 3194 
Q 2891 3844 2375 4238 
L 2700 4563 
Q 2878 4409 3097 4191 
Q 3563 4781 3828 5297 
L 4263 5075 
Q 3853 4431 3366 3916 
Q 3538 3744 3769 3475 
Q 4366 4109 4756 4647 
L 5178 4391 
Q 4525 3594 3719 2891 
L 4519 2925 
Q 5022 2950 5197 2963 
Q 4978 3316 4741 3591 
L 5106 3794 
Q 5606 3197 5972 2516 
L 5569 2259 
Q 5494 2428 5381 2638 
Q 5363 2631 5309 2628 
Q 5259 2625 5234 2622 
Q 4741 2566 3806 2509 
Q 3728 2338 3550 2041 
L 5050 2041 
L 5319 1791 
Q 4978 1122 4441 631 
Q 5069 256 5984 25 
L 5663 -419 
Q 4734 -106 4109 338 
Q 3372 -225 2194 -531 
L 1900 -116 
Q 3009 66 3775 594 
Q 3331 969 3053 1356 
Q 2663 900 2259 625 
L 1959 941 
Q 2838 1559 3309 2475 
z
M 4109 863 
Q 4528 1244 4728 1656 
L 3322 1656 
Q 3613 1263 4109 863 
z
M 1588 2753 
L 1588 -447 
L 1147 -447 
L 1147 2209 
Q 869 1891 550 1613 
L 250 1947 
Q 1216 2806 1803 3938 
L 2206 3738 
Q 1906 3188 1588 2753 
z
M 294 3716 
Q 1213 4375 1663 5209 
L 2078 4997 
Q 1475 4016 588 3372 
L 294 3716 
z
" transform="scale(0.015625)"/>
     </defs>
     <use xlink:href="#IPAexGothic-6700"/>
     <use xlink:href="#IPAexGothic-5f8c" x="100"/>
     <use xlink:href="#IPAexGothic-306e" x="200"/>
     <use xlink:href="#IPAexGothic-8981" x="300"/>
     <use xlink:href="#IPAexGothic-7d20" x="400"/>
     <use xlink:href="#IPAexGothic-3092" x="500"/>
    </g>
    <!-- 使い切ったか？ -->
    <g transform="translate(67.28 171.766875) scale(0.14 -0.14)">
     <defs>
      <path id="IPAexGothic-4f7f" d="M 3700 3547 
L 3700 4103 
L 1894 4103 
L 1894 4500 
L 3700 4500 
L 3700 5306 
L 4141 5306 
L 4141 4500 
L 5981 4500 
L 5981 4103 
L 4141 4103 
L 4141 3547 
L 5638 3547 
L 5638 1484 
L 5209 1484 
L 5209 1809 
L 4134 1809 
Q 4106 1163 3922 741 
Q 4784 241 6103 19 
L 5816 -419 
Q 4619 -150 3713 394 
Q 3238 -234 2059 -541 
L 1772 -138 
Q 2941 75 3366 625 
Q 2925 963 2563 1322 
L 2884 1566 
Q 3213 1228 3553 978 
Q 3684 1363 3694 1809 
L 2634 1809 
L 2634 1484 
L 2206 1484 
L 2206 3547 
L 3700 3547 
z
M 3700 3163 
L 2634 3163 
L 2634 2194 
L 3700 2194 
L 3700 3163 
z
M 4141 3163 
L 4141 2194 
L 5209 2194 
L 5209 3163 
L 4141 3163 
z
M 1509 3769 
L 1509 -447 
L 1069 -447 
L 1069 2822 
Q 813 2363 531 1972 
L 288 2363 
Q 1147 3628 1528 5331 
L 1975 5222 
Q 1747 4356 1509 3769 
z
" transform="scale(0.015625)"/>
      <path id="IPAexGothic-3044" d="M 3369 1447 
Q 2906 122 2278 122 
Q 1966 122 1647 481 
Q 1209 966 1044 1966 
Q 891 2888 891 4313 
L 1422 4313 
Q 1413 2444 1666 1550 
Q 1913 678 2278 678 
Q 2619 678 2925 1791 
L 3369 1447 
z
M 5378 1294 
Q 4928 2797 4034 3809 
L 4488 4031 
Q 5375 3000 5881 1563 
L 5378 1294 
z
" transform="scale(0.015625)"/>
      <path id="IPAexGothic-5207" d="M 4197 4281 
Q 4197 2691 4025 1778 
Q 3747 344 2456 -447 
L 2119 -72 
Q 3397 631 3616 2150 
Q 3731 2975 3731 4281 
L 2700 4281 
L 2700 4709 
L 5816 4709 
Q 5816 1153 5638 331 
Q 5513 -238 4825 -238 
Q 4409 -238 4038 -194 
L 3941 325 
Q 4419 238 4734 238 
Q 5119 238 5197 622 
Q 5325 1322 5344 3922 
L 5344 4281 
L 4197 4281 
z
M 1525 3206 
L 1525 1528 
Q 1525 1378 1575 1334 
Q 1638 1291 1872 1291 
Q 2316 1291 2381 1444 
Q 2434 1556 2453 2216 
L 2925 2047 
Q 2897 1272 2772 1081 
Q 2619 850 1825 850 
Q 1341 850 1197 966 
Q 1056 1069 1056 1338 
L 1056 3150 
L 319 3059 
L 269 3500 
L 1056 3591 
L 1056 5075 
L 1525 5075 
L 1525 3641 
L 2959 3809 
L 2991 3378 
L 1525 3206 
z
" transform="scale(0.015625)"/>
      <path id="IPAexGothic-3063" d="M 1113 2656 
Q 2778 3103 3709 3103 
Q 4359 3103 4734 2778 
Q 5150 2409 5150 1803 
Q 5150 247 2456 25 
L 2231 494 
Q 3425 541 4028 878 
Q 4663 1231 4663 1806 
Q 4663 2681 3647 2681 
Q 2834 2681 1319 2203 
L 1113 2656 
z
" transform="scale(0.015625)"/>
      <path id="IPAexGothic-305f" d="M 684 3994 
Q 1138 3953 1556 3953 
Q 1797 3953 2106 3975 
Q 2266 4594 2369 5113 
L 2875 5025 
Q 2806 4731 2619 4013 
Q 3209 4084 3656 4191 
L 3688 3719 
Q 3109 3613 2497 3566 
Q 1822 1294 1153 -44 
L 653 172 
Q 1406 1500 1991 3531 
Q 1634 3513 1256 3513 
Q 1106 3513 697 3525 
L 684 3994 
z
M 5753 78 
Q 5059 -13 4597 -13 
Q 3619 -13 3206 334 
Q 2866 625 2766 1222 
L 3213 1388 
Q 3247 1069 3347 903 
Q 3425 775 3578 672 
Q 3866 481 4556 481 
Q 5009 481 5728 575 
L 5753 78 
z
M 3144 2859 
Q 4216 3147 5409 3072 
L 5381 2597 
L 5356 2597 
Q 4263 2663 3194 2419 
L 3144 2859 
z
" transform="scale(0.015625)"/>
      <path id="IPAexGothic-304b" d="M 659 3384 
Q 1434 3503 2113 3581 
Q 2313 4341 2394 4972 
L 2900 4875 
Q 2759 4147 2619 3628 
L 2719 3634 
Q 2894 3641 3041 3641 
Q 4072 3641 4072 2369 
Q 4072 1128 3700 384 
Q 3478 -56 3003 -56 
Q 2591 -56 2113 231 
L 2138 775 
Q 2631 444 2925 444 
Q 3169 444 3297 706 
Q 3566 1294 3566 2388 
Q 3566 3219 3016 3219 
Q 2825 3219 2497 3194 
Q 2388 2763 2113 2047 
Q 1634 797 1119 -38 
L 678 244 
Q 1356 1238 1863 2750 
Q 1888 2819 1991 3128 
Q 1594 3081 769 2916 
L 659 3384 
z
M 5644 1753 
Q 5072 3025 4238 3916 
L 4641 4184 
Q 5494 3275 6081 2094 
L 5644 1753 
z
" transform="scale(0.015625)"/>
      <path id="IPAexGothic-ff1f" d="M 1503 3444 
Q 1550 4184 1963 4616 
Q 2466 5128 3272 5128 
Q 3888 5128 4313 4853 
Q 4909 4469 4909 3778 
Q 4909 3059 4116 2563 
Q 3628 2250 3506 1881 
Q 3422 1650 3422 1228 
L 2853 1228 
Q 2863 1869 3053 2197 
Q 3281 2588 3847 2950 
Q 4341 3269 4341 3778 
Q 4341 4231 3975 4463 
Q 3697 4634 3266 4634 
Q 2656 4634 2341 4225 
Q 2109 3928 2091 3444 
L 1503 3444 
z
M 2763 647 
L 3506 647 
L 3506 -97 
L 2763 -97 
L 2763 647 
z
" transform="scale(0.015625)"/>
     </defs>
     <use xlink:href="#IPAexGothic-4f7f"/>
     <use xlink:href="#IPAexGothic-3044" x="100"/>
     <use xlink:href="#IPAexGothic-5207" x="200"/>
     <use xlink:href="#IPAexGothic-3063" x="300"/>
     <use xlink:href="#IPAexGothic-305f" x="400"/>
     <use xlink:href="#IPAexGothic-304b" x="500"/>
     <use xlink:href="#IPAexGothic-ff1f" x="600"/>
    </g>
   </g>
   <g id="text_6">
    <!-- END -->
    <g transform="translate(267.096875 165.193438) scale(0.14 -0.14)">
     <defs>
      <path id="IPAexGothic-45" d="M 3547 63 
L 609 63 
L 609 4634 
L 3469 4634 
L 3469 4147 
L 1166 4147 
L 1166 2650 
L 3206 2650 
L 3206 2191 
L 1166 2191 
L 1166 556 
L 3547 556 
L 3547 63 
z
" transform="scale(0.015625)"/>
      <path id="IPAexGothic-4e" d="M 4244 63 
L 3731 63 
L 1697 3150 
Q 1466 3500 1141 4097 
L 1116 4097 
L 1128 3797 
Q 1159 2803 1159 2469 
L 1159 63 
L 609 63 
L 609 4634 
L 1366 4634 
L 3113 1978 
Q 3453 1447 3713 966 
L 3738 966 
Q 3694 1897 3694 2469 
L 3694 4634 
L 4244 4634 
L 4244 63 
z
" transform="scale(0.015625)"/>
      <path id="IPAexGothic-44" d="M 609 4634 
L 1984 4634 
Q 3159 4634 3791 4050 
Q 4456 3444 4456 2356 
Q 4456 1047 3516 441 
Q 2925 63 1941 63 
L 609 63 
L 609 4634 
z
M 1172 556 
L 1894 556 
Q 3853 556 3853 2356 
Q 3853 4147 1928 4147 
L 1172 4147 
L 1172 556 
z
" transform="scale(0.015625)"/>
     </defs>
     <use xlink:href="#IPAexGothic-45"/>
     <use xlink:href="#IPAexGothic-4e" x="59.521484"/>
     <use xlink:href="#IPAexGothic-44" x="135.498047"/>
    </g>
   </g>
   <g id="text_7">
    <!-- 毎回実行したい -->
    <g transform="translate(67.28 252.22) scale(0.14 -0.14)">
     <defs>
      <path id="IPAexGothic-6bce" d="M 1528 3675 
L 5169 3675 
Q 5169 3553 5131 2322 
L 6078 2322 
L 6078 1925 
L 5119 1925 
Q 5075 1194 5056 994 
L 5047 897 
L 5938 897 
L 5938 513 
L 5003 513 
Q 4947 -3 4838 -172 
Q 4684 -409 4263 -409 
Q 3797 -409 3397 -353 
L 3322 122 
Q 3928 31 4191 31 
Q 4416 31 4484 197 
Q 4506 250 4550 513 
L 1541 513 
Q 1531 475 1497 297 
Q 1463 116 1431 -25 
L 972 63 
Q 1194 1063 1316 1925 
L 319 1925 
L 319 2322 
L 1375 2322 
L 1381 2366 
Q 1466 2978 1528 3675 
z
M 3500 3291 
L 3488 3169 
Q 3453 2759 3409 2316 
L 4684 2316 
Q 4713 2934 4722 3291 
L 3500 3291 
z
M 3059 3291 
L 1919 3291 
Q 1919 3241 1913 3213 
Q 1903 2997 1816 2316 
L 2963 2316 
Q 3000 2625 3059 3291 
z
M 2925 1931 
L 1766 1931 
Q 1703 1400 1606 897 
L 2781 897 
Q 2844 1306 2909 1847 
L 2925 1931 
z
M 3372 1931 
Q 3275 1175 3238 897 
L 4594 897 
Q 4622 1241 4672 1931 
L 3372 1931 
z
M 1856 4628 
L 5816 4628 
L 5816 4231 
L 1669 4231 
Q 1325 3572 850 3041 
L 509 3369 
Q 1272 4175 1625 5350 
L 2084 5263 
Q 1959 4869 1856 4628 
z
" transform="scale(0.015625)"/>
      <path id="IPAexGothic-56de" d="M 4519 3647 
L 4519 1178 
L 1875 1178 
L 1875 3647 
L 4519 3647 
z
M 2328 3250 
L 2328 1575 
L 4066 1575 
L 4066 3250 
L 2328 3250 
z
M 5722 4891 
L 5722 -456 
L 5247 -456 
L 5247 -103 
L 1147 -103 
L 1147 -456 
L 672 -456 
L 672 4891 
L 5722 4891 
z
M 1147 4475 
L 1147 313 
L 5247 313 
L 5247 4475 
L 1147 4475 
z
" transform="scale(0.015625)"/>
      <path id="IPAexGothic-5b9f" d="M 3525 1275 
Q 4288 350 6022 91 
L 5738 -375 
Q 3953 -41 3219 1050 
Q 2731 -144 728 -472 
L 466 -44 
Q 2422 150 2872 1275 
L 384 1275 
L 384 1659 
L 2950 1659 
L 2950 2144 
L 966 2144 
L 966 2509 
L 2950 2509 
L 2950 2969 
L 1266 2969 
L 1266 3341 
L 2950 3341 
L 2950 3988 
L 3403 3988 
L 3403 3341 
L 5125 3341 
L 5125 2969 
L 3403 2969 
L 3403 2509 
L 5444 2509 
L 5444 2144 
L 3403 2144 
L 3403 1659 
L 6016 1659 
L 6016 1275 
L 3525 1275 
z
M 3413 4544 
L 5778 4544 
L 5778 3269 
L 5309 3269 
L 5309 4147 
L 1084 4147 
L 1084 3269 
L 616 3269 
L 616 4544 
L 2938 4544 
L 2938 5313 
L 3413 5313 
L 3413 4544 
z
" transform="scale(0.015625)"/>
      <path id="IPAexGothic-884c" d="M 1822 2753 
L 1822 -447 
L 1353 -447 
L 1353 2169 
Q 966 1744 622 1466 
L 316 1791 
Q 1294 2559 1969 3822 
L 2397 3634 
Q 2109 3138 1822 2753 
z
M 4975 2803 
L 4975 103 
Q 4975 -391 4369 -391 
Q 3925 -391 3356 -341 
L 3288 159 
Q 3775 78 4259 78 
Q 4516 78 4516 319 
L 4516 2803 
L 2384 2803 
L 2384 3225 
L 6013 3225 
L 6013 2803 
L 4975 2803 
z
M 384 3691 
Q 1231 4256 1756 5075 
L 2144 4850 
Q 1541 3947 666 3347 
L 384 3691 
z
M 2709 4794 
L 5659 4794 
L 5659 4378 
L 2709 4378 
L 2709 4794 
z
" transform="scale(0.015625)"/>
      <path id="IPAexGothic-3057" d="M 1750 4884 
L 2281 4884 
L 2238 1319 
Q 2228 809 2391 569 
Q 2594 281 3128 281 
Q 3772 281 4344 744 
Q 4822 1131 5156 1759 
L 5534 1369 
Q 5094 653 4534 263 
Q 3878 -206 3134 -206 
Q 2341 -206 1994 213 
Q 1697 575 1706 1269 
L 1750 4884 
z
" transform="scale(0.015625)"/>
     </defs>
     <use xlink:href="#IPAexGothic-6bce"/>
     <use xlink:href="#IPAexGothic-56de" x="100"/>
     <use xlink:href="#IPAexGothic-5b9f" x="200"/>
     <use xlink:href="#IPAexGothic-884c" x="300"/>
     <use xlink:href="#IPAexGothic-3057" x="400"/>
     <use xlink:href="#IPAexGothic-305f" x="500"/>
     <use xlink:href="#IPAexGothic-3044" x="600"/>
    </g>
    <!-- コードを実行 -->
    <g transform="translate(74.28 265.366875) scale(0.14 -0.14)">
     <defs>
      <path id="IPAexGothic-30b3" d="M 1134 4213 
L 5166 4213 
L 5166 153 
L 4653 153 
L 4653 594 
L 1063 594 
L 1063 1088 
L 4653 1088 
L 4653 3725 
L 1134 3725 
L 1134 4213 
z
" transform="scale(0.015625)"/>
      <path id="IPAexGothic-30fc" d="M 588 2688 
L 5809 2688 
L 5809 2175 
L 588 2175 
L 588 2688 
z
" transform="scale(0.015625)"/>
      <path id="IPAexGothic-30c9" d="M 2247 4959 
L 2766 4959 
L 2766 3169 
Q 4050 2581 5178 1850 
L 4841 1331 
Q 3781 2138 2766 2650 
L 2766 -225 
L 2247 -225 
L 2247 4959 
z
M 5263 3847 
Q 4900 4388 4506 4716 
L 4806 4947 
Q 5191 4638 5581 4122 
L 5263 3847 
z
M 4666 3378 
Q 4375 3869 3931 4269 
L 4244 4513 
Q 4616 4206 5000 3653 
L 4666 3378 
z
" transform="scale(0.015625)"/>
     </defs>
     <use xlink:href="#IPAexGothic-30b3"/>
     <use xlink:href="#IPAexGothic-30fc" x="100"/>
     <use xlink:href="#IPAexGothic-30c9" x="200"/>
     <use xlink:href="#IPAexGothic-3092" x="300"/>
     <use xlink:href="#IPAexGothic-5b9f" x="400"/>
     <use xlink:href="#IPAexGothic-884c" x="500"/>
    </g>
   </g>
  </g>
 </g>
 <defs>
  <clipPath id="p6ad4772de9">
   <rect x="0" y="0" width="322.56" height="277.56"/>
  </clipPath>
 </defs>
</svg>