<?xml version="1.0" encoding="utf-8" standalone="no"?>
<!DOCTYPE svg PUBLIC "-//W3C//DTD SVG 1.1//EN"
  "http://www.w3.org/Graphics/SVG/1.1/DTD/svg11.dtd">
<svg xmlns:xlink="http://www.w3.org/1999/xlink" width="311.76pt" height="333.36pt" viewBox="0 0 311.76 333.36" xmlns="http://www.w3.org/2000/svg" version="1.1">
 <metadata>
  <rdf:RDF xmlns:dc="http://purl.org/dc/elements/1.1/" xmlns:cc="http://creativecommons.org/ns#" xmlns:rdf="http://www.w3.org/1999/02/22-rdf-syntax-ns#">
   <cc:Work>
    <dc:type rdf:resource="http://purl.org/dc/dcmitype/StillImage"/>
    <dc:date>2024-07-14T02:58:20.197479</dc:date>
    <dc:format>image/svg+xml</dc:format>
    <dc:creator>
     <cc:Agent>
      <dc:title>Matplotlib v3.9.1, https://matplotlib.org/</dc:title>
     </cc:Agent>
    </dc:creator>
   </cc:Work>
  </rdf:RDF>
 </metadata>
 <defs>
  <style type="text/css">*{stroke-linejoin: round; stroke-linecap: butt}</style>
 </defs>
 <g id="figure_1">
  <g id="patch_1">
   <path d="M 0 333.36 
L 311.76 333.36 
L 311.76 0 
L 0 0 
z
" style="fill: #ffffff"/>
  </g>
  <g id="axes_1">
   <g id="patch_2">
    <path d="M 136.08 40.68 
L 136.365587 40.677734 
L 136.651103 40.670938 
L 136.936474 40.659612 
L 137.221631 40.64376 
L 137.506499 40.623386 
L 137.791009 40.598495 
L 138.075088 40.569092 
L 138.358664 40.535187 
L 138.641667 40.496786 
L 138.924025 40.4539 
L 139.205667 40.40654 
L 139.486522 40.354717 
L 139.76652 40.298444 
L 140.04559 40.237736 
L 140.323661 40.172608 
L 140.600664 40.103077 
L 140.876529 40.029159 
L 141.151186 39.950874 
L 141.424567 39.86824 
L 141.696602 39.78128 
L 141.967223 39.690015 
L 142.236363 39.594467 
L 142.503952 39.494661 
L 142.769924 39.390623 
L 143.034212 39.282377 
L 143.29675 39.169952 
L 143.55747 39.053376 
L 143.816308 38.932678 
L 144.073199 38.807888 
L 144.328077 38.679038 
L 144.580879 38.546161 
L 144.831541 38.409289 
L 145.08 38.268457 
L 145.326193 38.123701 
L 145.570058 37.975058 
L 145.811535 37.822564 
L 146.050561 37.666257 
L 146.287078 37.506178 
L 146.521024 37.342367 
L 146.752343 37.174865 
L 146.980974 37.003713 
L 147.206862 36.828956 
L 147.429948 36.650636 
L 147.650177 36.4688 
L 147.867493 36.283492 
L 148.081842 36.09476 
L 148.293169 35.902651 
L 148.501422 35.707213 
L 148.706548 35.508495 
L 148.908495 35.306548 
L 149.107213 35.101422 
L 149.302651 34.893169 
L 149.49476 34.681842 
L 149.683492 34.467493 
L 149.8688 34.250177 
L 150.050636 34.029948 
L 150.228956 33.806862 
L 150.403713 33.580974 
L 150.574865 33.352343 
L 150.742367 33.121024 
L 150.906178 32.887078 
L 151.066257 32.650561 
L 151.222564 32.411535 
L 151.375058 32.170058 
L 151.523701 31.926193 
L 151.668457 31.68 
L 151.809289 31.431541 
L 151.946161 31.180879 
L 152.079038 30.928077 
L 152.207888 30.673199 
L 152.332678 30.416308 
L 152.453376 30.15747 
L 152.569952 29.89675 
L 152.682377 29.634212 
L 152.790623 29.369924 
L 152.894661 29.103952 
L 152.994467 28.836363 
L 153.090015 28.567223 
L 153.18128 28.296602 
L 153.26824 28.024567 
L 153.350874 27.751186 
L 153.429159 27.476529 
L 153.503077 27.200664 
L 153.572608 26.923661 
L 153.637736 26.64559 
L 153.698444 26.36652 
L 153.754717 26.086522 
L 153.80654 25.805667 
L 153.8539 25.524025 
L 153.896786 25.241667 
L 153.935187 24.958664 
L 153.969092 24.675088 
L 153.998495 24.391009 
L 154.023386 24.106499 
L 154.04376 23.821631 
L 154.059612 23.536474 
L 154.070938 23.251103 
L 154.077734 22.965587 
L 154.08 22.68 
L 154.08 22.68 
L 154.077734 22.394413 
L 154.070938 22.108897 
L 154.059612 21.823526 
L 154.04376 21.538369 
L 154.023386 21.253501 
L 153.998495 20.968991 
L 153.969092 20.684912 
L 153.935187 20.401336 
L 153.896786 20.118333 
L 153.8539 19.835975 
L 153.80654 19.554333 
L 153.754717 19.273478 
L 153.698444 18.99348 
L 153.637736 18.71441 
L 153.572608 18.436339 
L 153.503077 18.159336 
L 153.429159 17.883471 
L 153.350874 17.608814 
L 153.26824 17.335433 
L 153.18128 17.063398 
L 153.090015 16.792777 
L 152.994467 16.523637 
L 152.894661 16.256048 
L 152.790623 15.990076 
L 152.682377 15.725788 
L 152.569952 15.46325 
L 152.453376 15.20253 
L 152.332678 14.943692 
L 152.207888 14.686801 
L 152.079038 14.431923 
L 151.946161 14.179121 
L 151.809289 13.928459 
L 151.668457 13.68 
L 151.523701 13.433807 
L 151.375058 13.189942 
L 151.222564 12.948465 
L 151.066257 12.709439 
L 150.906178 12.472922 
L 150.742367 12.238976 
L 150.574865 12.007657 
L 150.403713 11.779026 
L 150.228956 11.553138 
L 150.050636 11.330052 
L 149.8688 11.109823 
L 149.683492 10.892507 
L 149.49476 10.678158 
L 149.302651 10.466831 
L 149.107213 10.258578 
L 148.908495 10.053452 
L 148.706548 9.851505 
L 148.501422 9.652787 
L 148.293169 9.457349 
L 148.081842 9.26524 
L 147.867493 9.076508 
L 147.650177 8.8912 
L 147.429948 8.709364 
L 147.206862 8.531044 
L 146.980974 8.356287 
L 146.752343 8.185135 
L 146.521024 8.017633 
L 146.287078 7.853822 
L 146.050561 7.693743 
L 145.811535 7.537436 
L 145.570058 7.384942 
L 145.326193 7.236299 
L 145.08 7.091543 
L 144.831541 6.950711 
L 144.580879 6.813839 
L 144.328077 6.680962 
L 144.073199 6.552112 
L 143.816308 6.427322 
L 143.55747 6.306624 
L 143.29675 6.190048 
L 143.034212 6.077623 
L 142.769924 5.969377 
L 142.503952 5.865339 
L 142.236363 5.765533 
L 141.967223 5.669985 
L 141.696602 5.57872 
L 141.424567 5.49176 
L 141.151186 5.409126 
L 140.876529 5.330841 
L 140.600664 5.256923 
L 140.323661 5.187392 
L 140.04559 5.122264 
L 139.76652 5.061556 
L 139.486522 5.005283 
L 139.205667 4.95346 
L 138.924025 4.9061 
L 138.641667 4.863214 
L 138.358664 4.824813 
L 138.075088 4.790908 
L 137.791009 4.761505 
L 137.506499 4.736614 
L 137.221631 4.71624 
L 136.936474 4.700388 
L 136.651103 4.689062 
L 136.365587 4.682266 
L 136.08 4.68 
L 100.08 4.68 
L 99.794413 4.682266 
L 99.508897 4.689062 
L 99.223526 4.700388 
L 98.938369 4.71624 
L 98.653501 4.736614 
L 98.368991 4.761505 
L 98.084912 4.790908 
L 97.801336 4.824813 
L 97.518333 4.863214 
L 97.235975 4.9061 
L 96.954333 4.95346 
L 96.673478 5.005283 
L 96.39348 5.061556 
L 96.11441 5.122264 
L 95.836339 5.187392 
L 95.559336 5.256923 
L 95.283471 5.330841 
L 95.008814 5.409126 
L 94.735433 5.49176 
L 94.463398 5.57872 
L 94.192777 5.669985 
L 93.923637 5.765533 
L 93.656048 5.865339 
L 93.390076 5.969377 
L 93.125788 6.077623 
L 92.86325 6.190048 
L 92.60253 6.306624 
L 92.343692 6.427322 
L 92.086801 6.552112 
L 91.831923 6.680962 
L 91.579121 6.813839 
L 91.328459 6.950711 
L 91.08 7.091543 
L 90.833807 7.236299 
L 90.589942 7.384942 
L 90.348465 7.537436 
L 90.109439 7.693743 
L 89.872922 7.853822 
L 89.638976 8.017633 
L 89.407657 8.185135 
L 89.179026 8.356287 
L 88.953138 8.531044 
L 88.730052 8.709364 
L 88.509823 8.8912 
L 88.292507 9.076508 
L 88.078158 9.26524 
L 87.866831 9.457349 
L 87.658578 9.652787 
L 87.453452 9.851505 
L 87.251505 10.053452 
L 87.052787 10.258578 
L 86.857349 10.466831 
L 86.66524 10.678158 
L 86.476508 10.892507 
L 86.2912 11.109823 
L 86.109364 11.330052 
L 85.931044 11.553138 
L 85.756287 11.779026 
L 85.585135 12.007657 
L 85.417633 12.238976 
L 85.253822 12.472922 
L 85.093743 12.709439 
L 84.937436 12.948465 
L 84.784942 13.189942 
L 84.636299 13.433807 
L 84.491543 13.68 
L 84.350711 13.928459 
L 84.213839 14.179121 
L 84.080962 14.431923 
L 83.952112 14.686801 
L 83.827322 14.943692 
L 83.706624 15.20253 
L 83.590048 15.46325 
L 83.477623 15.725788 
L 83.369377 15.990076 
L 83.265339 16.256048 
L 83.165533 16.523637 
L 83.069985 16.792777 
L 82.97872 17.063398 
L 82.89176 17.335433 
L 82.809126 17.608814 
L 82.730841 17.883471 
L 82.656923 18.159336 
L 82.587392 18.436339 
L 82.522264 18.71441 
L 82.461556 18.99348 
L 82.405283 19.273478 
L 82.35346 19.554333 
L 82.3061 19.835975 
L 82.263214 20.118333 
L 82.224813 20.401336 
L 82.190908 20.684912 
L 82.161505 20.968991 
L 82.136614 21.253501 
L 82.11624 21.538369 
L 82.100388 21.823526 
L 82.089062 22.108897 
L 82.082266 22.394413 
L 82.08 22.68 
L 82.08 22.68 
L 82.082266 22.965587 
L 82.089062 23.251103 
L 82.100388 23.536474 
L 82.11624 23.821631 
L 82.136614 24.106499 
L 82.161505 24.391009 
L 82.190908 24.675088 
L 82.224813 24.958664 
L 82.263214 25.241667 
L 82.3061 25.524025 
L 82.35346 25.805667 
L 82.405283 26.086522 
L 82.461556 26.36652 
L 82.522264 26.64559 
L 82.587392 26.923661 
L 82.656923 27.200664 
L 82.730841 27.476529 
L 82.809126 27.751186 
L 82.89176 28.024567 
L 82.97872 28.296602 
L 83.069985 28.567223 
L 83.165533 28.836363 
L 83.265339 29.103952 
L 83.369377 29.369924 
L 83.477623 29.634212 
L 83.590048 29.89675 
L 83.706624 30.15747 
L 83.827322 30.416308 
L 83.952112 30.673199 
L 84.080962 30.928077 
L 84.213839 31.180879 
L 84.350711 31.431541 
L 84.491543 31.68 
L 84.636299 31.926193 
L 84.784942 32.170058 
L 84.937436 32.411535 
L 85.093743 32.650561 
L 85.253822 32.887078 
L 85.417633 33.121024 
L 85.585135 33.352343 
L 85.756287 33.580974 
L 85.931044 33.806862 
L 86.109364 34.029948 
L 86.2912 34.250177 
L 86.476508 34.467493 
L 86.66524 34.681842 
L 86.857349 34.893169 
L 87.052787 35.101422 
L 87.251505 35.306548 
L 87.453452 35.508495 
L 87.658578 35.707213 
L 87.866831 35.902651 
L 88.078158 36.09476 
L 88.292507 36.283492 
L 88.509823 36.4688 
L 88.730052 36.650636 
L 88.953138 36.828956 
L 89.179026 37.003713 
L 89.407657 37.174865 
L 89.638976 37.342367 
L 89.872922 37.506178 
L 90.109439 37.666257 
L 90.348465 37.822564 
L 90.589942 37.975058 
L 90.833807 38.123701 
L 91.08 38.268457 
L 91.328459 38.409289 
L 91.579121 38.546161 
L 91.831923 38.679038 
L 92.086801 38.807888 
L 92.343692 38.932678 
L 92.60253 39.053376 
L 92.86325 39.169952 
L 93.125788 39.282377 
L 93.390076 39.390623 
L 93.656048 39.494661 
L 93.923637 39.594467 
L 94.192777 39.690015 
L 94.463398 39.78128 
L 94.735433 39.86824 
L 95.008814 39.950874 
L 95.283471 40.029159 
L 95.559336 40.103077 
L 95.836339 40.172608 
L 96.11441 40.237736 
L 96.39348 40.298444 
L 96.673478 40.354717 
L 96.954333 40.40654 
L 97.235975 40.4539 
L 97.518333 40.496786 
L 97.801336 40.535187 
L 98.084912 40.569092 
L 98.368991 40.598495 
L 98.653501 40.623386 
L 98.938369 40.64376 
L 99.223526 40.659612 
L 99.508897 40.670938 
L 99.794413 40.677734 
L 100.08 40.68 
L 136.08 40.68 
z
" clip-path="url(#pe6bfdb2c54)" style="fill: none; stroke: #000000; stroke-linecap: round"/>
   </g>
   <g id="patch_3">
    <path d="M 55.08 157.68 
L 118.08 130.68 
L 181.08 157.68 
L 118.08 184.68 
L 55.08 157.68 
z
" clip-path="url(#pe6bfdb2c54)" style="fill: none; stroke: #000000; stroke-linecap: round"/>
   </g>
   <g id="patch_4">
    <path d="M 289.08 175.68 
L 289.365587 175.677734 
L 289.651103 175.670938 
L 289.936474 175.659612 
L 290.221631 175.64376 
L 290.506499 175.623386 
L 290.791009 175.598495 
L 291.075088 175.569092 
L 291.358664 175.535187 
L 291.641667 175.496786 
L 291.924025 175.4539 
L 292.205667 175.40654 
L 292.486522 175.354717 
L 292.76652 175.298444 
L 293.04559 175.237736 
L 293.323661 175.172608 
L 293.600664 175.103077 
L 293.876529 175.029159 
L 294.151186 174.950874 
L 294.424567 174.86824 
L 294.696602 174.78128 
L 294.967223 174.690015 
L 295.236363 174.594467 
L 295.503952 174.494661 
L 295.769924 174.390623 
L 296.034212 174.282377 
L 296.29675 174.169952 
L 296.55747 174.053376 
L 296.816308 173.932678 
L 297.073199 173.807888 
L 297.328077 173.679038 
L 297.580879 173.546161 
L 297.831541 173.409289 
L 298.08 173.268457 
L 298.326193 173.123701 
L 298.570058 172.975058 
L 298.811535 172.822564 
L 299.050561 172.666257 
L 299.287078 172.506178 
L 299.521024 172.342367 
L 299.752343 172.174865 
L 299.980974 172.003713 
L 300.206862 171.828956 
L 300.429948 171.650636 
L 300.650177 171.4688 
L 300.867493 171.283492 
L 301.081842 171.09476 
L 301.293169 170.902651 
L 301.501422 170.707213 
L 301.706548 170.508495 
L 301.908495 170.306548 
L 302.107213 170.101422 
L 302.302651 169.893169 
L 302.49476 169.681842 
L 302.683492 169.467493 
L 302.8688 169.250177 
L 303.050636 169.029948 
L 303.228956 168.806862 
L 303.403713 168.580974 
L 303.574865 168.352343 
L 303.742367 168.121024 
L 303.906178 167.887078 
L 304.066257 167.650561 
L 304.222564 167.411535 
L 304.375058 167.170058 
L 304.523701 166.926193 
L 304.668457 166.68 
L 304.809289 166.431541 
L 304.946161 166.180879 
L 305.079038 165.928077 
L 305.207888 165.673199 
L 305.332678 165.416308 
L 305.453376 165.15747 
L 305.569952 164.89675 
L 305.682377 164.634212 
L 305.790623 164.369924 
L 305.894661 164.103952 
L 305.994467 163.836363 
L 306.090015 163.567223 
L 306.18128 163.296602 
L 306.26824 163.024567 
L 306.350874 162.751186 
L 306.429159 162.476529 
L 306.503077 162.200664 
L 306.572608 161.923661 
L 306.637736 161.64559 
L 306.698444 161.36652 
L 306.754717 161.086522 
L 306.80654 160.805667 
L 306.8539 160.524025 
L 306.896786 160.241667 
L 306.935187 159.958664 
L 306.969092 159.675088 
L 306.998495 159.391009 
L 307.023386 159.106499 
L 307.04376 158.821631 
L 307.059612 158.536474 
L 307.070938 158.251103 
L 307.077734 157.965587 
L 307.08 157.68 
L 307.08 157.68 
L 307.077734 157.394413 
L 307.070938 157.108897 
L 307.059612 156.823526 
L 307.04376 156.538369 
L 307.023386 156.253501 
L 306.998495 155.968991 
L 306.969092 155.684912 
L 306.935187 155.401336 
L 306.896786 155.118333 
L 306.8539 154.835975 
L 306.80654 154.554333 
L 306.754717 154.273478 
L 306.698444 153.99348 
L 306.637736 153.71441 
L 306.572608 153.436339 
L 306.503077 153.159336 
L 306.429159 152.883471 
L 306.350874 152.608814 
L 306.26824 152.335433 
L 306.18128 152.063398 
L 306.090015 151.792777 
L 305.994467 151.523637 
L 305.894661 151.256048 
L 305.790623 150.990076 
L 305.682377 150.725788 
L 305.569952 150.46325 
L 305.453376 150.20253 
L 305.332678 149.943692 
L 305.207888 149.686801 
L 305.079038 149.431923 
L 304.946161 149.179121 
L 304.809289 148.928459 
L 304.668457 148.68 
L 304.523701 148.433807 
L 304.375058 148.189942 
L 304.222564 147.948465 
L 304.066257 147.709439 
L 303.906178 147.472922 
L 303.742367 147.238976 
L 303.574865 147.007657 
L 303.403713 146.779026 
L 303.228956 146.553138 
L 303.050636 146.330052 
L 302.8688 146.109823 
L 302.683492 145.892507 
L 302.49476 145.678158 
L 302.302651 145.466831 
L 302.107213 145.258578 
L 301.908495 145.053452 
L 301.706548 144.851505 
L 301.501422 144.652787 
L 301.293169 144.457349 
L 301.081842 144.26524 
L 300.867493 144.076508 
L 300.650177 143.8912 
L 300.429948 143.709364 
L 300.206862 143.531044 
L 299.980974 143.356287 
L 299.752343 143.185135 
L 299.521024 143.017633 
L 299.287078 142.853822 
L 299.050561 142.693743 
L 298.811535 142.537436 
L 298.570058 142.384942 
L 298.326193 142.236299 
L 298.08 142.091543 
L 297.831541 141.950711 
L 297.580879 141.813839 
L 297.328077 141.680962 
L 297.073199 141.552112 
L 296.816308 141.427322 
L 296.55747 141.306624 
L 296.29675 141.190048 
L 296.034212 141.077623 
L 295.769924 140.969377 
L 295.503952 140.865339 
L 295.236363 140.765533 
L 294.967223 140.669985 
L 294.696602 140.57872 
L 294.424567 140.49176 
L 294.151186 140.409126 
L 293.876529 140.330841 
L 293.600664 140.256923 
L 293.323661 140.187392 
L 293.04559 140.122264 
L 292.76652 140.061556 
L 292.486522 140.005283 
L 292.205667 139.95346 
L 291.924025 139.9061 
L 291.641667 139.863214 
L 291.358664 139.824813 
L 291.075088 139.790908 
L 290.791009 139.761505 
L 290.506499 139.736614 
L 290.221631 139.71624 
L 289.936474 139.700388 
L 289.651103 139.689062 
L 289.365587 139.682266 
L 289.08 139.68 
L 253.08 139.68 
L 252.794413 139.682266 
L 252.508897 139.689062 
L 252.223526 139.700388 
L 251.938369 139.71624 
L 251.653501 139.736614 
L 251.368991 139.761505 
L 251.084912 139.790908 
L 250.801336 139.824813 
L 250.518333 139.863214 
L 250.235975 139.9061 
L 249.954333 139.95346 
L 249.673478 140.005283 
L 249.39348 140.061556 
L 249.11441 140.122264 
L 248.836339 140.187392 
L 248.559336 140.256923 
L 248.283471 140.330841 
L 248.008814 140.409126 
L 247.735433 140.49176 
L 247.463398 140.57872 
L 247.192777 140.669985 
L 246.923637 140.765533 
L 246.656048 140.865339 
L 246.390076 140.969377 
L 246.125788 141.077623 
L 245.86325 141.190048 
L 245.60253 141.306624 
L 245.343692 141.427322 
L 245.086801 141.552112 
L 244.831923 141.680962 
L 244.579121 141.813839 
L 244.328459 141.950711 
L 244.08 142.091543 
L 243.833807 142.236299 
L 243.589942 142.384942 
L 243.348465 142.537436 
L 243.109439 142.693743 
L 242.872922 142.853822 
L 242.638976 143.017633 
L 242.407657 143.185135 
L 242.179026 143.356287 
L 241.953138 143.531044 
L 241.730052 143.709364 
L 241.509823 143.8912 
L 241.292507 144.076508 
L 241.078158 144.26524 
L 240.866831 144.457349 
L 240.658578 144.652787 
L 240.453452 144.851505 
L 240.251505 145.053452 
L 240.052787 145.258578 
L 239.857349 145.466831 
L 239.66524 145.678158 
L 239.476508 145.892507 
L 239.2912 146.109823 
L 239.109364 146.330052 
L 238.931044 146.553138 
L 238.756287 146.779026 
L 238.585135 147.007657 
L 238.417633 147.238976 
L 238.253822 147.472922 
L 238.093743 147.709439 
L 237.937436 147.948465 
L 237.784942 148.189942 
L 237.636299 148.433807 
L 237.491543 148.68 
L 237.350711 148.928459 
L 237.213839 149.179121 
L 237.080962 149.431923 
L 236.952112 149.686801 
L 236.827322 149.943692 
L 236.706624 150.20253 
L 236.590048 150.46325 
L 236.477623 150.725788 
L 236.369377 150.990076 
L 236.265339 151.256048 
L 236.165533 151.523637 
L 236.069985 151.792777 
L 235.97872 152.063398 
L 235.89176 152.335433 
L 235.809126 152.608814 
L 235.730841 152.883471 
L 235.656923 153.159336 
L 235.587392 153.436339 
L 235.522264 153.71441 
L 235.461556 153.99348 
L 235.405283 154.273478 
L 235.35346 154.554333 
L 235.3061 154.835975 
L 235.263214 155.118333 
L 235.224813 155.401336 
L 235.190908 155.684912 
L 235.161505 155.968991 
L 235.136614 156.253501 
L 235.11624 156.538369 
L 235.100388 156.823526 
L 235.089062 157.108897 
L 235.082266 157.394413 
L 235.08 157.68 
L 235.08 157.68 
L 235.082266 157.965587 
L 235.089062 158.251103 
L 235.100388 158.536474 
L 235.11624 158.821631 
L 235.136614 159.106499 
L 235.161505 159.391009 
L 235.190908 159.675088 
L 235.224813 159.958664 
L 235.263214 160.241667 
L 235.3061 160.524025 
L 235.35346 160.805667 
L 235.405283 161.086522 
L 235.461556 161.36652 
L 235.522264 161.64559 
L 235.587392 161.923661 
L 235.656923 162.200664 
L 235.730841 162.476529 
L 235.809126 162.751186 
L 235.89176 163.024567 
L 235.97872 163.296602 
L 236.069985 163.567223 
L 236.165533 163.836363 
L 236.265339 164.103952 
L 236.369377 164.369924 
L 236.477623 164.634212 
L 236.590048 164.89675 
L 236.706624 165.15747 
L 236.827322 165.416308 
L 236.952112 165.673199 
L 237.080962 165.928077 
L 237.213839 166.180879 
L 237.350711 166.431541 
L 237.491543 166.68 
L 237.636299 166.926193 
L 237.784942 167.170058 
L 237.937436 167.411535 
L 238.093743 167.650561 
L 238.253822 167.887078 
L 238.417633 168.121024 
L 238.585135 168.352343 
L 238.756287 168.580974 
L 238.931044 168.806862 
L 239.109364 169.029948 
L 239.2912 169.250177 
L 239.476508 169.467493 
L 239.66524 169.681842 
L 239.857349 169.893169 
L 240.052787 170.101422 
L 240.251505 170.306548 
L 240.453452 170.508495 
L 240.658578 170.707213 
L 240.866831 170.902651 
L 241.078158 171.09476 
L 241.292507 171.283492 
L 241.509823 171.4688 
L 241.730052 171.650636 
L 241.953138 171.828956 
L 242.179026 172.003713 
L 242.407657 172.174865 
L 242.638976 172.342367 
L 242.872922 172.506178 
L 243.109439 172.666257 
L 243.348465 172.822564 
L 243.589942 172.975058 
L 243.833807 173.123701 
L 244.08 173.268457 
L 244.328459 173.409289 
L 244.579121 173.546161 
L 244.831923 173.679038 
L 245.086801 173.807888 
L 245.343692 173.932678 
L 245.60253 174.053376 
L 245.86325 174.169952 
L 246.125788 174.282377 
L 246.390076 174.390623 
L 246.656048 174.494661 
L 246.923637 174.594467 
L 247.192777 174.690015 
L 247.463398 174.78128 
L 247.735433 174.86824 
L 248.008814 174.950874 
L 248.283471 175.029159 
L 248.559336 175.103077 
L 248.836339 175.172608 
L 249.11441 175.237736 
L 249.39348 175.298444 
L 249.673478 175.354717 
L 249.954333 175.40654 
L 250.235975 175.4539 
L 250.518333 175.496786 
L 250.801336 175.535187 
L 251.084912 175.569092 
L 251.368991 175.598495 
L 251.653501 175.623386 
L 251.938369 175.64376 
L 252.223526 175.659612 
L 252.508897 175.670938 
L 252.794413 175.677734 
L 253.08 175.68 
L 289.08 175.68 
z
" clip-path="url(#pe6bfdb2c54)" style="fill: none; stroke: #000000; stroke-linecap: round"/>
   </g>
   <g id="line2d_1">
    <path d="M 118.08 40.68 
L 118.08 54.18 
L 118.08 58.68 
" clip-path="url(#pe6bfdb2c54)" style="fill: none; stroke: #000000; stroke-linecap: round"/>
   </g>
   <g id="patch_5">
    <path d="M 120.78 58.68 
L 118.08 67.68 
L 115.38 58.68 
z
" clip-path="url(#pe6bfdb2c54)"/>
   </g>
   <g id="line2d_2">
    <path d="M 78.48 85.68 
L 78.48 67.68 
L 157.68 67.68 
L 157.68 103.68 
L 78.48 103.68 
L 78.48 85.68 
" clip-path="url(#pe6bfdb2c54)" style="fill: none; stroke: #000000; stroke-linecap: round"/>
   </g>
   <g id="line2d_3">
    <path d="M 118.08 103.68 
L 118.08 117.18 
L 118.08 121.68 
" clip-path="url(#pe6bfdb2c54)" style="fill: none; stroke: #000000; stroke-linecap: round"/>
   </g>
   <g id="patch_6">
    <path d="M 120.78 121.68 
L 118.08 130.68 
L 115.38 121.68 
z
" clip-path="url(#pe6bfdb2c54)"/>
   </g>
   <g id="line2d_4">
    <path d="M 181.08 157.68 
L 208.08 157.68 
L 226.08 157.68 
" clip-path="url(#pe6bfdb2c54)" style="fill: none; stroke: #000000; stroke-linecap: round"/>
   </g>
   <g id="patch_7">
    <path d="M 226.08 154.98 
L 235.08 157.68 
L 226.08 160.38 
z
" clip-path="url(#pe6bfdb2c54)"/>
   </g>
   <g id="line2d_5">
    <path d="M 118.08 184.68 
L 118.08 202.68 
L 118.08 211.68 
" clip-path="url(#pe6bfdb2c54)" style="fill: none; stroke: #000000; stroke-linecap: round"/>
   </g>
   <g id="patch_8">
    <path d="M 120.78 211.68 
L 118.08 220.68 
L 115.38 211.68 
z
" clip-path="url(#pe6bfdb2c54)"/>
   </g>
   <g id="line2d_6">
    <path d="M 64.08 238.68 
L 64.08 220.68 
L 172.08 220.68 
L 172.08 256.68 
L 64.08 256.68 
L 64.08 238.68 
" clip-path="url(#pe6bfdb2c54)" style="fill: none; stroke: #000000; stroke-linecap: round"/>
   </g>
   <g id="line2d_7">
    <path d="M 118.08 256.68 
L 118.08 274.68 
L 118.08 283.68 
" clip-path="url(#pe6bfdb2c54)" style="fill: none; stroke: #000000; stroke-linecap: round"/>
   </g>
   <g id="patch_9">
    <path d="M 120.78 283.68 
L 118.08 292.68 
L 115.38 283.68 
z
" clip-path="url(#pe6bfdb2c54)"/>
   </g>
   <g id="line2d_8">
    <path d="M 58.68 310.68 
L 58.68 292.68 
L 177.48 292.68 
L 177.48 328.68 
L 58.68 328.68 
L 58.68 310.68 
" clip-path="url(#pe6bfdb2c54)" style="fill: none; stroke: #000000; stroke-linecap: round"/>
   </g>
   <g id="line2d_9">
    <path d="M 58.68 310.68 
L 4.68 310.68 
L 4.68 157.68 
L 46.08 157.68 
" clip-path="url(#pe6bfdb2c54)" style="fill: none; stroke: #000000; stroke-linecap: round"/>
   </g>
   <g id="patch_10">
    <path d="M 46.08 154.98 
L 55.08 157.68 
L 46.08 160.38 
z
" clip-path="url(#pe6bfdb2c54)"/>
   </g>
   <g id="text_1">
    <!-- START -->
    <g transform="translate(96.602031 26.593437) scale(0.14 -0.14)">
     <defs>
      <path id="IPAexGothic-53" d="M 2919 3641 
Q 2563 4259 1853 4259 
Q 1453 4259 1213 4009 
Q 1028 3803 1028 3534 
Q 1028 3238 1266 3047 
Q 1444 2913 1984 2688 
L 2200 2597 
Q 2925 2306 3191 1953 
Q 3422 1644 3422 1259 
Q 3422 644 2969 288 
Q 2559 -31 1931 -31 
Q 881 -31 313 766 
L 753 1100 
Q 1203 459 1938 459 
Q 2288 459 2534 625 
Q 2841 847 2841 1216 
Q 2841 1503 2616 1728 
Q 2375 1959 1728 2206 
L 1541 2278 
Q 453 2694 453 3481 
Q 453 4006 806 4347 
Q 1203 4725 1863 4725 
Q 2841 4725 3359 3956 
L 2919 3641 
z
" transform="scale(0.015625)"/>
      <path id="IPAexGothic-54" d="M 3866 4141 
L 2175 4141 
L 2175 63 
L 1606 63 
L 1606 4141 
L -31 4141 
L -31 4634 
L 3866 4634 
L 3866 4141 
z
" transform="scale(0.015625)"/>
      <path id="IPAexGothic-41" d="M 4056 63 
L 3444 63 
L 2938 1409 
L 1100 1409 
L 603 63 
L -6 63 
L 1806 4666 
L 2259 4666 
L 4056 63 
z
M 2778 1863 
L 2316 3078 
Q 2125 3588 2028 4000 
L 2009 4000 
Q 1897 3563 1716 3078 
L 1263 1863 
L 2778 1863 
z
" transform="scale(0.015625)"/>
      <path id="IPAexGothic-52" d="M 4072 63 
L 3394 63 
Q 3138 641 2828 1197 
Q 2584 1641 2344 1825 
Q 2050 2044 1625 2044 
L 1172 2044 
L 1172 63 
L 609 63 
L 609 4634 
L 2009 4634 
Q 2713 4634 3131 4378 
Q 3688 4044 3688 3381 
Q 3688 2784 3181 2459 
Q 2906 2272 2522 2216 
L 2522 2197 
Q 2941 2050 3247 1581 
Q 3516 1166 4072 63 
z
M 1172 2478 
L 1869 2478 
Q 3106 2478 3106 3369 
Q 3106 4181 1928 4181 
L 1172 4181 
L 1172 2478 
z
" transform="scale(0.015625)"/>
     </defs>
     <use xlink:href="#IPAexGothic-53"/>
     <use xlink:href="#IPAexGothic-54" x="58.496094"/>
     <use xlink:href="#IPAexGothic-41" x="118.408203"/>
     <use xlink:href="#IPAexGothic-52" x="182.128906"/>
     <use xlink:href="#IPAexGothic-54" x="246.923828"/>
    </g>
   </g>
   <g id="text_2">
    <!-- counter = 0 -->
    <g transform="translate(79.653281 89.593437) scale(0.14 -0.14)">
     <defs>
      <path id="IPAexGothic-63" d="M 3269 784 
Q 2834 -31 1900 -31 
Q 1228 -31 788 409 
Q 313 891 313 1663 
Q 313 2428 788 2913 
Q 1222 3347 1881 3347 
Q 2813 3347 3206 2541 
L 2763 2309 
Q 2484 2900 1900 2900 
Q 1516 2900 1234 2619 
Q 881 2266 881 1650 
Q 881 1069 1222 728 
Q 1522 428 1956 428 
Q 2547 428 2847 1016 
L 3269 784 
z
" transform="scale(0.015625)"/>
      <path id="IPAexGothic-6f" d="M 1919 3341 
Q 2594 3341 3056 2888 
Q 3531 2413 3531 1638 
Q 3531 888 3066 422 
Q 2609 -31 1919 -31 
Q 1228 -31 781 416 
Q 313 881 313 1656 
Q 313 2413 788 2888 
Q 1241 3341 1919 3341 
z
M 1919 2919 
Q 1519 2919 1241 2631 
Q 888 2278 888 1650 
Q 888 1031 1234 684 
Q 1516 403 1919 403 
Q 2331 403 2609 691 
Q 2956 1038 2956 1672 
Q 2956 2269 2603 2631 
Q 2316 2919 1919 2919 
z
" transform="scale(0.015625)"/>
      <path id="IPAexGothic-75" d="M 3284 63 
L 2772 63 
L 2772 644 
Q 2300 0 1625 0 
Q 1072 0 763 375 
Q 519 678 519 1241 
L 519 3250 
L 1069 3250 
L 1069 1259 
Q 1069 466 1734 466 
Q 2406 466 2734 1291 
L 2734 3250 
L 3284 3250 
L 3284 63 
z
" transform="scale(0.015625)"/>
      <path id="IPAexGothic-6e" d="M 3328 63 
L 2778 63 
L 2778 2041 
Q 2778 2853 2106 2853 
Q 1428 2853 1113 2041 
L 1113 63 
L 563 63 
L 563 3250 
L 1075 3250 
L 1075 2675 
Q 1525 3316 2222 3316 
Q 3328 3316 3328 2072 
L 3328 63 
z
" transform="scale(0.015625)"/>
      <path id="IPAexGothic-74" d="M 2125 241 
Q 1769 -6 1397 -6 
Q 653 -6 653 831 
L 653 2859 
L 219 2859 
L 219 3250 
L 653 3250 
L 653 3966 
L 1178 4228 
L 1178 3250 
L 2063 3250 
L 2063 2859 
L 1178 2859 
L 1178 906 
Q 1178 416 1513 416 
Q 1738 416 1941 588 
L 2125 241 
z
" transform="scale(0.015625)"/>
      <path id="IPAexGothic-65" d="M 863 1594 
Q 891 1041 1209 722 
Q 1534 397 1997 397 
Q 2606 397 2963 966 
L 3322 728 
Q 2869 -31 1931 -31 
Q 1222 -31 766 422 
Q 306 884 306 1641 
Q 306 2444 788 2925 
Q 1216 3353 1856 3353 
Q 2459 3353 2866 2956 
Q 3322 2494 3322 1722 
L 3322 1594 
L 863 1594 
z
M 2756 1997 
Q 2709 2431 2450 2681 
Q 2194 2938 1844 2938 
Q 1438 2938 1150 2591 
Q 953 2356 894 1997 
L 2756 1997 
z
" transform="scale(0.015625)"/>
      <path id="IPAexGothic-72" d="M 2309 3316 
L 2213 2769 
Q 2106 2791 2022 2791 
Q 1653 2791 1413 2444 
Q 1113 2006 1113 1675 
L 1113 63 
L 563 63 
L 563 3250 
L 1081 3250 
L 1056 2303 
L 1069 2303 
Q 1422 3341 2097 3341 
Q 2206 3341 2309 3316 
z
" transform="scale(0.015625)"/>
      <path id="IPAexGothic-20" transform="scale(0.015625)"/>
      <path id="IPAexGothic-3d" d="M 416 2803 
L 3922 2803 
L 3922 2438 
L 416 2438 
L 416 2803 
z
M 416 1625 
L 3922 1625 
L 3922 1259 
L 416 1259 
L 416 1625 
z
" transform="scale(0.015625)"/>
      <path id="IPAexGothic-30" d="M 2038 4725 
Q 2881 4725 3334 3944 
Q 3694 3325 3694 2344 
Q 3694 1372 3334 741 
Q 2888 -31 2016 -31 
Q 1147 -31 700 741 
Q 341 1372 341 2350 
Q 341 3713 1000 4334 
Q 1419 4725 2038 4725 
z
M 2016 4266 
Q 1516 4266 1228 3759 
Q 934 3247 934 2344 
Q 934 1456 1222 947 
Q 1513 447 2016 447 
Q 2619 447 2909 1153 
Q 3100 1622 3100 2375 
Q 3100 3256 2806 3759 
Q 2509 4266 2016 4266 
z
" transform="scale(0.015625)"/>
     </defs>
     <use xlink:href="#IPAexGothic-63"/>
     <use xlink:href="#IPAexGothic-6f" x="54.394531"/>
     <use xlink:href="#IPAexGothic-75" x="114.794922"/>
     <use xlink:href="#IPAexGothic-6e" x="175.195312"/>
     <use xlink:href="#IPAexGothic-74" x="235.595703"/>
     <use xlink:href="#IPAexGothic-65" x="270.214844"/>
     <use xlink:href="#IPAexGothic-72" x="327.099609"/>
     <use xlink:href="#IPAexGothic-20" x="364.111328"/>
     <use xlink:href="#IPAexGothic-3d" x="391.113281"/>
     <use xlink:href="#IPAexGothic-20" x="458.935547"/>
     <use xlink:href="#IPAexGothic-30" x="485.9375"/>
    </g>
   </g>
   <g id="text_3">
    <!-- True -->
    <g transform="translate(122.76 199.846875) scale(0.14 -0.14)">
     <use xlink:href="#IPAexGothic-54"/>
     <use xlink:href="#IPAexGothic-72" x="59.912109"/>
     <use xlink:href="#IPAexGothic-75" x="96.923828"/>
     <use xlink:href="#IPAexGothic-65" x="157.324219"/>
    </g>
   </g>
   <g id="text_4">
    <!-- False -->
    <g transform="translate(185.76 150.34) scale(0.14 -0.14)">
     <defs>
      <path id="IPAexGothic-46" d="M 3469 4141 
L 1172 4141 
L 1172 2656 
L 3206 2656 
L 3206 2188 
L 1172 2188 
L 1172 63 
L 609 63 
L 609 4634 
L 3469 4634 
L 3469 4141 
z
" transform="scale(0.015625)"/>
      <path id="IPAexGothic-61" d="M 3156 63 
L 2672 63 
Q 2559 303 2531 556 
L 2509 556 
Q 2147 -25 1428 -25 
Q 934 -25 622 288 
Q 347 563 347 959 
Q 347 1947 2050 1997 
L 2478 2009 
L 2478 2175 
Q 2478 2509 2288 2700 
Q 2088 2900 1775 2900 
Q 1238 2900 969 2378 
L 494 2597 
Q 938 3328 1788 3328 
Q 2375 3328 2691 3000 
Q 2984 2706 2984 2169 
L 2984 997 
Q 2984 400 3156 63 
z
M 2491 1625 
L 2141 1619 
Q 903 1591 903 953 
Q 903 728 1050 581 
Q 1231 403 1525 403 
Q 1934 403 2234 703 
Q 2491 969 2491 1344 
L 2491 1625 
z
" transform="scale(0.015625)"/>
      <path id="IPAexGothic-6c" d="M 1131 63 
L 581 63 
L 581 4794 
L 1131 4794 
L 1131 63 
z
" transform="scale(0.015625)"/>
      <path id="IPAexGothic-73" d="M 2234 2547 
Q 1938 2931 1484 2931 
Q 891 2931 891 2475 
Q 891 2153 1531 1944 
L 1741 1875 
Q 2650 1578 2650 894 
Q 2650 434 2272 172 
Q 1972 -31 1497 -31 
Q 766 -31 256 503 
L 603 819 
Q 997 397 1516 397 
Q 2131 397 2131 875 
Q 2131 1238 1453 1478 
L 1234 1553 
Q 378 1853 378 2431 
Q 378 2797 628 3047 
Q 928 3347 1453 3347 
Q 2156 3347 2606 2859 
L 2234 2547 
z
" transform="scale(0.015625)"/>
     </defs>
     <use xlink:href="#IPAexGothic-46"/>
     <use xlink:href="#IPAexGothic-61" x="57.177734"/>
     <use xlink:href="#IPAexGothic-6c" x="112.158203"/>
     <use xlink:href="#IPAexGothic-73" x="139.160156"/>
     <use xlink:href="#IPAexGothic-65" x="185.351562"/>
    </g>
   </g>
   <g id="text_5">
    <!-- counter &lt; 3 ？ -->
    <g transform="translate(70.763281 161.593437) scale(0.14 -0.14)">
     <defs>
      <path id="IPAexGothic-3c" d="M 897 2028 
L 3928 609 
L 3769 263 
L 409 1881 
L 409 2175 
L 3769 3794 
L 3928 3450 
L 897 2028 
z
" transform="scale(0.015625)"/>
      <path id="IPAexGothic-33" d="M 2381 2419 
Q 3506 2216 3506 1278 
Q 3506 716 3128 356 
Q 2709 -31 1944 -31 
Q 797 -31 288 881 
L 756 1131 
Q 1109 441 1938 441 
Q 2425 441 2694 691 
Q 2950 928 2950 1291 
Q 2950 1719 2566 1978 
Q 2216 2213 1644 2213 
L 1363 2213 
L 1363 2669 
L 1656 2669 
Q 2231 2669 2534 2888 
Q 2859 3119 2859 3509 
Q 2859 3934 2494 4138 
Q 2259 4278 1931 4278 
Q 1238 4278 903 3578 
L 434 3803 
Q 897 4725 1938 4725 
Q 2597 4725 3006 4394 
Q 3416 4069 3416 3534 
Q 3416 3028 3019 2706 
Q 2763 2500 2381 2444 
L 2381 2419 
z
" transform="scale(0.015625)"/>
      <path id="IPAexGothic-ff1f" d="M 1503 3444 
Q 1550 4184 1963 4616 
Q 2466 5128 3272 5128 
Q 3888 5128 4313 4853 
Q 4909 4469 4909 3778 
Q 4909 3059 4116 2563 
Q 3628 2250 3506 1881 
Q 3422 1650 3422 1228 
L 2853 1228 
Q 2863 1869 3053 2197 
Q 3281 2588 3847 2950 
Q 4341 3269 4341 3778 
Q 4341 4231 3975 4463 
Q 3697 4634 3266 4634 
Q 2656 4634 2341 4225 
Q 2109 3928 2091 3444 
L 1503 3444 
z
M 2763 647 
L 3506 647 
L 3506 -97 
L 2763 -97 
L 2763 647 
z
" transform="scale(0.015625)"/>
     </defs>
     <use xlink:href="#IPAexGothic-63"/>
     <use xlink:href="#IPAexGothic-6f" x="54.394531"/>
     <use xlink:href="#IPAexGothic-75" x="114.794922"/>
     <use xlink:href="#IPAexGothic-6e" x="175.195312"/>
     <use xlink:href="#IPAexGothic-74" x="235.595703"/>
     <use xlink:href="#IPAexGothic-65" x="270.214844"/>
     <use xlink:href="#IPAexGothic-72" x="327.099609"/>
     <use xlink:href="#IPAexGothic-20" x="364.111328"/>
     <use xlink:href="#IPAexGothic-3c" x="391.113281"/>
     <use xlink:href="#IPAexGothic-20" x="458.935547"/>
     <use xlink:href="#IPAexGothic-33" x="485.9375"/>
     <use xlink:href="#IPAexGothic-20" x="548.925781"/>
     <use xlink:href="#IPAexGothic-ff1f" x="575.927734"/>
    </g>
   </g>
   <g id="text_6">
    <!-- END -->
    <g transform="translate(256.296875 161.593437) scale(0.14 -0.14)">
     <defs>
      <path id="IPAexGothic-45" d="M 3547 63 
L 609 63 
L 609 4634 
L 3469 4634 
L 3469 4147 
L 1166 4147 
L 1166 2650 
L 3206 2650 
L 3206 2191 
L 1166 2191 
L 1166 556 
L 3547 556 
L 3547 63 
z
" transform="scale(0.015625)"/>
      <path id="IPAexGothic-4e" d="M 4244 63 
L 3731 63 
L 1697 3150 
Q 1466 3500 1141 4097 
L 1116 4097 
L 1128 3797 
Q 1159 2803 1159 2469 
L 1159 63 
L 609 63 
L 609 4634 
L 1366 4634 
L 3113 1978 
Q 3453 1447 3713 966 
L 3738 966 
Q 3694 1897 3694 2469 
L 3694 4634 
L 4244 4634 
L 4244 63 
z
" transform="scale(0.015625)"/>
      <path id="IPAexGothic-44" d="M 609 4634 
L 1984 4634 
Q 3159 4634 3791 4050 
Q 4456 3444 4456 2356 
Q 4456 1047 3516 441 
Q 2925 63 1941 63 
L 609 63 
L 609 4634 
z
M 1172 556 
L 1894 556 
Q 3853 556 3853 2356 
Q 3853 4147 1928 4147 
L 1172 4147 
L 1172 556 
z
" transform="scale(0.015625)"/>
     </defs>
     <use xlink:href="#IPAexGothic-45"/>
     <use xlink:href="#IPAexGothic-4e" x="59.521484"/>
     <use xlink:href="#IPAexGothic-44" x="135.498047"/>
    </g>
   </g>
   <g id="text_7">
    <!-- counter += 1 -->
    <g transform="translate(74.905312 242.593437) scale(0.14 -0.14)">
     <defs>
      <path id="IPAexGothic-2b" d="M 2369 1856 
L 2369 219 
L 1984 219 
L 1984 1856 
L 416 1856 
L 416 2216 
L 1984 2216 
L 1984 3725 
L 2369 3725 
L 2369 2216 
L 3922 2216 
L 3922 1856 
L 2369 1856 
z
" transform="scale(0.015625)"/>
      <path id="IPAexGothic-31" d="M 2463 63 
L 1900 63 
L 1900 4103 
Q 1372 3922 788 3797 
L 684 4231 
Q 1519 4441 2106 4731 
L 2463 4731 
L 2463 63 
z
" transform="scale(0.015625)"/>
     </defs>
     <use xlink:href="#IPAexGothic-63"/>
     <use xlink:href="#IPAexGothic-6f" x="54.394531"/>
     <use xlink:href="#IPAexGothic-75" x="114.794922"/>
     <use xlink:href="#IPAexGothic-6e" x="175.195312"/>
     <use xlink:href="#IPAexGothic-74" x="235.595703"/>
     <use xlink:href="#IPAexGothic-65" x="270.214844"/>
     <use xlink:href="#IPAexGothic-72" x="327.099609"/>
     <use xlink:href="#IPAexGothic-20" x="364.111328"/>
     <use xlink:href="#IPAexGothic-2b" x="391.113281"/>
     <use xlink:href="#IPAexGothic-3d" x="458.935547"/>
     <use xlink:href="#IPAexGothic-20" x="526.757812"/>
     <use xlink:href="#IPAexGothic-31" x="553.759766"/>
    </g>
   </g>
   <g id="text_8">
    <!-- print(counter) -->
    <g transform="translate(72.447656 314.719219) scale(0.14 -0.14)">
     <defs>
      <path id="IPAexGothic-70" d="M 1075 2688 
Q 1525 3341 2206 3341 
Q 2769 3341 3172 2938 
Q 3641 2469 3641 1644 
Q 3641 841 3178 372 
Q 2775 -31 2200 -31 
Q 1569 -31 1106 497 
L 1106 -1216 
L 563 -1216 
L 563 3250 
L 1075 3250 
L 1075 2688 
z
M 1106 1950 
L 1106 1291 
Q 1106 897 1516 600 
Q 1791 403 2106 403 
Q 2469 403 2725 659 
Q 3066 997 3066 1631 
Q 3066 2200 2784 2559 
Q 2503 2900 2100 2900 
Q 1656 2900 1338 2484 
Q 1106 2184 1106 1950 
z
" transform="scale(0.015625)"/>
      <path id="IPAexGothic-69" d="M 1178 3928 
L 550 3928 
L 550 4569 
L 1178 4569 
L 1178 3928 
z
M 1138 63 
L 588 63 
L 588 3250 
L 1138 3250 
L 1138 63 
z
" transform="scale(0.015625)"/>
      <path id="IPAexGothic-28" d="M 1928 -1016 
L 1653 -1166 
Q 488 69 488 1875 
Q 488 3678 1653 4909 
L 1928 4763 
Q 1006 3522 1006 1881 
Q 1006 203 1928 -1016 
z
" transform="scale(0.015625)"/>
      <path id="IPAexGothic-29" d="M 466 4909 
Q 1638 3672 1638 1875 
Q 1638 75 466 -1166 
L 191 -1016 
Q 1119 216 1119 1881 
Q 1119 3509 191 4763 
L 466 4909 
z
" transform="scale(0.015625)"/>
     </defs>
     <use xlink:href="#IPAexGothic-70"/>
     <use xlink:href="#IPAexGothic-72" x="62.109375"/>
     <use xlink:href="#IPAexGothic-69" x="99.121094"/>
     <use xlink:href="#IPAexGothic-6e" x="126.123047"/>
     <use xlink:href="#IPAexGothic-74" x="186.523438"/>
     <use xlink:href="#IPAexGothic-28" x="221.142578"/>
     <use xlink:href="#IPAexGothic-63" x="254.443359"/>
     <use xlink:href="#IPAexGothic-6f" x="308.837891"/>
     <use xlink:href="#IPAexGothic-75" x="369.238281"/>
     <use xlink:href="#IPAexGothic-6e" x="429.638672"/>
     <use xlink:href="#IPAexGothic-74" x="490.039062"/>
     <use xlink:href="#IPAexGothic-65" x="524.658203"/>
     <use xlink:href="#IPAexGothic-72" x="581.542969"/>
     <use xlink:href="#IPAexGothic-29" x="618.554688"/>
    </g>
   </g>
  </g>
 </g>
 <defs>
  <clipPath id="pe6bfdb2c54">
   <rect x="0" y="-0" width="311.76" height="333.36"/>
  </clipPath>
 </defs>
</svg>