<?xml version="1.0" encoding="utf-8" standalone="no"?>
<!DOCTYPE svg PUBLIC "-//W3C//DTD SVG 1.1//EN"
  "http://www.w3.org/Graphics/SVG/1.1/DTD/svg11.dtd">
<svg xmlns:xlink="http://www.w3.org/1999/xlink" width="399.24pt" height="242.82pt" viewBox="0 0 399.24 242.82" xmlns="http://www.w3.org/2000/svg" version="1.1">
 <metadata>
  <rdf:RDF xmlns:dc="http://purl.org/dc/elements/1.1/" xmlns:cc="http://creativecommons.org/ns#" xmlns:rdf="http://www.w3.org/1999/02/22-rdf-syntax-ns#">
   <cc:Work>
    <dc:type rdf:resource="http://purl.org/dc/dcmitype/StillImage"/>
    <dc:date>2024-03-07T23:59:30.599972</dc:date>
    <dc:format>image/svg+xml</dc:format>
    <dc:creator>
     <cc:Agent>
      <dc:title>Matplotlib v3.8.3, https://matplotlib.org/</dc:title>
     </cc:Agent>
    </dc:creator>
   </cc:Work>
  </rdf:RDF>
 </metadata>
 <defs>
  <style type="text/css">*{stroke-linejoin: round; stroke-linecap: butt}</style>
 </defs>
 <g id="figure_1">
  <g id="patch_1">
   <path d="M 0 242.82 
L 399.24 242.82 
L 399.24 -0 
L 0 -0 
z
" style="fill: #ffffff"/>
  </g>
  <g id="axes_1">
   <g id="patch_2">
    <path d="M 151.02 50.31 
L 151.305587 50.307734 
L 151.591103 50.300938 
L 151.876474 50.289612 
L 152.161631 50.27376 
L 152.446499 50.253386 
L 152.731009 50.228495 
L 153.015088 50.199092 
L 153.298664 50.165187 
L 153.581667 50.126786 
L 153.864025 50.0839 
L 154.145667 50.03654 
L 154.426522 49.984717 
L 154.70652 49.928444 
L 154.98559 49.867736 
L 155.263661 49.802608 
L 155.540664 49.733077 
L 155.816529 49.659159 
L 156.091186 49.580874 
L 156.364567 49.49824 
L 156.636602 49.41128 
L 156.907223 49.320015 
L 157.176363 49.224467 
L 157.443952 49.124661 
L 157.709924 49.020623 
L 157.974212 48.912377 
L 158.23675 48.799952 
L 158.49747 48.683376 
L 158.756308 48.562678 
L 159.013199 48.437888 
L 159.268077 48.309038 
L 159.520879 48.176161 
L 159.771541 48.039289 
L 160.02 47.898457 
L 160.266193 47.753701 
L 160.510058 47.605058 
L 160.751535 47.452564 
L 160.990561 47.296257 
L 161.227078 47.136178 
L 161.461024 46.972367 
L 161.692343 46.804865 
L 161.920974 46.633713 
L 162.146862 46.458956 
L 162.369948 46.280636 
L 162.590177 46.0988 
L 162.807493 45.913492 
L 163.021842 45.72476 
L 163.233169 45.532651 
L 163.441422 45.337213 
L 163.646548 45.138495 
L 163.848495 44.936548 
L 164.047213 44.731422 
L 164.242651 44.523169 
L 164.43476 44.311842 
L 164.623492 44.097493 
L 164.8088 43.880177 
L 164.990636 43.659948 
L 165.168956 43.436862 
L 165.343713 43.210974 
L 165.514865 42.982343 
L 165.682367 42.751024 
L 165.846178 42.517078 
L 166.006257 42.280561 
L 166.162564 42.041535 
L 166.315058 41.800058 
L 166.463701 41.556193 
L 166.608457 41.31 
L 166.749289 41.061541 
L 166.886161 40.810879 
L 167.019038 40.558077 
L 167.147888 40.303199 
L 167.272678 40.046308 
L 167.393376 39.78747 
L 167.509952 39.52675 
L 167.622377 39.264212 
L 167.730623 38.999924 
L 167.834661 38.733952 
L 167.934467 38.466363 
L 168.030015 38.197223 
L 168.12128 37.926602 
L 168.20824 37.654567 
L 168.290874 37.381186 
L 168.369159 37.106529 
L 168.443077 36.830664 
L 168.512608 36.553661 
L 168.577736 36.27559 
L 168.638444 35.99652 
L 168.694717 35.716522 
L 168.74654 35.435667 
L 168.7939 35.154025 
L 168.836786 34.871667 
L 168.875187 34.588664 
L 168.909092 34.305088 
L 168.938495 34.021009 
L 168.963386 33.736499 
L 168.98376 33.451631 
L 168.999612 33.166474 
L 169.010938 32.881103 
L 169.017734 32.595587 
L 169.02 32.31 
L 169.02 32.31 
L 169.017734 32.024413 
L 169.010938 31.738897 
L 168.999612 31.453526 
L 168.98376 31.168369 
L 168.963386 30.883501 
L 168.938495 30.598991 
L 168.909092 30.314912 
L 168.875187 30.031336 
L 168.836786 29.748333 
L 168.7939 29.465975 
L 168.74654 29.184333 
L 168.694717 28.903478 
L 168.638444 28.62348 
L 168.577736 28.34441 
L 168.512608 28.066339 
L 168.443077 27.789336 
L 168.369159 27.513471 
L 168.290874 27.238814 
L 168.20824 26.965433 
L 168.12128 26.693398 
L 168.030015 26.422777 
L 167.934467 26.153637 
L 167.834661 25.886048 
L 167.730623 25.620076 
L 167.622377 25.355788 
L 167.509952 25.09325 
L 167.393376 24.83253 
L 167.272678 24.573692 
L 167.147888 24.316801 
L 167.019038 24.061923 
L 166.886161 23.809121 
L 166.749289 23.558459 
L 166.608457 23.31 
L 166.463701 23.063807 
L 166.315058 22.819942 
L 166.162564 22.578465 
L 166.006257 22.339439 
L 165.846178 22.102922 
L 165.682367 21.868976 
L 165.514865 21.637657 
L 165.343713 21.409026 
L 165.168956 21.183138 
L 164.990636 20.960052 
L 164.8088 20.739823 
L 164.623492 20.522507 
L 164.43476 20.308158 
L 164.242651 20.096831 
L 164.047213 19.888578 
L 163.848495 19.683452 
L 163.646548 19.481505 
L 163.441422 19.282787 
L 163.233169 19.087349 
L 163.021842 18.89524 
L 162.807493 18.706508 
L 162.590177 18.5212 
L 162.369948 18.339364 
L 162.146862 18.161044 
L 161.920974 17.986287 
L 161.692343 17.815135 
L 161.461024 17.647633 
L 161.227078 17.483822 
L 160.990561 17.323743 
L 160.751535 17.167436 
L 160.510058 17.014942 
L 160.266193 16.866299 
L 160.02 16.721543 
L 159.771541 16.580711 
L 159.520879 16.443839 
L 159.268077 16.310962 
L 159.013199 16.182112 
L 158.756308 16.057322 
L 158.49747 15.936624 
L 158.23675 15.820048 
L 157.974212 15.707623 
L 157.709924 15.599377 
L 157.443952 15.495339 
L 157.176363 15.395533 
L 156.907223 15.299985 
L 156.636602 15.20872 
L 156.364567 15.12176 
L 156.091186 15.039126 
L 155.816529 14.960841 
L 155.540664 14.886923 
L 155.263661 14.817392 
L 154.98559 14.752264 
L 154.70652 14.691556 
L 154.426522 14.635283 
L 154.145667 14.58346 
L 153.864025 14.5361 
L 153.581667 14.493214 
L 153.298664 14.454813 
L 153.015088 14.420908 
L 152.731009 14.391505 
L 152.446499 14.366614 
L 152.161631 14.34624 
L 151.876474 14.330388 
L 151.591103 14.319062 
L 151.305587 14.312266 
L 151.02 14.31 
L 115.02 14.31 
L 114.734413 14.312266 
L 114.448897 14.319062 
L 114.163526 14.330388 
L 113.878369 14.34624 
L 113.593501 14.366614 
L 113.308991 14.391505 
L 113.024912 14.420908 
L 112.741336 14.454813 
L 112.458333 14.493214 
L 112.175975 14.5361 
L 111.894333 14.58346 
L 111.613478 14.635283 
L 111.33348 14.691556 
L 111.05441 14.752264 
L 110.776339 14.817392 
L 110.499336 14.886923 
L 110.223471 14.960841 
L 109.948814 15.039126 
L 109.675433 15.12176 
L 109.403398 15.20872 
L 109.132777 15.299985 
L 108.863637 15.395533 
L 108.596048 15.495339 
L 108.330076 15.599377 
L 108.065788 15.707623 
L 107.80325 15.820048 
L 107.54253 15.936624 
L 107.283692 16.057322 
L 107.026801 16.182112 
L 106.771923 16.310962 
L 106.519121 16.443839 
L 106.268459 16.580711 
L 106.02 16.721543 
L 105.773807 16.866299 
L 105.529942 17.014942 
L 105.288465 17.167436 
L 105.049439 17.323743 
L 104.812922 17.483822 
L 104.578976 17.647633 
L 104.347657 17.815135 
L 104.119026 17.986287 
L 103.893138 18.161044 
L 103.670052 18.339364 
L 103.449823 18.5212 
L 103.232507 18.706508 
L 103.018158 18.89524 
L 102.806831 19.087349 
L 102.598578 19.282787 
L 102.393452 19.481505 
L 102.191505 19.683452 
L 101.992787 19.888578 
L 101.797349 20.096831 
L 101.60524 20.308158 
L 101.416508 20.522507 
L 101.2312 20.739823 
L 101.049364 20.960052 
L 100.871044 21.183138 
L 100.696287 21.409026 
L 100.525135 21.637657 
L 100.357633 21.868976 
L 100.193822 22.102922 
L 100.033743 22.339439 
L 99.877436 22.578465 
L 99.724942 22.819942 
L 99.576299 23.063807 
L 99.431543 23.31 
L 99.290711 23.558459 
L 99.153839 23.809121 
L 99.020962 24.061923 
L 98.892112 24.316801 
L 98.767322 24.573692 
L 98.646624 24.83253 
L 98.530048 25.09325 
L 98.417623 25.355788 
L 98.309377 25.620076 
L 98.205339 25.886048 
L 98.105533 26.153637 
L 98.009985 26.422777 
L 97.91872 26.693398 
L 97.83176 26.965433 
L 97.749126 27.238814 
L 97.670841 27.513471 
L 97.596923 27.789336 
L 97.527392 28.066339 
L 97.462264 28.34441 
L 97.401556 28.62348 
L 97.345283 28.903478 
L 97.29346 29.184333 
L 97.2461 29.465975 
L 97.203214 29.748333 
L 97.164813 30.031336 
L 97.130908 30.314912 
L 97.101505 30.598991 
L 97.076614 30.883501 
L 97.05624 31.168369 
L 97.040388 31.453526 
L 97.029062 31.738897 
L 97.022266 32.024413 
L 97.02 32.31 
L 97.02 32.31 
L 97.022266 32.595587 
L 97.029062 32.881103 
L 97.040388 33.166474 
L 97.05624 33.451631 
L 97.076614 33.736499 
L 97.101505 34.021009 
L 97.130908 34.305088 
L 97.164813 34.588664 
L 97.203214 34.871667 
L 97.2461 35.154025 
L 97.29346 35.435667 
L 97.345283 35.716522 
L 97.401556 35.99652 
L 97.462264 36.27559 
L 97.527392 36.553661 
L 97.596923 36.830664 
L 97.670841 37.106529 
L 97.749126 37.381186 
L 97.83176 37.654567 
L 97.91872 37.926602 
L 98.009985 38.197223 
L 98.105533 38.466363 
L 98.205339 38.733952 
L 98.309377 38.999924 
L 98.417623 39.264212 
L 98.530048 39.52675 
L 98.646624 39.78747 
L 98.767322 40.046308 
L 98.892112 40.303199 
L 99.020962 40.558077 
L 99.153839 40.810879 
L 99.290711 41.061541 
L 99.431543 41.31 
L 99.576299 41.556193 
L 99.724942 41.800058 
L 99.877436 42.041535 
L 100.033743 42.280561 
L 100.193822 42.517078 
L 100.357633 42.751024 
L 100.525135 42.982343 
L 100.696287 43.210974 
L 100.871044 43.436862 
L 101.049364 43.659948 
L 101.2312 43.880177 
L 101.416508 44.097493 
L 101.60524 44.311842 
L 101.797349 44.523169 
L 101.992787 44.731422 
L 102.191505 44.936548 
L 102.393452 45.138495 
L 102.598578 45.337213 
L 102.806831 45.532651 
L 103.018158 45.72476 
L 103.232507 45.913492 
L 103.449823 46.0988 
L 103.670052 46.280636 
L 103.893138 46.458956 
L 104.119026 46.633713 
L 104.347657 46.804865 
L 104.578976 46.972367 
L 104.812922 47.136178 
L 105.049439 47.296257 
L 105.288465 47.452564 
L 105.529942 47.605058 
L 105.773807 47.753701 
L 106.02 47.898457 
L 106.268459 48.039289 
L 106.519121 48.176161 
L 106.771923 48.309038 
L 107.026801 48.437888 
L 107.283692 48.562678 
L 107.54253 48.683376 
L 107.80325 48.799952 
L 108.065788 48.912377 
L 108.330076 49.020623 
L 108.596048 49.124661 
L 108.863637 49.224467 
L 109.132777 49.320015 
L 109.403398 49.41128 
L 109.675433 49.49824 
L 109.948814 49.580874 
L 110.223471 49.659159 
L 110.499336 49.733077 
L 110.776339 49.802608 
L 111.05441 49.867736 
L 111.33348 49.928444 
L 111.613478 49.984717 
L 111.894333 50.03654 
L 112.175975 50.0839 
L 112.458333 50.126786 
L 112.741336 50.165187 
L 113.024912 50.199092 
L 113.308991 50.228495 
L 113.593501 50.253386 
L 113.878369 50.27376 
L 114.163526 50.289612 
L 114.448897 50.300938 
L 114.734413 50.307734 
L 115.02 50.31 
L 151.02 50.31 
z
" clip-path="url(#pa32761a90b)" style="fill: none; stroke: #000000; stroke-linecap: round"/>
   </g>
   <g id="patch_3">
    <path d="M 57.42 107.91 
L 133.02 77.31 
L 208.62 107.91 
L 133.02 138.51 
L 57.42 107.91 
z
" clip-path="url(#pa32761a90b)" style="fill: none; stroke: #000000; stroke-linecap: round"/>
   </g>
   <g id="patch_4">
    <path d="M 338.22 188.91 
L 338.505587 188.907734 
L 338.791103 188.900938 
L 339.076474 188.889612 
L 339.361631 188.87376 
L 339.646499 188.853386 
L 339.931009 188.828495 
L 340.215088 188.799092 
L 340.498664 188.765187 
L 340.781667 188.726786 
L 341.064025 188.6839 
L 341.345667 188.63654 
L 341.626522 188.584717 
L 341.90652 188.528444 
L 342.18559 188.467736 
L 342.463661 188.402608 
L 342.740664 188.333077 
L 343.016529 188.259159 
L 343.291186 188.180874 
L 343.564567 188.09824 
L 343.836602 188.01128 
L 344.107223 187.920015 
L 344.376363 187.824467 
L 344.643952 187.724661 
L 344.909924 187.620623 
L 345.174212 187.512377 
L 345.43675 187.399952 
L 345.69747 187.283376 
L 345.956308 187.162678 
L 346.213199 187.037888 
L 346.468077 186.909038 
L 346.720879 186.776161 
L 346.971541 186.639289 
L 347.22 186.498457 
L 347.466193 186.353701 
L 347.710058 186.205058 
L 347.951535 186.052564 
L 348.190561 185.896257 
L 348.427078 185.736178 
L 348.661024 185.572367 
L 348.892343 185.404865 
L 349.120974 185.233713 
L 349.346862 185.058956 
L 349.569948 184.880636 
L 349.790177 184.6988 
L 350.007493 184.513492 
L 350.221842 184.32476 
L 350.433169 184.132651 
L 350.641422 183.937213 
L 350.846548 183.738495 
L 351.048495 183.536548 
L 351.247213 183.331422 
L 351.442651 183.123169 
L 351.63476 182.911842 
L 351.823492 182.697493 
L 352.0088 182.480177 
L 352.190636 182.259948 
L 352.368956 182.036862 
L 352.543713 181.810974 
L 352.714865 181.582343 
L 352.882367 181.351024 
L 353.046178 181.117078 
L 353.206257 180.880561 
L 353.362564 180.641535 
L 353.515058 180.400058 
L 353.663701 180.156193 
L 353.808457 179.91 
L 353.949289 179.661541 
L 354.086161 179.410879 
L 354.219038 179.158077 
L 354.347888 178.903199 
L 354.472678 178.646308 
L 354.593376 178.38747 
L 354.709952 178.12675 
L 354.822377 177.864212 
L 354.930623 177.599924 
L 355.034661 177.333952 
L 355.134467 177.066363 
L 355.230015 176.797223 
L 355.32128 176.526602 
L 355.40824 176.254567 
L 355.490874 175.981186 
L 355.569159 175.706529 
L 355.643077 175.430664 
L 355.712608 175.153661 
L 355.777736 174.87559 
L 355.838444 174.59652 
L 355.894717 174.316522 
L 355.94654 174.035667 
L 355.9939 173.754025 
L 356.036786 173.471667 
L 356.075187 173.188664 
L 356.109092 172.905088 
L 356.138495 172.621009 
L 356.163386 172.336499 
L 356.18376 172.051631 
L 356.199612 171.766474 
L 356.210938 171.481103 
L 356.217734 171.195587 
L 356.22 170.91 
L 356.22 170.91 
L 356.217734 170.624413 
L 356.210938 170.338897 
L 356.199612 170.053526 
L 356.18376 169.768369 
L 356.163386 169.483501 
L 356.138495 169.198991 
L 356.109092 168.914912 
L 356.075187 168.631336 
L 356.036786 168.348333 
L 355.9939 168.065975 
L 355.94654 167.784333 
L 355.894717 167.503478 
L 355.838444 167.22348 
L 355.777736 166.94441 
L 355.712608 166.666339 
L 355.643077 166.389336 
L 355.569159 166.113471 
L 355.490874 165.838814 
L 355.40824 165.565433 
L 355.32128 165.293398 
L 355.230015 165.022777 
L 355.134467 164.753637 
L 355.034661 164.486048 
L 354.930623 164.220076 
L 354.822377 163.955788 
L 354.709952 163.69325 
L 354.593376 163.43253 
L 354.472678 163.173692 
L 354.347888 162.916801 
L 354.219038 162.661923 
L 354.086161 162.409121 
L 353.949289 162.158459 
L 353.808457 161.91 
L 353.663701 161.663807 
L 353.515058 161.419942 
L 353.362564 161.178465 
L 353.206257 160.939439 
L 353.046178 160.702922 
L 352.882367 160.468976 
L 352.714865 160.237657 
L 352.543713 160.009026 
L 352.368956 159.783138 
L 352.190636 159.560052 
L 352.0088 159.339823 
L 351.823492 159.122507 
L 351.63476 158.908158 
L 351.442651 158.696831 
L 351.247213 158.488578 
L 351.048495 158.283452 
L 350.846548 158.081505 
L 350.641422 157.882787 
L 350.433169 157.687349 
L 350.221842 157.49524 
L 350.007493 157.306508 
L 349.790177 157.1212 
L 349.569948 156.939364 
L 349.346862 156.761044 
L 349.120974 156.586287 
L 348.892343 156.415135 
L 348.661024 156.247633 
L 348.427078 156.083822 
L 348.190561 155.923743 
L 347.951535 155.767436 
L 347.710058 155.614942 
L 347.466193 155.466299 
L 347.22 155.321543 
L 346.971541 155.180711 
L 346.720879 155.043839 
L 346.468077 154.910962 
L 346.213199 154.782112 
L 345.956308 154.657322 
L 345.69747 154.536624 
L 345.43675 154.420048 
L 345.174212 154.307623 
L 344.909924 154.199377 
L 344.643952 154.095339 
L 344.376363 153.995533 
L 344.107223 153.899985 
L 343.836602 153.80872 
L 343.564567 153.72176 
L 343.291186 153.639126 
L 343.016529 153.560841 
L 342.740664 153.486923 
L 342.463661 153.417392 
L 342.18559 153.352264 
L 341.90652 153.291556 
L 341.626522 153.235283 
L 341.345667 153.18346 
L 341.064025 153.1361 
L 340.781667 153.093214 
L 340.498664 153.054813 
L 340.215088 153.020908 
L 339.931009 152.991505 
L 339.646499 152.966614 
L 339.361631 152.94624 
L 339.076474 152.930388 
L 338.791103 152.919062 
L 338.505587 152.912266 
L 338.22 152.91 
L 302.22 152.91 
L 301.934413 152.912266 
L 301.648897 152.919062 
L 301.363526 152.930388 
L 301.078369 152.94624 
L 300.793501 152.966614 
L 300.508991 152.991505 
L 300.224912 153.020908 
L 299.941336 153.054813 
L 299.658333 153.093214 
L 299.375975 153.1361 
L 299.094333 153.18346 
L 298.813478 153.235283 
L 298.53348 153.291556 
L 298.25441 153.352264 
L 297.976339 153.417392 
L 297.699336 153.486923 
L 297.423471 153.560841 
L 297.148814 153.639126 
L 296.875433 153.72176 
L 296.603398 153.80872 
L 296.332777 153.899985 
L 296.063637 153.995533 
L 295.796048 154.095339 
L 295.530076 154.199377 
L 295.265788 154.307623 
L 295.00325 154.420048 
L 294.74253 154.536624 
L 294.483692 154.657322 
L 294.226801 154.782112 
L 293.971923 154.910962 
L 293.719121 155.043839 
L 293.468459 155.180711 
L 293.22 155.321543 
L 292.973807 155.466299 
L 292.729942 155.614942 
L 292.488465 155.767436 
L 292.249439 155.923743 
L 292.012922 156.083822 
L 291.778976 156.247633 
L 291.547657 156.415135 
L 291.319026 156.586287 
L 291.093138 156.761044 
L 290.870052 156.939364 
L 290.649823 157.1212 
L 290.432507 157.306508 
L 290.218158 157.49524 
L 290.006831 157.687349 
L 289.798578 157.882787 
L 289.593452 158.081505 
L 289.391505 158.283452 
L 289.192787 158.488578 
L 288.997349 158.696831 
L 288.80524 158.908158 
L 288.616508 159.122507 
L 288.4312 159.339823 
L 288.249364 159.560052 
L 288.071044 159.783138 
L 287.896287 160.009026 
L 287.725135 160.237657 
L 287.557633 160.468976 
L 287.393822 160.702922 
L 287.233743 160.939439 
L 287.077436 161.178465 
L 286.924942 161.419942 
L 286.776299 161.663807 
L 286.631543 161.91 
L 286.490711 162.158459 
L 286.353839 162.409121 
L 286.220962 162.661923 
L 286.092112 162.916801 
L 285.967322 163.173692 
L 285.846624 163.43253 
L 285.730048 163.69325 
L 285.617623 163.955788 
L 285.509377 164.220076 
L 285.405339 164.486048 
L 285.305533 164.753637 
L 285.209985 165.022777 
L 285.11872 165.293398 
L 285.03176 165.565433 
L 284.949126 165.838814 
L 284.870841 166.113471 
L 284.796923 166.389336 
L 284.727392 166.666339 
L 284.662264 166.94441 
L 284.601556 167.22348 
L 284.545283 167.503478 
L 284.49346 167.784333 
L 284.4461 168.065975 
L 284.403214 168.348333 
L 284.364813 168.631336 
L 284.330908 168.914912 
L 284.301505 169.198991 
L 284.276614 169.483501 
L 284.25624 169.768369 
L 284.240388 170.053526 
L 284.229062 170.338897 
L 284.222266 170.624413 
L 284.22 170.91 
L 284.22 170.91 
L 284.222266 171.195587 
L 284.229062 171.481103 
L 284.240388 171.766474 
L 284.25624 172.051631 
L 284.276614 172.336499 
L 284.301505 172.621009 
L 284.330908 172.905088 
L 284.364813 173.188664 
L 284.403214 173.471667 
L 284.4461 173.754025 
L 284.49346 174.035667 
L 284.545283 174.316522 
L 284.601556 174.59652 
L 284.662264 174.87559 
L 284.727392 175.153661 
L 284.796923 175.430664 
L 284.870841 175.706529 
L 284.949126 175.981186 
L 285.03176 176.254567 
L 285.11872 176.526602 
L 285.209985 176.797223 
L 285.305533 177.066363 
L 285.405339 177.333952 
L 285.509377 177.599924 
L 285.617623 177.864212 
L 285.730048 178.12675 
L 285.846624 178.38747 
L 285.967322 178.646308 
L 286.092112 178.903199 
L 286.220962 179.158077 
L 286.353839 179.410879 
L 286.490711 179.661541 
L 286.631543 179.91 
L 286.776299 180.156193 
L 286.924942 180.400058 
L 287.077436 180.641535 
L 287.233743 180.880561 
L 287.393822 181.117078 
L 287.557633 181.351024 
L 287.725135 181.582343 
L 287.896287 181.810974 
L 288.071044 182.036862 
L 288.249364 182.259948 
L 288.4312 182.480177 
L 288.616508 182.697493 
L 288.80524 182.911842 
L 288.997349 183.123169 
L 289.192787 183.331422 
L 289.391505 183.536548 
L 289.593452 183.738495 
L 289.798578 183.937213 
L 290.006831 184.132651 
L 290.218158 184.32476 
L 290.432507 184.513492 
L 290.649823 184.6988 
L 290.870052 184.880636 
L 291.093138 185.058956 
L 291.319026 185.233713 
L 291.547657 185.404865 
L 291.778976 185.572367 
L 292.012922 185.736178 
L 292.249439 185.896257 
L 292.488465 186.052564 
L 292.729942 186.205058 
L 292.973807 186.353701 
L 293.22 186.498457 
L 293.468459 186.639289 
L 293.719121 186.776161 
L 293.971923 186.909038 
L 294.226801 187.037888 
L 294.483692 187.162678 
L 294.74253 187.283376 
L 295.00325 187.399952 
L 295.265788 187.512377 
L 295.530076 187.620623 
L 295.796048 187.724661 
L 296.063637 187.824467 
L 296.332777 187.920015 
L 296.603398 188.01128 
L 296.875433 188.09824 
L 297.148814 188.180874 
L 297.423471 188.259159 
L 297.699336 188.333077 
L 297.976339 188.402608 
L 298.25441 188.467736 
L 298.53348 188.528444 
L 298.813478 188.584717 
L 299.094333 188.63654 
L 299.375975 188.6839 
L 299.658333 188.726786 
L 299.941336 188.765187 
L 300.224912 188.799092 
L 300.508991 188.828495 
L 300.793501 188.853386 
L 301.078369 188.87376 
L 301.363526 188.889612 
L 301.648897 188.900938 
L 301.934413 188.907734 
L 302.22 188.91 
L 338.22 188.91 
z
" clip-path="url(#pa32761a90b)" style="fill: none; stroke: #000000; stroke-linecap: round"/>
   </g>
   <g id="line2d_1">
    <path d="M 133.02 50.31 
L 133.02 63.81 
L 133.02 68.31 
" clip-path="url(#pa32761a90b)" style="fill: none; stroke: #000000; stroke-linecap: round"/>
   </g>
   <g id="patch_5">
    <path d="M 135.72 68.31 
L 133.02 77.31 
L 130.32 68.31 
z
" clip-path="url(#pa32761a90b)"/>
   </g>
   <g id="line2d_2">
    <path d="M 208.62 107.91 
L 235.62 107.91 
L 253.62 107.91 
" clip-path="url(#pa32761a90b)" style="fill: none; stroke: #000000; stroke-linecap: round"/>
   </g>
   <g id="patch_6">
    <path d="M 253.62 105.21 
L 262.62 107.91 
L 253.62 110.61 
z
" clip-path="url(#pa32761a90b)"/>
   </g>
   <g id="line2d_3">
    <path d="M 262.62 107.91 
L 262.62 89.91 
L 377.82 89.91 
L 377.82 125.91 
L 262.62 125.91 
L 262.62 107.91 
" clip-path="url(#pa32761a90b)" style="fill: none; stroke: #000000; stroke-linecap: round"/>
   </g>
   <g id="line2d_4">
    <path d="M 320.22 125.91 
L 320.22 139.41 
L 320.22 143.91 
" clip-path="url(#pa32761a90b)" style="fill: none; stroke: #000000; stroke-linecap: round"/>
   </g>
   <g id="patch_7">
    <path d="M 322.92 143.91 
L 320.22 152.91 
L 317.52 143.91 
z
" clip-path="url(#pa32761a90b)"/>
   </g>
   <g id="line2d_5">
    <path d="M 133.02 138.51 
L 133.02 165.51 
L 133.02 183.51 
" clip-path="url(#pa32761a90b)" style="fill: none; stroke: #000000; stroke-linecap: round"/>
   </g>
   <g id="patch_8">
    <path d="M 135.72 183.51 
L 133.02 192.51 
L 130.32 183.51 
z
" clip-path="url(#pa32761a90b)"/>
   </g>
   <g id="line2d_6">
    <path d="M 75.42 210.51 
L 75.42 192.51 
L 190.62 192.51 
L 190.62 228.51 
L 75.42 228.51 
L 75.42 210.51 
" clip-path="url(#pa32761a90b)" style="fill: none; stroke: #000000; stroke-linecap: round"/>
   </g>
   <g id="line2d_7">
    <path d="M 75.42 210.51 
L 48.42 210.51 
L 21.42 210.51 
" clip-path="url(#pa32761a90b)" style="fill: none; stroke: #000000; stroke-linecap: round"/>
   </g>
   <g id="line2d_8">
    <path d="M 21.42 210.51 
L 21.42 107.91 
L 48.42 107.91 
" clip-path="url(#pa32761a90b)" style="fill: none; stroke: #000000; stroke-linecap: round"/>
   </g>
   <g id="patch_9">
    <path d="M 48.42 105.21 
L 57.42 107.91 
L 48.42 110.61 
z
" clip-path="url(#pa32761a90b)"/>
   </g>
   <g id="text_1">
    <!-- START -->
    <g transform="translate(113.843242 35.804141) scale(0.125 -0.125)">
     <defs>
      <path id="IPAexGothic-53" d="M 2919 3641 
Q 2563 4259 1853 4259 
Q 1453 4259 1213 4009 
Q 1028 3803 1028 3534 
Q 1028 3238 1266 3047 
Q 1444 2913 1984 2688 
L 2200 2597 
Q 2925 2306 3191 1953 
Q 3422 1644 3422 1259 
Q 3422 644 2969 288 
Q 2559 -31 1931 -31 
Q 881 -31 313 766 
L 753 1100 
Q 1203 459 1938 459 
Q 2288 459 2534 625 
Q 2841 847 2841 1216 
Q 2841 1503 2616 1728 
Q 2375 1959 1728 2206 
L 1541 2278 
Q 453 2694 453 3481 
Q 453 4006 806 4347 
Q 1203 4725 1863 4725 
Q 2841 4725 3359 3956 
L 2919 3641 
z
" transform="scale(0.015625)"/>
      <path id="IPAexGothic-54" d="M 3866 4141 
L 2175 4141 
L 2175 63 
L 1606 63 
L 1606 4141 
L -31 4141 
L -31 4634 
L 3866 4634 
L 3866 4141 
z
" transform="scale(0.015625)"/>
      <path id="IPAexGothic-41" d="M 4056 63 
L 3444 63 
L 2938 1409 
L 1100 1409 
L 603 63 
L -6 63 
L 1806 4666 
L 2259 4666 
L 4056 63 
z
M 2778 1863 
L 2316 3078 
Q 2125 3588 2028 4000 
L 2009 4000 
Q 1897 3563 1716 3078 
L 1263 1863 
L 2778 1863 
z
" transform="scale(0.015625)"/>
      <path id="IPAexGothic-52" d="M 4072 63 
L 3394 63 
Q 3138 641 2828 1197 
Q 2584 1641 2344 1825 
Q 2050 2044 1625 2044 
L 1172 2044 
L 1172 63 
L 609 63 
L 609 4634 
L 2009 4634 
Q 2713 4634 3131 4378 
Q 3688 4044 3688 3381 
Q 3688 2784 3181 2459 
Q 2906 2272 2522 2216 
L 2522 2197 
Q 2941 2050 3247 1581 
Q 3516 1166 4072 63 
z
M 1172 2478 
L 1869 2478 
Q 3106 2478 3106 3369 
Q 3106 4181 1928 4181 
L 1172 4181 
L 1172 2478 
z
" transform="scale(0.015625)"/>
     </defs>
     <use xlink:href="#IPAexGothic-53"/>
     <use xlink:href="#IPAexGothic-54" x="58.496094"/>
     <use xlink:href="#IPAexGothic-41" x="118.408203"/>
     <use xlink:href="#IPAexGothic-52" x="182.128906"/>
     <use xlink:href="#IPAexGothic-54" x="246.923828"/>
    </g>
   </g>
   <g id="text_2">
    <!-- False -->
    <g transform="translate(137.7 152.553281) scale(0.125 -0.125)">
     <defs>
      <path id="IPAexGothic-46" d="M 3469 4141 
L 1172 4141 
L 1172 2656 
L 3206 2656 
L 3206 2188 
L 1172 2188 
L 1172 63 
L 609 63 
L 609 4634 
L 3469 4634 
L 3469 4141 
z
" transform="scale(0.015625)"/>
      <path id="IPAexGothic-61" d="M 3156 63 
L 2672 63 
Q 2559 303 2531 556 
L 2509 556 
Q 2147 -25 1428 -25 
Q 934 -25 622 288 
Q 347 563 347 959 
Q 347 1947 2050 1997 
L 2478 2009 
L 2478 2175 
Q 2478 2509 2288 2700 
Q 2088 2900 1775 2900 
Q 1238 2900 969 2378 
L 494 2597 
Q 938 3328 1788 3328 
Q 2375 3328 2691 3000 
Q 2984 2706 2984 2169 
L 2984 997 
Q 2984 400 3156 63 
z
M 2491 1625 
L 2141 1619 
Q 903 1591 903 953 
Q 903 728 1050 581 
Q 1231 403 1525 403 
Q 1934 403 2234 703 
Q 2491 969 2491 1344 
L 2491 1625 
z
" transform="scale(0.015625)"/>
      <path id="IPAexGothic-6c" d="M 1131 63 
L 581 63 
L 581 4794 
L 1131 4794 
L 1131 63 
z
" transform="scale(0.015625)"/>
      <path id="IPAexGothic-73" d="M 2234 2547 
Q 1938 2931 1484 2931 
Q 891 2931 891 2475 
Q 891 2153 1531 1944 
L 1741 1875 
Q 2650 1578 2650 894 
Q 2650 434 2272 172 
Q 1972 -31 1497 -31 
Q 766 -31 256 503 
L 603 819 
Q 997 397 1516 397 
Q 2131 397 2131 875 
Q 2131 1238 1453 1478 
L 1234 1553 
Q 378 1853 378 2431 
Q 378 2797 628 3047 
Q 928 3347 1453 3347 
Q 2156 3347 2606 2859 
L 2234 2547 
z
" transform="scale(0.015625)"/>
      <path id="IPAexGothic-65" d="M 863 1594 
Q 891 1041 1209 722 
Q 1534 397 1997 397 
Q 2606 397 2963 966 
L 3322 728 
Q 2869 -31 1931 -31 
Q 1222 -31 766 422 
Q 306 884 306 1641 
Q 306 2444 788 2925 
Q 1216 3353 1856 3353 
Q 2459 3353 2866 2956 
Q 3322 2494 3322 1722 
L 3322 1594 
L 863 1594 
z
M 2756 1997 
Q 2709 2431 2450 2681 
Q 2194 2938 1844 2938 
Q 1438 2938 1150 2591 
Q 953 2356 894 1997 
L 2756 1997 
z
" transform="scale(0.015625)"/>
     </defs>
     <use xlink:href="#IPAexGothic-46"/>
     <use xlink:href="#IPAexGothic-61" x="57.177734"/>
     <use xlink:href="#IPAexGothic-6c" x="112.158203"/>
     <use xlink:href="#IPAexGothic-73" x="139.160156"/>
     <use xlink:href="#IPAexGothic-65" x="185.351562"/>
    </g>
   </g>
   <g id="text_3">
    <!-- True -->
    <g transform="translate(213.3 100.855) scale(0.125 -0.125)">
     <defs>
      <path id="IPAexGothic-72" d="M 2309 3316 
L 2213 2769 
Q 2106 2791 2022 2791 
Q 1653 2791 1413 2444 
Q 1113 2006 1113 1675 
L 1113 63 
L 563 63 
L 563 3250 
L 1081 3250 
L 1056 2303 
L 1069 2303 
Q 1422 3341 2097 3341 
Q 2206 3341 2309 3316 
z
" transform="scale(0.015625)"/>
      <path id="IPAexGothic-75" d="M 3284 63 
L 2772 63 
L 2772 644 
Q 2300 0 1625 0 
Q 1072 0 763 375 
Q 519 678 519 1241 
L 519 3250 
L 1069 3250 
L 1069 1259 
Q 1069 466 1734 466 
Q 2406 466 2734 1291 
L 2734 3250 
L 3284 3250 
L 3284 63 
z
" transform="scale(0.015625)"/>
     </defs>
     <use xlink:href="#IPAexGothic-54"/>
     <use xlink:href="#IPAexGothic-72" x="59.912109"/>
     <use xlink:href="#IPAexGothic-75" x="96.923828"/>
     <use xlink:href="#IPAexGothic-65" x="157.324219"/>
    </g>
   </g>
   <g id="text_4">
    <!-- イタラブルの -->
    <g transform="translate(95.52 104.598672) scale(0.125 -0.125)">
     <defs>
      <path id="IPAexGothic-30a4" d="M 3131 -231 
L 3131 2875 
Q 2091 2088 1106 1656 
L 781 2059 
Q 3016 3000 4469 4916 
L 4916 4641 
Q 4384 3938 3675 3316 
L 3675 -231 
L 3131 -231 
z
" transform="scale(0.015625)"/>
      <path id="IPAexGothic-30bf" d="M 4978 4263 
L 5313 3988 
Q 4797 2431 4056 1459 
Q 3191 325 1822 -300 
L 1466 109 
Q 2131 381 2613 738 
Q 3053 1066 3531 1600 
Q 2919 2225 2144 2791 
Q 1603 2203 1172 1875 
L 825 2234 
Q 2316 3328 2866 5031 
L 3359 4897 
Q 3325 4775 3109 4263 
L 4978 4263 
z
M 2894 3816 
Q 2709 3522 2438 3169 
Q 3194 2616 3841 2003 
Q 4366 2806 4747 3816 
L 2894 3816 
z
" transform="scale(0.015625)"/>
      <path id="IPAexGothic-30e9" d="M 1447 4709 
L 4922 4709 
L 4922 4234 
L 1447 4234 
L 1447 4709 
z
M 897 3303 
L 5172 3303 
L 5478 3013 
Q 5069 1669 4219 875 
Q 3475 181 2306 -181 
L 1972 294 
Q 4150 784 4834 2828 
L 897 2828 
L 897 3303 
z
" transform="scale(0.015625)"/>
      <path id="IPAexGothic-30d6" d="M 4806 4250 
L 5106 3975 
Q 4866 2353 4063 1356 
Q 3275 384 1869 -141 
L 1503 306 
Q 4050 1084 4531 3775 
L 947 3713 
L 947 4197 
L 4806 4250 
z
M 6047 4475 
Q 5688 5016 5294 5344 
L 5594 5575 
Q 5978 5266 6369 4750 
L 6047 4475 
z
M 5453 4006 
Q 5163 4497 4716 4897 
L 5031 5141 
Q 5400 4831 5784 4281 
L 5453 4006 
z
" transform="scale(0.015625)"/>
      <path id="IPAexGothic-30eb" d="M 353 331 
Q 1313 994 1544 2022 
Q 1684 2650 1684 4397 
L 2203 4397 
L 2203 4153 
L 2203 4116 
Q 2203 2259 1934 1491 
Q 1619 588 744 -38 
L 353 331 
z
M 3125 4666 
L 3650 4666 
L 3650 769 
Q 4875 1488 5672 2734 
L 6000 2278 
Q 5075 966 3516 63 
L 3125 359 
L 3125 4666 
z
" transform="scale(0.015625)"/>
      <path id="IPAexGothic-306e" d="M 3119 469 
Q 5275 766 5275 2425 
Q 5275 3453 4413 3925 
Q 4041 4116 3547 4159 
Q 3394 2525 2850 1400 
Q 2322 306 1722 306 
Q 1384 306 1084 666 
Q 609 1244 609 2003 
Q 609 3025 1397 3794 
Q 2184 4563 3431 4563 
Q 4306 4563 4928 4122 
Q 5813 3506 5813 2425 
Q 5813 438 3431 6 
L 3119 469 
z
M 3053 4147 
Q 2378 4044 1891 3641 
Q 1097 2981 1097 1991 
Q 1097 1366 1434 978 
Q 1581 813 1719 813 
Q 2022 813 2416 1625 
Q 2909 2638 3053 4147 
z
" transform="scale(0.015625)"/>
     </defs>
     <use xlink:href="#IPAexGothic-30a4"/>
     <use xlink:href="#IPAexGothic-30bf" x="100"/>
     <use xlink:href="#IPAexGothic-30e9" x="200"/>
     <use xlink:href="#IPAexGothic-30d6" x="300"/>
     <use xlink:href="#IPAexGothic-30eb" x="400"/>
     <use xlink:href="#IPAexGothic-306e" x="500"/>
    </g>
    <!-- 最後の要素？ -->
    <g transform="translate(95.52 118.209609) scale(0.125 -0.125)">
     <defs>
      <path id="IPAexGothic-6700" d="M 5106 5050 
L 5106 3275 
L 1284 3275 
L 1284 5050 
L 5106 5050 
z
M 1741 4697 
L 1741 4331 
L 4656 4331 
L 4656 4697 
L 1741 4697 
z
M 1741 4000 
L 1741 3622 
L 4656 3622 
L 4656 4000 
L 1741 4000 
z
M 2925 2528 
L 2925 -450 
L 2503 -450 
L 2503 228 
Q 1869 94 525 -78 
L 409 356 
Q 491 363 609 372 
Q 725 381 756 381 
L 994 403 
L 994 2528 
L 384 2528 
L 384 2900 
L 6016 2900 
L 6016 2528 
L 2925 2528 
z
M 2503 2528 
L 1400 2528 
L 1400 2088 
L 2503 2088 
L 2503 2528 
z
M 2503 1763 
L 1400 1763 
L 1400 1309 
L 2503 1309 
L 2503 1763 
z
M 2503 984 
L 1400 984 
L 1400 434 
L 1759 472 
Q 2159 500 2503 550 
L 2503 984 
z
M 4844 588 
Q 5350 225 6047 -9 
L 5753 -419 
Q 5066 -128 4556 288 
Q 4000 -241 3281 -534 
L 3006 -163 
Q 3734 84 4263 563 
Q 3722 1141 3463 1803 
L 3084 1803 
L 3084 2169 
L 5425 2169 
L 5656 1963 
Q 5328 1178 4881 638 
L 4844 588 
z
M 4538 850 
Q 4884 1275 5119 1803 
L 3872 1803 
Q 4113 1275 4538 850 
z
" transform="scale(0.015625)"/>
      <path id="IPAexGothic-5f8c" d="M 3309 2475 
Q 3184 2469 2291 2425 
L 2125 2859 
Q 2625 2859 2822 2866 
L 3169 2878 
L 3488 3194 
Q 2891 3844 2375 4238 
L 2700 4563 
Q 2878 4409 3097 4191 
Q 3563 4781 3828 5297 
L 4263 5075 
Q 3853 4431 3366 3916 
Q 3538 3744 3769 3475 
Q 4366 4109 4756 4647 
L 5178 4391 
Q 4525 3594 3719 2891 
L 4519 2925 
Q 5022 2950 5197 2963 
Q 4978 3316 4741 3591 
L 5106 3794 
Q 5606 3197 5972 2516 
L 5569 2259 
Q 5494 2428 5381 2638 
Q 5363 2631 5309 2628 
Q 5259 2625 5234 2622 
Q 4741 2566 3806 2509 
Q 3728 2338 3550 2041 
L 5050 2041 
L 5319 1791 
Q 4978 1122 4441 631 
Q 5069 256 5984 25 
L 5663 -419 
Q 4734 -106 4109 338 
Q 3372 -225 2194 -531 
L 1900 -116 
Q 3009 66 3775 594 
Q 3331 969 3053 1356 
Q 2663 900 2259 625 
L 1959 941 
Q 2838 1559 3309 2475 
z
M 4109 863 
Q 4528 1244 4728 1656 
L 3322 1656 
Q 3613 1263 4109 863 
z
M 1588 2753 
L 1588 -447 
L 1147 -447 
L 1147 2209 
Q 869 1891 550 1613 
L 250 1947 
Q 1216 2806 1803 3938 
L 2206 3738 
Q 1906 3188 1588 2753 
z
M 294 3716 
Q 1213 4375 1663 5209 
L 2078 4997 
Q 1475 4016 588 3372 
L 294 3716 
z
" transform="scale(0.015625)"/>
      <path id="IPAexGothic-8981" d="M 2278 4025 
L 2278 4581 
L 528 4581 
L 528 4978 
L 5856 4978 
L 5856 4581 
L 4081 4581 
L 4081 4025 
L 5522 4025 
L 5522 2547 
L 863 2547 
L 863 4025 
L 2278 4025 
z
M 2694 4025 
L 3659 4025 
L 3659 4581 
L 2694 4581 
L 2694 4025 
z
M 2278 3666 
L 1316 3666 
L 1316 2906 
L 2278 2906 
L 2278 3666 
z
M 2694 3666 
L 2694 2906 
L 3659 2906 
L 3659 3666 
L 2694 3666 
z
M 4081 3666 
L 4081 2906 
L 5075 2906 
L 5075 3666 
L 4081 3666 
z
M 3066 338 
Q 2547 503 1694 722 
L 1503 775 
Q 1816 1141 2066 1503 
L 447 1503 
L 447 1900 
L 2316 1900 
Q 2497 2225 2641 2516 
L 3084 2366 
Q 2984 2172 2834 1900 
L 5950 1900 
L 5950 1503 
L 4619 1503 
Q 4369 878 3988 484 
Q 4750 263 5797 -91 
L 5413 -488 
Q 4441 -100 3597 172 
Q 2706 -406 869 -531 
L 625 -97 
Q 2122 -28 3066 338 
z
M 3513 619 
Q 3934 1025 4134 1503 
L 2597 1503 
Q 2413 1213 2238 984 
L 2213 953 
Q 2656 853 3513 619 
z
" transform="scale(0.015625)"/>
      <path id="IPAexGothic-7d20" d="M 3419 1172 
L 3419 -450 
L 2931 -450 
L 2931 1144 
L 2553 1125 
Q 1875 1094 538 1063 
L 397 1497 
Q 1191 1497 2175 1509 
L 2350 1516 
Q 1784 2013 1350 2316 
L 1678 2584 
Q 2013 2347 2188 2206 
Q 2488 2456 2803 2841 
L 347 2841 
L 347 3213 
L 2944 3213 
L 2944 3603 
L 953 3603 
L 953 3956 
L 2944 3956 
L 2944 4313 
L 666 4313 
L 666 4678 
L 2944 4678 
L 2944 5313 
L 3413 5313 
L 3413 4678 
L 5728 4678 
L 5728 4313 
L 3413 4313 
L 3413 3956 
L 5441 3956 
L 5441 3603 
L 3413 3603 
L 3413 3213 
L 6050 3213 
L 6050 2841 
L 2931 2841 
L 3234 2656 
Q 2897 2309 2472 1963 
Q 2669 1800 2938 1541 
Q 3656 2131 4175 2669 
L 4591 2444 
Q 4069 1922 3541 1547 
Q 3719 1547 3809 1553 
L 4666 1588 
L 4781 1594 
L 5056 1606 
Q 4819 1819 4578 1997 
L 4916 2247 
Q 5531 1794 6056 1241 
L 5697 941 
Q 5506 1163 5378 1291 
Q 5319 1291 5275 1284 
Q 4719 1238 3663 1178 
L 3419 1172 
z
M 500 -13 
Q 1347 356 1947 966 
L 2375 750 
Q 1775 81 884 -384 
L 500 -13 
z
M 5581 -256 
Q 4844 369 4084 769 
L 4463 1044 
Q 5219 669 5991 109 
L 5581 -256 
z
" transform="scale(0.015625)"/>
      <path id="IPAexGothic-ff1f" d="M 1503 3444 
Q 1550 4184 1963 4616 
Q 2466 5128 3272 5128 
Q 3888 5128 4313 4853 
Q 4909 4469 4909 3778 
Q 4909 3059 4116 2563 
Q 3628 2250 3506 1881 
Q 3422 1650 3422 1228 
L 2853 1228 
Q 2863 1869 3053 2197 
Q 3281 2588 3847 2950 
Q 4341 3269 4341 3778 
Q 4341 4231 3975 4463 
Q 3697 4634 3266 4634 
Q 2656 4634 2341 4225 
Q 2109 3928 2091 3444 
L 1503 3444 
z
M 2763 647 
L 3506 647 
L 3506 -97 
L 2763 -97 
L 2763 647 
z
" transform="scale(0.015625)"/>
     </defs>
     <use xlink:href="#IPAexGothic-6700"/>
     <use xlink:href="#IPAexGothic-5f8c" x="100"/>
     <use xlink:href="#IPAexGothic-306e" x="200"/>
     <use xlink:href="#IPAexGothic-8981" x="300"/>
     <use xlink:href="#IPAexGothic-7d20" x="400"/>
     <use xlink:href="#IPAexGothic-ff1f" x="500"/>
    </g>
   </g>
   <g id="text_5">
    <!-- 毎回実行したい -->
    <g transform="translate(276.47 104.598672) scale(0.125 -0.125)">
     <defs>
      <path id="IPAexGothic-6bce" d="M 1528 3675 
L 5169 3675 
Q 5169 3553 5131 2322 
L 6078 2322 
L 6078 1925 
L 5119 1925 
Q 5075 1194 5056 994 
L 5047 897 
L 5938 897 
L 5938 513 
L 5003 513 
Q 4947 -3 4838 -172 
Q 4684 -409 4263 -409 
Q 3797 -409 3397 -353 
L 3322 122 
Q 3928 31 4191 31 
Q 4416 31 4484 197 
Q 4506 250 4550 513 
L 1541 513 
Q 1531 475 1497 297 
Q 1463 116 1431 -25 
L 972 63 
Q 1194 1063 1316 1925 
L 319 1925 
L 319 2322 
L 1375 2322 
L 1381 2366 
Q 1466 2978 1528 3675 
z
M 3500 3291 
L 3488 3169 
Q 3453 2759 3409 2316 
L 4684 2316 
Q 4713 2934 4722 3291 
L 3500 3291 
z
M 3059 3291 
L 1919 3291 
Q 1919 3241 1913 3213 
Q 1903 2997 1816 2316 
L 2963 2316 
Q 3000 2625 3059 3291 
z
M 2925 1931 
L 1766 1931 
Q 1703 1400 1606 897 
L 2781 897 
Q 2844 1306 2909 1847 
L 2925 1931 
z
M 3372 1931 
Q 3275 1175 3238 897 
L 4594 897 
Q 4622 1241 4672 1931 
L 3372 1931 
z
M 1856 4628 
L 5816 4628 
L 5816 4231 
L 1669 4231 
Q 1325 3572 850 3041 
L 509 3369 
Q 1272 4175 1625 5350 
L 2084 5263 
Q 1959 4869 1856 4628 
z
" transform="scale(0.015625)"/>
      <path id="IPAexGothic-56de" d="M 4519 3647 
L 4519 1178 
L 1875 1178 
L 1875 3647 
L 4519 3647 
z
M 2328 3250 
L 2328 1575 
L 4066 1575 
L 4066 3250 
L 2328 3250 
z
M 5722 4891 
L 5722 -456 
L 5247 -456 
L 5247 -103 
L 1147 -103 
L 1147 -456 
L 672 -456 
L 672 4891 
L 5722 4891 
z
M 1147 4475 
L 1147 313 
L 5247 313 
L 5247 4475 
L 1147 4475 
z
" transform="scale(0.015625)"/>
      <path id="IPAexGothic-5b9f" d="M 3525 1275 
Q 4288 350 6022 91 
L 5738 -375 
Q 3953 -41 3219 1050 
Q 2731 -144 728 -472 
L 466 -44 
Q 2422 150 2872 1275 
L 384 1275 
L 384 1659 
L 2950 1659 
L 2950 2144 
L 966 2144 
L 966 2509 
L 2950 2509 
L 2950 2969 
L 1266 2969 
L 1266 3341 
L 2950 3341 
L 2950 3988 
L 3403 3988 
L 3403 3341 
L 5125 3341 
L 5125 2969 
L 3403 2969 
L 3403 2509 
L 5444 2509 
L 5444 2144 
L 3403 2144 
L 3403 1659 
L 6016 1659 
L 6016 1275 
L 3525 1275 
z
M 3413 4544 
L 5778 4544 
L 5778 3269 
L 5309 3269 
L 5309 4147 
L 1084 4147 
L 1084 3269 
L 616 3269 
L 616 4544 
L 2938 4544 
L 2938 5313 
L 3413 5313 
L 3413 4544 
z
" transform="scale(0.015625)"/>
      <path id="IPAexGothic-884c" d="M 1822 2753 
L 1822 -447 
L 1353 -447 
L 1353 2169 
Q 966 1744 622 1466 
L 316 1791 
Q 1294 2559 1969 3822 
L 2397 3634 
Q 2109 3138 1822 2753 
z
M 4975 2803 
L 4975 103 
Q 4975 -391 4369 -391 
Q 3925 -391 3356 -341 
L 3288 159 
Q 3775 78 4259 78 
Q 4516 78 4516 319 
L 4516 2803 
L 2384 2803 
L 2384 3225 
L 6013 3225 
L 6013 2803 
L 4975 2803 
z
M 384 3691 
Q 1231 4256 1756 5075 
L 2144 4850 
Q 1541 3947 666 3347 
L 384 3691 
z
M 2709 4794 
L 5659 4794 
L 5659 4378 
L 2709 4378 
L 2709 4794 
z
" transform="scale(0.015625)"/>
      <path id="IPAexGothic-3057" d="M 1750 4884 
L 2281 4884 
L 2238 1319 
Q 2228 809 2391 569 
Q 2594 281 3128 281 
Q 3772 281 4344 744 
Q 4822 1131 5156 1759 
L 5534 1369 
Q 5094 653 4534 263 
Q 3878 -206 3134 -206 
Q 2341 -206 1994 213 
Q 1697 575 1706 1269 
L 1750 4884 
z
" transform="scale(0.015625)"/>
      <path id="IPAexGothic-305f" d="M 684 3994 
Q 1138 3953 1556 3953 
Q 1797 3953 2106 3975 
Q 2266 4594 2369 5113 
L 2875 5025 
Q 2806 4731 2619 4013 
Q 3209 4084 3656 4191 
L 3688 3719 
Q 3109 3613 2497 3566 
Q 1822 1294 1153 -44 
L 653 172 
Q 1406 1500 1991 3531 
Q 1634 3513 1256 3513 
Q 1106 3513 697 3525 
L 684 3994 
z
M 5753 78 
Q 5059 -13 4597 -13 
Q 3619 -13 3206 334 
Q 2866 625 2766 1222 
L 3213 1388 
Q 3247 1069 3347 903 
Q 3425 775 3578 672 
Q 3866 481 4556 481 
Q 5009 481 5728 575 
L 5753 78 
z
M 3144 2859 
Q 4216 3147 5409 3072 
L 5381 2597 
L 5356 2597 
Q 4263 2663 3194 2419 
L 3144 2859 
z
" transform="scale(0.015625)"/>
      <path id="IPAexGothic-3044" d="M 3369 1447 
Q 2906 122 2278 122 
Q 1966 122 1647 481 
Q 1209 966 1044 1966 
Q 891 2888 891 4313 
L 1422 4313 
Q 1413 2444 1666 1550 
Q 1913 678 2278 678 
Q 2619 678 2925 1791 
L 3369 1447 
z
M 5378 1294 
Q 4928 2797 4034 3809 
L 4488 4031 
Q 5375 3000 5881 1563 
L 5378 1294 
z
" transform="scale(0.015625)"/>
     </defs>
     <use xlink:href="#IPAexGothic-6bce"/>
     <use xlink:href="#IPAexGothic-56de" x="100"/>
     <use xlink:href="#IPAexGothic-5b9f" x="200"/>
     <use xlink:href="#IPAexGothic-884c" x="300"/>
     <use xlink:href="#IPAexGothic-3057" x="400"/>
     <use xlink:href="#IPAexGothic-305f" x="500"/>
     <use xlink:href="#IPAexGothic-3044" x="600"/>
    </g>
    <!-- コードを実行 -->
    <g transform="translate(282.72 118.209609) scale(0.125 -0.125)">
     <defs>
      <path id="IPAexGothic-30b3" d="M 1134 4213 
L 5166 4213 
L 5166 153 
L 4653 153 
L 4653 594 
L 1063 594 
L 1063 1088 
L 4653 1088 
L 4653 3725 
L 1134 3725 
L 1134 4213 
z
" transform="scale(0.015625)"/>
      <path id="IPAexGothic-30fc" d="M 588 2688 
L 5809 2688 
L 5809 2175 
L 588 2175 
L 588 2688 
z
" transform="scale(0.015625)"/>
      <path id="IPAexGothic-30c9" d="M 2247 4959 
L 2766 4959 
L 2766 3169 
Q 4050 2581 5178 1850 
L 4841 1331 
Q 3781 2138 2766 2650 
L 2766 -225 
L 2247 -225 
L 2247 4959 
z
M 5263 3847 
Q 4900 4388 4506 4716 
L 4806 4947 
Q 5191 4638 5581 4122 
L 5263 3847 
z
M 4666 3378 
Q 4375 3869 3931 4269 
L 4244 4513 
Q 4616 4206 5000 3653 
L 4666 3378 
z
" transform="scale(0.015625)"/>
      <path id="IPAexGothic-3092" d="M 1094 4263 
Q 1544 4222 2359 4222 
Q 2581 4734 2700 5163 
L 3175 5028 
Q 2997 4538 2859 4256 
Q 3516 4284 4294 4459 
L 4356 4019 
Q 3603 3869 2656 3819 
Q 2391 3284 2059 2797 
Q 2531 3200 2963 3200 
Q 3638 3200 3859 2378 
Q 4556 2681 5338 2950 
L 5575 2528 
Q 4641 2253 3941 1956 
Q 3981 1678 3994 1028 
L 3513 991 
Q 3513 1456 3494 1753 
Q 2388 1194 2388 716 
Q 2388 428 2753 328 
Q 3066 241 3806 241 
Q 4394 241 5178 344 
L 5216 -128 
Q 4434 -213 3653 -213 
Q 2656 -213 2244 41 
Q 1913 244 1913 631 
Q 1913 1094 2344 1497 
Q 2709 1841 3428 2181 
Q 3266 2797 2878 2797 
Q 2238 2797 1209 1419 
L 838 1694 
Q 1625 2716 2163 3800 
Q 1522 3800 1088 3825 
L 1094 4263 
z
" transform="scale(0.015625)"/>
     </defs>
     <use xlink:href="#IPAexGothic-30b3"/>
     <use xlink:href="#IPAexGothic-30fc" x="100"/>
     <use xlink:href="#IPAexGothic-30c9" x="200"/>
     <use xlink:href="#IPAexGothic-3092" x="300"/>
     <use xlink:href="#IPAexGothic-5b9f" x="400"/>
     <use xlink:href="#IPAexGothic-884c" x="500"/>
    </g>
   </g>
   <g id="text_6">
    <!-- END -->
    <g transform="translate(307.020781 174.404141) scale(0.125 -0.125)">
     <defs>
      <path id="IPAexGothic-45" d="M 3547 63 
L 609 63 
L 609 4634 
L 3469 4634 
L 3469 4147 
L 1166 4147 
L 1166 2650 
L 3206 2650 
L 3206 2191 
L 1166 2191 
L 1166 556 
L 3547 556 
L 3547 63 
z
" transform="scale(0.015625)"/>
      <path id="IPAexGothic-4e" d="M 4244 63 
L 3731 63 
L 1697 3150 
Q 1466 3500 1141 4097 
L 1116 4097 
L 1128 3797 
Q 1159 2803 1159 2469 
L 1159 63 
L 609 63 
L 609 4634 
L 1366 4634 
L 3113 1978 
Q 3453 1447 3713 966 
L 3738 966 
Q 3694 1897 3694 2469 
L 3694 4634 
L 4244 4634 
L 4244 63 
z
" transform="scale(0.015625)"/>
      <path id="IPAexGothic-44" d="M 609 4634 
L 1984 4634 
Q 3159 4634 3791 4050 
Q 4456 3444 4456 2356 
Q 4456 1047 3516 441 
Q 2925 63 1941 63 
L 609 63 
L 609 4634 
z
M 1172 556 
L 1894 556 
Q 3853 556 3853 2356 
Q 3853 4147 1928 4147 
L 1172 4147 
L 1172 556 
z
" transform="scale(0.015625)"/>
     </defs>
     <use xlink:href="#IPAexGothic-45"/>
     <use xlink:href="#IPAexGothic-4e" x="59.521484"/>
     <use xlink:href="#IPAexGothic-44" x="135.498047"/>
    </g>
   </g>
   <g id="text_7">
    <!-- 毎回実行したい -->
    <g transform="translate(89.27 207.198672) scale(0.125 -0.125)">
     <use xlink:href="#IPAexGothic-6bce"/>
     <use xlink:href="#IPAexGothic-56de" x="100"/>
     <use xlink:href="#IPAexGothic-5b9f" x="200"/>
     <use xlink:href="#IPAexGothic-884c" x="300"/>
     <use xlink:href="#IPAexGothic-3057" x="400"/>
     <use xlink:href="#IPAexGothic-305f" x="500"/>
     <use xlink:href="#IPAexGothic-3044" x="600"/>
    </g>
    <!-- コードを実行 -->
    <g transform="translate(95.52 220.809609) scale(0.125 -0.125)">
     <use xlink:href="#IPAexGothic-30b3"/>
     <use xlink:href="#IPAexGothic-30fc" x="100"/>
     <use xlink:href="#IPAexGothic-30c9" x="200"/>
     <use xlink:href="#IPAexGothic-3092" x="300"/>
     <use xlink:href="#IPAexGothic-5b9f" x="400"/>
     <use xlink:href="#IPAexGothic-884c" x="500"/>
    </g>
   </g>
  </g>
 </g>
 <defs>
  <clipPath id="pa32761a90b">
   <rect x="3.6" y="3.6" width="392.04" height="235.62"/>
  </clipPath>
 </defs>
</svg>