<?xml version="1.0" encoding="utf-8" standalone="no"?>
<!DOCTYPE svg PUBLIC "-//W3C//DTD SVG 1.1//EN"
  "http://www.w3.org/Graphics/SVG/1.1/DTD/svg11.dtd">
<svg xmlns:xlink="http://www.w3.org/1999/xlink" width="397.26pt" height="363.6pt" viewBox="0 0 397.26 363.6" xmlns="http://www.w3.org/2000/svg" version="1.1">
 <metadata>
  <rdf:RDF xmlns:dc="http://purl.org/dc/elements/1.1/" xmlns:cc="http://creativecommons.org/ns#" xmlns:rdf="http://www.w3.org/1999/02/22-rdf-syntax-ns#">
   <cc:Work>
    <dc:type rdf:resource="http://purl.org/dc/dcmitype/StillImage"/>
    <dc:date>2024-03-16T05:07:52.675909</dc:date>
    <dc:format>image/svg+xml</dc:format>
    <dc:creator>
     <cc:Agent>
      <dc:title>Matplotlib v3.8.3, https://matplotlib.org/</dc:title>
     </cc:Agent>
    </dc:creator>
   </cc:Work>
  </rdf:RDF>
 </metadata>
 <defs>
  <style type="text/css">*{stroke-linejoin: round; stroke-linecap: butt}</style>
 </defs>
 <g id="figure_1">
  <g id="patch_1">
   <path d="M -0 363.6 
L 397.26 363.6 
L 397.26 -0 
L -0 -0 
z
" style="fill: #ffffff"/>
  </g>
  <g id="axes_1">
   <g id="patch_2">
    <path d="M 147.33 55.8 
L 147.615587 55.797734 
L 147.901103 55.790938 
L 148.186474 55.779612 
L 148.471631 55.76376 
L 148.756499 55.743386 
L 149.041009 55.718495 
L 149.325088 55.689092 
L 149.608664 55.655187 
L 149.891667 55.616786 
L 150.174025 55.5739 
L 150.455667 55.52654 
L 150.736522 55.474717 
L 151.01652 55.418444 
L 151.29559 55.357736 
L 151.573661 55.292608 
L 151.850664 55.223077 
L 152.126529 55.149159 
L 152.401186 55.070874 
L 152.674567 54.98824 
L 152.946602 54.90128 
L 153.217223 54.810015 
L 153.486363 54.714467 
L 153.753952 54.614661 
L 154.019924 54.510623 
L 154.284212 54.402377 
L 154.54675 54.289952 
L 154.80747 54.173376 
L 155.066308 54.052678 
L 155.323199 53.927888 
L 155.578077 53.799038 
L 155.830879 53.666161 
L 156.081541 53.529289 
L 156.33 53.388457 
L 156.576193 53.243701 
L 156.820058 53.095058 
L 157.061535 52.942564 
L 157.300561 52.786257 
L 157.537078 52.626178 
L 157.771024 52.462367 
L 158.002343 52.294865 
L 158.230974 52.123713 
L 158.456862 51.948956 
L 158.679948 51.770636 
L 158.900177 51.5888 
L 159.117493 51.403492 
L 159.331842 51.21476 
L 159.543169 51.022651 
L 159.751422 50.827213 
L 159.956548 50.628495 
L 160.158495 50.426548 
L 160.357213 50.221422 
L 160.552651 50.013169 
L 160.74476 49.801842 
L 160.933492 49.587493 
L 161.1188 49.370177 
L 161.300636 49.149948 
L 161.478956 48.926862 
L 161.653713 48.700974 
L 161.824865 48.472343 
L 161.992367 48.241024 
L 162.156178 48.007078 
L 162.316257 47.770561 
L 162.472564 47.531535 
L 162.625058 47.290058 
L 162.773701 47.046193 
L 162.918457 46.8 
L 163.059289 46.551541 
L 163.196161 46.300879 
L 163.329038 46.048077 
L 163.457888 45.793199 
L 163.582678 45.536308 
L 163.703376 45.27747 
L 163.819952 45.01675 
L 163.932377 44.754212 
L 164.040623 44.489924 
L 164.144661 44.223952 
L 164.244467 43.956363 
L 164.340015 43.687223 
L 164.43128 43.416602 
L 164.51824 43.144567 
L 164.600874 42.871186 
L 164.679159 42.596529 
L 164.753077 42.320664 
L 164.822608 42.043661 
L 164.887736 41.76559 
L 164.948444 41.48652 
L 165.004717 41.206522 
L 165.05654 40.925667 
L 165.1039 40.644025 
L 165.146786 40.361667 
L 165.185187 40.078664 
L 165.219092 39.795088 
L 165.248495 39.511009 
L 165.273386 39.226499 
L 165.29376 38.941631 
L 165.309612 38.656474 
L 165.320938 38.371103 
L 165.327734 38.085587 
L 165.33 37.8 
L 165.33 37.8 
L 165.327734 37.514413 
L 165.320938 37.228897 
L 165.309612 36.943526 
L 165.29376 36.658369 
L 165.273386 36.373501 
L 165.248495 36.088991 
L 165.219092 35.804912 
L 165.185187 35.521336 
L 165.146786 35.238333 
L 165.1039 34.955975 
L 165.05654 34.674333 
L 165.004717 34.393478 
L 164.948444 34.11348 
L 164.887736 33.83441 
L 164.822608 33.556339 
L 164.753077 33.279336 
L 164.679159 33.003471 
L 164.600874 32.728814 
L 164.51824 32.455433 
L 164.43128 32.183398 
L 164.340015 31.912777 
L 164.244467 31.643637 
L 164.144661 31.376048 
L 164.040623 31.110076 
L 163.932377 30.845788 
L 163.819952 30.58325 
L 163.703376 30.32253 
L 163.582678 30.063692 
L 163.457888 29.806801 
L 163.329038 29.551923 
L 163.196161 29.299121 
L 163.059289 29.048459 
L 162.918457 28.8 
L 162.773701 28.553807 
L 162.625058 28.309942 
L 162.472564 28.068465 
L 162.316257 27.829439 
L 162.156178 27.592922 
L 161.992367 27.358976 
L 161.824865 27.127657 
L 161.653713 26.899026 
L 161.478956 26.673138 
L 161.300636 26.450052 
L 161.1188 26.229823 
L 160.933492 26.012507 
L 160.74476 25.798158 
L 160.552651 25.586831 
L 160.357213 25.378578 
L 160.158495 25.173452 
L 159.956548 24.971505 
L 159.751422 24.772787 
L 159.543169 24.577349 
L 159.331842 24.38524 
L 159.117493 24.196508 
L 158.900177 24.0112 
L 158.679948 23.829364 
L 158.456862 23.651044 
L 158.230974 23.476287 
L 158.002343 23.305135 
L 157.771024 23.137633 
L 157.537078 22.973822 
L 157.300561 22.813743 
L 157.061535 22.657436 
L 156.820058 22.504942 
L 156.576193 22.356299 
L 156.33 22.211543 
L 156.081541 22.070711 
L 155.830879 21.933839 
L 155.578077 21.800962 
L 155.323199 21.672112 
L 155.066308 21.547322 
L 154.80747 21.426624 
L 154.54675 21.310048 
L 154.284212 21.197623 
L 154.019924 21.089377 
L 153.753952 20.985339 
L 153.486363 20.885533 
L 153.217223 20.789985 
L 152.946602 20.69872 
L 152.674567 20.61176 
L 152.401186 20.529126 
L 152.126529 20.450841 
L 151.850664 20.376923 
L 151.573661 20.307392 
L 151.29559 20.242264 
L 151.01652 20.181556 
L 150.736522 20.125283 
L 150.455667 20.07346 
L 150.174025 20.0261 
L 149.891667 19.983214 
L 149.608664 19.944813 
L 149.325088 19.910908 
L 149.041009 19.881505 
L 148.756499 19.856614 
L 148.471631 19.83624 
L 148.186474 19.820388 
L 147.901103 19.809062 
L 147.615587 19.802266 
L 147.33 19.8 
L 111.33 19.8 
L 111.044413 19.802266 
L 110.758897 19.809062 
L 110.473526 19.820388 
L 110.188369 19.83624 
L 109.903501 19.856614 
L 109.618991 19.881505 
L 109.334912 19.910908 
L 109.051336 19.944813 
L 108.768333 19.983214 
L 108.485975 20.0261 
L 108.204333 20.07346 
L 107.923478 20.125283 
L 107.64348 20.181556 
L 107.36441 20.242264 
L 107.086339 20.307392 
L 106.809336 20.376923 
L 106.533471 20.450841 
L 106.258814 20.529126 
L 105.985433 20.61176 
L 105.713398 20.69872 
L 105.442777 20.789985 
L 105.173637 20.885533 
L 104.906048 20.985339 
L 104.640076 21.089377 
L 104.375788 21.197623 
L 104.11325 21.310048 
L 103.85253 21.426624 
L 103.593692 21.547322 
L 103.336801 21.672112 
L 103.081923 21.800962 
L 102.829121 21.933839 
L 102.578459 22.070711 
L 102.33 22.211543 
L 102.083807 22.356299 
L 101.839942 22.504942 
L 101.598465 22.657436 
L 101.359439 22.813743 
L 101.122922 22.973822 
L 100.888976 23.137633 
L 100.657657 23.305135 
L 100.429026 23.476287 
L 100.203138 23.651044 
L 99.980052 23.829364 
L 99.759823 24.0112 
L 99.542507 24.196508 
L 99.328158 24.38524 
L 99.116831 24.577349 
L 98.908578 24.772787 
L 98.703452 24.971505 
L 98.501505 25.173452 
L 98.302787 25.378578 
L 98.107349 25.586831 
L 97.91524 25.798158 
L 97.726508 26.012507 
L 97.5412 26.229823 
L 97.359364 26.450052 
L 97.181044 26.673138 
L 97.006287 26.899026 
L 96.835135 27.127657 
L 96.667633 27.358976 
L 96.503822 27.592922 
L 96.343743 27.829439 
L 96.187436 28.068465 
L 96.034942 28.309942 
L 95.886299 28.553807 
L 95.741543 28.8 
L 95.600711 29.048459 
L 95.463839 29.299121 
L 95.330962 29.551923 
L 95.202112 29.806801 
L 95.077322 30.063692 
L 94.956624 30.32253 
L 94.840048 30.58325 
L 94.727623 30.845788 
L 94.619377 31.110076 
L 94.515339 31.376048 
L 94.415533 31.643637 
L 94.319985 31.912777 
L 94.22872 32.183398 
L 94.14176 32.455433 
L 94.059126 32.728814 
L 93.980841 33.003471 
L 93.906923 33.279336 
L 93.837392 33.556339 
L 93.772264 33.83441 
L 93.711556 34.11348 
L 93.655283 34.393478 
L 93.60346 34.674333 
L 93.5561 34.955975 
L 93.513214 35.238333 
L 93.474813 35.521336 
L 93.440908 35.804912 
L 93.411505 36.088991 
L 93.386614 36.373501 
L 93.36624 36.658369 
L 93.350388 36.943526 
L 93.339062 37.228897 
L 93.332266 37.514413 
L 93.33 37.8 
L 93.33 37.8 
L 93.332266 38.085587 
L 93.339062 38.371103 
L 93.350388 38.656474 
L 93.36624 38.941631 
L 93.386614 39.226499 
L 93.411505 39.511009 
L 93.440908 39.795088 
L 93.474813 40.078664 
L 93.513214 40.361667 
L 93.5561 40.644025 
L 93.60346 40.925667 
L 93.655283 41.206522 
L 93.711556 41.48652 
L 93.772264 41.76559 
L 93.837392 42.043661 
L 93.906923 42.320664 
L 93.980841 42.596529 
L 94.059126 42.871186 
L 94.14176 43.144567 
L 94.22872 43.416602 
L 94.319985 43.687223 
L 94.415533 43.956363 
L 94.515339 44.223952 
L 94.619377 44.489924 
L 94.727623 44.754212 
L 94.840048 45.01675 
L 94.956624 45.27747 
L 95.077322 45.536308 
L 95.202112 45.793199 
L 95.330962 46.048077 
L 95.463839 46.300879 
L 95.600711 46.551541 
L 95.741543 46.8 
L 95.886299 47.046193 
L 96.034942 47.290058 
L 96.187436 47.531535 
L 96.343743 47.770561 
L 96.503822 48.007078 
L 96.667633 48.241024 
L 96.835135 48.472343 
L 97.006287 48.700974 
L 97.181044 48.926862 
L 97.359364 49.149948 
L 97.5412 49.370177 
L 97.726508 49.587493 
L 97.91524 49.801842 
L 98.107349 50.013169 
L 98.302787 50.221422 
L 98.501505 50.426548 
L 98.703452 50.628495 
L 98.908578 50.827213 
L 99.116831 51.022651 
L 99.328158 51.21476 
L 99.542507 51.403492 
L 99.759823 51.5888 
L 99.980052 51.770636 
L 100.203138 51.948956 
L 100.429026 52.123713 
L 100.657657 52.294865 
L 100.888976 52.462367 
L 101.122922 52.626178 
L 101.359439 52.786257 
L 101.598465 52.942564 
L 101.839942 53.095058 
L 102.083807 53.243701 
L 102.33 53.388457 
L 102.578459 53.529289 
L 102.829121 53.666161 
L 103.081923 53.799038 
L 103.336801 53.927888 
L 103.593692 54.052678 
L 103.85253 54.173376 
L 104.11325 54.289952 
L 104.375788 54.402377 
L 104.640076 54.510623 
L 104.906048 54.614661 
L 105.173637 54.714467 
L 105.442777 54.810015 
L 105.713398 54.90128 
L 105.985433 54.98824 
L 106.258814 55.070874 
L 106.533471 55.149159 
L 106.809336 55.223077 
L 107.086339 55.292608 
L 107.36441 55.357736 
L 107.64348 55.418444 
L 107.923478 55.474717 
L 108.204333 55.52654 
L 108.485975 55.5739 
L 108.768333 55.616786 
L 109.051336 55.655187 
L 109.334912 55.689092 
L 109.618991 55.718495 
L 109.903501 55.743386 
L 110.188369 55.76376 
L 110.473526 55.779612 
L 110.758897 55.790938 
L 111.044413 55.797734 
L 111.33 55.8 
L 147.33 55.8 
z
" clip-path="url(#p59195db49e)" style="fill: none; stroke: #000000; stroke-linecap: round"/>
   </g>
   <g id="patch_3">
    <path d="M 66.33 172.8 
L 129.33 145.8 
L 192.33 172.8 
L 129.33 199.8 
L 66.33 172.8 
z
" clip-path="url(#p59195db49e)" style="fill: none; stroke: #000000; stroke-linecap: round"/>
   </g>
   <g id="patch_4">
    <path d="M 329.13 262.8 
L 329.415587 262.797734 
L 329.701103 262.790938 
L 329.986474 262.779612 
L 330.271631 262.76376 
L 330.556499 262.743386 
L 330.841009 262.718495 
L 331.125088 262.689092 
L 331.408664 262.655187 
L 331.691667 262.616786 
L 331.974025 262.5739 
L 332.255667 262.52654 
L 332.536522 262.474717 
L 332.81652 262.418444 
L 333.09559 262.357736 
L 333.373661 262.292608 
L 333.650664 262.223077 
L 333.926529 262.149159 
L 334.201186 262.070874 
L 334.474567 261.98824 
L 334.746602 261.90128 
L 335.017223 261.810015 
L 335.286363 261.714467 
L 335.553952 261.614661 
L 335.819924 261.510623 
L 336.084212 261.402377 
L 336.34675 261.289952 
L 336.60747 261.173376 
L 336.866308 261.052678 
L 337.123199 260.927888 
L 337.378077 260.799038 
L 337.630879 260.666161 
L 337.881541 260.529289 
L 338.13 260.388457 
L 338.376193 260.243701 
L 338.620058 260.095058 
L 338.861535 259.942564 
L 339.100561 259.786257 
L 339.337078 259.626178 
L 339.571024 259.462367 
L 339.802343 259.294865 
L 340.030974 259.123713 
L 340.256862 258.948956 
L 340.479948 258.770636 
L 340.700177 258.5888 
L 340.917493 258.403492 
L 341.131842 258.21476 
L 341.343169 258.022651 
L 341.551422 257.827213 
L 341.756548 257.628495 
L 341.958495 257.426548 
L 342.157213 257.221422 
L 342.352651 257.013169 
L 342.54476 256.801842 
L 342.733492 256.587493 
L 342.9188 256.370177 
L 343.100636 256.149948 
L 343.278956 255.926862 
L 343.453713 255.700974 
L 343.624865 255.472343 
L 343.792367 255.241024 
L 343.956178 255.007078 
L 344.116257 254.770561 
L 344.272564 254.531535 
L 344.425058 254.290058 
L 344.573701 254.046193 
L 344.718457 253.8 
L 344.859289 253.551541 
L 344.996161 253.300879 
L 345.129038 253.048077 
L 345.257888 252.793199 
L 345.382678 252.536308 
L 345.503376 252.27747 
L 345.619952 252.01675 
L 345.732377 251.754212 
L 345.840623 251.489924 
L 345.944661 251.223952 
L 346.044467 250.956363 
L 346.140015 250.687223 
L 346.23128 250.416602 
L 346.31824 250.144567 
L 346.400874 249.871186 
L 346.479159 249.596529 
L 346.553077 249.320664 
L 346.622608 249.043661 
L 346.687736 248.76559 
L 346.748444 248.48652 
L 346.804717 248.206522 
L 346.85654 247.925667 
L 346.9039 247.644025 
L 346.946786 247.361667 
L 346.985187 247.078664 
L 347.019092 246.795088 
L 347.048495 246.511009 
L 347.073386 246.226499 
L 347.09376 245.941631 
L 347.109612 245.656474 
L 347.120938 245.371103 
L 347.127734 245.085587 
L 347.13 244.8 
L 347.13 244.8 
L 347.127734 244.514413 
L 347.120938 244.228897 
L 347.109612 243.943526 
L 347.09376 243.658369 
L 347.073386 243.373501 
L 347.048495 243.088991 
L 347.019092 242.804912 
L 346.985187 242.521336 
L 346.946786 242.238333 
L 346.9039 241.955975 
L 346.85654 241.674333 
L 346.804717 241.393478 
L 346.748444 241.11348 
L 346.687736 240.83441 
L 346.622608 240.556339 
L 346.553077 240.279336 
L 346.479159 240.003471 
L 346.400874 239.728814 
L 346.31824 239.455433 
L 346.23128 239.183398 
L 346.140015 238.912777 
L 346.044467 238.643637 
L 345.944661 238.376048 
L 345.840623 238.110076 
L 345.732377 237.845788 
L 345.619952 237.58325 
L 345.503376 237.32253 
L 345.382678 237.063692 
L 345.257888 236.806801 
L 345.129038 236.551923 
L 344.996161 236.299121 
L 344.859289 236.048459 
L 344.718457 235.8 
L 344.573701 235.553807 
L 344.425058 235.309942 
L 344.272564 235.068465 
L 344.116257 234.829439 
L 343.956178 234.592922 
L 343.792367 234.358976 
L 343.624865 234.127657 
L 343.453713 233.899026 
L 343.278956 233.673138 
L 343.100636 233.450052 
L 342.9188 233.229823 
L 342.733492 233.012507 
L 342.54476 232.798158 
L 342.352651 232.586831 
L 342.157213 232.378578 
L 341.958495 232.173452 
L 341.756548 231.971505 
L 341.551422 231.772787 
L 341.343169 231.577349 
L 341.131842 231.38524 
L 340.917493 231.196508 
L 340.700177 231.0112 
L 340.479948 230.829364 
L 340.256862 230.651044 
L 340.030974 230.476287 
L 339.802343 230.305135 
L 339.571024 230.137633 
L 339.337078 229.973822 
L 339.100561 229.813743 
L 338.861535 229.657436 
L 338.620058 229.504942 
L 338.376193 229.356299 
L 338.13 229.211543 
L 337.881541 229.070711 
L 337.630879 228.933839 
L 337.378077 228.800962 
L 337.123199 228.672112 
L 336.866308 228.547322 
L 336.60747 228.426624 
L 336.34675 228.310048 
L 336.084212 228.197623 
L 335.819924 228.089377 
L 335.553952 227.985339 
L 335.286363 227.885533 
L 335.017223 227.789985 
L 334.746602 227.69872 
L 334.474567 227.61176 
L 334.201186 227.529126 
L 333.926529 227.450841 
L 333.650664 227.376923 
L 333.373661 227.307392 
L 333.09559 227.242264 
L 332.81652 227.181556 
L 332.536522 227.125283 
L 332.255667 227.07346 
L 331.974025 227.0261 
L 331.691667 226.983214 
L 331.408664 226.944813 
L 331.125088 226.910908 
L 330.841009 226.881505 
L 330.556499 226.856614 
L 330.271631 226.83624 
L 329.986474 226.820388 
L 329.701103 226.809062 
L 329.415587 226.802266 
L 329.13 226.8 
L 293.13 226.8 
L 292.844413 226.802266 
L 292.558897 226.809062 
L 292.273526 226.820388 
L 291.988369 226.83624 
L 291.703501 226.856614 
L 291.418991 226.881505 
L 291.134912 226.910908 
L 290.851336 226.944813 
L 290.568333 226.983214 
L 290.285975 227.0261 
L 290.004333 227.07346 
L 289.723478 227.125283 
L 289.44348 227.181556 
L 289.16441 227.242264 
L 288.886339 227.307392 
L 288.609336 227.376923 
L 288.333471 227.450841 
L 288.058814 227.529126 
L 287.785433 227.61176 
L 287.513398 227.69872 
L 287.242777 227.789985 
L 286.973637 227.885533 
L 286.706048 227.985339 
L 286.440076 228.089377 
L 286.175788 228.197623 
L 285.91325 228.310048 
L 285.65253 228.426624 
L 285.393692 228.547322 
L 285.136801 228.672112 
L 284.881923 228.800962 
L 284.629121 228.933839 
L 284.378459 229.070711 
L 284.13 229.211543 
L 283.883807 229.356299 
L 283.639942 229.504942 
L 283.398465 229.657436 
L 283.159439 229.813743 
L 282.922922 229.973822 
L 282.688976 230.137633 
L 282.457657 230.305135 
L 282.229026 230.476287 
L 282.003138 230.651044 
L 281.780052 230.829364 
L 281.559823 231.0112 
L 281.342507 231.196508 
L 281.128158 231.38524 
L 280.916831 231.577349 
L 280.708578 231.772787 
L 280.503452 231.971505 
L 280.301505 232.173452 
L 280.102787 232.378578 
L 279.907349 232.586831 
L 279.71524 232.798158 
L 279.526508 233.012507 
L 279.3412 233.229823 
L 279.159364 233.450052 
L 278.981044 233.673138 
L 278.806287 233.899026 
L 278.635135 234.127657 
L 278.467633 234.358976 
L 278.303822 234.592922 
L 278.143743 234.829439 
L 277.987436 235.068465 
L 277.834942 235.309942 
L 277.686299 235.553807 
L 277.541543 235.8 
L 277.400711 236.048459 
L 277.263839 236.299121 
L 277.130962 236.551923 
L 277.002112 236.806801 
L 276.877322 237.063692 
L 276.756624 237.32253 
L 276.640048 237.58325 
L 276.527623 237.845788 
L 276.419377 238.110076 
L 276.315339 238.376048 
L 276.215533 238.643637 
L 276.119985 238.912777 
L 276.02872 239.183398 
L 275.94176 239.455433 
L 275.859126 239.728814 
L 275.780841 240.003471 
L 275.706923 240.279336 
L 275.637392 240.556339 
L 275.572264 240.83441 
L 275.511556 241.11348 
L 275.455283 241.393478 
L 275.40346 241.674333 
L 275.3561 241.955975 
L 275.313214 242.238333 
L 275.274813 242.521336 
L 275.240908 242.804912 
L 275.211505 243.088991 
L 275.186614 243.373501 
L 275.16624 243.658369 
L 275.150388 243.943526 
L 275.139062 244.228897 
L 275.132266 244.514413 
L 275.13 244.8 
L 275.13 244.8 
L 275.132266 245.085587 
L 275.139062 245.371103 
L 275.150388 245.656474 
L 275.16624 245.941631 
L 275.186614 246.226499 
L 275.211505 246.511009 
L 275.240908 246.795088 
L 275.274813 247.078664 
L 275.313214 247.361667 
L 275.3561 247.644025 
L 275.40346 247.925667 
L 275.455283 248.206522 
L 275.511556 248.48652 
L 275.572264 248.76559 
L 275.637392 249.043661 
L 275.706923 249.320664 
L 275.780841 249.596529 
L 275.859126 249.871186 
L 275.94176 250.144567 
L 276.02872 250.416602 
L 276.119985 250.687223 
L 276.215533 250.956363 
L 276.315339 251.223952 
L 276.419377 251.489924 
L 276.527623 251.754212 
L 276.640048 252.01675 
L 276.756624 252.27747 
L 276.877322 252.536308 
L 277.002112 252.793199 
L 277.130962 253.048077 
L 277.263839 253.300879 
L 277.400711 253.551541 
L 277.541543 253.8 
L 277.686299 254.046193 
L 277.834942 254.290058 
L 277.987436 254.531535 
L 278.143743 254.770561 
L 278.303822 255.007078 
L 278.467633 255.241024 
L 278.635135 255.472343 
L 278.806287 255.700974 
L 278.981044 255.926862 
L 279.159364 256.149948 
L 279.3412 256.370177 
L 279.526508 256.587493 
L 279.71524 256.801842 
L 279.907349 257.013169 
L 280.102787 257.221422 
L 280.301505 257.426548 
L 280.503452 257.628495 
L 280.708578 257.827213 
L 280.916831 258.022651 
L 281.128158 258.21476 
L 281.342507 258.403492 
L 281.559823 258.5888 
L 281.780052 258.770636 
L 282.003138 258.948956 
L 282.229026 259.123713 
L 282.457657 259.294865 
L 282.688976 259.462367 
L 282.922922 259.626178 
L 283.159439 259.786257 
L 283.398465 259.942564 
L 283.639942 260.095058 
L 283.883807 260.243701 
L 284.13 260.388457 
L 284.378459 260.529289 
L 284.629121 260.666161 
L 284.881923 260.799038 
L 285.136801 260.927888 
L 285.393692 261.052678 
L 285.65253 261.173376 
L 285.91325 261.289952 
L 286.175788 261.402377 
L 286.440076 261.510623 
L 286.706048 261.614661 
L 286.973637 261.714467 
L 287.242777 261.810015 
L 287.513398 261.90128 
L 287.785433 261.98824 
L 288.058814 262.070874 
L 288.333471 262.149159 
L 288.609336 262.223077 
L 288.886339 262.292608 
L 289.16441 262.357736 
L 289.44348 262.418444 
L 289.723478 262.474717 
L 290.004333 262.52654 
L 290.285975 262.5739 
L 290.568333 262.616786 
L 290.851336 262.655187 
L 291.134912 262.689092 
L 291.418991 262.718495 
L 291.703501 262.743386 
L 291.988369 262.76376 
L 292.273526 262.779612 
L 292.558897 262.790938 
L 292.844413 262.797734 
L 293.13 262.8 
L 329.13 262.8 
z
" clip-path="url(#p59195db49e)" style="fill: none; stroke: #000000; stroke-linecap: round"/>
   </g>
   <g id="line2d_1">
    <path d="M 129.33 55.8 
L 129.33 69.3 
L 129.33 73.8 
" clip-path="url(#p59195db49e)" style="fill: none; stroke: #000000; stroke-linecap: round"/>
   </g>
   <g id="patch_5">
    <path d="M 132.03 73.8 
L 129.33 82.8 
L 126.63 73.8 
z
" clip-path="url(#p59195db49e)"/>
   </g>
   <g id="line2d_2">
    <path d="M 89.73 100.8 
L 89.73 82.8 
L 168.93 82.8 
L 168.93 118.8 
L 89.73 118.8 
L 89.73 100.8 
" clip-path="url(#p59195db49e)" style="fill: none; stroke: #000000; stroke-linecap: round"/>
   </g>
   <g id="line2d_3">
    <path d="M 129.33 118.8 
L 129.33 132.3 
L 129.33 136.8 
" clip-path="url(#p59195db49e)" style="fill: none; stroke: #000000; stroke-linecap: round"/>
   </g>
   <g id="patch_6">
    <path d="M 132.03 136.8 
L 129.33 145.8 
L 126.63 136.8 
z
" clip-path="url(#p59195db49e)"/>
   </g>
   <g id="line2d_4">
    <path d="M 192.33 172.8 
L 219.33 172.8 
L 237.33 172.8 
" clip-path="url(#p59195db49e)" style="fill: none; stroke: #000000; stroke-linecap: round"/>
   </g>
   <g id="patch_7">
    <path d="M 237.33 170.1 
L 246.33 172.8 
L 237.33 175.5 
z
" clip-path="url(#p59195db49e)"/>
   </g>
   <g id="line2d_5">
    <path d="M 246.33 172.8 
L 246.33 154.8 
L 375.93 154.8 
L 375.93 190.8 
L 246.33 190.8 
L 246.33 172.8 
" clip-path="url(#p59195db49e)" style="fill: none; stroke: #000000; stroke-linecap: round"/>
   </g>
   <g id="line2d_6">
    <path d="M 311.13 190.8 
L 311.13 208.8 
L 311.13 217.8 
" clip-path="url(#p59195db49e)" style="fill: none; stroke: #000000; stroke-linecap: round"/>
   </g>
   <g id="patch_8">
    <path d="M 313.83 217.8 
L 311.13 226.8 
L 308.43 217.8 
z
" clip-path="url(#p59195db49e)"/>
   </g>
   <g id="line2d_7">
    <path d="M 129.33 199.8 
L 129.33 217.8 
L 129.33 226.8 
" clip-path="url(#p59195db49e)" style="fill: none; stroke: #000000; stroke-linecap: round"/>
   </g>
   <g id="patch_9">
    <path d="M 132.03 226.8 
L 129.33 235.8 
L 126.63 226.8 
z
" clip-path="url(#p59195db49e)"/>
   </g>
   <g id="line2d_8">
    <path d="M 69.93 253.8 
L 69.93 235.8 
L 188.73 235.8 
L 188.73 271.8 
L 69.93 271.8 
L 69.93 253.8 
" clip-path="url(#p59195db49e)" style="fill: none; stroke: #000000; stroke-linecap: round"/>
   </g>
   <g id="line2d_9">
    <path d="M 129.33 271.8 
L 129.33 289.8 
L 129.33 298.8 
" clip-path="url(#p59195db49e)" style="fill: none; stroke: #000000; stroke-linecap: round"/>
   </g>
   <g id="patch_10">
    <path d="M 132.03 298.8 
L 129.33 307.8 
L 126.63 298.8 
z
" clip-path="url(#p59195db49e)"/>
   </g>
   <g id="line2d_10">
    <path d="M 75.33 325.8 
L 75.33 307.8 
L 183.33 307.8 
L 183.33 343.8 
L 75.33 343.8 
L 75.33 325.8 
" clip-path="url(#p59195db49e)" style="fill: none; stroke: #000000; stroke-linecap: round"/>
   </g>
   <g id="line2d_11">
    <path d="M 75.33 325.8 
L 21.33 325.8 
L 21.33 172.8 
L 57.33 172.8 
" clip-path="url(#p59195db49e)" style="fill: none; stroke: #000000; stroke-linecap: round"/>
   </g>
   <g id="patch_11">
    <path d="M 57.33 170.1 
L 66.33 172.8 
L 57.33 175.5 
z
" clip-path="url(#p59195db49e)"/>
   </g>
   <g id="text_1">
    <!-- START -->
    <g transform="translate(110.153242 41.294141) scale(0.125 -0.125)">
     <defs>
      <path id="IPAexGothic-53" d="M 2919 3641 
Q 2563 4259 1853 4259 
Q 1453 4259 1213 4009 
Q 1028 3803 1028 3534 
Q 1028 3238 1266 3047 
Q 1444 2913 1984 2688 
L 2200 2597 
Q 2925 2306 3191 1953 
Q 3422 1644 3422 1259 
Q 3422 644 2969 288 
Q 2559 -31 1931 -31 
Q 881 -31 313 766 
L 753 1100 
Q 1203 459 1938 459 
Q 2288 459 2534 625 
Q 2841 847 2841 1216 
Q 2841 1503 2616 1728 
Q 2375 1959 1728 2206 
L 1541 2278 
Q 453 2694 453 3481 
Q 453 4006 806 4347 
Q 1203 4725 1863 4725 
Q 2841 4725 3359 3956 
L 2919 3641 
z
" transform="scale(0.015625)"/>
      <path id="IPAexGothic-54" d="M 3866 4141 
L 2175 4141 
L 2175 63 
L 1606 63 
L 1606 4141 
L -31 4141 
L -31 4634 
L 3866 4634 
L 3866 4141 
z
" transform="scale(0.015625)"/>
      <path id="IPAexGothic-41" d="M 4056 63 
L 3444 63 
L 2938 1409 
L 1100 1409 
L 603 63 
L -6 63 
L 1806 4666 
L 2259 4666 
L 4056 63 
z
M 2778 1863 
L 2316 3078 
Q 2125 3588 2028 4000 
L 2009 4000 
Q 1897 3563 1716 3078 
L 1263 1863 
L 2778 1863 
z
" transform="scale(0.015625)"/>
      <path id="IPAexGothic-52" d="M 4072 63 
L 3394 63 
Q 3138 641 2828 1197 
Q 2584 1641 2344 1825 
Q 2050 2044 1625 2044 
L 1172 2044 
L 1172 63 
L 609 63 
L 609 4634 
L 2009 4634 
Q 2713 4634 3131 4378 
Q 3688 4044 3688 3381 
Q 3688 2784 3181 2459 
Q 2906 2272 2522 2216 
L 2522 2197 
Q 2941 2050 3247 1581 
Q 3516 1166 4072 63 
z
M 1172 2478 
L 1869 2478 
Q 3106 2478 3106 3369 
Q 3106 4181 1928 4181 
L 1172 4181 
L 1172 2478 
z
" transform="scale(0.015625)"/>
     </defs>
     <use xlink:href="#IPAexGothic-53"/>
     <use xlink:href="#IPAexGothic-54" x="58.496094"/>
     <use xlink:href="#IPAexGothic-41" x="118.408203"/>
     <use xlink:href="#IPAexGothic-52" x="182.128906"/>
     <use xlink:href="#IPAexGothic-54" x="246.923828"/>
    </g>
   </g>
   <g id="text_2">
    <!-- counter = 0 -->
    <g transform="translate(95.02043 104.294141) scale(0.125 -0.125)">
     <defs>
      <path id="IPAexGothic-63" d="M 3269 784 
Q 2834 -31 1900 -31 
Q 1228 -31 788 409 
Q 313 891 313 1663 
Q 313 2428 788 2913 
Q 1222 3347 1881 3347 
Q 2813 3347 3206 2541 
L 2763 2309 
Q 2484 2900 1900 2900 
Q 1516 2900 1234 2619 
Q 881 2266 881 1650 
Q 881 1069 1222 728 
Q 1522 428 1956 428 
Q 2547 428 2847 1016 
L 3269 784 
z
" transform="scale(0.015625)"/>
      <path id="IPAexGothic-6f" d="M 1919 3341 
Q 2594 3341 3056 2888 
Q 3531 2413 3531 1638 
Q 3531 888 3066 422 
Q 2609 -31 1919 -31 
Q 1228 -31 781 416 
Q 313 881 313 1656 
Q 313 2413 788 2888 
Q 1241 3341 1919 3341 
z
M 1919 2919 
Q 1519 2919 1241 2631 
Q 888 2278 888 1650 
Q 888 1031 1234 684 
Q 1516 403 1919 403 
Q 2331 403 2609 691 
Q 2956 1038 2956 1672 
Q 2956 2269 2603 2631 
Q 2316 2919 1919 2919 
z
" transform="scale(0.015625)"/>
      <path id="IPAexGothic-75" d="M 3284 63 
L 2772 63 
L 2772 644 
Q 2300 0 1625 0 
Q 1072 0 763 375 
Q 519 678 519 1241 
L 519 3250 
L 1069 3250 
L 1069 1259 
Q 1069 466 1734 466 
Q 2406 466 2734 1291 
L 2734 3250 
L 3284 3250 
L 3284 63 
z
" transform="scale(0.015625)"/>
      <path id="IPAexGothic-6e" d="M 3328 63 
L 2778 63 
L 2778 2041 
Q 2778 2853 2106 2853 
Q 1428 2853 1113 2041 
L 1113 63 
L 563 63 
L 563 3250 
L 1075 3250 
L 1075 2675 
Q 1525 3316 2222 3316 
Q 3328 3316 3328 2072 
L 3328 63 
z
" transform="scale(0.015625)"/>
      <path id="IPAexGothic-74" d="M 2125 241 
Q 1769 -6 1397 -6 
Q 653 -6 653 831 
L 653 2859 
L 219 2859 
L 219 3250 
L 653 3250 
L 653 3966 
L 1178 4228 
L 1178 3250 
L 2063 3250 
L 2063 2859 
L 1178 2859 
L 1178 906 
Q 1178 416 1513 416 
Q 1738 416 1941 588 
L 2125 241 
z
" transform="scale(0.015625)"/>
      <path id="IPAexGothic-65" d="M 863 1594 
Q 891 1041 1209 722 
Q 1534 397 1997 397 
Q 2606 397 2963 966 
L 3322 728 
Q 2869 -31 1931 -31 
Q 1222 -31 766 422 
Q 306 884 306 1641 
Q 306 2444 788 2925 
Q 1216 3353 1856 3353 
Q 2459 3353 2866 2956 
Q 3322 2494 3322 1722 
L 3322 1594 
L 863 1594 
z
M 2756 1997 
Q 2709 2431 2450 2681 
Q 2194 2938 1844 2938 
Q 1438 2938 1150 2591 
Q 953 2356 894 1997 
L 2756 1997 
z
" transform="scale(0.015625)"/>
      <path id="IPAexGothic-72" d="M 2309 3316 
L 2213 2769 
Q 2106 2791 2022 2791 
Q 1653 2791 1413 2444 
Q 1113 2006 1113 1675 
L 1113 63 
L 563 63 
L 563 3250 
L 1081 3250 
L 1056 2303 
L 1069 2303 
Q 1422 3341 2097 3341 
Q 2206 3341 2309 3316 
z
" transform="scale(0.015625)"/>
      <path id="IPAexGothic-20" transform="scale(0.015625)"/>
      <path id="IPAexGothic-3d" d="M 416 2803 
L 3922 2803 
L 3922 2438 
L 416 2438 
L 416 2803 
z
M 416 1625 
L 3922 1625 
L 3922 1259 
L 416 1259 
L 416 1625 
z
" transform="scale(0.015625)"/>
      <path id="IPAexGothic-30" d="M 2038 4725 
Q 2881 4725 3334 3944 
Q 3694 3325 3694 2344 
Q 3694 1372 3334 741 
Q 2888 -31 2016 -31 
Q 1147 -31 700 741 
Q 341 1372 341 2350 
Q 341 3713 1000 4334 
Q 1419 4725 2038 4725 
z
M 2016 4266 
Q 1516 4266 1228 3759 
Q 934 3247 934 2344 
Q 934 1456 1222 947 
Q 1513 447 2016 447 
Q 2619 447 2909 1153 
Q 3100 1622 3100 2375 
Q 3100 3256 2806 3759 
Q 2509 4266 2016 4266 
z
" transform="scale(0.015625)"/>
     </defs>
     <use xlink:href="#IPAexGothic-63"/>
     <use xlink:href="#IPAexGothic-6f" x="54.394531"/>
     <use xlink:href="#IPAexGothic-75" x="114.794922"/>
     <use xlink:href="#IPAexGothic-6e" x="175.195312"/>
     <use xlink:href="#IPAexGothic-74" x="235.595703"/>
     <use xlink:href="#IPAexGothic-65" x="270.214844"/>
     <use xlink:href="#IPAexGothic-72" x="327.099609"/>
     <use xlink:href="#IPAexGothic-20" x="364.111328"/>
     <use xlink:href="#IPAexGothic-3d" x="391.113281"/>
     <use xlink:href="#IPAexGothic-20" x="458.935547"/>
     <use xlink:href="#IPAexGothic-30" x="485.9375"/>
    </g>
   </g>
   <g id="text_3">
    <!-- True -->
    <g transform="translate(134.01 213.843281) scale(0.125 -0.125)">
     <use xlink:href="#IPAexGothic-54"/>
     <use xlink:href="#IPAexGothic-72" x="59.912109"/>
     <use xlink:href="#IPAexGothic-75" x="96.923828"/>
     <use xlink:href="#IPAexGothic-65" x="157.324219"/>
    </g>
   </g>
   <g id="text_4">
    <!-- False -->
    <g transform="translate(197.01 165.745) scale(0.125 -0.125)">
     <defs>
      <path id="IPAexGothic-46" d="M 3469 4141 
L 1172 4141 
L 1172 2656 
L 3206 2656 
L 3206 2188 
L 1172 2188 
L 1172 63 
L 609 63 
L 609 4634 
L 3469 4634 
L 3469 4141 
z
" transform="scale(0.015625)"/>
      <path id="IPAexGothic-61" d="M 3156 63 
L 2672 63 
Q 2559 303 2531 556 
L 2509 556 
Q 2147 -25 1428 -25 
Q 934 -25 622 288 
Q 347 563 347 959 
Q 347 1947 2050 1997 
L 2478 2009 
L 2478 2175 
Q 2478 2509 2288 2700 
Q 2088 2900 1775 2900 
Q 1238 2900 969 2378 
L 494 2597 
Q 938 3328 1788 3328 
Q 2375 3328 2691 3000 
Q 2984 2706 2984 2169 
L 2984 997 
Q 2984 400 3156 63 
z
M 2491 1625 
L 2141 1619 
Q 903 1591 903 953 
Q 903 728 1050 581 
Q 1231 403 1525 403 
Q 1934 403 2234 703 
Q 2491 969 2491 1344 
L 2491 1625 
z
" transform="scale(0.015625)"/>
      <path id="IPAexGothic-6c" d="M 1131 63 
L 581 63 
L 581 4794 
L 1131 4794 
L 1131 63 
z
" transform="scale(0.015625)"/>
      <path id="IPAexGothic-73" d="M 2234 2547 
Q 1938 2931 1484 2931 
Q 891 2931 891 2475 
Q 891 2153 1531 1944 
L 1741 1875 
Q 2650 1578 2650 894 
Q 2650 434 2272 172 
Q 1972 -31 1497 -31 
Q 766 -31 256 503 
L 603 819 
Q 997 397 1516 397 
Q 2131 397 2131 875 
Q 2131 1238 1453 1478 
L 1234 1553 
Q 378 1853 378 2431 
Q 378 2797 628 3047 
Q 928 3347 1453 3347 
Q 2156 3347 2606 2859 
L 2234 2547 
z
" transform="scale(0.015625)"/>
     </defs>
     <use xlink:href="#IPAexGothic-46"/>
     <use xlink:href="#IPAexGothic-61" x="57.177734"/>
     <use xlink:href="#IPAexGothic-6c" x="112.158203"/>
     <use xlink:href="#IPAexGothic-73" x="139.160156"/>
     <use xlink:href="#IPAexGothic-65" x="185.351562"/>
    </g>
   </g>
   <g id="text_5">
    <!-- counter &lt; 3 ？ -->
    <g transform="translate(87.08293 176.294141) scale(0.125 -0.125)">
     <defs>
      <path id="IPAexGothic-3c" d="M 897 2028 
L 3928 609 
L 3769 263 
L 409 1881 
L 409 2175 
L 3769 3794 
L 3928 3450 
L 897 2028 
z
" transform="scale(0.015625)"/>
      <path id="IPAexGothic-33" d="M 2381 2419 
Q 3506 2216 3506 1278 
Q 3506 716 3128 356 
Q 2709 -31 1944 -31 
Q 797 -31 288 881 
L 756 1131 
Q 1109 441 1938 441 
Q 2425 441 2694 691 
Q 2950 928 2950 1291 
Q 2950 1719 2566 1978 
Q 2216 2213 1644 2213 
L 1363 2213 
L 1363 2669 
L 1656 2669 
Q 2231 2669 2534 2888 
Q 2859 3119 2859 3509 
Q 2859 3934 2494 4138 
Q 2259 4278 1931 4278 
Q 1238 4278 903 3578 
L 434 3803 
Q 897 4725 1938 4725 
Q 2597 4725 3006 4394 
Q 3416 4069 3416 3534 
Q 3416 3028 3019 2706 
Q 2763 2500 2381 2444 
L 2381 2419 
z
" transform="scale(0.015625)"/>
      <path id="IPAexGothic-ff1f" d="M 1503 3444 
Q 1550 4184 1963 4616 
Q 2466 5128 3272 5128 
Q 3888 5128 4313 4853 
Q 4909 4469 4909 3778 
Q 4909 3059 4116 2563 
Q 3628 2250 3506 1881 
Q 3422 1650 3422 1228 
L 2853 1228 
Q 2863 1869 3053 2197 
Q 3281 2588 3847 2950 
Q 4341 3269 4341 3778 
Q 4341 4231 3975 4463 
Q 3697 4634 3266 4634 
Q 2656 4634 2341 4225 
Q 2109 3928 2091 3444 
L 1503 3444 
z
M 2763 647 
L 3506 647 
L 3506 -97 
L 2763 -97 
L 2763 647 
z
" transform="scale(0.015625)"/>
     </defs>
     <use xlink:href="#IPAexGothic-63"/>
     <use xlink:href="#IPAexGothic-6f" x="54.394531"/>
     <use xlink:href="#IPAexGothic-75" x="114.794922"/>
     <use xlink:href="#IPAexGothic-6e" x="175.195312"/>
     <use xlink:href="#IPAexGothic-74" x="235.595703"/>
     <use xlink:href="#IPAexGothic-65" x="270.214844"/>
     <use xlink:href="#IPAexGothic-72" x="327.099609"/>
     <use xlink:href="#IPAexGothic-20" x="364.111328"/>
     <use xlink:href="#IPAexGothic-3c" x="391.113281"/>
     <use xlink:href="#IPAexGothic-20" x="458.935547"/>
     <use xlink:href="#IPAexGothic-33" x="485.9375"/>
     <use xlink:href="#IPAexGothic-20" x="548.925781"/>
     <use xlink:href="#IPAexGothic-ff1f" x="575.927734"/>
    </g>
   </g>
   <g id="text_6">
    <!-- print('無事終了(^^)') -->
    <g transform="translate(255.323359 176.818555) scale(0.125 -0.125)">
     <defs>
      <path id="IPAexGothic-70" d="M 1075 2688 
Q 1525 3341 2206 3341 
Q 2769 3341 3172 2938 
Q 3641 2469 3641 1644 
Q 3641 841 3178 372 
Q 2775 -31 2200 -31 
Q 1569 -31 1106 497 
L 1106 -1216 
L 563 -1216 
L 563 3250 
L 1075 3250 
L 1075 2688 
z
M 1106 1950 
L 1106 1291 
Q 1106 897 1516 600 
Q 1791 403 2106 403 
Q 2469 403 2725 659 
Q 3066 997 3066 1631 
Q 3066 2200 2784 2559 
Q 2503 2900 2100 2900 
Q 1656 2900 1338 2484 
Q 1106 2184 1106 1950 
z
" transform="scale(0.015625)"/>
      <path id="IPAexGothic-69" d="M 1178 3928 
L 550 3928 
L 550 4569 
L 1178 4569 
L 1178 3928 
z
M 1138 63 
L 588 63 
L 588 3250 
L 1138 3250 
L 1138 63 
z
" transform="scale(0.015625)"/>
      <path id="IPAexGothic-28" d="M 1928 -1016 
L 1653 -1166 
Q 488 69 488 1875 
Q 488 3678 1653 4909 
L 1928 4763 
Q 1006 3522 1006 1881 
Q 1006 203 1928 -1016 
z
" transform="scale(0.015625)"/>
      <path id="IPAexGothic-27" d="M 900 4794 
L 806 3084 
L 422 3084 
L 325 4794 
L 900 4794 
z
" transform="scale(0.015625)"/>
      <path id="IPAexGothic-7121" d="M 5134 4238 
L 5134 3188 
L 6044 3188 
L 6044 2791 
L 5134 2791 
L 5134 1716 
L 5850 1716 
L 5850 1319 
L 544 1319 
L 544 1716 
L 1409 1716 
L 1409 2791 
L 353 2791 
L 353 3188 
L 1409 3188 
L 1409 4044 
Q 1156 3691 884 3438 
L 572 3731 
Q 1291 4394 1666 5306 
L 2094 5159 
Q 2038 5041 1800 4628 
L 5697 4628 
L 5697 4238 
L 5134 4238 
z
M 1825 4238 
L 1825 3188 
L 2516 3188 
L 2516 4238 
L 1825 4238 
z
M 2906 4238 
L 2906 3188 
L 3597 3188 
L 3597 4238 
L 2906 4238 
z
M 3988 4238 
L 3988 3188 
L 4719 3188 
L 4719 4238 
L 3988 4238 
z
M 4719 2791 
L 3988 2791 
L 3988 1716 
L 4719 1716 
L 4719 2791 
z
M 3597 2791 
L 2906 2791 
L 2906 1716 
L 3597 1716 
L 3597 2791 
z
M 2516 2791 
L 1825 2791 
L 1825 1716 
L 2516 1716 
L 2516 2791 
z
M 506 -159 
Q 997 369 1294 1106 
L 1716 934 
Q 1400 91 909 -488 
L 506 -159 
z
M 2466 -441 
Q 2391 256 2222 903 
L 2656 991 
Q 2869 350 2963 -331 
L 2466 -441 
z
M 3859 -341 
Q 3659 413 3381 953 
L 3822 1094 
Q 4100 578 4347 -159 
L 3859 -341 
z
M 5569 -359 
Q 5094 469 4616 991 
L 5006 1209 
Q 5578 609 6009 -63 
L 5569 -359 
z
" transform="scale(0.015625)"/>
      <path id="IPAexGothic-4e8b" d="M 2950 3922 
L 2950 4294 
L 478 4294 
L 478 4659 
L 2950 4659 
L 2950 5313 
L 3403 5313 
L 3403 4659 
L 5919 4659 
L 5919 4294 
L 3403 4294 
L 3403 3922 
L 5234 3922 
L 5234 2822 
L 3403 2822 
L 3403 2450 
L 5325 2450 
L 5325 1759 
L 6081 1759 
L 6081 1381 
L 5325 1381 
L 5325 397 
L 4881 397 
L 4881 672 
L 3403 672 
L 3403 6 
Q 3403 -263 3269 -356 
Q 3150 -441 2841 -441 
Q 2497 -441 2116 -403 
L 2041 56 
Q 2450 -25 2731 -25 
Q 2950 -25 2950 159 
L 2950 672 
L 844 672 
L 844 1025 
L 2950 1025 
L 2950 1394 
L 319 1394 
L 319 1747 
L 2950 1747 
L 2950 2097 
L 838 2097 
L 838 2450 
L 2950 2450 
L 2950 2822 
L 1156 2822 
L 1156 3922 
L 2950 3922 
z
M 2950 3591 
L 1584 3591 
L 1584 3163 
L 2950 3163 
L 2950 3591 
z
M 3403 3591 
L 3403 3163 
L 4806 3163 
L 4806 3591 
L 3403 3591 
z
M 3403 1025 
L 4881 1025 
L 4881 1394 
L 3403 1394 
L 3403 1025 
z
M 3403 1747 
L 4881 1747 
L 4881 2097 
L 3403 2097 
L 3403 1747 
z
" transform="scale(0.015625)"/>
      <path id="IPAexGothic-7d42" d="M 1259 3066 
Q 825 3678 378 4128 
L 666 4422 
Q 828 4259 916 4153 
Q 1300 4750 1541 5331 
L 1956 5119 
Q 1547 4363 1150 3859 
Q 1338 3625 1491 3391 
Q 1900 3994 2200 4544 
L 2578 4300 
Q 1994 3347 1338 2572 
L 1638 2591 
Q 2006 2609 2200 2631 
Q 2075 2919 1950 3150 
L 2297 3297 
Q 2606 2763 2822 2106 
L 2444 1919 
Q 2403 2063 2316 2316 
Q 2228 2294 1778 2234 
L 1778 -447 
L 1363 -447 
L 1363 2181 
Q 972 2134 428 2106 
L 281 2534 
Q 619 2544 869 2553 
Q 1138 2900 1259 3066 
z
M 4709 2859 
Q 5281 2319 6144 1984 
L 5844 1575 
Q 5028 1969 4447 2547 
Q 3819 1869 2888 1388 
L 2603 1753 
Q 3584 2172 4172 2834 
Q 3800 3291 3553 3719 
Q 3284 3294 2866 2888 
L 2591 3206 
Q 3384 3944 3800 5288 
L 4219 5153 
Q 4066 4738 4031 4659 
L 5325 4659 
L 5556 4447 
Q 5234 3569 4709 2859 
z
M 4428 3150 
Q 4838 3706 5031 4269 
L 3859 4269 
Q 3813 4166 3769 4097 
Q 4028 3609 4428 3150 
z
M 359 197 
Q 588 863 653 1759 
L 1063 1709 
Q 994 684 769 -13 
L 359 197 
z
M 2253 306 
Q 2125 1138 1919 1759 
L 2278 1869 
Q 2525 1250 2681 481 
L 2253 306 
z
M 5003 831 
Q 4456 1244 3794 1563 
L 4056 1894 
Q 4644 1597 5278 1191 
L 5003 831 
z
M 5344 -422 
Q 4356 134 3175 594 
L 3397 947 
Q 4528 509 5600 -44 
L 5344 -422 
z
" transform="scale(0.015625)"/>
      <path id="IPAexGothic-4e86" d="M 3475 2997 
L 3475 206 
Q 3475 -94 3372 -197 
Q 3253 -325 2897 -325 
Q 2466 -325 1944 -263 
L 1850 269 
Q 2447 181 2756 181 
Q 2975 181 2975 409 
L 2975 3188 
Q 3916 3756 4544 4372 
L 1044 4372 
L 1044 4800 
L 5138 4800 
L 5428 4500 
Q 4453 3622 3475 2997 
z
" transform="scale(0.015625)"/>
      <path id="IPAexGothic-5e" d="M 3059 2344 
L 2784 2075 
L 1600 3469 
L 416 2075 
L 141 2344 
L 1600 4013 
L 3059 2344 
z
" transform="scale(0.015625)"/>
      <path id="IPAexGothic-29" d="M 466 4909 
Q 1638 3672 1638 1875 
Q 1638 75 466 -1166 
L 191 -1016 
Q 1119 216 1119 1881 
Q 1119 3509 191 4763 
L 466 4909 
z
" transform="scale(0.015625)"/>
     </defs>
     <use xlink:href="#IPAexGothic-70"/>
     <use xlink:href="#IPAexGothic-72" x="62.109375"/>
     <use xlink:href="#IPAexGothic-69" x="99.121094"/>
     <use xlink:href="#IPAexGothic-6e" x="126.123047"/>
     <use xlink:href="#IPAexGothic-74" x="186.523438"/>
     <use xlink:href="#IPAexGothic-28" x="221.142578"/>
     <use xlink:href="#IPAexGothic-27" x="254.443359"/>
     <use xlink:href="#IPAexGothic-7121" x="273.730469"/>
     <use xlink:href="#IPAexGothic-4e8b" x="373.730469"/>
     <use xlink:href="#IPAexGothic-7d42" x="473.730469"/>
     <use xlink:href="#IPAexGothic-4e86" x="573.730469"/>
     <use xlink:href="#IPAexGothic-28" x="673.730469"/>
     <use xlink:href="#IPAexGothic-5e" x="707.03125"/>
     <use xlink:href="#IPAexGothic-5e" x="757.03125"/>
     <use xlink:href="#IPAexGothic-29" x="807.03125"/>
     <use xlink:href="#IPAexGothic-27" x="840.332031"/>
     <use xlink:href="#IPAexGothic-29" x="859.619141"/>
    </g>
   </g>
   <g id="text_7">
    <!-- END -->
    <g transform="translate(297.930781 248.294141) scale(0.125 -0.125)">
     <defs>
      <path id="IPAexGothic-45" d="M 3547 63 
L 609 63 
L 609 4634 
L 3469 4634 
L 3469 4147 
L 1166 4147 
L 1166 2650 
L 3206 2650 
L 3206 2191 
L 1166 2191 
L 1166 556 
L 3547 556 
L 3547 63 
z
" transform="scale(0.015625)"/>
      <path id="IPAexGothic-4e" d="M 4244 63 
L 3731 63 
L 1697 3150 
Q 1466 3500 1141 4097 
L 1116 4097 
L 1128 3797 
Q 1159 2803 1159 2469 
L 1159 63 
L 609 63 
L 609 4634 
L 1366 4634 
L 3113 1978 
Q 3453 1447 3713 966 
L 3738 966 
Q 3694 1897 3694 2469 
L 3694 4634 
L 4244 4634 
L 4244 63 
z
" transform="scale(0.015625)"/>
      <path id="IPAexGothic-44" d="M 609 4634 
L 1984 4634 
Q 3159 4634 3791 4050 
Q 4456 3444 4456 2356 
Q 4456 1047 3516 441 
Q 2925 63 1941 63 
L 609 63 
L 609 4634 
z
M 1172 556 
L 1894 556 
Q 3853 556 3853 2356 
Q 3853 4147 1928 4147 
L 1172 4147 
L 1172 556 
z
" transform="scale(0.015625)"/>
     </defs>
     <use xlink:href="#IPAexGothic-45"/>
     <use xlink:href="#IPAexGothic-4e" x="59.521484"/>
     <use xlink:href="#IPAexGothic-44" x="135.498047"/>
    </g>
   </g>
   <g id="text_8">
    <!-- print(counter) -->
    <g transform="translate(88.586836 257.406445) scale(0.125 -0.125)">
     <use xlink:href="#IPAexGothic-70"/>
     <use xlink:href="#IPAexGothic-72" x="62.109375"/>
     <use xlink:href="#IPAexGothic-69" x="99.121094"/>
     <use xlink:href="#IPAexGothic-6e" x="126.123047"/>
     <use xlink:href="#IPAexGothic-74" x="186.523438"/>
     <use xlink:href="#IPAexGothic-28" x="221.142578"/>
     <use xlink:href="#IPAexGothic-63" x="254.443359"/>
     <use xlink:href="#IPAexGothic-6f" x="308.837891"/>
     <use xlink:href="#IPAexGothic-75" x="369.238281"/>
     <use xlink:href="#IPAexGothic-6e" x="429.638672"/>
     <use xlink:href="#IPAexGothic-74" x="490.039062"/>
     <use xlink:href="#IPAexGothic-65" x="524.658203"/>
     <use xlink:href="#IPAexGothic-72" x="581.542969"/>
     <use xlink:href="#IPAexGothic-29" x="618.554688"/>
    </g>
   </g>
   <g id="text_9">
    <!-- counter += 1 -->
    <g transform="translate(90.781172 329.294141) scale(0.125 -0.125)">
     <defs>
      <path id="IPAexGothic-2b" d="M 2369 1856 
L 2369 219 
L 1984 219 
L 1984 1856 
L 416 1856 
L 416 2216 
L 1984 2216 
L 1984 3725 
L 2369 3725 
L 2369 2216 
L 3922 2216 
L 3922 1856 
L 2369 1856 
z
" transform="scale(0.015625)"/>
      <path id="IPAexGothic-31" d="M 2463 63 
L 1900 63 
L 1900 4103 
Q 1372 3922 788 3797 
L 684 4231 
Q 1519 4441 2106 4731 
L 2463 4731 
L 2463 63 
z
" transform="scale(0.015625)"/>
     </defs>
     <use xlink:href="#IPAexGothic-63"/>
     <use xlink:href="#IPAexGothic-6f" x="54.394531"/>
     <use xlink:href="#IPAexGothic-75" x="114.794922"/>
     <use xlink:href="#IPAexGothic-6e" x="175.195312"/>
     <use xlink:href="#IPAexGothic-74" x="235.595703"/>
     <use xlink:href="#IPAexGothic-65" x="270.214844"/>
     <use xlink:href="#IPAexGothic-72" x="327.099609"/>
     <use xlink:href="#IPAexGothic-20" x="364.111328"/>
     <use xlink:href="#IPAexGothic-2b" x="391.113281"/>
     <use xlink:href="#IPAexGothic-3d" x="458.935547"/>
     <use xlink:href="#IPAexGothic-20" x="526.757812"/>
     <use xlink:href="#IPAexGothic-31" x="553.759766"/>
    </g>
   </g>
  </g>
 </g>
 <defs>
  <clipPath id="p59195db49e">
   <rect x="3.6" y="3.6" width="390.06" height="356.4"/>
  </clipPath>
 </defs>
</svg>