<?xml version="1.0" encoding="utf-8" standalone="no"?>
<!DOCTYPE svg PUBLIC "-//W3C//DTD SVG 1.1//EN"
  "http://www.w3.org/Graphics/SVG/1.1/DTD/svg11.dtd">
<svg xmlns:xlink="http://www.w3.org/1999/xlink" width="284.4pt" height="268.56pt" viewBox="0 0 284.4 268.56" xmlns="http://www.w3.org/2000/svg" version="1.1">
 <metadata>
  <rdf:RDF xmlns:dc="http://purl.org/dc/elements/1.1/" xmlns:cc="http://creativecommons.org/ns#" xmlns:rdf="http://www.w3.org/1999/02/22-rdf-syntax-ns#">
   <cc:Work>
    <dc:type rdf:resource="http://purl.org/dc/dcmitype/StillImage"/>
    <dc:date>2024-03-09T04:23:40.126845</dc:date>
    <dc:format>image/svg+xml</dc:format>
    <dc:creator>
     <cc:Agent>
      <dc:title>Matplotlib v3.8.3, https://matplotlib.org/</dc:title>
     </cc:Agent>
    </dc:creator>
   </cc:Work>
  </rdf:RDF>
 </metadata>
 <defs>
  <style type="text/css">*{stroke-linejoin: round; stroke-linecap: butt}</style>
 </defs>
 <g id="figure_1">
  <g id="patch_1">
   <path d="M 0 268.56 
L 284.4 268.56 
L 284.4 0 
L 0 0 
z
" style="fill: #ffffff"/>
  </g>
  <g id="axes_1">
   <g id="patch_2">
    <path d="M 97.2 51.48 
L 97.485587 51.477734 
L 97.771103 51.470938 
L 98.056474 51.459612 
L 98.341631 51.44376 
L 98.626499 51.423386 
L 98.911009 51.398495 
L 99.195088 51.369092 
L 99.478664 51.335187 
L 99.761667 51.296786 
L 100.044025 51.2539 
L 100.325667 51.20654 
L 100.606522 51.154717 
L 100.88652 51.098444 
L 101.16559 51.037736 
L 101.443661 50.972608 
L 101.720664 50.903077 
L 101.996529 50.829159 
L 102.271186 50.750874 
L 102.544567 50.66824 
L 102.816602 50.58128 
L 103.087223 50.490015 
L 103.356363 50.394467 
L 103.623952 50.294661 
L 103.889924 50.190623 
L 104.154212 50.082377 
L 104.41675 49.969952 
L 104.67747 49.853376 
L 104.936308 49.732678 
L 105.193199 49.607888 
L 105.448077 49.479038 
L 105.700879 49.346161 
L 105.951541 49.209289 
L 106.2 49.068457 
L 106.446193 48.923701 
L 106.690058 48.775058 
L 106.931535 48.622564 
L 107.170561 48.466257 
L 107.407078 48.306178 
L 107.641024 48.142367 
L 107.872343 47.974865 
L 108.100974 47.803713 
L 108.326862 47.628956 
L 108.549948 47.450636 
L 108.770177 47.2688 
L 108.987493 47.083492 
L 109.201842 46.89476 
L 109.413169 46.702651 
L 109.621422 46.507213 
L 109.826548 46.308495 
L 110.028495 46.106548 
L 110.227213 45.901422 
L 110.422651 45.693169 
L 110.61476 45.481842 
L 110.803492 45.267493 
L 110.9888 45.050177 
L 111.170636 44.829948 
L 111.348956 44.606862 
L 111.523713 44.380974 
L 111.694865 44.152343 
L 111.862367 43.921024 
L 112.026178 43.687078 
L 112.186257 43.450561 
L 112.342564 43.211535 
L 112.495058 42.970058 
L 112.643701 42.726193 
L 112.788457 42.48 
L 112.929289 42.231541 
L 113.066161 41.980879 
L 113.199038 41.728077 
L 113.327888 41.473199 
L 113.452678 41.216308 
L 113.573376 40.95747 
L 113.689952 40.69675 
L 113.802377 40.434212 
L 113.910623 40.169924 
L 114.014661 39.903952 
L 114.114467 39.636363 
L 114.210015 39.367223 
L 114.30128 39.096602 
L 114.38824 38.824567 
L 114.470874 38.551186 
L 114.549159 38.276529 
L 114.623077 38.000664 
L 114.692608 37.723661 
L 114.757736 37.44559 
L 114.818444 37.16652 
L 114.874717 36.886522 
L 114.92654 36.605667 
L 114.9739 36.324025 
L 115.016786 36.041667 
L 115.055187 35.758664 
L 115.089092 35.475088 
L 115.118495 35.191009 
L 115.143386 34.906499 
L 115.16376 34.621631 
L 115.179612 34.336474 
L 115.190938 34.051103 
L 115.197734 33.765587 
L 115.2 33.48 
L 115.2 33.48 
L 115.197734 33.194413 
L 115.190938 32.908897 
L 115.179612 32.623526 
L 115.16376 32.338369 
L 115.143386 32.053501 
L 115.118495 31.768991 
L 115.089092 31.484912 
L 115.055187 31.201336 
L 115.016786 30.918333 
L 114.9739 30.635975 
L 114.92654 30.354333 
L 114.874717 30.073478 
L 114.818444 29.79348 
L 114.757736 29.51441 
L 114.692608 29.236339 
L 114.623077 28.959336 
L 114.549159 28.683471 
L 114.470874 28.408814 
L 114.38824 28.135433 
L 114.30128 27.863398 
L 114.210015 27.592777 
L 114.114467 27.323637 
L 114.014661 27.056048 
L 113.910623 26.790076 
L 113.802377 26.525788 
L 113.689952 26.26325 
L 113.573376 26.00253 
L 113.452678 25.743692 
L 113.327888 25.486801 
L 113.199038 25.231923 
L 113.066161 24.979121 
L 112.929289 24.728459 
L 112.788457 24.48 
L 112.643701 24.233807 
L 112.495058 23.989942 
L 112.342564 23.748465 
L 112.186257 23.509439 
L 112.026178 23.272922 
L 111.862367 23.038976 
L 111.694865 22.807657 
L 111.523713 22.579026 
L 111.348956 22.353138 
L 111.170636 22.130052 
L 110.9888 21.909823 
L 110.803492 21.692507 
L 110.61476 21.478158 
L 110.422651 21.266831 
L 110.227213 21.058578 
L 110.028495 20.853452 
L 109.826548 20.651505 
L 109.621422 20.452787 
L 109.413169 20.257349 
L 109.201842 20.06524 
L 108.987493 19.876508 
L 108.770177 19.6912 
L 108.549948 19.509364 
L 108.326862 19.331044 
L 108.100974 19.156287 
L 107.872343 18.985135 
L 107.641024 18.817633 
L 107.407078 18.653822 
L 107.170561 18.493743 
L 106.931535 18.337436 
L 106.690058 18.184942 
L 106.446193 18.036299 
L 106.2 17.891543 
L 105.951541 17.750711 
L 105.700879 17.613839 
L 105.448077 17.480962 
L 105.193199 17.352112 
L 104.936308 17.227322 
L 104.67747 17.106624 
L 104.41675 16.990048 
L 104.154212 16.877623 
L 103.889924 16.769377 
L 103.623952 16.665339 
L 103.356363 16.565533 
L 103.087223 16.469985 
L 102.816602 16.37872 
L 102.544567 16.29176 
L 102.271186 16.209126 
L 101.996529 16.130841 
L 101.720664 16.056923 
L 101.443661 15.987392 
L 101.16559 15.922264 
L 100.88652 15.861556 
L 100.606522 15.805283 
L 100.325667 15.75346 
L 100.044025 15.7061 
L 99.761667 15.663214 
L 99.478664 15.624813 
L 99.195088 15.590908 
L 98.911009 15.561505 
L 98.626499 15.536614 
L 98.341631 15.51624 
L 98.056474 15.500388 
L 97.771103 15.489062 
L 97.485587 15.482266 
L 97.2 15.48 
L 61.2 15.48 
L 60.914413 15.482266 
L 60.628897 15.489062 
L 60.343526 15.500388 
L 60.058369 15.51624 
L 59.773501 15.536614 
L 59.488991 15.561505 
L 59.204912 15.590908 
L 58.921336 15.624813 
L 58.638333 15.663214 
L 58.355975 15.7061 
L 58.074333 15.75346 
L 57.793478 15.805283 
L 57.51348 15.861556 
L 57.23441 15.922264 
L 56.956339 15.987392 
L 56.679336 16.056923 
L 56.403471 16.130841 
L 56.128814 16.209126 
L 55.855433 16.29176 
L 55.583398 16.37872 
L 55.312777 16.469985 
L 55.043637 16.565533 
L 54.776048 16.665339 
L 54.510076 16.769377 
L 54.245788 16.877623 
L 53.98325 16.990048 
L 53.72253 17.106624 
L 53.463692 17.227322 
L 53.206801 17.352112 
L 52.951923 17.480962 
L 52.699121 17.613839 
L 52.448459 17.750711 
L 52.2 17.891543 
L 51.953807 18.036299 
L 51.709942 18.184942 
L 51.468465 18.337436 
L 51.229439 18.493743 
L 50.992922 18.653822 
L 50.758976 18.817633 
L 50.527657 18.985135 
L 50.299026 19.156287 
L 50.073138 19.331044 
L 49.850052 19.509364 
L 49.629823 19.6912 
L 49.412507 19.876508 
L 49.198158 20.06524 
L 48.986831 20.257349 
L 48.778578 20.452787 
L 48.573452 20.651505 
L 48.371505 20.853452 
L 48.172787 21.058578 
L 47.977349 21.266831 
L 47.78524 21.478158 
L 47.596508 21.692507 
L 47.4112 21.909823 
L 47.229364 22.130052 
L 47.051044 22.353138 
L 46.876287 22.579026 
L 46.705135 22.807657 
L 46.537633 23.038976 
L 46.373822 23.272922 
L 46.213743 23.509439 
L 46.057436 23.748465 
L 45.904942 23.989942 
L 45.756299 24.233807 
L 45.611543 24.48 
L 45.470711 24.728459 
L 45.333839 24.979121 
L 45.200962 25.231923 
L 45.072112 25.486801 
L 44.947322 25.743692 
L 44.826624 26.00253 
L 44.710048 26.26325 
L 44.597623 26.525788 
L 44.489377 26.790076 
L 44.385339 27.056048 
L 44.285533 27.323637 
L 44.189985 27.592777 
L 44.09872 27.863398 
L 44.01176 28.135433 
L 43.929126 28.408814 
L 43.850841 28.683471 
L 43.776923 28.959336 
L 43.707392 29.236339 
L 43.642264 29.51441 
L 43.581556 29.79348 
L 43.525283 30.073478 
L 43.47346 30.354333 
L 43.4261 30.635975 
L 43.383214 30.918333 
L 43.344813 31.201336 
L 43.310908 31.484912 
L 43.281505 31.768991 
L 43.256614 32.053501 
L 43.23624 32.338369 
L 43.220388 32.623526 
L 43.209062 32.908897 
L 43.202266 33.194413 
L 43.2 33.48 
L 43.2 33.48 
L 43.202266 33.765587 
L 43.209062 34.051103 
L 43.220388 34.336474 
L 43.23624 34.621631 
L 43.256614 34.906499 
L 43.281505 35.191009 
L 43.310908 35.475088 
L 43.344813 35.758664 
L 43.383214 36.041667 
L 43.4261 36.324025 
L 43.47346 36.605667 
L 43.525283 36.886522 
L 43.581556 37.16652 
L 43.642264 37.44559 
L 43.707392 37.723661 
L 43.776923 38.000664 
L 43.850841 38.276529 
L 43.929126 38.551186 
L 44.01176 38.824567 
L 44.09872 39.096602 
L 44.189985 39.367223 
L 44.285533 39.636363 
L 44.385339 39.903952 
L 44.489377 40.169924 
L 44.597623 40.434212 
L 44.710048 40.69675 
L 44.826624 40.95747 
L 44.947322 41.216308 
L 45.072112 41.473199 
L 45.200962 41.728077 
L 45.333839 41.980879 
L 45.470711 42.231541 
L 45.611543 42.48 
L 45.756299 42.726193 
L 45.904942 42.970058 
L 46.057436 43.211535 
L 46.213743 43.450561 
L 46.373822 43.687078 
L 46.537633 43.921024 
L 46.705135 44.152343 
L 46.876287 44.380974 
L 47.051044 44.606862 
L 47.229364 44.829948 
L 47.4112 45.050177 
L 47.596508 45.267493 
L 47.78524 45.481842 
L 47.977349 45.693169 
L 48.172787 45.901422 
L 48.371505 46.106548 
L 48.573452 46.308495 
L 48.778578 46.507213 
L 48.986831 46.702651 
L 49.198158 46.89476 
L 49.412507 47.083492 
L 49.629823 47.2688 
L 49.850052 47.450636 
L 50.073138 47.628956 
L 50.299026 47.803713 
L 50.527657 47.974865 
L 50.758976 48.142367 
L 50.992922 48.306178 
L 51.229439 48.466257 
L 51.468465 48.622564 
L 51.709942 48.775058 
L 51.953807 48.923701 
L 52.2 49.068457 
L 52.448459 49.209289 
L 52.699121 49.346161 
L 52.951923 49.479038 
L 53.206801 49.607888 
L 53.463692 49.732678 
L 53.72253 49.853376 
L 53.98325 49.969952 
L 54.245788 50.082377 
L 54.510076 50.190623 
L 54.776048 50.294661 
L 55.043637 50.394467 
L 55.312777 50.490015 
L 55.583398 50.58128 
L 55.855433 50.66824 
L 56.128814 50.750874 
L 56.403471 50.829159 
L 56.679336 50.903077 
L 56.956339 50.972608 
L 57.23441 51.037736 
L 57.51348 51.098444 
L 57.793478 51.154717 
L 58.074333 51.20654 
L 58.355975 51.2539 
L 58.638333 51.296786 
L 58.921336 51.335187 
L 59.204912 51.369092 
L 59.488991 51.398495 
L 59.773501 51.423386 
L 60.058369 51.44376 
L 60.343526 51.459612 
L 60.628897 51.470938 
L 60.914413 51.477734 
L 61.2 51.48 
L 97.2 51.48 
z
" clip-path="url(#p3c1e1beb82)" style="fill: none; stroke: #000000; stroke-linecap: round"/>
   </g>
   <g id="patch_3">
    <path d="M 16.2 100.08 
L 79.2 78.48 
L 142.2 100.08 
L 79.2 121.68 
L 16.2 100.08 
z
" clip-path="url(#p3c1e1beb82)" style="fill: none; stroke: #000000; stroke-linecap: round"/>
   </g>
   <g id="patch_4">
    <path d="M 250.2 173.88 
L 250.485587 173.877734 
L 250.771103 173.870938 
L 251.056474 173.859612 
L 251.341631 173.84376 
L 251.626499 173.823386 
L 251.911009 173.798495 
L 252.195088 173.769092 
L 252.478664 173.735187 
L 252.761667 173.696786 
L 253.044025 173.6539 
L 253.325667 173.60654 
L 253.606522 173.554717 
L 253.88652 173.498444 
L 254.16559 173.437736 
L 254.443661 173.372608 
L 254.720664 173.303077 
L 254.996529 173.229159 
L 255.271186 173.150874 
L 255.544567 173.06824 
L 255.816602 172.98128 
L 256.087223 172.890015 
L 256.356363 172.794467 
L 256.623952 172.694661 
L 256.889924 172.590623 
L 257.154212 172.482377 
L 257.41675 172.369952 
L 257.67747 172.253376 
L 257.936308 172.132678 
L 258.193199 172.007888 
L 258.448077 171.879038 
L 258.700879 171.746161 
L 258.951541 171.609289 
L 259.2 171.468457 
L 259.446193 171.323701 
L 259.690058 171.175058 
L 259.931535 171.022564 
L 260.170561 170.866257 
L 260.407078 170.706178 
L 260.641024 170.542367 
L 260.872343 170.374865 
L 261.100974 170.203713 
L 261.326862 170.028956 
L 261.549948 169.850636 
L 261.770177 169.6688 
L 261.987493 169.483492 
L 262.201842 169.29476 
L 262.413169 169.102651 
L 262.621422 168.907213 
L 262.826548 168.708495 
L 263.028495 168.506548 
L 263.227213 168.301422 
L 263.422651 168.093169 
L 263.61476 167.881842 
L 263.803492 167.667493 
L 263.9888 167.450177 
L 264.170636 167.229948 
L 264.348956 167.006862 
L 264.523713 166.780974 
L 264.694865 166.552343 
L 264.862367 166.321024 
L 265.026178 166.087078 
L 265.186257 165.850561 
L 265.342564 165.611535 
L 265.495058 165.370058 
L 265.643701 165.126193 
L 265.788457 164.88 
L 265.929289 164.631541 
L 266.066161 164.380879 
L 266.199038 164.128077 
L 266.327888 163.873199 
L 266.452678 163.616308 
L 266.573376 163.35747 
L 266.689952 163.09675 
L 266.802377 162.834212 
L 266.910623 162.569924 
L 267.014661 162.303952 
L 267.114467 162.036363 
L 267.210015 161.767223 
L 267.30128 161.496602 
L 267.38824 161.224567 
L 267.470874 160.951186 
L 267.549159 160.676529 
L 267.623077 160.400664 
L 267.692608 160.123661 
L 267.757736 159.84559 
L 267.818444 159.56652 
L 267.874717 159.286522 
L 267.92654 159.005667 
L 267.9739 158.724025 
L 268.016786 158.441667 
L 268.055187 158.158664 
L 268.089092 157.875088 
L 268.118495 157.591009 
L 268.143386 157.306499 
L 268.16376 157.021631 
L 268.179612 156.736474 
L 268.190938 156.451103 
L 268.197734 156.165587 
L 268.2 155.88 
L 268.2 155.88 
L 268.197734 155.594413 
L 268.190938 155.308897 
L 268.179612 155.023526 
L 268.16376 154.738369 
L 268.143386 154.453501 
L 268.118495 154.168991 
L 268.089092 153.884912 
L 268.055187 153.601336 
L 268.016786 153.318333 
L 267.9739 153.035975 
L 267.92654 152.754333 
L 267.874717 152.473478 
L 267.818444 152.19348 
L 267.757736 151.91441 
L 267.692608 151.636339 
L 267.623077 151.359336 
L 267.549159 151.083471 
L 267.470874 150.808814 
L 267.38824 150.535433 
L 267.30128 150.263398 
L 267.210015 149.992777 
L 267.114467 149.723637 
L 267.014661 149.456048 
L 266.910623 149.190076 
L 266.802377 148.925788 
L 266.689952 148.66325 
L 266.573376 148.40253 
L 266.452678 148.143692 
L 266.327888 147.886801 
L 266.199038 147.631923 
L 266.066161 147.379121 
L 265.929289 147.128459 
L 265.788457 146.88 
L 265.643701 146.633807 
L 265.495058 146.389942 
L 265.342564 146.148465 
L 265.186257 145.909439 
L 265.026178 145.672922 
L 264.862367 145.438976 
L 264.694865 145.207657 
L 264.523713 144.979026 
L 264.348956 144.753138 
L 264.170636 144.530052 
L 263.9888 144.309823 
L 263.803492 144.092507 
L 263.61476 143.878158 
L 263.422651 143.666831 
L 263.227213 143.458578 
L 263.028495 143.253452 
L 262.826548 143.051505 
L 262.621422 142.852787 
L 262.413169 142.657349 
L 262.201842 142.46524 
L 261.987493 142.276508 
L 261.770177 142.0912 
L 261.549948 141.909364 
L 261.326862 141.731044 
L 261.100974 141.556287 
L 260.872343 141.385135 
L 260.641024 141.217633 
L 260.407078 141.053822 
L 260.170561 140.893743 
L 259.931535 140.737436 
L 259.690058 140.584942 
L 259.446193 140.436299 
L 259.2 140.291543 
L 258.951541 140.150711 
L 258.700879 140.013839 
L 258.448077 139.880962 
L 258.193199 139.752112 
L 257.936308 139.627322 
L 257.67747 139.506624 
L 257.41675 139.390048 
L 257.154212 139.277623 
L 256.889924 139.169377 
L 256.623952 139.065339 
L 256.356363 138.965533 
L 256.087223 138.869985 
L 255.816602 138.77872 
L 255.544567 138.69176 
L 255.271186 138.609126 
L 254.996529 138.530841 
L 254.720664 138.456923 
L 254.443661 138.387392 
L 254.16559 138.322264 
L 253.88652 138.261556 
L 253.606522 138.205283 
L 253.325667 138.15346 
L 253.044025 138.1061 
L 252.761667 138.063214 
L 252.478664 138.024813 
L 252.195088 137.990908 
L 251.911009 137.961505 
L 251.626499 137.936614 
L 251.341631 137.91624 
L 251.056474 137.900388 
L 250.771103 137.889062 
L 250.485587 137.882266 
L 250.2 137.88 
L 214.2 137.88 
L 213.914413 137.882266 
L 213.628897 137.889062 
L 213.343526 137.900388 
L 213.058369 137.91624 
L 212.773501 137.936614 
L 212.488991 137.961505 
L 212.204912 137.990908 
L 211.921336 138.024813 
L 211.638333 138.063214 
L 211.355975 138.1061 
L 211.074333 138.15346 
L 210.793478 138.205283 
L 210.51348 138.261556 
L 210.23441 138.322264 
L 209.956339 138.387392 
L 209.679336 138.456923 
L 209.403471 138.530841 
L 209.128814 138.609126 
L 208.855433 138.69176 
L 208.583398 138.77872 
L 208.312777 138.869985 
L 208.043637 138.965533 
L 207.776048 139.065339 
L 207.510076 139.169377 
L 207.245788 139.277623 
L 206.98325 139.390048 
L 206.72253 139.506624 
L 206.463692 139.627322 
L 206.206801 139.752112 
L 205.951923 139.880962 
L 205.699121 140.013839 
L 205.448459 140.150711 
L 205.2 140.291543 
L 204.953807 140.436299 
L 204.709942 140.584942 
L 204.468465 140.737436 
L 204.229439 140.893743 
L 203.992922 141.053822 
L 203.758976 141.217633 
L 203.527657 141.385135 
L 203.299026 141.556287 
L 203.073138 141.731044 
L 202.850052 141.909364 
L 202.629823 142.0912 
L 202.412507 142.276508 
L 202.198158 142.46524 
L 201.986831 142.657349 
L 201.778578 142.852787 
L 201.573452 143.051505 
L 201.371505 143.253452 
L 201.172787 143.458578 
L 200.977349 143.666831 
L 200.78524 143.878158 
L 200.596508 144.092507 
L 200.4112 144.309823 
L 200.229364 144.530052 
L 200.051044 144.753138 
L 199.876287 144.979026 
L 199.705135 145.207657 
L 199.537633 145.438976 
L 199.373822 145.672922 
L 199.213743 145.909439 
L 199.057436 146.148465 
L 198.904942 146.389942 
L 198.756299 146.633807 
L 198.611543 146.88 
L 198.470711 147.128459 
L 198.333839 147.379121 
L 198.200962 147.631923 
L 198.072112 147.886801 
L 197.947322 148.143692 
L 197.826624 148.40253 
L 197.710048 148.66325 
L 197.597623 148.925788 
L 197.489377 149.190076 
L 197.385339 149.456048 
L 197.285533 149.723637 
L 197.189985 149.992777 
L 197.09872 150.263398 
L 197.01176 150.535433 
L 196.929126 150.808814 
L 196.850841 151.083471 
L 196.776923 151.359336 
L 196.707392 151.636339 
L 196.642264 151.91441 
L 196.581556 152.19348 
L 196.525283 152.473478 
L 196.47346 152.754333 
L 196.4261 153.035975 
L 196.383214 153.318333 
L 196.344813 153.601336 
L 196.310908 153.884912 
L 196.281505 154.168991 
L 196.256614 154.453501 
L 196.23624 154.738369 
L 196.220388 155.023526 
L 196.209062 155.308897 
L 196.202266 155.594413 
L 196.2 155.88 
L 196.2 155.88 
L 196.202266 156.165587 
L 196.209062 156.451103 
L 196.220388 156.736474 
L 196.23624 157.021631 
L 196.256614 157.306499 
L 196.281505 157.591009 
L 196.310908 157.875088 
L 196.344813 158.158664 
L 196.383214 158.441667 
L 196.4261 158.724025 
L 196.47346 159.005667 
L 196.525283 159.286522 
L 196.581556 159.56652 
L 196.642264 159.84559 
L 196.707392 160.123661 
L 196.776923 160.400664 
L 196.850841 160.676529 
L 196.929126 160.951186 
L 197.01176 161.224567 
L 197.09872 161.496602 
L 197.189985 161.767223 
L 197.285533 162.036363 
L 197.385339 162.303952 
L 197.489377 162.569924 
L 197.597623 162.834212 
L 197.710048 163.09675 
L 197.826624 163.35747 
L 197.947322 163.616308 
L 198.072112 163.873199 
L 198.200962 164.128077 
L 198.333839 164.380879 
L 198.470711 164.631541 
L 198.611543 164.88 
L 198.756299 165.126193 
L 198.904942 165.370058 
L 199.057436 165.611535 
L 199.213743 165.850561 
L 199.373822 166.087078 
L 199.537633 166.321024 
L 199.705135 166.552343 
L 199.876287 166.780974 
L 200.051044 167.006862 
L 200.229364 167.229948 
L 200.4112 167.450177 
L 200.596508 167.667493 
L 200.78524 167.881842 
L 200.977349 168.093169 
L 201.172787 168.301422 
L 201.371505 168.506548 
L 201.573452 168.708495 
L 201.778578 168.907213 
L 201.986831 169.102651 
L 202.198158 169.29476 
L 202.412507 169.483492 
L 202.629823 169.6688 
L 202.850052 169.850636 
L 203.073138 170.028956 
L 203.299026 170.203713 
L 203.527657 170.374865 
L 203.758976 170.542367 
L 203.992922 170.706178 
L 204.229439 170.866257 
L 204.468465 171.022564 
L 204.709942 171.175058 
L 204.953807 171.323701 
L 205.2 171.468457 
L 205.448459 171.609289 
L 205.699121 171.746161 
L 205.951923 171.879038 
L 206.206801 172.007888 
L 206.463692 172.132678 
L 206.72253 172.253376 
L 206.98325 172.369952 
L 207.245788 172.482377 
L 207.510076 172.590623 
L 207.776048 172.694661 
L 208.043637 172.794467 
L 208.312777 172.890015 
L 208.583398 172.98128 
L 208.855433 173.06824 
L 209.128814 173.150874 
L 209.403471 173.229159 
L 209.679336 173.303077 
L 209.956339 173.372608 
L 210.23441 173.437736 
L 210.51348 173.498444 
L 210.793478 173.554717 
L 211.074333 173.60654 
L 211.355975 173.6539 
L 211.638333 173.696786 
L 211.921336 173.735187 
L 212.204912 173.769092 
L 212.488991 173.798495 
L 212.773501 173.823386 
L 213.058369 173.84376 
L 213.343526 173.859612 
L 213.628897 173.870938 
L 213.914413 173.877734 
L 214.2 173.88 
L 250.2 173.88 
z
" clip-path="url(#p3c1e1beb82)" style="fill: none; stroke: #000000; stroke-linecap: round"/>
   </g>
   <g id="patch_5">
    <path d="M 97.2 253.08 
L 97.485587 253.077734 
L 97.771103 253.070938 
L 98.056474 253.059612 
L 98.341631 253.04376 
L 98.626499 253.023386 
L 98.911009 252.998495 
L 99.195088 252.969092 
L 99.478664 252.935187 
L 99.761667 252.896786 
L 100.044025 252.8539 
L 100.325667 252.80654 
L 100.606522 252.754717 
L 100.88652 252.698444 
L 101.16559 252.637736 
L 101.443661 252.572608 
L 101.720664 252.503077 
L 101.996529 252.429159 
L 102.271186 252.350874 
L 102.544567 252.26824 
L 102.816602 252.18128 
L 103.087223 252.090015 
L 103.356363 251.994467 
L 103.623952 251.894661 
L 103.889924 251.790623 
L 104.154212 251.682377 
L 104.41675 251.569952 
L 104.67747 251.453376 
L 104.936308 251.332678 
L 105.193199 251.207888 
L 105.448077 251.079038 
L 105.700879 250.946161 
L 105.951541 250.809289 
L 106.2 250.668457 
L 106.446193 250.523701 
L 106.690058 250.375058 
L 106.931535 250.222564 
L 107.170561 250.066257 
L 107.407078 249.906178 
L 107.641024 249.742367 
L 107.872343 249.574865 
L 108.100974 249.403713 
L 108.326862 249.228956 
L 108.549948 249.050636 
L 108.770177 248.8688 
L 108.987493 248.683492 
L 109.201842 248.49476 
L 109.413169 248.302651 
L 109.621422 248.107213 
L 109.826548 247.908495 
L 110.028495 247.706548 
L 110.227213 247.501422 
L 110.422651 247.293169 
L 110.61476 247.081842 
L 110.803492 246.867493 
L 110.9888 246.650177 
L 111.170636 246.429948 
L 111.348956 246.206862 
L 111.523713 245.980974 
L 111.694865 245.752343 
L 111.862367 245.521024 
L 112.026178 245.287078 
L 112.186257 245.050561 
L 112.342564 244.811535 
L 112.495058 244.570058 
L 112.643701 244.326193 
L 112.788457 244.08 
L 112.929289 243.831541 
L 113.066161 243.580879 
L 113.199038 243.328077 
L 113.327888 243.073199 
L 113.452678 242.816308 
L 113.573376 242.55747 
L 113.689952 242.29675 
L 113.802377 242.034212 
L 113.910623 241.769924 
L 114.014661 241.503952 
L 114.114467 241.236363 
L 114.210015 240.967223 
L 114.30128 240.696602 
L 114.38824 240.424567 
L 114.470874 240.151186 
L 114.549159 239.876529 
L 114.623077 239.600664 
L 114.692608 239.323661 
L 114.757736 239.04559 
L 114.818444 238.76652 
L 114.874717 238.486522 
L 114.92654 238.205667 
L 114.9739 237.924025 
L 115.016786 237.641667 
L 115.055187 237.358664 
L 115.089092 237.075088 
L 115.118495 236.791009 
L 115.143386 236.506499 
L 115.16376 236.221631 
L 115.179612 235.936474 
L 115.190938 235.651103 
L 115.197734 235.365587 
L 115.2 235.08 
L 115.2 235.08 
L 115.197734 234.794413 
L 115.190938 234.508897 
L 115.179612 234.223526 
L 115.16376 233.938369 
L 115.143386 233.653501 
L 115.118495 233.368991 
L 115.089092 233.084912 
L 115.055187 232.801336 
L 115.016786 232.518333 
L 114.9739 232.235975 
L 114.92654 231.954333 
L 114.874717 231.673478 
L 114.818444 231.39348 
L 114.757736 231.11441 
L 114.692608 230.836339 
L 114.623077 230.559336 
L 114.549159 230.283471 
L 114.470874 230.008814 
L 114.38824 229.735433 
L 114.30128 229.463398 
L 114.210015 229.192777 
L 114.114467 228.923637 
L 114.014661 228.656048 
L 113.910623 228.390076 
L 113.802377 228.125788 
L 113.689952 227.86325 
L 113.573376 227.60253 
L 113.452678 227.343692 
L 113.327888 227.086801 
L 113.199038 226.831923 
L 113.066161 226.579121 
L 112.929289 226.328459 
L 112.788457 226.08 
L 112.643701 225.833807 
L 112.495058 225.589942 
L 112.342564 225.348465 
L 112.186257 225.109439 
L 112.026178 224.872922 
L 111.862367 224.638976 
L 111.694865 224.407657 
L 111.523713 224.179026 
L 111.348956 223.953138 
L 111.170636 223.730052 
L 110.9888 223.509823 
L 110.803492 223.292507 
L 110.61476 223.078158 
L 110.422651 222.866831 
L 110.227213 222.658578 
L 110.028495 222.453452 
L 109.826548 222.251505 
L 109.621422 222.052787 
L 109.413169 221.857349 
L 109.201842 221.66524 
L 108.987493 221.476508 
L 108.770177 221.2912 
L 108.549948 221.109364 
L 108.326862 220.931044 
L 108.100974 220.756287 
L 107.872343 220.585135 
L 107.641024 220.417633 
L 107.407078 220.253822 
L 107.170561 220.093743 
L 106.931535 219.937436 
L 106.690058 219.784942 
L 106.446193 219.636299 
L 106.2 219.491543 
L 105.951541 219.350711 
L 105.700879 219.213839 
L 105.448077 219.080962 
L 105.193199 218.952112 
L 104.936308 218.827322 
L 104.67747 218.706624 
L 104.41675 218.590048 
L 104.154212 218.477623 
L 103.889924 218.369377 
L 103.623952 218.265339 
L 103.356363 218.165533 
L 103.087223 218.069985 
L 102.816602 217.97872 
L 102.544567 217.89176 
L 102.271186 217.809126 
L 101.996529 217.730841 
L 101.720664 217.656923 
L 101.443661 217.587392 
L 101.16559 217.522264 
L 100.88652 217.461556 
L 100.606522 217.405283 
L 100.325667 217.35346 
L 100.044025 217.3061 
L 99.761667 217.263214 
L 99.478664 217.224813 
L 99.195088 217.190908 
L 98.911009 217.161505 
L 98.626499 217.136614 
L 98.341631 217.11624 
L 98.056474 217.100388 
L 97.771103 217.089062 
L 97.485587 217.082266 
L 97.2 217.08 
L 61.2 217.08 
L 60.914413 217.082266 
L 60.628897 217.089062 
L 60.343526 217.100388 
L 60.058369 217.11624 
L 59.773501 217.136614 
L 59.488991 217.161505 
L 59.204912 217.190908 
L 58.921336 217.224813 
L 58.638333 217.263214 
L 58.355975 217.3061 
L 58.074333 217.35346 
L 57.793478 217.405283 
L 57.51348 217.461556 
L 57.23441 217.522264 
L 56.956339 217.587392 
L 56.679336 217.656923 
L 56.403471 217.730841 
L 56.128814 217.809126 
L 55.855433 217.89176 
L 55.583398 217.97872 
L 55.312777 218.069985 
L 55.043637 218.165533 
L 54.776048 218.265339 
L 54.510076 218.369377 
L 54.245788 218.477623 
L 53.98325 218.590048 
L 53.72253 218.706624 
L 53.463692 218.827322 
L 53.206801 218.952112 
L 52.951923 219.080962 
L 52.699121 219.213839 
L 52.448459 219.350711 
L 52.2 219.491543 
L 51.953807 219.636299 
L 51.709942 219.784942 
L 51.468465 219.937436 
L 51.229439 220.093743 
L 50.992922 220.253822 
L 50.758976 220.417633 
L 50.527657 220.585135 
L 50.299026 220.756287 
L 50.073138 220.931044 
L 49.850052 221.109364 
L 49.629823 221.2912 
L 49.412507 221.476508 
L 49.198158 221.66524 
L 48.986831 221.857349 
L 48.778578 222.052787 
L 48.573452 222.251505 
L 48.371505 222.453452 
L 48.172787 222.658578 
L 47.977349 222.866831 
L 47.78524 223.078158 
L 47.596508 223.292507 
L 47.4112 223.509823 
L 47.229364 223.730052 
L 47.051044 223.953138 
L 46.876287 224.179026 
L 46.705135 224.407657 
L 46.537633 224.638976 
L 46.373822 224.872922 
L 46.213743 225.109439 
L 46.057436 225.348465 
L 45.904942 225.589942 
L 45.756299 225.833807 
L 45.611543 226.08 
L 45.470711 226.328459 
L 45.333839 226.579121 
L 45.200962 226.831923 
L 45.072112 227.086801 
L 44.947322 227.343692 
L 44.826624 227.60253 
L 44.710048 227.86325 
L 44.597623 228.125788 
L 44.489377 228.390076 
L 44.385339 228.656048 
L 44.285533 228.923637 
L 44.189985 229.192777 
L 44.09872 229.463398 
L 44.01176 229.735433 
L 43.929126 230.008814 
L 43.850841 230.283471 
L 43.776923 230.559336 
L 43.707392 230.836339 
L 43.642264 231.11441 
L 43.581556 231.39348 
L 43.525283 231.673478 
L 43.47346 231.954333 
L 43.4261 232.235975 
L 43.383214 232.518333 
L 43.344813 232.801336 
L 43.310908 233.084912 
L 43.281505 233.368991 
L 43.256614 233.653501 
L 43.23624 233.938369 
L 43.220388 234.223526 
L 43.209062 234.508897 
L 43.202266 234.794413 
L 43.2 235.08 
L 43.2 235.08 
L 43.202266 235.365587 
L 43.209062 235.651103 
L 43.220388 235.936474 
L 43.23624 236.221631 
L 43.256614 236.506499 
L 43.281505 236.791009 
L 43.310908 237.075088 
L 43.344813 237.358664 
L 43.383214 237.641667 
L 43.4261 237.924025 
L 43.47346 238.205667 
L 43.525283 238.486522 
L 43.581556 238.76652 
L 43.642264 239.04559 
L 43.707392 239.323661 
L 43.776923 239.600664 
L 43.850841 239.876529 
L 43.929126 240.151186 
L 44.01176 240.424567 
L 44.09872 240.696602 
L 44.189985 240.967223 
L 44.285533 241.236363 
L 44.385339 241.503952 
L 44.489377 241.769924 
L 44.597623 242.034212 
L 44.710048 242.29675 
L 44.826624 242.55747 
L 44.947322 242.816308 
L 45.072112 243.073199 
L 45.200962 243.328077 
L 45.333839 243.580879 
L 45.470711 243.831541 
L 45.611543 244.08 
L 45.756299 244.326193 
L 45.904942 244.570058 
L 46.057436 244.811535 
L 46.213743 245.050561 
L 46.373822 245.287078 
L 46.537633 245.521024 
L 46.705135 245.752343 
L 46.876287 245.980974 
L 47.051044 246.206862 
L 47.229364 246.429948 
L 47.4112 246.650177 
L 47.596508 246.867493 
L 47.78524 247.081842 
L 47.977349 247.293169 
L 48.172787 247.501422 
L 48.371505 247.706548 
L 48.573452 247.908495 
L 48.778578 248.107213 
L 48.986831 248.302651 
L 49.198158 248.49476 
L 49.412507 248.683492 
L 49.629823 248.8688 
L 49.850052 249.050636 
L 50.073138 249.228956 
L 50.299026 249.403713 
L 50.527657 249.574865 
L 50.758976 249.742367 
L 50.992922 249.906178 
L 51.229439 250.066257 
L 51.468465 250.222564 
L 51.709942 250.375058 
L 51.953807 250.523701 
L 52.2 250.668457 
L 52.448459 250.809289 
L 52.699121 250.946161 
L 52.951923 251.079038 
L 53.206801 251.207888 
L 53.463692 251.332678 
L 53.72253 251.453376 
L 53.98325 251.569952 
L 54.245788 251.682377 
L 54.510076 251.790623 
L 54.776048 251.894661 
L 55.043637 251.994467 
L 55.312777 252.090015 
L 55.583398 252.18128 
L 55.855433 252.26824 
L 56.128814 252.350874 
L 56.403471 252.429159 
L 56.679336 252.503077 
L 56.956339 252.572608 
L 57.23441 252.637736 
L 57.51348 252.698444 
L 57.793478 252.754717 
L 58.074333 252.80654 
L 58.355975 252.8539 
L 58.638333 252.896786 
L 58.921336 252.935187 
L 59.204912 252.969092 
L 59.488991 252.998495 
L 59.773501 253.023386 
L 60.058369 253.04376 
L 60.343526 253.059612 
L 60.628897 253.070938 
L 60.914413 253.077734 
L 61.2 253.08 
L 97.2 253.08 
z
" clip-path="url(#p3c1e1beb82)" style="fill: none; stroke: #000000; stroke-linecap: round"/>
   </g>
   <g id="line2d_1">
    <path d="M 79.2 51.48 
L 79.2 64.98 
L 79.2 69.48 
" clip-path="url(#p3c1e1beb82)" style="fill: none; stroke: #000000; stroke-linecap: round"/>
   </g>
   <g id="patch_6">
    <path d="M 81.9 69.48 
L 79.2 78.48 
L 76.5 69.48 
z
" clip-path="url(#p3c1e1beb82)"/>
   </g>
   <g id="line2d_2">
    <path d="M 142.2 100.08 
L 169.2 100.08 
L 187.2 100.08 
" clip-path="url(#p3c1e1beb82)" style="fill: none; stroke: #000000; stroke-linecap: round"/>
   </g>
   <g id="patch_7">
    <path d="M 187.2 97.38 
L 196.2 100.08 
L 187.2 102.78 
z
" clip-path="url(#p3c1e1beb82)"/>
   </g>
   <g id="line2d_3">
    <path d="M 196.2 100.08 
L 196.2 83.88 
L 268.2 83.88 
L 268.2 116.28 
L 196.2 116.28 
L 196.2 100.08 
" clip-path="url(#p3c1e1beb82)" style="fill: none; stroke: #000000; stroke-linecap: round"/>
   </g>
   <g id="line2d_4">
    <path d="M 232.2 116.28 
L 232.2 127.08 
L 232.2 128.88 
" clip-path="url(#p3c1e1beb82)" style="fill: none; stroke: #000000; stroke-linecap: round"/>
   </g>
   <g id="patch_8">
    <path d="M 234.9 128.88 
L 232.2 137.88 
L 229.5 128.88 
z
" clip-path="url(#p3c1e1beb82)"/>
   </g>
   <g id="line2d_5">
    <path d="M 79.2 121.68 
L 79.2 139.68 
L 79.2 148.68 
" clip-path="url(#p3c1e1beb82)" style="fill: none; stroke: #000000; stroke-linecap: round"/>
   </g>
   <g id="patch_9">
    <path d="M 81.9 148.68 
L 79.2 157.68 
L 76.5 148.68 
z
" clip-path="url(#p3c1e1beb82)"/>
   </g>
   <g id="line2d_6">
    <path d="M 43.2 173.88 
L 43.2 157.68 
L 115.2 157.68 
L 115.2 190.08 
L 43.2 190.08 
L 43.2 173.88 
" clip-path="url(#p3c1e1beb82)" style="fill: none; stroke: #000000; stroke-linecap: round"/>
   </g>
   <g id="line2d_7">
    <path d="M 79.2 190.08 
L 79.2 203.58 
L 79.2 208.08 
" clip-path="url(#p3c1e1beb82)" style="fill: none; stroke: #000000; stroke-linecap: round"/>
   </g>
   <g id="patch_10">
    <path d="M 81.9 208.08 
L 79.2 217.08 
L 76.5 208.08 
z
" clip-path="url(#p3c1e1beb82)"/>
   </g>
   <g id="text_1">
    <!-- START -->
    <g transform="translate(60.023242 36.974141) scale(0.125 -0.125)">
     <defs>
      <path id="IPAexGothic-53" d="M 2919 3641 
Q 2563 4259 1853 4259 
Q 1453 4259 1213 4009 
Q 1028 3803 1028 3534 
Q 1028 3238 1266 3047 
Q 1444 2913 1984 2688 
L 2200 2597 
Q 2925 2306 3191 1953 
Q 3422 1644 3422 1259 
Q 3422 644 2969 288 
Q 2559 -31 1931 -31 
Q 881 -31 313 766 
L 753 1100 
Q 1203 459 1938 459 
Q 2288 459 2534 625 
Q 2841 847 2841 1216 
Q 2841 1503 2616 1728 
Q 2375 1959 1728 2206 
L 1541 2278 
Q 453 2694 453 3481 
Q 453 4006 806 4347 
Q 1203 4725 1863 4725 
Q 2841 4725 3359 3956 
L 2919 3641 
z
" transform="scale(0.015625)"/>
      <path id="IPAexGothic-54" d="M 3866 4141 
L 2175 4141 
L 2175 63 
L 1606 63 
L 1606 4141 
L -31 4141 
L -31 4634 
L 3866 4634 
L 3866 4141 
z
" transform="scale(0.015625)"/>
      <path id="IPAexGothic-41" d="M 4056 63 
L 3444 63 
L 2938 1409 
L 1100 1409 
L 603 63 
L -6 63 
L 1806 4666 
L 2259 4666 
L 4056 63 
z
M 2778 1863 
L 2316 3078 
Q 2125 3588 2028 4000 
L 2009 4000 
Q 1897 3563 1716 3078 
L 1263 1863 
L 2778 1863 
z
" transform="scale(0.015625)"/>
      <path id="IPAexGothic-52" d="M 4072 63 
L 3394 63 
Q 3138 641 2828 1197 
Q 2584 1641 2344 1825 
Q 2050 2044 1625 2044 
L 1172 2044 
L 1172 63 
L 609 63 
L 609 4634 
L 2009 4634 
Q 2713 4634 3131 4378 
Q 3688 4044 3688 3381 
Q 3688 2784 3181 2459 
Q 2906 2272 2522 2216 
L 2522 2197 
Q 2941 2050 3247 1581 
Q 3516 1166 4072 63 
z
M 1172 2478 
L 1869 2478 
Q 3106 2478 3106 3369 
Q 3106 4181 1928 4181 
L 1172 4181 
L 1172 2478 
z
" transform="scale(0.015625)"/>
     </defs>
     <use xlink:href="#IPAexGothic-53"/>
     <use xlink:href="#IPAexGothic-54" x="58.496094"/>
     <use xlink:href="#IPAexGothic-41" x="118.408203"/>
     <use xlink:href="#IPAexGothic-52" x="182.128906"/>
     <use xlink:href="#IPAexGothic-54" x="246.923828"/>
    </g>
   </g>
   <g id="text_2">
    <!-- False -->
    <g transform="translate(83.88 135.723281) scale(0.125 -0.125)">
     <defs>
      <path id="IPAexGothic-46" d="M 3469 4141 
L 1172 4141 
L 1172 2656 
L 3206 2656 
L 3206 2188 
L 1172 2188 
L 1172 63 
L 609 63 
L 609 4634 
L 3469 4634 
L 3469 4141 
z
" transform="scale(0.015625)"/>
      <path id="IPAexGothic-61" d="M 3156 63 
L 2672 63 
Q 2559 303 2531 556 
L 2509 556 
Q 2147 -25 1428 -25 
Q 934 -25 622 288 
Q 347 563 347 959 
Q 347 1947 2050 1997 
L 2478 2009 
L 2478 2175 
Q 2478 2509 2288 2700 
Q 2088 2900 1775 2900 
Q 1238 2900 969 2378 
L 494 2597 
Q 938 3328 1788 3328 
Q 2375 3328 2691 3000 
Q 2984 2706 2984 2169 
L 2984 997 
Q 2984 400 3156 63 
z
M 2491 1625 
L 2141 1619 
Q 903 1591 903 953 
Q 903 728 1050 581 
Q 1231 403 1525 403 
Q 1934 403 2234 703 
Q 2491 969 2491 1344 
L 2491 1625 
z
" transform="scale(0.015625)"/>
      <path id="IPAexGothic-6c" d="M 1131 63 
L 581 63 
L 581 4794 
L 1131 4794 
L 1131 63 
z
" transform="scale(0.015625)"/>
      <path id="IPAexGothic-73" d="M 2234 2547 
Q 1938 2931 1484 2931 
Q 891 2931 891 2475 
Q 891 2153 1531 1944 
L 1741 1875 
Q 2650 1578 2650 894 
Q 2650 434 2272 172 
Q 1972 -31 1497 -31 
Q 766 -31 256 503 
L 603 819 
Q 997 397 1516 397 
Q 2131 397 2131 875 
Q 2131 1238 1453 1478 
L 1234 1553 
Q 378 1853 378 2431 
Q 378 2797 628 3047 
Q 928 3347 1453 3347 
Q 2156 3347 2606 2859 
L 2234 2547 
z
" transform="scale(0.015625)"/>
      <path id="IPAexGothic-65" d="M 863 1594 
Q 891 1041 1209 722 
Q 1534 397 1997 397 
Q 2606 397 2963 966 
L 3322 728 
Q 2869 -31 1931 -31 
Q 1222 -31 766 422 
Q 306 884 306 1641 
Q 306 2444 788 2925 
Q 1216 3353 1856 3353 
Q 2459 3353 2866 2956 
Q 3322 2494 3322 1722 
L 3322 1594 
L 863 1594 
z
M 2756 1997 
Q 2709 2431 2450 2681 
Q 2194 2938 1844 2938 
Q 1438 2938 1150 2591 
Q 953 2356 894 1997 
L 2756 1997 
z
" transform="scale(0.015625)"/>
     </defs>
     <use xlink:href="#IPAexGothic-46"/>
     <use xlink:href="#IPAexGothic-61" x="57.177734"/>
     <use xlink:href="#IPAexGothic-6c" x="112.158203"/>
     <use xlink:href="#IPAexGothic-73" x="139.160156"/>
     <use xlink:href="#IPAexGothic-65" x="185.351562"/>
    </g>
   </g>
   <g id="text_3">
    <!-- True -->
    <g transform="translate(146.88 93.025) scale(0.125 -0.125)">
     <defs>
      <path id="IPAexGothic-72" d="M 2309 3316 
L 2213 2769 
Q 2106 2791 2022 2791 
Q 1653 2791 1413 2444 
Q 1113 2006 1113 1675 
L 1113 63 
L 563 63 
L 563 3250 
L 1081 3250 
L 1056 2303 
L 1069 2303 
Q 1422 3341 2097 3341 
Q 2206 3341 2309 3316 
z
" transform="scale(0.015625)"/>
      <path id="IPAexGothic-75" d="M 3284 63 
L 2772 63 
L 2772 644 
Q 2300 0 1625 0 
Q 1072 0 763 375 
Q 519 678 519 1241 
L 519 3250 
L 1069 3250 
L 1069 1259 
Q 1069 466 1734 466 
Q 2406 466 2734 1291 
L 2734 3250 
L 3284 3250 
L 3284 63 
z
" transform="scale(0.015625)"/>
     </defs>
     <use xlink:href="#IPAexGothic-54"/>
     <use xlink:href="#IPAexGothic-72" x="59.912109"/>
     <use xlink:href="#IPAexGothic-75" x="96.923828"/>
     <use xlink:href="#IPAexGothic-65" x="157.324219"/>
    </g>
   </g>
   <g id="text_4">
    <!-- $x\geq 0$ ? -->
    <g transform="translate(58.7 103.574141) scale(0.125 -0.125)">
     <defs>
      <path id="DejaVuSans-Oblique-78" d="M 3841 3500 
L 2234 1784 
L 3219 0 
L 2559 0 
L 1819 1388 
L 531 0 
L -166 0 
L 1556 1844 
L 641 3500 
L 1300 3500 
L 1972 2234 
L 3144 3500 
L 3841 3500 
z
" transform="scale(0.015625)"/>
      <path id="DejaVuSans-2265" d="M 678 3175 
L 678 3725 
L 4684 2578 
L 4684 2047 
L 678 897 
L 678 1453 
L 3681 2309 
L 678 3175 
z
M 4684 531 
L 4684 0 
L 678 0 
L 678 531 
L 4684 531 
z
" transform="scale(0.015625)"/>
      <path id="DejaVuSans-30" d="M 2034 4250 
Q 1547 4250 1301 3770 
Q 1056 3291 1056 2328 
Q 1056 1369 1301 889 
Q 1547 409 2034 409 
Q 2525 409 2770 889 
Q 3016 1369 3016 2328 
Q 3016 3291 2770 3770 
Q 2525 4250 2034 4250 
z
M 2034 4750 
Q 2819 4750 3233 4129 
Q 3647 3509 3647 2328 
Q 3647 1150 3233 529 
Q 2819 -91 2034 -91 
Q 1250 -91 836 529 
Q 422 1150 422 2328 
Q 422 3509 836 4129 
Q 1250 4750 2034 4750 
z
" transform="scale(0.015625)"/>
      <path id="IPAexGothic-20" transform="scale(0.015625)"/>
      <path id="IPAexGothic-3f" d="M 225 3425 
Q 503 4725 1763 4725 
Q 2413 4725 2803 4334 
Q 3144 3994 3144 3516 
Q 3144 3081 2838 2716 
Q 2703 2563 2344 2266 
L 2216 2156 
Q 1888 1878 1888 1363 
L 1888 1209 
L 1422 1209 
L 1422 1422 
Q 1422 2050 1881 2491 
L 2022 2625 
L 2075 2669 
Q 2575 3122 2575 3516 
Q 2575 3822 2363 4041 
Q 2128 4278 1763 4278 
Q 963 4278 725 3309 
L 225 3425 
z
M 1978 63 
L 1325 63 
L 1325 728 
L 1978 728 
L 1978 63 
z
" transform="scale(0.015625)"/>
     </defs>
     <use xlink:href="#DejaVuSans-Oblique-78" transform="translate(0 0.78125)"/>
     <use xlink:href="#DejaVuSans-2265" transform="translate(78.662109 0.78125)"/>
     <use xlink:href="#DejaVuSans-30" transform="translate(181.933594 0.78125)"/>
     <use xlink:href="#IPAexGothic-20" transform="translate(245.556641 0.78125)"/>
     <use xlink:href="#IPAexGothic-3f" transform="translate(272.558594 0.78125)"/>
    </g>
   </g>
   <g id="text_5">
    <!-- $x$ -->
    <g transform="translate(228.45 103.574141) scale(0.125 -0.125)">
     <use xlink:href="#DejaVuSans-Oblique-78" transform="translate(0 0.3125)"/>
    </g>
   </g>
   <g id="text_6">
    <!-- END -->
    <g transform="translate(219.000781 159.374141) scale(0.125 -0.125)">
     <defs>
      <path id="IPAexGothic-45" d="M 3547 63 
L 609 63 
L 609 4634 
L 3469 4634 
L 3469 4147 
L 1166 4147 
L 1166 2650 
L 3206 2650 
L 3206 2191 
L 1166 2191 
L 1166 556 
L 3547 556 
L 3547 63 
z
" transform="scale(0.015625)"/>
      <path id="IPAexGothic-4e" d="M 4244 63 
L 3731 63 
L 1697 3150 
Q 1466 3500 1141 4097 
L 1116 4097 
L 1128 3797 
Q 1159 2803 1159 2469 
L 1159 63 
L 609 63 
L 609 4634 
L 1366 4634 
L 3113 1978 
Q 3453 1447 3713 966 
L 3738 966 
Q 3694 1897 3694 2469 
L 3694 4634 
L 4244 4634 
L 4244 63 
z
" transform="scale(0.015625)"/>
      <path id="IPAexGothic-44" d="M 609 4634 
L 1984 4634 
Q 3159 4634 3791 4050 
Q 4456 3444 4456 2356 
Q 4456 1047 3516 441 
Q 2925 63 1941 63 
L 609 63 
L 609 4634 
z
M 1172 556 
L 1894 556 
Q 3853 556 3853 2356 
Q 3853 4147 1928 4147 
L 1172 4147 
L 1172 556 
z
" transform="scale(0.015625)"/>
     </defs>
     <use xlink:href="#IPAexGothic-45"/>
     <use xlink:href="#IPAexGothic-4e" x="59.521484"/>
     <use xlink:href="#IPAexGothic-44" x="135.498047"/>
    </g>
   </g>
   <g id="text_7">
    <!-- $-x$ -->
    <g transform="translate(70.2625 177.374141) scale(0.125 -0.125)">
     <defs>
      <path id="DejaVuSans-2212" d="M 678 2272 
L 4684 2272 
L 4684 1741 
L 678 1741 
L 678 2272 
z
" transform="scale(0.015625)"/>
     </defs>
     <use xlink:href="#DejaVuSans-2212" transform="translate(0 0.3125)"/>
     <use xlink:href="#DejaVuSans-Oblique-78" transform="translate(83.789062 0.3125)"/>
    </g>
   </g>
   <g id="text_8">
    <!-- END -->
    <g transform="translate(66.000781 238.574141) scale(0.125 -0.125)">
     <use xlink:href="#IPAexGothic-45"/>
     <use xlink:href="#IPAexGothic-4e" x="59.521484"/>
     <use xlink:href="#IPAexGothic-44" x="135.498047"/>
    </g>
   </g>
  </g>
 </g>
 <defs>
  <clipPath id="p3c1e1beb82">
   <rect x="3.6" y="3.6" width="277.2" height="261.36"/>
  </clipPath>
 </defs>
</svg>