<?xml version="1.0" encoding="utf-8" standalone="no"?>
<!DOCTYPE svg PUBLIC "-//W3C//DTD SVG 1.1//EN"
  "http://www.w3.org/Graphics/SVG/1.1/DTD/svg11.dtd">
<svg xmlns:xlink="http://www.w3.org/1999/xlink" width="86.4pt" height="324pt" viewBox="0 0 86.4 324" xmlns="http://www.w3.org/2000/svg" version="1.1">
 <metadata>
  <rdf:RDF xmlns:dc="http://purl.org/dc/elements/1.1/" xmlns:cc="http://creativecommons.org/ns#" xmlns:rdf="http://www.w3.org/1999/02/22-rdf-syntax-ns#">
   <cc:Work>
    <dc:type rdf:resource="http://purl.org/dc/dcmitype/StillImage"/>
    <dc:date>2024-03-16T03:50:56.839543</dc:date>
    <dc:format>image/svg+xml</dc:format>
    <dc:creator>
     <cc:Agent>
      <dc:title>Matplotlib v3.8.3, https://matplotlib.org/</dc:title>
     </cc:Agent>
    </dc:creator>
   </cc:Work>
  </rdf:RDF>
 </metadata>
 <defs>
  <style type="text/css">*{stroke-linejoin: round; stroke-linecap: butt}</style>
 </defs>
 <g id="figure_1">
  <g id="patch_1">
   <path d="M -0 324 
L 86.4 324 
L 86.4 0 
L -0 0 
z
" style="fill: #ffffff"/>
  </g>
  <g id="axes_1">
   <g id="patch_2">
    <path d="M 61.2 54 
L 61.485587 53.997734 
L 61.771103 53.990938 
L 62.056474 53.979612 
L 62.341631 53.96376 
L 62.626499 53.943386 
L 62.911009 53.918495 
L 63.195088 53.889092 
L 63.478664 53.855187 
L 63.761667 53.816786 
L 64.044025 53.7739 
L 64.325667 53.72654 
L 64.606522 53.674717 
L 64.88652 53.618444 
L 65.16559 53.557736 
L 65.443661 53.492608 
L 65.720664 53.423077 
L 65.996529 53.349159 
L 66.271186 53.270874 
L 66.544567 53.18824 
L 66.816602 53.10128 
L 67.087223 53.010015 
L 67.356363 52.914467 
L 67.623952 52.814661 
L 67.889924 52.710623 
L 68.154212 52.602377 
L 68.41675 52.489952 
L 68.67747 52.373376 
L 68.936308 52.252678 
L 69.193199 52.127888 
L 69.448077 51.999038 
L 69.700879 51.866161 
L 69.951541 51.729289 
L 70.2 51.588457 
L 70.446193 51.443701 
L 70.690058 51.295058 
L 70.931535 51.142564 
L 71.170561 50.986257 
L 71.407078 50.826178 
L 71.641024 50.662367 
L 71.872343 50.494865 
L 72.100974 50.323713 
L 72.326862 50.148956 
L 72.549948 49.970636 
L 72.770177 49.7888 
L 72.987493 49.603492 
L 73.201842 49.41476 
L 73.413169 49.222651 
L 73.621422 49.027213 
L 73.826548 48.828495 
L 74.028495 48.626548 
L 74.227213 48.421422 
L 74.422651 48.213169 
L 74.61476 48.001842 
L 74.803492 47.787493 
L 74.9888 47.570177 
L 75.170636 47.349948 
L 75.348956 47.126862 
L 75.523713 46.900974 
L 75.694865 46.672343 
L 75.862367 46.441024 
L 76.026178 46.207078 
L 76.186257 45.970561 
L 76.342564 45.731535 
L 76.495058 45.490058 
L 76.643701 45.246193 
L 76.788457 45 
L 76.929289 44.751541 
L 77.066161 44.500879 
L 77.199038 44.248077 
L 77.327888 43.993199 
L 77.452678 43.736308 
L 77.573376 43.47747 
L 77.689952 43.21675 
L 77.802377 42.954212 
L 77.910623 42.689924 
L 78.014661 42.423952 
L 78.114467 42.156363 
L 78.210015 41.887223 
L 78.30128 41.616602 
L 78.38824 41.344567 
L 78.470874 41.071186 
L 78.549159 40.796529 
L 78.623077 40.520664 
L 78.692608 40.243661 
L 78.757736 39.96559 
L 78.818444 39.68652 
L 78.874717 39.406522 
L 78.92654 39.125667 
L 78.9739 38.844025 
L 79.016786 38.561667 
L 79.055187 38.278664 
L 79.089092 37.995088 
L 79.118495 37.711009 
L 79.143386 37.426499 
L 79.16376 37.141631 
L 79.179612 36.856474 
L 79.190938 36.571103 
L 79.197734 36.285587 
L 79.2 36 
L 79.2 36 
L 79.197734 35.714413 
L 79.190938 35.428897 
L 79.179612 35.143526 
L 79.16376 34.858369 
L 79.143386 34.573501 
L 79.118495 34.288991 
L 79.089092 34.004912 
L 79.055187 33.721336 
L 79.016786 33.438333 
L 78.9739 33.155975 
L 78.92654 32.874333 
L 78.874717 32.593478 
L 78.818444 32.31348 
L 78.757736 32.03441 
L 78.692608 31.756339 
L 78.623077 31.479336 
L 78.549159 31.203471 
L 78.470874 30.928814 
L 78.38824 30.655433 
L 78.30128 30.383398 
L 78.210015 30.112777 
L 78.114467 29.843637 
L 78.014661 29.576048 
L 77.910623 29.310076 
L 77.802377 29.045788 
L 77.689952 28.78325 
L 77.573376 28.52253 
L 77.452678 28.263692 
L 77.327888 28.006801 
L 77.199038 27.751923 
L 77.066161 27.499121 
L 76.929289 27.248459 
L 76.788457 27 
L 76.643701 26.753807 
L 76.495058 26.509942 
L 76.342564 26.268465 
L 76.186257 26.029439 
L 76.026178 25.792922 
L 75.862367 25.558976 
L 75.694865 25.327657 
L 75.523713 25.099026 
L 75.348956 24.873138 
L 75.170636 24.650052 
L 74.9888 24.429823 
L 74.803492 24.212507 
L 74.61476 23.998158 
L 74.422651 23.786831 
L 74.227213 23.578578 
L 74.028495 23.373452 
L 73.826548 23.171505 
L 73.621422 22.972787 
L 73.413169 22.777349 
L 73.201842 22.58524 
L 72.987493 22.396508 
L 72.770177 22.2112 
L 72.549948 22.029364 
L 72.326862 21.851044 
L 72.100974 21.676287 
L 71.872343 21.505135 
L 71.641024 21.337633 
L 71.407078 21.173822 
L 71.170561 21.013743 
L 70.931535 20.857436 
L 70.690058 20.704942 
L 70.446193 20.556299 
L 70.2 20.411543 
L 69.951541 20.270711 
L 69.700879 20.133839 
L 69.448077 20.000962 
L 69.193199 19.872112 
L 68.936308 19.747322 
L 68.67747 19.626624 
L 68.41675 19.510048 
L 68.154212 19.397623 
L 67.889924 19.289377 
L 67.623952 19.185339 
L 67.356363 19.085533 
L 67.087223 18.989985 
L 66.816602 18.89872 
L 66.544567 18.81176 
L 66.271186 18.729126 
L 65.996529 18.650841 
L 65.720664 18.576923 
L 65.443661 18.507392 
L 65.16559 18.442264 
L 64.88652 18.381556 
L 64.606522 18.325283 
L 64.325667 18.27346 
L 64.044025 18.2261 
L 63.761667 18.183214 
L 63.478664 18.144813 
L 63.195088 18.110908 
L 62.911009 18.081505 
L 62.626499 18.056614 
L 62.341631 18.03624 
L 62.056474 18.020388 
L 61.771103 18.009062 
L 61.485587 18.002266 
L 61.2 18 
L 25.2 18 
L 24.914413 18.002266 
L 24.628897 18.009062 
L 24.343526 18.020388 
L 24.058369 18.03624 
L 23.773501 18.056614 
L 23.488991 18.081505 
L 23.204912 18.110908 
L 22.921336 18.144813 
L 22.638333 18.183214 
L 22.355975 18.2261 
L 22.074333 18.27346 
L 21.793478 18.325283 
L 21.51348 18.381556 
L 21.23441 18.442264 
L 20.956339 18.507392 
L 20.679336 18.576923 
L 20.403471 18.650841 
L 20.128814 18.729126 
L 19.855433 18.81176 
L 19.583398 18.89872 
L 19.312777 18.989985 
L 19.043637 19.085533 
L 18.776048 19.185339 
L 18.510076 19.289377 
L 18.245788 19.397623 
L 17.98325 19.510048 
L 17.72253 19.626624 
L 17.463692 19.747322 
L 17.206801 19.872112 
L 16.951923 20.000962 
L 16.699121 20.133839 
L 16.448459 20.270711 
L 16.2 20.411543 
L 15.953807 20.556299 
L 15.709942 20.704942 
L 15.468465 20.857436 
L 15.229439 21.013743 
L 14.992922 21.173822 
L 14.758976 21.337633 
L 14.527657 21.505135 
L 14.299026 21.676287 
L 14.073138 21.851044 
L 13.850052 22.029364 
L 13.629823 22.2112 
L 13.412507 22.396508 
L 13.198158 22.58524 
L 12.986831 22.777349 
L 12.778578 22.972787 
L 12.573452 23.171505 
L 12.371505 23.373452 
L 12.172787 23.578578 
L 11.977349 23.786831 
L 11.78524 23.998158 
L 11.596508 24.212507 
L 11.4112 24.429823 
L 11.229364 24.650052 
L 11.051044 24.873138 
L 10.876287 25.099026 
L 10.705135 25.327657 
L 10.537633 25.558976 
L 10.373822 25.792922 
L 10.213743 26.029439 
L 10.057436 26.268465 
L 9.904942 26.509942 
L 9.756299 26.753807 
L 9.611543 27 
L 9.470711 27.248459 
L 9.333839 27.499121 
L 9.200962 27.751923 
L 9.072112 28.006801 
L 8.947322 28.263692 
L 8.826624 28.52253 
L 8.710048 28.78325 
L 8.597623 29.045788 
L 8.489377 29.310076 
L 8.385339 29.576048 
L 8.285533 29.843637 
L 8.189985 30.112777 
L 8.09872 30.383398 
L 8.01176 30.655433 
L 7.929126 30.928814 
L 7.850841 31.203471 
L 7.776923 31.479336 
L 7.707392 31.756339 
L 7.642264 32.03441 
L 7.581556 32.31348 
L 7.525283 32.593478 
L 7.47346 32.874333 
L 7.4261 33.155975 
L 7.383214 33.438333 
L 7.344813 33.721336 
L 7.310908 34.004912 
L 7.281505 34.288991 
L 7.256614 34.573501 
L 7.23624 34.858369 
L 7.220388 35.143526 
L 7.209062 35.428897 
L 7.202266 35.714413 
L 7.2 36 
L 7.2 36 
L 7.202266 36.285587 
L 7.209062 36.571103 
L 7.220388 36.856474 
L 7.23624 37.141631 
L 7.256614 37.426499 
L 7.281505 37.711009 
L 7.310908 37.995088 
L 7.344813 38.278664 
L 7.383214 38.561667 
L 7.4261 38.844025 
L 7.47346 39.125667 
L 7.525283 39.406522 
L 7.581556 39.68652 
L 7.642264 39.96559 
L 7.707392 40.243661 
L 7.776923 40.520664 
L 7.850841 40.796529 
L 7.929126 41.071186 
L 8.01176 41.344567 
L 8.09872 41.616602 
L 8.189985 41.887223 
L 8.285533 42.156363 
L 8.385339 42.423952 
L 8.489377 42.689924 
L 8.597623 42.954212 
L 8.710048 43.21675 
L 8.826624 43.47747 
L 8.947322 43.736308 
L 9.072112 43.993199 
L 9.200962 44.248077 
L 9.333839 44.500879 
L 9.470711 44.751541 
L 9.611543 45 
L 9.756299 45.246193 
L 9.904942 45.490058 
L 10.057436 45.731535 
L 10.213743 45.970561 
L 10.373822 46.207078 
L 10.537633 46.441024 
L 10.705135 46.672343 
L 10.876287 46.900974 
L 11.051044 47.126862 
L 11.229364 47.349948 
L 11.4112 47.570177 
L 11.596508 47.787493 
L 11.78524 48.001842 
L 11.977349 48.213169 
L 12.172787 48.421422 
L 12.371505 48.626548 
L 12.573452 48.828495 
L 12.778578 49.027213 
L 12.986831 49.222651 
L 13.198158 49.41476 
L 13.412507 49.603492 
L 13.629823 49.7888 
L 13.850052 49.970636 
L 14.073138 50.148956 
L 14.299026 50.323713 
L 14.527657 50.494865 
L 14.758976 50.662367 
L 14.992922 50.826178 
L 15.229439 50.986257 
L 15.468465 51.142564 
L 15.709942 51.295058 
L 15.953807 51.443701 
L 16.2 51.588457 
L 16.448459 51.729289 
L 16.699121 51.866161 
L 16.951923 51.999038 
L 17.206801 52.127888 
L 17.463692 52.252678 
L 17.72253 52.373376 
L 17.98325 52.489952 
L 18.245788 52.602377 
L 18.510076 52.710623 
L 18.776048 52.814661 
L 19.043637 52.914467 
L 19.312777 53.010015 
L 19.583398 53.10128 
L 19.855433 53.18824 
L 20.128814 53.270874 
L 20.403471 53.349159 
L 20.679336 53.423077 
L 20.956339 53.492608 
L 21.23441 53.557736 
L 21.51348 53.618444 
L 21.793478 53.674717 
L 22.074333 53.72654 
L 22.355975 53.7739 
L 22.638333 53.816786 
L 22.921336 53.855187 
L 23.204912 53.889092 
L 23.488991 53.918495 
L 23.773501 53.943386 
L 24.058369 53.96376 
L 24.343526 53.979612 
L 24.628897 53.990938 
L 24.914413 53.997734 
L 25.2 54 
L 61.2 54 
z
" clip-path="url(#p01dc19e8ae)" style="fill: none; stroke: #000000; stroke-linecap: round"/>
   </g>
   <g id="patch_3">
    <path d="M 61.2 306 
L 61.485587 305.997734 
L 61.771103 305.990938 
L 62.056474 305.979612 
L 62.341631 305.96376 
L 62.626499 305.943386 
L 62.911009 305.918495 
L 63.195088 305.889092 
L 63.478664 305.855187 
L 63.761667 305.816786 
L 64.044025 305.7739 
L 64.325667 305.72654 
L 64.606522 305.674717 
L 64.88652 305.618444 
L 65.16559 305.557736 
L 65.443661 305.492608 
L 65.720664 305.423077 
L 65.996529 305.349159 
L 66.271186 305.270874 
L 66.544567 305.18824 
L 66.816602 305.10128 
L 67.087223 305.010015 
L 67.356363 304.914467 
L 67.623952 304.814661 
L 67.889924 304.710623 
L 68.154212 304.602377 
L 68.41675 304.489952 
L 68.67747 304.373376 
L 68.936308 304.252678 
L 69.193199 304.127888 
L 69.448077 303.999038 
L 69.700879 303.866161 
L 69.951541 303.729289 
L 70.2 303.588457 
L 70.446193 303.443701 
L 70.690058 303.295058 
L 70.931535 303.142564 
L 71.170561 302.986257 
L 71.407078 302.826178 
L 71.641024 302.662367 
L 71.872343 302.494865 
L 72.100974 302.323713 
L 72.326862 302.148956 
L 72.549948 301.970636 
L 72.770177 301.7888 
L 72.987493 301.603492 
L 73.201842 301.41476 
L 73.413169 301.222651 
L 73.621422 301.027213 
L 73.826548 300.828495 
L 74.028495 300.626548 
L 74.227213 300.421422 
L 74.422651 300.213169 
L 74.61476 300.001842 
L 74.803492 299.787493 
L 74.9888 299.570177 
L 75.170636 299.349948 
L 75.348956 299.126862 
L 75.523713 298.900974 
L 75.694865 298.672343 
L 75.862367 298.441024 
L 76.026178 298.207078 
L 76.186257 297.970561 
L 76.342564 297.731535 
L 76.495058 297.490058 
L 76.643701 297.246193 
L 76.788457 297 
L 76.929289 296.751541 
L 77.066161 296.500879 
L 77.199038 296.248077 
L 77.327888 295.993199 
L 77.452678 295.736308 
L 77.573376 295.47747 
L 77.689952 295.21675 
L 77.802377 294.954212 
L 77.910623 294.689924 
L 78.014661 294.423952 
L 78.114467 294.156363 
L 78.210015 293.887223 
L 78.30128 293.616602 
L 78.38824 293.344567 
L 78.470874 293.071186 
L 78.549159 292.796529 
L 78.623077 292.520664 
L 78.692608 292.243661 
L 78.757736 291.96559 
L 78.818444 291.68652 
L 78.874717 291.406522 
L 78.92654 291.125667 
L 78.9739 290.844025 
L 79.016786 290.561667 
L 79.055187 290.278664 
L 79.089092 289.995088 
L 79.118495 289.711009 
L 79.143386 289.426499 
L 79.16376 289.141631 
L 79.179612 288.856474 
L 79.190938 288.571103 
L 79.197734 288.285587 
L 79.2 288 
L 79.2 288 
L 79.197734 287.714413 
L 79.190938 287.428897 
L 79.179612 287.143526 
L 79.16376 286.858369 
L 79.143386 286.573501 
L 79.118495 286.288991 
L 79.089092 286.004912 
L 79.055187 285.721336 
L 79.016786 285.438333 
L 78.9739 285.155975 
L 78.92654 284.874333 
L 78.874717 284.593478 
L 78.818444 284.31348 
L 78.757736 284.03441 
L 78.692608 283.756339 
L 78.623077 283.479336 
L 78.549159 283.203471 
L 78.470874 282.928814 
L 78.38824 282.655433 
L 78.30128 282.383398 
L 78.210015 282.112777 
L 78.114467 281.843637 
L 78.014661 281.576048 
L 77.910623 281.310076 
L 77.802377 281.045788 
L 77.689952 280.78325 
L 77.573376 280.52253 
L 77.452678 280.263692 
L 77.327888 280.006801 
L 77.199038 279.751923 
L 77.066161 279.499121 
L 76.929289 279.248459 
L 76.788457 279 
L 76.643701 278.753807 
L 76.495058 278.509942 
L 76.342564 278.268465 
L 76.186257 278.029439 
L 76.026178 277.792922 
L 75.862367 277.558976 
L 75.694865 277.327657 
L 75.523713 277.099026 
L 75.348956 276.873138 
L 75.170636 276.650052 
L 74.9888 276.429823 
L 74.803492 276.212507 
L 74.61476 275.998158 
L 74.422651 275.786831 
L 74.227213 275.578578 
L 74.028495 275.373452 
L 73.826548 275.171505 
L 73.621422 274.972787 
L 73.413169 274.777349 
L 73.201842 274.58524 
L 72.987493 274.396508 
L 72.770177 274.2112 
L 72.549948 274.029364 
L 72.326862 273.851044 
L 72.100974 273.676287 
L 71.872343 273.505135 
L 71.641024 273.337633 
L 71.407078 273.173822 
L 71.170561 273.013743 
L 70.931535 272.857436 
L 70.690058 272.704942 
L 70.446193 272.556299 
L 70.2 272.411543 
L 69.951541 272.270711 
L 69.700879 272.133839 
L 69.448077 272.000962 
L 69.193199 271.872112 
L 68.936308 271.747322 
L 68.67747 271.626624 
L 68.41675 271.510048 
L 68.154212 271.397623 
L 67.889924 271.289377 
L 67.623952 271.185339 
L 67.356363 271.085533 
L 67.087223 270.989985 
L 66.816602 270.89872 
L 66.544567 270.81176 
L 66.271186 270.729126 
L 65.996529 270.650841 
L 65.720664 270.576923 
L 65.443661 270.507392 
L 65.16559 270.442264 
L 64.88652 270.381556 
L 64.606522 270.325283 
L 64.325667 270.27346 
L 64.044025 270.2261 
L 63.761667 270.183214 
L 63.478664 270.144813 
L 63.195088 270.110908 
L 62.911009 270.081505 
L 62.626499 270.056614 
L 62.341631 270.03624 
L 62.056474 270.020388 
L 61.771103 270.009062 
L 61.485587 270.002266 
L 61.2 270 
L 25.2 270 
L 24.914413 270.002266 
L 24.628897 270.009062 
L 24.343526 270.020388 
L 24.058369 270.03624 
L 23.773501 270.056614 
L 23.488991 270.081505 
L 23.204912 270.110908 
L 22.921336 270.144813 
L 22.638333 270.183214 
L 22.355975 270.2261 
L 22.074333 270.27346 
L 21.793478 270.325283 
L 21.51348 270.381556 
L 21.23441 270.442264 
L 20.956339 270.507392 
L 20.679336 270.576923 
L 20.403471 270.650841 
L 20.128814 270.729126 
L 19.855433 270.81176 
L 19.583398 270.89872 
L 19.312777 270.989985 
L 19.043637 271.085533 
L 18.776048 271.185339 
L 18.510076 271.289377 
L 18.245788 271.397623 
L 17.98325 271.510048 
L 17.72253 271.626624 
L 17.463692 271.747322 
L 17.206801 271.872112 
L 16.951923 272.000962 
L 16.699121 272.133839 
L 16.448459 272.270711 
L 16.2 272.411543 
L 15.953807 272.556299 
L 15.709942 272.704942 
L 15.468465 272.857436 
L 15.229439 273.013743 
L 14.992922 273.173822 
L 14.758976 273.337633 
L 14.527657 273.505135 
L 14.299026 273.676287 
L 14.073138 273.851044 
L 13.850052 274.029364 
L 13.629823 274.2112 
L 13.412507 274.396508 
L 13.198158 274.58524 
L 12.986831 274.777349 
L 12.778578 274.972787 
L 12.573452 275.171505 
L 12.371505 275.373452 
L 12.172787 275.578578 
L 11.977349 275.786831 
L 11.78524 275.998158 
L 11.596508 276.212507 
L 11.4112 276.429823 
L 11.229364 276.650052 
L 11.051044 276.873138 
L 10.876287 277.099026 
L 10.705135 277.327657 
L 10.537633 277.558976 
L 10.373822 277.792922 
L 10.213743 278.029439 
L 10.057436 278.268465 
L 9.904942 278.509942 
L 9.756299 278.753807 
L 9.611543 279 
L 9.470711 279.248459 
L 9.333839 279.499121 
L 9.200962 279.751923 
L 9.072112 280.006801 
L 8.947322 280.263692 
L 8.826624 280.52253 
L 8.710048 280.78325 
L 8.597623 281.045788 
L 8.489377 281.310076 
L 8.385339 281.576048 
L 8.285533 281.843637 
L 8.189985 282.112777 
L 8.09872 282.383398 
L 8.01176 282.655433 
L 7.929126 282.928814 
L 7.850841 283.203471 
L 7.776923 283.479336 
L 7.707392 283.756339 
L 7.642264 284.03441 
L 7.581556 284.31348 
L 7.525283 284.593478 
L 7.47346 284.874333 
L 7.4261 285.155975 
L 7.383214 285.438333 
L 7.344813 285.721336 
L 7.310908 286.004912 
L 7.281505 286.288991 
L 7.256614 286.573501 
L 7.23624 286.858369 
L 7.220388 287.143526 
L 7.209062 287.428897 
L 7.202266 287.714413 
L 7.2 288 
L 7.2 288 
L 7.202266 288.285587 
L 7.209062 288.571103 
L 7.220388 288.856474 
L 7.23624 289.141631 
L 7.256614 289.426499 
L 7.281505 289.711009 
L 7.310908 289.995088 
L 7.344813 290.278664 
L 7.383214 290.561667 
L 7.4261 290.844025 
L 7.47346 291.125667 
L 7.525283 291.406522 
L 7.581556 291.68652 
L 7.642264 291.96559 
L 7.707392 292.243661 
L 7.776923 292.520664 
L 7.850841 292.796529 
L 7.929126 293.071186 
L 8.01176 293.344567 
L 8.09872 293.616602 
L 8.189985 293.887223 
L 8.285533 294.156363 
L 8.385339 294.423952 
L 8.489377 294.689924 
L 8.597623 294.954212 
L 8.710048 295.21675 
L 8.826624 295.47747 
L 8.947322 295.736308 
L 9.072112 295.993199 
L 9.200962 296.248077 
L 9.333839 296.500879 
L 9.470711 296.751541 
L 9.611543 297 
L 9.756299 297.246193 
L 9.904942 297.490058 
L 10.057436 297.731535 
L 10.213743 297.970561 
L 10.373822 298.207078 
L 10.537633 298.441024 
L 10.705135 298.672343 
L 10.876287 298.900974 
L 11.051044 299.126862 
L 11.229364 299.349948 
L 11.4112 299.570177 
L 11.596508 299.787493 
L 11.78524 300.001842 
L 11.977349 300.213169 
L 12.172787 300.421422 
L 12.371505 300.626548 
L 12.573452 300.828495 
L 12.778578 301.027213 
L 12.986831 301.222651 
L 13.198158 301.41476 
L 13.412507 301.603492 
L 13.629823 301.7888 
L 13.850052 301.970636 
L 14.073138 302.148956 
L 14.299026 302.323713 
L 14.527657 302.494865 
L 14.758976 302.662367 
L 14.992922 302.826178 
L 15.229439 302.986257 
L 15.468465 303.142564 
L 15.709942 303.295058 
L 15.953807 303.443701 
L 16.2 303.588457 
L 16.448459 303.729289 
L 16.699121 303.866161 
L 16.951923 303.999038 
L 17.206801 304.127888 
L 17.463692 304.252678 
L 17.72253 304.373376 
L 17.98325 304.489952 
L 18.245788 304.602377 
L 18.510076 304.710623 
L 18.776048 304.814661 
L 19.043637 304.914467 
L 19.312777 305.010015 
L 19.583398 305.10128 
L 19.855433 305.18824 
L 20.128814 305.270874 
L 20.403471 305.349159 
L 20.679336 305.423077 
L 20.956339 305.492608 
L 21.23441 305.557736 
L 21.51348 305.618444 
L 21.793478 305.674717 
L 22.074333 305.72654 
L 22.355975 305.7739 
L 22.638333 305.816786 
L 22.921336 305.855187 
L 23.204912 305.889092 
L 23.488991 305.918495 
L 23.773501 305.943386 
L 24.058369 305.96376 
L 24.343526 305.979612 
L 24.628897 305.990938 
L 24.914413 305.997734 
L 25.2 306 
L 61.2 306 
z
" clip-path="url(#p01dc19e8ae)" style="fill: none; stroke: #000000; stroke-linecap: round"/>
   </g>
   <g id="line2d_1">
    <path d="M 43.2 54 
L 43.2 67.5 
L 43.2 72 
" clip-path="url(#p01dc19e8ae)" style="fill: none; stroke: #000000; stroke-linecap: round"/>
   </g>
   <g id="patch_4">
    <path d="M 45.9 72 
L 43.2 81 
L 40.5 72 
z
" clip-path="url(#p01dc19e8ae)"/>
   </g>
   <g id="line2d_2">
    <path d="M 7.2 99 
L 7.2 81 
L 79.2 81 
L 79.2 117 
L 7.2 117 
L 7.2 99 
" clip-path="url(#p01dc19e8ae)" style="fill: none; stroke: #000000; stroke-linecap: round"/>
   </g>
   <g id="line2d_3">
    <path d="M 43.2 117 
L 43.2 130.5 
L 43.2 135 
" clip-path="url(#p01dc19e8ae)" style="fill: none; stroke: #000000; stroke-linecap: round"/>
   </g>
   <g id="patch_5">
    <path d="M 45.9 135 
L 43.2 144 
L 40.5 135 
z
" clip-path="url(#p01dc19e8ae)"/>
   </g>
   <g id="line2d_4">
    <path d="M 7.2 162 
L 7.2 144 
L 79.2 144 
L 79.2 180 
L 7.2 180 
L 7.2 162 
" clip-path="url(#p01dc19e8ae)" style="fill: none; stroke: #000000; stroke-linecap: round"/>
   </g>
   <g id="line2d_5">
    <path d="M 43.2 180 
L 43.2 193.5 
L 43.2 198 
" clip-path="url(#p01dc19e8ae)" style="fill: none; stroke: #000000; stroke-linecap: round"/>
   </g>
   <g id="patch_6">
    <path d="M 45.9 198 
L 43.2 207 
L 40.5 198 
z
" clip-path="url(#p01dc19e8ae)"/>
   </g>
   <g id="line2d_6">
    <path d="M 7.2 225 
L 7.2 207 
L 79.2 207 
L 79.2 243 
L 7.2 243 
L 7.2 225 
" clip-path="url(#p01dc19e8ae)" style="fill: none; stroke: #000000; stroke-linecap: round"/>
   </g>
   <g id="line2d_7">
    <path d="M 43.2 243 
L 43.2 256.5 
L 43.2 261 
" clip-path="url(#p01dc19e8ae)" style="fill: none; stroke: #000000; stroke-linecap: round"/>
   </g>
   <g id="patch_7">
    <path d="M 45.9 261 
L 43.2 270 
L 40.5 261 
z
" clip-path="url(#p01dc19e8ae)"/>
   </g>
   <g id="text_1">
    <!-- START -->
    <g transform="translate(24.023242 39.494141) scale(0.125 -0.125)">
     <defs>
      <path id="IPAexGothic-53" d="M 2919 3641 
Q 2563 4259 1853 4259 
Q 1453 4259 1213 4009 
Q 1028 3803 1028 3534 
Q 1028 3238 1266 3047 
Q 1444 2913 1984 2688 
L 2200 2597 
Q 2925 2306 3191 1953 
Q 3422 1644 3422 1259 
Q 3422 644 2969 288 
Q 2559 -31 1931 -31 
Q 881 -31 313 766 
L 753 1100 
Q 1203 459 1938 459 
Q 2288 459 2534 625 
Q 2841 847 2841 1216 
Q 2841 1503 2616 1728 
Q 2375 1959 1728 2206 
L 1541 2278 
Q 453 2694 453 3481 
Q 453 4006 806 4347 
Q 1203 4725 1863 4725 
Q 2841 4725 3359 3956 
L 2919 3641 
z
" transform="scale(0.015625)"/>
      <path id="IPAexGothic-54" d="M 3866 4141 
L 2175 4141 
L 2175 63 
L 1606 63 
L 1606 4141 
L -31 4141 
L -31 4634 
L 3866 4634 
L 3866 4141 
z
" transform="scale(0.015625)"/>
      <path id="IPAexGothic-41" d="M 4056 63 
L 3444 63 
L 2938 1409 
L 1100 1409 
L 603 63 
L -6 63 
L 1806 4666 
L 2259 4666 
L 4056 63 
z
M 2778 1863 
L 2316 3078 
Q 2125 3588 2028 4000 
L 2009 4000 
Q 1897 3563 1716 3078 
L 1263 1863 
L 2778 1863 
z
" transform="scale(0.015625)"/>
      <path id="IPAexGothic-52" d="M 4072 63 
L 3394 63 
Q 3138 641 2828 1197 
Q 2584 1641 2344 1825 
Q 2050 2044 1625 2044 
L 1172 2044 
L 1172 63 
L 609 63 
L 609 4634 
L 2009 4634 
Q 2713 4634 3131 4378 
Q 3688 4044 3688 3381 
Q 3688 2784 3181 2459 
Q 2906 2272 2522 2216 
L 2522 2197 
Q 2941 2050 3247 1581 
Q 3516 1166 4072 63 
z
M 1172 2478 
L 1869 2478 
Q 3106 2478 3106 3369 
Q 3106 4181 1928 4181 
L 1172 4181 
L 1172 2478 
z
" transform="scale(0.015625)"/>
     </defs>
     <use xlink:href="#IPAexGothic-53"/>
     <use xlink:href="#IPAexGothic-54" x="58.496094"/>
     <use xlink:href="#IPAexGothic-41" x="118.408203"/>
     <use xlink:href="#IPAexGothic-52" x="182.128906"/>
     <use xlink:href="#IPAexGothic-54" x="246.923828"/>
    </g>
   </g>
   <g id="text_2">
    <!-- x = 10 -->
    <g transform="translate(24.658008 102.494141) scale(0.125 -0.125)">
     <defs>
      <path id="IPAexGothic-78" d="M 3050 63 
L 2419 63 
L 1547 1338 
L 691 63 
L 56 63 
L 1247 1675 
L 106 3250 
L 747 3250 
L 1578 2016 
L 2413 3250 
L 3019 3250 
L 1875 1681 
L 3050 63 
z
" transform="scale(0.015625)"/>
      <path id="IPAexGothic-20" transform="scale(0.015625)"/>
      <path id="IPAexGothic-3d" d="M 416 2803 
L 3922 2803 
L 3922 2438 
L 416 2438 
L 416 2803 
z
M 416 1625 
L 3922 1625 
L 3922 1259 
L 416 1259 
L 416 1625 
z
" transform="scale(0.015625)"/>
      <path id="IPAexGothic-31" d="M 2463 63 
L 1900 63 
L 1900 4103 
Q 1372 3922 788 3797 
L 684 4231 
Q 1519 4441 2106 4731 
L 2463 4731 
L 2463 63 
z
" transform="scale(0.015625)"/>
      <path id="IPAexGothic-30" d="M 2038 4725 
Q 2881 4725 3334 3944 
Q 3694 3325 3694 2344 
Q 3694 1372 3334 741 
Q 2888 -31 2016 -31 
Q 1147 -31 700 741 
Q 341 1372 341 2350 
Q 341 3713 1000 4334 
Q 1419 4725 2038 4725 
z
M 2016 4266 
Q 1516 4266 1228 3759 
Q 934 3247 934 2344 
Q 934 1456 1222 947 
Q 1513 447 2016 447 
Q 2619 447 2909 1153 
Q 3100 1622 3100 2375 
Q 3100 3256 2806 3759 
Q 2509 4266 2016 4266 
z
" transform="scale(0.015625)"/>
     </defs>
     <use xlink:href="#IPAexGothic-78"/>
     <use xlink:href="#IPAexGothic-20" x="48.876953"/>
     <use xlink:href="#IPAexGothic-3d" x="75.878906"/>
     <use xlink:href="#IPAexGothic-20" x="143.701172"/>
     <use xlink:href="#IPAexGothic-31" x="170.703125"/>
     <use xlink:href="#IPAexGothic-30" x="233.691406"/>
    </g>
   </g>
   <g id="text_3">
    <!-- y = x + 5 -->
    <g transform="translate(17.904102 165.494141) scale(0.125 -0.125)">
     <defs>
      <path id="IPAexGothic-79" d="M 3122 3250 
L 1575 -488 
Q 1278 -1203 550 -1203 
L 478 -1203 
L 344 -703 
L 447 -703 
Q 969 -703 1150 -238 
L 1356 275 
L 38 3250 
L 659 3250 
L 1363 1459 
Q 1528 1025 1606 781 
L 1625 781 
Q 1750 1169 1863 1459 
L 2528 3250 
L 3122 3250 
z
" transform="scale(0.015625)"/>
      <path id="IPAexGothic-2b" d="M 2369 1856 
L 2369 219 
L 1984 219 
L 1984 1856 
L 416 1856 
L 416 2216 
L 1984 2216 
L 1984 3725 
L 2369 3725 
L 2369 2216 
L 3922 2216 
L 3922 1856 
L 2369 1856 
z
" transform="scale(0.015625)"/>
      <path id="IPAexGothic-35" d="M 1178 2603 
Q 1634 2963 2172 2963 
Q 2816 2963 3241 2528 
Q 3638 2113 3638 1497 
Q 3638 938 3297 513 
Q 2869 -31 2031 -31 
Q 959 -31 469 784 
L 938 1028 
Q 1309 434 2013 434 
Q 2466 434 2769 716 
Q 3081 1013 3081 1503 
Q 3081 1966 2806 2241 
Q 2519 2528 2056 2528 
Q 1406 2528 1072 2028 
L 591 2091 
L 884 4634 
L 3406 4634 
L 3406 4153 
L 1341 4153 
L 1134 2603 
L 1178 2603 
z
" transform="scale(0.015625)"/>
     </defs>
     <use xlink:href="#IPAexGothic-79"/>
     <use xlink:href="#IPAexGothic-20" x="49.21875"/>
     <use xlink:href="#IPAexGothic-3d" x="76.220703"/>
     <use xlink:href="#IPAexGothic-20" x="144.042969"/>
     <use xlink:href="#IPAexGothic-78" x="171.044922"/>
     <use xlink:href="#IPAexGothic-20" x="219.921875"/>
     <use xlink:href="#IPAexGothic-2b" x="246.923828"/>
     <use xlink:href="#IPAexGothic-20" x="314.746094"/>
     <use xlink:href="#IPAexGothic-35" x="341.748047"/>
    </g>
   </g>
   <g id="text_4">
    <!-- print(y) -->
    <g transform="translate(22.139453 228.606445) scale(0.125 -0.125)">
     <defs>
      <path id="IPAexGothic-70" d="M 1075 2688 
Q 1525 3341 2206 3341 
Q 2769 3341 3172 2938 
Q 3641 2469 3641 1644 
Q 3641 841 3178 372 
Q 2775 -31 2200 -31 
Q 1569 -31 1106 497 
L 1106 -1216 
L 563 -1216 
L 563 3250 
L 1075 3250 
L 1075 2688 
z
M 1106 1950 
L 1106 1291 
Q 1106 897 1516 600 
Q 1791 403 2106 403 
Q 2469 403 2725 659 
Q 3066 997 3066 1631 
Q 3066 2200 2784 2559 
Q 2503 2900 2100 2900 
Q 1656 2900 1338 2484 
Q 1106 2184 1106 1950 
z
" transform="scale(0.015625)"/>
      <path id="IPAexGothic-72" d="M 2309 3316 
L 2213 2769 
Q 2106 2791 2022 2791 
Q 1653 2791 1413 2444 
Q 1113 2006 1113 1675 
L 1113 63 
L 563 63 
L 563 3250 
L 1081 3250 
L 1056 2303 
L 1069 2303 
Q 1422 3341 2097 3341 
Q 2206 3341 2309 3316 
z
" transform="scale(0.015625)"/>
      <path id="IPAexGothic-69" d="M 1178 3928 
L 550 3928 
L 550 4569 
L 1178 4569 
L 1178 3928 
z
M 1138 63 
L 588 63 
L 588 3250 
L 1138 3250 
L 1138 63 
z
" transform="scale(0.015625)"/>
      <path id="IPAexGothic-6e" d="M 3328 63 
L 2778 63 
L 2778 2041 
Q 2778 2853 2106 2853 
Q 1428 2853 1113 2041 
L 1113 63 
L 563 63 
L 563 3250 
L 1075 3250 
L 1075 2675 
Q 1525 3316 2222 3316 
Q 3328 3316 3328 2072 
L 3328 63 
z
" transform="scale(0.015625)"/>
      <path id="IPAexGothic-74" d="M 2125 241 
Q 1769 -6 1397 -6 
Q 653 -6 653 831 
L 653 2859 
L 219 2859 
L 219 3250 
L 653 3250 
L 653 3966 
L 1178 4228 
L 1178 3250 
L 2063 3250 
L 2063 2859 
L 1178 2859 
L 1178 906 
Q 1178 416 1513 416 
Q 1738 416 1941 588 
L 2125 241 
z
" transform="scale(0.015625)"/>
      <path id="IPAexGothic-28" d="M 1928 -1016 
L 1653 -1166 
Q 488 69 488 1875 
Q 488 3678 1653 4909 
L 1928 4763 
Q 1006 3522 1006 1881 
Q 1006 203 1928 -1016 
z
" transform="scale(0.015625)"/>
      <path id="IPAexGothic-29" d="M 466 4909 
Q 1638 3672 1638 1875 
Q 1638 75 466 -1166 
L 191 -1016 
Q 1119 216 1119 1881 
Q 1119 3509 191 4763 
L 466 4909 
z
" transform="scale(0.015625)"/>
     </defs>
     <use xlink:href="#IPAexGothic-70"/>
     <use xlink:href="#IPAexGothic-72" x="62.109375"/>
     <use xlink:href="#IPAexGothic-69" x="99.121094"/>
     <use xlink:href="#IPAexGothic-6e" x="126.123047"/>
     <use xlink:href="#IPAexGothic-74" x="186.523438"/>
     <use xlink:href="#IPAexGothic-28" x="221.142578"/>
     <use xlink:href="#IPAexGothic-79" x="254.443359"/>
     <use xlink:href="#IPAexGothic-29" x="303.662109"/>
    </g>
   </g>
   <g id="text_5">
    <!-- END -->
    <g transform="translate(30.000781 291.494141) scale(0.125 -0.125)">
     <defs>
      <path id="IPAexGothic-45" d="M 3547 63 
L 609 63 
L 609 4634 
L 3469 4634 
L 3469 4147 
L 1166 4147 
L 1166 2650 
L 3206 2650 
L 3206 2191 
L 1166 2191 
L 1166 556 
L 3547 556 
L 3547 63 
z
" transform="scale(0.015625)"/>
      <path id="IPAexGothic-4e" d="M 4244 63 
L 3731 63 
L 1697 3150 
Q 1466 3500 1141 4097 
L 1116 4097 
L 1128 3797 
Q 1159 2803 1159 2469 
L 1159 63 
L 609 63 
L 609 4634 
L 1366 4634 
L 3113 1978 
Q 3453 1447 3713 966 
L 3738 966 
Q 3694 1897 3694 2469 
L 3694 4634 
L 4244 4634 
L 4244 63 
z
" transform="scale(0.015625)"/>
      <path id="IPAexGothic-44" d="M 609 4634 
L 1984 4634 
Q 3159 4634 3791 4050 
Q 4456 3444 4456 2356 
Q 4456 1047 3516 441 
Q 2925 63 1941 63 
L 609 63 
L 609 4634 
z
M 1172 556 
L 1894 556 
Q 3853 556 3853 2356 
Q 3853 4147 1928 4147 
L 1172 4147 
L 1172 556 
z
" transform="scale(0.015625)"/>
     </defs>
     <use xlink:href="#IPAexGothic-45"/>
     <use xlink:href="#IPAexGothic-4e" x="59.521484"/>
     <use xlink:href="#IPAexGothic-44" x="135.498047"/>
    </g>
   </g>
  </g>
 </g>
 <defs>
  <clipPath id="p01dc19e8ae">
   <rect x="3.6" y="3.6" width="79.2" height="316.8"/>
  </clipPath>
 </defs>
</svg>