<?xml version="1.0" encoding="utf-8" standalone="no"?>
<!DOCTYPE svg PUBLIC "-//W3C//DTD SVG 1.1//EN"
  "http://www.w3.org/Graphics/SVG/1.1/DTD/svg11.dtd">
<svg xmlns:xlink="http://www.w3.org/1999/xlink" width="298.26pt" height="357.66pt" viewBox="0 0 298.26 357.66" xmlns="http://www.w3.org/2000/svg" version="1.1">
 <metadata>
  <rdf:RDF xmlns:dc="http://purl.org/dc/elements/1.1/" xmlns:cc="http://creativecommons.org/ns#" xmlns:rdf="http://www.w3.org/1999/02/22-rdf-syntax-ns#">
   <cc:Work>
    <dc:type rdf:resource="http://purl.org/dc/dcmitype/StillImage"/>
    <dc:date>2024-03-06T13:34:38.223156</dc:date>
    <dc:format>image/svg+xml</dc:format>
    <dc:creator>
     <cc:Agent>
      <dc:title>Matplotlib v3.8.3, https://matplotlib.org/</dc:title>
     </cc:Agent>
    </dc:creator>
   </cc:Work>
  </rdf:RDF>
 </metadata>
 <defs>
  <style type="text/css">*{stroke-linejoin: round; stroke-linecap: butt}</style>
 </defs>
 <g id="figure_1">
  <g id="patch_1">
   <path d="M 0 357.66 
L 298.26 357.66 
L 298.26 0 
L 0 0 
z
" style="fill: #ffffff"/>
  </g>
  <g id="axes_1">
   <g id="patch_2">
    <path d="M 101.43 55.53 
L 101.715587 55.527734 
L 102.001103 55.520938 
L 102.286474 55.509612 
L 102.571631 55.49376 
L 102.856499 55.473386 
L 103.141009 55.448495 
L 103.425088 55.419092 
L 103.708664 55.385187 
L 103.991667 55.346786 
L 104.274025 55.3039 
L 104.555667 55.25654 
L 104.836522 55.204717 
L 105.11652 55.148444 
L 105.39559 55.087736 
L 105.673661 55.022608 
L 105.950664 54.953077 
L 106.226529 54.879159 
L 106.501186 54.800874 
L 106.774567 54.71824 
L 107.046602 54.63128 
L 107.317223 54.540015 
L 107.586363 54.444467 
L 107.853952 54.344661 
L 108.119924 54.240623 
L 108.384212 54.132377 
L 108.64675 54.019952 
L 108.90747 53.903376 
L 109.166308 53.782678 
L 109.423199 53.657888 
L 109.678077 53.529038 
L 109.930879 53.396161 
L 110.181541 53.259289 
L 110.43 53.118457 
L 110.676193 52.973701 
L 110.920058 52.825058 
L 111.161535 52.672564 
L 111.400561 52.516257 
L 111.637078 52.356178 
L 111.871024 52.192367 
L 112.102343 52.024865 
L 112.330974 51.853713 
L 112.556862 51.678956 
L 112.779948 51.500636 
L 113.000177 51.3188 
L 113.217493 51.133492 
L 113.431842 50.94476 
L 113.643169 50.752651 
L 113.851422 50.557213 
L 114.056548 50.358495 
L 114.258495 50.156548 
L 114.457213 49.951422 
L 114.652651 49.743169 
L 114.84476 49.531842 
L 115.033492 49.317493 
L 115.2188 49.100177 
L 115.400636 48.879948 
L 115.578956 48.656862 
L 115.753713 48.430974 
L 115.924865 48.202343 
L 116.092367 47.971024 
L 116.256178 47.737078 
L 116.416257 47.500561 
L 116.572564 47.261535 
L 116.725058 47.020058 
L 116.873701 46.776193 
L 117.018457 46.53 
L 117.159289 46.281541 
L 117.296161 46.030879 
L 117.429038 45.778077 
L 117.557888 45.523199 
L 117.682678 45.266308 
L 117.803376 45.00747 
L 117.919952 44.74675 
L 118.032377 44.484212 
L 118.140623 44.219924 
L 118.244661 43.953952 
L 118.344467 43.686363 
L 118.440015 43.417223 
L 118.53128 43.146602 
L 118.61824 42.874567 
L 118.700874 42.601186 
L 118.779159 42.326529 
L 118.853077 42.050664 
L 118.922608 41.773661 
L 118.987736 41.49559 
L 119.048444 41.21652 
L 119.104717 40.936522 
L 119.15654 40.655667 
L 119.2039 40.374025 
L 119.246786 40.091667 
L 119.285187 39.808664 
L 119.319092 39.525088 
L 119.348495 39.241009 
L 119.373386 38.956499 
L 119.39376 38.671631 
L 119.409612 38.386474 
L 119.420938 38.101103 
L 119.427734 37.815587 
L 119.43 37.53 
L 119.43 37.53 
L 119.427734 37.244413 
L 119.420938 36.958897 
L 119.409612 36.673526 
L 119.39376 36.388369 
L 119.373386 36.103501 
L 119.348495 35.818991 
L 119.319092 35.534912 
L 119.285187 35.251336 
L 119.246786 34.968333 
L 119.2039 34.685975 
L 119.15654 34.404333 
L 119.104717 34.123478 
L 119.048444 33.84348 
L 118.987736 33.56441 
L 118.922608 33.286339 
L 118.853077 33.009336 
L 118.779159 32.733471 
L 118.700874 32.458814 
L 118.61824 32.185433 
L 118.53128 31.913398 
L 118.440015 31.642777 
L 118.344467 31.373637 
L 118.244661 31.106048 
L 118.140623 30.840076 
L 118.032377 30.575788 
L 117.919952 30.31325 
L 117.803376 30.05253 
L 117.682678 29.793692 
L 117.557888 29.536801 
L 117.429038 29.281923 
L 117.296161 29.029121 
L 117.159289 28.778459 
L 117.018457 28.53 
L 116.873701 28.283807 
L 116.725058 28.039942 
L 116.572564 27.798465 
L 116.416257 27.559439 
L 116.256178 27.322922 
L 116.092367 27.088976 
L 115.924865 26.857657 
L 115.753713 26.629026 
L 115.578956 26.403138 
L 115.400636 26.180052 
L 115.2188 25.959823 
L 115.033492 25.742507 
L 114.84476 25.528158 
L 114.652651 25.316831 
L 114.457213 25.108578 
L 114.258495 24.903452 
L 114.056548 24.701505 
L 113.851422 24.502787 
L 113.643169 24.307349 
L 113.431842 24.11524 
L 113.217493 23.926508 
L 113.000177 23.7412 
L 112.779948 23.559364 
L 112.556862 23.381044 
L 112.330974 23.206287 
L 112.102343 23.035135 
L 111.871024 22.867633 
L 111.637078 22.703822 
L 111.400561 22.543743 
L 111.161535 22.387436 
L 110.920058 22.234942 
L 110.676193 22.086299 
L 110.43 21.941543 
L 110.181541 21.800711 
L 109.930879 21.663839 
L 109.678077 21.530962 
L 109.423199 21.402112 
L 109.166308 21.277322 
L 108.90747 21.156624 
L 108.64675 21.040048 
L 108.384212 20.927623 
L 108.119924 20.819377 
L 107.853952 20.715339 
L 107.586363 20.615533 
L 107.317223 20.519985 
L 107.046602 20.42872 
L 106.774567 20.34176 
L 106.501186 20.259126 
L 106.226529 20.180841 
L 105.950664 20.106923 
L 105.673661 20.037392 
L 105.39559 19.972264 
L 105.11652 19.911556 
L 104.836522 19.855283 
L 104.555667 19.80346 
L 104.274025 19.7561 
L 103.991667 19.713214 
L 103.708664 19.674813 
L 103.425088 19.640908 
L 103.141009 19.611505 
L 102.856499 19.586614 
L 102.571631 19.56624 
L 102.286474 19.550388 
L 102.001103 19.539062 
L 101.715587 19.532266 
L 101.43 19.53 
L 65.43 19.53 
L 65.144413 19.532266 
L 64.858897 19.539062 
L 64.573526 19.550388 
L 64.288369 19.56624 
L 64.003501 19.586614 
L 63.718991 19.611505 
L 63.434912 19.640908 
L 63.151336 19.674813 
L 62.868333 19.713214 
L 62.585975 19.7561 
L 62.304333 19.80346 
L 62.023478 19.855283 
L 61.74348 19.911556 
L 61.46441 19.972264 
L 61.186339 20.037392 
L 60.909336 20.106923 
L 60.633471 20.180841 
L 60.358814 20.259126 
L 60.085433 20.34176 
L 59.813398 20.42872 
L 59.542777 20.519985 
L 59.273637 20.615533 
L 59.006048 20.715339 
L 58.740076 20.819377 
L 58.475788 20.927623 
L 58.21325 21.040048 
L 57.95253 21.156624 
L 57.693692 21.277322 
L 57.436801 21.402112 
L 57.181923 21.530962 
L 56.929121 21.663839 
L 56.678459 21.800711 
L 56.43 21.941543 
L 56.183807 22.086299 
L 55.939942 22.234942 
L 55.698465 22.387436 
L 55.459439 22.543743 
L 55.222922 22.703822 
L 54.988976 22.867633 
L 54.757657 23.035135 
L 54.529026 23.206287 
L 54.303138 23.381044 
L 54.080052 23.559364 
L 53.859823 23.7412 
L 53.642507 23.926508 
L 53.428158 24.11524 
L 53.216831 24.307349 
L 53.008578 24.502787 
L 52.803452 24.701505 
L 52.601505 24.903452 
L 52.402787 25.108578 
L 52.207349 25.316831 
L 52.01524 25.528158 
L 51.826508 25.742507 
L 51.6412 25.959823 
L 51.459364 26.180052 
L 51.281044 26.403138 
L 51.106287 26.629026 
L 50.935135 26.857657 
L 50.767633 27.088976 
L 50.603822 27.322922 
L 50.443743 27.559439 
L 50.287436 27.798465 
L 50.134942 28.039942 
L 49.986299 28.283807 
L 49.841543 28.53 
L 49.700711 28.778459 
L 49.563839 29.029121 
L 49.430962 29.281923 
L 49.302112 29.536801 
L 49.177322 29.793692 
L 49.056624 30.05253 
L 48.940048 30.31325 
L 48.827623 30.575788 
L 48.719377 30.840076 
L 48.615339 31.106048 
L 48.515533 31.373637 
L 48.419985 31.642777 
L 48.32872 31.913398 
L 48.24176 32.185433 
L 48.159126 32.458814 
L 48.080841 32.733471 
L 48.006923 33.009336 
L 47.937392 33.286339 
L 47.872264 33.56441 
L 47.811556 33.84348 
L 47.755283 34.123478 
L 47.70346 34.404333 
L 47.6561 34.685975 
L 47.613214 34.968333 
L 47.574813 35.251336 
L 47.540908 35.534912 
L 47.511505 35.818991 
L 47.486614 36.103501 
L 47.46624 36.388369 
L 47.450388 36.673526 
L 47.439062 36.958897 
L 47.432266 37.244413 
L 47.43 37.53 
L 47.43 37.53 
L 47.432266 37.815587 
L 47.439062 38.101103 
L 47.450388 38.386474 
L 47.46624 38.671631 
L 47.486614 38.956499 
L 47.511505 39.241009 
L 47.540908 39.525088 
L 47.574813 39.808664 
L 47.613214 40.091667 
L 47.6561 40.374025 
L 47.70346 40.655667 
L 47.755283 40.936522 
L 47.811556 41.21652 
L 47.872264 41.49559 
L 47.937392 41.773661 
L 48.006923 42.050664 
L 48.080841 42.326529 
L 48.159126 42.601186 
L 48.24176 42.874567 
L 48.32872 43.146602 
L 48.419985 43.417223 
L 48.515533 43.686363 
L 48.615339 43.953952 
L 48.719377 44.219924 
L 48.827623 44.484212 
L 48.940048 44.74675 
L 49.056624 45.00747 
L 49.177322 45.266308 
L 49.302112 45.523199 
L 49.430962 45.778077 
L 49.563839 46.030879 
L 49.700711 46.281541 
L 49.841543 46.53 
L 49.986299 46.776193 
L 50.134942 47.020058 
L 50.287436 47.261535 
L 50.443743 47.500561 
L 50.603822 47.737078 
L 50.767633 47.971024 
L 50.935135 48.202343 
L 51.106287 48.430974 
L 51.281044 48.656862 
L 51.459364 48.879948 
L 51.6412 49.100177 
L 51.826508 49.317493 
L 52.01524 49.531842 
L 52.207349 49.743169 
L 52.402787 49.951422 
L 52.601505 50.156548 
L 52.803452 50.358495 
L 53.008578 50.557213 
L 53.216831 50.752651 
L 53.428158 50.94476 
L 53.642507 51.133492 
L 53.859823 51.3188 
L 54.080052 51.500636 
L 54.303138 51.678956 
L 54.529026 51.853713 
L 54.757657 52.024865 
L 54.988976 52.192367 
L 55.222922 52.356178 
L 55.459439 52.516257 
L 55.698465 52.672564 
L 55.939942 52.825058 
L 56.183807 52.973701 
L 56.43 53.118457 
L 56.678459 53.259289 
L 56.929121 53.396161 
L 57.181923 53.529038 
L 57.436801 53.657888 
L 57.693692 53.782678 
L 57.95253 53.903376 
L 58.21325 54.019952 
L 58.475788 54.132377 
L 58.740076 54.240623 
L 59.006048 54.344661 
L 59.273637 54.444467 
L 59.542777 54.540015 
L 59.813398 54.63128 
L 60.085433 54.71824 
L 60.358814 54.800874 
L 60.633471 54.879159 
L 60.909336 54.953077 
L 61.186339 55.022608 
L 61.46441 55.087736 
L 61.74348 55.148444 
L 62.023478 55.204717 
L 62.304333 55.25654 
L 62.585975 55.3039 
L 62.868333 55.346786 
L 63.151336 55.385187 
L 63.434912 55.419092 
L 63.718991 55.448495 
L 64.003501 55.473386 
L 64.288369 55.49376 
L 64.573526 55.509612 
L 64.858897 55.520938 
L 65.144413 55.527734 
L 65.43 55.53 
L 101.43 55.53 
z
" clip-path="url(#pdfda547e86)" style="fill: none; stroke: #000000; stroke-linecap: round"/>
   </g>
   <g id="patch_3">
    <path d="M 29.43 168.93 
L 83.43 145.53 
L 137.43 168.93 
L 83.43 192.33 
L 29.43 168.93 
z
" clip-path="url(#pdfda547e86)" style="fill: none; stroke: #000000; stroke-linecap: round"/>
   </g>
   <g id="patch_4">
    <path d="M 101.43 338.13 
L 101.715587 338.127734 
L 102.001103 338.120938 
L 102.286474 338.109612 
L 102.571631 338.09376 
L 102.856499 338.073386 
L 103.141009 338.048495 
L 103.425088 338.019092 
L 103.708664 337.985187 
L 103.991667 337.946786 
L 104.274025 337.9039 
L 104.555667 337.85654 
L 104.836522 337.804717 
L 105.11652 337.748444 
L 105.39559 337.687736 
L 105.673661 337.622608 
L 105.950664 337.553077 
L 106.226529 337.479159 
L 106.501186 337.400874 
L 106.774567 337.31824 
L 107.046602 337.23128 
L 107.317223 337.140015 
L 107.586363 337.044467 
L 107.853952 336.944661 
L 108.119924 336.840623 
L 108.384212 336.732377 
L 108.64675 336.619952 
L 108.90747 336.503376 
L 109.166308 336.382678 
L 109.423199 336.257888 
L 109.678077 336.129038 
L 109.930879 335.996161 
L 110.181541 335.859289 
L 110.43 335.718457 
L 110.676193 335.573701 
L 110.920058 335.425058 
L 111.161535 335.272564 
L 111.400561 335.116257 
L 111.637078 334.956178 
L 111.871024 334.792367 
L 112.102343 334.624865 
L 112.330974 334.453713 
L 112.556862 334.278956 
L 112.779948 334.100636 
L 113.000177 333.9188 
L 113.217493 333.733492 
L 113.431842 333.54476 
L 113.643169 333.352651 
L 113.851422 333.157213 
L 114.056548 332.958495 
L 114.258495 332.756548 
L 114.457213 332.551422 
L 114.652651 332.343169 
L 114.84476 332.131842 
L 115.033492 331.917493 
L 115.2188 331.700177 
L 115.400636 331.479948 
L 115.578956 331.256862 
L 115.753713 331.030974 
L 115.924865 330.802343 
L 116.092367 330.571024 
L 116.256178 330.337078 
L 116.416257 330.100561 
L 116.572564 329.861535 
L 116.725058 329.620058 
L 116.873701 329.376193 
L 117.018457 329.13 
L 117.159289 328.881541 
L 117.296161 328.630879 
L 117.429038 328.378077 
L 117.557888 328.123199 
L 117.682678 327.866308 
L 117.803376 327.60747 
L 117.919952 327.34675 
L 118.032377 327.084212 
L 118.140623 326.819924 
L 118.244661 326.553952 
L 118.344467 326.286363 
L 118.440015 326.017223 
L 118.53128 325.746602 
L 118.61824 325.474567 
L 118.700874 325.201186 
L 118.779159 324.926529 
L 118.853077 324.650664 
L 118.922608 324.373661 
L 118.987736 324.09559 
L 119.048444 323.81652 
L 119.104717 323.536522 
L 119.15654 323.255667 
L 119.2039 322.974025 
L 119.246786 322.691667 
L 119.285187 322.408664 
L 119.319092 322.125088 
L 119.348495 321.841009 
L 119.373386 321.556499 
L 119.39376 321.271631 
L 119.409612 320.986474 
L 119.420938 320.701103 
L 119.427734 320.415587 
L 119.43 320.13 
L 119.43 320.13 
L 119.427734 319.844413 
L 119.420938 319.558897 
L 119.409612 319.273526 
L 119.39376 318.988369 
L 119.373386 318.703501 
L 119.348495 318.418991 
L 119.319092 318.134912 
L 119.285187 317.851336 
L 119.246786 317.568333 
L 119.2039 317.285975 
L 119.15654 317.004333 
L 119.104717 316.723478 
L 119.048444 316.44348 
L 118.987736 316.16441 
L 118.922608 315.886339 
L 118.853077 315.609336 
L 118.779159 315.333471 
L 118.700874 315.058814 
L 118.61824 314.785433 
L 118.53128 314.513398 
L 118.440015 314.242777 
L 118.344467 313.973637 
L 118.244661 313.706048 
L 118.140623 313.440076 
L 118.032377 313.175788 
L 117.919952 312.91325 
L 117.803376 312.65253 
L 117.682678 312.393692 
L 117.557888 312.136801 
L 117.429038 311.881923 
L 117.296161 311.629121 
L 117.159289 311.378459 
L 117.018457 311.13 
L 116.873701 310.883807 
L 116.725058 310.639942 
L 116.572564 310.398465 
L 116.416257 310.159439 
L 116.256178 309.922922 
L 116.092367 309.688976 
L 115.924865 309.457657 
L 115.753713 309.229026 
L 115.578956 309.003138 
L 115.400636 308.780052 
L 115.2188 308.559823 
L 115.033492 308.342507 
L 114.84476 308.128158 
L 114.652651 307.916831 
L 114.457213 307.708578 
L 114.258495 307.503452 
L 114.056548 307.301505 
L 113.851422 307.102787 
L 113.643169 306.907349 
L 113.431842 306.71524 
L 113.217493 306.526508 
L 113.000177 306.3412 
L 112.779948 306.159364 
L 112.556862 305.981044 
L 112.330974 305.806287 
L 112.102343 305.635135 
L 111.871024 305.467633 
L 111.637078 305.303822 
L 111.400561 305.143743 
L 111.161535 304.987436 
L 110.920058 304.834942 
L 110.676193 304.686299 
L 110.43 304.541543 
L 110.181541 304.400711 
L 109.930879 304.263839 
L 109.678077 304.130962 
L 109.423199 304.002112 
L 109.166308 303.877322 
L 108.90747 303.756624 
L 108.64675 303.640048 
L 108.384212 303.527623 
L 108.119924 303.419377 
L 107.853952 303.315339 
L 107.586363 303.215533 
L 107.317223 303.119985 
L 107.046602 303.02872 
L 106.774567 302.94176 
L 106.501186 302.859126 
L 106.226529 302.780841 
L 105.950664 302.706923 
L 105.673661 302.637392 
L 105.39559 302.572264 
L 105.11652 302.511556 
L 104.836522 302.455283 
L 104.555667 302.40346 
L 104.274025 302.3561 
L 103.991667 302.313214 
L 103.708664 302.274813 
L 103.425088 302.240908 
L 103.141009 302.211505 
L 102.856499 302.186614 
L 102.571631 302.16624 
L 102.286474 302.150388 
L 102.001103 302.139062 
L 101.715587 302.132266 
L 101.43 302.13 
L 65.43 302.13 
L 65.144413 302.132266 
L 64.858897 302.139062 
L 64.573526 302.150388 
L 64.288369 302.16624 
L 64.003501 302.186614 
L 63.718991 302.211505 
L 63.434912 302.240908 
L 63.151336 302.274813 
L 62.868333 302.313214 
L 62.585975 302.3561 
L 62.304333 302.40346 
L 62.023478 302.455283 
L 61.74348 302.511556 
L 61.46441 302.572264 
L 61.186339 302.637392 
L 60.909336 302.706923 
L 60.633471 302.780841 
L 60.358814 302.859126 
L 60.085433 302.94176 
L 59.813398 303.02872 
L 59.542777 303.119985 
L 59.273637 303.215533 
L 59.006048 303.315339 
L 58.740076 303.419377 
L 58.475788 303.527623 
L 58.21325 303.640048 
L 57.95253 303.756624 
L 57.693692 303.877322 
L 57.436801 304.002112 
L 57.181923 304.130962 
L 56.929121 304.263839 
L 56.678459 304.400711 
L 56.43 304.541543 
L 56.183807 304.686299 
L 55.939942 304.834942 
L 55.698465 304.987436 
L 55.459439 305.143743 
L 55.222922 305.303822 
L 54.988976 305.467633 
L 54.757657 305.635135 
L 54.529026 305.806287 
L 54.303138 305.981044 
L 54.080052 306.159364 
L 53.859823 306.3412 
L 53.642507 306.526508 
L 53.428158 306.71524 
L 53.216831 306.907349 
L 53.008578 307.102787 
L 52.803452 307.301505 
L 52.601505 307.503452 
L 52.402787 307.708578 
L 52.207349 307.916831 
L 52.01524 308.128158 
L 51.826508 308.342507 
L 51.6412 308.559823 
L 51.459364 308.780052 
L 51.281044 309.003138 
L 51.106287 309.229026 
L 50.935135 309.457657 
L 50.767633 309.688976 
L 50.603822 309.922922 
L 50.443743 310.159439 
L 50.287436 310.398465 
L 50.134942 310.639942 
L 49.986299 310.883807 
L 49.841543 311.13 
L 49.700711 311.378459 
L 49.563839 311.629121 
L 49.430962 311.881923 
L 49.302112 312.136801 
L 49.177322 312.393692 
L 49.056624 312.65253 
L 48.940048 312.91325 
L 48.827623 313.175788 
L 48.719377 313.440076 
L 48.615339 313.706048 
L 48.515533 313.973637 
L 48.419985 314.242777 
L 48.32872 314.513398 
L 48.24176 314.785433 
L 48.159126 315.058814 
L 48.080841 315.333471 
L 48.006923 315.609336 
L 47.937392 315.886339 
L 47.872264 316.16441 
L 47.811556 316.44348 
L 47.755283 316.723478 
L 47.70346 317.004333 
L 47.6561 317.285975 
L 47.613214 317.568333 
L 47.574813 317.851336 
L 47.540908 318.134912 
L 47.511505 318.418991 
L 47.486614 318.703501 
L 47.46624 318.988369 
L 47.450388 319.273526 
L 47.439062 319.558897 
L 47.432266 319.844413 
L 47.43 320.13 
L 47.43 320.13 
L 47.432266 320.415587 
L 47.439062 320.701103 
L 47.450388 320.986474 
L 47.46624 321.271631 
L 47.486614 321.556499 
L 47.511505 321.841009 
L 47.540908 322.125088 
L 47.574813 322.408664 
L 47.613214 322.691667 
L 47.6561 322.974025 
L 47.70346 323.255667 
L 47.755283 323.536522 
L 47.811556 323.81652 
L 47.872264 324.09559 
L 47.937392 324.373661 
L 48.006923 324.650664 
L 48.080841 324.926529 
L 48.159126 325.201186 
L 48.24176 325.474567 
L 48.32872 325.746602 
L 48.419985 326.017223 
L 48.515533 326.286363 
L 48.615339 326.553952 
L 48.719377 326.819924 
L 48.827623 327.084212 
L 48.940048 327.34675 
L 49.056624 327.60747 
L 49.177322 327.866308 
L 49.302112 328.123199 
L 49.430962 328.378077 
L 49.563839 328.630879 
L 49.700711 328.881541 
L 49.841543 329.13 
L 49.986299 329.376193 
L 50.134942 329.620058 
L 50.287436 329.861535 
L 50.443743 330.100561 
L 50.603822 330.337078 
L 50.767633 330.571024 
L 50.935135 330.802343 
L 51.106287 331.030974 
L 51.281044 331.256862 
L 51.459364 331.479948 
L 51.6412 331.700177 
L 51.826508 331.917493 
L 52.01524 332.131842 
L 52.207349 332.343169 
L 52.402787 332.551422 
L 52.601505 332.756548 
L 52.803452 332.958495 
L 53.008578 333.157213 
L 53.216831 333.352651 
L 53.428158 333.54476 
L 53.642507 333.733492 
L 53.859823 333.9188 
L 54.080052 334.100636 
L 54.303138 334.278956 
L 54.529026 334.453713 
L 54.757657 334.624865 
L 54.988976 334.792367 
L 55.222922 334.956178 
L 55.459439 335.116257 
L 55.698465 335.272564 
L 55.939942 335.425058 
L 56.183807 335.573701 
L 56.43 335.718457 
L 56.678459 335.859289 
L 56.929121 335.996161 
L 57.181923 336.129038 
L 57.436801 336.257888 
L 57.693692 336.382678 
L 57.95253 336.503376 
L 58.21325 336.619952 
L 58.475788 336.732377 
L 58.740076 336.840623 
L 59.006048 336.944661 
L 59.273637 337.044467 
L 59.542777 337.140015 
L 59.813398 337.23128 
L 60.085433 337.31824 
L 60.358814 337.400874 
L 60.633471 337.479159 
L 60.909336 337.553077 
L 61.186339 337.622608 
L 61.46441 337.687736 
L 61.74348 337.748444 
L 62.023478 337.804717 
L 62.304333 337.85654 
L 62.585975 337.9039 
L 62.868333 337.946786 
L 63.151336 337.985187 
L 63.434912 338.019092 
L 63.718991 338.048495 
L 64.003501 338.073386 
L 64.288369 338.09376 
L 64.573526 338.109612 
L 64.858897 338.120938 
L 65.144413 338.127734 
L 65.43 338.13 
L 101.43 338.13 
z
" clip-path="url(#pdfda547e86)" style="fill: none; stroke: #000000; stroke-linecap: round"/>
   </g>
   <g id="patch_5">
    <path d="M 263.43 186.93 
L 263.715587 186.927734 
L 264.001103 186.920938 
L 264.286474 186.909612 
L 264.571631 186.89376 
L 264.856499 186.873386 
L 265.141009 186.848495 
L 265.425088 186.819092 
L 265.708664 186.785187 
L 265.991667 186.746786 
L 266.274025 186.7039 
L 266.555667 186.65654 
L 266.836522 186.604717 
L 267.11652 186.548444 
L 267.39559 186.487736 
L 267.673661 186.422608 
L 267.950664 186.353077 
L 268.226529 186.279159 
L 268.501186 186.200874 
L 268.774567 186.11824 
L 269.046602 186.03128 
L 269.317223 185.940015 
L 269.586363 185.844467 
L 269.853952 185.744661 
L 270.119924 185.640623 
L 270.384212 185.532377 
L 270.64675 185.419952 
L 270.90747 185.303376 
L 271.166308 185.182678 
L 271.423199 185.057888 
L 271.678077 184.929038 
L 271.930879 184.796161 
L 272.181541 184.659289 
L 272.43 184.518457 
L 272.676193 184.373701 
L 272.920058 184.225058 
L 273.161535 184.072564 
L 273.400561 183.916257 
L 273.637078 183.756178 
L 273.871024 183.592367 
L 274.102343 183.424865 
L 274.330974 183.253713 
L 274.556862 183.078956 
L 274.779948 182.900636 
L 275.000177 182.7188 
L 275.217493 182.533492 
L 275.431842 182.34476 
L 275.643169 182.152651 
L 275.851422 181.957213 
L 276.056548 181.758495 
L 276.258495 181.556548 
L 276.457213 181.351422 
L 276.652651 181.143169 
L 276.84476 180.931842 
L 277.033492 180.717493 
L 277.2188 180.500177 
L 277.400636 180.279948 
L 277.578956 180.056862 
L 277.753713 179.830974 
L 277.924865 179.602343 
L 278.092367 179.371024 
L 278.256178 179.137078 
L 278.416257 178.900561 
L 278.572564 178.661535 
L 278.725058 178.420058 
L 278.873701 178.176193 
L 279.018457 177.93 
L 279.159289 177.681541 
L 279.296161 177.430879 
L 279.429038 177.178077 
L 279.557888 176.923199 
L 279.682678 176.666308 
L 279.803376 176.40747 
L 279.919952 176.14675 
L 280.032377 175.884212 
L 280.140623 175.619924 
L 280.244661 175.353952 
L 280.344467 175.086363 
L 280.440015 174.817223 
L 280.53128 174.546602 
L 280.61824 174.274567 
L 280.700874 174.001186 
L 280.779159 173.726529 
L 280.853077 173.450664 
L 280.922608 173.173661 
L 280.987736 172.89559 
L 281.048444 172.61652 
L 281.104717 172.336522 
L 281.15654 172.055667 
L 281.2039 171.774025 
L 281.246786 171.491667 
L 281.285187 171.208664 
L 281.319092 170.925088 
L 281.348495 170.641009 
L 281.373386 170.356499 
L 281.39376 170.071631 
L 281.409612 169.786474 
L 281.420938 169.501103 
L 281.427734 169.215587 
L 281.43 168.93 
L 281.43 168.93 
L 281.427734 168.644413 
L 281.420938 168.358897 
L 281.409612 168.073526 
L 281.39376 167.788369 
L 281.373386 167.503501 
L 281.348495 167.218991 
L 281.319092 166.934912 
L 281.285187 166.651336 
L 281.246786 166.368333 
L 281.2039 166.085975 
L 281.15654 165.804333 
L 281.104717 165.523478 
L 281.048444 165.24348 
L 280.987736 164.96441 
L 280.922608 164.686339 
L 280.853077 164.409336 
L 280.779159 164.133471 
L 280.700874 163.858814 
L 280.61824 163.585433 
L 280.53128 163.313398 
L 280.440015 163.042777 
L 280.344467 162.773637 
L 280.244661 162.506048 
L 280.140623 162.240076 
L 280.032377 161.975788 
L 279.919952 161.71325 
L 279.803376 161.45253 
L 279.682678 161.193692 
L 279.557888 160.936801 
L 279.429038 160.681923 
L 279.296161 160.429121 
L 279.159289 160.178459 
L 279.018457 159.93 
L 278.873701 159.683807 
L 278.725058 159.439942 
L 278.572564 159.198465 
L 278.416257 158.959439 
L 278.256178 158.722922 
L 278.092367 158.488976 
L 277.924865 158.257657 
L 277.753713 158.029026 
L 277.578956 157.803138 
L 277.400636 157.580052 
L 277.2188 157.359823 
L 277.033492 157.142507 
L 276.84476 156.928158 
L 276.652651 156.716831 
L 276.457213 156.508578 
L 276.258495 156.303452 
L 276.056548 156.101505 
L 275.851422 155.902787 
L 275.643169 155.707349 
L 275.431842 155.51524 
L 275.217493 155.326508 
L 275.000177 155.1412 
L 274.779948 154.959364 
L 274.556862 154.781044 
L 274.330974 154.606287 
L 274.102343 154.435135 
L 273.871024 154.267633 
L 273.637078 154.103822 
L 273.400561 153.943743 
L 273.161535 153.787436 
L 272.920058 153.634942 
L 272.676193 153.486299 
L 272.43 153.341543 
L 272.181541 153.200711 
L 271.930879 153.063839 
L 271.678077 152.930962 
L 271.423199 152.802112 
L 271.166308 152.677322 
L 270.90747 152.556624 
L 270.64675 152.440048 
L 270.384212 152.327623 
L 270.119924 152.219377 
L 269.853952 152.115339 
L 269.586363 152.015533 
L 269.317223 151.919985 
L 269.046602 151.82872 
L 268.774567 151.74176 
L 268.501186 151.659126 
L 268.226529 151.580841 
L 267.950664 151.506923 
L 267.673661 151.437392 
L 267.39559 151.372264 
L 267.11652 151.311556 
L 266.836522 151.255283 
L 266.555667 151.20346 
L 266.274025 151.1561 
L 265.991667 151.113214 
L 265.708664 151.074813 
L 265.425088 151.040908 
L 265.141009 151.011505 
L 264.856499 150.986614 
L 264.571631 150.96624 
L 264.286474 150.950388 
L 264.001103 150.939062 
L 263.715587 150.932266 
L 263.43 150.93 
L 227.43 150.93 
L 227.144413 150.932266 
L 226.858897 150.939062 
L 226.573526 150.950388 
L 226.288369 150.96624 
L 226.003501 150.986614 
L 225.718991 151.011505 
L 225.434912 151.040908 
L 225.151336 151.074813 
L 224.868333 151.113214 
L 224.585975 151.1561 
L 224.304333 151.20346 
L 224.023478 151.255283 
L 223.74348 151.311556 
L 223.46441 151.372264 
L 223.186339 151.437392 
L 222.909336 151.506923 
L 222.633471 151.580841 
L 222.358814 151.659126 
L 222.085433 151.74176 
L 221.813398 151.82872 
L 221.542777 151.919985 
L 221.273637 152.015533 
L 221.006048 152.115339 
L 220.740076 152.219377 
L 220.475788 152.327623 
L 220.21325 152.440048 
L 219.95253 152.556624 
L 219.693692 152.677322 
L 219.436801 152.802112 
L 219.181923 152.930962 
L 218.929121 153.063839 
L 218.678459 153.200711 
L 218.43 153.341543 
L 218.183807 153.486299 
L 217.939942 153.634942 
L 217.698465 153.787436 
L 217.459439 153.943743 
L 217.222922 154.103822 
L 216.988976 154.267633 
L 216.757657 154.435135 
L 216.529026 154.606287 
L 216.303138 154.781044 
L 216.080052 154.959364 
L 215.859823 155.1412 
L 215.642507 155.326508 
L 215.428158 155.51524 
L 215.216831 155.707349 
L 215.008578 155.902787 
L 214.803452 156.101505 
L 214.601505 156.303452 
L 214.402787 156.508578 
L 214.207349 156.716831 
L 214.01524 156.928158 
L 213.826508 157.142507 
L 213.6412 157.359823 
L 213.459364 157.580052 
L 213.281044 157.803138 
L 213.106287 158.029026 
L 212.935135 158.257657 
L 212.767633 158.488976 
L 212.603822 158.722922 
L 212.443743 158.959439 
L 212.287436 159.198465 
L 212.134942 159.439942 
L 211.986299 159.683807 
L 211.841543 159.93 
L 211.700711 160.178459 
L 211.563839 160.429121 
L 211.430962 160.681923 
L 211.302112 160.936801 
L 211.177322 161.193692 
L 211.056624 161.45253 
L 210.940048 161.71325 
L 210.827623 161.975788 
L 210.719377 162.240076 
L 210.615339 162.506048 
L 210.515533 162.773637 
L 210.419985 163.042777 
L 210.32872 163.313398 
L 210.24176 163.585433 
L 210.159126 163.858814 
L 210.080841 164.133471 
L 210.006923 164.409336 
L 209.937392 164.686339 
L 209.872264 164.96441 
L 209.811556 165.24348 
L 209.755283 165.523478 
L 209.70346 165.804333 
L 209.6561 166.085975 
L 209.613214 166.368333 
L 209.574813 166.651336 
L 209.540908 166.934912 
L 209.511505 167.218991 
L 209.486614 167.503501 
L 209.46624 167.788369 
L 209.450388 168.073526 
L 209.439062 168.358897 
L 209.432266 168.644413 
L 209.43 168.93 
L 209.43 168.93 
L 209.432266 169.215587 
L 209.439062 169.501103 
L 209.450388 169.786474 
L 209.46624 170.071631 
L 209.486614 170.356499 
L 209.511505 170.641009 
L 209.540908 170.925088 
L 209.574813 171.208664 
L 209.613214 171.491667 
L 209.6561 171.774025 
L 209.70346 172.055667 
L 209.755283 172.336522 
L 209.811556 172.61652 
L 209.872264 172.89559 
L 209.937392 173.173661 
L 210.006923 173.450664 
L 210.080841 173.726529 
L 210.159126 174.001186 
L 210.24176 174.274567 
L 210.32872 174.546602 
L 210.419985 174.817223 
L 210.515533 175.086363 
L 210.615339 175.353952 
L 210.719377 175.619924 
L 210.827623 175.884212 
L 210.940048 176.14675 
L 211.056624 176.40747 
L 211.177322 176.666308 
L 211.302112 176.923199 
L 211.430962 177.178077 
L 211.563839 177.430879 
L 211.700711 177.681541 
L 211.841543 177.93 
L 211.986299 178.176193 
L 212.134942 178.420058 
L 212.287436 178.661535 
L 212.443743 178.900561 
L 212.603822 179.137078 
L 212.767633 179.371024 
L 212.935135 179.602343 
L 213.106287 179.830974 
L 213.281044 180.056862 
L 213.459364 180.279948 
L 213.6412 180.500177 
L 213.826508 180.717493 
L 214.01524 180.931842 
L 214.207349 181.143169 
L 214.402787 181.351422 
L 214.601505 181.556548 
L 214.803452 181.758495 
L 215.008578 181.957213 
L 215.216831 182.152651 
L 215.428158 182.34476 
L 215.642507 182.533492 
L 215.859823 182.7188 
L 216.080052 182.900636 
L 216.303138 183.078956 
L 216.529026 183.253713 
L 216.757657 183.424865 
L 216.988976 183.592367 
L 217.222922 183.756178 
L 217.459439 183.916257 
L 217.698465 184.072564 
L 217.939942 184.225058 
L 218.183807 184.373701 
L 218.43 184.518457 
L 218.678459 184.659289 
L 218.929121 184.796161 
L 219.181923 184.929038 
L 219.436801 185.057888 
L 219.693692 185.182678 
L 219.95253 185.303376 
L 220.21325 185.419952 
L 220.475788 185.532377 
L 220.740076 185.640623 
L 221.006048 185.744661 
L 221.273637 185.844467 
L 221.542777 185.940015 
L 221.813398 186.03128 
L 222.085433 186.11824 
L 222.358814 186.200874 
L 222.633471 186.279159 
L 222.909336 186.353077 
L 223.186339 186.422608 
L 223.46441 186.487736 
L 223.74348 186.548444 
L 224.023478 186.604717 
L 224.304333 186.65654 
L 224.585975 186.7039 
L 224.868333 186.746786 
L 225.151336 186.785187 
L 225.434912 186.819092 
L 225.718991 186.848495 
L 226.003501 186.873386 
L 226.288369 186.89376 
L 226.573526 186.909612 
L 226.858897 186.920938 
L 227.144413 186.927734 
L 227.43 186.93 
L 263.43 186.93 
z
" clip-path="url(#pdfda547e86)" style="fill: none; stroke: #000000; stroke-linecap: round"/>
   </g>
   <g id="line2d_1">
    <path d="M 83.43 55.53 
L 83.43 69.03 
L 83.43 73.53 
" clip-path="url(#pdfda547e86)" style="fill: none; stroke: #000000; stroke-linecap: round"/>
   </g>
   <g id="patch_6">
    <path d="M 86.13 73.53 
L 83.43 82.53 
L 80.73 73.53 
z
" clip-path="url(#pdfda547e86)"/>
   </g>
   <g id="line2d_2">
    <path d="M 47.43 100.53 
L 47.43 82.53 
L 119.43 82.53 
L 119.43 118.53 
L 47.43 118.53 
L 47.43 100.53 
" clip-path="url(#pdfda547e86)" style="fill: none; stroke: #000000; stroke-linecap: round"/>
   </g>
   <g id="line2d_3">
    <path d="M 83.43 118.53 
L 83.43 132.03 
L 83.43 136.53 
" clip-path="url(#pdfda547e86)" style="fill: none; stroke: #000000; stroke-linecap: round"/>
   </g>
   <g id="patch_7">
    <path d="M 86.13 136.53 
L 83.43 145.53 
L 80.73 136.53 
z
" clip-path="url(#pdfda547e86)"/>
   </g>
   <g id="line2d_4">
    <path d="M 83.43 192.33 
L 83.43 210.33 
L 83.43 219.33 
" clip-path="url(#pdfda547e86)" style="fill: none; stroke: #000000; stroke-linecap: round"/>
   </g>
   <g id="patch_8">
    <path d="M 86.13 219.33 
L 83.43 228.33 
L 80.73 219.33 
z
" clip-path="url(#pdfda547e86)"/>
   </g>
   <g id="line2d_5">
    <path d="M 16.83 251.73 
L 16.83 228.33 
L 150.03 228.33 
L 150.03 275.13 
L 16.83 275.13 
L 16.83 251.73 
" clip-path="url(#pdfda547e86)" style="fill: none; stroke: #000000; stroke-linecap: round"/>
   </g>
   <g id="line2d_6">
    <path d="M 83.43 275.13 
L 83.43 288.63 
L 83.43 293.13 
" clip-path="url(#pdfda547e86)" style="fill: none; stroke: #000000; stroke-linecap: round"/>
   </g>
   <g id="patch_9">
    <path d="M 86.13 293.13 
L 83.43 302.13 
L 80.73 293.13 
z
" clip-path="url(#pdfda547e86)"/>
   </g>
   <g id="line2d_7">
    <path d="M 137.43 168.93 
L 173.43 168.93 
L 200.43 168.93 
" clip-path="url(#pdfda547e86)" style="fill: none; stroke: #000000; stroke-linecap: round"/>
   </g>
   <g id="patch_10">
    <path d="M 200.43 166.23 
L 209.43 168.93 
L 200.43 171.63 
z
" clip-path="url(#pdfda547e86)"/>
   </g>
   <g id="text_1">
    <!-- START -->
    <g transform="translate(64.253242 41.024141) scale(0.125 -0.125)">
     <defs>
      <path id="IPAexGothic-53" d="M 2919 3641 
Q 2563 4259 1853 4259 
Q 1453 4259 1213 4009 
Q 1028 3803 1028 3534 
Q 1028 3238 1266 3047 
Q 1444 2913 1984 2688 
L 2200 2597 
Q 2925 2306 3191 1953 
Q 3422 1644 3422 1259 
Q 3422 644 2969 288 
Q 2559 -31 1931 -31 
Q 881 -31 313 766 
L 753 1100 
Q 1203 459 1938 459 
Q 2288 459 2534 625 
Q 2841 847 2841 1216 
Q 2841 1503 2616 1728 
Q 2375 1959 1728 2206 
L 1541 2278 
Q 453 2694 453 3481 
Q 453 4006 806 4347 
Q 1203 4725 1863 4725 
Q 2841 4725 3359 3956 
L 2919 3641 
z
" transform="scale(0.015625)"/>
      <path id="IPAexGothic-54" d="M 3866 4141 
L 2175 4141 
L 2175 63 
L 1606 63 
L 1606 4141 
L -31 4141 
L -31 4634 
L 3866 4634 
L 3866 4141 
z
" transform="scale(0.015625)"/>
      <path id="IPAexGothic-41" d="M 4056 63 
L 3444 63 
L 2938 1409 
L 1100 1409 
L 603 63 
L -6 63 
L 1806 4666 
L 2259 4666 
L 4056 63 
z
M 2778 1863 
L 2316 3078 
Q 2125 3588 2028 4000 
L 2009 4000 
Q 1897 3563 1716 3078 
L 1263 1863 
L 2778 1863 
z
" transform="scale(0.015625)"/>
      <path id="IPAexGothic-52" d="M 4072 63 
L 3394 63 
Q 3138 641 2828 1197 
Q 2584 1641 2344 1825 
Q 2050 2044 1625 2044 
L 1172 2044 
L 1172 63 
L 609 63 
L 609 4634 
L 2009 4634 
Q 2713 4634 3131 4378 
Q 3688 4044 3688 3381 
Q 3688 2784 3181 2459 
Q 2906 2272 2522 2216 
L 2522 2197 
Q 2941 2050 3247 1581 
Q 3516 1166 4072 63 
z
M 1172 2478 
L 1869 2478 
Q 3106 2478 3106 3369 
Q 3106 4181 1928 4181 
L 1172 4181 
L 1172 2478 
z
" transform="scale(0.015625)"/>
     </defs>
     <use xlink:href="#IPAexGothic-53"/>
     <use xlink:href="#IPAexGothic-54" x="58.496094"/>
     <use xlink:href="#IPAexGothic-41" x="118.408203"/>
     <use xlink:href="#IPAexGothic-52" x="182.128906"/>
     <use xlink:href="#IPAexGothic-54" x="246.923828"/>
    </g>
   </g>
   <g id="text_2">
    <!-- x = 10 -->
    <g transform="translate(64.888008 104.024141) scale(0.125 -0.125)">
     <defs>
      <path id="IPAexGothic-78" d="M 3050 63 
L 2419 63 
L 1547 1338 
L 691 63 
L 56 63 
L 1247 1675 
L 106 3250 
L 747 3250 
L 1578 2016 
L 2413 3250 
L 3019 3250 
L 1875 1681 
L 3050 63 
z
" transform="scale(0.015625)"/>
      <path id="IPAexGothic-20" transform="scale(0.015625)"/>
      <path id="IPAexGothic-3d" d="M 416 2803 
L 3922 2803 
L 3922 2438 
L 416 2438 
L 416 2803 
z
M 416 1625 
L 3922 1625 
L 3922 1259 
L 416 1259 
L 416 1625 
z
" transform="scale(0.015625)"/>
      <path id="IPAexGothic-31" d="M 2463 63 
L 1900 63 
L 1900 4103 
Q 1372 3922 788 3797 
L 684 4231 
Q 1519 4441 2106 4731 
L 2463 4731 
L 2463 63 
z
" transform="scale(0.015625)"/>
      <path id="IPAexGothic-30" d="M 2038 4725 
Q 2881 4725 3334 3944 
Q 3694 3325 3694 2344 
Q 3694 1372 3334 741 
Q 2888 -31 2016 -31 
Q 1147 -31 700 741 
Q 341 1372 341 2350 
Q 341 3713 1000 4334 
Q 1419 4725 2038 4725 
z
M 2016 4266 
Q 1516 4266 1228 3759 
Q 934 3247 934 2344 
Q 934 1456 1222 947 
Q 1513 447 2016 447 
Q 2619 447 2909 1153 
Q 3100 1622 3100 2375 
Q 3100 3256 2806 3759 
Q 2509 4266 2016 4266 
z
" transform="scale(0.015625)"/>
     </defs>
     <use xlink:href="#IPAexGothic-78"/>
     <use xlink:href="#IPAexGothic-20" x="48.876953"/>
     <use xlink:href="#IPAexGothic-3d" x="75.878906"/>
     <use xlink:href="#IPAexGothic-20" x="143.701172"/>
     <use xlink:href="#IPAexGothic-31" x="170.703125"/>
     <use xlink:href="#IPAexGothic-30" x="233.691406"/>
    </g>
   </g>
   <g id="text_3">
    <!-- True -->
    <g transform="translate(88.11 206.373281) scale(0.125 -0.125)">
     <defs>
      <path id="IPAexGothic-72" d="M 2309 3316 
L 2213 2769 
Q 2106 2791 2022 2791 
Q 1653 2791 1413 2444 
Q 1113 2006 1113 1675 
L 1113 63 
L 563 63 
L 563 3250 
L 1081 3250 
L 1056 2303 
L 1069 2303 
Q 1422 3341 2097 3341 
Q 2206 3341 2309 3316 
z
" transform="scale(0.015625)"/>
      <path id="IPAexGothic-75" d="M 3284 63 
L 2772 63 
L 2772 644 
Q 2300 0 1625 0 
Q 1072 0 763 375 
Q 519 678 519 1241 
L 519 3250 
L 1069 3250 
L 1069 1259 
Q 1069 466 1734 466 
Q 2406 466 2734 1291 
L 2734 3250 
L 3284 3250 
L 3284 63 
z
" transform="scale(0.015625)"/>
      <path id="IPAexGothic-65" d="M 863 1594 
Q 891 1041 1209 722 
Q 1534 397 1997 397 
Q 2606 397 2963 966 
L 3322 728 
Q 2869 -31 1931 -31 
Q 1222 -31 766 422 
Q 306 884 306 1641 
Q 306 2444 788 2925 
Q 1216 3353 1856 3353 
Q 2459 3353 2866 2956 
Q 3322 2494 3322 1722 
L 3322 1594 
L 863 1594 
z
M 2756 1997 
Q 2709 2431 2450 2681 
Q 2194 2938 1844 2938 
Q 1438 2938 1150 2591 
Q 953 2356 894 1997 
L 2756 1997 
z
" transform="scale(0.015625)"/>
     </defs>
     <use xlink:href="#IPAexGothic-54"/>
     <use xlink:href="#IPAexGothic-72" x="59.912109"/>
     <use xlink:href="#IPAexGothic-75" x="96.923828"/>
     <use xlink:href="#IPAexGothic-65" x="157.324219"/>
    </g>
   </g>
   <g id="text_4">
    <!-- False -->
    <g transform="translate(142.11 161.875) scale(0.125 -0.125)">
     <defs>
      <path id="IPAexGothic-46" d="M 3469 4141 
L 1172 4141 
L 1172 2656 
L 3206 2656 
L 3206 2188 
L 1172 2188 
L 1172 63 
L 609 63 
L 609 4634 
L 3469 4634 
L 3469 4141 
z
" transform="scale(0.015625)"/>
      <path id="IPAexGothic-61" d="M 3156 63 
L 2672 63 
Q 2559 303 2531 556 
L 2509 556 
Q 2147 -25 1428 -25 
Q 934 -25 622 288 
Q 347 563 347 959 
Q 347 1947 2050 1997 
L 2478 2009 
L 2478 2175 
Q 2478 2509 2288 2700 
Q 2088 2900 1775 2900 
Q 1238 2900 969 2378 
L 494 2597 
Q 938 3328 1788 3328 
Q 2375 3328 2691 3000 
Q 2984 2706 2984 2169 
L 2984 997 
Q 2984 400 3156 63 
z
M 2491 1625 
L 2141 1619 
Q 903 1591 903 953 
Q 903 728 1050 581 
Q 1231 403 1525 403 
Q 1934 403 2234 703 
Q 2491 969 2491 1344 
L 2491 1625 
z
" transform="scale(0.015625)"/>
      <path id="IPAexGothic-6c" d="M 1131 63 
L 581 63 
L 581 4794 
L 1131 4794 
L 1131 63 
z
" transform="scale(0.015625)"/>
      <path id="IPAexGothic-73" d="M 2234 2547 
Q 1938 2931 1484 2931 
Q 891 2931 891 2475 
Q 891 2153 1531 1944 
L 1741 1875 
Q 2650 1578 2650 894 
Q 2650 434 2272 172 
Q 1972 -31 1497 -31 
Q 766 -31 256 503 
L 603 819 
Q 997 397 1516 397 
Q 2131 397 2131 875 
Q 2131 1238 1453 1478 
L 1234 1553 
Q 378 1853 378 2431 
Q 378 2797 628 3047 
Q 928 3347 1453 3347 
Q 2156 3347 2606 2859 
L 2234 2547 
z
" transform="scale(0.015625)"/>
     </defs>
     <use xlink:href="#IPAexGothic-46"/>
     <use xlink:href="#IPAexGothic-61" x="57.177734"/>
     <use xlink:href="#IPAexGothic-6c" x="112.158203"/>
     <use xlink:href="#IPAexGothic-73" x="139.160156"/>
     <use xlink:href="#IPAexGothic-65" x="185.351562"/>
    </g>
   </g>
   <g id="text_5">
    <!-- x = 10 ? -->
    <g transform="translate(59.758125 172.424141) scale(0.125 -0.125)">
     <defs>
      <path id="IPAexGothic-3f" d="M 225 3425 
Q 503 4725 1763 4725 
Q 2413 4725 2803 4334 
Q 3144 3994 3144 3516 
Q 3144 3081 2838 2716 
Q 2703 2563 2344 2266 
L 2216 2156 
Q 1888 1878 1888 1363 
L 1888 1209 
L 1422 1209 
L 1422 1422 
Q 1422 2050 1881 2491 
L 2022 2625 
L 2075 2669 
Q 2575 3122 2575 3516 
Q 2575 3822 2363 4041 
Q 2128 4278 1763 4278 
Q 963 4278 725 3309 
L 225 3425 
z
M 1978 63 
L 1325 63 
L 1325 728 
L 1978 728 
L 1978 63 
z
" transform="scale(0.015625)"/>
     </defs>
     <use xlink:href="#IPAexGothic-78"/>
     <use xlink:href="#IPAexGothic-20" x="48.876953"/>
     <use xlink:href="#IPAexGothic-3d" x="75.878906"/>
     <use xlink:href="#IPAexGothic-20" x="143.701172"/>
     <use xlink:href="#IPAexGothic-31" x="170.703125"/>
     <use xlink:href="#IPAexGothic-30" x="233.691406"/>
     <use xlink:href="#IPAexGothic-20" x="296.679688"/>
     <use xlink:href="#IPAexGothic-3f" x="323.681641"/>
    </g>
   </g>
   <g id="text_6">
    <!-- 「条件はTrueです。」 -->
    <g transform="translate(20.041328 248.418672) scale(0.125 -0.125)">
     <defs>
      <path id="IPAexGothic-300c" d="M 4134 5300 
L 5875 5300 
L 5875 4853 
L 4581 4853 
L 4581 656 
L 4134 656 
L 4134 5300 
z
" transform="scale(0.015625)"/>
      <path id="IPAexGothic-6761" d="M 3406 1475 
L 3406 -447 
L 2953 -447 
L 2953 1422 
Q 2147 306 641 -331 
L 334 59 
Q 1738 569 2563 1538 
L 488 1538 
L 488 1941 
L 2953 1941 
L 2953 2691 
L 3406 2691 
L 3406 1941 
L 5928 1941 
L 5928 1538 
L 3847 1538 
Q 4597 769 6063 238 
L 5759 -203 
Q 4256 400 3406 1475 
z
M 3738 3419 
Q 4619 2991 5959 2772 
L 5684 2356 
Q 4216 2631 3353 3150 
Q 2350 2494 813 2175 
L 531 2566 
Q 2063 2825 2997 3391 
Q 2494 3763 2163 4219 
Q 1694 3747 1038 3359 
L 725 3688 
Q 1897 4319 2466 5306 
L 2900 5203 
Q 2784 5003 2713 4903 
L 4641 4903 
L 4872 4691 
Q 4384 3938 3738 3419 
z
M 3353 3634 
Q 3919 4075 4219 4531 
L 2438 4531 
L 2425 4513 
Q 2838 3956 3353 3634 
z
" transform="scale(0.015625)"/>
      <path id="IPAexGothic-4ef6" d="M 3903 3425 
L 2906 3425 
Q 2697 2825 2309 2247 
L 1991 2572 
Q 2588 3497 2803 4788 
L 3256 4713 
Q 3175 4313 3041 3834 
L 3903 3834 
L 3903 5250 
L 4356 5250 
L 4356 3834 
L 5731 3834 
L 5731 3425 
L 4356 3425 
L 4356 2009 
L 6041 2009 
L 6041 1594 
L 4356 1594 
L 4356 -447 
L 3903 -447 
L 3903 1594 
L 2078 1594 
L 2078 2009 
L 3903 2009 
L 3903 3425 
z
M 1638 3681 
L 1638 -447 
L 1169 -447 
L 1169 2753 
Q 881 2272 575 1863 
L 313 2253 
Q 1238 3463 1650 5184 
L 2125 5069 
Q 1909 4316 1638 3681 
z
" transform="scale(0.015625)"/>
      <path id="IPAexGothic-306f" d="M 4066 4875 
L 4538 4875 
L 4556 3769 
Q 5003 3816 5581 3941 
L 5619 3469 
Q 5256 3394 4563 3322 
L 4597 1441 
Q 5100 1284 5934 756 
L 5656 313 
Q 5066 772 4609 978 
Q 4609 441 4384 225 
Q 4128 -13 3634 -13 
Q 2991 -13 2669 231 
Q 2388 444 2388 831 
Q 2388 1225 2772 1484 
Q 3050 1669 3534 1669 
Q 3759 1669 4134 1594 
L 4097 3288 
Q 3697 3269 3359 3269 
Q 2925 3269 2484 3300 
L 2466 3763 
Q 2953 3716 3456 3716 
Q 3738 3716 4091 3738 
L 4066 4875 
z
M 4141 1153 
Q 3753 1259 3513 1259 
Q 2841 1259 2841 850 
Q 2841 422 3634 422 
Q 3888 422 4022 569 
Q 4141 700 4141 922 
Q 4141 1088 4141 1153 
z
M 1000 -50 
Q 794 1072 794 1931 
Q 794 3153 1247 4884 
L 1728 4763 
Q 1269 3044 1269 1900 
Q 1269 1569 1306 1106 
Q 1591 1706 1753 1997 
L 2075 1806 
Q 1484 716 1484 141 
Q 1484 72 1491 0 
L 1000 -50 
z
" transform="scale(0.015625)"/>
      <path id="IPAexGothic-3067" d="M 581 4034 
Q 2978 4363 5466 4556 
L 5509 4097 
Q 4388 4031 3750 3572 
Q 2797 2878 2797 1913 
Q 2797 1169 3291 819 
Q 3778 484 4869 416 
L 4906 -116 
Q 2278 0 2278 1850 
Q 2278 3125 3691 4000 
Q 2066 3784 684 3553 
L 581 4034 
z
M 5631 2522 
Q 5269 3063 4875 3391 
L 5175 3622 
Q 5559 3313 5950 2797 
L 5631 2522 
z
M 5034 2053 
Q 4747 2544 4300 2944 
L 4613 3184 
Q 4984 2878 5369 2328 
L 5034 2053 
z
" transform="scale(0.015625)"/>
      <path id="IPAexGothic-3059" d="M 3322 5075 
L 3816 5075 
L 3816 4063 
Q 4131 4075 5756 4116 
L 5756 3669 
Q 5431 3672 3816 3653 
L 3816 2463 
Q 3956 2125 3956 1741 
Q 3956 922 3519 397 
Q 3128 -72 2309 -409 
L 1941 -31 
Q 3263 453 3488 1363 
Q 3250 1031 2809 1031 
Q 2441 1031 2150 1313 
Q 1875 1588 1875 2050 
Q 1875 2475 2166 2769 
Q 2431 3041 2822 3041 
Q 3088 3041 3322 2881 
L 3322 3641 
Q 3000 3634 609 3547 
L 609 3988 
Q 1197 4000 2106 4022 
Q 3066 4047 3322 4050 
L 3322 5075 
z
M 3372 2044 
Q 3372 2300 3194 2478 
Q 3050 2613 2869 2613 
Q 2622 2613 2463 2406 
Q 2344 2250 2344 2088 
Q 2344 1797 2484 1622 
Q 2625 1453 2859 1453 
Q 3372 1453 3372 2044 
z
" transform="scale(0.015625)"/>
      <path id="IPAexGothic-3002" d="M 1166 1241 
Q 1366 1241 1563 1138 
Q 2009 900 2009 391 
Q 2009 188 1913 6 
Q 1675 -459 1159 -459 
Q 941 -459 753 -356 
Q 306 -119 306 397 
Q 306 744 569 1003 
Q 806 1241 1166 1241 
z
M 1159 916 
Q 953 916 797 781 
Q 631 625 631 391 
Q 631 278 681 166 
Q 819 -134 1159 -134 
Q 1309 -134 1434 -56 
Q 1684 88 1684 391 
Q 1684 722 1397 866 
Q 1281 916 1159 916 
z
" transform="scale(0.015625)"/>
      <path id="IPAexGothic-300d" d="M 1819 4209 
L 2266 4209 
L 2266 -434 
L 525 -434 
L 525 13 
L 1819 13 
L 1819 4209 
z
" transform="scale(0.015625)"/>
     </defs>
     <use xlink:href="#IPAexGothic-300c"/>
     <use xlink:href="#IPAexGothic-6761" x="100"/>
     <use xlink:href="#IPAexGothic-4ef6" x="200"/>
     <use xlink:href="#IPAexGothic-306f" x="300"/>
     <use xlink:href="#IPAexGothic-54" x="400"/>
     <use xlink:href="#IPAexGothic-72" x="459.912109"/>
     <use xlink:href="#IPAexGothic-75" x="496.923828"/>
     <use xlink:href="#IPAexGothic-65" x="557.324219"/>
     <use xlink:href="#IPAexGothic-3067" x="614.208984"/>
     <use xlink:href="#IPAexGothic-3059" x="714.208984"/>
     <use xlink:href="#IPAexGothic-3002" x="814.208984"/>
     <use xlink:href="#IPAexGothic-300d" x="914.208984"/>
    </g>
    <!-- の表示 -->
    <g transform="translate(64.68 262.029609) scale(0.125 -0.125)">
     <defs>
      <path id="IPAexGothic-306e" d="M 3119 469 
Q 5275 766 5275 2425 
Q 5275 3453 4413 3925 
Q 4041 4116 3547 4159 
Q 3394 2525 2850 1400 
Q 2322 306 1722 306 
Q 1384 306 1084 666 
Q 609 1244 609 2003 
Q 609 3025 1397 3794 
Q 2184 4563 3431 4563 
Q 4306 4563 4928 4122 
Q 5813 3506 5813 2425 
Q 5813 438 3431 6 
L 3119 469 
z
M 3053 4147 
Q 2378 4044 1891 3641 
Q 1097 2981 1097 1991 
Q 1097 1366 1434 978 
Q 1581 813 1719 813 
Q 2022 813 2416 1625 
Q 2909 2638 3053 4147 
z
" transform="scale(0.015625)"/>
      <path id="IPAexGothic-8868" d="M 3209 2350 
Q 2856 1944 2328 1563 
L 2328 288 
Q 2975 438 3756 691 
L 3763 275 
Q 2534 -163 1184 -447 
L 978 13 
Q 1566 119 1819 175 
L 1875 188 
L 1875 1275 
Q 1306 941 506 666 
L 219 1056 
Q 1813 1509 2675 2356 
L 384 2356 
L 384 2753 
L 2978 2753 
L 2978 3309 
L 959 3309 
L 959 3694 
L 2978 3694 
L 2978 4219 
L 641 4219 
L 641 4603 
L 2978 4603 
L 2978 5313 
L 3431 5313 
L 3431 4603 
L 5759 4603 
L 5759 4219 
L 3431 4219 
L 3431 3694 
L 5434 3694 
L 5434 3309 
L 3431 3309 
L 3431 2753 
L 6016 2753 
L 6016 2356 
L 3634 2356 
Q 3863 1838 4244 1356 
Q 4781 1756 5166 2191 
L 5588 1894 
Q 5084 1419 4525 1056 
Q 5150 459 6106 66 
L 5734 -356 
Q 3850 575 3209 2350 
z
" transform="scale(0.015625)"/>
      <path id="IPAexGothic-793a" d="M 3488 2822 
L 3488 153 
Q 3488 -144 3334 -247 
Q 3213 -331 2872 -331 
Q 2425 -331 1950 -294 
L 1859 213 
Q 2350 128 2775 128 
Q 3000 128 3000 353 
L 3000 2822 
L 447 2822 
L 447 3250 
L 5950 3250 
L 5950 2822 
L 3488 2822 
z
M 1125 4813 
L 5266 4813 
L 5266 4384 
L 1125 4384 
L 1125 4813 
z
M 5581 244 
Q 4966 1263 4206 2081 
L 4563 2369 
Q 5319 1575 6009 622 
L 5581 244 
z
M 403 616 
Q 1184 1238 1741 2259 
L 2163 2053 
Q 1631 975 763 238 
L 403 616 
z
" transform="scale(0.015625)"/>
     </defs>
     <use xlink:href="#IPAexGothic-306e"/>
     <use xlink:href="#IPAexGothic-8868" x="100"/>
     <use xlink:href="#IPAexGothic-793a" x="200"/>
    </g>
   </g>
   <g id="text_7">
    <!-- END -->
    <g transform="translate(70.230781 323.624141) scale(0.125 -0.125)">
     <defs>
      <path id="IPAexGothic-45" d="M 3547 63 
L 609 63 
L 609 4634 
L 3469 4634 
L 3469 4147 
L 1166 4147 
L 1166 2650 
L 3206 2650 
L 3206 2191 
L 1166 2191 
L 1166 556 
L 3547 556 
L 3547 63 
z
" transform="scale(0.015625)"/>
      <path id="IPAexGothic-4e" d="M 4244 63 
L 3731 63 
L 1697 3150 
Q 1466 3500 1141 4097 
L 1116 4097 
L 1128 3797 
Q 1159 2803 1159 2469 
L 1159 63 
L 609 63 
L 609 4634 
L 1366 4634 
L 3113 1978 
Q 3453 1447 3713 966 
L 3738 966 
Q 3694 1897 3694 2469 
L 3694 4634 
L 4244 4634 
L 4244 63 
z
" transform="scale(0.015625)"/>
      <path id="IPAexGothic-44" d="M 609 4634 
L 1984 4634 
Q 3159 4634 3791 4050 
Q 4456 3444 4456 2356 
Q 4456 1047 3516 441 
Q 2925 63 1941 63 
L 609 63 
L 609 4634 
z
M 1172 556 
L 1894 556 
Q 3853 556 3853 2356 
Q 3853 4147 1928 4147 
L 1172 4147 
L 1172 556 
z
" transform="scale(0.015625)"/>
     </defs>
     <use xlink:href="#IPAexGothic-45"/>
     <use xlink:href="#IPAexGothic-4e" x="59.521484"/>
     <use xlink:href="#IPAexGothic-44" x="135.498047"/>
    </g>
   </g>
   <g id="text_8">
    <!-- END -->
    <g transform="translate(232.230781 172.424141) scale(0.125 -0.125)">
     <use xlink:href="#IPAexGothic-45"/>
     <use xlink:href="#IPAexGothic-4e" x="59.521484"/>
     <use xlink:href="#IPAexGothic-44" x="135.498047"/>
    </g>
   </g>
  </g>
 </g>
 <defs>
  <clipPath id="pdfda547e86">
   <rect x="3.6" y="3.6" width="291.06" height="350.46"/>
  </clipPath>
 </defs>
</svg>