<?xml version="1.0" encoding="utf-8" standalone="no"?>
<!DOCTYPE svg PUBLIC "-//W3C//DTD SVG 1.1//EN"
  "http://www.w3.org/Graphics/SVG/1.1/DTD/svg11.dtd">
<svg xmlns:xlink="http://www.w3.org/1999/xlink" width="363.96pt" height="333.36pt" viewBox="0 0 363.96 333.36" xmlns="http://www.w3.org/2000/svg" version="1.1">
 <metadata>
  <rdf:RDF xmlns:dc="http://purl.org/dc/elements/1.1/" xmlns:cc="http://creativecommons.org/ns#" xmlns:rdf="http://www.w3.org/1999/02/22-rdf-syntax-ns#">
   <cc:Work>
    <dc:type rdf:resource="http://purl.org/dc/dcmitype/StillImage"/>
    <dc:date>2025-09-20T04:20:31.504825</dc:date>
    <dc:format>image/svg+xml</dc:format>
    <dc:creator>
     <cc:Agent>
      <dc:title>Matplotlib v3.10.6, https://matplotlib.org/</dc:title>
     </cc:Agent>
    </dc:creator>
   </cc:Work>
  </rdf:RDF>
 </metadata>
 <defs>
  <style type="text/css">*{stroke-linejoin: round; stroke-linecap: butt}</style>
 </defs>
 <g id="figure_1">
  <g id="patch_1">
   <path d="M 0 333.36 
L 363.96 333.36 
L 363.96 0 
L 0 0 
z
" style="fill: #ffffff"/>
  </g>
  <g id="axes_1">
   <g id="patch_2">
    <path d="M 130.68 40.68 
L 130.965587 40.677734 
L 131.251103 40.670938 
L 131.536474 40.659612 
L 131.821631 40.64376 
L 132.106499 40.623386 
L 132.391009 40.598495 
L 132.675088 40.569092 
L 132.958664 40.535187 
L 133.241667 40.496786 
L 133.524025 40.4539 
L 133.805667 40.40654 
L 134.086522 40.354717 
L 134.36652 40.298444 
L 134.64559 40.237736 
L 134.923661 40.172608 
L 135.200664 40.103077 
L 135.476529 40.029159 
L 135.751186 39.950874 
L 136.024567 39.86824 
L 136.296602 39.78128 
L 136.567223 39.690015 
L 136.836363 39.594467 
L 137.103952 39.494661 
L 137.369924 39.390623 
L 137.634212 39.282377 
L 137.89675 39.169952 
L 138.15747 39.053376 
L 138.416308 38.932678 
L 138.673199 38.807888 
L 138.928077 38.679038 
L 139.180879 38.546161 
L 139.431541 38.409289 
L 139.68 38.268457 
L 139.926193 38.123701 
L 140.170058 37.975058 
L 140.411535 37.822564 
L 140.650561 37.666257 
L 140.887078 37.506178 
L 141.121024 37.342367 
L 141.352343 37.174865 
L 141.580974 37.003713 
L 141.806862 36.828956 
L 142.029948 36.650636 
L 142.250177 36.4688 
L 142.467493 36.283492 
L 142.681842 36.09476 
L 142.893169 35.902651 
L 143.101422 35.707213 
L 143.306548 35.508495 
L 143.508495 35.306548 
L 143.707213 35.101422 
L 143.902651 34.893169 
L 144.09476 34.681842 
L 144.283492 34.467493 
L 144.4688 34.250177 
L 144.650636 34.029948 
L 144.828956 33.806862 
L 145.003713 33.580974 
L 145.174865 33.352343 
L 145.342367 33.121024 
L 145.506178 32.887078 
L 145.666257 32.650561 
L 145.822564 32.411535 
L 145.975058 32.170058 
L 146.123701 31.926193 
L 146.268457 31.68 
L 146.409289 31.431541 
L 146.546161 31.180879 
L 146.679038 30.928077 
L 146.807888 30.673199 
L 146.932678 30.416308 
L 147.053376 30.15747 
L 147.169952 29.89675 
L 147.282377 29.634212 
L 147.390623 29.369924 
L 147.494661 29.103952 
L 147.594467 28.836363 
L 147.690015 28.567223 
L 147.78128 28.296602 
L 147.86824 28.024567 
L 147.950874 27.751186 
L 148.029159 27.476529 
L 148.103077 27.200664 
L 148.172608 26.923661 
L 148.237736 26.64559 
L 148.298444 26.36652 
L 148.354717 26.086522 
L 148.40654 25.805667 
L 148.4539 25.524025 
L 148.496786 25.241667 
L 148.535187 24.958664 
L 148.569092 24.675088 
L 148.598495 24.391009 
L 148.623386 24.106499 
L 148.64376 23.821631 
L 148.659612 23.536474 
L 148.670938 23.251103 
L 148.677734 22.965587 
L 148.68 22.68 
L 148.68 22.68 
L 148.677734 22.394413 
L 148.670938 22.108897 
L 148.659612 21.823526 
L 148.64376 21.538369 
L 148.623386 21.253501 
L 148.598495 20.968991 
L 148.569092 20.684912 
L 148.535187 20.401336 
L 148.496786 20.118333 
L 148.4539 19.835975 
L 148.40654 19.554333 
L 148.354717 19.273478 
L 148.298444 18.99348 
L 148.237736 18.71441 
L 148.172608 18.436339 
L 148.103077 18.159336 
L 148.029159 17.883471 
L 147.950874 17.608814 
L 147.86824 17.335433 
L 147.78128 17.063398 
L 147.690015 16.792777 
L 147.594467 16.523637 
L 147.494661 16.256048 
L 147.390623 15.990076 
L 147.282377 15.725788 
L 147.169952 15.46325 
L 147.053376 15.20253 
L 146.932678 14.943692 
L 146.807888 14.686801 
L 146.679038 14.431923 
L 146.546161 14.179121 
L 146.409289 13.928459 
L 146.268457 13.68 
L 146.123701 13.433807 
L 145.975058 13.189942 
L 145.822564 12.948465 
L 145.666257 12.709439 
L 145.506178 12.472922 
L 145.342367 12.238976 
L 145.174865 12.007657 
L 145.003713 11.779026 
L 144.828956 11.553138 
L 144.650636 11.330052 
L 144.4688 11.109823 
L 144.283492 10.892507 
L 144.09476 10.678158 
L 143.902651 10.466831 
L 143.707213 10.258578 
L 143.508495 10.053452 
L 143.306548 9.851505 
L 143.101422 9.652787 
L 142.893169 9.457349 
L 142.681842 9.26524 
L 142.467493 9.076508 
L 142.250177 8.8912 
L 142.029948 8.709364 
L 141.806862 8.531044 
L 141.580974 8.356287 
L 141.352343 8.185135 
L 141.121024 8.017633 
L 140.887078 7.853822 
L 140.650561 7.693743 
L 140.411535 7.537436 
L 140.170058 7.384942 
L 139.926193 7.236299 
L 139.68 7.091543 
L 139.431541 6.950711 
L 139.180879 6.813839 
L 138.928077 6.680962 
L 138.673199 6.552112 
L 138.416308 6.427322 
L 138.15747 6.306624 
L 137.89675 6.190048 
L 137.634212 6.077623 
L 137.369924 5.969377 
L 137.103952 5.865339 
L 136.836363 5.765533 
L 136.567223 5.669985 
L 136.296602 5.57872 
L 136.024567 5.49176 
L 135.751186 5.409126 
L 135.476529 5.330841 
L 135.200664 5.256923 
L 134.923661 5.187392 
L 134.64559 5.122264 
L 134.36652 5.061556 
L 134.086522 5.005283 
L 133.805667 4.95346 
L 133.524025 4.9061 
L 133.241667 4.863214 
L 132.958664 4.824813 
L 132.675088 4.790908 
L 132.391009 4.761505 
L 132.106499 4.736614 
L 131.821631 4.71624 
L 131.536474 4.700388 
L 131.251103 4.689062 
L 130.965587 4.682266 
L 130.68 4.68 
L 94.68 4.68 
L 94.394413 4.682266 
L 94.108897 4.689062 
L 93.823526 4.700388 
L 93.538369 4.71624 
L 93.253501 4.736614 
L 92.968991 4.761505 
L 92.684912 4.790908 
L 92.401336 4.824813 
L 92.118333 4.863214 
L 91.835975 4.9061 
L 91.554333 4.95346 
L 91.273478 5.005283 
L 90.99348 5.061556 
L 90.71441 5.122264 
L 90.436339 5.187392 
L 90.159336 5.256923 
L 89.883471 5.330841 
L 89.608814 5.409126 
L 89.335433 5.49176 
L 89.063398 5.57872 
L 88.792777 5.669985 
L 88.523637 5.765533 
L 88.256048 5.865339 
L 87.990076 5.969377 
L 87.725788 6.077623 
L 87.46325 6.190048 
L 87.20253 6.306624 
L 86.943692 6.427322 
L 86.686801 6.552112 
L 86.431923 6.680962 
L 86.179121 6.813839 
L 85.928459 6.950711 
L 85.68 7.091543 
L 85.433807 7.236299 
L 85.189942 7.384942 
L 84.948465 7.537436 
L 84.709439 7.693743 
L 84.472922 7.853822 
L 84.238976 8.017633 
L 84.007657 8.185135 
L 83.779026 8.356287 
L 83.553138 8.531044 
L 83.330052 8.709364 
L 83.109823 8.8912 
L 82.892507 9.076508 
L 82.678158 9.26524 
L 82.466831 9.457349 
L 82.258578 9.652787 
L 82.053452 9.851505 
L 81.851505 10.053452 
L 81.652787 10.258578 
L 81.457349 10.466831 
L 81.26524 10.678158 
L 81.076508 10.892507 
L 80.8912 11.109823 
L 80.709364 11.330052 
L 80.531044 11.553138 
L 80.356287 11.779026 
L 80.185135 12.007657 
L 80.017633 12.238976 
L 79.853822 12.472922 
L 79.693743 12.709439 
L 79.537436 12.948465 
L 79.384942 13.189942 
L 79.236299 13.433807 
L 79.091543 13.68 
L 78.950711 13.928459 
L 78.813839 14.179121 
L 78.680962 14.431923 
L 78.552112 14.686801 
L 78.427322 14.943692 
L 78.306624 15.20253 
L 78.190048 15.46325 
L 78.077623 15.725788 
L 77.969377 15.990076 
L 77.865339 16.256048 
L 77.765533 16.523637 
L 77.669985 16.792777 
L 77.57872 17.063398 
L 77.49176 17.335433 
L 77.409126 17.608814 
L 77.330841 17.883471 
L 77.256923 18.159336 
L 77.187392 18.436339 
L 77.122264 18.71441 
L 77.061556 18.99348 
L 77.005283 19.273478 
L 76.95346 19.554333 
L 76.9061 19.835975 
L 76.863214 20.118333 
L 76.824813 20.401336 
L 76.790908 20.684912 
L 76.761505 20.968991 
L 76.736614 21.253501 
L 76.71624 21.538369 
L 76.700388 21.823526 
L 76.689062 22.108897 
L 76.682266 22.394413 
L 76.68 22.68 
L 76.68 22.68 
L 76.682266 22.965587 
L 76.689062 23.251103 
L 76.700388 23.536474 
L 76.71624 23.821631 
L 76.736614 24.106499 
L 76.761505 24.391009 
L 76.790908 24.675088 
L 76.824813 24.958664 
L 76.863214 25.241667 
L 76.9061 25.524025 
L 76.95346 25.805667 
L 77.005283 26.086522 
L 77.061556 26.36652 
L 77.122264 26.64559 
L 77.187392 26.923661 
L 77.256923 27.200664 
L 77.330841 27.476529 
L 77.409126 27.751186 
L 77.49176 28.024567 
L 77.57872 28.296602 
L 77.669985 28.567223 
L 77.765533 28.836363 
L 77.865339 29.103952 
L 77.969377 29.369924 
L 78.077623 29.634212 
L 78.190048 29.89675 
L 78.306624 30.15747 
L 78.427322 30.416308 
L 78.552112 30.673199 
L 78.680962 30.928077 
L 78.813839 31.180879 
L 78.950711 31.431541 
L 79.091543 31.68 
L 79.236299 31.926193 
L 79.384942 32.170058 
L 79.537436 32.411535 
L 79.693743 32.650561 
L 79.853822 32.887078 
L 80.017633 33.121024 
L 80.185135 33.352343 
L 80.356287 33.580974 
L 80.531044 33.806862 
L 80.709364 34.029948 
L 80.8912 34.250177 
L 81.076508 34.467493 
L 81.26524 34.681842 
L 81.457349 34.893169 
L 81.652787 35.101422 
L 81.851505 35.306548 
L 82.053452 35.508495 
L 82.258578 35.707213 
L 82.466831 35.902651 
L 82.678158 36.09476 
L 82.892507 36.283492 
L 83.109823 36.4688 
L 83.330052 36.650636 
L 83.553138 36.828956 
L 83.779026 37.003713 
L 84.007657 37.174865 
L 84.238976 37.342367 
L 84.472922 37.506178 
L 84.709439 37.666257 
L 84.948465 37.822564 
L 85.189942 37.975058 
L 85.433807 38.123701 
L 85.68 38.268457 
L 85.928459 38.409289 
L 86.179121 38.546161 
L 86.431923 38.679038 
L 86.686801 38.807888 
L 86.943692 38.932678 
L 87.20253 39.053376 
L 87.46325 39.169952 
L 87.725788 39.282377 
L 87.990076 39.390623 
L 88.256048 39.494661 
L 88.523637 39.594467 
L 88.792777 39.690015 
L 89.063398 39.78128 
L 89.335433 39.86824 
L 89.608814 39.950874 
L 89.883471 40.029159 
L 90.159336 40.103077 
L 90.436339 40.172608 
L 90.71441 40.237736 
L 90.99348 40.298444 
L 91.273478 40.354717 
L 91.554333 40.40654 
L 91.835975 40.4539 
L 92.118333 40.496786 
L 92.401336 40.535187 
L 92.684912 40.569092 
L 92.968991 40.598495 
L 93.253501 40.623386 
L 93.538369 40.64376 
L 93.823526 40.659612 
L 94.108897 40.670938 
L 94.394413 40.677734 
L 94.68 40.68 
L 130.68 40.68 
z
" clip-path="url(#p2ebd5b8d78)" style="fill: none; stroke: #000000; stroke-linecap: round"/>
   </g>
   <g id="patch_3">
    <path d="M 49.68 157.68 
L 112.68 130.68 
L 175.68 157.68 
L 112.68 184.68 
L 49.68 157.68 
z
" clip-path="url(#p2ebd5b8d78)" style="fill: none; stroke: #000000; stroke-linecap: round"/>
   </g>
   <g id="patch_4">
    <path d="M 312.48 247.68 
L 312.765587 247.677734 
L 313.051103 247.670938 
L 313.336474 247.659612 
L 313.621631 247.64376 
L 313.906499 247.623386 
L 314.191009 247.598495 
L 314.475088 247.569092 
L 314.758664 247.535187 
L 315.041667 247.496786 
L 315.324025 247.4539 
L 315.605667 247.40654 
L 315.886522 247.354717 
L 316.16652 247.298444 
L 316.44559 247.237736 
L 316.723661 247.172608 
L 317.000664 247.103077 
L 317.276529 247.029159 
L 317.551186 246.950874 
L 317.824567 246.86824 
L 318.096602 246.78128 
L 318.367223 246.690015 
L 318.636363 246.594467 
L 318.903952 246.494661 
L 319.169924 246.390623 
L 319.434212 246.282377 
L 319.69675 246.169952 
L 319.95747 246.053376 
L 320.216308 245.932678 
L 320.473199 245.807888 
L 320.728077 245.679038 
L 320.980879 245.546161 
L 321.231541 245.409289 
L 321.48 245.268457 
L 321.726193 245.123701 
L 321.970058 244.975058 
L 322.211535 244.822564 
L 322.450561 244.666257 
L 322.687078 244.506178 
L 322.921024 244.342367 
L 323.152343 244.174865 
L 323.380974 244.003713 
L 323.606862 243.828956 
L 323.829948 243.650636 
L 324.050177 243.4688 
L 324.267493 243.283492 
L 324.481842 243.09476 
L 324.693169 242.902651 
L 324.901422 242.707213 
L 325.106548 242.508495 
L 325.308495 242.306548 
L 325.507213 242.101422 
L 325.702651 241.893169 
L 325.89476 241.681842 
L 326.083492 241.467493 
L 326.2688 241.250177 
L 326.450636 241.029948 
L 326.628956 240.806862 
L 326.803713 240.580974 
L 326.974865 240.352343 
L 327.142367 240.121024 
L 327.306178 239.887078 
L 327.466257 239.650561 
L 327.622564 239.411535 
L 327.775058 239.170058 
L 327.923701 238.926193 
L 328.068457 238.68 
L 328.209289 238.431541 
L 328.346161 238.180879 
L 328.479038 237.928077 
L 328.607888 237.673199 
L 328.732678 237.416308 
L 328.853376 237.15747 
L 328.969952 236.89675 
L 329.082377 236.634212 
L 329.190623 236.369924 
L 329.294661 236.103952 
L 329.394467 235.836363 
L 329.490015 235.567223 
L 329.58128 235.296602 
L 329.66824 235.024567 
L 329.750874 234.751186 
L 329.829159 234.476529 
L 329.903077 234.200664 
L 329.972608 233.923661 
L 330.037736 233.64559 
L 330.098444 233.36652 
L 330.154717 233.086522 
L 330.20654 232.805667 
L 330.2539 232.524025 
L 330.296786 232.241667 
L 330.335187 231.958664 
L 330.369092 231.675088 
L 330.398495 231.391009 
L 330.423386 231.106499 
L 330.44376 230.821631 
L 330.459612 230.536474 
L 330.470938 230.251103 
L 330.477734 229.965587 
L 330.48 229.68 
L 330.48 229.68 
L 330.477734 229.394413 
L 330.470938 229.108897 
L 330.459612 228.823526 
L 330.44376 228.538369 
L 330.423386 228.253501 
L 330.398495 227.968991 
L 330.369092 227.684912 
L 330.335187 227.401336 
L 330.296786 227.118333 
L 330.2539 226.835975 
L 330.20654 226.554333 
L 330.154717 226.273478 
L 330.098444 225.99348 
L 330.037736 225.71441 
L 329.972608 225.436339 
L 329.903077 225.159336 
L 329.829159 224.883471 
L 329.750874 224.608814 
L 329.66824 224.335433 
L 329.58128 224.063398 
L 329.490015 223.792777 
L 329.394467 223.523637 
L 329.294661 223.256048 
L 329.190623 222.990076 
L 329.082377 222.725788 
L 328.969952 222.46325 
L 328.853376 222.20253 
L 328.732678 221.943692 
L 328.607888 221.686801 
L 328.479038 221.431923 
L 328.346161 221.179121 
L 328.209289 220.928459 
L 328.068457 220.68 
L 327.923701 220.433807 
L 327.775058 220.189942 
L 327.622564 219.948465 
L 327.466257 219.709439 
L 327.306178 219.472922 
L 327.142367 219.238976 
L 326.974865 219.007657 
L 326.803713 218.779026 
L 326.628956 218.553138 
L 326.450636 218.330052 
L 326.2688 218.109823 
L 326.083492 217.892507 
L 325.89476 217.678158 
L 325.702651 217.466831 
L 325.507213 217.258578 
L 325.308495 217.053452 
L 325.106548 216.851505 
L 324.901422 216.652787 
L 324.693169 216.457349 
L 324.481842 216.26524 
L 324.267493 216.076508 
L 324.050177 215.8912 
L 323.829948 215.709364 
L 323.606862 215.531044 
L 323.380974 215.356287 
L 323.152343 215.185135 
L 322.921024 215.017633 
L 322.687078 214.853822 
L 322.450561 214.693743 
L 322.211535 214.537436 
L 321.970058 214.384942 
L 321.726193 214.236299 
L 321.48 214.091543 
L 321.231541 213.950711 
L 320.980879 213.813839 
L 320.728077 213.680962 
L 320.473199 213.552112 
L 320.216308 213.427322 
L 319.95747 213.306624 
L 319.69675 213.190048 
L 319.434212 213.077623 
L 319.169924 212.969377 
L 318.903952 212.865339 
L 318.636363 212.765533 
L 318.367223 212.669985 
L 318.096602 212.57872 
L 317.824567 212.49176 
L 317.551186 212.409126 
L 317.276529 212.330841 
L 317.000664 212.256923 
L 316.723661 212.187392 
L 316.44559 212.122264 
L 316.16652 212.061556 
L 315.886522 212.005283 
L 315.605667 211.95346 
L 315.324025 211.9061 
L 315.041667 211.863214 
L 314.758664 211.824813 
L 314.475088 211.790908 
L 314.191009 211.761505 
L 313.906499 211.736614 
L 313.621631 211.71624 
L 313.336474 211.700388 
L 313.051103 211.689062 
L 312.765587 211.682266 
L 312.48 211.68 
L 276.48 211.68 
L 276.194413 211.682266 
L 275.908897 211.689062 
L 275.623526 211.700388 
L 275.338369 211.71624 
L 275.053501 211.736614 
L 274.768991 211.761505 
L 274.484912 211.790908 
L 274.201336 211.824813 
L 273.918333 211.863214 
L 273.635975 211.9061 
L 273.354333 211.95346 
L 273.073478 212.005283 
L 272.79348 212.061556 
L 272.51441 212.122264 
L 272.236339 212.187392 
L 271.959336 212.256923 
L 271.683471 212.330841 
L 271.408814 212.409126 
L 271.135433 212.49176 
L 270.863398 212.57872 
L 270.592777 212.669985 
L 270.323637 212.765533 
L 270.056048 212.865339 
L 269.790076 212.969377 
L 269.525788 213.077623 
L 269.26325 213.190048 
L 269.00253 213.306624 
L 268.743692 213.427322 
L 268.486801 213.552112 
L 268.231923 213.680962 
L 267.979121 213.813839 
L 267.728459 213.950711 
L 267.48 214.091543 
L 267.233807 214.236299 
L 266.989942 214.384942 
L 266.748465 214.537436 
L 266.509439 214.693743 
L 266.272922 214.853822 
L 266.038976 215.017633 
L 265.807657 215.185135 
L 265.579026 215.356287 
L 265.353138 215.531044 
L 265.130052 215.709364 
L 264.909823 215.8912 
L 264.692507 216.076508 
L 264.478158 216.26524 
L 264.266831 216.457349 
L 264.058578 216.652787 
L 263.853452 216.851505 
L 263.651505 217.053452 
L 263.452787 217.258578 
L 263.257349 217.466831 
L 263.06524 217.678158 
L 262.876508 217.892507 
L 262.6912 218.109823 
L 262.509364 218.330052 
L 262.331044 218.553138 
L 262.156287 218.779026 
L 261.985135 219.007657 
L 261.817633 219.238976 
L 261.653822 219.472922 
L 261.493743 219.709439 
L 261.337436 219.948465 
L 261.184942 220.189942 
L 261.036299 220.433807 
L 260.891543 220.68 
L 260.750711 220.928459 
L 260.613839 221.179121 
L 260.480962 221.431923 
L 260.352112 221.686801 
L 260.227322 221.943692 
L 260.106624 222.20253 
L 259.990048 222.46325 
L 259.877623 222.725788 
L 259.769377 222.990076 
L 259.665339 223.256048 
L 259.565533 223.523637 
L 259.469985 223.792777 
L 259.37872 224.063398 
L 259.29176 224.335433 
L 259.209126 224.608814 
L 259.130841 224.883471 
L 259.056923 225.159336 
L 258.987392 225.436339 
L 258.922264 225.71441 
L 258.861556 225.99348 
L 258.805283 226.273478 
L 258.75346 226.554333 
L 258.7061 226.835975 
L 258.663214 227.118333 
L 258.624813 227.401336 
L 258.590908 227.684912 
L 258.561505 227.968991 
L 258.536614 228.253501 
L 258.51624 228.538369 
L 258.500388 228.823526 
L 258.489062 229.108897 
L 258.482266 229.394413 
L 258.48 229.68 
L 258.48 229.68 
L 258.482266 229.965587 
L 258.489062 230.251103 
L 258.500388 230.536474 
L 258.51624 230.821631 
L 258.536614 231.106499 
L 258.561505 231.391009 
L 258.590908 231.675088 
L 258.624813 231.958664 
L 258.663214 232.241667 
L 258.7061 232.524025 
L 258.75346 232.805667 
L 258.805283 233.086522 
L 258.861556 233.36652 
L 258.922264 233.64559 
L 258.987392 233.923661 
L 259.056923 234.200664 
L 259.130841 234.476529 
L 259.209126 234.751186 
L 259.29176 235.024567 
L 259.37872 235.296602 
L 259.469985 235.567223 
L 259.565533 235.836363 
L 259.665339 236.103952 
L 259.769377 236.369924 
L 259.877623 236.634212 
L 259.990048 236.89675 
L 260.106624 237.15747 
L 260.227322 237.416308 
L 260.352112 237.673199 
L 260.480962 237.928077 
L 260.613839 238.180879 
L 260.750711 238.431541 
L 260.891543 238.68 
L 261.036299 238.926193 
L 261.184942 239.170058 
L 261.337436 239.411535 
L 261.493743 239.650561 
L 261.653822 239.887078 
L 261.817633 240.121024 
L 261.985135 240.352343 
L 262.156287 240.580974 
L 262.331044 240.806862 
L 262.509364 241.029948 
L 262.6912 241.250177 
L 262.876508 241.467493 
L 263.06524 241.681842 
L 263.257349 241.893169 
L 263.452787 242.101422 
L 263.651505 242.306548 
L 263.853452 242.508495 
L 264.058578 242.707213 
L 264.266831 242.902651 
L 264.478158 243.09476 
L 264.692507 243.283492 
L 264.909823 243.4688 
L 265.130052 243.650636 
L 265.353138 243.828956 
L 265.579026 244.003713 
L 265.807657 244.174865 
L 266.038976 244.342367 
L 266.272922 244.506178 
L 266.509439 244.666257 
L 266.748465 244.822564 
L 266.989942 244.975058 
L 267.233807 245.123701 
L 267.48 245.268457 
L 267.728459 245.409289 
L 267.979121 245.546161 
L 268.231923 245.679038 
L 268.486801 245.807888 
L 268.743692 245.932678 
L 269.00253 246.053376 
L 269.26325 246.169952 
L 269.525788 246.282377 
L 269.790076 246.390623 
L 270.056048 246.494661 
L 270.323637 246.594467 
L 270.592777 246.690015 
L 270.863398 246.78128 
L 271.135433 246.86824 
L 271.408814 246.950874 
L 271.683471 247.029159 
L 271.959336 247.103077 
L 272.236339 247.172608 
L 272.51441 247.237736 
L 272.79348 247.298444 
L 273.073478 247.354717 
L 273.354333 247.40654 
L 273.635975 247.4539 
L 273.918333 247.496786 
L 274.201336 247.535187 
L 274.484912 247.569092 
L 274.768991 247.598495 
L 275.053501 247.623386 
L 275.338369 247.64376 
L 275.623526 247.659612 
L 275.908897 247.670938 
L 276.194413 247.677734 
L 276.48 247.68 
L 312.48 247.68 
z
" clip-path="url(#p2ebd5b8d78)" style="fill: none; stroke: #000000; stroke-linecap: round"/>
   </g>
   <g id="line2d_1">
    <path d="M 112.68 40.68 
L 112.68 54.18 
L 112.68 58.68 
" clip-path="url(#p2ebd5b8d78)" style="fill: none; stroke: #000000; stroke-linecap: round"/>
   </g>
   <g id="patch_5">
    <path d="M 115.38 58.68 
L 112.68 67.68 
L 109.98 58.68 
z
" clip-path="url(#p2ebd5b8d78)"/>
   </g>
   <g id="line2d_2">
    <path d="M 73.08 85.68 
L 73.08 67.68 
L 152.28 67.68 
L 152.28 103.68 
L 73.08 103.68 
L 73.08 85.68 
" clip-path="url(#p2ebd5b8d78)" style="fill: none; stroke: #000000; stroke-linecap: round"/>
   </g>
   <g id="line2d_3">
    <path d="M 112.68 103.68 
L 112.68 117.18 
L 112.68 121.68 
" clip-path="url(#p2ebd5b8d78)" style="fill: none; stroke: #000000; stroke-linecap: round"/>
   </g>
   <g id="patch_6">
    <path d="M 115.38 121.68 
L 112.68 130.68 
L 109.98 121.68 
z
" clip-path="url(#p2ebd5b8d78)"/>
   </g>
   <g id="line2d_4">
    <path d="M 175.68 157.68 
L 202.68 157.68 
L 220.68 157.68 
" clip-path="url(#p2ebd5b8d78)" style="fill: none; stroke: #000000; stroke-linecap: round"/>
   </g>
   <g id="patch_7">
    <path d="M 220.68 154.98 
L 229.68 157.68 
L 220.68 160.38 
z
" clip-path="url(#p2ebd5b8d78)"/>
   </g>
   <g id="line2d_5">
    <path d="M 229.68 157.68 
L 229.68 139.68 
L 359.28 139.68 
L 359.28 175.68 
L 229.68 175.68 
L 229.68 157.68 
" clip-path="url(#p2ebd5b8d78)" style="fill: none; stroke: #000000; stroke-linecap: round"/>
   </g>
   <g id="line2d_6">
    <path d="M 294.48 175.68 
L 294.48 193.68 
L 294.48 202.68 
" clip-path="url(#p2ebd5b8d78)" style="fill: none; stroke: #000000; stroke-linecap: round"/>
   </g>
   <g id="patch_8">
    <path d="M 297.18 202.68 
L 294.48 211.68 
L 291.78 202.68 
z
" clip-path="url(#p2ebd5b8d78)"/>
   </g>
   <g id="line2d_7">
    <path d="M 112.68 184.68 
L 112.68 202.68 
L 112.68 211.68 
" clip-path="url(#p2ebd5b8d78)" style="fill: none; stroke: #000000; stroke-linecap: round"/>
   </g>
   <g id="patch_9">
    <path d="M 115.38 211.68 
L 112.68 220.68 
L 109.98 211.68 
z
" clip-path="url(#p2ebd5b8d78)"/>
   </g>
   <g id="line2d_8">
    <path d="M 53.28 238.68 
L 53.28 220.68 
L 172.08 220.68 
L 172.08 256.68 
L 53.28 256.68 
L 53.28 238.68 
" clip-path="url(#p2ebd5b8d78)" style="fill: none; stroke: #000000; stroke-linecap: round"/>
   </g>
   <g id="line2d_9">
    <path d="M 112.68 256.68 
L 112.68 274.68 
L 112.68 283.68 
" clip-path="url(#p2ebd5b8d78)" style="fill: none; stroke: #000000; stroke-linecap: round"/>
   </g>
   <g id="patch_10">
    <path d="M 115.38 283.68 
L 112.68 292.68 
L 109.98 283.68 
z
" clip-path="url(#p2ebd5b8d78)"/>
   </g>
   <g id="line2d_10">
    <path d="M 58.68 310.68 
L 58.68 292.68 
L 166.68 292.68 
L 166.68 328.68 
L 58.68 328.68 
L 58.68 310.68 
" clip-path="url(#p2ebd5b8d78)" style="fill: none; stroke: #000000; stroke-linecap: round"/>
   </g>
   <g id="line2d_11">
    <path d="M 58.68 310.68 
L 4.68 310.68 
L 4.68 157.68 
L 40.68 157.68 
" clip-path="url(#p2ebd5b8d78)" style="fill: none; stroke: #000000; stroke-linecap: round"/>
   </g>
   <g id="patch_11">
    <path d="M 40.68 154.98 
L 49.68 157.68 
L 40.68 160.38 
z
" clip-path="url(#p2ebd5b8d78)"/>
   </g>
   <g id="text_1">
    <!-- START -->
    <g transform="translate(91.202031 26.593437) scale(0.14 -0.14)">
     <defs>
      <path id="IPAexGothic-53" d="M 2919 3641 
Q 2563 4259 1853 4259 
Q 1453 4259 1213 4009 
Q 1028 3803 1028 3534 
Q 1028 3238 1266 3047 
Q 1444 2913 1984 2688 
L 2200 2597 
Q 2925 2306 3191 1953 
Q 3422 1644 3422 1259 
Q 3422 644 2969 288 
Q 2559 -31 1931 -31 
Q 881 -31 313 766 
L 753 1100 
Q 1203 459 1938 459 
Q 2288 459 2534 625 
Q 2841 847 2841 1216 
Q 2841 1503 2616 1728 
Q 2375 1959 1728 2206 
L 1541 2278 
Q 453 2694 453 3481 
Q 453 4006 806 4347 
Q 1203 4725 1863 4725 
Q 2841 4725 3359 3956 
L 2919 3641 
z
" transform="scale(0.015625)"/>
      <path id="IPAexGothic-54" d="M 3866 4141 
L 2175 4141 
L 2175 63 
L 1606 63 
L 1606 4141 
L -31 4141 
L -31 4634 
L 3866 4634 
L 3866 4141 
z
" transform="scale(0.015625)"/>
      <path id="IPAexGothic-41" d="M 4056 63 
L 3444 63 
L 2938 1409 
L 1100 1409 
L 603 63 
L -6 63 
L 1806 4666 
L 2259 4666 
L 4056 63 
z
M 2778 1863 
L 2316 3078 
Q 2125 3588 2028 4000 
L 2009 4000 
Q 1897 3563 1716 3078 
L 1263 1863 
L 2778 1863 
z
" transform="scale(0.015625)"/>
      <path id="IPAexGothic-52" d="M 4072 63 
L 3394 63 
Q 3138 641 2828 1197 
Q 2584 1641 2344 1825 
Q 2050 2044 1625 2044 
L 1172 2044 
L 1172 63 
L 609 63 
L 609 4634 
L 2009 4634 
Q 2713 4634 3131 4378 
Q 3688 4044 3688 3381 
Q 3688 2784 3181 2459 
Q 2906 2272 2522 2216 
L 2522 2197 
Q 2941 2050 3247 1581 
Q 3516 1166 4072 63 
z
M 1172 2478 
L 1869 2478 
Q 3106 2478 3106 3369 
Q 3106 4181 1928 4181 
L 1172 4181 
L 1172 2478 
z
" transform="scale(0.015625)"/>
     </defs>
     <use xlink:href="#IPAexGothic-53"/>
     <use xlink:href="#IPAexGothic-54" transform="translate(58.496094 0)"/>
     <use xlink:href="#IPAexGothic-41" transform="translate(118.408203 0)"/>
     <use xlink:href="#IPAexGothic-52" transform="translate(182.128906 0)"/>
     <use xlink:href="#IPAexGothic-54" transform="translate(246.923828 0)"/>
    </g>
   </g>
   <g id="text_2">
    <!-- counter = 0 -->
    <g transform="translate(74.253281 89.593437) scale(0.14 -0.14)">
     <defs>
      <path id="IPAexGothic-63" d="M 3269 784 
Q 2834 -31 1900 -31 
Q 1228 -31 788 409 
Q 313 891 313 1663 
Q 313 2428 788 2913 
Q 1222 3347 1881 3347 
Q 2813 3347 3206 2541 
L 2763 2309 
Q 2484 2900 1900 2900 
Q 1516 2900 1234 2619 
Q 881 2266 881 1650 
Q 881 1069 1222 728 
Q 1522 428 1956 428 
Q 2547 428 2847 1016 
L 3269 784 
z
" transform="scale(0.015625)"/>
      <path id="IPAexGothic-6f" d="M 1919 3341 
Q 2594 3341 3056 2888 
Q 3531 2413 3531 1638 
Q 3531 888 3066 422 
Q 2609 -31 1919 -31 
Q 1228 -31 781 416 
Q 313 881 313 1656 
Q 313 2413 788 2888 
Q 1241 3341 1919 3341 
z
M 1919 2919 
Q 1519 2919 1241 2631 
Q 888 2278 888 1650 
Q 888 1031 1234 684 
Q 1516 403 1919 403 
Q 2331 403 2609 691 
Q 2956 1038 2956 1672 
Q 2956 2269 2603 2631 
Q 2316 2919 1919 2919 
z
" transform="scale(0.015625)"/>
      <path id="IPAexGothic-75" d="M 3284 63 
L 2772 63 
L 2772 644 
Q 2300 0 1625 0 
Q 1072 0 763 375 
Q 519 678 519 1241 
L 519 3250 
L 1069 3250 
L 1069 1259 
Q 1069 466 1734 466 
Q 2406 466 2734 1291 
L 2734 3250 
L 3284 3250 
L 3284 63 
z
" transform="scale(0.015625)"/>
      <path id="IPAexGothic-6e" d="M 3328 63 
L 2778 63 
L 2778 2041 
Q 2778 2853 2106 2853 
Q 1428 2853 1113 2041 
L 1113 63 
L 563 63 
L 563 3250 
L 1075 3250 
L 1075 2675 
Q 1525 3316 2222 3316 
Q 3328 3316 3328 2072 
L 3328 63 
z
" transform="scale(0.015625)"/>
      <path id="IPAexGothic-74" d="M 2125 241 
Q 1769 -6 1397 -6 
Q 653 -6 653 831 
L 653 2859 
L 219 2859 
L 219 3250 
L 653 3250 
L 653 3966 
L 1178 4228 
L 1178 3250 
L 2063 3250 
L 2063 2859 
L 1178 2859 
L 1178 906 
Q 1178 416 1513 416 
Q 1738 416 1941 588 
L 2125 241 
z
" transform="scale(0.015625)"/>
      <path id="IPAexGothic-65" d="M 863 1594 
Q 891 1041 1209 722 
Q 1534 397 1997 397 
Q 2606 397 2963 966 
L 3322 728 
Q 2869 -31 1931 -31 
Q 1222 -31 766 422 
Q 306 884 306 1641 
Q 306 2444 788 2925 
Q 1216 3353 1856 3353 
Q 2459 3353 2866 2956 
Q 3322 2494 3322 1722 
L 3322 1594 
L 863 1594 
z
M 2756 1997 
Q 2709 2431 2450 2681 
Q 2194 2938 1844 2938 
Q 1438 2938 1150 2591 
Q 953 2356 894 1997 
L 2756 1997 
z
" transform="scale(0.015625)"/>
      <path id="IPAexGothic-72" d="M 2309 3316 
L 2213 2769 
Q 2106 2791 2022 2791 
Q 1653 2791 1413 2444 
Q 1113 2006 1113 1675 
L 1113 63 
L 563 63 
L 563 3250 
L 1081 3250 
L 1056 2303 
L 1069 2303 
Q 1422 3341 2097 3341 
Q 2206 3341 2309 3316 
z
" transform="scale(0.015625)"/>
      <path id="IPAexGothic-20" transform="scale(0.015625)"/>
      <path id="IPAexGothic-3d" d="M 416 2803 
L 3922 2803 
L 3922 2438 
L 416 2438 
L 416 2803 
z
M 416 1625 
L 3922 1625 
L 3922 1259 
L 416 1259 
L 416 1625 
z
" transform="scale(0.015625)"/>
      <path id="IPAexGothic-30" d="M 2038 4725 
Q 2881 4725 3334 3944 
Q 3694 3325 3694 2344 
Q 3694 1372 3334 741 
Q 2888 -31 2016 -31 
Q 1147 -31 700 741 
Q 341 1372 341 2350 
Q 341 3713 1000 4334 
Q 1419 4725 2038 4725 
z
M 2016 4266 
Q 1516 4266 1228 3759 
Q 934 3247 934 2344 
Q 934 1456 1222 947 
Q 1513 447 2016 447 
Q 2619 447 2909 1153 
Q 3100 1622 3100 2375 
Q 3100 3256 2806 3759 
Q 2509 4266 2016 4266 
z
" transform="scale(0.015625)"/>
     </defs>
     <use xlink:href="#IPAexGothic-63"/>
     <use xlink:href="#IPAexGothic-6f" transform="translate(54.394531 0)"/>
     <use xlink:href="#IPAexGothic-75" transform="translate(114.794922 0)"/>
     <use xlink:href="#IPAexGothic-6e" transform="translate(175.195312 0)"/>
     <use xlink:href="#IPAexGothic-74" transform="translate(235.595703 0)"/>
     <use xlink:href="#IPAexGothic-65" transform="translate(270.214844 0)"/>
     <use xlink:href="#IPAexGothic-72" transform="translate(327.099609 0)"/>
     <use xlink:href="#IPAexGothic-20" transform="translate(364.111328 0)"/>
     <use xlink:href="#IPAexGothic-3d" transform="translate(391.113281 0)"/>
     <use xlink:href="#IPAexGothic-20" transform="translate(458.935547 0)"/>
     <use xlink:href="#IPAexGothic-30" transform="translate(485.9375 0)"/>
    </g>
   </g>
   <g id="text_3">
    <!-- True -->
    <g transform="translate(117.36 199.846875) scale(0.14 -0.14)">
     <use xlink:href="#IPAexGothic-54"/>
     <use xlink:href="#IPAexGothic-72" transform="translate(59.912109 0)"/>
     <use xlink:href="#IPAexGothic-75" transform="translate(96.923828 0)"/>
     <use xlink:href="#IPAexGothic-65" transform="translate(157.324219 0)"/>
    </g>
   </g>
   <g id="text_4">
    <!-- False -->
    <g transform="translate(180.36 150.34) scale(0.14 -0.14)">
     <defs>
      <path id="IPAexGothic-46" d="M 3469 4141 
L 1172 4141 
L 1172 2656 
L 3206 2656 
L 3206 2188 
L 1172 2188 
L 1172 63 
L 609 63 
L 609 4634 
L 3469 4634 
L 3469 4141 
z
" transform="scale(0.015625)"/>
      <path id="IPAexGothic-61" d="M 3156 63 
L 2672 63 
Q 2559 303 2531 556 
L 2509 556 
Q 2147 -25 1428 -25 
Q 934 -25 622 288 
Q 347 563 347 959 
Q 347 1947 2050 1997 
L 2478 2009 
L 2478 2175 
Q 2478 2509 2288 2700 
Q 2088 2900 1775 2900 
Q 1238 2900 969 2378 
L 494 2597 
Q 938 3328 1788 3328 
Q 2375 3328 2691 3000 
Q 2984 2706 2984 2169 
L 2984 997 
Q 2984 400 3156 63 
z
M 2491 1625 
L 2141 1619 
Q 903 1591 903 953 
Q 903 728 1050 581 
Q 1231 403 1525 403 
Q 1934 403 2234 703 
Q 2491 969 2491 1344 
L 2491 1625 
z
" transform="scale(0.015625)"/>
      <path id="IPAexGothic-6c" d="M 1131 63 
L 581 63 
L 581 4794 
L 1131 4794 
L 1131 63 
z
" transform="scale(0.015625)"/>
      <path id="IPAexGothic-73" d="M 2234 2547 
Q 1938 2931 1484 2931 
Q 891 2931 891 2475 
Q 891 2153 1531 1944 
L 1741 1875 
Q 2650 1578 2650 894 
Q 2650 434 2272 172 
Q 1972 -31 1497 -31 
Q 766 -31 256 503 
L 603 819 
Q 997 397 1516 397 
Q 2131 397 2131 875 
Q 2131 1238 1453 1478 
L 1234 1553 
Q 378 1853 378 2431 
Q 378 2797 628 3047 
Q 928 3347 1453 3347 
Q 2156 3347 2606 2859 
L 2234 2547 
z
" transform="scale(0.015625)"/>
     </defs>
     <use xlink:href="#IPAexGothic-46"/>
     <use xlink:href="#IPAexGothic-61" transform="translate(57.177734 0)"/>
     <use xlink:href="#IPAexGothic-6c" transform="translate(112.158203 0)"/>
     <use xlink:href="#IPAexGothic-73" transform="translate(139.160156 0)"/>
     <use xlink:href="#IPAexGothic-65" transform="translate(185.351562 0)"/>
    </g>
   </g>
   <g id="text_5">
    <!-- counter &lt; 3 ？ -->
    <g transform="translate(65.363281 161.593437) scale(0.14 -0.14)">
     <defs>
      <path id="IPAexGothic-3c" d="M 897 2028 
L 3928 609 
L 3769 263 
L 409 1881 
L 409 2175 
L 3769 3794 
L 3928 3450 
L 897 2028 
z
" transform="scale(0.015625)"/>
      <path id="IPAexGothic-33" d="M 2381 2419 
Q 3506 2216 3506 1278 
Q 3506 716 3128 356 
Q 2709 -31 1944 -31 
Q 797 -31 288 881 
L 756 1131 
Q 1109 441 1938 441 
Q 2425 441 2694 691 
Q 2950 928 2950 1291 
Q 2950 1719 2566 1978 
Q 2216 2213 1644 2213 
L 1363 2213 
L 1363 2669 
L 1656 2669 
Q 2231 2669 2534 2888 
Q 2859 3119 2859 3509 
Q 2859 3934 2494 4138 
Q 2259 4278 1931 4278 
Q 1238 4278 903 3578 
L 434 3803 
Q 897 4725 1938 4725 
Q 2597 4725 3006 4394 
Q 3416 4069 3416 3534 
Q 3416 3028 3019 2706 
Q 2763 2500 2381 2444 
L 2381 2419 
z
" transform="scale(0.015625)"/>
      <path id="IPAexGothic-ff1f" d="M 1503 3444 
Q 1550 4184 1963 4616 
Q 2466 5128 3272 5128 
Q 3888 5128 4313 4853 
Q 4909 4469 4909 3778 
Q 4909 3059 4116 2563 
Q 3628 2250 3506 1881 
Q 3422 1650 3422 1228 
L 2853 1228 
Q 2863 1869 3053 2197 
Q 3281 2588 3847 2950 
Q 4341 3269 4341 3778 
Q 4341 4231 3975 4463 
Q 3697 4634 3266 4634 
Q 2656 4634 2341 4225 
Q 2109 3928 2091 3444 
L 1503 3444 
z
M 2763 647 
L 3506 647 
L 3506 -97 
L 2763 -97 
L 2763 647 
z
" transform="scale(0.015625)"/>
     </defs>
     <use xlink:href="#IPAexGothic-63"/>
     <use xlink:href="#IPAexGothic-6f" transform="translate(54.394531 0)"/>
     <use xlink:href="#IPAexGothic-75" transform="translate(114.794922 0)"/>
     <use xlink:href="#IPAexGothic-6e" transform="translate(175.195312 0)"/>
     <use xlink:href="#IPAexGothic-74" transform="translate(235.595703 0)"/>
     <use xlink:href="#IPAexGothic-65" transform="translate(270.214844 0)"/>
     <use xlink:href="#IPAexGothic-72" transform="translate(327.099609 0)"/>
     <use xlink:href="#IPAexGothic-20" transform="translate(364.111328 0)"/>
     <use xlink:href="#IPAexGothic-3c" transform="translate(391.113281 0)"/>
     <use xlink:href="#IPAexGothic-20" transform="translate(458.935547 0)"/>
     <use xlink:href="#IPAexGothic-33" transform="translate(485.9375 0)"/>
     <use xlink:href="#IPAexGothic-20" transform="translate(548.925781 0)"/>
     <use xlink:href="#IPAexGothic-ff1f" transform="translate(575.927734 0)"/>
    </g>
   </g>
   <g id="text_6">
    <!-- print('無事終了(^^)') -->
    <g transform="translate(231.976562 162.180781) scale(0.14 -0.14)">
     <defs>
      <path id="IPAexGothic-70" d="M 1075 2688 
Q 1525 3341 2206 3341 
Q 2769 3341 3172 2938 
Q 3641 2469 3641 1644 
Q 3641 841 3178 372 
Q 2775 -31 2200 -31 
Q 1569 -31 1106 497 
L 1106 -1216 
L 563 -1216 
L 563 3250 
L 1075 3250 
L 1075 2688 
z
M 1106 1950 
L 1106 1291 
Q 1106 897 1516 600 
Q 1791 403 2106 403 
Q 2469 403 2725 659 
Q 3066 997 3066 1631 
Q 3066 2200 2784 2559 
Q 2503 2900 2100 2900 
Q 1656 2900 1338 2484 
Q 1106 2184 1106 1950 
z
" transform="scale(0.015625)"/>
      <path id="IPAexGothic-69" d="M 1178 3928 
L 550 3928 
L 550 4569 
L 1178 4569 
L 1178 3928 
z
M 1138 63 
L 588 63 
L 588 3250 
L 1138 3250 
L 1138 63 
z
" transform="scale(0.015625)"/>
      <path id="IPAexGothic-28" d="M 1928 -1016 
L 1653 -1166 
Q 488 69 488 1875 
Q 488 3678 1653 4909 
L 1928 4763 
Q 1006 3522 1006 1881 
Q 1006 203 1928 -1016 
z
" transform="scale(0.015625)"/>
      <path id="IPAexGothic-27" d="M 900 4794 
L 806 3084 
L 422 3084 
L 325 4794 
L 900 4794 
z
" transform="scale(0.015625)"/>
      <path id="IPAexGothic-7121" d="M 5134 4238 
L 5134 3188 
L 6044 3188 
L 6044 2791 
L 5134 2791 
L 5134 1716 
L 5850 1716 
L 5850 1319 
L 544 1319 
L 544 1716 
L 1409 1716 
L 1409 2791 
L 353 2791 
L 353 3188 
L 1409 3188 
L 1409 4044 
Q 1156 3691 884 3438 
L 572 3731 
Q 1291 4394 1666 5306 
L 2094 5159 
Q 2038 5041 1800 4628 
L 5697 4628 
L 5697 4238 
L 5134 4238 
z
M 1825 4238 
L 1825 3188 
L 2516 3188 
L 2516 4238 
L 1825 4238 
z
M 2906 4238 
L 2906 3188 
L 3597 3188 
L 3597 4238 
L 2906 4238 
z
M 3988 4238 
L 3988 3188 
L 4719 3188 
L 4719 4238 
L 3988 4238 
z
M 4719 2791 
L 3988 2791 
L 3988 1716 
L 4719 1716 
L 4719 2791 
z
M 3597 2791 
L 2906 2791 
L 2906 1716 
L 3597 1716 
L 3597 2791 
z
M 2516 2791 
L 1825 2791 
L 1825 1716 
L 2516 1716 
L 2516 2791 
z
M 506 -159 
Q 997 369 1294 1106 
L 1716 934 
Q 1400 91 909 -488 
L 506 -159 
z
M 2466 -441 
Q 2391 256 2222 903 
L 2656 991 
Q 2869 350 2963 -331 
L 2466 -441 
z
M 3859 -341 
Q 3659 413 3381 953 
L 3822 1094 
Q 4100 578 4347 -159 
L 3859 -341 
z
M 5569 -359 
Q 5094 469 4616 991 
L 5006 1209 
Q 5578 609 6009 -63 
L 5569 -359 
z
" transform="scale(0.015625)"/>
      <path id="IPAexGothic-4e8b" d="M 2950 3922 
L 2950 4294 
L 478 4294 
L 478 4659 
L 2950 4659 
L 2950 5313 
L 3403 5313 
L 3403 4659 
L 5919 4659 
L 5919 4294 
L 3403 4294 
L 3403 3922 
L 5234 3922 
L 5234 2822 
L 3403 2822 
L 3403 2450 
L 5325 2450 
L 5325 1759 
L 6081 1759 
L 6081 1381 
L 5325 1381 
L 5325 397 
L 4881 397 
L 4881 672 
L 3403 672 
L 3403 6 
Q 3403 -263 3269 -356 
Q 3150 -441 2841 -441 
Q 2497 -441 2116 -403 
L 2041 56 
Q 2450 -25 2731 -25 
Q 2950 -25 2950 159 
L 2950 672 
L 844 672 
L 844 1025 
L 2950 1025 
L 2950 1394 
L 319 1394 
L 319 1747 
L 2950 1747 
L 2950 2097 
L 838 2097 
L 838 2450 
L 2950 2450 
L 2950 2822 
L 1156 2822 
L 1156 3922 
L 2950 3922 
z
M 2950 3591 
L 1584 3591 
L 1584 3163 
L 2950 3163 
L 2950 3591 
z
M 3403 3591 
L 3403 3163 
L 4806 3163 
L 4806 3591 
L 3403 3591 
z
M 3403 1025 
L 4881 1025 
L 4881 1394 
L 3403 1394 
L 3403 1025 
z
M 3403 1747 
L 4881 1747 
L 4881 2097 
L 3403 2097 
L 3403 1747 
z
" transform="scale(0.015625)"/>
      <path id="IPAexGothic-7d42" d="M 1259 3066 
Q 825 3678 378 4128 
L 666 4422 
Q 828 4259 916 4153 
Q 1300 4750 1541 5331 
L 1956 5119 
Q 1547 4363 1150 3859 
Q 1338 3625 1491 3391 
Q 1900 3994 2200 4544 
L 2578 4300 
Q 1994 3347 1338 2572 
L 1638 2591 
Q 2006 2609 2200 2631 
Q 2075 2919 1950 3150 
L 2297 3297 
Q 2606 2763 2822 2106 
L 2444 1919 
Q 2403 2063 2316 2316 
Q 2228 2294 1778 2234 
L 1778 -447 
L 1363 -447 
L 1363 2181 
Q 972 2134 428 2106 
L 281 2534 
Q 619 2544 869 2553 
Q 1138 2900 1259 3066 
z
M 4709 2859 
Q 5281 2319 6144 1984 
L 5844 1575 
Q 5028 1969 4447 2547 
Q 3819 1869 2888 1388 
L 2603 1753 
Q 3584 2172 4172 2834 
Q 3800 3291 3553 3719 
Q 3284 3294 2866 2888 
L 2591 3206 
Q 3384 3944 3800 5288 
L 4219 5153 
Q 4066 4738 4031 4659 
L 5325 4659 
L 5556 4447 
Q 5234 3569 4709 2859 
z
M 4428 3150 
Q 4838 3706 5031 4269 
L 3859 4269 
Q 3813 4166 3769 4097 
Q 4028 3609 4428 3150 
z
M 359 197 
Q 588 863 653 1759 
L 1063 1709 
Q 994 684 769 -13 
L 359 197 
z
M 2253 306 
Q 2125 1138 1919 1759 
L 2278 1869 
Q 2525 1250 2681 481 
L 2253 306 
z
M 5003 831 
Q 4456 1244 3794 1563 
L 4056 1894 
Q 4644 1597 5278 1191 
L 5003 831 
z
M 5344 -422 
Q 4356 134 3175 594 
L 3397 947 
Q 4528 509 5600 -44 
L 5344 -422 
z
" transform="scale(0.015625)"/>
      <path id="IPAexGothic-4e86" d="M 3475 2997 
L 3475 206 
Q 3475 -94 3372 -197 
Q 3253 -325 2897 -325 
Q 2466 -325 1944 -263 
L 1850 269 
Q 2447 181 2756 181 
Q 2975 181 2975 409 
L 2975 3188 
Q 3916 3756 4544 4372 
L 1044 4372 
L 1044 4800 
L 5138 4800 
L 5428 4500 
Q 4453 3622 3475 2997 
z
" transform="scale(0.015625)"/>
      <path id="IPAexGothic-5e" d="M 3059 2344 
L 2784 2075 
L 1600 3469 
L 416 2075 
L 141 2344 
L 1600 4013 
L 3059 2344 
z
" transform="scale(0.015625)"/>
      <path id="IPAexGothic-29" d="M 466 4909 
Q 1638 3672 1638 1875 
Q 1638 75 466 -1166 
L 191 -1016 
Q 1119 216 1119 1881 
Q 1119 3509 191 4763 
L 466 4909 
z
" transform="scale(0.015625)"/>
     </defs>
     <use xlink:href="#IPAexGothic-70"/>
     <use xlink:href="#IPAexGothic-72" transform="translate(62.109375 0)"/>
     <use xlink:href="#IPAexGothic-69" transform="translate(99.121094 0)"/>
     <use xlink:href="#IPAexGothic-6e" transform="translate(126.123047 0)"/>
     <use xlink:href="#IPAexGothic-74" transform="translate(186.523438 0)"/>
     <use xlink:href="#IPAexGothic-28" transform="translate(221.142578 0)"/>
     <use xlink:href="#IPAexGothic-27" transform="translate(254.443359 0)"/>
     <use xlink:href="#IPAexGothic-7121" transform="translate(273.730469 0)"/>
     <use xlink:href="#IPAexGothic-4e8b" transform="translate(373.730469 0)"/>
     <use xlink:href="#IPAexGothic-7d42" transform="translate(473.730469 0)"/>
     <use xlink:href="#IPAexGothic-4e86" transform="translate(573.730469 0)"/>
     <use xlink:href="#IPAexGothic-28" transform="translate(673.730469 0)"/>
     <use xlink:href="#IPAexGothic-5e" transform="translate(707.03125 0)"/>
     <use xlink:href="#IPAexGothic-5e" transform="translate(757.03125 0)"/>
     <use xlink:href="#IPAexGothic-29" transform="translate(807.03125 0)"/>
     <use xlink:href="#IPAexGothic-27" transform="translate(840.332031 0)"/>
     <use xlink:href="#IPAexGothic-29" transform="translate(859.619141 0)"/>
    </g>
   </g>
   <g id="text_7">
    <!-- END -->
    <g transform="translate(279.696875 233.593437) scale(0.14 -0.14)">
     <defs>
      <path id="IPAexGothic-45" d="M 3547 63 
L 609 63 
L 609 4634 
L 3469 4634 
L 3469 4147 
L 1166 4147 
L 1166 2650 
L 3206 2650 
L 3206 2191 
L 1166 2191 
L 1166 556 
L 3547 556 
L 3547 63 
z
" transform="scale(0.015625)"/>
      <path id="IPAexGothic-4e" d="M 4244 63 
L 3731 63 
L 1697 3150 
Q 1466 3500 1141 4097 
L 1116 4097 
L 1128 3797 
Q 1159 2803 1159 2469 
L 1159 63 
L 609 63 
L 609 4634 
L 1366 4634 
L 3113 1978 
Q 3453 1447 3713 966 
L 3738 966 
Q 3694 1897 3694 2469 
L 3694 4634 
L 4244 4634 
L 4244 63 
z
" transform="scale(0.015625)"/>
      <path id="IPAexGothic-44" d="M 609 4634 
L 1984 4634 
Q 3159 4634 3791 4050 
Q 4456 3444 4456 2356 
Q 4456 1047 3516 441 
Q 2925 63 1941 63 
L 609 63 
L 609 4634 
z
M 1172 556 
L 1894 556 
Q 3853 556 3853 2356 
Q 3853 4147 1928 4147 
L 1172 4147 
L 1172 556 
z
" transform="scale(0.015625)"/>
     </defs>
     <use xlink:href="#IPAexGothic-45"/>
     <use xlink:href="#IPAexGothic-4e" transform="translate(59.521484 0)"/>
     <use xlink:href="#IPAexGothic-44" transform="translate(135.498047 0)"/>
    </g>
   </g>
   <g id="text_8">
    <!-- print(counter) -->
    <g transform="translate(67.047656 242.719219) scale(0.14 -0.14)">
     <use xlink:href="#IPAexGothic-70"/>
     <use xlink:href="#IPAexGothic-72" transform="translate(62.109375 0)"/>
     <use xlink:href="#IPAexGothic-69" transform="translate(99.121094 0)"/>
     <use xlink:href="#IPAexGothic-6e" transform="translate(126.123047 0)"/>
     <use xlink:href="#IPAexGothic-74" transform="translate(186.523438 0)"/>
     <use xlink:href="#IPAexGothic-28" transform="translate(221.142578 0)"/>
     <use xlink:href="#IPAexGothic-63" transform="translate(254.443359 0)"/>
     <use xlink:href="#IPAexGothic-6f" transform="translate(308.837891 0)"/>
     <use xlink:href="#IPAexGothic-75" transform="translate(369.238281 0)"/>
     <use xlink:href="#IPAexGothic-6e" transform="translate(429.638672 0)"/>
     <use xlink:href="#IPAexGothic-74" transform="translate(490.039062 0)"/>
     <use xlink:href="#IPAexGothic-65" transform="translate(524.658203 0)"/>
     <use xlink:href="#IPAexGothic-72" transform="translate(581.542969 0)"/>
     <use xlink:href="#IPAexGothic-29" transform="translate(618.554688 0)"/>
    </g>
   </g>
   <g id="text_9">
    <!-- counter += 1 -->
    <g transform="translate(69.505313 314.593437) scale(0.14 -0.14)">
     <defs>
      <path id="IPAexGothic-2b" d="M 2369 1856 
L 2369 219 
L 1984 219 
L 1984 1856 
L 416 1856 
L 416 2216 
L 1984 2216 
L 1984 3725 
L 2369 3725 
L 2369 2216 
L 3922 2216 
L 3922 1856 
L 2369 1856 
z
" transform="scale(0.015625)"/>
      <path id="IPAexGothic-31" d="M 2463 63 
L 1900 63 
L 1900 4103 
Q 1372 3922 788 3797 
L 684 4231 
Q 1519 4441 2106 4731 
L 2463 4731 
L 2463 63 
z
" transform="scale(0.015625)"/>
     </defs>
     <use xlink:href="#IPAexGothic-63"/>
     <use xlink:href="#IPAexGothic-6f" transform="translate(54.394531 0)"/>
     <use xlink:href="#IPAexGothic-75" transform="translate(114.794922 0)"/>
     <use xlink:href="#IPAexGothic-6e" transform="translate(175.195312 0)"/>
     <use xlink:href="#IPAexGothic-74" transform="translate(235.595703 0)"/>
     <use xlink:href="#IPAexGothic-65" transform="translate(270.214844 0)"/>
     <use xlink:href="#IPAexGothic-72" transform="translate(327.099609 0)"/>
     <use xlink:href="#IPAexGothic-20" transform="translate(364.111328 0)"/>
     <use xlink:href="#IPAexGothic-2b" transform="translate(391.113281 0)"/>
     <use xlink:href="#IPAexGothic-3d" transform="translate(458.935547 0)"/>
     <use xlink:href="#IPAexGothic-20" transform="translate(526.757812 0)"/>
     <use xlink:href="#IPAexGothic-31" transform="translate(553.759766 0)"/>
    </g>
   </g>
  </g>
 </g>
 <defs>
  <clipPath id="p2ebd5b8d78">
   <rect x="0" y="0" width="363.96" height="333.36"/>
  </clipPath>
 </defs>
</svg>