<?xml version="1.0" encoding="utf-8" standalone="no"?>
<!DOCTYPE svg PUBLIC "-//W3C//DTD SVG 1.1//EN"
  "http://www.w3.org/Graphics/SVG/1.1/DTD/svg11.dtd">
<svg xmlns:xlink="http://www.w3.org/1999/xlink" width="395.28pt" height="345.78pt" viewBox="0 0 395.28 345.78" xmlns="http://www.w3.org/2000/svg" version="1.1">
 <metadata>
  <rdf:RDF xmlns:dc="http://purl.org/dc/elements/1.1/" xmlns:cc="http://creativecommons.org/ns#" xmlns:rdf="http://www.w3.org/1999/02/22-rdf-syntax-ns#">
   <cc:Work>
    <dc:type rdf:resource="http://purl.org/dc/dcmitype/StillImage"/>
    <dc:date>2024-03-09T02:32:48.788850</dc:date>
    <dc:format>image/svg+xml</dc:format>
    <dc:creator>
     <cc:Agent>
      <dc:title>Matplotlib v3.8.3, https://matplotlib.org/</dc:title>
     </cc:Agent>
    </dc:creator>
   </cc:Work>
  </rdf:RDF>
 </metadata>
 <defs>
  <style type="text/css">*{stroke-linejoin: round; stroke-linecap: butt}</style>
 </defs>
 <g id="figure_1">
  <g id="patch_1">
   <path d="M 0 345.78 
L 395.28 345.78 
L 395.28 0 
L 0 0 
z
" style="fill: #ffffff"/>
  </g>
  <g id="axes_1">
   <g id="patch_2">
    <path d="M 114.84 54.99 
L 115.125587 54.987734 
L 115.411103 54.980938 
L 115.696474 54.969612 
L 115.981631 54.95376 
L 116.266499 54.933386 
L 116.551009 54.908495 
L 116.835088 54.879092 
L 117.118664 54.845187 
L 117.401667 54.806786 
L 117.684025 54.7639 
L 117.965667 54.71654 
L 118.246522 54.664717 
L 118.52652 54.608444 
L 118.80559 54.547736 
L 119.083661 54.482608 
L 119.360664 54.413077 
L 119.636529 54.339159 
L 119.911186 54.260874 
L 120.184567 54.17824 
L 120.456602 54.09128 
L 120.727223 54.000015 
L 120.996363 53.904467 
L 121.263952 53.804661 
L 121.529924 53.700623 
L 121.794212 53.592377 
L 122.05675 53.479952 
L 122.31747 53.363376 
L 122.576308 53.242678 
L 122.833199 53.117888 
L 123.088077 52.989038 
L 123.340879 52.856161 
L 123.591541 52.719289 
L 123.84 52.578457 
L 124.086193 52.433701 
L 124.330058 52.285058 
L 124.571535 52.132564 
L 124.810561 51.976257 
L 125.047078 51.816178 
L 125.281024 51.652367 
L 125.512343 51.484865 
L 125.740974 51.313713 
L 125.966862 51.138956 
L 126.189948 50.960636 
L 126.410177 50.7788 
L 126.627493 50.593492 
L 126.841842 50.40476 
L 127.053169 50.212651 
L 127.261422 50.017213 
L 127.466548 49.818495 
L 127.668495 49.616548 
L 127.867213 49.411422 
L 128.062651 49.203169 
L 128.25476 48.991842 
L 128.443492 48.777493 
L 128.6288 48.560177 
L 128.810636 48.339948 
L 128.988956 48.116862 
L 129.163713 47.890974 
L 129.334865 47.662343 
L 129.502367 47.431024 
L 129.666178 47.197078 
L 129.826257 46.960561 
L 129.982564 46.721535 
L 130.135058 46.480058 
L 130.283701 46.236193 
L 130.428457 45.99 
L 130.569289 45.741541 
L 130.706161 45.490879 
L 130.839038 45.238077 
L 130.967888 44.983199 
L 131.092678 44.726308 
L 131.213376 44.46747 
L 131.329952 44.20675 
L 131.442377 43.944212 
L 131.550623 43.679924 
L 131.654661 43.413952 
L 131.754467 43.146363 
L 131.850015 42.877223 
L 131.94128 42.606602 
L 132.02824 42.334567 
L 132.110874 42.061186 
L 132.189159 41.786529 
L 132.263077 41.510664 
L 132.332608 41.233661 
L 132.397736 40.95559 
L 132.458444 40.67652 
L 132.514717 40.396522 
L 132.56654 40.115667 
L 132.6139 39.834025 
L 132.656786 39.551667 
L 132.695187 39.268664 
L 132.729092 38.985088 
L 132.758495 38.701009 
L 132.783386 38.416499 
L 132.80376 38.131631 
L 132.819612 37.846474 
L 132.830938 37.561103 
L 132.837734 37.275587 
L 132.84 36.99 
L 132.84 36.99 
L 132.837734 36.704413 
L 132.830938 36.418897 
L 132.819612 36.133526 
L 132.80376 35.848369 
L 132.783386 35.563501 
L 132.758495 35.278991 
L 132.729092 34.994912 
L 132.695187 34.711336 
L 132.656786 34.428333 
L 132.6139 34.145975 
L 132.56654 33.864333 
L 132.514717 33.583478 
L 132.458444 33.30348 
L 132.397736 33.02441 
L 132.332608 32.746339 
L 132.263077 32.469336 
L 132.189159 32.193471 
L 132.110874 31.918814 
L 132.02824 31.645433 
L 131.94128 31.373398 
L 131.850015 31.102777 
L 131.754467 30.833637 
L 131.654661 30.566048 
L 131.550623 30.300076 
L 131.442377 30.035788 
L 131.329952 29.77325 
L 131.213376 29.51253 
L 131.092678 29.253692 
L 130.967888 28.996801 
L 130.839038 28.741923 
L 130.706161 28.489121 
L 130.569289 28.238459 
L 130.428457 27.99 
L 130.283701 27.743807 
L 130.135058 27.499942 
L 129.982564 27.258465 
L 129.826257 27.019439 
L 129.666178 26.782922 
L 129.502367 26.548976 
L 129.334865 26.317657 
L 129.163713 26.089026 
L 128.988956 25.863138 
L 128.810636 25.640052 
L 128.6288 25.419823 
L 128.443492 25.202507 
L 128.25476 24.988158 
L 128.062651 24.776831 
L 127.867213 24.568578 
L 127.668495 24.363452 
L 127.466548 24.161505 
L 127.261422 23.962787 
L 127.053169 23.767349 
L 126.841842 23.57524 
L 126.627493 23.386508 
L 126.410177 23.2012 
L 126.189948 23.019364 
L 125.966862 22.841044 
L 125.740974 22.666287 
L 125.512343 22.495135 
L 125.281024 22.327633 
L 125.047078 22.163822 
L 124.810561 22.003743 
L 124.571535 21.847436 
L 124.330058 21.694942 
L 124.086193 21.546299 
L 123.84 21.401543 
L 123.591541 21.260711 
L 123.340879 21.123839 
L 123.088077 20.990962 
L 122.833199 20.862112 
L 122.576308 20.737322 
L 122.31747 20.616624 
L 122.05675 20.500048 
L 121.794212 20.387623 
L 121.529924 20.279377 
L 121.263952 20.175339 
L 120.996363 20.075533 
L 120.727223 19.979985 
L 120.456602 19.88872 
L 120.184567 19.80176 
L 119.911186 19.719126 
L 119.636529 19.640841 
L 119.360664 19.566923 
L 119.083661 19.497392 
L 118.80559 19.432264 
L 118.52652 19.371556 
L 118.246522 19.315283 
L 117.965667 19.26346 
L 117.684025 19.2161 
L 117.401667 19.173214 
L 117.118664 19.134813 
L 116.835088 19.100908 
L 116.551009 19.071505 
L 116.266499 19.046614 
L 115.981631 19.02624 
L 115.696474 19.010388 
L 115.411103 18.999062 
L 115.125587 18.992266 
L 114.84 18.99 
L 78.84 18.99 
L 78.554413 18.992266 
L 78.268897 18.999062 
L 77.983526 19.010388 
L 77.698369 19.02624 
L 77.413501 19.046614 
L 77.128991 19.071505 
L 76.844912 19.100908 
L 76.561336 19.134813 
L 76.278333 19.173214 
L 75.995975 19.2161 
L 75.714333 19.26346 
L 75.433478 19.315283 
L 75.15348 19.371556 
L 74.87441 19.432264 
L 74.596339 19.497392 
L 74.319336 19.566923 
L 74.043471 19.640841 
L 73.768814 19.719126 
L 73.495433 19.80176 
L 73.223398 19.88872 
L 72.952777 19.979985 
L 72.683637 20.075533 
L 72.416048 20.175339 
L 72.150076 20.279377 
L 71.885788 20.387623 
L 71.62325 20.500048 
L 71.36253 20.616624 
L 71.103692 20.737322 
L 70.846801 20.862112 
L 70.591923 20.990962 
L 70.339121 21.123839 
L 70.088459 21.260711 
L 69.84 21.401543 
L 69.593807 21.546299 
L 69.349942 21.694942 
L 69.108465 21.847436 
L 68.869439 22.003743 
L 68.632922 22.163822 
L 68.398976 22.327633 
L 68.167657 22.495135 
L 67.939026 22.666287 
L 67.713138 22.841044 
L 67.490052 23.019364 
L 67.269823 23.2012 
L 67.052507 23.386508 
L 66.838158 23.57524 
L 66.626831 23.767349 
L 66.418578 23.962787 
L 66.213452 24.161505 
L 66.011505 24.363452 
L 65.812787 24.568578 
L 65.617349 24.776831 
L 65.42524 24.988158 
L 65.236508 25.202507 
L 65.0512 25.419823 
L 64.869364 25.640052 
L 64.691044 25.863138 
L 64.516287 26.089026 
L 64.345135 26.317657 
L 64.177633 26.548976 
L 64.013822 26.782922 
L 63.853743 27.019439 
L 63.697436 27.258465 
L 63.544942 27.499942 
L 63.396299 27.743807 
L 63.251543 27.99 
L 63.110711 28.238459 
L 62.973839 28.489121 
L 62.840962 28.741923 
L 62.712112 28.996801 
L 62.587322 29.253692 
L 62.466624 29.51253 
L 62.350048 29.77325 
L 62.237623 30.035788 
L 62.129377 30.300076 
L 62.025339 30.566048 
L 61.925533 30.833637 
L 61.829985 31.102777 
L 61.73872 31.373398 
L 61.65176 31.645433 
L 61.569126 31.918814 
L 61.490841 32.193471 
L 61.416923 32.469336 
L 61.347392 32.746339 
L 61.282264 33.02441 
L 61.221556 33.30348 
L 61.165283 33.583478 
L 61.11346 33.864333 
L 61.0661 34.145975 
L 61.023214 34.428333 
L 60.984813 34.711336 
L 60.950908 34.994912 
L 60.921505 35.278991 
L 60.896614 35.563501 
L 60.87624 35.848369 
L 60.860388 36.133526 
L 60.849062 36.418897 
L 60.842266 36.704413 
L 60.84 36.99 
L 60.84 36.99 
L 60.842266 37.275587 
L 60.849062 37.561103 
L 60.860388 37.846474 
L 60.87624 38.131631 
L 60.896614 38.416499 
L 60.921505 38.701009 
L 60.950908 38.985088 
L 60.984813 39.268664 
L 61.023214 39.551667 
L 61.0661 39.834025 
L 61.11346 40.115667 
L 61.165283 40.396522 
L 61.221556 40.67652 
L 61.282264 40.95559 
L 61.347392 41.233661 
L 61.416923 41.510664 
L 61.490841 41.786529 
L 61.569126 42.061186 
L 61.65176 42.334567 
L 61.73872 42.606602 
L 61.829985 42.877223 
L 61.925533 43.146363 
L 62.025339 43.413952 
L 62.129377 43.679924 
L 62.237623 43.944212 
L 62.350048 44.20675 
L 62.466624 44.46747 
L 62.587322 44.726308 
L 62.712112 44.983199 
L 62.840962 45.238077 
L 62.973839 45.490879 
L 63.110711 45.741541 
L 63.251543 45.99 
L 63.396299 46.236193 
L 63.544942 46.480058 
L 63.697436 46.721535 
L 63.853743 46.960561 
L 64.013822 47.197078 
L 64.177633 47.431024 
L 64.345135 47.662343 
L 64.516287 47.890974 
L 64.691044 48.116862 
L 64.869364 48.339948 
L 65.0512 48.560177 
L 65.236508 48.777493 
L 65.42524 48.991842 
L 65.617349 49.203169 
L 65.812787 49.411422 
L 66.011505 49.616548 
L 66.213452 49.818495 
L 66.418578 50.017213 
L 66.626831 50.212651 
L 66.838158 50.40476 
L 67.052507 50.593492 
L 67.269823 50.7788 
L 67.490052 50.960636 
L 67.713138 51.138956 
L 67.939026 51.313713 
L 68.167657 51.484865 
L 68.398976 51.652367 
L 68.632922 51.816178 
L 68.869439 51.976257 
L 69.108465 52.132564 
L 69.349942 52.285058 
L 69.593807 52.433701 
L 69.84 52.578457 
L 70.088459 52.719289 
L 70.339121 52.856161 
L 70.591923 52.989038 
L 70.846801 53.117888 
L 71.103692 53.242678 
L 71.36253 53.363376 
L 71.62325 53.479952 
L 71.885788 53.592377 
L 72.150076 53.700623 
L 72.416048 53.804661 
L 72.683637 53.904467 
L 72.952777 54.000015 
L 73.223398 54.09128 
L 73.495433 54.17824 
L 73.768814 54.260874 
L 74.043471 54.339159 
L 74.319336 54.413077 
L 74.596339 54.482608 
L 74.87441 54.547736 
L 75.15348 54.608444 
L 75.433478 54.664717 
L 75.714333 54.71654 
L 75.995975 54.7639 
L 76.278333 54.806786 
L 76.561336 54.845187 
L 76.844912 54.879092 
L 77.128991 54.908495 
L 77.413501 54.933386 
L 77.698369 54.95376 
L 77.983526 54.969612 
L 78.268897 54.980938 
L 78.554413 54.987734 
L 78.84 54.99 
L 114.84 54.99 
z
" clip-path="url(#p017a85f0c5)" style="fill: none; stroke: #000000; stroke-linecap: round"/>
   </g>
   <g id="patch_3">
    <path d="M 42.84 168.39 
L 96.84 144.99 
L 150.84 168.39 
L 96.84 191.79 
L 42.84 168.39 
z
" clip-path="url(#p017a85f0c5)" style="fill: none; stroke: #000000; stroke-linecap: round"/>
   </g>
   <g id="patch_4">
    <path d="M 316.44 249.39 
L 316.725587 249.387734 
L 317.011103 249.380938 
L 317.296474 249.369612 
L 317.581631 249.35376 
L 317.866499 249.333386 
L 318.151009 249.308495 
L 318.435088 249.279092 
L 318.718664 249.245187 
L 319.001667 249.206786 
L 319.284025 249.1639 
L 319.565667 249.11654 
L 319.846522 249.064717 
L 320.12652 249.008444 
L 320.40559 248.947736 
L 320.683661 248.882608 
L 320.960664 248.813077 
L 321.236529 248.739159 
L 321.511186 248.660874 
L 321.784567 248.57824 
L 322.056602 248.49128 
L 322.327223 248.400015 
L 322.596363 248.304467 
L 322.863952 248.204661 
L 323.129924 248.100623 
L 323.394212 247.992377 
L 323.65675 247.879952 
L 323.91747 247.763376 
L 324.176308 247.642678 
L 324.433199 247.517888 
L 324.688077 247.389038 
L 324.940879 247.256161 
L 325.191541 247.119289 
L 325.44 246.978457 
L 325.686193 246.833701 
L 325.930058 246.685058 
L 326.171535 246.532564 
L 326.410561 246.376257 
L 326.647078 246.216178 
L 326.881024 246.052367 
L 327.112343 245.884865 
L 327.340974 245.713713 
L 327.566862 245.538956 
L 327.789948 245.360636 
L 328.010177 245.1788 
L 328.227493 244.993492 
L 328.441842 244.80476 
L 328.653169 244.612651 
L 328.861422 244.417213 
L 329.066548 244.218495 
L 329.268495 244.016548 
L 329.467213 243.811422 
L 329.662651 243.603169 
L 329.85476 243.391842 
L 330.043492 243.177493 
L 330.2288 242.960177 
L 330.410636 242.739948 
L 330.588956 242.516862 
L 330.763713 242.290974 
L 330.934865 242.062343 
L 331.102367 241.831024 
L 331.266178 241.597078 
L 331.426257 241.360561 
L 331.582564 241.121535 
L 331.735058 240.880058 
L 331.883701 240.636193 
L 332.028457 240.39 
L 332.169289 240.141541 
L 332.306161 239.890879 
L 332.439038 239.638077 
L 332.567888 239.383199 
L 332.692678 239.126308 
L 332.813376 238.86747 
L 332.929952 238.60675 
L 333.042377 238.344212 
L 333.150623 238.079924 
L 333.254661 237.813952 
L 333.354467 237.546363 
L 333.450015 237.277223 
L 333.54128 237.006602 
L 333.62824 236.734567 
L 333.710874 236.461186 
L 333.789159 236.186529 
L 333.863077 235.910664 
L 333.932608 235.633661 
L 333.997736 235.35559 
L 334.058444 235.07652 
L 334.114717 234.796522 
L 334.16654 234.515667 
L 334.2139 234.234025 
L 334.256786 233.951667 
L 334.295187 233.668664 
L 334.329092 233.385088 
L 334.358495 233.101009 
L 334.383386 232.816499 
L 334.40376 232.531631 
L 334.419612 232.246474 
L 334.430938 231.961103 
L 334.437734 231.675587 
L 334.44 231.39 
L 334.44 231.39 
L 334.437734 231.104413 
L 334.430938 230.818897 
L 334.419612 230.533526 
L 334.40376 230.248369 
L 334.383386 229.963501 
L 334.358495 229.678991 
L 334.329092 229.394912 
L 334.295187 229.111336 
L 334.256786 228.828333 
L 334.2139 228.545975 
L 334.16654 228.264333 
L 334.114717 227.983478 
L 334.058444 227.70348 
L 333.997736 227.42441 
L 333.932608 227.146339 
L 333.863077 226.869336 
L 333.789159 226.593471 
L 333.710874 226.318814 
L 333.62824 226.045433 
L 333.54128 225.773398 
L 333.450015 225.502777 
L 333.354467 225.233637 
L 333.254661 224.966048 
L 333.150623 224.700076 
L 333.042377 224.435788 
L 332.929952 224.17325 
L 332.813376 223.91253 
L 332.692678 223.653692 
L 332.567888 223.396801 
L 332.439038 223.141923 
L 332.306161 222.889121 
L 332.169289 222.638459 
L 332.028457 222.39 
L 331.883701 222.143807 
L 331.735058 221.899942 
L 331.582564 221.658465 
L 331.426257 221.419439 
L 331.266178 221.182922 
L 331.102367 220.948976 
L 330.934865 220.717657 
L 330.763713 220.489026 
L 330.588956 220.263138 
L 330.410636 220.040052 
L 330.2288 219.819823 
L 330.043492 219.602507 
L 329.85476 219.388158 
L 329.662651 219.176831 
L 329.467213 218.968578 
L 329.268495 218.763452 
L 329.066548 218.561505 
L 328.861422 218.362787 
L 328.653169 218.167349 
L 328.441842 217.97524 
L 328.227493 217.786508 
L 328.010177 217.6012 
L 327.789948 217.419364 
L 327.566862 217.241044 
L 327.340974 217.066287 
L 327.112343 216.895135 
L 326.881024 216.727633 
L 326.647078 216.563822 
L 326.410561 216.403743 
L 326.171535 216.247436 
L 325.930058 216.094942 
L 325.686193 215.946299 
L 325.44 215.801543 
L 325.191541 215.660711 
L 324.940879 215.523839 
L 324.688077 215.390962 
L 324.433199 215.262112 
L 324.176308 215.137322 
L 323.91747 215.016624 
L 323.65675 214.900048 
L 323.394212 214.787623 
L 323.129924 214.679377 
L 322.863952 214.575339 
L 322.596363 214.475533 
L 322.327223 214.379985 
L 322.056602 214.28872 
L 321.784567 214.20176 
L 321.511186 214.119126 
L 321.236529 214.040841 
L 320.960664 213.966923 
L 320.683661 213.897392 
L 320.40559 213.832264 
L 320.12652 213.771556 
L 319.846522 213.715283 
L 319.565667 213.66346 
L 319.284025 213.6161 
L 319.001667 213.573214 
L 318.718664 213.534813 
L 318.435088 213.500908 
L 318.151009 213.471505 
L 317.866499 213.446614 
L 317.581631 213.42624 
L 317.296474 213.410388 
L 317.011103 213.399062 
L 316.725587 213.392266 
L 316.44 213.39 
L 280.44 213.39 
L 280.154413 213.392266 
L 279.868897 213.399062 
L 279.583526 213.410388 
L 279.298369 213.42624 
L 279.013501 213.446614 
L 278.728991 213.471505 
L 278.444912 213.500908 
L 278.161336 213.534813 
L 277.878333 213.573214 
L 277.595975 213.6161 
L 277.314333 213.66346 
L 277.033478 213.715283 
L 276.75348 213.771556 
L 276.47441 213.832264 
L 276.196339 213.897392 
L 275.919336 213.966923 
L 275.643471 214.040841 
L 275.368814 214.119126 
L 275.095433 214.20176 
L 274.823398 214.28872 
L 274.552777 214.379985 
L 274.283637 214.475533 
L 274.016048 214.575339 
L 273.750076 214.679377 
L 273.485788 214.787623 
L 273.22325 214.900048 
L 272.96253 215.016624 
L 272.703692 215.137322 
L 272.446801 215.262112 
L 272.191923 215.390962 
L 271.939121 215.523839 
L 271.688459 215.660711 
L 271.44 215.801543 
L 271.193807 215.946299 
L 270.949942 216.094942 
L 270.708465 216.247436 
L 270.469439 216.403743 
L 270.232922 216.563822 
L 269.998976 216.727633 
L 269.767657 216.895135 
L 269.539026 217.066287 
L 269.313138 217.241044 
L 269.090052 217.419364 
L 268.869823 217.6012 
L 268.652507 217.786508 
L 268.438158 217.97524 
L 268.226831 218.167349 
L 268.018578 218.362787 
L 267.813452 218.561505 
L 267.611505 218.763452 
L 267.412787 218.968578 
L 267.217349 219.176831 
L 267.02524 219.388158 
L 266.836508 219.602507 
L 266.6512 219.819823 
L 266.469364 220.040052 
L 266.291044 220.263138 
L 266.116287 220.489026 
L 265.945135 220.717657 
L 265.777633 220.948976 
L 265.613822 221.182922 
L 265.453743 221.419439 
L 265.297436 221.658465 
L 265.144942 221.899942 
L 264.996299 222.143807 
L 264.851543 222.39 
L 264.710711 222.638459 
L 264.573839 222.889121 
L 264.440962 223.141923 
L 264.312112 223.396801 
L 264.187322 223.653692 
L 264.066624 223.91253 
L 263.950048 224.17325 
L 263.837623 224.435788 
L 263.729377 224.700076 
L 263.625339 224.966048 
L 263.525533 225.233637 
L 263.429985 225.502777 
L 263.33872 225.773398 
L 263.25176 226.045433 
L 263.169126 226.318814 
L 263.090841 226.593471 
L 263.016923 226.869336 
L 262.947392 227.146339 
L 262.882264 227.42441 
L 262.821556 227.70348 
L 262.765283 227.983478 
L 262.71346 228.264333 
L 262.6661 228.545975 
L 262.623214 228.828333 
L 262.584813 229.111336 
L 262.550908 229.394912 
L 262.521505 229.678991 
L 262.496614 229.963501 
L 262.47624 230.248369 
L 262.460388 230.533526 
L 262.449062 230.818897 
L 262.442266 231.104413 
L 262.44 231.39 
L 262.44 231.39 
L 262.442266 231.675587 
L 262.449062 231.961103 
L 262.460388 232.246474 
L 262.47624 232.531631 
L 262.496614 232.816499 
L 262.521505 233.101009 
L 262.550908 233.385088 
L 262.584813 233.668664 
L 262.623214 233.951667 
L 262.6661 234.234025 
L 262.71346 234.515667 
L 262.765283 234.796522 
L 262.821556 235.07652 
L 262.882264 235.35559 
L 262.947392 235.633661 
L 263.016923 235.910664 
L 263.090841 236.186529 
L 263.169126 236.461186 
L 263.25176 236.734567 
L 263.33872 237.006602 
L 263.429985 237.277223 
L 263.525533 237.546363 
L 263.625339 237.813952 
L 263.729377 238.079924 
L 263.837623 238.344212 
L 263.950048 238.60675 
L 264.066624 238.86747 
L 264.187322 239.126308 
L 264.312112 239.383199 
L 264.440962 239.638077 
L 264.573839 239.890879 
L 264.710711 240.141541 
L 264.851543 240.39 
L 264.996299 240.636193 
L 265.144942 240.880058 
L 265.297436 241.121535 
L 265.453743 241.360561 
L 265.613822 241.597078 
L 265.777633 241.831024 
L 265.945135 242.062343 
L 266.116287 242.290974 
L 266.291044 242.516862 
L 266.469364 242.739948 
L 266.6512 242.960177 
L 266.836508 243.177493 
L 267.02524 243.391842 
L 267.217349 243.603169 
L 267.412787 243.811422 
L 267.611505 244.016548 
L 267.813452 244.218495 
L 268.018578 244.417213 
L 268.226831 244.612651 
L 268.438158 244.80476 
L 268.652507 244.993492 
L 268.869823 245.1788 
L 269.090052 245.360636 
L 269.313138 245.538956 
L 269.539026 245.713713 
L 269.767657 245.884865 
L 269.998976 246.052367 
L 270.232922 246.216178 
L 270.469439 246.376257 
L 270.708465 246.532564 
L 270.949942 246.685058 
L 271.193807 246.833701 
L 271.44 246.978457 
L 271.688459 247.119289 
L 271.939121 247.256161 
L 272.191923 247.389038 
L 272.446801 247.517888 
L 272.703692 247.642678 
L 272.96253 247.763376 
L 273.22325 247.879952 
L 273.485788 247.992377 
L 273.750076 248.100623 
L 274.016048 248.204661 
L 274.283637 248.304467 
L 274.552777 248.400015 
L 274.823398 248.49128 
L 275.095433 248.57824 
L 275.368814 248.660874 
L 275.643471 248.739159 
L 275.919336 248.813077 
L 276.196339 248.882608 
L 276.47441 248.947736 
L 276.75348 249.008444 
L 277.033478 249.064717 
L 277.314333 249.11654 
L 277.595975 249.1639 
L 277.878333 249.206786 
L 278.161336 249.245187 
L 278.444912 249.279092 
L 278.728991 249.308495 
L 279.013501 249.333386 
L 279.298369 249.35376 
L 279.583526 249.369612 
L 279.868897 249.380938 
L 280.154413 249.387734 
L 280.44 249.39 
L 316.44 249.39 
z
" clip-path="url(#p017a85f0c5)" style="fill: none; stroke: #000000; stroke-linecap: round"/>
   </g>
   <g id="patch_5">
    <path d="M 114.84 326.79 
L 115.125587 326.787734 
L 115.411103 326.780938 
L 115.696474 326.769612 
L 115.981631 326.75376 
L 116.266499 326.733386 
L 116.551009 326.708495 
L 116.835088 326.679092 
L 117.118664 326.645187 
L 117.401667 326.606786 
L 117.684025 326.5639 
L 117.965667 326.51654 
L 118.246522 326.464717 
L 118.52652 326.408444 
L 118.80559 326.347736 
L 119.083661 326.282608 
L 119.360664 326.213077 
L 119.636529 326.139159 
L 119.911186 326.060874 
L 120.184567 325.97824 
L 120.456602 325.89128 
L 120.727223 325.800015 
L 120.996363 325.704467 
L 121.263952 325.604661 
L 121.529924 325.500623 
L 121.794212 325.392377 
L 122.05675 325.279952 
L 122.31747 325.163376 
L 122.576308 325.042678 
L 122.833199 324.917888 
L 123.088077 324.789038 
L 123.340879 324.656161 
L 123.591541 324.519289 
L 123.84 324.378457 
L 124.086193 324.233701 
L 124.330058 324.085058 
L 124.571535 323.932564 
L 124.810561 323.776257 
L 125.047078 323.616178 
L 125.281024 323.452367 
L 125.512343 323.284865 
L 125.740974 323.113713 
L 125.966862 322.938956 
L 126.189948 322.760636 
L 126.410177 322.5788 
L 126.627493 322.393492 
L 126.841842 322.20476 
L 127.053169 322.012651 
L 127.261422 321.817213 
L 127.466548 321.618495 
L 127.668495 321.416548 
L 127.867213 321.211422 
L 128.062651 321.003169 
L 128.25476 320.791842 
L 128.443492 320.577493 
L 128.6288 320.360177 
L 128.810636 320.139948 
L 128.988956 319.916862 
L 129.163713 319.690974 
L 129.334865 319.462343 
L 129.502367 319.231024 
L 129.666178 318.997078 
L 129.826257 318.760561 
L 129.982564 318.521535 
L 130.135058 318.280058 
L 130.283701 318.036193 
L 130.428457 317.79 
L 130.569289 317.541541 
L 130.706161 317.290879 
L 130.839038 317.038077 
L 130.967888 316.783199 
L 131.092678 316.526308 
L 131.213376 316.26747 
L 131.329952 316.00675 
L 131.442377 315.744212 
L 131.550623 315.479924 
L 131.654661 315.213952 
L 131.754467 314.946363 
L 131.850015 314.677223 
L 131.94128 314.406602 
L 132.02824 314.134567 
L 132.110874 313.861186 
L 132.189159 313.586529 
L 132.263077 313.310664 
L 132.332608 313.033661 
L 132.397736 312.75559 
L 132.458444 312.47652 
L 132.514717 312.196522 
L 132.56654 311.915667 
L 132.6139 311.634025 
L 132.656786 311.351667 
L 132.695187 311.068664 
L 132.729092 310.785088 
L 132.758495 310.501009 
L 132.783386 310.216499 
L 132.80376 309.931631 
L 132.819612 309.646474 
L 132.830938 309.361103 
L 132.837734 309.075587 
L 132.84 308.79 
L 132.84 308.79 
L 132.837734 308.504413 
L 132.830938 308.218897 
L 132.819612 307.933526 
L 132.80376 307.648369 
L 132.783386 307.363501 
L 132.758495 307.078991 
L 132.729092 306.794912 
L 132.695187 306.511336 
L 132.656786 306.228333 
L 132.6139 305.945975 
L 132.56654 305.664333 
L 132.514717 305.383478 
L 132.458444 305.10348 
L 132.397736 304.82441 
L 132.332608 304.546339 
L 132.263077 304.269336 
L 132.189159 303.993471 
L 132.110874 303.718814 
L 132.02824 303.445433 
L 131.94128 303.173398 
L 131.850015 302.902777 
L 131.754467 302.633637 
L 131.654661 302.366048 
L 131.550623 302.100076 
L 131.442377 301.835788 
L 131.329952 301.57325 
L 131.213376 301.31253 
L 131.092678 301.053692 
L 130.967888 300.796801 
L 130.839038 300.541923 
L 130.706161 300.289121 
L 130.569289 300.038459 
L 130.428457 299.79 
L 130.283701 299.543807 
L 130.135058 299.299942 
L 129.982564 299.058465 
L 129.826257 298.819439 
L 129.666178 298.582922 
L 129.502367 298.348976 
L 129.334865 298.117657 
L 129.163713 297.889026 
L 128.988956 297.663138 
L 128.810636 297.440052 
L 128.6288 297.219823 
L 128.443492 297.002507 
L 128.25476 296.788158 
L 128.062651 296.576831 
L 127.867213 296.368578 
L 127.668495 296.163452 
L 127.466548 295.961505 
L 127.261422 295.762787 
L 127.053169 295.567349 
L 126.841842 295.37524 
L 126.627493 295.186508 
L 126.410177 295.0012 
L 126.189948 294.819364 
L 125.966862 294.641044 
L 125.740974 294.466287 
L 125.512343 294.295135 
L 125.281024 294.127633 
L 125.047078 293.963822 
L 124.810561 293.803743 
L 124.571535 293.647436 
L 124.330058 293.494942 
L 124.086193 293.346299 
L 123.84 293.201543 
L 123.591541 293.060711 
L 123.340879 292.923839 
L 123.088077 292.790962 
L 122.833199 292.662112 
L 122.576308 292.537322 
L 122.31747 292.416624 
L 122.05675 292.300048 
L 121.794212 292.187623 
L 121.529924 292.079377 
L 121.263952 291.975339 
L 120.996363 291.875533 
L 120.727223 291.779985 
L 120.456602 291.68872 
L 120.184567 291.60176 
L 119.911186 291.519126 
L 119.636529 291.440841 
L 119.360664 291.366923 
L 119.083661 291.297392 
L 118.80559 291.232264 
L 118.52652 291.171556 
L 118.246522 291.115283 
L 117.965667 291.06346 
L 117.684025 291.0161 
L 117.401667 290.973214 
L 117.118664 290.934813 
L 116.835088 290.900908 
L 116.551009 290.871505 
L 116.266499 290.846614 
L 115.981631 290.82624 
L 115.696474 290.810388 
L 115.411103 290.799062 
L 115.125587 290.792266 
L 114.84 290.79 
L 78.84 290.79 
L 78.554413 290.792266 
L 78.268897 290.799062 
L 77.983526 290.810388 
L 77.698369 290.82624 
L 77.413501 290.846614 
L 77.128991 290.871505 
L 76.844912 290.900908 
L 76.561336 290.934813 
L 76.278333 290.973214 
L 75.995975 291.0161 
L 75.714333 291.06346 
L 75.433478 291.115283 
L 75.15348 291.171556 
L 74.87441 291.232264 
L 74.596339 291.297392 
L 74.319336 291.366923 
L 74.043471 291.440841 
L 73.768814 291.519126 
L 73.495433 291.60176 
L 73.223398 291.68872 
L 72.952777 291.779985 
L 72.683637 291.875533 
L 72.416048 291.975339 
L 72.150076 292.079377 
L 71.885788 292.187623 
L 71.62325 292.300048 
L 71.36253 292.416624 
L 71.103692 292.537322 
L 70.846801 292.662112 
L 70.591923 292.790962 
L 70.339121 292.923839 
L 70.088459 293.060711 
L 69.84 293.201543 
L 69.593807 293.346299 
L 69.349942 293.494942 
L 69.108465 293.647436 
L 68.869439 293.803743 
L 68.632922 293.963822 
L 68.398976 294.127633 
L 68.167657 294.295135 
L 67.939026 294.466287 
L 67.713138 294.641044 
L 67.490052 294.819364 
L 67.269823 295.0012 
L 67.052507 295.186508 
L 66.838158 295.37524 
L 66.626831 295.567349 
L 66.418578 295.762787 
L 66.213452 295.961505 
L 66.011505 296.163452 
L 65.812787 296.368578 
L 65.617349 296.576831 
L 65.42524 296.788158 
L 65.236508 297.002507 
L 65.0512 297.219823 
L 64.869364 297.440052 
L 64.691044 297.663138 
L 64.516287 297.889026 
L 64.345135 298.117657 
L 64.177633 298.348976 
L 64.013822 298.582922 
L 63.853743 298.819439 
L 63.697436 299.058465 
L 63.544942 299.299942 
L 63.396299 299.543807 
L 63.251543 299.79 
L 63.110711 300.038459 
L 62.973839 300.289121 
L 62.840962 300.541923 
L 62.712112 300.796801 
L 62.587322 301.053692 
L 62.466624 301.31253 
L 62.350048 301.57325 
L 62.237623 301.835788 
L 62.129377 302.100076 
L 62.025339 302.366048 
L 61.925533 302.633637 
L 61.829985 302.902777 
L 61.73872 303.173398 
L 61.65176 303.445433 
L 61.569126 303.718814 
L 61.490841 303.993471 
L 61.416923 304.269336 
L 61.347392 304.546339 
L 61.282264 304.82441 
L 61.221556 305.10348 
L 61.165283 305.383478 
L 61.11346 305.664333 
L 61.0661 305.945975 
L 61.023214 306.228333 
L 60.984813 306.511336 
L 60.950908 306.794912 
L 60.921505 307.078991 
L 60.896614 307.363501 
L 60.87624 307.648369 
L 60.860388 307.933526 
L 60.849062 308.218897 
L 60.842266 308.504413 
L 60.84 308.79 
L 60.84 308.79 
L 60.842266 309.075587 
L 60.849062 309.361103 
L 60.860388 309.646474 
L 60.87624 309.931631 
L 60.896614 310.216499 
L 60.921505 310.501009 
L 60.950908 310.785088 
L 60.984813 311.068664 
L 61.023214 311.351667 
L 61.0661 311.634025 
L 61.11346 311.915667 
L 61.165283 312.196522 
L 61.221556 312.47652 
L 61.282264 312.75559 
L 61.347392 313.033661 
L 61.416923 313.310664 
L 61.490841 313.586529 
L 61.569126 313.861186 
L 61.65176 314.134567 
L 61.73872 314.406602 
L 61.829985 314.677223 
L 61.925533 314.946363 
L 62.025339 315.213952 
L 62.129377 315.479924 
L 62.237623 315.744212 
L 62.350048 316.00675 
L 62.466624 316.26747 
L 62.587322 316.526308 
L 62.712112 316.783199 
L 62.840962 317.038077 
L 62.973839 317.290879 
L 63.110711 317.541541 
L 63.251543 317.79 
L 63.396299 318.036193 
L 63.544942 318.280058 
L 63.697436 318.521535 
L 63.853743 318.760561 
L 64.013822 318.997078 
L 64.177633 319.231024 
L 64.345135 319.462343 
L 64.516287 319.690974 
L 64.691044 319.916862 
L 64.869364 320.139948 
L 65.0512 320.360177 
L 65.236508 320.577493 
L 65.42524 320.791842 
L 65.617349 321.003169 
L 65.812787 321.211422 
L 66.011505 321.416548 
L 66.213452 321.618495 
L 66.418578 321.817213 
L 66.626831 322.012651 
L 66.838158 322.20476 
L 67.052507 322.393492 
L 67.269823 322.5788 
L 67.490052 322.760636 
L 67.713138 322.938956 
L 67.939026 323.113713 
L 68.167657 323.284865 
L 68.398976 323.452367 
L 68.632922 323.616178 
L 68.869439 323.776257 
L 69.108465 323.932564 
L 69.349942 324.085058 
L 69.593807 324.233701 
L 69.84 324.378457 
L 70.088459 324.519289 
L 70.339121 324.656161 
L 70.591923 324.789038 
L 70.846801 324.917888 
L 71.103692 325.042678 
L 71.36253 325.163376 
L 71.62325 325.279952 
L 71.885788 325.392377 
L 72.150076 325.500623 
L 72.416048 325.604661 
L 72.683637 325.704467 
L 72.952777 325.800015 
L 73.223398 325.89128 
L 73.495433 325.97824 
L 73.768814 326.060874 
L 74.043471 326.139159 
L 74.319336 326.213077 
L 74.596339 326.282608 
L 74.87441 326.347736 
L 75.15348 326.408444 
L 75.433478 326.464717 
L 75.714333 326.51654 
L 75.995975 326.5639 
L 76.278333 326.606786 
L 76.561336 326.645187 
L 76.844912 326.679092 
L 77.128991 326.708495 
L 77.413501 326.733386 
L 77.698369 326.75376 
L 77.983526 326.769612 
L 78.268897 326.780938 
L 78.554413 326.787734 
L 78.84 326.79 
L 114.84 326.79 
z
" clip-path="url(#p017a85f0c5)" style="fill: none; stroke: #000000; stroke-linecap: round"/>
   </g>
   <g id="line2d_1">
    <path d="M 96.84 54.99 
L 96.84 68.49 
L 96.84 72.99 
" clip-path="url(#p017a85f0c5)" style="fill: none; stroke: #000000; stroke-linecap: round"/>
   </g>
   <g id="patch_6">
    <path d="M 99.54 72.99 
L 96.84 81.99 
L 94.14 72.99 
z
" clip-path="url(#p017a85f0c5)"/>
   </g>
   <g id="line2d_2">
    <path d="M 60.84 99.99 
L 60.84 81.99 
L 132.84 81.99 
L 132.84 117.99 
L 60.84 117.99 
L 60.84 99.99 
" clip-path="url(#p017a85f0c5)" style="fill: none; stroke: #000000; stroke-linecap: round"/>
   </g>
   <g id="line2d_3">
    <path d="M 96.84 117.99 
L 96.84 131.49 
L 96.84 135.99 
" clip-path="url(#p017a85f0c5)" style="fill: none; stroke: #000000; stroke-linecap: round"/>
   </g>
   <g id="patch_7">
    <path d="M 99.54 135.99 
L 96.84 144.99 
L 94.14 135.99 
z
" clip-path="url(#p017a85f0c5)"/>
   </g>
   <g id="line2d_4">
    <path d="M 150.84 168.39 
L 186.84 168.39 
L 213.84 168.39 
" clip-path="url(#p017a85f0c5)" style="fill: none; stroke: #000000; stroke-linecap: round"/>
   </g>
   <g id="patch_8">
    <path d="M 213.84 165.69 
L 222.84 168.39 
L 213.84 171.09 
z
" clip-path="url(#p017a85f0c5)"/>
   </g>
   <g id="line2d_5">
    <path d="M 222.84 168.39 
L 222.84 150.39 
L 374.04 150.39 
L 374.04 186.39 
L 222.84 186.39 
L 222.84 168.39 
" clip-path="url(#p017a85f0c5)" style="fill: none; stroke: #000000; stroke-linecap: round"/>
   </g>
   <g id="line2d_6">
    <path d="M 298.44 186.39 
L 298.44 199.89 
L 298.44 204.39 
" clip-path="url(#p017a85f0c5)" style="fill: none; stroke: #000000; stroke-linecap: round"/>
   </g>
   <g id="patch_9">
    <path d="M 301.14 204.39 
L 298.44 213.39 
L 295.74 204.39 
z
" clip-path="url(#p017a85f0c5)"/>
   </g>
   <g id="line2d_7">
    <path d="M 96.84 191.79 
L 96.84 209.79 
L 96.84 218.79 
" clip-path="url(#p017a85f0c5)" style="fill: none; stroke: #000000; stroke-linecap: round"/>
   </g>
   <g id="patch_10">
    <path d="M 99.54 218.79 
L 96.84 227.79 
L 94.14 218.79 
z
" clip-path="url(#p017a85f0c5)"/>
   </g>
   <g id="line2d_8">
    <path d="M 21.24 245.79 
L 21.24 227.79 
L 172.44 227.79 
L 172.44 263.79 
L 21.24 263.79 
L 21.24 245.79 
" clip-path="url(#p017a85f0c5)" style="fill: none; stroke: #000000; stroke-linecap: round"/>
   </g>
   <g id="line2d_9">
    <path d="M 96.84 263.79 
L 96.84 277.29 
L 96.84 281.79 
" clip-path="url(#p017a85f0c5)" style="fill: none; stroke: #000000; stroke-linecap: round"/>
   </g>
   <g id="patch_11">
    <path d="M 99.54 281.79 
L 96.84 290.79 
L 94.14 281.79 
z
" clip-path="url(#p017a85f0c5)"/>
   </g>
   <g id="text_1">
    <!-- START -->
    <g transform="translate(77.663242 40.484141) scale(0.125 -0.125)">
     <defs>
      <path id="IPAexGothic-53" d="M 2919 3641 
Q 2563 4259 1853 4259 
Q 1453 4259 1213 4009 
Q 1028 3803 1028 3534 
Q 1028 3238 1266 3047 
Q 1444 2913 1984 2688 
L 2200 2597 
Q 2925 2306 3191 1953 
Q 3422 1644 3422 1259 
Q 3422 644 2969 288 
Q 2559 -31 1931 -31 
Q 881 -31 313 766 
L 753 1100 
Q 1203 459 1938 459 
Q 2288 459 2534 625 
Q 2841 847 2841 1216 
Q 2841 1503 2616 1728 
Q 2375 1959 1728 2206 
L 1541 2278 
Q 453 2694 453 3481 
Q 453 4006 806 4347 
Q 1203 4725 1863 4725 
Q 2841 4725 3359 3956 
L 2919 3641 
z
" transform="scale(0.015625)"/>
      <path id="IPAexGothic-54" d="M 3866 4141 
L 2175 4141 
L 2175 63 
L 1606 63 
L 1606 4141 
L -31 4141 
L -31 4634 
L 3866 4634 
L 3866 4141 
z
" transform="scale(0.015625)"/>
      <path id="IPAexGothic-41" d="M 4056 63 
L 3444 63 
L 2938 1409 
L 1100 1409 
L 603 63 
L -6 63 
L 1806 4666 
L 2259 4666 
L 4056 63 
z
M 2778 1863 
L 2316 3078 
Q 2125 3588 2028 4000 
L 2009 4000 
Q 1897 3563 1716 3078 
L 1263 1863 
L 2778 1863 
z
" transform="scale(0.015625)"/>
      <path id="IPAexGothic-52" d="M 4072 63 
L 3394 63 
Q 3138 641 2828 1197 
Q 2584 1641 2344 1825 
Q 2050 2044 1625 2044 
L 1172 2044 
L 1172 63 
L 609 63 
L 609 4634 
L 2009 4634 
Q 2713 4634 3131 4378 
Q 3688 4044 3688 3381 
Q 3688 2784 3181 2459 
Q 2906 2272 2522 2216 
L 2522 2197 
Q 2941 2050 3247 1581 
Q 3516 1166 4072 63 
z
M 1172 2478 
L 1869 2478 
Q 3106 2478 3106 3369 
Q 3106 4181 1928 4181 
L 1172 4181 
L 1172 2478 
z
" transform="scale(0.015625)"/>
     </defs>
     <use xlink:href="#IPAexGothic-53"/>
     <use xlink:href="#IPAexGothic-54" x="58.496094"/>
     <use xlink:href="#IPAexGothic-41" x="118.408203"/>
     <use xlink:href="#IPAexGothic-52" x="182.128906"/>
     <use xlink:href="#IPAexGothic-54" x="246.923828"/>
    </g>
   </g>
   <g id="text_2">
    <!-- x = 10 -->
    <g transform="translate(78.298008 103.484141) scale(0.125 -0.125)">
     <defs>
      <path id="IPAexGothic-78" d="M 3050 63 
L 2419 63 
L 1547 1338 
L 691 63 
L 56 63 
L 1247 1675 
L 106 3250 
L 747 3250 
L 1578 2016 
L 2413 3250 
L 3019 3250 
L 1875 1681 
L 3050 63 
z
" transform="scale(0.015625)"/>
      <path id="IPAexGothic-20" transform="scale(0.015625)"/>
      <path id="IPAexGothic-3d" d="M 416 2803 
L 3922 2803 
L 3922 2438 
L 416 2438 
L 416 2803 
z
M 416 1625 
L 3922 1625 
L 3922 1259 
L 416 1259 
L 416 1625 
z
" transform="scale(0.015625)"/>
      <path id="IPAexGothic-31" d="M 2463 63 
L 1900 63 
L 1900 4103 
Q 1372 3922 788 3797 
L 684 4231 
Q 1519 4441 2106 4731 
L 2463 4731 
L 2463 63 
z
" transform="scale(0.015625)"/>
      <path id="IPAexGothic-30" d="M 2038 4725 
Q 2881 4725 3334 3944 
Q 3694 3325 3694 2344 
Q 3694 1372 3334 741 
Q 2888 -31 2016 -31 
Q 1147 -31 700 741 
Q 341 1372 341 2350 
Q 341 3713 1000 4334 
Q 1419 4725 2038 4725 
z
M 2016 4266 
Q 1516 4266 1228 3759 
Q 934 3247 934 2344 
Q 934 1456 1222 947 
Q 1513 447 2016 447 
Q 2619 447 2909 1153 
Q 3100 1622 3100 2375 
Q 3100 3256 2806 3759 
Q 2509 4266 2016 4266 
z
" transform="scale(0.015625)"/>
     </defs>
     <use xlink:href="#IPAexGothic-78"/>
     <use xlink:href="#IPAexGothic-20" x="48.876953"/>
     <use xlink:href="#IPAexGothic-3d" x="75.878906"/>
     <use xlink:href="#IPAexGothic-20" x="143.701172"/>
     <use xlink:href="#IPAexGothic-31" x="170.703125"/>
     <use xlink:href="#IPAexGothic-30" x="233.691406"/>
    </g>
   </g>
   <g id="text_3">
    <!-- False -->
    <g transform="translate(101.52 205.833281) scale(0.125 -0.125)">
     <defs>
      <path id="IPAexGothic-46" d="M 3469 4141 
L 1172 4141 
L 1172 2656 
L 3206 2656 
L 3206 2188 
L 1172 2188 
L 1172 63 
L 609 63 
L 609 4634 
L 3469 4634 
L 3469 4141 
z
" transform="scale(0.015625)"/>
      <path id="IPAexGothic-61" d="M 3156 63 
L 2672 63 
Q 2559 303 2531 556 
L 2509 556 
Q 2147 -25 1428 -25 
Q 934 -25 622 288 
Q 347 563 347 959 
Q 347 1947 2050 1997 
L 2478 2009 
L 2478 2175 
Q 2478 2509 2288 2700 
Q 2088 2900 1775 2900 
Q 1238 2900 969 2378 
L 494 2597 
Q 938 3328 1788 3328 
Q 2375 3328 2691 3000 
Q 2984 2706 2984 2169 
L 2984 997 
Q 2984 400 3156 63 
z
M 2491 1625 
L 2141 1619 
Q 903 1591 903 953 
Q 903 728 1050 581 
Q 1231 403 1525 403 
Q 1934 403 2234 703 
Q 2491 969 2491 1344 
L 2491 1625 
z
" transform="scale(0.015625)"/>
      <path id="IPAexGothic-6c" d="M 1131 63 
L 581 63 
L 581 4794 
L 1131 4794 
L 1131 63 
z
" transform="scale(0.015625)"/>
      <path id="IPAexGothic-73" d="M 2234 2547 
Q 1938 2931 1484 2931 
Q 891 2931 891 2475 
Q 891 2153 1531 1944 
L 1741 1875 
Q 2650 1578 2650 894 
Q 2650 434 2272 172 
Q 1972 -31 1497 -31 
Q 766 -31 256 503 
L 603 819 
Q 997 397 1516 397 
Q 2131 397 2131 875 
Q 2131 1238 1453 1478 
L 1234 1553 
Q 378 1853 378 2431 
Q 378 2797 628 3047 
Q 928 3347 1453 3347 
Q 2156 3347 2606 2859 
L 2234 2547 
z
" transform="scale(0.015625)"/>
      <path id="IPAexGothic-65" d="M 863 1594 
Q 891 1041 1209 722 
Q 1534 397 1997 397 
Q 2606 397 2963 966 
L 3322 728 
Q 2869 -31 1931 -31 
Q 1222 -31 766 422 
Q 306 884 306 1641 
Q 306 2444 788 2925 
Q 1216 3353 1856 3353 
Q 2459 3353 2866 2956 
Q 3322 2494 3322 1722 
L 3322 1594 
L 863 1594 
z
M 2756 1997 
Q 2709 2431 2450 2681 
Q 2194 2938 1844 2938 
Q 1438 2938 1150 2591 
Q 953 2356 894 1997 
L 2756 1997 
z
" transform="scale(0.015625)"/>
     </defs>
     <use xlink:href="#IPAexGothic-46"/>
     <use xlink:href="#IPAexGothic-61" x="57.177734"/>
     <use xlink:href="#IPAexGothic-6c" x="112.158203"/>
     <use xlink:href="#IPAexGothic-73" x="139.160156"/>
     <use xlink:href="#IPAexGothic-65" x="185.351562"/>
    </g>
   </g>
   <g id="text_4">
    <!-- True -->
    <g transform="translate(155.52 161.335) scale(0.125 -0.125)">
     <defs>
      <path id="IPAexGothic-72" d="M 2309 3316 
L 2213 2769 
Q 2106 2791 2022 2791 
Q 1653 2791 1413 2444 
Q 1113 2006 1113 1675 
L 1113 63 
L 563 63 
L 563 3250 
L 1081 3250 
L 1056 2303 
L 1069 2303 
Q 1422 3341 2097 3341 
Q 2206 3341 2309 3316 
z
" transform="scale(0.015625)"/>
      <path id="IPAexGothic-75" d="M 3284 63 
L 2772 63 
L 2772 644 
Q 2300 0 1625 0 
Q 1072 0 763 375 
Q 519 678 519 1241 
L 519 3250 
L 1069 3250 
L 1069 1259 
Q 1069 466 1734 466 
Q 2406 466 2734 1291 
L 2734 3250 
L 3284 3250 
L 3284 63 
z
" transform="scale(0.015625)"/>
     </defs>
     <use xlink:href="#IPAexGothic-54"/>
     <use xlink:href="#IPAexGothic-72" x="59.912109"/>
     <use xlink:href="#IPAexGothic-75" x="96.923828"/>
     <use xlink:href="#IPAexGothic-65" x="157.324219"/>
    </g>
   </g>
   <g id="text_5">
    <!-- x = 10 ? -->
    <g transform="translate(73.168125 171.884141) scale(0.125 -0.125)">
     <defs>
      <path id="IPAexGothic-3f" d="M 225 3425 
Q 503 4725 1763 4725 
Q 2413 4725 2803 4334 
Q 3144 3994 3144 3516 
Q 3144 3081 2838 2716 
Q 2703 2563 2344 2266 
L 2216 2156 
Q 1888 1878 1888 1363 
L 1888 1209 
L 1422 1209 
L 1422 1422 
Q 1422 2050 1881 2491 
L 2022 2625 
L 2075 2669 
Q 2575 3122 2575 3516 
Q 2575 3822 2363 4041 
Q 2128 4278 1763 4278 
Q 963 4278 725 3309 
L 225 3425 
z
M 1978 63 
L 1325 63 
L 1325 728 
L 1978 728 
L 1978 63 
z
" transform="scale(0.015625)"/>
     </defs>
     <use xlink:href="#IPAexGothic-78"/>
     <use xlink:href="#IPAexGothic-20" x="48.876953"/>
     <use xlink:href="#IPAexGothic-3d" x="75.878906"/>
     <use xlink:href="#IPAexGothic-20" x="143.701172"/>
     <use xlink:href="#IPAexGothic-31" x="170.703125"/>
     <use xlink:href="#IPAexGothic-30" x="233.691406"/>
     <use xlink:href="#IPAexGothic-20" x="296.679688"/>
     <use xlink:href="#IPAexGothic-3f" x="323.681641"/>
    </g>
   </g>
   <g id="text_6">
    <!-- print('条件はTrueです') -->
    <g transform="translate(233.406797 172.384141) scale(0.125 -0.125)">
     <defs>
      <path id="IPAexGothic-70" d="M 1075 2688 
Q 1525 3341 2206 3341 
Q 2769 3341 3172 2938 
Q 3641 2469 3641 1644 
Q 3641 841 3178 372 
Q 2775 -31 2200 -31 
Q 1569 -31 1106 497 
L 1106 -1216 
L 563 -1216 
L 563 3250 
L 1075 3250 
L 1075 2688 
z
M 1106 1950 
L 1106 1291 
Q 1106 897 1516 600 
Q 1791 403 2106 403 
Q 2469 403 2725 659 
Q 3066 997 3066 1631 
Q 3066 2200 2784 2559 
Q 2503 2900 2100 2900 
Q 1656 2900 1338 2484 
Q 1106 2184 1106 1950 
z
" transform="scale(0.015625)"/>
      <path id="IPAexGothic-69" d="M 1178 3928 
L 550 3928 
L 550 4569 
L 1178 4569 
L 1178 3928 
z
M 1138 63 
L 588 63 
L 588 3250 
L 1138 3250 
L 1138 63 
z
" transform="scale(0.015625)"/>
      <path id="IPAexGothic-6e" d="M 3328 63 
L 2778 63 
L 2778 2041 
Q 2778 2853 2106 2853 
Q 1428 2853 1113 2041 
L 1113 63 
L 563 63 
L 563 3250 
L 1075 3250 
L 1075 2675 
Q 1525 3316 2222 3316 
Q 3328 3316 3328 2072 
L 3328 63 
z
" transform="scale(0.015625)"/>
      <path id="IPAexGothic-74" d="M 2125 241 
Q 1769 -6 1397 -6 
Q 653 -6 653 831 
L 653 2859 
L 219 2859 
L 219 3250 
L 653 3250 
L 653 3966 
L 1178 4228 
L 1178 3250 
L 2063 3250 
L 2063 2859 
L 1178 2859 
L 1178 906 
Q 1178 416 1513 416 
Q 1738 416 1941 588 
L 2125 241 
z
" transform="scale(0.015625)"/>
      <path id="IPAexGothic-28" d="M 1928 -1016 
L 1653 -1166 
Q 488 69 488 1875 
Q 488 3678 1653 4909 
L 1928 4763 
Q 1006 3522 1006 1881 
Q 1006 203 1928 -1016 
z
" transform="scale(0.015625)"/>
      <path id="IPAexGothic-27" d="M 900 4794 
L 806 3084 
L 422 3084 
L 325 4794 
L 900 4794 
z
" transform="scale(0.015625)"/>
      <path id="IPAexGothic-6761" d="M 3406 1475 
L 3406 -447 
L 2953 -447 
L 2953 1422 
Q 2147 306 641 -331 
L 334 59 
Q 1738 569 2563 1538 
L 488 1538 
L 488 1941 
L 2953 1941 
L 2953 2691 
L 3406 2691 
L 3406 1941 
L 5928 1941 
L 5928 1538 
L 3847 1538 
Q 4597 769 6063 238 
L 5759 -203 
Q 4256 400 3406 1475 
z
M 3738 3419 
Q 4619 2991 5959 2772 
L 5684 2356 
Q 4216 2631 3353 3150 
Q 2350 2494 813 2175 
L 531 2566 
Q 2063 2825 2997 3391 
Q 2494 3763 2163 4219 
Q 1694 3747 1038 3359 
L 725 3688 
Q 1897 4319 2466 5306 
L 2900 5203 
Q 2784 5003 2713 4903 
L 4641 4903 
L 4872 4691 
Q 4384 3938 3738 3419 
z
M 3353 3634 
Q 3919 4075 4219 4531 
L 2438 4531 
L 2425 4513 
Q 2838 3956 3353 3634 
z
" transform="scale(0.015625)"/>
      <path id="IPAexGothic-4ef6" d="M 3903 3425 
L 2906 3425 
Q 2697 2825 2309 2247 
L 1991 2572 
Q 2588 3497 2803 4788 
L 3256 4713 
Q 3175 4313 3041 3834 
L 3903 3834 
L 3903 5250 
L 4356 5250 
L 4356 3834 
L 5731 3834 
L 5731 3425 
L 4356 3425 
L 4356 2009 
L 6041 2009 
L 6041 1594 
L 4356 1594 
L 4356 -447 
L 3903 -447 
L 3903 1594 
L 2078 1594 
L 2078 2009 
L 3903 2009 
L 3903 3425 
z
M 1638 3681 
L 1638 -447 
L 1169 -447 
L 1169 2753 
Q 881 2272 575 1863 
L 313 2253 
Q 1238 3463 1650 5184 
L 2125 5069 
Q 1909 4316 1638 3681 
z
" transform="scale(0.015625)"/>
      <path id="IPAexGothic-306f" d="M 4066 4875 
L 4538 4875 
L 4556 3769 
Q 5003 3816 5581 3941 
L 5619 3469 
Q 5256 3394 4563 3322 
L 4597 1441 
Q 5100 1284 5934 756 
L 5656 313 
Q 5066 772 4609 978 
Q 4609 441 4384 225 
Q 4128 -13 3634 -13 
Q 2991 -13 2669 231 
Q 2388 444 2388 831 
Q 2388 1225 2772 1484 
Q 3050 1669 3534 1669 
Q 3759 1669 4134 1594 
L 4097 3288 
Q 3697 3269 3359 3269 
Q 2925 3269 2484 3300 
L 2466 3763 
Q 2953 3716 3456 3716 
Q 3738 3716 4091 3738 
L 4066 4875 
z
M 4141 1153 
Q 3753 1259 3513 1259 
Q 2841 1259 2841 850 
Q 2841 422 3634 422 
Q 3888 422 4022 569 
Q 4141 700 4141 922 
Q 4141 1088 4141 1153 
z
M 1000 -50 
Q 794 1072 794 1931 
Q 794 3153 1247 4884 
L 1728 4763 
Q 1269 3044 1269 1900 
Q 1269 1569 1306 1106 
Q 1591 1706 1753 1997 
L 2075 1806 
Q 1484 716 1484 141 
Q 1484 72 1491 0 
L 1000 -50 
z
" transform="scale(0.015625)"/>
      <path id="IPAexGothic-3067" d="M 581 4034 
Q 2978 4363 5466 4556 
L 5509 4097 
Q 4388 4031 3750 3572 
Q 2797 2878 2797 1913 
Q 2797 1169 3291 819 
Q 3778 484 4869 416 
L 4906 -116 
Q 2278 0 2278 1850 
Q 2278 3125 3691 4000 
Q 2066 3784 684 3553 
L 581 4034 
z
M 5631 2522 
Q 5269 3063 4875 3391 
L 5175 3622 
Q 5559 3313 5950 2797 
L 5631 2522 
z
M 5034 2053 
Q 4747 2544 4300 2944 
L 4613 3184 
Q 4984 2878 5369 2328 
L 5034 2053 
z
" transform="scale(0.015625)"/>
      <path id="IPAexGothic-3059" d="M 3322 5075 
L 3816 5075 
L 3816 4063 
Q 4131 4075 5756 4116 
L 5756 3669 
Q 5431 3672 3816 3653 
L 3816 2463 
Q 3956 2125 3956 1741 
Q 3956 922 3519 397 
Q 3128 -72 2309 -409 
L 1941 -31 
Q 3263 453 3488 1363 
Q 3250 1031 2809 1031 
Q 2441 1031 2150 1313 
Q 1875 1588 1875 2050 
Q 1875 2475 2166 2769 
Q 2431 3041 2822 3041 
Q 3088 3041 3322 2881 
L 3322 3641 
Q 3000 3634 609 3547 
L 609 3988 
Q 1197 4000 2106 4022 
Q 3066 4047 3322 4050 
L 3322 5075 
z
M 3372 2044 
Q 3372 2300 3194 2478 
Q 3050 2613 2869 2613 
Q 2622 2613 2463 2406 
Q 2344 2250 2344 2088 
Q 2344 1797 2484 1622 
Q 2625 1453 2859 1453 
Q 3372 1453 3372 2044 
z
" transform="scale(0.015625)"/>
      <path id="IPAexGothic-29" d="M 466 4909 
Q 1638 3672 1638 1875 
Q 1638 75 466 -1166 
L 191 -1016 
Q 1119 216 1119 1881 
Q 1119 3509 191 4763 
L 466 4909 
z
" transform="scale(0.015625)"/>
     </defs>
     <use xlink:href="#IPAexGothic-70"/>
     <use xlink:href="#IPAexGothic-72" x="62.109375"/>
     <use xlink:href="#IPAexGothic-69" x="99.121094"/>
     <use xlink:href="#IPAexGothic-6e" x="126.123047"/>
     <use xlink:href="#IPAexGothic-74" x="186.523438"/>
     <use xlink:href="#IPAexGothic-28" x="221.142578"/>
     <use xlink:href="#IPAexGothic-27" x="254.443359"/>
     <use xlink:href="#IPAexGothic-6761" x="273.730469"/>
     <use xlink:href="#IPAexGothic-4ef6" x="373.730469"/>
     <use xlink:href="#IPAexGothic-306f" x="473.730469"/>
     <use xlink:href="#IPAexGothic-54" x="573.730469"/>
     <use xlink:href="#IPAexGothic-72" x="633.642578"/>
     <use xlink:href="#IPAexGothic-75" x="670.654297"/>
     <use xlink:href="#IPAexGothic-65" x="731.054688"/>
     <use xlink:href="#IPAexGothic-3067" x="787.939453"/>
     <use xlink:href="#IPAexGothic-3059" x="887.939453"/>
     <use xlink:href="#IPAexGothic-27" x="987.939453"/>
     <use xlink:href="#IPAexGothic-29" x="1007.226562"/>
    </g>
   </g>
   <g id="text_7">
    <!-- END -->
    <g transform="translate(285.240781 234.884141) scale(0.125 -0.125)">
     <defs>
      <path id="IPAexGothic-45" d="M 3547 63 
L 609 63 
L 609 4634 
L 3469 4634 
L 3469 4147 
L 1166 4147 
L 1166 2650 
L 3206 2650 
L 3206 2191 
L 1166 2191 
L 1166 556 
L 3547 556 
L 3547 63 
z
" transform="scale(0.015625)"/>
      <path id="IPAexGothic-4e" d="M 4244 63 
L 3731 63 
L 1697 3150 
Q 1466 3500 1141 4097 
L 1116 4097 
L 1128 3797 
Q 1159 2803 1159 2469 
L 1159 63 
L 609 63 
L 609 4634 
L 1366 4634 
L 3113 1978 
Q 3453 1447 3713 966 
L 3738 966 
Q 3694 1897 3694 2469 
L 3694 4634 
L 4244 4634 
L 4244 63 
z
" transform="scale(0.015625)"/>
      <path id="IPAexGothic-44" d="M 609 4634 
L 1984 4634 
Q 3159 4634 3791 4050 
Q 4456 3444 4456 2356 
Q 4456 1047 3516 441 
Q 2925 63 1941 63 
L 609 63 
L 609 4634 
z
M 1172 556 
L 1894 556 
Q 3853 556 3853 2356 
Q 3853 4147 1928 4147 
L 1172 4147 
L 1172 556 
z
" transform="scale(0.015625)"/>
     </defs>
     <use xlink:href="#IPAexGothic-45"/>
     <use xlink:href="#IPAexGothic-4e" x="59.521484"/>
     <use xlink:href="#IPAexGothic-44" x="135.498047"/>
    </g>
   </g>
   <g id="text_8">
    <!-- print('条件はFalseです') -->
    <g transform="translate(30.05582 249.784141) scale(0.125 -0.125)">
     <use xlink:href="#IPAexGothic-70"/>
     <use xlink:href="#IPAexGothic-72" x="62.109375"/>
     <use xlink:href="#IPAexGothic-69" x="99.121094"/>
     <use xlink:href="#IPAexGothic-6e" x="126.123047"/>
     <use xlink:href="#IPAexGothic-74" x="186.523438"/>
     <use xlink:href="#IPAexGothic-28" x="221.142578"/>
     <use xlink:href="#IPAexGothic-27" x="254.443359"/>
     <use xlink:href="#IPAexGothic-6761" x="273.730469"/>
     <use xlink:href="#IPAexGothic-4ef6" x="373.730469"/>
     <use xlink:href="#IPAexGothic-306f" x="473.730469"/>
     <use xlink:href="#IPAexGothic-46" x="573.730469"/>
     <use xlink:href="#IPAexGothic-61" x="630.908203"/>
     <use xlink:href="#IPAexGothic-6c" x="685.888672"/>
     <use xlink:href="#IPAexGothic-73" x="712.890625"/>
     <use xlink:href="#IPAexGothic-65" x="759.082031"/>
     <use xlink:href="#IPAexGothic-3067" x="815.966797"/>
     <use xlink:href="#IPAexGothic-3059" x="915.966797"/>
     <use xlink:href="#IPAexGothic-27" x="1015.966797"/>
     <use xlink:href="#IPAexGothic-29" x="1035.253906"/>
    </g>
   </g>
   <g id="text_9">
    <!-- END -->
    <g transform="translate(83.640781 312.284141) scale(0.125 -0.125)">
     <use xlink:href="#IPAexGothic-45"/>
     <use xlink:href="#IPAexGothic-4e" x="59.521484"/>
     <use xlink:href="#IPAexGothic-44" x="135.498047"/>
    </g>
   </g>
  </g>
 </g>
 <defs>
  <clipPath id="p017a85f0c5">
   <rect x="3.6" y="3.6" width="388.08" height="338.58"/>
  </clipPath>
 </defs>
</svg>