<?xml version="1.0" encoding="utf-8" standalone="no"?>
<!DOCTYPE svg PUBLIC "-//W3C//DTD SVG 1.1//EN"
  "http://www.w3.org/Graphics/SVG/1.1/DTD/svg11.dtd">
<svg xmlns:xlink="http://www.w3.org/1999/xlink" width="360.36pt" height="326.16pt" viewBox="0 0 360.36 326.16" xmlns="http://www.w3.org/2000/svg" version="1.1">
 <metadata>
  <rdf:RDF xmlns:dc="http://purl.org/dc/elements/1.1/" xmlns:cc="http://creativecommons.org/ns#" xmlns:rdf="http://www.w3.org/1999/02/22-rdf-syntax-ns#">
   <cc:Work>
    <dc:type rdf:resource="http://purl.org/dc/dcmitype/StillImage"/>
    <dc:date>2024-06-14T11:49:04.080115</dc:date>
    <dc:format>image/svg+xml</dc:format>
    <dc:creator>
     <cc:Agent>
      <dc:title>Matplotlib v3.9.0, https://matplotlib.org/</dc:title>
     </cc:Agent>
    </dc:creator>
   </cc:Work>
  </rdf:RDF>
 </metadata>
 <defs>
  <style type="text/css">*{stroke-linejoin: round; stroke-linecap: butt}</style>
 </defs>
 <g id="figure_1">
  <g id="patch_1">
   <path d="M 0 326.16 
L 360.36 326.16 
L 360.36 0 
L 0 0 
z
" style="fill: #ffffff"/>
  </g>
  <g id="axes_1">
   <g id="patch_2">
    <path d="M 85.68 40.68 
L 85.965587 40.677734 
L 86.251103 40.670938 
L 86.536474 40.659612 
L 86.821631 40.64376 
L 87.106499 40.623386 
L 87.391009 40.598495 
L 87.675088 40.569092 
L 87.958664 40.535187 
L 88.241667 40.496786 
L 88.524025 40.4539 
L 88.805667 40.40654 
L 89.086522 40.354717 
L 89.36652 40.298444 
L 89.64559 40.237736 
L 89.923661 40.172608 
L 90.200664 40.103077 
L 90.476529 40.029159 
L 90.751186 39.950874 
L 91.024567 39.86824 
L 91.296602 39.78128 
L 91.567223 39.690015 
L 91.836363 39.594467 
L 92.103952 39.494661 
L 92.369924 39.390623 
L 92.634212 39.282377 
L 92.89675 39.169952 
L 93.15747 39.053376 
L 93.416308 38.932678 
L 93.673199 38.807888 
L 93.928077 38.679038 
L 94.180879 38.546161 
L 94.431541 38.409289 
L 94.68 38.268457 
L 94.926193 38.123701 
L 95.170058 37.975058 
L 95.411535 37.822564 
L 95.650561 37.666257 
L 95.887078 37.506178 
L 96.121024 37.342367 
L 96.352343 37.174865 
L 96.580974 37.003713 
L 96.806862 36.828956 
L 97.029948 36.650636 
L 97.250177 36.4688 
L 97.467493 36.283492 
L 97.681842 36.09476 
L 97.893169 35.902651 
L 98.101422 35.707213 
L 98.306548 35.508495 
L 98.508495 35.306548 
L 98.707213 35.101422 
L 98.902651 34.893169 
L 99.09476 34.681842 
L 99.283492 34.467493 
L 99.4688 34.250177 
L 99.650636 34.029948 
L 99.828956 33.806862 
L 100.003713 33.580974 
L 100.174865 33.352343 
L 100.342367 33.121024 
L 100.506178 32.887078 
L 100.666257 32.650561 
L 100.822564 32.411535 
L 100.975058 32.170058 
L 101.123701 31.926193 
L 101.268457 31.68 
L 101.409289 31.431541 
L 101.546161 31.180879 
L 101.679038 30.928077 
L 101.807888 30.673199 
L 101.932678 30.416308 
L 102.053376 30.15747 
L 102.169952 29.89675 
L 102.282377 29.634212 
L 102.390623 29.369924 
L 102.494661 29.103952 
L 102.594467 28.836363 
L 102.690015 28.567223 
L 102.78128 28.296602 
L 102.86824 28.024567 
L 102.950874 27.751186 
L 103.029159 27.476529 
L 103.103077 27.200664 
L 103.172608 26.923661 
L 103.237736 26.64559 
L 103.298444 26.36652 
L 103.354717 26.086522 
L 103.40654 25.805667 
L 103.4539 25.524025 
L 103.496786 25.241667 
L 103.535187 24.958664 
L 103.569092 24.675088 
L 103.598495 24.391009 
L 103.623386 24.106499 
L 103.64376 23.821631 
L 103.659612 23.536474 
L 103.670938 23.251103 
L 103.677734 22.965587 
L 103.68 22.68 
L 103.68 22.68 
L 103.677734 22.394413 
L 103.670938 22.108897 
L 103.659612 21.823526 
L 103.64376 21.538369 
L 103.623386 21.253501 
L 103.598495 20.968991 
L 103.569092 20.684912 
L 103.535187 20.401336 
L 103.496786 20.118333 
L 103.4539 19.835975 
L 103.40654 19.554333 
L 103.354717 19.273478 
L 103.298444 18.99348 
L 103.237736 18.71441 
L 103.172608 18.436339 
L 103.103077 18.159336 
L 103.029159 17.883471 
L 102.950874 17.608814 
L 102.86824 17.335433 
L 102.78128 17.063398 
L 102.690015 16.792777 
L 102.594467 16.523637 
L 102.494661 16.256048 
L 102.390623 15.990076 
L 102.282377 15.725788 
L 102.169952 15.46325 
L 102.053376 15.20253 
L 101.932678 14.943692 
L 101.807888 14.686801 
L 101.679038 14.431923 
L 101.546161 14.179121 
L 101.409289 13.928459 
L 101.268457 13.68 
L 101.123701 13.433807 
L 100.975058 13.189942 
L 100.822564 12.948465 
L 100.666257 12.709439 
L 100.506178 12.472922 
L 100.342367 12.238976 
L 100.174865 12.007657 
L 100.003713 11.779026 
L 99.828956 11.553138 
L 99.650636 11.330052 
L 99.4688 11.109823 
L 99.283492 10.892507 
L 99.09476 10.678158 
L 98.902651 10.466831 
L 98.707213 10.258578 
L 98.508495 10.053452 
L 98.306548 9.851505 
L 98.101422 9.652787 
L 97.893169 9.457349 
L 97.681842 9.26524 
L 97.467493 9.076508 
L 97.250177 8.8912 
L 97.029948 8.709364 
L 96.806862 8.531044 
L 96.580974 8.356287 
L 96.352343 8.185135 
L 96.121024 8.017633 
L 95.887078 7.853822 
L 95.650561 7.693743 
L 95.411535 7.537436 
L 95.170058 7.384942 
L 94.926193 7.236299 
L 94.68 7.091543 
L 94.431541 6.950711 
L 94.180879 6.813839 
L 93.928077 6.680962 
L 93.673199 6.552112 
L 93.416308 6.427322 
L 93.15747 6.306624 
L 92.89675 6.190048 
L 92.634212 6.077623 
L 92.369924 5.969377 
L 92.103952 5.865339 
L 91.836363 5.765533 
L 91.567223 5.669985 
L 91.296602 5.57872 
L 91.024567 5.49176 
L 90.751186 5.409126 
L 90.476529 5.330841 
L 90.200664 5.256923 
L 89.923661 5.187392 
L 89.64559 5.122264 
L 89.36652 5.061556 
L 89.086522 5.005283 
L 88.805667 4.95346 
L 88.524025 4.9061 
L 88.241667 4.863214 
L 87.958664 4.824813 
L 87.675088 4.790908 
L 87.391009 4.761505 
L 87.106499 4.736614 
L 86.821631 4.71624 
L 86.536474 4.700388 
L 86.251103 4.689062 
L 85.965587 4.682266 
L 85.68 4.68 
L 49.68 4.68 
L 49.394413 4.682266 
L 49.108897 4.689062 
L 48.823526 4.700388 
L 48.538369 4.71624 
L 48.253501 4.736614 
L 47.968991 4.761505 
L 47.684912 4.790908 
L 47.401336 4.824813 
L 47.118333 4.863214 
L 46.835975 4.9061 
L 46.554333 4.95346 
L 46.273478 5.005283 
L 45.99348 5.061556 
L 45.71441 5.122264 
L 45.436339 5.187392 
L 45.159336 5.256923 
L 44.883471 5.330841 
L 44.608814 5.409126 
L 44.335433 5.49176 
L 44.063398 5.57872 
L 43.792777 5.669985 
L 43.523637 5.765533 
L 43.256048 5.865339 
L 42.990076 5.969377 
L 42.725788 6.077623 
L 42.46325 6.190048 
L 42.20253 6.306624 
L 41.943692 6.427322 
L 41.686801 6.552112 
L 41.431923 6.680962 
L 41.179121 6.813839 
L 40.928459 6.950711 
L 40.68 7.091543 
L 40.433807 7.236299 
L 40.189942 7.384942 
L 39.948465 7.537436 
L 39.709439 7.693743 
L 39.472922 7.853822 
L 39.238976 8.017633 
L 39.007657 8.185135 
L 38.779026 8.356287 
L 38.553138 8.531044 
L 38.330052 8.709364 
L 38.109823 8.8912 
L 37.892507 9.076508 
L 37.678158 9.26524 
L 37.466831 9.457349 
L 37.258578 9.652787 
L 37.053452 9.851505 
L 36.851505 10.053452 
L 36.652787 10.258578 
L 36.457349 10.466831 
L 36.26524 10.678158 
L 36.076508 10.892507 
L 35.8912 11.109823 
L 35.709364 11.330052 
L 35.531044 11.553138 
L 35.356287 11.779026 
L 35.185135 12.007657 
L 35.017633 12.238976 
L 34.853822 12.472922 
L 34.693743 12.709439 
L 34.537436 12.948465 
L 34.384942 13.189942 
L 34.236299 13.433807 
L 34.091543 13.68 
L 33.950711 13.928459 
L 33.813839 14.179121 
L 33.680962 14.431923 
L 33.552112 14.686801 
L 33.427322 14.943692 
L 33.306624 15.20253 
L 33.190048 15.46325 
L 33.077623 15.725788 
L 32.969377 15.990076 
L 32.865339 16.256048 
L 32.765533 16.523637 
L 32.669985 16.792777 
L 32.57872 17.063398 
L 32.49176 17.335433 
L 32.409126 17.608814 
L 32.330841 17.883471 
L 32.256923 18.159336 
L 32.187392 18.436339 
L 32.122264 18.71441 
L 32.061556 18.99348 
L 32.005283 19.273478 
L 31.95346 19.554333 
L 31.9061 19.835975 
L 31.863214 20.118333 
L 31.824813 20.401336 
L 31.790908 20.684912 
L 31.761505 20.968991 
L 31.736614 21.253501 
L 31.71624 21.538369 
L 31.700388 21.823526 
L 31.689062 22.108897 
L 31.682266 22.394413 
L 31.68 22.68 
L 31.68 22.68 
L 31.682266 22.965587 
L 31.689062 23.251103 
L 31.700388 23.536474 
L 31.71624 23.821631 
L 31.736614 24.106499 
L 31.761505 24.391009 
L 31.790908 24.675088 
L 31.824813 24.958664 
L 31.863214 25.241667 
L 31.9061 25.524025 
L 31.95346 25.805667 
L 32.005283 26.086522 
L 32.061556 26.36652 
L 32.122264 26.64559 
L 32.187392 26.923661 
L 32.256923 27.200664 
L 32.330841 27.476529 
L 32.409126 27.751186 
L 32.49176 28.024567 
L 32.57872 28.296602 
L 32.669985 28.567223 
L 32.765533 28.836363 
L 32.865339 29.103952 
L 32.969377 29.369924 
L 33.077623 29.634212 
L 33.190048 29.89675 
L 33.306624 30.15747 
L 33.427322 30.416308 
L 33.552112 30.673199 
L 33.680962 30.928077 
L 33.813839 31.180879 
L 33.950711 31.431541 
L 34.091543 31.68 
L 34.236299 31.926193 
L 34.384942 32.170058 
L 34.537436 32.411535 
L 34.693743 32.650561 
L 34.853822 32.887078 
L 35.017633 33.121024 
L 35.185135 33.352343 
L 35.356287 33.580974 
L 35.531044 33.806862 
L 35.709364 34.029948 
L 35.8912 34.250177 
L 36.076508 34.467493 
L 36.26524 34.681842 
L 36.457349 34.893169 
L 36.652787 35.101422 
L 36.851505 35.306548 
L 37.053452 35.508495 
L 37.258578 35.707213 
L 37.466831 35.902651 
L 37.678158 36.09476 
L 37.892507 36.283492 
L 38.109823 36.4688 
L 38.330052 36.650636 
L 38.553138 36.828956 
L 38.779026 37.003713 
L 39.007657 37.174865 
L 39.238976 37.342367 
L 39.472922 37.506178 
L 39.709439 37.666257 
L 39.948465 37.822564 
L 40.189942 37.975058 
L 40.433807 38.123701 
L 40.68 38.268457 
L 40.928459 38.409289 
L 41.179121 38.546161 
L 41.431923 38.679038 
L 41.686801 38.807888 
L 41.943692 38.932678 
L 42.20253 39.053376 
L 42.46325 39.169952 
L 42.725788 39.282377 
L 42.990076 39.390623 
L 43.256048 39.494661 
L 43.523637 39.594467 
L 43.792777 39.690015 
L 44.063398 39.78128 
L 44.335433 39.86824 
L 44.608814 39.950874 
L 44.883471 40.029159 
L 45.159336 40.103077 
L 45.436339 40.172608 
L 45.71441 40.237736 
L 45.99348 40.298444 
L 46.273478 40.354717 
L 46.554333 40.40654 
L 46.835975 40.4539 
L 47.118333 40.496786 
L 47.401336 40.535187 
L 47.684912 40.569092 
L 47.968991 40.598495 
L 48.253501 40.623386 
L 48.538369 40.64376 
L 48.823526 40.659612 
L 49.108897 40.670938 
L 49.394413 40.677734 
L 49.68 40.68 
L 85.68 40.68 
z
" clip-path="url(#pc3209b9b0f)" style="fill: none; stroke: #000000; stroke-linecap: round"/>
   </g>
   <g id="patch_3">
    <path d="M 4.68 89.28 
L 67.68 67.68 
L 130.68 89.28 
L 67.68 110.88 
L 4.68 89.28 
z
" clip-path="url(#pc3209b9b0f)" style="fill: none; stroke: #000000; stroke-linecap: round"/>
   </g>
   <g id="patch_4">
    <path d="M 337.68 107.28 
L 337.965587 107.277734 
L 338.251103 107.270938 
L 338.536474 107.259612 
L 338.821631 107.24376 
L 339.106499 107.223386 
L 339.391009 107.198495 
L 339.675088 107.169092 
L 339.958664 107.135187 
L 340.241667 107.096786 
L 340.524025 107.0539 
L 340.805667 107.00654 
L 341.086522 106.954717 
L 341.36652 106.898444 
L 341.64559 106.837736 
L 341.923661 106.772608 
L 342.200664 106.703077 
L 342.476529 106.629159 
L 342.751186 106.550874 
L 343.024567 106.46824 
L 343.296602 106.38128 
L 343.567223 106.290015 
L 343.836363 106.194467 
L 344.103952 106.094661 
L 344.369924 105.990623 
L 344.634212 105.882377 
L 344.89675 105.769952 
L 345.15747 105.653376 
L 345.416308 105.532678 
L 345.673199 105.407888 
L 345.928077 105.279038 
L 346.180879 105.146161 
L 346.431541 105.009289 
L 346.68 104.868457 
L 346.926193 104.723701 
L 347.170058 104.575058 
L 347.411535 104.422564 
L 347.650561 104.266257 
L 347.887078 104.106178 
L 348.121024 103.942367 
L 348.352343 103.774865 
L 348.580974 103.603713 
L 348.806862 103.428956 
L 349.029948 103.250636 
L 349.250177 103.0688 
L 349.467493 102.883492 
L 349.681842 102.69476 
L 349.893169 102.502651 
L 350.101422 102.307213 
L 350.306548 102.108495 
L 350.508495 101.906548 
L 350.707213 101.701422 
L 350.902651 101.493169 
L 351.09476 101.281842 
L 351.283492 101.067493 
L 351.4688 100.850177 
L 351.650636 100.629948 
L 351.828956 100.406862 
L 352.003713 100.180974 
L 352.174865 99.952343 
L 352.342367 99.721024 
L 352.506178 99.487078 
L 352.666257 99.250561 
L 352.822564 99.011535 
L 352.975058 98.770058 
L 353.123701 98.526193 
L 353.268457 98.28 
L 353.409289 98.031541 
L 353.546161 97.780879 
L 353.679038 97.528077 
L 353.807888 97.273199 
L 353.932678 97.016308 
L 354.053376 96.75747 
L 354.169952 96.49675 
L 354.282377 96.234212 
L 354.390623 95.969924 
L 354.494661 95.703952 
L 354.594467 95.436363 
L 354.690015 95.167223 
L 354.78128 94.896602 
L 354.86824 94.624567 
L 354.950874 94.351186 
L 355.029159 94.076529 
L 355.103077 93.800664 
L 355.172608 93.523661 
L 355.237736 93.24559 
L 355.298444 92.96652 
L 355.354717 92.686522 
L 355.40654 92.405667 
L 355.4539 92.124025 
L 355.496786 91.841667 
L 355.535187 91.558664 
L 355.569092 91.275088 
L 355.598495 90.991009 
L 355.623386 90.706499 
L 355.64376 90.421631 
L 355.659612 90.136474 
L 355.670938 89.851103 
L 355.677734 89.565587 
L 355.68 89.28 
L 355.68 89.28 
L 355.677734 88.994413 
L 355.670938 88.708897 
L 355.659612 88.423526 
L 355.64376 88.138369 
L 355.623386 87.853501 
L 355.598495 87.568991 
L 355.569092 87.284912 
L 355.535187 87.001336 
L 355.496786 86.718333 
L 355.4539 86.435975 
L 355.40654 86.154333 
L 355.354717 85.873478 
L 355.298444 85.59348 
L 355.237736 85.31441 
L 355.172608 85.036339 
L 355.103077 84.759336 
L 355.029159 84.483471 
L 354.950874 84.208814 
L 354.86824 83.935433 
L 354.78128 83.663398 
L 354.690015 83.392777 
L 354.594467 83.123637 
L 354.494661 82.856048 
L 354.390623 82.590076 
L 354.282377 82.325788 
L 354.169952 82.06325 
L 354.053376 81.80253 
L 353.932678 81.543692 
L 353.807888 81.286801 
L 353.679038 81.031923 
L 353.546161 80.779121 
L 353.409289 80.528459 
L 353.268457 80.28 
L 353.123701 80.033807 
L 352.975058 79.789942 
L 352.822564 79.548465 
L 352.666257 79.309439 
L 352.506178 79.072922 
L 352.342367 78.838976 
L 352.174865 78.607657 
L 352.003713 78.379026 
L 351.828956 78.153138 
L 351.650636 77.930052 
L 351.4688 77.709823 
L 351.283492 77.492507 
L 351.09476 77.278158 
L 350.902651 77.066831 
L 350.707213 76.858578 
L 350.508495 76.653452 
L 350.306548 76.451505 
L 350.101422 76.252787 
L 349.893169 76.057349 
L 349.681842 75.86524 
L 349.467493 75.676508 
L 349.250177 75.4912 
L 349.029948 75.309364 
L 348.806862 75.131044 
L 348.580974 74.956287 
L 348.352343 74.785135 
L 348.121024 74.617633 
L 347.887078 74.453822 
L 347.650561 74.293743 
L 347.411535 74.137436 
L 347.170058 73.984942 
L 346.926193 73.836299 
L 346.68 73.691543 
L 346.431541 73.550711 
L 346.180879 73.413839 
L 345.928077 73.280962 
L 345.673199 73.152112 
L 345.416308 73.027322 
L 345.15747 72.906624 
L 344.89675 72.790048 
L 344.634212 72.677623 
L 344.369924 72.569377 
L 344.103952 72.465339 
L 343.836363 72.365533 
L 343.567223 72.269985 
L 343.296602 72.17872 
L 343.024567 72.09176 
L 342.751186 72.009126 
L 342.476529 71.930841 
L 342.200664 71.856923 
L 341.923661 71.787392 
L 341.64559 71.722264 
L 341.36652 71.661556 
L 341.086522 71.605283 
L 340.805667 71.55346 
L 340.524025 71.5061 
L 340.241667 71.463214 
L 339.958664 71.424813 
L 339.675088 71.390908 
L 339.391009 71.361505 
L 339.106499 71.336614 
L 338.821631 71.31624 
L 338.536474 71.300388 
L 338.251103 71.289062 
L 337.965587 71.282266 
L 337.68 71.28 
L 301.68 71.28 
L 301.394413 71.282266 
L 301.108897 71.289062 
L 300.823526 71.300388 
L 300.538369 71.31624 
L 300.253501 71.336614 
L 299.968991 71.361505 
L 299.684912 71.390908 
L 299.401336 71.424813 
L 299.118333 71.463214 
L 298.835975 71.5061 
L 298.554333 71.55346 
L 298.273478 71.605283 
L 297.99348 71.661556 
L 297.71441 71.722264 
L 297.436339 71.787392 
L 297.159336 71.856923 
L 296.883471 71.930841 
L 296.608814 72.009126 
L 296.335433 72.09176 
L 296.063398 72.17872 
L 295.792777 72.269985 
L 295.523637 72.365533 
L 295.256048 72.465339 
L 294.990076 72.569377 
L 294.725788 72.677623 
L 294.46325 72.790048 
L 294.20253 72.906624 
L 293.943692 73.027322 
L 293.686801 73.152112 
L 293.431923 73.280962 
L 293.179121 73.413839 
L 292.928459 73.550711 
L 292.68 73.691543 
L 292.433807 73.836299 
L 292.189942 73.984942 
L 291.948465 74.137436 
L 291.709439 74.293743 
L 291.472922 74.453822 
L 291.238976 74.617633 
L 291.007657 74.785135 
L 290.779026 74.956287 
L 290.553138 75.131044 
L 290.330052 75.309364 
L 290.109823 75.4912 
L 289.892507 75.676508 
L 289.678158 75.86524 
L 289.466831 76.057349 
L 289.258578 76.252787 
L 289.053452 76.451505 
L 288.851505 76.653452 
L 288.652787 76.858578 
L 288.457349 77.066831 
L 288.26524 77.278158 
L 288.076508 77.492507 
L 287.8912 77.709823 
L 287.709364 77.930052 
L 287.531044 78.153138 
L 287.356287 78.379026 
L 287.185135 78.607657 
L 287.017633 78.838976 
L 286.853822 79.072922 
L 286.693743 79.309439 
L 286.537436 79.548465 
L 286.384942 79.789942 
L 286.236299 80.033807 
L 286.091543 80.28 
L 285.950711 80.528459 
L 285.813839 80.779121 
L 285.680962 81.031923 
L 285.552112 81.286801 
L 285.427322 81.543692 
L 285.306624 81.80253 
L 285.190048 82.06325 
L 285.077623 82.325788 
L 284.969377 82.590076 
L 284.865339 82.856048 
L 284.765533 83.123637 
L 284.669985 83.392777 
L 284.57872 83.663398 
L 284.49176 83.935433 
L 284.409126 84.208814 
L 284.330841 84.483471 
L 284.256923 84.759336 
L 284.187392 85.036339 
L 284.122264 85.31441 
L 284.061556 85.59348 
L 284.005283 85.873478 
L 283.95346 86.154333 
L 283.9061 86.435975 
L 283.863214 86.718333 
L 283.824813 87.001336 
L 283.790908 87.284912 
L 283.761505 87.568991 
L 283.736614 87.853501 
L 283.71624 88.138369 
L 283.700388 88.423526 
L 283.689062 88.708897 
L 283.682266 88.994413 
L 283.68 89.28 
L 283.68 89.28 
L 283.682266 89.565587 
L 283.689062 89.851103 
L 283.700388 90.136474 
L 283.71624 90.421631 
L 283.736614 90.706499 
L 283.761505 90.991009 
L 283.790908 91.275088 
L 283.824813 91.558664 
L 283.863214 91.841667 
L 283.9061 92.124025 
L 283.95346 92.405667 
L 284.005283 92.686522 
L 284.061556 92.96652 
L 284.122264 93.24559 
L 284.187392 93.523661 
L 284.256923 93.800664 
L 284.330841 94.076529 
L 284.409126 94.351186 
L 284.49176 94.624567 
L 284.57872 94.896602 
L 284.669985 95.167223 
L 284.765533 95.436363 
L 284.865339 95.703952 
L 284.969377 95.969924 
L 285.077623 96.234212 
L 285.190048 96.49675 
L 285.306624 96.75747 
L 285.427322 97.016308 
L 285.552112 97.273199 
L 285.680962 97.528077 
L 285.813839 97.780879 
L 285.950711 98.031541 
L 286.091543 98.28 
L 286.236299 98.526193 
L 286.384942 98.770058 
L 286.537436 99.011535 
L 286.693743 99.250561 
L 286.853822 99.487078 
L 287.017633 99.721024 
L 287.185135 99.952343 
L 287.356287 100.180974 
L 287.531044 100.406862 
L 287.709364 100.629948 
L 287.8912 100.850177 
L 288.076508 101.067493 
L 288.26524 101.281842 
L 288.457349 101.493169 
L 288.652787 101.701422 
L 288.851505 101.906548 
L 289.053452 102.108495 
L 289.258578 102.307213 
L 289.466831 102.502651 
L 289.678158 102.69476 
L 289.892507 102.883492 
L 290.109823 103.0688 
L 290.330052 103.250636 
L 290.553138 103.428956 
L 290.779026 103.603713 
L 291.007657 103.774865 
L 291.238976 103.942367 
L 291.472922 104.106178 
L 291.709439 104.266257 
L 291.948465 104.422564 
L 292.189942 104.575058 
L 292.433807 104.723701 
L 292.68 104.868457 
L 292.928459 105.009289 
L 293.179121 105.146161 
L 293.431923 105.279038 
L 293.686801 105.407888 
L 293.943692 105.532678 
L 294.20253 105.653376 
L 294.46325 105.769952 
L 294.725788 105.882377 
L 294.990076 105.990623 
L 295.256048 106.094661 
L 295.523637 106.194467 
L 295.792777 106.290015 
L 296.063398 106.38128 
L 296.335433 106.46824 
L 296.608814 106.550874 
L 296.883471 106.629159 
L 297.159336 106.703077 
L 297.436339 106.772608 
L 297.71441 106.837736 
L 297.99348 106.898444 
L 298.273478 106.954717 
L 298.554333 107.00654 
L 298.835975 107.0539 
L 299.118333 107.096786 
L 299.401336 107.135187 
L 299.684912 107.169092 
L 299.968991 107.198495 
L 300.253501 107.223386 
L 300.538369 107.24376 
L 300.823526 107.259612 
L 301.108897 107.270938 
L 301.394413 107.277734 
L 301.68 107.28 
L 337.68 107.28 
z
" clip-path="url(#pc3209b9b0f)" style="fill: none; stroke: #000000; stroke-linecap: round"/>
   </g>
   <g id="patch_5">
    <path d="M 4.68 168.48 
L 67.68 146.88 
L 130.68 168.48 
L 67.68 190.08 
L 4.68 168.48 
z
" clip-path="url(#pc3209b9b0f)" style="fill: none; stroke: #000000; stroke-linecap: round"/>
   </g>
   <g id="patch_6">
    <path d="M 337.68 186.48 
L 337.965587 186.477734 
L 338.251103 186.470938 
L 338.536474 186.459612 
L 338.821631 186.44376 
L 339.106499 186.423386 
L 339.391009 186.398495 
L 339.675088 186.369092 
L 339.958664 186.335187 
L 340.241667 186.296786 
L 340.524025 186.2539 
L 340.805667 186.20654 
L 341.086522 186.154717 
L 341.36652 186.098444 
L 341.64559 186.037736 
L 341.923661 185.972608 
L 342.200664 185.903077 
L 342.476529 185.829159 
L 342.751186 185.750874 
L 343.024567 185.66824 
L 343.296602 185.58128 
L 343.567223 185.490015 
L 343.836363 185.394467 
L 344.103952 185.294661 
L 344.369924 185.190623 
L 344.634212 185.082377 
L 344.89675 184.969952 
L 345.15747 184.853376 
L 345.416308 184.732678 
L 345.673199 184.607888 
L 345.928077 184.479038 
L 346.180879 184.346161 
L 346.431541 184.209289 
L 346.68 184.068457 
L 346.926193 183.923701 
L 347.170058 183.775058 
L 347.411535 183.622564 
L 347.650561 183.466257 
L 347.887078 183.306178 
L 348.121024 183.142367 
L 348.352343 182.974865 
L 348.580974 182.803713 
L 348.806862 182.628956 
L 349.029948 182.450636 
L 349.250177 182.2688 
L 349.467493 182.083492 
L 349.681842 181.89476 
L 349.893169 181.702651 
L 350.101422 181.507213 
L 350.306548 181.308495 
L 350.508495 181.106548 
L 350.707213 180.901422 
L 350.902651 180.693169 
L 351.09476 180.481842 
L 351.283492 180.267493 
L 351.4688 180.050177 
L 351.650636 179.829948 
L 351.828956 179.606862 
L 352.003713 179.380974 
L 352.174865 179.152343 
L 352.342367 178.921024 
L 352.506178 178.687078 
L 352.666257 178.450561 
L 352.822564 178.211535 
L 352.975058 177.970058 
L 353.123701 177.726193 
L 353.268457 177.48 
L 353.409289 177.231541 
L 353.546161 176.980879 
L 353.679038 176.728077 
L 353.807888 176.473199 
L 353.932678 176.216308 
L 354.053376 175.95747 
L 354.169952 175.69675 
L 354.282377 175.434212 
L 354.390623 175.169924 
L 354.494661 174.903952 
L 354.594467 174.636363 
L 354.690015 174.367223 
L 354.78128 174.096602 
L 354.86824 173.824567 
L 354.950874 173.551186 
L 355.029159 173.276529 
L 355.103077 173.000664 
L 355.172608 172.723661 
L 355.237736 172.44559 
L 355.298444 172.16652 
L 355.354717 171.886522 
L 355.40654 171.605667 
L 355.4539 171.324025 
L 355.496786 171.041667 
L 355.535187 170.758664 
L 355.569092 170.475088 
L 355.598495 170.191009 
L 355.623386 169.906499 
L 355.64376 169.621631 
L 355.659612 169.336474 
L 355.670938 169.051103 
L 355.677734 168.765587 
L 355.68 168.48 
L 355.68 168.48 
L 355.677734 168.194413 
L 355.670938 167.908897 
L 355.659612 167.623526 
L 355.64376 167.338369 
L 355.623386 167.053501 
L 355.598495 166.768991 
L 355.569092 166.484912 
L 355.535187 166.201336 
L 355.496786 165.918333 
L 355.4539 165.635975 
L 355.40654 165.354333 
L 355.354717 165.073478 
L 355.298444 164.79348 
L 355.237736 164.51441 
L 355.172608 164.236339 
L 355.103077 163.959336 
L 355.029159 163.683471 
L 354.950874 163.408814 
L 354.86824 163.135433 
L 354.78128 162.863398 
L 354.690015 162.592777 
L 354.594467 162.323637 
L 354.494661 162.056048 
L 354.390623 161.790076 
L 354.282377 161.525788 
L 354.169952 161.26325 
L 354.053376 161.00253 
L 353.932678 160.743692 
L 353.807888 160.486801 
L 353.679038 160.231923 
L 353.546161 159.979121 
L 353.409289 159.728459 
L 353.268457 159.48 
L 353.123701 159.233807 
L 352.975058 158.989942 
L 352.822564 158.748465 
L 352.666257 158.509439 
L 352.506178 158.272922 
L 352.342367 158.038976 
L 352.174865 157.807657 
L 352.003713 157.579026 
L 351.828956 157.353138 
L 351.650636 157.130052 
L 351.4688 156.909823 
L 351.283492 156.692507 
L 351.09476 156.478158 
L 350.902651 156.266831 
L 350.707213 156.058578 
L 350.508495 155.853452 
L 350.306548 155.651505 
L 350.101422 155.452787 
L 349.893169 155.257349 
L 349.681842 155.06524 
L 349.467493 154.876508 
L 349.250177 154.6912 
L 349.029948 154.509364 
L 348.806862 154.331044 
L 348.580974 154.156287 
L 348.352343 153.985135 
L 348.121024 153.817633 
L 347.887078 153.653822 
L 347.650561 153.493743 
L 347.411535 153.337436 
L 347.170058 153.184942 
L 346.926193 153.036299 
L 346.68 152.891543 
L 346.431541 152.750711 
L 346.180879 152.613839 
L 345.928077 152.480962 
L 345.673199 152.352112 
L 345.416308 152.227322 
L 345.15747 152.106624 
L 344.89675 151.990048 
L 344.634212 151.877623 
L 344.369924 151.769377 
L 344.103952 151.665339 
L 343.836363 151.565533 
L 343.567223 151.469985 
L 343.296602 151.37872 
L 343.024567 151.29176 
L 342.751186 151.209126 
L 342.476529 151.130841 
L 342.200664 151.056923 
L 341.923661 150.987392 
L 341.64559 150.922264 
L 341.36652 150.861556 
L 341.086522 150.805283 
L 340.805667 150.75346 
L 340.524025 150.7061 
L 340.241667 150.663214 
L 339.958664 150.624813 
L 339.675088 150.590908 
L 339.391009 150.561505 
L 339.106499 150.536614 
L 338.821631 150.51624 
L 338.536474 150.500388 
L 338.251103 150.489062 
L 337.965587 150.482266 
L 337.68 150.48 
L 301.68 150.48 
L 301.394413 150.482266 
L 301.108897 150.489062 
L 300.823526 150.500388 
L 300.538369 150.51624 
L 300.253501 150.536614 
L 299.968991 150.561505 
L 299.684912 150.590908 
L 299.401336 150.624813 
L 299.118333 150.663214 
L 298.835975 150.7061 
L 298.554333 150.75346 
L 298.273478 150.805283 
L 297.99348 150.861556 
L 297.71441 150.922264 
L 297.436339 150.987392 
L 297.159336 151.056923 
L 296.883471 151.130841 
L 296.608814 151.209126 
L 296.335433 151.29176 
L 296.063398 151.37872 
L 295.792777 151.469985 
L 295.523637 151.565533 
L 295.256048 151.665339 
L 294.990076 151.769377 
L 294.725788 151.877623 
L 294.46325 151.990048 
L 294.20253 152.106624 
L 293.943692 152.227322 
L 293.686801 152.352112 
L 293.431923 152.480962 
L 293.179121 152.613839 
L 292.928459 152.750711 
L 292.68 152.891543 
L 292.433807 153.036299 
L 292.189942 153.184942 
L 291.948465 153.337436 
L 291.709439 153.493743 
L 291.472922 153.653822 
L 291.238976 153.817633 
L 291.007657 153.985135 
L 290.779026 154.156287 
L 290.553138 154.331044 
L 290.330052 154.509364 
L 290.109823 154.6912 
L 289.892507 154.876508 
L 289.678158 155.06524 
L 289.466831 155.257349 
L 289.258578 155.452787 
L 289.053452 155.651505 
L 288.851505 155.853452 
L 288.652787 156.058578 
L 288.457349 156.266831 
L 288.26524 156.478158 
L 288.076508 156.692507 
L 287.8912 156.909823 
L 287.709364 157.130052 
L 287.531044 157.353138 
L 287.356287 157.579026 
L 287.185135 157.807657 
L 287.017633 158.038976 
L 286.853822 158.272922 
L 286.693743 158.509439 
L 286.537436 158.748465 
L 286.384942 158.989942 
L 286.236299 159.233807 
L 286.091543 159.48 
L 285.950711 159.728459 
L 285.813839 159.979121 
L 285.680962 160.231923 
L 285.552112 160.486801 
L 285.427322 160.743692 
L 285.306624 161.00253 
L 285.190048 161.26325 
L 285.077623 161.525788 
L 284.969377 161.790076 
L 284.865339 162.056048 
L 284.765533 162.323637 
L 284.669985 162.592777 
L 284.57872 162.863398 
L 284.49176 163.135433 
L 284.409126 163.408814 
L 284.330841 163.683471 
L 284.256923 163.959336 
L 284.187392 164.236339 
L 284.122264 164.51441 
L 284.061556 164.79348 
L 284.005283 165.073478 
L 283.95346 165.354333 
L 283.9061 165.635975 
L 283.863214 165.918333 
L 283.824813 166.201336 
L 283.790908 166.484912 
L 283.761505 166.768991 
L 283.736614 167.053501 
L 283.71624 167.338369 
L 283.700388 167.623526 
L 283.689062 167.908897 
L 283.682266 168.194413 
L 283.68 168.48 
L 283.68 168.48 
L 283.682266 168.765587 
L 283.689062 169.051103 
L 283.700388 169.336474 
L 283.71624 169.621631 
L 283.736614 169.906499 
L 283.761505 170.191009 
L 283.790908 170.475088 
L 283.824813 170.758664 
L 283.863214 171.041667 
L 283.9061 171.324025 
L 283.95346 171.605667 
L 284.005283 171.886522 
L 284.061556 172.16652 
L 284.122264 172.44559 
L 284.187392 172.723661 
L 284.256923 173.000664 
L 284.330841 173.276529 
L 284.409126 173.551186 
L 284.49176 173.824567 
L 284.57872 174.096602 
L 284.669985 174.367223 
L 284.765533 174.636363 
L 284.865339 174.903952 
L 284.969377 175.169924 
L 285.077623 175.434212 
L 285.190048 175.69675 
L 285.306624 175.95747 
L 285.427322 176.216308 
L 285.552112 176.473199 
L 285.680962 176.728077 
L 285.813839 176.980879 
L 285.950711 177.231541 
L 286.091543 177.48 
L 286.236299 177.726193 
L 286.384942 177.970058 
L 286.537436 178.211535 
L 286.693743 178.450561 
L 286.853822 178.687078 
L 287.017633 178.921024 
L 287.185135 179.152343 
L 287.356287 179.380974 
L 287.531044 179.606862 
L 287.709364 179.829948 
L 287.8912 180.050177 
L 288.076508 180.267493 
L 288.26524 180.481842 
L 288.457349 180.693169 
L 288.652787 180.901422 
L 288.851505 181.106548 
L 289.053452 181.308495 
L 289.258578 181.507213 
L 289.466831 181.702651 
L 289.678158 181.89476 
L 289.892507 182.083492 
L 290.109823 182.2688 
L 290.330052 182.450636 
L 290.553138 182.628956 
L 290.779026 182.803713 
L 291.007657 182.974865 
L 291.238976 183.142367 
L 291.472922 183.306178 
L 291.709439 183.466257 
L 291.948465 183.622564 
L 292.189942 183.775058 
L 292.433807 183.923701 
L 292.68 184.068457 
L 292.928459 184.209289 
L 293.179121 184.346161 
L 293.431923 184.479038 
L 293.686801 184.607888 
L 293.943692 184.732678 
L 294.20253 184.853376 
L 294.46325 184.969952 
L 294.725788 185.082377 
L 294.990076 185.190623 
L 295.256048 185.294661 
L 295.523637 185.394467 
L 295.792777 185.490015 
L 296.063398 185.58128 
L 296.335433 185.66824 
L 296.608814 185.750874 
L 296.883471 185.829159 
L 297.159336 185.903077 
L 297.436339 185.972608 
L 297.71441 186.037736 
L 297.99348 186.098444 
L 298.273478 186.154717 
L 298.554333 186.20654 
L 298.835975 186.2539 
L 299.118333 186.296786 
L 299.401336 186.335187 
L 299.684912 186.369092 
L 299.968991 186.398495 
L 300.253501 186.423386 
L 300.538369 186.44376 
L 300.823526 186.459612 
L 301.108897 186.470938 
L 301.394413 186.477734 
L 301.68 186.48 
L 337.68 186.48 
z
" clip-path="url(#pc3209b9b0f)" style="fill: none; stroke: #000000; stroke-linecap: round"/>
   </g>
   <g id="patch_7">
    <path d="M 85.68 321.48 
L 85.965587 321.477734 
L 86.251103 321.470938 
L 86.536474 321.459612 
L 86.821631 321.44376 
L 87.106499 321.423386 
L 87.391009 321.398495 
L 87.675088 321.369092 
L 87.958664 321.335187 
L 88.241667 321.296786 
L 88.524025 321.2539 
L 88.805667 321.20654 
L 89.086522 321.154717 
L 89.36652 321.098444 
L 89.64559 321.037736 
L 89.923661 320.972608 
L 90.200664 320.903077 
L 90.476529 320.829159 
L 90.751186 320.750874 
L 91.024567 320.66824 
L 91.296602 320.58128 
L 91.567223 320.490015 
L 91.836363 320.394467 
L 92.103952 320.294661 
L 92.369924 320.190623 
L 92.634212 320.082377 
L 92.89675 319.969952 
L 93.15747 319.853376 
L 93.416308 319.732678 
L 93.673199 319.607888 
L 93.928077 319.479038 
L 94.180879 319.346161 
L 94.431541 319.209289 
L 94.68 319.068457 
L 94.926193 318.923701 
L 95.170058 318.775058 
L 95.411535 318.622564 
L 95.650561 318.466257 
L 95.887078 318.306178 
L 96.121024 318.142367 
L 96.352343 317.974865 
L 96.580974 317.803713 
L 96.806862 317.628956 
L 97.029948 317.450636 
L 97.250177 317.2688 
L 97.467493 317.083492 
L 97.681842 316.89476 
L 97.893169 316.702651 
L 98.101422 316.507213 
L 98.306548 316.308495 
L 98.508495 316.106548 
L 98.707213 315.901422 
L 98.902651 315.693169 
L 99.09476 315.481842 
L 99.283492 315.267493 
L 99.4688 315.050177 
L 99.650636 314.829948 
L 99.828956 314.606862 
L 100.003713 314.380974 
L 100.174865 314.152343 
L 100.342367 313.921024 
L 100.506178 313.687078 
L 100.666257 313.450561 
L 100.822564 313.211535 
L 100.975058 312.970058 
L 101.123701 312.726193 
L 101.268457 312.48 
L 101.409289 312.231541 
L 101.546161 311.980879 
L 101.679038 311.728077 
L 101.807888 311.473199 
L 101.932678 311.216308 
L 102.053376 310.95747 
L 102.169952 310.69675 
L 102.282377 310.434212 
L 102.390623 310.169924 
L 102.494661 309.903952 
L 102.594467 309.636363 
L 102.690015 309.367223 
L 102.78128 309.096602 
L 102.86824 308.824567 
L 102.950874 308.551186 
L 103.029159 308.276529 
L 103.103077 308.000664 
L 103.172608 307.723661 
L 103.237736 307.44559 
L 103.298444 307.16652 
L 103.354717 306.886522 
L 103.40654 306.605667 
L 103.4539 306.324025 
L 103.496786 306.041667 
L 103.535187 305.758664 
L 103.569092 305.475088 
L 103.598495 305.191009 
L 103.623386 304.906499 
L 103.64376 304.621631 
L 103.659612 304.336474 
L 103.670938 304.051103 
L 103.677734 303.765587 
L 103.68 303.48 
L 103.68 303.48 
L 103.677734 303.194413 
L 103.670938 302.908897 
L 103.659612 302.623526 
L 103.64376 302.338369 
L 103.623386 302.053501 
L 103.598495 301.768991 
L 103.569092 301.484912 
L 103.535187 301.201336 
L 103.496786 300.918333 
L 103.4539 300.635975 
L 103.40654 300.354333 
L 103.354717 300.073478 
L 103.298444 299.79348 
L 103.237736 299.51441 
L 103.172608 299.236339 
L 103.103077 298.959336 
L 103.029159 298.683471 
L 102.950874 298.408814 
L 102.86824 298.135433 
L 102.78128 297.863398 
L 102.690015 297.592777 
L 102.594467 297.323637 
L 102.494661 297.056048 
L 102.390623 296.790076 
L 102.282377 296.525788 
L 102.169952 296.26325 
L 102.053376 296.00253 
L 101.932678 295.743692 
L 101.807888 295.486801 
L 101.679038 295.231923 
L 101.546161 294.979121 
L 101.409289 294.728459 
L 101.268457 294.48 
L 101.123701 294.233807 
L 100.975058 293.989942 
L 100.822564 293.748465 
L 100.666257 293.509439 
L 100.506178 293.272922 
L 100.342367 293.038976 
L 100.174865 292.807657 
L 100.003713 292.579026 
L 99.828956 292.353138 
L 99.650636 292.130052 
L 99.4688 291.909823 
L 99.283492 291.692507 
L 99.09476 291.478158 
L 98.902651 291.266831 
L 98.707213 291.058578 
L 98.508495 290.853452 
L 98.306548 290.651505 
L 98.101422 290.452787 
L 97.893169 290.257349 
L 97.681842 290.06524 
L 97.467493 289.876508 
L 97.250177 289.6912 
L 97.029948 289.509364 
L 96.806862 289.331044 
L 96.580974 289.156287 
L 96.352343 288.985135 
L 96.121024 288.817633 
L 95.887078 288.653822 
L 95.650561 288.493743 
L 95.411535 288.337436 
L 95.170058 288.184942 
L 94.926193 288.036299 
L 94.68 287.891543 
L 94.431541 287.750711 
L 94.180879 287.613839 
L 93.928077 287.480962 
L 93.673199 287.352112 
L 93.416308 287.227322 
L 93.15747 287.106624 
L 92.89675 286.990048 
L 92.634212 286.877623 
L 92.369924 286.769377 
L 92.103952 286.665339 
L 91.836363 286.565533 
L 91.567223 286.469985 
L 91.296602 286.37872 
L 91.024567 286.29176 
L 90.751186 286.209126 
L 90.476529 286.130841 
L 90.200664 286.056923 
L 89.923661 285.987392 
L 89.64559 285.922264 
L 89.36652 285.861556 
L 89.086522 285.805283 
L 88.805667 285.75346 
L 88.524025 285.7061 
L 88.241667 285.663214 
L 87.958664 285.624813 
L 87.675088 285.590908 
L 87.391009 285.561505 
L 87.106499 285.536614 
L 86.821631 285.51624 
L 86.536474 285.500388 
L 86.251103 285.489062 
L 85.965587 285.482266 
L 85.68 285.48 
L 49.68 285.48 
L 49.394413 285.482266 
L 49.108897 285.489062 
L 48.823526 285.500388 
L 48.538369 285.51624 
L 48.253501 285.536614 
L 47.968991 285.561505 
L 47.684912 285.590908 
L 47.401336 285.624813 
L 47.118333 285.663214 
L 46.835975 285.7061 
L 46.554333 285.75346 
L 46.273478 285.805283 
L 45.99348 285.861556 
L 45.71441 285.922264 
L 45.436339 285.987392 
L 45.159336 286.056923 
L 44.883471 286.130841 
L 44.608814 286.209126 
L 44.335433 286.29176 
L 44.063398 286.37872 
L 43.792777 286.469985 
L 43.523637 286.565533 
L 43.256048 286.665339 
L 42.990076 286.769377 
L 42.725788 286.877623 
L 42.46325 286.990048 
L 42.20253 287.106624 
L 41.943692 287.227322 
L 41.686801 287.352112 
L 41.431923 287.480962 
L 41.179121 287.613839 
L 40.928459 287.750711 
L 40.68 287.891543 
L 40.433807 288.036299 
L 40.189942 288.184942 
L 39.948465 288.337436 
L 39.709439 288.493743 
L 39.472922 288.653822 
L 39.238976 288.817633 
L 39.007657 288.985135 
L 38.779026 289.156287 
L 38.553138 289.331044 
L 38.330052 289.509364 
L 38.109823 289.6912 
L 37.892507 289.876508 
L 37.678158 290.06524 
L 37.466831 290.257349 
L 37.258578 290.452787 
L 37.053452 290.651505 
L 36.851505 290.853452 
L 36.652787 291.058578 
L 36.457349 291.266831 
L 36.26524 291.478158 
L 36.076508 291.692507 
L 35.8912 291.909823 
L 35.709364 292.130052 
L 35.531044 292.353138 
L 35.356287 292.579026 
L 35.185135 292.807657 
L 35.017633 293.038976 
L 34.853822 293.272922 
L 34.693743 293.509439 
L 34.537436 293.748465 
L 34.384942 293.989942 
L 34.236299 294.233807 
L 34.091543 294.48 
L 33.950711 294.728459 
L 33.813839 294.979121 
L 33.680962 295.231923 
L 33.552112 295.486801 
L 33.427322 295.743692 
L 33.306624 296.00253 
L 33.190048 296.26325 
L 33.077623 296.525788 
L 32.969377 296.790076 
L 32.865339 297.056048 
L 32.765533 297.323637 
L 32.669985 297.592777 
L 32.57872 297.863398 
L 32.49176 298.135433 
L 32.409126 298.408814 
L 32.330841 298.683471 
L 32.256923 298.959336 
L 32.187392 299.236339 
L 32.122264 299.51441 
L 32.061556 299.79348 
L 32.005283 300.073478 
L 31.95346 300.354333 
L 31.9061 300.635975 
L 31.863214 300.918333 
L 31.824813 301.201336 
L 31.790908 301.484912 
L 31.761505 301.768991 
L 31.736614 302.053501 
L 31.71624 302.338369 
L 31.700388 302.623526 
L 31.689062 302.908897 
L 31.682266 303.194413 
L 31.68 303.48 
L 31.68 303.48 
L 31.682266 303.765587 
L 31.689062 304.051103 
L 31.700388 304.336474 
L 31.71624 304.621631 
L 31.736614 304.906499 
L 31.761505 305.191009 
L 31.790908 305.475088 
L 31.824813 305.758664 
L 31.863214 306.041667 
L 31.9061 306.324025 
L 31.95346 306.605667 
L 32.005283 306.886522 
L 32.061556 307.16652 
L 32.122264 307.44559 
L 32.187392 307.723661 
L 32.256923 308.000664 
L 32.330841 308.276529 
L 32.409126 308.551186 
L 32.49176 308.824567 
L 32.57872 309.096602 
L 32.669985 309.367223 
L 32.765533 309.636363 
L 32.865339 309.903952 
L 32.969377 310.169924 
L 33.077623 310.434212 
L 33.190048 310.69675 
L 33.306624 310.95747 
L 33.427322 311.216308 
L 33.552112 311.473199 
L 33.680962 311.728077 
L 33.813839 311.980879 
L 33.950711 312.231541 
L 34.091543 312.48 
L 34.236299 312.726193 
L 34.384942 312.970058 
L 34.537436 313.211535 
L 34.693743 313.450561 
L 34.853822 313.687078 
L 35.017633 313.921024 
L 35.185135 314.152343 
L 35.356287 314.380974 
L 35.531044 314.606862 
L 35.709364 314.829948 
L 35.8912 315.050177 
L 36.076508 315.267493 
L 36.26524 315.481842 
L 36.457349 315.693169 
L 36.652787 315.901422 
L 36.851505 316.106548 
L 37.053452 316.308495 
L 37.258578 316.507213 
L 37.466831 316.702651 
L 37.678158 316.89476 
L 37.892507 317.083492 
L 38.109823 317.2688 
L 38.330052 317.450636 
L 38.553138 317.628956 
L 38.779026 317.803713 
L 39.007657 317.974865 
L 39.238976 318.142367 
L 39.472922 318.306178 
L 39.709439 318.466257 
L 39.948465 318.622564 
L 40.189942 318.775058 
L 40.433807 318.923701 
L 40.68 319.068457 
L 40.928459 319.209289 
L 41.179121 319.346161 
L 41.431923 319.479038 
L 41.686801 319.607888 
L 41.943692 319.732678 
L 42.20253 319.853376 
L 42.46325 319.969952 
L 42.725788 320.082377 
L 42.990076 320.190623 
L 43.256048 320.294661 
L 43.523637 320.394467 
L 43.792777 320.490015 
L 44.063398 320.58128 
L 44.335433 320.66824 
L 44.608814 320.750874 
L 44.883471 320.829159 
L 45.159336 320.903077 
L 45.436339 320.972608 
L 45.71441 321.037736 
L 45.99348 321.098444 
L 46.273478 321.154717 
L 46.554333 321.20654 
L 46.835975 321.2539 
L 47.118333 321.296786 
L 47.401336 321.335187 
L 47.684912 321.369092 
L 47.968991 321.398495 
L 48.253501 321.423386 
L 48.538369 321.44376 
L 48.823526 321.459612 
L 49.108897 321.470938 
L 49.394413 321.477734 
L 49.68 321.48 
L 85.68 321.48 
z
" clip-path="url(#pc3209b9b0f)" style="fill: none; stroke: #000000; stroke-linecap: round"/>
   </g>
   <g id="line2d_1">
    <path d="M 67.68 40.68 
L 67.68 54.18 
L 67.68 58.68 
" clip-path="url(#pc3209b9b0f)" style="fill: none; stroke: #000000; stroke-linecap: round"/>
   </g>
   <g id="patch_8">
    <path d="M 70.38 58.68 
L 67.68 67.68 
L 64.98 58.68 
z
" clip-path="url(#pc3209b9b0f)"/>
   </g>
   <g id="line2d_2">
    <path d="M 130.68 89.28 
L 157.68 89.28 
L 175.68 89.28 
" clip-path="url(#pc3209b9b0f)" style="fill: none; stroke: #000000; stroke-linecap: round"/>
   </g>
   <g id="patch_9">
    <path d="M 175.68 86.58 
L 184.68 89.28 
L 175.68 91.98 
z
" clip-path="url(#pc3209b9b0f)"/>
   </g>
   <g id="line2d_3">
    <path d="M 184.68 89.28 
L 184.68 73.08 
L 256.68 73.08 
L 256.68 105.48 
L 184.68 105.48 
L 184.68 89.28 
" clip-path="url(#pc3209b9b0f)" style="fill: none; stroke: #000000; stroke-linecap: round"/>
   </g>
   <g id="line2d_4">
    <path d="M 256.68 89.28 
L 270.18 89.28 
L 274.68 89.28 
" clip-path="url(#pc3209b9b0f)" style="fill: none; stroke: #000000; stroke-linecap: round"/>
   </g>
   <g id="patch_10">
    <path d="M 274.68 86.58 
L 283.68 89.28 
L 274.68 91.98 
z
" clip-path="url(#pc3209b9b0f)"/>
   </g>
   <g id="line2d_5">
    <path d="M 67.68 110.88 
L 67.68 128.88 
L 67.68 137.88 
" clip-path="url(#pc3209b9b0f)" style="fill: none; stroke: #000000; stroke-linecap: round"/>
   </g>
   <g id="patch_11">
    <path d="M 70.38 137.88 
L 67.68 146.88 
L 64.98 137.88 
z
" clip-path="url(#pc3209b9b0f)"/>
   </g>
   <g id="line2d_6">
    <path d="M 130.68 168.48 
L 157.68 168.48 
L 175.68 168.48 
" clip-path="url(#pc3209b9b0f)" style="fill: none; stroke: #000000; stroke-linecap: round"/>
   </g>
   <g id="patch_12">
    <path d="M 175.68 165.78 
L 184.68 168.48 
L 175.68 171.18 
z
" clip-path="url(#pc3209b9b0f)"/>
   </g>
   <g id="line2d_7">
    <path d="M 184.68 168.48 
L 184.68 152.28 
L 256.68 152.28 
L 256.68 184.68 
L 184.68 184.68 
L 184.68 168.48 
" clip-path="url(#pc3209b9b0f)" style="fill: none; stroke: #000000; stroke-linecap: round"/>
   </g>
   <g id="line2d_8">
    <path d="M 256.68 168.48 
L 270.18 168.48 
L 274.68 168.48 
" clip-path="url(#pc3209b9b0f)" style="fill: none; stroke: #000000; stroke-linecap: round"/>
   </g>
   <g id="patch_13">
    <path d="M 274.68 165.78 
L 283.68 168.48 
L 274.68 171.18 
z
" clip-path="url(#pc3209b9b0f)"/>
   </g>
   <g id="line2d_9">
    <path d="M 67.68 190.08 
L 67.68 208.08 
L 67.68 217.08 
" clip-path="url(#pc3209b9b0f)" style="fill: none; stroke: #000000; stroke-linecap: round"/>
   </g>
   <g id="patch_14">
    <path d="M 70.38 217.08 
L 67.68 226.08 
L 64.98 217.08 
z
" clip-path="url(#pc3209b9b0f)"/>
   </g>
   <g id="line2d_10">
    <path d="M 31.68 242.28 
L 31.68 226.08 
L 103.68 226.08 
L 103.68 258.48 
L 31.68 258.48 
L 31.68 242.28 
" clip-path="url(#pc3209b9b0f)" style="fill: none; stroke: #000000; stroke-linecap: round"/>
   </g>
   <g id="line2d_11">
    <path d="M 67.68 258.48 
L 67.68 271.98 
L 67.68 276.48 
" clip-path="url(#pc3209b9b0f)" style="fill: none; stroke: #000000; stroke-linecap: round"/>
   </g>
   <g id="patch_15">
    <path d="M 70.38 276.48 
L 67.68 285.48 
L 64.98 276.48 
z
" clip-path="url(#pc3209b9b0f)"/>
   </g>
   <g id="text_1">
    <!-- START -->
    <g transform="translate(46.202031 26.593438) scale(0.14 -0.14)">
     <defs>
      <path id="IPAexGothic-53" d="M 2919 3641 
Q 2563 4259 1853 4259 
Q 1453 4259 1213 4009 
Q 1028 3803 1028 3534 
Q 1028 3238 1266 3047 
Q 1444 2913 1984 2688 
L 2200 2597 
Q 2925 2306 3191 1953 
Q 3422 1644 3422 1259 
Q 3422 644 2969 288 
Q 2559 -31 1931 -31 
Q 881 -31 313 766 
L 753 1100 
Q 1203 459 1938 459 
Q 2288 459 2534 625 
Q 2841 847 2841 1216 
Q 2841 1503 2616 1728 
Q 2375 1959 1728 2206 
L 1541 2278 
Q 453 2694 453 3481 
Q 453 4006 806 4347 
Q 1203 4725 1863 4725 
Q 2841 4725 3359 3956 
L 2919 3641 
z
" transform="scale(0.015625)"/>
      <path id="IPAexGothic-54" d="M 3866 4141 
L 2175 4141 
L 2175 63 
L 1606 63 
L 1606 4141 
L -31 4141 
L -31 4634 
L 3866 4634 
L 3866 4141 
z
" transform="scale(0.015625)"/>
      <path id="IPAexGothic-41" d="M 4056 63 
L 3444 63 
L 2938 1409 
L 1100 1409 
L 603 63 
L -6 63 
L 1806 4666 
L 2259 4666 
L 4056 63 
z
M 2778 1863 
L 2316 3078 
Q 2125 3588 2028 4000 
L 2009 4000 
Q 1897 3563 1716 3078 
L 1263 1863 
L 2778 1863 
z
" transform="scale(0.015625)"/>
      <path id="IPAexGothic-52" d="M 4072 63 
L 3394 63 
Q 3138 641 2828 1197 
Q 2584 1641 2344 1825 
Q 2050 2044 1625 2044 
L 1172 2044 
L 1172 63 
L 609 63 
L 609 4634 
L 2009 4634 
Q 2713 4634 3131 4378 
Q 3688 4044 3688 3381 
Q 3688 2784 3181 2459 
Q 2906 2272 2522 2216 
L 2522 2197 
Q 2941 2050 3247 1581 
Q 3516 1166 4072 63 
z
M 1172 2478 
L 1869 2478 
Q 3106 2478 3106 3369 
Q 3106 4181 1928 4181 
L 1172 4181 
L 1172 2478 
z
" transform="scale(0.015625)"/>
     </defs>
     <use xlink:href="#IPAexGothic-53"/>
     <use xlink:href="#IPAexGothic-54" x="58.496094"/>
     <use xlink:href="#IPAexGothic-41" x="118.408203"/>
     <use xlink:href="#IPAexGothic-52" x="182.128906"/>
     <use xlink:href="#IPAexGothic-54" x="246.923828"/>
    </g>
   </g>
   <g id="text_2">
    <!-- False -->
    <g transform="translate(72.36 126.046875) scale(0.14 -0.14)">
     <defs>
      <path id="IPAexGothic-46" d="M 3469 4141 
L 1172 4141 
L 1172 2656 
L 3206 2656 
L 3206 2188 
L 1172 2188 
L 1172 63 
L 609 63 
L 609 4634 
L 3469 4634 
L 3469 4141 
z
" transform="scale(0.015625)"/>
      <path id="IPAexGothic-61" d="M 3156 63 
L 2672 63 
Q 2559 303 2531 556 
L 2509 556 
Q 2147 -25 1428 -25 
Q 934 -25 622 288 
Q 347 563 347 959 
Q 347 1947 2050 1997 
L 2478 2009 
L 2478 2175 
Q 2478 2509 2288 2700 
Q 2088 2900 1775 2900 
Q 1238 2900 969 2378 
L 494 2597 
Q 938 3328 1788 3328 
Q 2375 3328 2691 3000 
Q 2984 2706 2984 2169 
L 2984 997 
Q 2984 400 3156 63 
z
M 2491 1625 
L 2141 1619 
Q 903 1591 903 953 
Q 903 728 1050 581 
Q 1231 403 1525 403 
Q 1934 403 2234 703 
Q 2491 969 2491 1344 
L 2491 1625 
z
" transform="scale(0.015625)"/>
      <path id="IPAexGothic-6c" d="M 1131 63 
L 581 63 
L 581 4794 
L 1131 4794 
L 1131 63 
z
" transform="scale(0.015625)"/>
      <path id="IPAexGothic-73" d="M 2234 2547 
Q 1938 2931 1484 2931 
Q 891 2931 891 2475 
Q 891 2153 1531 1944 
L 1741 1875 
Q 2650 1578 2650 894 
Q 2650 434 2272 172 
Q 1972 -31 1497 -31 
Q 766 -31 256 503 
L 603 819 
Q 997 397 1516 397 
Q 2131 397 2131 875 
Q 2131 1238 1453 1478 
L 1234 1553 
Q 378 1853 378 2431 
Q 378 2797 628 3047 
Q 928 3347 1453 3347 
Q 2156 3347 2606 2859 
L 2234 2547 
z
" transform="scale(0.015625)"/>
      <path id="IPAexGothic-65" d="M 863 1594 
Q 891 1041 1209 722 
Q 1534 397 1997 397 
Q 2606 397 2963 966 
L 3322 728 
Q 2869 -31 1931 -31 
Q 1222 -31 766 422 
Q 306 884 306 1641 
Q 306 2444 788 2925 
Q 1216 3353 1856 3353 
Q 2459 3353 2866 2956 
Q 3322 2494 3322 1722 
L 3322 1594 
L 863 1594 
z
M 2756 1997 
Q 2709 2431 2450 2681 
Q 2194 2938 1844 2938 
Q 1438 2938 1150 2591 
Q 953 2356 894 1997 
L 2756 1997 
z
" transform="scale(0.015625)"/>
     </defs>
     <use xlink:href="#IPAexGothic-46"/>
     <use xlink:href="#IPAexGothic-61" x="57.177734"/>
     <use xlink:href="#IPAexGothic-6c" x="112.158203"/>
     <use xlink:href="#IPAexGothic-73" x="139.160156"/>
     <use xlink:href="#IPAexGothic-65" x="185.351562"/>
    </g>
   </g>
   <g id="text_3">
    <!-- True -->
    <g transform="translate(135.36 81.94) scale(0.14 -0.14)">
     <defs>
      <path id="IPAexGothic-72" d="M 2309 3316 
L 2213 2769 
Q 2106 2791 2022 2791 
Q 1653 2791 1413 2444 
Q 1113 2006 1113 1675 
L 1113 63 
L 563 63 
L 563 3250 
L 1081 3250 
L 1056 2303 
L 1069 2303 
Q 1422 3341 2097 3341 
Q 2206 3341 2309 3316 
z
" transform="scale(0.015625)"/>
      <path id="IPAexGothic-75" d="M 3284 63 
L 2772 63 
L 2772 644 
Q 2300 0 1625 0 
Q 1072 0 763 375 
Q 519 678 519 1241 
L 519 3250 
L 1069 3250 
L 1069 1259 
Q 1069 466 1734 466 
Q 2406 466 2734 1291 
L 2734 3250 
L 3284 3250 
L 3284 63 
z
" transform="scale(0.015625)"/>
     </defs>
     <use xlink:href="#IPAexGothic-54"/>
     <use xlink:href="#IPAexGothic-72" x="59.912109"/>
     <use xlink:href="#IPAexGothic-75" x="96.923828"/>
     <use xlink:href="#IPAexGothic-65" x="157.324219"/>
    </g>
   </g>
   <g id="text_4">
    <!-- $x=0$ ? -->
    <g transform="translate(44.72 93.193438) scale(0.14 -0.14)">
     <defs>
      <path id="DejaVuSans-Oblique-78" d="M 3841 3500 
L 2234 1784 
L 3219 0 
L 2559 0 
L 1819 1388 
L 531 0 
L -166 0 
L 1556 1844 
L 641 3500 
L 1300 3500 
L 1972 2234 
L 3144 3500 
L 3841 3500 
z
" transform="scale(0.015625)"/>
      <path id="DejaVuSans-3d" d="M 678 2906 
L 4684 2906 
L 4684 2381 
L 678 2381 
L 678 2906 
z
M 678 1631 
L 4684 1631 
L 4684 1100 
L 678 1100 
L 678 1631 
z
" transform="scale(0.015625)"/>
      <path id="DejaVuSans-30" d="M 2034 4250 
Q 1547 4250 1301 3770 
Q 1056 3291 1056 2328 
Q 1056 1369 1301 889 
Q 1547 409 2034 409 
Q 2525 409 2770 889 
Q 3016 1369 3016 2328 
Q 3016 3291 2770 3770 
Q 2525 4250 2034 4250 
z
M 2034 4750 
Q 2819 4750 3233 4129 
Q 3647 3509 3647 2328 
Q 3647 1150 3233 529 
Q 2819 -91 2034 -91 
Q 1250 -91 836 529 
Q 422 1150 422 2328 
Q 422 3509 836 4129 
Q 1250 4750 2034 4750 
z
" transform="scale(0.015625)"/>
      <path id="IPAexGothic-20" transform="scale(0.015625)"/>
      <path id="IPAexGothic-3f" d="M 225 3425 
Q 503 4725 1763 4725 
Q 2413 4725 2803 4334 
Q 3144 3994 3144 3516 
Q 3144 3081 2838 2716 
Q 2703 2563 2344 2266 
L 2216 2156 
Q 1888 1878 1888 1363 
L 1888 1209 
L 1422 1209 
L 1422 1422 
Q 1422 2050 1881 2491 
L 2022 2625 
L 2075 2669 
Q 2575 3122 2575 3516 
Q 2575 3822 2363 4041 
Q 2128 4278 1763 4278 
Q 963 4278 725 3309 
L 225 3425 
z
M 1978 63 
L 1325 63 
L 1325 728 
L 1978 728 
L 1978 63 
z
" transform="scale(0.015625)"/>
     </defs>
     <use xlink:href="#DejaVuSans-Oblique-78" transform="translate(0 0.78125)"/>
     <use xlink:href="#DejaVuSans-3d" transform="translate(78.662109 0.78125)"/>
     <use xlink:href="#DejaVuSans-30" transform="translate(181.933594 0.78125)"/>
     <use xlink:href="#IPAexGothic-20" transform="translate(245.556641 0.78125)"/>
     <use xlink:href="#IPAexGothic-3f" transform="translate(272.558594 0.78125)"/>
    </g>
   </g>
   <g id="text_5">
    <!-- $0$ -->
    <g transform="translate(216.2 93.193438) scale(0.14 -0.14)">
     <use xlink:href="#DejaVuSans-30" transform="translate(0 0.78125)"/>
    </g>
   </g>
   <g id="text_6">
    <!-- END -->
    <g transform="translate(304.896875 93.193438) scale(0.14 -0.14)">
     <defs>
      <path id="IPAexGothic-45" d="M 3547 63 
L 609 63 
L 609 4634 
L 3469 4634 
L 3469 4147 
L 1166 4147 
L 1166 2650 
L 3206 2650 
L 3206 2191 
L 1166 2191 
L 1166 556 
L 3547 556 
L 3547 63 
z
" transform="scale(0.015625)"/>
      <path id="IPAexGothic-4e" d="M 4244 63 
L 3731 63 
L 1697 3150 
Q 1466 3500 1141 4097 
L 1116 4097 
L 1128 3797 
Q 1159 2803 1159 2469 
L 1159 63 
L 609 63 
L 609 4634 
L 1366 4634 
L 3113 1978 
Q 3453 1447 3713 966 
L 3738 966 
Q 3694 1897 3694 2469 
L 3694 4634 
L 4244 4634 
L 4244 63 
z
" transform="scale(0.015625)"/>
      <path id="IPAexGothic-44" d="M 609 4634 
L 1984 4634 
Q 3159 4634 3791 4050 
Q 4456 3444 4456 2356 
Q 4456 1047 3516 441 
Q 2925 63 1941 63 
L 609 63 
L 609 4634 
z
M 1172 556 
L 1894 556 
Q 3853 556 3853 2356 
Q 3853 4147 1928 4147 
L 1172 4147 
L 1172 556 
z
" transform="scale(0.015625)"/>
     </defs>
     <use xlink:href="#IPAexGothic-45"/>
     <use xlink:href="#IPAexGothic-4e" x="59.521484"/>
     <use xlink:href="#IPAexGothic-44" x="135.498047"/>
    </g>
   </g>
   <g id="text_7">
    <!-- False -->
    <g transform="translate(72.36 205.246875) scale(0.14 -0.14)">
     <use xlink:href="#IPAexGothic-46"/>
     <use xlink:href="#IPAexGothic-61" x="57.177734"/>
     <use xlink:href="#IPAexGothic-6c" x="112.158203"/>
     <use xlink:href="#IPAexGothic-73" x="139.160156"/>
     <use xlink:href="#IPAexGothic-65" x="185.351562"/>
    </g>
   </g>
   <g id="text_8">
    <!-- True -->
    <g transform="translate(135.36 161.14) scale(0.14 -0.14)">
     <use xlink:href="#IPAexGothic-54"/>
     <use xlink:href="#IPAexGothic-72" x="59.912109"/>
     <use xlink:href="#IPAexGothic-75" x="96.923828"/>
     <use xlink:href="#IPAexGothic-65" x="157.324219"/>
    </g>
   </g>
   <g id="text_9">
    <!-- $x&gt;0$ ? -->
    <g transform="translate(44.72 172.393438) scale(0.14 -0.14)">
     <defs>
      <path id="DejaVuSans-3e" d="M 678 3150 
L 678 3719 
L 4684 2266 
L 4684 1747 
L 678 294 
L 678 863 
L 3897 2003 
L 678 3150 
z
" transform="scale(0.015625)"/>
     </defs>
     <use xlink:href="#DejaVuSans-Oblique-78" transform="translate(0 0.78125)"/>
     <use xlink:href="#DejaVuSans-3e" transform="translate(78.662109 0.78125)"/>
     <use xlink:href="#DejaVuSans-30" transform="translate(181.933594 0.78125)"/>
     <use xlink:href="#IPAexGothic-20" transform="translate(245.556641 0.78125)"/>
     <use xlink:href="#IPAexGothic-3f" transform="translate(272.558594 0.78125)"/>
    </g>
   </g>
   <g id="text_10">
    <!-- $x$ -->
    <g transform="translate(216.48 172.393438) scale(0.14 -0.14)">
     <use xlink:href="#DejaVuSans-Oblique-78" transform="translate(0 0.3125)"/>
    </g>
   </g>
   <g id="text_11">
    <!-- END -->
    <g transform="translate(304.896875 172.393438) scale(0.14 -0.14)">
     <use xlink:href="#IPAexGothic-45"/>
     <use xlink:href="#IPAexGothic-4e" x="59.521484"/>
     <use xlink:href="#IPAexGothic-44" x="135.498047"/>
    </g>
   </g>
   <g id="text_12">
    <!-- $-x$ -->
    <g transform="translate(57.67 246.193438) scale(0.14 -0.14)">
     <defs>
      <path id="DejaVuSans-2212" d="M 678 2272 
L 4684 2272 
L 4684 1741 
L 678 1741 
L 678 2272 
z
" transform="scale(0.015625)"/>
     </defs>
     <use xlink:href="#DejaVuSans-2212" transform="translate(0 0.3125)"/>
     <use xlink:href="#DejaVuSans-Oblique-78" transform="translate(83.789062 0.3125)"/>
    </g>
   </g>
   <g id="text_13">
    <!-- END -->
    <g transform="translate(52.896875 307.393438) scale(0.14 -0.14)">
     <use xlink:href="#IPAexGothic-45"/>
     <use xlink:href="#IPAexGothic-4e" x="59.521484"/>
     <use xlink:href="#IPAexGothic-44" x="135.498047"/>
    </g>
   </g>
  </g>
 </g>
 <defs>
  <clipPath id="pc3209b9b0f">
   <rect x="0" y="0" width="360.36" height="326.16"/>
  </clipPath>
 </defs>
</svg>