<?xml version="1.0" encoding="utf-8" standalone="no"?>
<!DOCTYPE svg PUBLIC "-//W3C//DTD SVG 1.1//EN"
  "http://www.w3.org/Graphics/SVG/1.1/DTD/svg11.dtd">
<svg xmlns:xlink="http://www.w3.org/1999/xlink" width="306.36pt" height="333.36pt" viewBox="0 0 306.36 333.36" xmlns="http://www.w3.org/2000/svg" version="1.1">
 <metadata>
  <rdf:RDF xmlns:dc="http://purl.org/dc/elements/1.1/" xmlns:cc="http://creativecommons.org/ns#" xmlns:rdf="http://www.w3.org/1999/02/22-rdf-syntax-ns#">
   <cc:Work>
    <dc:type rdf:resource="http://purl.org/dc/dcmitype/StillImage"/>
    <dc:date>2024-08-08T03:05:42.773831</dc:date>
    <dc:format>image/svg+xml</dc:format>
    <dc:creator>
     <cc:Agent>
      <dc:title>Matplotlib v3.9.1.post1, https://matplotlib.org/</dc:title>
     </cc:Agent>
    </dc:creator>
   </cc:Work>
  </rdf:RDF>
 </metadata>
 <defs>
  <style type="text/css">*{stroke-linejoin: round; stroke-linecap: butt}</style>
 </defs>
 <g id="figure_1">
  <g id="patch_1">
   <path d="M 0 333.36 
L 306.36 333.36 
L 306.36 0 
L 0 0 
z
" style="fill: #ffffff"/>
  </g>
  <g id="axes_1">
   <g id="patch_2">
    <path d="M 130.68 40.68 
L 130.965587 40.677734 
L 131.251103 40.670938 
L 131.536474 40.659612 
L 131.821631 40.64376 
L 132.106499 40.623386 
L 132.391009 40.598495 
L 132.675088 40.569092 
L 132.958664 40.535187 
L 133.241667 40.496786 
L 133.524025 40.4539 
L 133.805667 40.40654 
L 134.086522 40.354717 
L 134.36652 40.298444 
L 134.64559 40.237736 
L 134.923661 40.172608 
L 135.200664 40.103077 
L 135.476529 40.029159 
L 135.751186 39.950874 
L 136.024567 39.86824 
L 136.296602 39.78128 
L 136.567223 39.690015 
L 136.836363 39.594467 
L 137.103952 39.494661 
L 137.369924 39.390623 
L 137.634212 39.282377 
L 137.89675 39.169952 
L 138.15747 39.053376 
L 138.416308 38.932678 
L 138.673199 38.807888 
L 138.928077 38.679038 
L 139.180879 38.546161 
L 139.431541 38.409289 
L 139.68 38.268457 
L 139.926193 38.123701 
L 140.170058 37.975058 
L 140.411535 37.822564 
L 140.650561 37.666257 
L 140.887078 37.506178 
L 141.121024 37.342367 
L 141.352343 37.174865 
L 141.580974 37.003713 
L 141.806862 36.828956 
L 142.029948 36.650636 
L 142.250177 36.4688 
L 142.467493 36.283492 
L 142.681842 36.09476 
L 142.893169 35.902651 
L 143.101422 35.707213 
L 143.306548 35.508495 
L 143.508495 35.306548 
L 143.707213 35.101422 
L 143.902651 34.893169 
L 144.09476 34.681842 
L 144.283492 34.467493 
L 144.4688 34.250177 
L 144.650636 34.029948 
L 144.828956 33.806862 
L 145.003713 33.580974 
L 145.174865 33.352343 
L 145.342367 33.121024 
L 145.506178 32.887078 
L 145.666257 32.650561 
L 145.822564 32.411535 
L 145.975058 32.170058 
L 146.123701 31.926193 
L 146.268457 31.68 
L 146.409289 31.431541 
L 146.546161 31.180879 
L 146.679038 30.928077 
L 146.807888 30.673199 
L 146.932678 30.416308 
L 147.053376 30.15747 
L 147.169952 29.89675 
L 147.282377 29.634212 
L 147.390623 29.369924 
L 147.494661 29.103952 
L 147.594467 28.836363 
L 147.690015 28.567223 
L 147.78128 28.296602 
L 147.86824 28.024567 
L 147.950874 27.751186 
L 148.029159 27.476529 
L 148.103077 27.200664 
L 148.172608 26.923661 
L 148.237736 26.64559 
L 148.298444 26.36652 
L 148.354717 26.086522 
L 148.40654 25.805667 
L 148.4539 25.524025 
L 148.496786 25.241667 
L 148.535187 24.958664 
L 148.569092 24.675088 
L 148.598495 24.391009 
L 148.623386 24.106499 
L 148.64376 23.821631 
L 148.659612 23.536474 
L 148.670938 23.251103 
L 148.677734 22.965587 
L 148.68 22.68 
L 148.68 22.68 
L 148.677734 22.394413 
L 148.670938 22.108897 
L 148.659612 21.823526 
L 148.64376 21.538369 
L 148.623386 21.253501 
L 148.598495 20.968991 
L 148.569092 20.684912 
L 148.535187 20.401336 
L 148.496786 20.118333 
L 148.4539 19.835975 
L 148.40654 19.554333 
L 148.354717 19.273478 
L 148.298444 18.99348 
L 148.237736 18.71441 
L 148.172608 18.436339 
L 148.103077 18.159336 
L 148.029159 17.883471 
L 147.950874 17.608814 
L 147.86824 17.335433 
L 147.78128 17.063398 
L 147.690015 16.792777 
L 147.594467 16.523637 
L 147.494661 16.256048 
L 147.390623 15.990076 
L 147.282377 15.725788 
L 147.169952 15.46325 
L 147.053376 15.20253 
L 146.932678 14.943692 
L 146.807888 14.686801 
L 146.679038 14.431923 
L 146.546161 14.179121 
L 146.409289 13.928459 
L 146.268457 13.68 
L 146.123701 13.433807 
L 145.975058 13.189942 
L 145.822564 12.948465 
L 145.666257 12.709439 
L 145.506178 12.472922 
L 145.342367 12.238976 
L 145.174865 12.007657 
L 145.003713 11.779026 
L 144.828956 11.553138 
L 144.650636 11.330052 
L 144.4688 11.109823 
L 144.283492 10.892507 
L 144.09476 10.678158 
L 143.902651 10.466831 
L 143.707213 10.258578 
L 143.508495 10.053452 
L 143.306548 9.851505 
L 143.101422 9.652787 
L 142.893169 9.457349 
L 142.681842 9.26524 
L 142.467493 9.076508 
L 142.250177 8.8912 
L 142.029948 8.709364 
L 141.806862 8.531044 
L 141.580974 8.356287 
L 141.352343 8.185135 
L 141.121024 8.017633 
L 140.887078 7.853822 
L 140.650561 7.693743 
L 140.411535 7.537436 
L 140.170058 7.384942 
L 139.926193 7.236299 
L 139.68 7.091543 
L 139.431541 6.950711 
L 139.180879 6.813839 
L 138.928077 6.680962 
L 138.673199 6.552112 
L 138.416308 6.427322 
L 138.15747 6.306624 
L 137.89675 6.190048 
L 137.634212 6.077623 
L 137.369924 5.969377 
L 137.103952 5.865339 
L 136.836363 5.765533 
L 136.567223 5.669985 
L 136.296602 5.57872 
L 136.024567 5.49176 
L 135.751186 5.409126 
L 135.476529 5.330841 
L 135.200664 5.256923 
L 134.923661 5.187392 
L 134.64559 5.122264 
L 134.36652 5.061556 
L 134.086522 5.005283 
L 133.805667 4.95346 
L 133.524025 4.9061 
L 133.241667 4.863214 
L 132.958664 4.824813 
L 132.675088 4.790908 
L 132.391009 4.761505 
L 132.106499 4.736614 
L 131.821631 4.71624 
L 131.536474 4.700388 
L 131.251103 4.689062 
L 130.965587 4.682266 
L 130.68 4.68 
L 94.68 4.68 
L 94.394413 4.682266 
L 94.108897 4.689062 
L 93.823526 4.700388 
L 93.538369 4.71624 
L 93.253501 4.736614 
L 92.968991 4.761505 
L 92.684912 4.790908 
L 92.401336 4.824813 
L 92.118333 4.863214 
L 91.835975 4.9061 
L 91.554333 4.95346 
L 91.273478 5.005283 
L 90.99348 5.061556 
L 90.71441 5.122264 
L 90.436339 5.187392 
L 90.159336 5.256923 
L 89.883471 5.330841 
L 89.608814 5.409126 
L 89.335433 5.49176 
L 89.063398 5.57872 
L 88.792777 5.669985 
L 88.523637 5.765533 
L 88.256048 5.865339 
L 87.990076 5.969377 
L 87.725788 6.077623 
L 87.46325 6.190048 
L 87.20253 6.306624 
L 86.943692 6.427322 
L 86.686801 6.552112 
L 86.431923 6.680962 
L 86.179121 6.813839 
L 85.928459 6.950711 
L 85.68 7.091543 
L 85.433807 7.236299 
L 85.189942 7.384942 
L 84.948465 7.537436 
L 84.709439 7.693743 
L 84.472922 7.853822 
L 84.238976 8.017633 
L 84.007657 8.185135 
L 83.779026 8.356287 
L 83.553138 8.531044 
L 83.330052 8.709364 
L 83.109823 8.8912 
L 82.892507 9.076508 
L 82.678158 9.26524 
L 82.466831 9.457349 
L 82.258578 9.652787 
L 82.053452 9.851505 
L 81.851505 10.053452 
L 81.652787 10.258578 
L 81.457349 10.466831 
L 81.26524 10.678158 
L 81.076508 10.892507 
L 80.8912 11.109823 
L 80.709364 11.330052 
L 80.531044 11.553138 
L 80.356287 11.779026 
L 80.185135 12.007657 
L 80.017633 12.238976 
L 79.853822 12.472922 
L 79.693743 12.709439 
L 79.537436 12.948465 
L 79.384942 13.189942 
L 79.236299 13.433807 
L 79.091543 13.68 
L 78.950711 13.928459 
L 78.813839 14.179121 
L 78.680962 14.431923 
L 78.552112 14.686801 
L 78.427322 14.943692 
L 78.306624 15.20253 
L 78.190048 15.46325 
L 78.077623 15.725788 
L 77.969377 15.990076 
L 77.865339 16.256048 
L 77.765533 16.523637 
L 77.669985 16.792777 
L 77.57872 17.063398 
L 77.49176 17.335433 
L 77.409126 17.608814 
L 77.330841 17.883471 
L 77.256923 18.159336 
L 77.187392 18.436339 
L 77.122264 18.71441 
L 77.061556 18.99348 
L 77.005283 19.273478 
L 76.95346 19.554333 
L 76.9061 19.835975 
L 76.863214 20.118333 
L 76.824813 20.401336 
L 76.790908 20.684912 
L 76.761505 20.968991 
L 76.736614 21.253501 
L 76.71624 21.538369 
L 76.700388 21.823526 
L 76.689062 22.108897 
L 76.682266 22.394413 
L 76.68 22.68 
L 76.68 22.68 
L 76.682266 22.965587 
L 76.689062 23.251103 
L 76.700388 23.536474 
L 76.71624 23.821631 
L 76.736614 24.106499 
L 76.761505 24.391009 
L 76.790908 24.675088 
L 76.824813 24.958664 
L 76.863214 25.241667 
L 76.9061 25.524025 
L 76.95346 25.805667 
L 77.005283 26.086522 
L 77.061556 26.36652 
L 77.122264 26.64559 
L 77.187392 26.923661 
L 77.256923 27.200664 
L 77.330841 27.476529 
L 77.409126 27.751186 
L 77.49176 28.024567 
L 77.57872 28.296602 
L 77.669985 28.567223 
L 77.765533 28.836363 
L 77.865339 29.103952 
L 77.969377 29.369924 
L 78.077623 29.634212 
L 78.190048 29.89675 
L 78.306624 30.15747 
L 78.427322 30.416308 
L 78.552112 30.673199 
L 78.680962 30.928077 
L 78.813839 31.180879 
L 78.950711 31.431541 
L 79.091543 31.68 
L 79.236299 31.926193 
L 79.384942 32.170058 
L 79.537436 32.411535 
L 79.693743 32.650561 
L 79.853822 32.887078 
L 80.017633 33.121024 
L 80.185135 33.352343 
L 80.356287 33.580974 
L 80.531044 33.806862 
L 80.709364 34.029948 
L 80.8912 34.250177 
L 81.076508 34.467493 
L 81.26524 34.681842 
L 81.457349 34.893169 
L 81.652787 35.101422 
L 81.851505 35.306548 
L 82.053452 35.508495 
L 82.258578 35.707213 
L 82.466831 35.902651 
L 82.678158 36.09476 
L 82.892507 36.283492 
L 83.109823 36.4688 
L 83.330052 36.650636 
L 83.553138 36.828956 
L 83.779026 37.003713 
L 84.007657 37.174865 
L 84.238976 37.342367 
L 84.472922 37.506178 
L 84.709439 37.666257 
L 84.948465 37.822564 
L 85.189942 37.975058 
L 85.433807 38.123701 
L 85.68 38.268457 
L 85.928459 38.409289 
L 86.179121 38.546161 
L 86.431923 38.679038 
L 86.686801 38.807888 
L 86.943692 38.932678 
L 87.20253 39.053376 
L 87.46325 39.169952 
L 87.725788 39.282377 
L 87.990076 39.390623 
L 88.256048 39.494661 
L 88.523637 39.594467 
L 88.792777 39.690015 
L 89.063398 39.78128 
L 89.335433 39.86824 
L 89.608814 39.950874 
L 89.883471 40.029159 
L 90.159336 40.103077 
L 90.436339 40.172608 
L 90.71441 40.237736 
L 90.99348 40.298444 
L 91.273478 40.354717 
L 91.554333 40.40654 
L 91.835975 40.4539 
L 92.118333 40.496786 
L 92.401336 40.535187 
L 92.684912 40.569092 
L 92.968991 40.598495 
L 93.253501 40.623386 
L 93.538369 40.64376 
L 93.823526 40.659612 
L 94.108897 40.670938 
L 94.394413 40.677734 
L 94.68 40.68 
L 130.68 40.68 
z
" clip-path="url(#pd2f2307022)" style="fill: none; stroke: #000000; stroke-linecap: round"/>
   </g>
   <g id="patch_3">
    <path d="M 49.68 157.68 
L 112.68 130.68 
L 175.68 157.68 
L 112.68 184.68 
L 49.68 157.68 
z
" clip-path="url(#pd2f2307022)" style="fill: none; stroke: #000000; stroke-linecap: round"/>
   </g>
   <g id="patch_4">
    <path d="M 283.68 175.68 
L 283.965587 175.677734 
L 284.251103 175.670938 
L 284.536474 175.659612 
L 284.821631 175.64376 
L 285.106499 175.623386 
L 285.391009 175.598495 
L 285.675088 175.569092 
L 285.958664 175.535187 
L 286.241667 175.496786 
L 286.524025 175.4539 
L 286.805667 175.40654 
L 287.086522 175.354717 
L 287.36652 175.298444 
L 287.64559 175.237736 
L 287.923661 175.172608 
L 288.200664 175.103077 
L 288.476529 175.029159 
L 288.751186 174.950874 
L 289.024567 174.86824 
L 289.296602 174.78128 
L 289.567223 174.690015 
L 289.836363 174.594467 
L 290.103952 174.494661 
L 290.369924 174.390623 
L 290.634212 174.282377 
L 290.89675 174.169952 
L 291.15747 174.053376 
L 291.416308 173.932678 
L 291.673199 173.807888 
L 291.928077 173.679038 
L 292.180879 173.546161 
L 292.431541 173.409289 
L 292.68 173.268457 
L 292.926193 173.123701 
L 293.170058 172.975058 
L 293.411535 172.822564 
L 293.650561 172.666257 
L 293.887078 172.506178 
L 294.121024 172.342367 
L 294.352343 172.174865 
L 294.580974 172.003713 
L 294.806862 171.828956 
L 295.029948 171.650636 
L 295.250177 171.4688 
L 295.467493 171.283492 
L 295.681842 171.09476 
L 295.893169 170.902651 
L 296.101422 170.707213 
L 296.306548 170.508495 
L 296.508495 170.306548 
L 296.707213 170.101422 
L 296.902651 169.893169 
L 297.09476 169.681842 
L 297.283492 169.467493 
L 297.4688 169.250177 
L 297.650636 169.029948 
L 297.828956 168.806862 
L 298.003713 168.580974 
L 298.174865 168.352343 
L 298.342367 168.121024 
L 298.506178 167.887078 
L 298.666257 167.650561 
L 298.822564 167.411535 
L 298.975058 167.170058 
L 299.123701 166.926193 
L 299.268457 166.68 
L 299.409289 166.431541 
L 299.546161 166.180879 
L 299.679038 165.928077 
L 299.807888 165.673199 
L 299.932678 165.416308 
L 300.053376 165.15747 
L 300.169952 164.89675 
L 300.282377 164.634212 
L 300.390623 164.369924 
L 300.494661 164.103952 
L 300.594467 163.836363 
L 300.690015 163.567223 
L 300.78128 163.296602 
L 300.86824 163.024567 
L 300.950874 162.751186 
L 301.029159 162.476529 
L 301.103077 162.200664 
L 301.172608 161.923661 
L 301.237736 161.64559 
L 301.298444 161.36652 
L 301.354717 161.086522 
L 301.40654 160.805667 
L 301.4539 160.524025 
L 301.496786 160.241667 
L 301.535187 159.958664 
L 301.569092 159.675088 
L 301.598495 159.391009 
L 301.623386 159.106499 
L 301.64376 158.821631 
L 301.659612 158.536474 
L 301.670938 158.251103 
L 301.677734 157.965587 
L 301.68 157.68 
L 301.68 157.68 
L 301.677734 157.394413 
L 301.670938 157.108897 
L 301.659612 156.823526 
L 301.64376 156.538369 
L 301.623386 156.253501 
L 301.598495 155.968991 
L 301.569092 155.684912 
L 301.535187 155.401336 
L 301.496786 155.118333 
L 301.4539 154.835975 
L 301.40654 154.554333 
L 301.354717 154.273478 
L 301.298444 153.99348 
L 301.237736 153.71441 
L 301.172608 153.436339 
L 301.103077 153.159336 
L 301.029159 152.883471 
L 300.950874 152.608814 
L 300.86824 152.335433 
L 300.78128 152.063398 
L 300.690015 151.792777 
L 300.594467 151.523637 
L 300.494661 151.256048 
L 300.390623 150.990076 
L 300.282377 150.725788 
L 300.169952 150.46325 
L 300.053376 150.20253 
L 299.932678 149.943692 
L 299.807888 149.686801 
L 299.679038 149.431923 
L 299.546161 149.179121 
L 299.409289 148.928459 
L 299.268457 148.68 
L 299.123701 148.433807 
L 298.975058 148.189942 
L 298.822564 147.948465 
L 298.666257 147.709439 
L 298.506178 147.472922 
L 298.342367 147.238976 
L 298.174865 147.007657 
L 298.003713 146.779026 
L 297.828956 146.553138 
L 297.650636 146.330052 
L 297.4688 146.109823 
L 297.283492 145.892507 
L 297.09476 145.678158 
L 296.902651 145.466831 
L 296.707213 145.258578 
L 296.508495 145.053452 
L 296.306548 144.851505 
L 296.101422 144.652787 
L 295.893169 144.457349 
L 295.681842 144.26524 
L 295.467493 144.076508 
L 295.250177 143.8912 
L 295.029948 143.709364 
L 294.806862 143.531044 
L 294.580974 143.356287 
L 294.352343 143.185135 
L 294.121024 143.017633 
L 293.887078 142.853822 
L 293.650561 142.693743 
L 293.411535 142.537436 
L 293.170058 142.384942 
L 292.926193 142.236299 
L 292.68 142.091543 
L 292.431541 141.950711 
L 292.180879 141.813839 
L 291.928077 141.680962 
L 291.673199 141.552112 
L 291.416308 141.427322 
L 291.15747 141.306624 
L 290.89675 141.190048 
L 290.634212 141.077623 
L 290.369924 140.969377 
L 290.103952 140.865339 
L 289.836363 140.765533 
L 289.567223 140.669985 
L 289.296602 140.57872 
L 289.024567 140.49176 
L 288.751186 140.409126 
L 288.476529 140.330841 
L 288.200664 140.256923 
L 287.923661 140.187392 
L 287.64559 140.122264 
L 287.36652 140.061556 
L 287.086522 140.005283 
L 286.805667 139.95346 
L 286.524025 139.9061 
L 286.241667 139.863214 
L 285.958664 139.824813 
L 285.675088 139.790908 
L 285.391009 139.761505 
L 285.106499 139.736614 
L 284.821631 139.71624 
L 284.536474 139.700388 
L 284.251103 139.689062 
L 283.965587 139.682266 
L 283.68 139.68 
L 247.68 139.68 
L 247.394413 139.682266 
L 247.108897 139.689062 
L 246.823526 139.700388 
L 246.538369 139.71624 
L 246.253501 139.736614 
L 245.968991 139.761505 
L 245.684912 139.790908 
L 245.401336 139.824813 
L 245.118333 139.863214 
L 244.835975 139.9061 
L 244.554333 139.95346 
L 244.273478 140.005283 
L 243.99348 140.061556 
L 243.71441 140.122264 
L 243.436339 140.187392 
L 243.159336 140.256923 
L 242.883471 140.330841 
L 242.608814 140.409126 
L 242.335433 140.49176 
L 242.063398 140.57872 
L 241.792777 140.669985 
L 241.523637 140.765533 
L 241.256048 140.865339 
L 240.990076 140.969377 
L 240.725788 141.077623 
L 240.46325 141.190048 
L 240.20253 141.306624 
L 239.943692 141.427322 
L 239.686801 141.552112 
L 239.431923 141.680962 
L 239.179121 141.813839 
L 238.928459 141.950711 
L 238.68 142.091543 
L 238.433807 142.236299 
L 238.189942 142.384942 
L 237.948465 142.537436 
L 237.709439 142.693743 
L 237.472922 142.853822 
L 237.238976 143.017633 
L 237.007657 143.185135 
L 236.779026 143.356287 
L 236.553138 143.531044 
L 236.330052 143.709364 
L 236.109823 143.8912 
L 235.892507 144.076508 
L 235.678158 144.26524 
L 235.466831 144.457349 
L 235.258578 144.652787 
L 235.053452 144.851505 
L 234.851505 145.053452 
L 234.652787 145.258578 
L 234.457349 145.466831 
L 234.26524 145.678158 
L 234.076508 145.892507 
L 233.8912 146.109823 
L 233.709364 146.330052 
L 233.531044 146.553138 
L 233.356287 146.779026 
L 233.185135 147.007657 
L 233.017633 147.238976 
L 232.853822 147.472922 
L 232.693743 147.709439 
L 232.537436 147.948465 
L 232.384942 148.189942 
L 232.236299 148.433807 
L 232.091543 148.68 
L 231.950711 148.928459 
L 231.813839 149.179121 
L 231.680962 149.431923 
L 231.552112 149.686801 
L 231.427322 149.943692 
L 231.306624 150.20253 
L 231.190048 150.46325 
L 231.077623 150.725788 
L 230.969377 150.990076 
L 230.865339 151.256048 
L 230.765533 151.523637 
L 230.669985 151.792777 
L 230.57872 152.063398 
L 230.49176 152.335433 
L 230.409126 152.608814 
L 230.330841 152.883471 
L 230.256923 153.159336 
L 230.187392 153.436339 
L 230.122264 153.71441 
L 230.061556 153.99348 
L 230.005283 154.273478 
L 229.95346 154.554333 
L 229.9061 154.835975 
L 229.863214 155.118333 
L 229.824813 155.401336 
L 229.790908 155.684912 
L 229.761505 155.968991 
L 229.736614 156.253501 
L 229.71624 156.538369 
L 229.700388 156.823526 
L 229.689062 157.108897 
L 229.682266 157.394413 
L 229.68 157.68 
L 229.68 157.68 
L 229.682266 157.965587 
L 229.689062 158.251103 
L 229.700388 158.536474 
L 229.71624 158.821631 
L 229.736614 159.106499 
L 229.761505 159.391009 
L 229.790908 159.675088 
L 229.824813 159.958664 
L 229.863214 160.241667 
L 229.9061 160.524025 
L 229.95346 160.805667 
L 230.005283 161.086522 
L 230.061556 161.36652 
L 230.122264 161.64559 
L 230.187392 161.923661 
L 230.256923 162.200664 
L 230.330841 162.476529 
L 230.409126 162.751186 
L 230.49176 163.024567 
L 230.57872 163.296602 
L 230.669985 163.567223 
L 230.765533 163.836363 
L 230.865339 164.103952 
L 230.969377 164.369924 
L 231.077623 164.634212 
L 231.190048 164.89675 
L 231.306624 165.15747 
L 231.427322 165.416308 
L 231.552112 165.673199 
L 231.680962 165.928077 
L 231.813839 166.180879 
L 231.950711 166.431541 
L 232.091543 166.68 
L 232.236299 166.926193 
L 232.384942 167.170058 
L 232.537436 167.411535 
L 232.693743 167.650561 
L 232.853822 167.887078 
L 233.017633 168.121024 
L 233.185135 168.352343 
L 233.356287 168.580974 
L 233.531044 168.806862 
L 233.709364 169.029948 
L 233.8912 169.250177 
L 234.076508 169.467493 
L 234.26524 169.681842 
L 234.457349 169.893169 
L 234.652787 170.101422 
L 234.851505 170.306548 
L 235.053452 170.508495 
L 235.258578 170.707213 
L 235.466831 170.902651 
L 235.678158 171.09476 
L 235.892507 171.283492 
L 236.109823 171.4688 
L 236.330052 171.650636 
L 236.553138 171.828956 
L 236.779026 172.003713 
L 237.007657 172.174865 
L 237.238976 172.342367 
L 237.472922 172.506178 
L 237.709439 172.666257 
L 237.948465 172.822564 
L 238.189942 172.975058 
L 238.433807 173.123701 
L 238.68 173.268457 
L 238.928459 173.409289 
L 239.179121 173.546161 
L 239.431923 173.679038 
L 239.686801 173.807888 
L 239.943692 173.932678 
L 240.20253 174.053376 
L 240.46325 174.169952 
L 240.725788 174.282377 
L 240.990076 174.390623 
L 241.256048 174.494661 
L 241.523637 174.594467 
L 241.792777 174.690015 
L 242.063398 174.78128 
L 242.335433 174.86824 
L 242.608814 174.950874 
L 242.883471 175.029159 
L 243.159336 175.103077 
L 243.436339 175.172608 
L 243.71441 175.237736 
L 243.99348 175.298444 
L 244.273478 175.354717 
L 244.554333 175.40654 
L 244.835975 175.4539 
L 245.118333 175.496786 
L 245.401336 175.535187 
L 245.684912 175.569092 
L 245.968991 175.598495 
L 246.253501 175.623386 
L 246.538369 175.64376 
L 246.823526 175.659612 
L 247.108897 175.670938 
L 247.394413 175.677734 
L 247.68 175.68 
L 283.68 175.68 
z
" clip-path="url(#pd2f2307022)" style="fill: none; stroke: #000000; stroke-linecap: round"/>
   </g>
   <g id="line2d_1">
    <path d="M 112.68 40.68 
L 112.68 54.18 
L 112.68 58.68 
" clip-path="url(#pd2f2307022)" style="fill: none; stroke: #000000; stroke-linecap: round"/>
   </g>
   <g id="patch_5">
    <path d="M 115.38 58.68 
L 112.68 67.68 
L 109.98 58.68 
z
" clip-path="url(#pd2f2307022)"/>
   </g>
   <g id="line2d_2">
    <path d="M 73.08 85.68 
L 73.08 67.68 
L 152.28 67.68 
L 152.28 103.68 
L 73.08 103.68 
L 73.08 85.68 
" clip-path="url(#pd2f2307022)" style="fill: none; stroke: #000000; stroke-linecap: round"/>
   </g>
   <g id="line2d_3">
    <path d="M 112.68 103.68 
L 112.68 117.18 
L 112.68 121.68 
" clip-path="url(#pd2f2307022)" style="fill: none; stroke: #000000; stroke-linecap: round"/>
   </g>
   <g id="patch_6">
    <path d="M 115.38 121.68 
L 112.68 130.68 
L 109.98 121.68 
z
" clip-path="url(#pd2f2307022)"/>
   </g>
   <g id="line2d_4">
    <path d="M 175.68 157.68 
L 202.68 157.68 
L 220.68 157.68 
" clip-path="url(#pd2f2307022)" style="fill: none; stroke: #000000; stroke-linecap: round"/>
   </g>
   <g id="patch_7">
    <path d="M 220.68 154.98 
L 229.68 157.68 
L 220.68 160.38 
z
" clip-path="url(#pd2f2307022)"/>
   </g>
   <g id="line2d_5">
    <path d="M 112.68 184.68 
L 112.68 202.68 
L 112.68 211.68 
" clip-path="url(#pd2f2307022)" style="fill: none; stroke: #000000; stroke-linecap: round"/>
   </g>
   <g id="patch_8">
    <path d="M 115.38 211.68 
L 112.68 220.68 
L 109.98 211.68 
z
" clip-path="url(#pd2f2307022)"/>
   </g>
   <g id="line2d_6">
    <path d="M 53.28 238.68 
L 53.28 220.68 
L 172.08 220.68 
L 172.08 256.68 
L 53.28 256.68 
L 53.28 238.68 
" clip-path="url(#pd2f2307022)" style="fill: none; stroke: #000000; stroke-linecap: round"/>
   </g>
   <g id="line2d_7">
    <path d="M 112.68 256.68 
L 112.68 274.68 
L 112.68 283.68 
" clip-path="url(#pd2f2307022)" style="fill: none; stroke: #000000; stroke-linecap: round"/>
   </g>
   <g id="patch_9">
    <path d="M 115.38 283.68 
L 112.68 292.68 
L 109.98 283.68 
z
" clip-path="url(#pd2f2307022)"/>
   </g>
   <g id="line2d_8">
    <path d="M 58.68 310.68 
L 58.68 292.68 
L 166.68 292.68 
L 166.68 328.68 
L 58.68 328.68 
L 58.68 310.68 
" clip-path="url(#pd2f2307022)" style="fill: none; stroke: #000000; stroke-linecap: round"/>
   </g>
   <g id="line2d_9">
    <path d="M 58.68 310.68 
L 4.68 310.68 
L 4.68 157.68 
L 40.68 157.68 
" clip-path="url(#pd2f2307022)" style="fill: none; stroke: #000000; stroke-linecap: round"/>
   </g>
   <g id="patch_10">
    <path d="M 40.68 154.98 
L 49.68 157.68 
L 40.68 160.38 
z
" clip-path="url(#pd2f2307022)"/>
   </g>
   <g id="text_1">
    <!-- START -->
    <g transform="translate(91.202031 26.593437) scale(0.14 -0.14)">
     <defs>
      <path id="IPAexGothic-53" d="M 2919 3641 
Q 2563 4259 1853 4259 
Q 1453 4259 1213 4009 
Q 1028 3803 1028 3534 
Q 1028 3238 1266 3047 
Q 1444 2913 1984 2688 
L 2200 2597 
Q 2925 2306 3191 1953 
Q 3422 1644 3422 1259 
Q 3422 644 2969 288 
Q 2559 -31 1931 -31 
Q 881 -31 313 766 
L 753 1100 
Q 1203 459 1938 459 
Q 2288 459 2534 625 
Q 2841 847 2841 1216 
Q 2841 1503 2616 1728 
Q 2375 1959 1728 2206 
L 1541 2278 
Q 453 2694 453 3481 
Q 453 4006 806 4347 
Q 1203 4725 1863 4725 
Q 2841 4725 3359 3956 
L 2919 3641 
z
" transform="scale(0.015625)"/>
      <path id="IPAexGothic-54" d="M 3866 4141 
L 2175 4141 
L 2175 63 
L 1606 63 
L 1606 4141 
L -31 4141 
L -31 4634 
L 3866 4634 
L 3866 4141 
z
" transform="scale(0.015625)"/>
      <path id="IPAexGothic-41" d="M 4056 63 
L 3444 63 
L 2938 1409 
L 1100 1409 
L 603 63 
L -6 63 
L 1806 4666 
L 2259 4666 
L 4056 63 
z
M 2778 1863 
L 2316 3078 
Q 2125 3588 2028 4000 
L 2009 4000 
Q 1897 3563 1716 3078 
L 1263 1863 
L 2778 1863 
z
" transform="scale(0.015625)"/>
      <path id="IPAexGothic-52" d="M 4072 63 
L 3394 63 
Q 3138 641 2828 1197 
Q 2584 1641 2344 1825 
Q 2050 2044 1625 2044 
L 1172 2044 
L 1172 63 
L 609 63 
L 609 4634 
L 2009 4634 
Q 2713 4634 3131 4378 
Q 3688 4044 3688 3381 
Q 3688 2784 3181 2459 
Q 2906 2272 2522 2216 
L 2522 2197 
Q 2941 2050 3247 1581 
Q 3516 1166 4072 63 
z
M 1172 2478 
L 1869 2478 
Q 3106 2478 3106 3369 
Q 3106 4181 1928 4181 
L 1172 4181 
L 1172 2478 
z
" transform="scale(0.015625)"/>
     </defs>
     <use xlink:href="#IPAexGothic-53"/>
     <use xlink:href="#IPAexGothic-54" x="58.496094"/>
     <use xlink:href="#IPAexGothic-41" x="118.408203"/>
     <use xlink:href="#IPAexGothic-52" x="182.128906"/>
     <use xlink:href="#IPAexGothic-54" x="246.923828"/>
    </g>
   </g>
   <g id="text_2">
    <!-- counter = 0 -->
    <g transform="translate(74.253281 89.593437) scale(0.14 -0.14)">
     <defs>
      <path id="IPAexGothic-63" d="M 3269 784 
Q 2834 -31 1900 -31 
Q 1228 -31 788 409 
Q 313 891 313 1663 
Q 313 2428 788 2913 
Q 1222 3347 1881 3347 
Q 2813 3347 3206 2541 
L 2763 2309 
Q 2484 2900 1900 2900 
Q 1516 2900 1234 2619 
Q 881 2266 881 1650 
Q 881 1069 1222 728 
Q 1522 428 1956 428 
Q 2547 428 2847 1016 
L 3269 784 
z
" transform="scale(0.015625)"/>
      <path id="IPAexGothic-6f" d="M 1919 3341 
Q 2594 3341 3056 2888 
Q 3531 2413 3531 1638 
Q 3531 888 3066 422 
Q 2609 -31 1919 -31 
Q 1228 -31 781 416 
Q 313 881 313 1656 
Q 313 2413 788 2888 
Q 1241 3341 1919 3341 
z
M 1919 2919 
Q 1519 2919 1241 2631 
Q 888 2278 888 1650 
Q 888 1031 1234 684 
Q 1516 403 1919 403 
Q 2331 403 2609 691 
Q 2956 1038 2956 1672 
Q 2956 2269 2603 2631 
Q 2316 2919 1919 2919 
z
" transform="scale(0.015625)"/>
      <path id="IPAexGothic-75" d="M 3284 63 
L 2772 63 
L 2772 644 
Q 2300 0 1625 0 
Q 1072 0 763 375 
Q 519 678 519 1241 
L 519 3250 
L 1069 3250 
L 1069 1259 
Q 1069 466 1734 466 
Q 2406 466 2734 1291 
L 2734 3250 
L 3284 3250 
L 3284 63 
z
" transform="scale(0.015625)"/>
      <path id="IPAexGothic-6e" d="M 3328 63 
L 2778 63 
L 2778 2041 
Q 2778 2853 2106 2853 
Q 1428 2853 1113 2041 
L 1113 63 
L 563 63 
L 563 3250 
L 1075 3250 
L 1075 2675 
Q 1525 3316 2222 3316 
Q 3328 3316 3328 2072 
L 3328 63 
z
" transform="scale(0.015625)"/>
      <path id="IPAexGothic-74" d="M 2125 241 
Q 1769 -6 1397 -6 
Q 653 -6 653 831 
L 653 2859 
L 219 2859 
L 219 3250 
L 653 3250 
L 653 3966 
L 1178 4228 
L 1178 3250 
L 2063 3250 
L 2063 2859 
L 1178 2859 
L 1178 906 
Q 1178 416 1513 416 
Q 1738 416 1941 588 
L 2125 241 
z
" transform="scale(0.015625)"/>
      <path id="IPAexGothic-65" d="M 863 1594 
Q 891 1041 1209 722 
Q 1534 397 1997 397 
Q 2606 397 2963 966 
L 3322 728 
Q 2869 -31 1931 -31 
Q 1222 -31 766 422 
Q 306 884 306 1641 
Q 306 2444 788 2925 
Q 1216 3353 1856 3353 
Q 2459 3353 2866 2956 
Q 3322 2494 3322 1722 
L 3322 1594 
L 863 1594 
z
M 2756 1997 
Q 2709 2431 2450 2681 
Q 2194 2938 1844 2938 
Q 1438 2938 1150 2591 
Q 953 2356 894 1997 
L 2756 1997 
z
" transform="scale(0.015625)"/>
      <path id="IPAexGothic-72" d="M 2309 3316 
L 2213 2769 
Q 2106 2791 2022 2791 
Q 1653 2791 1413 2444 
Q 1113 2006 1113 1675 
L 1113 63 
L 563 63 
L 563 3250 
L 1081 3250 
L 1056 2303 
L 1069 2303 
Q 1422 3341 2097 3341 
Q 2206 3341 2309 3316 
z
" transform="scale(0.015625)"/>
      <path id="IPAexGothic-20" transform="scale(0.015625)"/>
      <path id="IPAexGothic-3d" d="M 416 2803 
L 3922 2803 
L 3922 2438 
L 416 2438 
L 416 2803 
z
M 416 1625 
L 3922 1625 
L 3922 1259 
L 416 1259 
L 416 1625 
z
" transform="scale(0.015625)"/>
      <path id="IPAexGothic-30" d="M 2038 4725 
Q 2881 4725 3334 3944 
Q 3694 3325 3694 2344 
Q 3694 1372 3334 741 
Q 2888 -31 2016 -31 
Q 1147 -31 700 741 
Q 341 1372 341 2350 
Q 341 3713 1000 4334 
Q 1419 4725 2038 4725 
z
M 2016 4266 
Q 1516 4266 1228 3759 
Q 934 3247 934 2344 
Q 934 1456 1222 947 
Q 1513 447 2016 447 
Q 2619 447 2909 1153 
Q 3100 1622 3100 2375 
Q 3100 3256 2806 3759 
Q 2509 4266 2016 4266 
z
" transform="scale(0.015625)"/>
     </defs>
     <use xlink:href="#IPAexGothic-63"/>
     <use xlink:href="#IPAexGothic-6f" x="54.394531"/>
     <use xlink:href="#IPAexGothic-75" x="114.794922"/>
     <use xlink:href="#IPAexGothic-6e" x="175.195312"/>
     <use xlink:href="#IPAexGothic-74" x="235.595703"/>
     <use xlink:href="#IPAexGothic-65" x="270.214844"/>
     <use xlink:href="#IPAexGothic-72" x="327.099609"/>
     <use xlink:href="#IPAexGothic-20" x="364.111328"/>
     <use xlink:href="#IPAexGothic-3d" x="391.113281"/>
     <use xlink:href="#IPAexGothic-20" x="458.935547"/>
     <use xlink:href="#IPAexGothic-30" x="485.9375"/>
    </g>
   </g>
   <g id="text_3">
    <!-- True -->
    <g transform="translate(117.36 199.846875) scale(0.14 -0.14)">
     <use xlink:href="#IPAexGothic-54"/>
     <use xlink:href="#IPAexGothic-72" x="59.912109"/>
     <use xlink:href="#IPAexGothic-75" x="96.923828"/>
     <use xlink:href="#IPAexGothic-65" x="157.324219"/>
    </g>
   </g>
   <g id="text_4">
    <!-- False -->
    <g transform="translate(180.36 150.34) scale(0.14 -0.14)">
     <defs>
      <path id="IPAexGothic-46" d="M 3469 4141 
L 1172 4141 
L 1172 2656 
L 3206 2656 
L 3206 2188 
L 1172 2188 
L 1172 63 
L 609 63 
L 609 4634 
L 3469 4634 
L 3469 4141 
z
" transform="scale(0.015625)"/>
      <path id="IPAexGothic-61" d="M 3156 63 
L 2672 63 
Q 2559 303 2531 556 
L 2509 556 
Q 2147 -25 1428 -25 
Q 934 -25 622 288 
Q 347 563 347 959 
Q 347 1947 2050 1997 
L 2478 2009 
L 2478 2175 
Q 2478 2509 2288 2700 
Q 2088 2900 1775 2900 
Q 1238 2900 969 2378 
L 494 2597 
Q 938 3328 1788 3328 
Q 2375 3328 2691 3000 
Q 2984 2706 2984 2169 
L 2984 997 
Q 2984 400 3156 63 
z
M 2491 1625 
L 2141 1619 
Q 903 1591 903 953 
Q 903 728 1050 581 
Q 1231 403 1525 403 
Q 1934 403 2234 703 
Q 2491 969 2491 1344 
L 2491 1625 
z
" transform="scale(0.015625)"/>
      <path id="IPAexGothic-6c" d="M 1131 63 
L 581 63 
L 581 4794 
L 1131 4794 
L 1131 63 
z
" transform="scale(0.015625)"/>
      <path id="IPAexGothic-73" d="M 2234 2547 
Q 1938 2931 1484 2931 
Q 891 2931 891 2475 
Q 891 2153 1531 1944 
L 1741 1875 
Q 2650 1578 2650 894 
Q 2650 434 2272 172 
Q 1972 -31 1497 -31 
Q 766 -31 256 503 
L 603 819 
Q 997 397 1516 397 
Q 2131 397 2131 875 
Q 2131 1238 1453 1478 
L 1234 1553 
Q 378 1853 378 2431 
Q 378 2797 628 3047 
Q 928 3347 1453 3347 
Q 2156 3347 2606 2859 
L 2234 2547 
z
" transform="scale(0.015625)"/>
     </defs>
     <use xlink:href="#IPAexGothic-46"/>
     <use xlink:href="#IPAexGothic-61" x="57.177734"/>
     <use xlink:href="#IPAexGothic-6c" x="112.158203"/>
     <use xlink:href="#IPAexGothic-73" x="139.160156"/>
     <use xlink:href="#IPAexGothic-65" x="185.351562"/>
    </g>
   </g>
   <g id="text_5">
    <!-- counter &lt; 3 ？ -->
    <g transform="translate(65.363281 161.593437) scale(0.14 -0.14)">
     <defs>
      <path id="IPAexGothic-3c" d="M 897 2028 
L 3928 609 
L 3769 263 
L 409 1881 
L 409 2175 
L 3769 3794 
L 3928 3450 
L 897 2028 
z
" transform="scale(0.015625)"/>
      <path id="IPAexGothic-33" d="M 2381 2419 
Q 3506 2216 3506 1278 
Q 3506 716 3128 356 
Q 2709 -31 1944 -31 
Q 797 -31 288 881 
L 756 1131 
Q 1109 441 1938 441 
Q 2425 441 2694 691 
Q 2950 928 2950 1291 
Q 2950 1719 2566 1978 
Q 2216 2213 1644 2213 
L 1363 2213 
L 1363 2669 
L 1656 2669 
Q 2231 2669 2534 2888 
Q 2859 3119 2859 3509 
Q 2859 3934 2494 4138 
Q 2259 4278 1931 4278 
Q 1238 4278 903 3578 
L 434 3803 
Q 897 4725 1938 4725 
Q 2597 4725 3006 4394 
Q 3416 4069 3416 3534 
Q 3416 3028 3019 2706 
Q 2763 2500 2381 2444 
L 2381 2419 
z
" transform="scale(0.015625)"/>
      <path id="IPAexGothic-ff1f" d="M 1503 3444 
Q 1550 4184 1963 4616 
Q 2466 5128 3272 5128 
Q 3888 5128 4313 4853 
Q 4909 4469 4909 3778 
Q 4909 3059 4116 2563 
Q 3628 2250 3506 1881 
Q 3422 1650 3422 1228 
L 2853 1228 
Q 2863 1869 3053 2197 
Q 3281 2588 3847 2950 
Q 4341 3269 4341 3778 
Q 4341 4231 3975 4463 
Q 3697 4634 3266 4634 
Q 2656 4634 2341 4225 
Q 2109 3928 2091 3444 
L 1503 3444 
z
M 2763 647 
L 3506 647 
L 3506 -97 
L 2763 -97 
L 2763 647 
z
" transform="scale(0.015625)"/>
     </defs>
     <use xlink:href="#IPAexGothic-63"/>
     <use xlink:href="#IPAexGothic-6f" x="54.394531"/>
     <use xlink:href="#IPAexGothic-75" x="114.794922"/>
     <use xlink:href="#IPAexGothic-6e" x="175.195312"/>
     <use xlink:href="#IPAexGothic-74" x="235.595703"/>
     <use xlink:href="#IPAexGothic-65" x="270.214844"/>
     <use xlink:href="#IPAexGothic-72" x="327.099609"/>
     <use xlink:href="#IPAexGothic-20" x="364.111328"/>
     <use xlink:href="#IPAexGothic-3c" x="391.113281"/>
     <use xlink:href="#IPAexGothic-20" x="458.935547"/>
     <use xlink:href="#IPAexGothic-33" x="485.9375"/>
     <use xlink:href="#IPAexGothic-20" x="548.925781"/>
     <use xlink:href="#IPAexGothic-ff1f" x="575.927734"/>
    </g>
   </g>
   <g id="text_6">
    <!-- END -->
    <g transform="translate(250.896875 161.593437) scale(0.14 -0.14)">
     <defs>
      <path id="IPAexGothic-45" d="M 3547 63 
L 609 63 
L 609 4634 
L 3469 4634 
L 3469 4147 
L 1166 4147 
L 1166 2650 
L 3206 2650 
L 3206 2191 
L 1166 2191 
L 1166 556 
L 3547 556 
L 3547 63 
z
" transform="scale(0.015625)"/>
      <path id="IPAexGothic-4e" d="M 4244 63 
L 3731 63 
L 1697 3150 
Q 1466 3500 1141 4097 
L 1116 4097 
L 1128 3797 
Q 1159 2803 1159 2469 
L 1159 63 
L 609 63 
L 609 4634 
L 1366 4634 
L 3113 1978 
Q 3453 1447 3713 966 
L 3738 966 
Q 3694 1897 3694 2469 
L 3694 4634 
L 4244 4634 
L 4244 63 
z
" transform="scale(0.015625)"/>
      <path id="IPAexGothic-44" d="M 609 4634 
L 1984 4634 
Q 3159 4634 3791 4050 
Q 4456 3444 4456 2356 
Q 4456 1047 3516 441 
Q 2925 63 1941 63 
L 609 63 
L 609 4634 
z
M 1172 556 
L 1894 556 
Q 3853 556 3853 2356 
Q 3853 4147 1928 4147 
L 1172 4147 
L 1172 556 
z
" transform="scale(0.015625)"/>
     </defs>
     <use xlink:href="#IPAexGothic-45"/>
     <use xlink:href="#IPAexGothic-4e" x="59.521484"/>
     <use xlink:href="#IPAexGothic-44" x="135.498047"/>
    </g>
   </g>
   <g id="text_7">
    <!-- print(counter) -->
    <g transform="translate(67.047656 242.719219) scale(0.14 -0.14)">
     <defs>
      <path id="IPAexGothic-70" d="M 1075 2688 
Q 1525 3341 2206 3341 
Q 2769 3341 3172 2938 
Q 3641 2469 3641 1644 
Q 3641 841 3178 372 
Q 2775 -31 2200 -31 
Q 1569 -31 1106 497 
L 1106 -1216 
L 563 -1216 
L 563 3250 
L 1075 3250 
L 1075 2688 
z
M 1106 1950 
L 1106 1291 
Q 1106 897 1516 600 
Q 1791 403 2106 403 
Q 2469 403 2725 659 
Q 3066 997 3066 1631 
Q 3066 2200 2784 2559 
Q 2503 2900 2100 2900 
Q 1656 2900 1338 2484 
Q 1106 2184 1106 1950 
z
" transform="scale(0.015625)"/>
      <path id="IPAexGothic-69" d="M 1178 3928 
L 550 3928 
L 550 4569 
L 1178 4569 
L 1178 3928 
z
M 1138 63 
L 588 63 
L 588 3250 
L 1138 3250 
L 1138 63 
z
" transform="scale(0.015625)"/>
      <path id="IPAexGothic-28" d="M 1928 -1016 
L 1653 -1166 
Q 488 69 488 1875 
Q 488 3678 1653 4909 
L 1928 4763 
Q 1006 3522 1006 1881 
Q 1006 203 1928 -1016 
z
" transform="scale(0.015625)"/>
      <path id="IPAexGothic-29" d="M 466 4909 
Q 1638 3672 1638 1875 
Q 1638 75 466 -1166 
L 191 -1016 
Q 1119 216 1119 1881 
Q 1119 3509 191 4763 
L 466 4909 
z
" transform="scale(0.015625)"/>
     </defs>
     <use xlink:href="#IPAexGothic-70"/>
     <use xlink:href="#IPAexGothic-72" x="62.109375"/>
     <use xlink:href="#IPAexGothic-69" x="99.121094"/>
     <use xlink:href="#IPAexGothic-6e" x="126.123047"/>
     <use xlink:href="#IPAexGothic-74" x="186.523438"/>
     <use xlink:href="#IPAexGothic-28" x="221.142578"/>
     <use xlink:href="#IPAexGothic-63" x="254.443359"/>
     <use xlink:href="#IPAexGothic-6f" x="308.837891"/>
     <use xlink:href="#IPAexGothic-75" x="369.238281"/>
     <use xlink:href="#IPAexGothic-6e" x="429.638672"/>
     <use xlink:href="#IPAexGothic-74" x="490.039062"/>
     <use xlink:href="#IPAexGothic-65" x="524.658203"/>
     <use xlink:href="#IPAexGothic-72" x="581.542969"/>
     <use xlink:href="#IPAexGothic-29" x="618.554688"/>
    </g>
   </g>
   <g id="text_8">
    <!-- counter += 1 -->
    <g transform="translate(69.505312 314.593437) scale(0.14 -0.14)">
     <defs>
      <path id="IPAexGothic-2b" d="M 2369 1856 
L 2369 219 
L 1984 219 
L 1984 1856 
L 416 1856 
L 416 2216 
L 1984 2216 
L 1984 3725 
L 2369 3725 
L 2369 2216 
L 3922 2216 
L 3922 1856 
L 2369 1856 
z
" transform="scale(0.015625)"/>
      <path id="IPAexGothic-31" d="M 2463 63 
L 1900 63 
L 1900 4103 
Q 1372 3922 788 3797 
L 684 4231 
Q 1519 4441 2106 4731 
L 2463 4731 
L 2463 63 
z
" transform="scale(0.015625)"/>
     </defs>
     <use xlink:href="#IPAexGothic-63"/>
     <use xlink:href="#IPAexGothic-6f" x="54.394531"/>
     <use xlink:href="#IPAexGothic-75" x="114.794922"/>
     <use xlink:href="#IPAexGothic-6e" x="175.195312"/>
     <use xlink:href="#IPAexGothic-74" x="235.595703"/>
     <use xlink:href="#IPAexGothic-65" x="270.214844"/>
     <use xlink:href="#IPAexGothic-72" x="327.099609"/>
     <use xlink:href="#IPAexGothic-20" x="364.111328"/>
     <use xlink:href="#IPAexGothic-2b" x="391.113281"/>
     <use xlink:href="#IPAexGothic-3d" x="458.935547"/>
     <use xlink:href="#IPAexGothic-20" x="526.757812"/>
     <use xlink:href="#IPAexGothic-31" x="553.759766"/>
    </g>
   </g>
  </g>
 </g>
 <defs>
  <clipPath id="pd2f2307022">
   <rect x="0" y="0" width="306.36" height="333.36"/>
  </clipPath>
 </defs>
</svg>