<?xml version="1.0" encoding="utf-8" standalone="no"?>
<!DOCTYPE svg PUBLIC "-//W3C//DTD SVG 1.1//EN"
  "http://www.w3.org/Graphics/SVG/1.1/DTD/svg11.dtd">
<svg xmlns:xlink="http://www.w3.org/1999/xlink" width="351.72pt" height="302.22pt" viewBox="0 0 351.72 302.22" xmlns="http://www.w3.org/2000/svg" version="1.1">
 <metadata>
  <rdf:RDF xmlns:dc="http://purl.org/dc/elements/1.1/" xmlns:cc="http://creativecommons.org/ns#" xmlns:rdf="http://www.w3.org/1999/02/22-rdf-syntax-ns#">
   <cc:Work>
    <dc:type rdf:resource="http://purl.org/dc/dcmitype/StillImage"/>
    <dc:date>2024-03-16T03:50:58.748333</dc:date>
    <dc:format>image/svg+xml</dc:format>
    <dc:creator>
     <cc:Agent>
      <dc:title>Matplotlib v3.8.3, https://matplotlib.org/</dc:title>
     </cc:Agent>
    </dc:creator>
   </cc:Work>
  </rdf:RDF>
 </metadata>
 <defs>
  <style type="text/css">*{stroke-linejoin: round; stroke-linecap: butt}</style>
 </defs>
 <g id="figure_1">
  <g id="patch_1">
   <path d="M 0 302.22 
L 351.72 302.22 
L 351.72 0 
L 0 0 
z
" style="fill: #ffffff"/>
  </g>
  <g id="axes_1">
   <g id="patch_2">
    <path d="M 148.86 53.01 
L 149.145587 53.007734 
L 149.431103 53.000938 
L 149.716474 52.989612 
L 150.001631 52.97376 
L 150.286499 52.953386 
L 150.571009 52.928495 
L 150.855088 52.899092 
L 151.138664 52.865187 
L 151.421667 52.826786 
L 151.704025 52.7839 
L 151.985667 52.73654 
L 152.266522 52.684717 
L 152.54652 52.628444 
L 152.82559 52.567736 
L 153.103661 52.502608 
L 153.380664 52.433077 
L 153.656529 52.359159 
L 153.931186 52.280874 
L 154.204567 52.19824 
L 154.476602 52.11128 
L 154.747223 52.020015 
L 155.016363 51.924467 
L 155.283952 51.824661 
L 155.549924 51.720623 
L 155.814212 51.612377 
L 156.07675 51.499952 
L 156.33747 51.383376 
L 156.596308 51.262678 
L 156.853199 51.137888 
L 157.108077 51.009038 
L 157.360879 50.876161 
L 157.611541 50.739289 
L 157.86 50.598457 
L 158.106193 50.453701 
L 158.350058 50.305058 
L 158.591535 50.152564 
L 158.830561 49.996257 
L 159.067078 49.836178 
L 159.301024 49.672367 
L 159.532343 49.504865 
L 159.760974 49.333713 
L 159.986862 49.158956 
L 160.209948 48.980636 
L 160.430177 48.7988 
L 160.647493 48.613492 
L 160.861842 48.42476 
L 161.073169 48.232651 
L 161.281422 48.037213 
L 161.486548 47.838495 
L 161.688495 47.636548 
L 161.887213 47.431422 
L 162.082651 47.223169 
L 162.27476 47.011842 
L 162.463492 46.797493 
L 162.6488 46.580177 
L 162.830636 46.359948 
L 163.008956 46.136862 
L 163.183713 45.910974 
L 163.354865 45.682343 
L 163.522367 45.451024 
L 163.686178 45.217078 
L 163.846257 44.980561 
L 164.002564 44.741535 
L 164.155058 44.500058 
L 164.303701 44.256193 
L 164.448457 44.01 
L 164.589289 43.761541 
L 164.726161 43.510879 
L 164.859038 43.258077 
L 164.987888 43.003199 
L 165.112678 42.746308 
L 165.233376 42.48747 
L 165.349952 42.22675 
L 165.462377 41.964212 
L 165.570623 41.699924 
L 165.674661 41.433952 
L 165.774467 41.166363 
L 165.870015 40.897223 
L 165.96128 40.626602 
L 166.04824 40.354567 
L 166.130874 40.081186 
L 166.209159 39.806529 
L 166.283077 39.530664 
L 166.352608 39.253661 
L 166.417736 38.97559 
L 166.478444 38.69652 
L 166.534717 38.416522 
L 166.58654 38.135667 
L 166.6339 37.854025 
L 166.676786 37.571667 
L 166.715187 37.288664 
L 166.749092 37.005088 
L 166.778495 36.721009 
L 166.803386 36.436499 
L 166.82376 36.151631 
L 166.839612 35.866474 
L 166.850938 35.581103 
L 166.857734 35.295587 
L 166.86 35.01 
L 166.86 35.01 
L 166.857734 34.724413 
L 166.850938 34.438897 
L 166.839612 34.153526 
L 166.82376 33.868369 
L 166.803386 33.583501 
L 166.778495 33.298991 
L 166.749092 33.014912 
L 166.715187 32.731336 
L 166.676786 32.448333 
L 166.6339 32.165975 
L 166.58654 31.884333 
L 166.534717 31.603478 
L 166.478444 31.32348 
L 166.417736 31.04441 
L 166.352608 30.766339 
L 166.283077 30.489336 
L 166.209159 30.213471 
L 166.130874 29.938814 
L 166.04824 29.665433 
L 165.96128 29.393398 
L 165.870015 29.122777 
L 165.774467 28.853637 
L 165.674661 28.586048 
L 165.570623 28.320076 
L 165.462377 28.055788 
L 165.349952 27.79325 
L 165.233376 27.53253 
L 165.112678 27.273692 
L 164.987888 27.016801 
L 164.859038 26.761923 
L 164.726161 26.509121 
L 164.589289 26.258459 
L 164.448457 26.01 
L 164.303701 25.763807 
L 164.155058 25.519942 
L 164.002564 25.278465 
L 163.846257 25.039439 
L 163.686178 24.802922 
L 163.522367 24.568976 
L 163.354865 24.337657 
L 163.183713 24.109026 
L 163.008956 23.883138 
L 162.830636 23.660052 
L 162.6488 23.439823 
L 162.463492 23.222507 
L 162.27476 23.008158 
L 162.082651 22.796831 
L 161.887213 22.588578 
L 161.688495 22.383452 
L 161.486548 22.181505 
L 161.281422 21.982787 
L 161.073169 21.787349 
L 160.861842 21.59524 
L 160.647493 21.406508 
L 160.430177 21.2212 
L 160.209948 21.039364 
L 159.986862 20.861044 
L 159.760974 20.686287 
L 159.532343 20.515135 
L 159.301024 20.347633 
L 159.067078 20.183822 
L 158.830561 20.023743 
L 158.591535 19.867436 
L 158.350058 19.714942 
L 158.106193 19.566299 
L 157.86 19.421543 
L 157.611541 19.280711 
L 157.360879 19.143839 
L 157.108077 19.010962 
L 156.853199 18.882112 
L 156.596308 18.757322 
L 156.33747 18.636624 
L 156.07675 18.520048 
L 155.814212 18.407623 
L 155.549924 18.299377 
L 155.283952 18.195339 
L 155.016363 18.095533 
L 154.747223 17.999985 
L 154.476602 17.90872 
L 154.204567 17.82176 
L 153.931186 17.739126 
L 153.656529 17.660841 
L 153.380664 17.586923 
L 153.103661 17.517392 
L 152.82559 17.452264 
L 152.54652 17.391556 
L 152.266522 17.335283 
L 151.985667 17.28346 
L 151.704025 17.2361 
L 151.421667 17.193214 
L 151.138664 17.154813 
L 150.855088 17.120908 
L 150.571009 17.091505 
L 150.286499 17.066614 
L 150.001631 17.04624 
L 149.716474 17.030388 
L 149.431103 17.019062 
L 149.145587 17.012266 
L 148.86 17.01 
L 112.86 17.01 
L 112.574413 17.012266 
L 112.288897 17.019062 
L 112.003526 17.030388 
L 111.718369 17.04624 
L 111.433501 17.066614 
L 111.148991 17.091505 
L 110.864912 17.120908 
L 110.581336 17.154813 
L 110.298333 17.193214 
L 110.015975 17.2361 
L 109.734333 17.28346 
L 109.453478 17.335283 
L 109.17348 17.391556 
L 108.89441 17.452264 
L 108.616339 17.517392 
L 108.339336 17.586923 
L 108.063471 17.660841 
L 107.788814 17.739126 
L 107.515433 17.82176 
L 107.243398 17.90872 
L 106.972777 17.999985 
L 106.703637 18.095533 
L 106.436048 18.195339 
L 106.170076 18.299377 
L 105.905788 18.407623 
L 105.64325 18.520048 
L 105.38253 18.636624 
L 105.123692 18.757322 
L 104.866801 18.882112 
L 104.611923 19.010962 
L 104.359121 19.143839 
L 104.108459 19.280711 
L 103.86 19.421543 
L 103.613807 19.566299 
L 103.369942 19.714942 
L 103.128465 19.867436 
L 102.889439 20.023743 
L 102.652922 20.183822 
L 102.418976 20.347633 
L 102.187657 20.515135 
L 101.959026 20.686287 
L 101.733138 20.861044 
L 101.510052 21.039364 
L 101.289823 21.2212 
L 101.072507 21.406508 
L 100.858158 21.59524 
L 100.646831 21.787349 
L 100.438578 21.982787 
L 100.233452 22.181505 
L 100.031505 22.383452 
L 99.832787 22.588578 
L 99.637349 22.796831 
L 99.44524 23.008158 
L 99.256508 23.222507 
L 99.0712 23.439823 
L 98.889364 23.660052 
L 98.711044 23.883138 
L 98.536287 24.109026 
L 98.365135 24.337657 
L 98.197633 24.568976 
L 98.033822 24.802922 
L 97.873743 25.039439 
L 97.717436 25.278465 
L 97.564942 25.519942 
L 97.416299 25.763807 
L 97.271543 26.01 
L 97.130711 26.258459 
L 96.993839 26.509121 
L 96.860962 26.761923 
L 96.732112 27.016801 
L 96.607322 27.273692 
L 96.486624 27.53253 
L 96.370048 27.79325 
L 96.257623 28.055788 
L 96.149377 28.320076 
L 96.045339 28.586048 
L 95.945533 28.853637 
L 95.849985 29.122777 
L 95.75872 29.393398 
L 95.67176 29.665433 
L 95.589126 29.938814 
L 95.510841 30.213471 
L 95.436923 30.489336 
L 95.367392 30.766339 
L 95.302264 31.04441 
L 95.241556 31.32348 
L 95.185283 31.603478 
L 95.13346 31.884333 
L 95.0861 32.165975 
L 95.043214 32.448333 
L 95.004813 32.731336 
L 94.970908 33.014912 
L 94.941505 33.298991 
L 94.916614 33.583501 
L 94.89624 33.868369 
L 94.880388 34.153526 
L 94.869062 34.438897 
L 94.862266 34.724413 
L 94.86 35.01 
L 94.86 35.01 
L 94.862266 35.295587 
L 94.869062 35.581103 
L 94.880388 35.866474 
L 94.89624 36.151631 
L 94.916614 36.436499 
L 94.941505 36.721009 
L 94.970908 37.005088 
L 95.004813 37.288664 
L 95.043214 37.571667 
L 95.0861 37.854025 
L 95.13346 38.135667 
L 95.185283 38.416522 
L 95.241556 38.69652 
L 95.302264 38.97559 
L 95.367392 39.253661 
L 95.436923 39.530664 
L 95.510841 39.806529 
L 95.589126 40.081186 
L 95.67176 40.354567 
L 95.75872 40.626602 
L 95.849985 40.897223 
L 95.945533 41.166363 
L 96.045339 41.433952 
L 96.149377 41.699924 
L 96.257623 41.964212 
L 96.370048 42.22675 
L 96.486624 42.48747 
L 96.607322 42.746308 
L 96.732112 43.003199 
L 96.860962 43.258077 
L 96.993839 43.510879 
L 97.130711 43.761541 
L 97.271543 44.01 
L 97.416299 44.256193 
L 97.564942 44.500058 
L 97.717436 44.741535 
L 97.873743 44.980561 
L 98.033822 45.217078 
L 98.197633 45.451024 
L 98.365135 45.682343 
L 98.536287 45.910974 
L 98.711044 46.136862 
L 98.889364 46.359948 
L 99.0712 46.580177 
L 99.256508 46.797493 
L 99.44524 47.011842 
L 99.637349 47.223169 
L 99.832787 47.431422 
L 100.031505 47.636548 
L 100.233452 47.838495 
L 100.438578 48.037213 
L 100.646831 48.232651 
L 100.858158 48.42476 
L 101.072507 48.613492 
L 101.289823 48.7988 
L 101.510052 48.980636 
L 101.733138 49.158956 
L 101.959026 49.333713 
L 102.187657 49.504865 
L 102.418976 49.672367 
L 102.652922 49.836178 
L 102.889439 49.996257 
L 103.128465 50.152564 
L 103.369942 50.305058 
L 103.613807 50.453701 
L 103.86 50.598457 
L 104.108459 50.739289 
L 104.359121 50.876161 
L 104.611923 51.009038 
L 104.866801 51.137888 
L 105.123692 51.262678 
L 105.38253 51.383376 
L 105.64325 51.499952 
L 105.905788 51.612377 
L 106.170076 51.720623 
L 106.436048 51.824661 
L 106.703637 51.924467 
L 106.972777 52.020015 
L 107.243398 52.11128 
L 107.515433 52.19824 
L 107.788814 52.280874 
L 108.063471 52.359159 
L 108.339336 52.433077 
L 108.616339 52.502608 
L 108.89441 52.567736 
L 109.17348 52.628444 
L 109.453478 52.684717 
L 109.734333 52.73654 
L 110.015975 52.7839 
L 110.298333 52.826786 
L 110.581336 52.865187 
L 110.864912 52.899092 
L 111.148991 52.928495 
L 111.433501 52.953386 
L 111.718369 52.97376 
L 112.003526 52.989612 
L 112.288897 53.000938 
L 112.574413 53.007734 
L 112.86 53.01 
L 148.86 53.01 
z
" clip-path="url(#pa326879c54)" style="fill: none; stroke: #000000; stroke-linecap: round"/>
   </g>
   <g id="patch_3">
    <path d="M 55.26 173.61 
L 130.86 143.01 
L 206.46 173.61 
L 130.86 204.21 
L 55.26 173.61 
z
" clip-path="url(#pa326879c54)" style="fill: none; stroke: #000000; stroke-linecap: round"/>
   </g>
   <g id="patch_4">
    <path d="M 314.46 191.61 
L 314.745587 191.607734 
L 315.031103 191.600938 
L 315.316474 191.589612 
L 315.601631 191.57376 
L 315.886499 191.553386 
L 316.171009 191.528495 
L 316.455088 191.499092 
L 316.738664 191.465187 
L 317.021667 191.426786 
L 317.304025 191.3839 
L 317.585667 191.33654 
L 317.866522 191.284717 
L 318.14652 191.228444 
L 318.42559 191.167736 
L 318.703661 191.102608 
L 318.980664 191.033077 
L 319.256529 190.959159 
L 319.531186 190.880874 
L 319.804567 190.79824 
L 320.076602 190.71128 
L 320.347223 190.620015 
L 320.616363 190.524467 
L 320.883952 190.424661 
L 321.149924 190.320623 
L 321.414212 190.212377 
L 321.67675 190.099952 
L 321.93747 189.983376 
L 322.196308 189.862678 
L 322.453199 189.737888 
L 322.708077 189.609038 
L 322.960879 189.476161 
L 323.211541 189.339289 
L 323.46 189.198457 
L 323.706193 189.053701 
L 323.950058 188.905058 
L 324.191535 188.752564 
L 324.430561 188.596257 
L 324.667078 188.436178 
L 324.901024 188.272367 
L 325.132343 188.104865 
L 325.360974 187.933713 
L 325.586862 187.758956 
L 325.809948 187.580636 
L 326.030177 187.3988 
L 326.247493 187.213492 
L 326.461842 187.02476 
L 326.673169 186.832651 
L 326.881422 186.637213 
L 327.086548 186.438495 
L 327.288495 186.236548 
L 327.487213 186.031422 
L 327.682651 185.823169 
L 327.87476 185.611842 
L 328.063492 185.397493 
L 328.2488 185.180177 
L 328.430636 184.959948 
L 328.608956 184.736862 
L 328.783713 184.510974 
L 328.954865 184.282343 
L 329.122367 184.051024 
L 329.286178 183.817078 
L 329.446257 183.580561 
L 329.602564 183.341535 
L 329.755058 183.100058 
L 329.903701 182.856193 
L 330.048457 182.61 
L 330.189289 182.361541 
L 330.326161 182.110879 
L 330.459038 181.858077 
L 330.587888 181.603199 
L 330.712678 181.346308 
L 330.833376 181.08747 
L 330.949952 180.82675 
L 331.062377 180.564212 
L 331.170623 180.299924 
L 331.274661 180.033952 
L 331.374467 179.766363 
L 331.470015 179.497223 
L 331.56128 179.226602 
L 331.64824 178.954567 
L 331.730874 178.681186 
L 331.809159 178.406529 
L 331.883077 178.130664 
L 331.952608 177.853661 
L 332.017736 177.57559 
L 332.078444 177.29652 
L 332.134717 177.016522 
L 332.18654 176.735667 
L 332.2339 176.454025 
L 332.276786 176.171667 
L 332.315187 175.888664 
L 332.349092 175.605088 
L 332.378495 175.321009 
L 332.403386 175.036499 
L 332.42376 174.751631 
L 332.439612 174.466474 
L 332.450938 174.181103 
L 332.457734 173.895587 
L 332.46 173.61 
L 332.46 173.61 
L 332.457734 173.324413 
L 332.450938 173.038897 
L 332.439612 172.753526 
L 332.42376 172.468369 
L 332.403386 172.183501 
L 332.378495 171.898991 
L 332.349092 171.614912 
L 332.315187 171.331336 
L 332.276786 171.048333 
L 332.2339 170.765975 
L 332.18654 170.484333 
L 332.134717 170.203478 
L 332.078444 169.92348 
L 332.017736 169.64441 
L 331.952608 169.366339 
L 331.883077 169.089336 
L 331.809159 168.813471 
L 331.730874 168.538814 
L 331.64824 168.265433 
L 331.56128 167.993398 
L 331.470015 167.722777 
L 331.374467 167.453637 
L 331.274661 167.186048 
L 331.170623 166.920076 
L 331.062377 166.655788 
L 330.949952 166.39325 
L 330.833376 166.13253 
L 330.712678 165.873692 
L 330.587888 165.616801 
L 330.459038 165.361923 
L 330.326161 165.109121 
L 330.189289 164.858459 
L 330.048457 164.61 
L 329.903701 164.363807 
L 329.755058 164.119942 
L 329.602564 163.878465 
L 329.446257 163.639439 
L 329.286178 163.402922 
L 329.122367 163.168976 
L 328.954865 162.937657 
L 328.783713 162.709026 
L 328.608956 162.483138 
L 328.430636 162.260052 
L 328.2488 162.039823 
L 328.063492 161.822507 
L 327.87476 161.608158 
L 327.682651 161.396831 
L 327.487213 161.188578 
L 327.288495 160.983452 
L 327.086548 160.781505 
L 326.881422 160.582787 
L 326.673169 160.387349 
L 326.461842 160.19524 
L 326.247493 160.006508 
L 326.030177 159.8212 
L 325.809948 159.639364 
L 325.586862 159.461044 
L 325.360974 159.286287 
L 325.132343 159.115135 
L 324.901024 158.947633 
L 324.667078 158.783822 
L 324.430561 158.623743 
L 324.191535 158.467436 
L 323.950058 158.314942 
L 323.706193 158.166299 
L 323.46 158.021543 
L 323.211541 157.880711 
L 322.960879 157.743839 
L 322.708077 157.610962 
L 322.453199 157.482112 
L 322.196308 157.357322 
L 321.93747 157.236624 
L 321.67675 157.120048 
L 321.414212 157.007623 
L 321.149924 156.899377 
L 320.883952 156.795339 
L 320.616363 156.695533 
L 320.347223 156.599985 
L 320.076602 156.50872 
L 319.804567 156.42176 
L 319.531186 156.339126 
L 319.256529 156.260841 
L 318.980664 156.186923 
L 318.703661 156.117392 
L 318.42559 156.052264 
L 318.14652 155.991556 
L 317.866522 155.935283 
L 317.585667 155.88346 
L 317.304025 155.8361 
L 317.021667 155.793214 
L 316.738664 155.754813 
L 316.455088 155.720908 
L 316.171009 155.691505 
L 315.886499 155.666614 
L 315.601631 155.64624 
L 315.316474 155.630388 
L 315.031103 155.619062 
L 314.745587 155.612266 
L 314.46 155.61 
L 278.46 155.61 
L 278.174413 155.612266 
L 277.888897 155.619062 
L 277.603526 155.630388 
L 277.318369 155.64624 
L 277.033501 155.666614 
L 276.748991 155.691505 
L 276.464912 155.720908 
L 276.181336 155.754813 
L 275.898333 155.793214 
L 275.615975 155.8361 
L 275.334333 155.88346 
L 275.053478 155.935283 
L 274.77348 155.991556 
L 274.49441 156.052264 
L 274.216339 156.117392 
L 273.939336 156.186923 
L 273.663471 156.260841 
L 273.388814 156.339126 
L 273.115433 156.42176 
L 272.843398 156.50872 
L 272.572777 156.599985 
L 272.303637 156.695533 
L 272.036048 156.795339 
L 271.770076 156.899377 
L 271.505788 157.007623 
L 271.24325 157.120048 
L 270.98253 157.236624 
L 270.723692 157.357322 
L 270.466801 157.482112 
L 270.211923 157.610962 
L 269.959121 157.743839 
L 269.708459 157.880711 
L 269.46 158.021543 
L 269.213807 158.166299 
L 268.969942 158.314942 
L 268.728465 158.467436 
L 268.489439 158.623743 
L 268.252922 158.783822 
L 268.018976 158.947633 
L 267.787657 159.115135 
L 267.559026 159.286287 
L 267.333138 159.461044 
L 267.110052 159.639364 
L 266.889823 159.8212 
L 266.672507 160.006508 
L 266.458158 160.19524 
L 266.246831 160.387349 
L 266.038578 160.582787 
L 265.833452 160.781505 
L 265.631505 160.983452 
L 265.432787 161.188578 
L 265.237349 161.396831 
L 265.04524 161.608158 
L 264.856508 161.822507 
L 264.6712 162.039823 
L 264.489364 162.260052 
L 264.311044 162.483138 
L 264.136287 162.709026 
L 263.965135 162.937657 
L 263.797633 163.168976 
L 263.633822 163.402922 
L 263.473743 163.639439 
L 263.317436 163.878465 
L 263.164942 164.119942 
L 263.016299 164.363807 
L 262.871543 164.61 
L 262.730711 164.858459 
L 262.593839 165.109121 
L 262.460962 165.361923 
L 262.332112 165.616801 
L 262.207322 165.873692 
L 262.086624 166.13253 
L 261.970048 166.39325 
L 261.857623 166.655788 
L 261.749377 166.920076 
L 261.645339 167.186048 
L 261.545533 167.453637 
L 261.449985 167.722777 
L 261.35872 167.993398 
L 261.27176 168.265433 
L 261.189126 168.538814 
L 261.110841 168.813471 
L 261.036923 169.089336 
L 260.967392 169.366339 
L 260.902264 169.64441 
L 260.841556 169.92348 
L 260.785283 170.203478 
L 260.73346 170.484333 
L 260.6861 170.765975 
L 260.643214 171.048333 
L 260.604813 171.331336 
L 260.570908 171.614912 
L 260.541505 171.898991 
L 260.516614 172.183501 
L 260.49624 172.468369 
L 260.480388 172.753526 
L 260.469062 173.038897 
L 260.462266 173.324413 
L 260.46 173.61 
L 260.46 173.61 
L 260.462266 173.895587 
L 260.469062 174.181103 
L 260.480388 174.466474 
L 260.49624 174.751631 
L 260.516614 175.036499 
L 260.541505 175.321009 
L 260.570908 175.605088 
L 260.604813 175.888664 
L 260.643214 176.171667 
L 260.6861 176.454025 
L 260.73346 176.735667 
L 260.785283 177.016522 
L 260.841556 177.29652 
L 260.902264 177.57559 
L 260.967392 177.853661 
L 261.036923 178.130664 
L 261.110841 178.406529 
L 261.189126 178.681186 
L 261.27176 178.954567 
L 261.35872 179.226602 
L 261.449985 179.497223 
L 261.545533 179.766363 
L 261.645339 180.033952 
L 261.749377 180.299924 
L 261.857623 180.564212 
L 261.970048 180.82675 
L 262.086624 181.08747 
L 262.207322 181.346308 
L 262.332112 181.603199 
L 262.460962 181.858077 
L 262.593839 182.110879 
L 262.730711 182.361541 
L 262.871543 182.61 
L 263.016299 182.856193 
L 263.164942 183.100058 
L 263.317436 183.341535 
L 263.473743 183.580561 
L 263.633822 183.817078 
L 263.797633 184.051024 
L 263.965135 184.282343 
L 264.136287 184.510974 
L 264.311044 184.736862 
L 264.489364 184.959948 
L 264.6712 185.180177 
L 264.856508 185.397493 
L 265.04524 185.611842 
L 265.237349 185.823169 
L 265.432787 186.031422 
L 265.631505 186.236548 
L 265.833452 186.438495 
L 266.038578 186.637213 
L 266.246831 186.832651 
L 266.458158 187.02476 
L 266.672507 187.213492 
L 266.889823 187.3988 
L 267.110052 187.580636 
L 267.333138 187.758956 
L 267.559026 187.933713 
L 267.787657 188.104865 
L 268.018976 188.272367 
L 268.252922 188.436178 
L 268.489439 188.596257 
L 268.728465 188.752564 
L 268.969942 188.905058 
L 269.213807 189.053701 
L 269.46 189.198457 
L 269.708459 189.339289 
L 269.959121 189.476161 
L 270.211923 189.609038 
L 270.466801 189.737888 
L 270.723692 189.862678 
L 270.98253 189.983376 
L 271.24325 190.099952 
L 271.505788 190.212377 
L 271.770076 190.320623 
L 272.036048 190.424661 
L 272.303637 190.524467 
L 272.572777 190.620015 
L 272.843398 190.71128 
L 273.115433 190.79824 
L 273.388814 190.880874 
L 273.663471 190.959159 
L 273.939336 191.033077 
L 274.216339 191.102608 
L 274.49441 191.167736 
L 274.77348 191.228444 
L 275.053478 191.284717 
L 275.334333 191.33654 
L 275.615975 191.3839 
L 275.898333 191.426786 
L 276.181336 191.465187 
L 276.464912 191.499092 
L 276.748991 191.528495 
L 277.033501 191.553386 
L 277.318369 191.57376 
L 277.603526 191.589612 
L 277.888897 191.600938 
L 278.174413 191.607734 
L 278.46 191.61 
L 314.46 191.61 
z
" clip-path="url(#pa326879c54)" style="fill: none; stroke: #000000; stroke-linecap: round"/>
   </g>
   <g id="line2d_1">
    <path d="M 130.86 53.01 
L 130.86 66.51 
L 130.86 71.01 
" clip-path="url(#pa326879c54)" style="fill: none; stroke: #000000; stroke-linecap: round"/>
   </g>
   <g id="patch_5">
    <path d="M 133.56 71.01 
L 130.86 80.01 
L 128.16 71.01 
z
" clip-path="url(#pa326879c54)"/>
   </g>
   <g id="line2d_2">
    <path d="M 57.06 98.01 
L 57.06 80.01 
L 204.66 80.01 
L 204.66 116.01 
L 57.06 116.01 
L 57.06 98.01 
" clip-path="url(#pa326879c54)" style="fill: none; stroke: #000000; stroke-linecap: round"/>
   </g>
   <g id="line2d_3">
    <path d="M 130.86 116.01 
L 130.86 129.51 
L 130.86 134.01 
" clip-path="url(#pa326879c54)" style="fill: none; stroke: #000000; stroke-linecap: round"/>
   </g>
   <g id="patch_6">
    <path d="M 133.56 134.01 
L 130.86 143.01 
L 128.16 134.01 
z
" clip-path="url(#pa326879c54)"/>
   </g>
   <g id="line2d_4">
    <path d="M 206.46 173.61 
L 233.46 173.61 
L 251.46 173.61 
" clip-path="url(#pa326879c54)" style="fill: none; stroke: #000000; stroke-linecap: round"/>
   </g>
   <g id="patch_7">
    <path d="M 251.46 170.91 
L 260.46 173.61 
L 251.46 176.31 
z
" clip-path="url(#pa326879c54)"/>
   </g>
   <g id="line2d_5">
    <path d="M 130.86 204.21 
L 130.86 226.71 
L 130.86 240.21 
" clip-path="url(#pa326879c54)" style="fill: none; stroke: #000000; stroke-linecap: round"/>
   </g>
   <g id="patch_8">
    <path d="M 133.56 240.21 
L 130.86 249.21 
L 128.16 240.21 
z
" clip-path="url(#pa326879c54)"/>
   </g>
   <g id="line2d_6">
    <path d="M 73.26 267.21 
L 73.26 249.21 
L 188.46 249.21 
L 188.46 285.21 
L 73.26 285.21 
L 73.26 267.21 
" clip-path="url(#pa326879c54)" style="fill: none; stroke: #000000; stroke-linecap: round"/>
   </g>
   <g id="line2d_7">
    <path d="M 73.26 267.21 
L 19.26 267.21 
L 19.26 98.01 
L 48.06 98.01 
" clip-path="url(#pa326879c54)" style="fill: none; stroke: #000000; stroke-linecap: round"/>
   </g>
   <g id="patch_9">
    <path d="M 48.06 95.31 
L 57.06 98.01 
L 48.06 100.71 
z
" clip-path="url(#pa326879c54)"/>
   </g>
   <g id="text_1">
    <!-- START -->
    <g transform="translate(111.683242 38.504141) scale(0.125 -0.125)">
     <defs>
      <path id="IPAexGothic-53" d="M 2919 3641 
Q 2563 4259 1853 4259 
Q 1453 4259 1213 4009 
Q 1028 3803 1028 3534 
Q 1028 3238 1266 3047 
Q 1444 2913 1984 2688 
L 2200 2597 
Q 2925 2306 3191 1953 
Q 3422 1644 3422 1259 
Q 3422 644 2969 288 
Q 2559 -31 1931 -31 
Q 881 -31 313 766 
L 753 1100 
Q 1203 459 1938 459 
Q 2288 459 2534 625 
Q 2841 847 2841 1216 
Q 2841 1503 2616 1728 
Q 2375 1959 1728 2206 
L 1541 2278 
Q 453 2694 453 3481 
Q 453 4006 806 4347 
Q 1203 4725 1863 4725 
Q 2841 4725 3359 3956 
L 2919 3641 
z
" transform="scale(0.015625)"/>
      <path id="IPAexGothic-54" d="M 3866 4141 
L 2175 4141 
L 2175 63 
L 1606 63 
L 1606 4141 
L -31 4141 
L -31 4634 
L 3866 4634 
L 3866 4141 
z
" transform="scale(0.015625)"/>
      <path id="IPAexGothic-41" d="M 4056 63 
L 3444 63 
L 2938 1409 
L 1100 1409 
L 603 63 
L -6 63 
L 1806 4666 
L 2259 4666 
L 4056 63 
z
M 2778 1863 
L 2316 3078 
Q 2125 3588 2028 4000 
L 2009 4000 
Q 1897 3563 1716 3078 
L 1263 1863 
L 2778 1863 
z
" transform="scale(0.015625)"/>
      <path id="IPAexGothic-52" d="M 4072 63 
L 3394 63 
Q 3138 641 2828 1197 
Q 2584 1641 2344 1825 
Q 2050 2044 1625 2044 
L 1172 2044 
L 1172 63 
L 609 63 
L 609 4634 
L 2009 4634 
Q 2713 4634 3131 4378 
Q 3688 4044 3688 3381 
Q 3688 2784 3181 2459 
Q 2906 2272 2522 2216 
L 2522 2197 
Q 2941 2050 3247 1581 
Q 3516 1166 4072 63 
z
M 1172 2478 
L 1869 2478 
Q 3106 2478 3106 3369 
Q 3106 4181 1928 4181 
L 1172 4181 
L 1172 2478 
z
" transform="scale(0.015625)"/>
     </defs>
     <use xlink:href="#IPAexGothic-53"/>
     <use xlink:href="#IPAexGothic-54" x="58.496094"/>
     <use xlink:href="#IPAexGothic-41" x="118.408203"/>
     <use xlink:href="#IPAexGothic-52" x="182.128906"/>
     <use xlink:href="#IPAexGothic-54" x="246.923828"/>
    </g>
   </g>
   <g id="text_2">
    <!-- gdp_componentsの -->
    <g transform="translate(73.799453 94.662539) scale(0.125 -0.125)">
     <defs>
      <path id="IPAexGothic-67" d="M 1331 1150 
Q 1006 1122 1006 900 
Q 1006 613 1763 575 
L 2131 556 
Q 3303 497 3303 -294 
Q 3303 -700 2925 -959 
Q 2519 -1253 1794 -1253 
Q 1138 -1253 738 -1028 
Q 353 -809 353 -428 
Q 353 84 1075 247 
L 1075 269 
Q 506 413 506 778 
Q 506 1116 994 1297 
Q 456 1575 456 2181 
Q 456 2650 769 2963 
Q 1128 3322 1738 3322 
Q 2125 3322 2422 3153 
Q 2650 3453 3259 3463 
L 3259 3013 
Q 2838 3003 2703 2938 
Q 3034 2613 3034 2169 
Q 3034 1728 2734 1425 
Q 2400 1094 1813 1094 
Q 1563 1094 1331 1150 
z
M 1734 2919 
Q 1409 2919 1197 2706 
Q 988 2497 988 2181 
Q 988 1872 1184 1684 
Q 1397 1472 1756 1472 
Q 2094 1472 2297 1678 
Q 2503 1881 2503 2203 
Q 2503 2497 2297 2700 
Q 2081 2919 1734 2919 
z
M 1753 159 
Q 903 159 903 -366 
Q 903 -875 1800 -875 
Q 2378 -875 2638 -606 
Q 2772 -481 2772 -313 
Q 2772 159 1753 159 
z
" transform="scale(0.015625)"/>
      <path id="IPAexGothic-64" d="M 3391 63 
L 2891 63 
L 2891 619 
Q 2441 -31 1753 -31 
Q 1181 -31 788 372 
Q 313 844 313 1663 
Q 313 2466 772 2938 
Q 1169 3341 1753 3341 
Q 2384 3341 2847 2809 
L 2847 4794 
L 3391 4794 
L 3391 63 
z
M 2847 1303 
L 2847 2097 
Q 2847 2413 2456 2706 
Q 2181 2906 1853 2906 
Q 1484 2906 1228 2650 
Q 888 2309 888 1678 
Q 888 1109 1169 750 
Q 1441 409 1847 409 
Q 2322 409 2656 875 
Q 2847 1134 2847 1303 
z
" transform="scale(0.015625)"/>
      <path id="IPAexGothic-70" d="M 1075 2688 
Q 1525 3341 2206 3341 
Q 2769 3341 3172 2938 
Q 3641 2469 3641 1644 
Q 3641 841 3178 372 
Q 2775 -31 2200 -31 
Q 1569 -31 1106 497 
L 1106 -1216 
L 563 -1216 
L 563 3250 
L 1075 3250 
L 1075 2688 
z
M 1106 1950 
L 1106 1291 
Q 1106 897 1516 600 
Q 1791 403 2106 403 
Q 2469 403 2725 659 
Q 3066 997 3066 1631 
Q 3066 2200 2784 2559 
Q 2503 2900 2100 2900 
Q 1656 2900 1338 2484 
Q 1106 2184 1106 1950 
z
" transform="scale(0.015625)"/>
      <path id="IPAexGothic-5f" d="M 3200 -750 
L 0 -750 
L 0 -431 
L 3200 -431 
L 3200 -750 
z
" transform="scale(0.015625)"/>
      <path id="IPAexGothic-63" d="M 3269 784 
Q 2834 -31 1900 -31 
Q 1228 -31 788 409 
Q 313 891 313 1663 
Q 313 2428 788 2913 
Q 1222 3347 1881 3347 
Q 2813 3347 3206 2541 
L 2763 2309 
Q 2484 2900 1900 2900 
Q 1516 2900 1234 2619 
Q 881 2266 881 1650 
Q 881 1069 1222 728 
Q 1522 428 1956 428 
Q 2547 428 2847 1016 
L 3269 784 
z
" transform="scale(0.015625)"/>
      <path id="IPAexGothic-6f" d="M 1919 3341 
Q 2594 3341 3056 2888 
Q 3531 2413 3531 1638 
Q 3531 888 3066 422 
Q 2609 -31 1919 -31 
Q 1228 -31 781 416 
Q 313 881 313 1656 
Q 313 2413 788 2888 
Q 1241 3341 1919 3341 
z
M 1919 2919 
Q 1519 2919 1241 2631 
Q 888 2278 888 1650 
Q 888 1031 1234 684 
Q 1516 403 1919 403 
Q 2331 403 2609 691 
Q 2956 1038 2956 1672 
Q 2956 2269 2603 2631 
Q 2316 2919 1919 2919 
z
" transform="scale(0.015625)"/>
      <path id="IPAexGothic-6d" d="M 5022 63 
L 4472 63 
L 4472 2059 
Q 4472 2869 3847 2869 
Q 3550 2869 3303 2594 
Q 3128 2397 3059 2103 
L 3059 63 
L 2509 63 
L 2509 2066 
Q 2509 2869 1919 2869 
Q 1606 2869 1369 2594 
Q 1113 2306 1113 2041 
L 1113 63 
L 563 63 
L 563 3250 
L 1075 3250 
L 1075 2700 
Q 1391 3316 2028 3316 
Q 2725 3316 2956 2647 
Q 3303 3316 3953 3316 
Q 4478 3316 4772 2944 
Q 5022 2638 5022 2072 
L 5022 63 
z
" transform="scale(0.015625)"/>
      <path id="IPAexGothic-6e" d="M 3328 63 
L 2778 63 
L 2778 2041 
Q 2778 2853 2106 2853 
Q 1428 2853 1113 2041 
L 1113 63 
L 563 63 
L 563 3250 
L 1075 3250 
L 1075 2675 
Q 1525 3316 2222 3316 
Q 3328 3316 3328 2072 
L 3328 63 
z
" transform="scale(0.015625)"/>
      <path id="IPAexGothic-65" d="M 863 1594 
Q 891 1041 1209 722 
Q 1534 397 1997 397 
Q 2606 397 2963 966 
L 3322 728 
Q 2869 -31 1931 -31 
Q 1222 -31 766 422 
Q 306 884 306 1641 
Q 306 2444 788 2925 
Q 1216 3353 1856 3353 
Q 2459 3353 2866 2956 
Q 3322 2494 3322 1722 
L 3322 1594 
L 863 1594 
z
M 2756 1997 
Q 2709 2431 2450 2681 
Q 2194 2938 1844 2938 
Q 1438 2938 1150 2591 
Q 953 2356 894 1997 
L 2756 1997 
z
" transform="scale(0.015625)"/>
      <path id="IPAexGothic-74" d="M 2125 241 
Q 1769 -6 1397 -6 
Q 653 -6 653 831 
L 653 2859 
L 219 2859 
L 219 3250 
L 653 3250 
L 653 3966 
L 1178 4228 
L 1178 3250 
L 2063 3250 
L 2063 2859 
L 1178 2859 
L 1178 906 
Q 1178 416 1513 416 
Q 1738 416 1941 588 
L 2125 241 
z
" transform="scale(0.015625)"/>
      <path id="IPAexGothic-73" d="M 2234 2547 
Q 1938 2931 1484 2931 
Q 891 2931 891 2475 
Q 891 2153 1531 1944 
L 1741 1875 
Q 2650 1578 2650 894 
Q 2650 434 2272 172 
Q 1972 -31 1497 -31 
Q 766 -31 256 503 
L 603 819 
Q 997 397 1516 397 
Q 2131 397 2131 875 
Q 2131 1238 1453 1478 
L 1234 1553 
Q 378 1853 378 2431 
Q 378 2797 628 3047 
Q 928 3347 1453 3347 
Q 2156 3347 2606 2859 
L 2234 2547 
z
" transform="scale(0.015625)"/>
      <path id="IPAexGothic-306e" d="M 3119 469 
Q 5275 766 5275 2425 
Q 5275 3453 4413 3925 
Q 4041 4116 3547 4159 
Q 3394 2525 2850 1400 
Q 2322 306 1722 306 
Q 1384 306 1084 666 
Q 609 1244 609 2003 
Q 609 3025 1397 3794 
Q 2184 4563 3431 4563 
Q 4306 4563 4928 4122 
Q 5813 3506 5813 2425 
Q 5813 438 3431 6 
L 3119 469 
z
M 3053 4147 
Q 2378 4044 1891 3641 
Q 1097 2981 1097 1991 
Q 1097 1366 1434 978 
Q 1581 813 1719 813 
Q 2022 813 2416 1625 
Q 2909 2638 3053 4147 
z
" transform="scale(0.015625)"/>
     </defs>
     <use xlink:href="#IPAexGothic-67"/>
     <use xlink:href="#IPAexGothic-64" x="55.517578"/>
     <use xlink:href="#IPAexGothic-70" x="117.919922"/>
     <use xlink:href="#IPAexGothic-5f" x="180.029297"/>
     <use xlink:href="#IPAexGothic-63" x="230.029297"/>
     <use xlink:href="#IPAexGothic-6f" x="284.423828"/>
     <use xlink:href="#IPAexGothic-6d" x="344.824219"/>
     <use xlink:href="#IPAexGothic-70" x="431.933594"/>
     <use xlink:href="#IPAexGothic-6f" x="494.042969"/>
     <use xlink:href="#IPAexGothic-6e" x="554.443359"/>
     <use xlink:href="#IPAexGothic-65" x="614.84375"/>
     <use xlink:href="#IPAexGothic-6e" x="671.728516"/>
     <use xlink:href="#IPAexGothic-74" x="732.128906"/>
     <use xlink:href="#IPAexGothic-73" x="766.748047"/>
     <use xlink:href="#IPAexGothic-306e" x="812.939453"/>
    </g>
    <!-- 要素を $i$ に割り当てる -->
    <g transform="translate(69.485 108.345742) scale(0.125 -0.125)">
     <defs>
      <path id="IPAexGothic-8981" d="M 2278 4025 
L 2278 4581 
L 528 4581 
L 528 4978 
L 5856 4978 
L 5856 4581 
L 4081 4581 
L 4081 4025 
L 5522 4025 
L 5522 2547 
L 863 2547 
L 863 4025 
L 2278 4025 
z
M 2694 4025 
L 3659 4025 
L 3659 4581 
L 2694 4581 
L 2694 4025 
z
M 2278 3666 
L 1316 3666 
L 1316 2906 
L 2278 2906 
L 2278 3666 
z
M 2694 3666 
L 2694 2906 
L 3659 2906 
L 3659 3666 
L 2694 3666 
z
M 4081 3666 
L 4081 2906 
L 5075 2906 
L 5075 3666 
L 4081 3666 
z
M 3066 338 
Q 2547 503 1694 722 
L 1503 775 
Q 1816 1141 2066 1503 
L 447 1503 
L 447 1900 
L 2316 1900 
Q 2497 2225 2641 2516 
L 3084 2366 
Q 2984 2172 2834 1900 
L 5950 1900 
L 5950 1503 
L 4619 1503 
Q 4369 878 3988 484 
Q 4750 263 5797 -91 
L 5413 -488 
Q 4441 -100 3597 172 
Q 2706 -406 869 -531 
L 625 -97 
Q 2122 -28 3066 338 
z
M 3513 619 
Q 3934 1025 4134 1503 
L 2597 1503 
Q 2413 1213 2238 984 
L 2213 953 
Q 2656 853 3513 619 
z
" transform="scale(0.015625)"/>
      <path id="IPAexGothic-7d20" d="M 3419 1172 
L 3419 -450 
L 2931 -450 
L 2931 1144 
L 2553 1125 
Q 1875 1094 538 1063 
L 397 1497 
Q 1191 1497 2175 1509 
L 2350 1516 
Q 1784 2013 1350 2316 
L 1678 2584 
Q 2013 2347 2188 2206 
Q 2488 2456 2803 2841 
L 347 2841 
L 347 3213 
L 2944 3213 
L 2944 3603 
L 953 3603 
L 953 3956 
L 2944 3956 
L 2944 4313 
L 666 4313 
L 666 4678 
L 2944 4678 
L 2944 5313 
L 3413 5313 
L 3413 4678 
L 5728 4678 
L 5728 4313 
L 3413 4313 
L 3413 3956 
L 5441 3956 
L 5441 3603 
L 3413 3603 
L 3413 3213 
L 6050 3213 
L 6050 2841 
L 2931 2841 
L 3234 2656 
Q 2897 2309 2472 1963 
Q 2669 1800 2938 1541 
Q 3656 2131 4175 2669 
L 4591 2444 
Q 4069 1922 3541 1547 
Q 3719 1547 3809 1553 
L 4666 1588 
L 4781 1594 
L 5056 1606 
Q 4819 1819 4578 1997 
L 4916 2247 
Q 5531 1794 6056 1241 
L 5697 941 
Q 5506 1163 5378 1291 
Q 5319 1291 5275 1284 
Q 4719 1238 3663 1178 
L 3419 1172 
z
M 500 -13 
Q 1347 356 1947 966 
L 2375 750 
Q 1775 81 884 -384 
L 500 -13 
z
M 5581 -256 
Q 4844 369 4084 769 
L 4463 1044 
Q 5219 669 5991 109 
L 5581 -256 
z
" transform="scale(0.015625)"/>
      <path id="IPAexGothic-3092" d="M 1094 4263 
Q 1544 4222 2359 4222 
Q 2581 4734 2700 5163 
L 3175 5028 
Q 2997 4538 2859 4256 
Q 3516 4284 4294 4459 
L 4356 4019 
Q 3603 3869 2656 3819 
Q 2391 3284 2059 2797 
Q 2531 3200 2963 3200 
Q 3638 3200 3859 2378 
Q 4556 2681 5338 2950 
L 5575 2528 
Q 4641 2253 3941 1956 
Q 3981 1678 3994 1028 
L 3513 991 
Q 3513 1456 3494 1753 
Q 2388 1194 2388 716 
Q 2388 428 2753 328 
Q 3066 241 3806 241 
Q 4394 241 5178 344 
L 5216 -128 
Q 4434 -213 3653 -213 
Q 2656 -213 2244 41 
Q 1913 244 1913 631 
Q 1913 1094 2344 1497 
Q 2709 1841 3428 2181 
Q 3266 2797 2878 2797 
Q 2238 2797 1209 1419 
L 838 1694 
Q 1625 2716 2163 3800 
Q 1522 3800 1088 3825 
L 1094 4263 
z
" transform="scale(0.015625)"/>
      <path id="IPAexGothic-20" transform="scale(0.015625)"/>
      <path id="DejaVuSans-Oblique-69" d="M 1172 4863 
L 1747 4863 
L 1606 4134 
L 1031 4134 
L 1172 4863 
z
M 909 3500 
L 1484 3500 
L 800 0 
L 225 0 
L 909 3500 
z
" transform="scale(0.015625)"/>
      <path id="IPAexGothic-306b" d="M 1088 -38 
Q 922 1003 922 2081 
Q 922 3222 1331 4794 
L 1813 4684 
Q 1391 3113 1391 2003 
Q 1391 1441 1422 1147 
Q 1434 1181 1813 2016 
L 2125 1797 
Q 1800 1081 1691 763 
Q 1581 453 1581 269 
Q 1581 78 1588 6 
L 1088 -38 
z
M 2834 4038 
Q 3969 4213 5313 4172 
L 5338 3681 
Q 3959 3728 2869 3547 
L 2834 4038 
z
M 5650 256 
Q 5044 172 4372 172 
Q 3463 172 3047 434 
Q 2784 594 2675 841 
Q 2572 1075 2572 1447 
Q 2572 1563 2578 1656 
L 3053 1684 
Q 3050 1613 3044 1528 
Q 3041 1481 3041 1466 
Q 3041 1200 3119 1053 
Q 3178 944 3309 850 
Q 3569 678 4275 678 
Q 4891 678 5588 763 
L 5650 256 
z
" transform="scale(0.015625)"/>
      <path id="IPAexGothic-5272" d="M 2325 4209 
L 2325 3713 
L 3272 3713 
L 3272 3381 
L 2325 3381 
L 2325 2950 
L 3494 2950 
L 3494 2619 
L 2325 2619 
L 2325 2175 
L 3956 2175 
L 3956 1809 
L 353 1809 
L 353 2175 
L 1909 2175 
L 1909 2619 
L 753 2619 
L 753 2950 
L 1909 2950 
L 1909 3381 
L 984 3381 
L 984 3713 
L 1909 3713 
L 1909 4209 
L 838 4209 
L 838 3609 
L 409 3609 
L 409 4569 
L 1903 4569 
L 1903 5313 
L 2338 5313 
L 2338 4569 
L 3872 4569 
L 3872 3609 
L 3444 3609 
L 3444 4209 
L 2325 4209 
z
M 3388 1397 
L 3388 -384 
L 2966 -384 
L 2966 -122 
L 1269 -122 
L 1269 -447 
L 847 -447 
L 847 1397 
L 3388 1397 
z
M 1269 1038 
L 1269 238 
L 2966 238 
L 2966 1038 
L 1269 1038 
z
M 4259 4550 
L 4700 4550 
L 4700 953 
L 4259 953 
L 4259 4550 
z
M 5403 5081 
L 5844 5081 
L 5844 159 
Q 5844 -106 5747 -231 
Q 5634 -372 5263 -372 
Q 4763 -372 4391 -325 
L 4303 141 
Q 4803 75 5206 75 
Q 5403 75 5403 300 
L 5403 5081 
z
" transform="scale(0.015625)"/>
      <path id="IPAexGothic-308a" d="M 2878 2925 
Q 2503 2294 2372 2041 
Q 2222 1750 2163 1459 
L 1716 1503 
Q 1509 2131 1509 3091 
Q 1509 3744 1663 4872 
L 2181 4806 
Q 2003 3541 2003 3016 
Q 2003 2613 2028 2259 
Q 2109 2413 2313 2766 
Q 2484 3063 2578 3238 
L 2878 2925 
z
M 2488 128 
Q 3534 503 3928 1184 
Q 4234 1713 4234 2975 
Q 4234 3872 4122 4928 
L 4666 4928 
Q 4759 3794 4759 2975 
Q 4759 1516 4356 844 
Q 3913 103 2853 -288 
L 2488 128 
z
" transform="scale(0.015625)"/>
      <path id="IPAexGothic-5f53" d="M 3413 2931 
L 5466 2931 
L 5466 -447 
L 4991 -447 
L 4991 -128 
L 825 -128 
L 825 288 
L 4991 288 
L 4991 1241 
L 978 1241 
L 978 1650 
L 4991 1650 
L 4991 2528 
L 819 2528 
L 819 2931 
L 2938 2931 
L 2938 5147 
L 3413 5147 
L 3413 2931 
z
M 1716 3219 
Q 1375 3966 972 4506 
L 1388 4738 
Q 1800 4228 2175 3450 
L 1716 3219 
z
M 4088 3416 
Q 4531 4009 4916 4844 
L 5394 4625 
Q 4984 3828 4513 3194 
L 4088 3416 
z
" transform="scale(0.015625)"/>
      <path id="IPAexGothic-3066" d="M 581 4034 
Q 2978 4363 5466 4556 
L 5509 4097 
Q 4388 4031 3750 3572 
Q 2797 2878 2797 1913 
Q 2797 1169 3291 819 
Q 3778 484 4869 416 
L 4906 -116 
Q 2278 0 2278 1850 
Q 2278 3125 3691 4000 
Q 2066 3784 684 3553 
L 581 4034 
z
" transform="scale(0.015625)"/>
      <path id="IPAexGothic-308b" d="M 4391 4397 
L 2613 2588 
Q 3225 2809 3759 2809 
Q 4263 2809 4659 2625 
Q 5391 2269 5391 1484 
Q 5391 756 4706 275 
Q 4072 -166 3053 -166 
Q 2559 -166 2247 19 
Q 1863 250 1863 666 
Q 1863 934 2069 1141 
Q 2331 1403 2741 1403 
Q 3509 1403 4019 428 
Q 4872 784 4872 1491 
Q 4872 1981 4469 2222 
Q 4166 2406 3681 2406 
Q 2425 2406 1238 1209 
L 891 1581 
Q 2438 2934 3578 4281 
Q 2594 4125 1588 4066 
L 1478 4550 
Q 2594 4581 4109 4763 
L 4391 4397 
z
M 3591 303 
Q 3244 1025 2731 1025 
Q 2553 1025 2434 934 
Q 2316 844 2316 700 
Q 2316 250 3034 250 
Q 3275 250 3591 303 
z
" transform="scale(0.015625)"/>
     </defs>
     <use xlink:href="#IPAexGothic-8981" transform="translate(0 0.984375)"/>
     <use xlink:href="#IPAexGothic-7d20" transform="translate(100 0.984375)"/>
     <use xlink:href="#IPAexGothic-3092" transform="translate(200 0.984375)"/>
     <use xlink:href="#IPAexGothic-20" transform="translate(300 0.984375)"/>
     <use xlink:href="#DejaVuSans-Oblique-69" transform="translate(327.001953 0.984375)"/>
     <use xlink:href="#IPAexGothic-20" transform="translate(354.785156 0.984375)"/>
     <use xlink:href="#IPAexGothic-306b" transform="translate(381.787109 0.984375)"/>
     <use xlink:href="#IPAexGothic-5272" transform="translate(481.787109 0.984375)"/>
     <use xlink:href="#IPAexGothic-308a" transform="translate(581.787109 0.984375)"/>
     <use xlink:href="#IPAexGothic-5f53" transform="translate(681.787109 0.984375)"/>
     <use xlink:href="#IPAexGothic-3066" transform="translate(781.787109 0.984375)"/>
     <use xlink:href="#IPAexGothic-308b" transform="translate(881.787109 0.984375)"/>
    </g>
   </g>
   <g id="text_3">
    <!-- False -->
    <g transform="translate(135.54 218.253281) scale(0.125 -0.125)">
     <defs>
      <path id="IPAexGothic-46" d="M 3469 4141 
L 1172 4141 
L 1172 2656 
L 3206 2656 
L 3206 2188 
L 1172 2188 
L 1172 63 
L 609 63 
L 609 4634 
L 3469 4634 
L 3469 4141 
z
" transform="scale(0.015625)"/>
      <path id="IPAexGothic-61" d="M 3156 63 
L 2672 63 
Q 2559 303 2531 556 
L 2509 556 
Q 2147 -25 1428 -25 
Q 934 -25 622 288 
Q 347 563 347 959 
Q 347 1947 2050 1997 
L 2478 2009 
L 2478 2175 
Q 2478 2509 2288 2700 
Q 2088 2900 1775 2900 
Q 1238 2900 969 2378 
L 494 2597 
Q 938 3328 1788 3328 
Q 2375 3328 2691 3000 
Q 2984 2706 2984 2169 
L 2984 997 
Q 2984 400 3156 63 
z
M 2491 1625 
L 2141 1619 
Q 903 1591 903 953 
Q 903 728 1050 581 
Q 1231 403 1525 403 
Q 1934 403 2234 703 
Q 2491 969 2491 1344 
L 2491 1625 
z
" transform="scale(0.015625)"/>
      <path id="IPAexGothic-6c" d="M 1131 63 
L 581 63 
L 581 4794 
L 1131 4794 
L 1131 63 
z
" transform="scale(0.015625)"/>
     </defs>
     <use xlink:href="#IPAexGothic-46"/>
     <use xlink:href="#IPAexGothic-61" x="57.177734"/>
     <use xlink:href="#IPAexGothic-6c" x="112.158203"/>
     <use xlink:href="#IPAexGothic-73" x="139.160156"/>
     <use xlink:href="#IPAexGothic-65" x="185.351562"/>
    </g>
   </g>
   <g id="text_4">
    <!-- True -->
    <g transform="translate(211.14 166.555) scale(0.125 -0.125)">
     <defs>
      <path id="IPAexGothic-72" d="M 2309 3316 
L 2213 2769 
Q 2106 2791 2022 2791 
Q 1653 2791 1413 2444 
Q 1113 2006 1113 1675 
L 1113 63 
L 563 63 
L 563 3250 
L 1081 3250 
L 1056 2303 
L 1069 2303 
Q 1422 3341 2097 3341 
Q 2206 3341 2309 3316 
z
" transform="scale(0.015625)"/>
      <path id="IPAexGothic-75" d="M 3284 63 
L 2772 63 
L 2772 644 
Q 2300 0 1625 0 
Q 1072 0 763 375 
Q 519 678 519 1241 
L 519 3250 
L 1069 3250 
L 1069 1259 
Q 1069 466 1734 466 
Q 2406 466 2734 1291 
L 2734 3250 
L 3284 3250 
L 3284 63 
z
" transform="scale(0.015625)"/>
     </defs>
     <use xlink:href="#IPAexGothic-54"/>
     <use xlink:href="#IPAexGothic-72" x="59.912109"/>
     <use xlink:href="#IPAexGothic-75" x="96.923828"/>
     <use xlink:href="#IPAexGothic-65" x="157.324219"/>
    </g>
   </g>
   <g id="text_5">
    <!-- 最後の要素を -->
    <g transform="translate(93.36 170.298672) scale(0.125 -0.125)">
     <defs>
      <path id="IPAexGothic-6700" d="M 5106 5050 
L 5106 3275 
L 1284 3275 
L 1284 5050 
L 5106 5050 
z
M 1741 4697 
L 1741 4331 
L 4656 4331 
L 4656 4697 
L 1741 4697 
z
M 1741 4000 
L 1741 3622 
L 4656 3622 
L 4656 4000 
L 1741 4000 
z
M 2925 2528 
L 2925 -450 
L 2503 -450 
L 2503 228 
Q 1869 94 525 -78 
L 409 356 
Q 491 363 609 372 
Q 725 381 756 381 
L 994 403 
L 994 2528 
L 384 2528 
L 384 2900 
L 6016 2900 
L 6016 2528 
L 2925 2528 
z
M 2503 2528 
L 1400 2528 
L 1400 2088 
L 2503 2088 
L 2503 2528 
z
M 2503 1763 
L 1400 1763 
L 1400 1309 
L 2503 1309 
L 2503 1763 
z
M 2503 984 
L 1400 984 
L 1400 434 
L 1759 472 
Q 2159 500 2503 550 
L 2503 984 
z
M 4844 588 
Q 5350 225 6047 -9 
L 5753 -419 
Q 5066 -128 4556 288 
Q 4000 -241 3281 -534 
L 3006 -163 
Q 3734 84 4263 563 
Q 3722 1141 3463 1803 
L 3084 1803 
L 3084 2169 
L 5425 2169 
L 5656 1963 
Q 5328 1178 4881 638 
L 4844 588 
z
M 4538 850 
Q 4884 1275 5119 1803 
L 3872 1803 
Q 4113 1275 4538 850 
z
" transform="scale(0.015625)"/>
      <path id="IPAexGothic-5f8c" d="M 3309 2475 
Q 3184 2469 2291 2425 
L 2125 2859 
Q 2625 2859 2822 2866 
L 3169 2878 
L 3488 3194 
Q 2891 3844 2375 4238 
L 2700 4563 
Q 2878 4409 3097 4191 
Q 3563 4781 3828 5297 
L 4263 5075 
Q 3853 4431 3366 3916 
Q 3538 3744 3769 3475 
Q 4366 4109 4756 4647 
L 5178 4391 
Q 4525 3594 3719 2891 
L 4519 2925 
Q 5022 2950 5197 2963 
Q 4978 3316 4741 3591 
L 5106 3794 
Q 5606 3197 5972 2516 
L 5569 2259 
Q 5494 2428 5381 2638 
Q 5363 2631 5309 2628 
Q 5259 2625 5234 2622 
Q 4741 2566 3806 2509 
Q 3728 2338 3550 2041 
L 5050 2041 
L 5319 1791 
Q 4978 1122 4441 631 
Q 5069 256 5984 25 
L 5663 -419 
Q 4734 -106 4109 338 
Q 3372 -225 2194 -531 
L 1900 -116 
Q 3009 66 3775 594 
Q 3331 969 3053 1356 
Q 2663 900 2259 625 
L 1959 941 
Q 2838 1559 3309 2475 
z
M 4109 863 
Q 4528 1244 4728 1656 
L 3322 1656 
Q 3613 1263 4109 863 
z
M 1588 2753 
L 1588 -447 
L 1147 -447 
L 1147 2209 
Q 869 1891 550 1613 
L 250 1947 
Q 1216 2806 1803 3938 
L 2206 3738 
Q 1906 3188 1588 2753 
z
M 294 3716 
Q 1213 4375 1663 5209 
L 2078 4997 
Q 1475 4016 588 3372 
L 294 3716 
z
" transform="scale(0.015625)"/>
     </defs>
     <use xlink:href="#IPAexGothic-6700"/>
     <use xlink:href="#IPAexGothic-5f8c" x="100"/>
     <use xlink:href="#IPAexGothic-306e" x="200"/>
     <use xlink:href="#IPAexGothic-8981" x="300"/>
     <use xlink:href="#IPAexGothic-7d20" x="400"/>
     <use xlink:href="#IPAexGothic-3092" x="500"/>
    </g>
    <!-- 使い切ったか？ -->
    <g transform="translate(87.11 183.909609) scale(0.125 -0.125)">
     <defs>
      <path id="IPAexGothic-4f7f" d="M 3700 3547 
L 3700 4103 
L 1894 4103 
L 1894 4500 
L 3700 4500 
L 3700 5306 
L 4141 5306 
L 4141 4500 
L 5981 4500 
L 5981 4103 
L 4141 4103 
L 4141 3547 
L 5638 3547 
L 5638 1484 
L 5209 1484 
L 5209 1809 
L 4134 1809 
Q 4106 1163 3922 741 
Q 4784 241 6103 19 
L 5816 -419 
Q 4619 -150 3713 394 
Q 3238 -234 2059 -541 
L 1772 -138 
Q 2941 75 3366 625 
Q 2925 963 2563 1322 
L 2884 1566 
Q 3213 1228 3553 978 
Q 3684 1363 3694 1809 
L 2634 1809 
L 2634 1484 
L 2206 1484 
L 2206 3547 
L 3700 3547 
z
M 3700 3163 
L 2634 3163 
L 2634 2194 
L 3700 2194 
L 3700 3163 
z
M 4141 3163 
L 4141 2194 
L 5209 2194 
L 5209 3163 
L 4141 3163 
z
M 1509 3769 
L 1509 -447 
L 1069 -447 
L 1069 2822 
Q 813 2363 531 1972 
L 288 2363 
Q 1147 3628 1528 5331 
L 1975 5222 
Q 1747 4356 1509 3769 
z
" transform="scale(0.015625)"/>
      <path id="IPAexGothic-3044" d="M 3369 1447 
Q 2906 122 2278 122 
Q 1966 122 1647 481 
Q 1209 966 1044 1966 
Q 891 2888 891 4313 
L 1422 4313 
Q 1413 2444 1666 1550 
Q 1913 678 2278 678 
Q 2619 678 2925 1791 
L 3369 1447 
z
M 5378 1294 
Q 4928 2797 4034 3809 
L 4488 4031 
Q 5375 3000 5881 1563 
L 5378 1294 
z
" transform="scale(0.015625)"/>
      <path id="IPAexGothic-5207" d="M 4197 4281 
Q 4197 2691 4025 1778 
Q 3747 344 2456 -447 
L 2119 -72 
Q 3397 631 3616 2150 
Q 3731 2975 3731 4281 
L 2700 4281 
L 2700 4709 
L 5816 4709 
Q 5816 1153 5638 331 
Q 5513 -238 4825 -238 
Q 4409 -238 4038 -194 
L 3941 325 
Q 4419 238 4734 238 
Q 5119 238 5197 622 
Q 5325 1322 5344 3922 
L 5344 4281 
L 4197 4281 
z
M 1525 3206 
L 1525 1528 
Q 1525 1378 1575 1334 
Q 1638 1291 1872 1291 
Q 2316 1291 2381 1444 
Q 2434 1556 2453 2216 
L 2925 2047 
Q 2897 1272 2772 1081 
Q 2619 850 1825 850 
Q 1341 850 1197 966 
Q 1056 1069 1056 1338 
L 1056 3150 
L 319 3059 
L 269 3500 
L 1056 3591 
L 1056 5075 
L 1525 5075 
L 1525 3641 
L 2959 3809 
L 2991 3378 
L 1525 3206 
z
" transform="scale(0.015625)"/>
      <path id="IPAexGothic-3063" d="M 1113 2656 
Q 2778 3103 3709 3103 
Q 4359 3103 4734 2778 
Q 5150 2409 5150 1803 
Q 5150 247 2456 25 
L 2231 494 
Q 3425 541 4028 878 
Q 4663 1231 4663 1806 
Q 4663 2681 3647 2681 
Q 2834 2681 1319 2203 
L 1113 2656 
z
" transform="scale(0.015625)"/>
      <path id="IPAexGothic-305f" d="M 684 3994 
Q 1138 3953 1556 3953 
Q 1797 3953 2106 3975 
Q 2266 4594 2369 5113 
L 2875 5025 
Q 2806 4731 2619 4013 
Q 3209 4084 3656 4191 
L 3688 3719 
Q 3109 3613 2497 3566 
Q 1822 1294 1153 -44 
L 653 172 
Q 1406 1500 1991 3531 
Q 1634 3513 1256 3513 
Q 1106 3513 697 3525 
L 684 3994 
z
M 5753 78 
Q 5059 -13 4597 -13 
Q 3619 -13 3206 334 
Q 2866 625 2766 1222 
L 3213 1388 
Q 3247 1069 3347 903 
Q 3425 775 3578 672 
Q 3866 481 4556 481 
Q 5009 481 5728 575 
L 5753 78 
z
M 3144 2859 
Q 4216 3147 5409 3072 
L 5381 2597 
L 5356 2597 
Q 4263 2663 3194 2419 
L 3144 2859 
z
" transform="scale(0.015625)"/>
      <path id="IPAexGothic-304b" d="M 659 3384 
Q 1434 3503 2113 3581 
Q 2313 4341 2394 4972 
L 2900 4875 
Q 2759 4147 2619 3628 
L 2719 3634 
Q 2894 3641 3041 3641 
Q 4072 3641 4072 2369 
Q 4072 1128 3700 384 
Q 3478 -56 3003 -56 
Q 2591 -56 2113 231 
L 2138 775 
Q 2631 444 2925 444 
Q 3169 444 3297 706 
Q 3566 1294 3566 2388 
Q 3566 3219 3016 3219 
Q 2825 3219 2497 3194 
Q 2388 2763 2113 2047 
Q 1634 797 1119 -38 
L 678 244 
Q 1356 1238 1863 2750 
Q 1888 2819 1991 3128 
Q 1594 3081 769 2916 
L 659 3384 
z
M 5644 1753 
Q 5072 3025 4238 3916 
L 4641 4184 
Q 5494 3275 6081 2094 
L 5644 1753 
z
" transform="scale(0.015625)"/>
      <path id="IPAexGothic-ff1f" d="M 1503 3444 
Q 1550 4184 1963 4616 
Q 2466 5128 3272 5128 
Q 3888 5128 4313 4853 
Q 4909 4469 4909 3778 
Q 4909 3059 4116 2563 
Q 3628 2250 3506 1881 
Q 3422 1650 3422 1228 
L 2853 1228 
Q 2863 1869 3053 2197 
Q 3281 2588 3847 2950 
Q 4341 3269 4341 3778 
Q 4341 4231 3975 4463 
Q 3697 4634 3266 4634 
Q 2656 4634 2341 4225 
Q 2109 3928 2091 3444 
L 1503 3444 
z
M 2763 647 
L 3506 647 
L 3506 -97 
L 2763 -97 
L 2763 647 
z
" transform="scale(0.015625)"/>
     </defs>
     <use xlink:href="#IPAexGothic-4f7f"/>
     <use xlink:href="#IPAexGothic-3044" x="100"/>
     <use xlink:href="#IPAexGothic-5207" x="200"/>
     <use xlink:href="#IPAexGothic-3063" x="300"/>
     <use xlink:href="#IPAexGothic-305f" x="400"/>
     <use xlink:href="#IPAexGothic-304b" x="500"/>
     <use xlink:href="#IPAexGothic-ff1f" x="600"/>
    </g>
   </g>
   <g id="text_6">
    <!-- END -->
    <g transform="translate(283.260781 177.104141) scale(0.125 -0.125)">
     <defs>
      <path id="IPAexGothic-45" d="M 3547 63 
L 609 63 
L 609 4634 
L 3469 4634 
L 3469 4147 
L 1166 4147 
L 1166 2650 
L 3206 2650 
L 3206 2191 
L 1166 2191 
L 1166 556 
L 3547 556 
L 3547 63 
z
" transform="scale(0.015625)"/>
      <path id="IPAexGothic-4e" d="M 4244 63 
L 3731 63 
L 1697 3150 
Q 1466 3500 1141 4097 
L 1116 4097 
L 1128 3797 
Q 1159 2803 1159 2469 
L 1159 63 
L 609 63 
L 609 4634 
L 1366 4634 
L 3113 1978 
Q 3453 1447 3713 966 
L 3738 966 
Q 3694 1897 3694 2469 
L 3694 4634 
L 4244 4634 
L 4244 63 
z
" transform="scale(0.015625)"/>
      <path id="IPAexGothic-44" d="M 609 4634 
L 1984 4634 
Q 3159 4634 3791 4050 
Q 4456 3444 4456 2356 
Q 4456 1047 3516 441 
Q 2925 63 1941 63 
L 609 63 
L 609 4634 
z
M 1172 556 
L 1894 556 
Q 3853 556 3853 2356 
Q 3853 4147 1928 4147 
L 1172 4147 
L 1172 556 
z
" transform="scale(0.015625)"/>
     </defs>
     <use xlink:href="#IPAexGothic-45"/>
     <use xlink:href="#IPAexGothic-4e" x="59.521484"/>
     <use xlink:href="#IPAexGothic-44" x="135.498047"/>
    </g>
   </g>
   <g id="text_7">
    <!-- 毎回実行したい -->
    <g transform="translate(87.11 263.898672) scale(0.125 -0.125)">
     <defs>
      <path id="IPAexGothic-6bce" d="M 1528 3675 
L 5169 3675 
Q 5169 3553 5131 2322 
L 6078 2322 
L 6078 1925 
L 5119 1925 
Q 5075 1194 5056 994 
L 5047 897 
L 5938 897 
L 5938 513 
L 5003 513 
Q 4947 -3 4838 -172 
Q 4684 -409 4263 -409 
Q 3797 -409 3397 -353 
L 3322 122 
Q 3928 31 4191 31 
Q 4416 31 4484 197 
Q 4506 250 4550 513 
L 1541 513 
Q 1531 475 1497 297 
Q 1463 116 1431 -25 
L 972 63 
Q 1194 1063 1316 1925 
L 319 1925 
L 319 2322 
L 1375 2322 
L 1381 2366 
Q 1466 2978 1528 3675 
z
M 3500 3291 
L 3488 3169 
Q 3453 2759 3409 2316 
L 4684 2316 
Q 4713 2934 4722 3291 
L 3500 3291 
z
M 3059 3291 
L 1919 3291 
Q 1919 3241 1913 3213 
Q 1903 2997 1816 2316 
L 2963 2316 
Q 3000 2625 3059 3291 
z
M 2925 1931 
L 1766 1931 
Q 1703 1400 1606 897 
L 2781 897 
Q 2844 1306 2909 1847 
L 2925 1931 
z
M 3372 1931 
Q 3275 1175 3238 897 
L 4594 897 
Q 4622 1241 4672 1931 
L 3372 1931 
z
M 1856 4628 
L 5816 4628 
L 5816 4231 
L 1669 4231 
Q 1325 3572 850 3041 
L 509 3369 
Q 1272 4175 1625 5350 
L 2084 5263 
Q 1959 4869 1856 4628 
z
" transform="scale(0.015625)"/>
      <path id="IPAexGothic-56de" d="M 4519 3647 
L 4519 1178 
L 1875 1178 
L 1875 3647 
L 4519 3647 
z
M 2328 3250 
L 2328 1575 
L 4066 1575 
L 4066 3250 
L 2328 3250 
z
M 5722 4891 
L 5722 -456 
L 5247 -456 
L 5247 -103 
L 1147 -103 
L 1147 -456 
L 672 -456 
L 672 4891 
L 5722 4891 
z
M 1147 4475 
L 1147 313 
L 5247 313 
L 5247 4475 
L 1147 4475 
z
" transform="scale(0.015625)"/>
      <path id="IPAexGothic-5b9f" d="M 3525 1275 
Q 4288 350 6022 91 
L 5738 -375 
Q 3953 -41 3219 1050 
Q 2731 -144 728 -472 
L 466 -44 
Q 2422 150 2872 1275 
L 384 1275 
L 384 1659 
L 2950 1659 
L 2950 2144 
L 966 2144 
L 966 2509 
L 2950 2509 
L 2950 2969 
L 1266 2969 
L 1266 3341 
L 2950 3341 
L 2950 3988 
L 3403 3988 
L 3403 3341 
L 5125 3341 
L 5125 2969 
L 3403 2969 
L 3403 2509 
L 5444 2509 
L 5444 2144 
L 3403 2144 
L 3403 1659 
L 6016 1659 
L 6016 1275 
L 3525 1275 
z
M 3413 4544 
L 5778 4544 
L 5778 3269 
L 5309 3269 
L 5309 4147 
L 1084 4147 
L 1084 3269 
L 616 3269 
L 616 4544 
L 2938 4544 
L 2938 5313 
L 3413 5313 
L 3413 4544 
z
" transform="scale(0.015625)"/>
      <path id="IPAexGothic-884c" d="M 1822 2753 
L 1822 -447 
L 1353 -447 
L 1353 2169 
Q 966 1744 622 1466 
L 316 1791 
Q 1294 2559 1969 3822 
L 2397 3634 
Q 2109 3138 1822 2753 
z
M 4975 2803 
L 4975 103 
Q 4975 -391 4369 -391 
Q 3925 -391 3356 -341 
L 3288 159 
Q 3775 78 4259 78 
Q 4516 78 4516 319 
L 4516 2803 
L 2384 2803 
L 2384 3225 
L 6013 3225 
L 6013 2803 
L 4975 2803 
z
M 384 3691 
Q 1231 4256 1756 5075 
L 2144 4850 
Q 1541 3947 666 3347 
L 384 3691 
z
M 2709 4794 
L 5659 4794 
L 5659 4378 
L 2709 4378 
L 2709 4794 
z
" transform="scale(0.015625)"/>
      <path id="IPAexGothic-3057" d="M 1750 4884 
L 2281 4884 
L 2238 1319 
Q 2228 809 2391 569 
Q 2594 281 3128 281 
Q 3772 281 4344 744 
Q 4822 1131 5156 1759 
L 5534 1369 
Q 5094 653 4534 263 
Q 3878 -206 3134 -206 
Q 2341 -206 1994 213 
Q 1697 575 1706 1269 
L 1750 4884 
z
" transform="scale(0.015625)"/>
     </defs>
     <use xlink:href="#IPAexGothic-6bce"/>
     <use xlink:href="#IPAexGothic-56de" x="100"/>
     <use xlink:href="#IPAexGothic-5b9f" x="200"/>
     <use xlink:href="#IPAexGothic-884c" x="300"/>
     <use xlink:href="#IPAexGothic-3057" x="400"/>
     <use xlink:href="#IPAexGothic-305f" x="500"/>
     <use xlink:href="#IPAexGothic-3044" x="600"/>
    </g>
    <!-- コードを実行 -->
    <g transform="translate(93.36 277.509609) scale(0.125 -0.125)">
     <defs>
      <path id="IPAexGothic-30b3" d="M 1134 4213 
L 5166 4213 
L 5166 153 
L 4653 153 
L 4653 594 
L 1063 594 
L 1063 1088 
L 4653 1088 
L 4653 3725 
L 1134 3725 
L 1134 4213 
z
" transform="scale(0.015625)"/>
      <path id="IPAexGothic-30fc" d="M 588 2688 
L 5809 2688 
L 5809 2175 
L 588 2175 
L 588 2688 
z
" transform="scale(0.015625)"/>
      <path id="IPAexGothic-30c9" d="M 2247 4959 
L 2766 4959 
L 2766 3169 
Q 4050 2581 5178 1850 
L 4841 1331 
Q 3781 2138 2766 2650 
L 2766 -225 
L 2247 -225 
L 2247 4959 
z
M 5263 3847 
Q 4900 4388 4506 4716 
L 4806 4947 
Q 5191 4638 5581 4122 
L 5263 3847 
z
M 4666 3378 
Q 4375 3869 3931 4269 
L 4244 4513 
Q 4616 4206 5000 3653 
L 4666 3378 
z
" transform="scale(0.015625)"/>
     </defs>
     <use xlink:href="#IPAexGothic-30b3"/>
     <use xlink:href="#IPAexGothic-30fc" x="100"/>
     <use xlink:href="#IPAexGothic-30c9" x="200"/>
     <use xlink:href="#IPAexGothic-3092" x="300"/>
     <use xlink:href="#IPAexGothic-5b9f" x="400"/>
     <use xlink:href="#IPAexGothic-884c" x="500"/>
    </g>
   </g>
  </g>
 </g>
 <defs>
  <clipPath id="pa326879c54">
   <rect x="3.6" y="3.6" width="344.52" height="295.02"/>
  </clipPath>
 </defs>
</svg>