<?xml version="1.0" encoding="utf-8" standalone="no"?>
<!DOCTYPE svg PUBLIC "-//W3C//DTD SVG 1.1//EN"
  "http://www.w3.org/Graphics/SVG/1.1/DTD/svg11.dtd">
<svg xmlns:xlink="http://www.w3.org/1999/xlink" width="349.74pt" height="540.102857pt" viewBox="0 0 349.74 540.102857" xmlns="http://www.w3.org/2000/svg" version="1.1">
 <metadata>
  <rdf:RDF xmlns:dc="http://purl.org/dc/elements/1.1/" xmlns:cc="http://creativecommons.org/ns#" xmlns:rdf="http://www.w3.org/1999/02/22-rdf-syntax-ns#">
   <cc:Work>
    <dc:type rdf:resource="http://purl.org/dc/dcmitype/StillImage"/>
    <dc:date>2024-03-09T04:23:42.527076</dc:date>
    <dc:format>image/svg+xml</dc:format>
    <dc:creator>
     <cc:Agent>
      <dc:title>Matplotlib v3.8.3, https://matplotlib.org/</dc:title>
     </cc:Agent>
    </dc:creator>
   </cc:Work>
  </rdf:RDF>
 </metadata>
 <defs>
  <style type="text/css">*{stroke-linejoin: round; stroke-linecap: butt}</style>
 </defs>
 <g id="figure_1">
  <g id="patch_1">
   <path d="M 0 540.102857 
L 349.74 540.102857 
L 349.74 0 
L 0 0 
z
" style="fill: #ffffff"/>
  </g>
  <g id="axes_1">
   <g id="patch_2">
    <path d="M 159.57 63.822857 
L 159.855587 63.820591 
L 160.141103 63.813795 
L 160.426474 63.802469 
L 160.711631 63.786617 
L 160.996499 63.766243 
L 161.281009 63.741352 
L 161.565088 63.71195 
L 161.848664 63.678044 
L 162.131667 63.639643 
L 162.414025 63.596757 
L 162.695667 63.549397 
L 162.976522 63.497574 
L 163.25652 63.441301 
L 163.53559 63.380593 
L 163.813661 63.315465 
L 164.090664 63.245934 
L 164.366529 63.172016 
L 164.641186 63.093731 
L 164.914567 63.011097 
L 165.186602 62.924137 
L 165.457223 62.832872 
L 165.726363 62.737324 
L 165.993952 62.637519 
L 166.259924 62.53348 
L 166.524212 62.425234 
L 166.78675 62.312809 
L 167.04747 62.196233 
L 167.306308 62.075535 
L 167.563199 61.950745 
L 167.818077 61.821895 
L 168.070879 61.689018 
L 168.321541 61.552146 
L 168.57 61.411314 
L 168.816193 61.266559 
L 169.060058 61.117915 
L 169.301535 60.965421 
L 169.540561 60.809115 
L 169.777078 60.649036 
L 170.011024 60.485224 
L 170.242343 60.317722 
L 170.470974 60.14657 
L 170.696862 59.971813 
L 170.919948 59.793494 
L 171.140177 59.611657 
L 171.357493 59.426349 
L 171.571842 59.237617 
L 171.783169 59.045508 
L 171.991422 58.85007 
L 172.196548 58.651352 
L 172.398495 58.449405 
L 172.597213 58.244279 
L 172.792651 58.036027 
L 172.98476 57.824699 
L 173.173492 57.61035 
L 173.3588 57.393034 
L 173.540636 57.172805 
L 173.718956 56.949719 
L 173.893713 56.723832 
L 174.064865 56.4952 
L 174.232367 56.263882 
L 174.396178 56.029935 
L 174.556257 55.793418 
L 174.712564 55.554392 
L 174.865058 55.312916 
L 175.013701 55.06905 
L 175.158457 54.822857 
L 175.299289 54.574398 
L 175.436161 54.323736 
L 175.569038 54.070935 
L 175.697888 53.816056 
L 175.822678 53.559166 
L 175.943376 53.300327 
L 176.059952 53.039607 
L 176.172377 52.777069 
L 176.280623 52.512781 
L 176.384661 52.246809 
L 176.484467 51.97922 
L 176.580015 51.71008 
L 176.67128 51.439459 
L 176.75824 51.167424 
L 176.840874 50.894043 
L 176.919159 50.619386 
L 176.993077 50.343521 
L 177.062608 50.066518 
L 177.127736 49.788447 
L 177.188444 49.509377 
L 177.244717 49.22938 
L 177.29654 48.948524 
L 177.3439 48.666882 
L 177.386786 48.384524 
L 177.425187 48.101521 
L 177.459092 47.817945 
L 177.488495 47.533866 
L 177.513386 47.249356 
L 177.53376 46.964488 
L 177.549612 46.679332 
L 177.560938 46.39396 
L 177.567734 46.108444 
L 177.57 45.822857 
L 177.57 45.822857 
L 177.567734 45.53727 
L 177.560938 45.251754 
L 177.549612 44.966383 
L 177.53376 44.681227 
L 177.513386 44.396358 
L 177.488495 44.111848 
L 177.459092 43.82777 
L 177.425187 43.544193 
L 177.386786 43.26119 
L 177.3439 42.978832 
L 177.29654 42.69719 
L 177.244717 42.416335 
L 177.188444 42.136337 
L 177.127736 41.857268 
L 177.062608 41.579196 
L 176.993077 41.302193 
L 176.919159 41.026328 
L 176.840874 40.751671 
L 176.75824 40.47829 
L 176.67128 40.206255 
L 176.580015 39.935634 
L 176.484467 39.666495 
L 176.384661 39.398905 
L 176.280623 39.132933 
L 176.172377 38.868645 
L 176.059952 38.606108 
L 175.943376 38.345387 
L 175.822678 38.086549 
L 175.697888 37.829658 
L 175.569038 37.57478 
L 175.436161 37.321978 
L 175.299289 37.071316 
L 175.158457 36.822857 
L 175.013701 36.576664 
L 174.865058 36.332799 
L 174.712564 36.091322 
L 174.556257 35.852296 
L 174.396178 35.61578 
L 174.232367 35.381833 
L 174.064865 35.150514 
L 173.893713 34.921883 
L 173.718956 34.695995 
L 173.540636 34.472909 
L 173.3588 34.25268 
L 173.173492 34.035364 
L 172.98476 33.821015 
L 172.792651 33.609688 
L 172.597213 33.401435 
L 172.398495 33.196309 
L 172.196548 32.994362 
L 171.991422 32.795644 
L 171.783169 32.600206 
L 171.571842 32.408097 
L 171.357493 32.219365 
L 171.140177 32.034057 
L 170.919948 31.852221 
L 170.696862 31.673901 
L 170.470974 31.499144 
L 170.242343 31.327993 
L 170.011024 31.16049 
L 169.777078 30.996679 
L 169.540561 30.8366 
L 169.301535 30.680294 
L 169.060058 30.527799 
L 168.816193 30.379156 
L 168.57 30.2344 
L 168.321541 30.093568 
L 168.070879 29.956697 
L 167.818077 29.823819 
L 167.563199 29.694969 
L 167.306308 29.570179 
L 167.04747 29.449481 
L 166.78675 29.332905 
L 166.524212 29.22048 
L 166.259924 29.112234 
L 165.993952 29.008196 
L 165.726363 28.90839 
L 165.457223 28.812842 
L 165.186602 28.721577 
L 164.914567 28.634617 
L 164.641186 28.551984 
L 164.366529 28.473698 
L 164.090664 28.399781 
L 163.813661 28.330249 
L 163.53559 28.265121 
L 163.25652 28.204413 
L 162.976522 28.148141 
L 162.695667 28.096318 
L 162.414025 28.048957 
L 162.131667 28.006071 
L 161.848664 27.967671 
L 161.565088 27.933765 
L 161.281009 27.904363 
L 160.996499 27.879471 
L 160.711631 27.859097 
L 160.426474 27.843245 
L 160.141103 27.831919 
L 159.855587 27.825123 
L 159.57 27.822857 
L 123.57 27.822857 
L 123.284413 27.825123 
L 122.998897 27.831919 
L 122.713526 27.843245 
L 122.428369 27.859097 
L 122.143501 27.879471 
L 121.858991 27.904363 
L 121.574912 27.933765 
L 121.291336 27.967671 
L 121.008333 28.006071 
L 120.725975 28.048957 
L 120.444333 28.096318 
L 120.163478 28.148141 
L 119.88348 28.204413 
L 119.60441 28.265121 
L 119.326339 28.330249 
L 119.049336 28.399781 
L 118.773471 28.473698 
L 118.498814 28.551984 
L 118.225433 28.634617 
L 117.953398 28.721577 
L 117.682777 28.812842 
L 117.413637 28.90839 
L 117.146048 29.008196 
L 116.880076 29.112234 
L 116.615788 29.22048 
L 116.35325 29.332905 
L 116.09253 29.449481 
L 115.833692 29.570179 
L 115.576801 29.694969 
L 115.321923 29.823819 
L 115.069121 29.956697 
L 114.818459 30.093568 
L 114.57 30.2344 
L 114.323807 30.379156 
L 114.079942 30.527799 
L 113.838465 30.680294 
L 113.599439 30.8366 
L 113.362922 30.996679 
L 113.128976 31.16049 
L 112.897657 31.327993 
L 112.669026 31.499144 
L 112.443138 31.673901 
L 112.220052 31.852221 
L 111.999823 32.034057 
L 111.782507 32.219365 
L 111.568158 32.408097 
L 111.356831 32.600206 
L 111.148578 32.795644 
L 110.943452 32.994362 
L 110.741505 33.196309 
L 110.542787 33.401435 
L 110.347349 33.609688 
L 110.15524 33.821015 
L 109.966508 34.035364 
L 109.7812 34.25268 
L 109.599364 34.472909 
L 109.421044 34.695995 
L 109.246287 34.921883 
L 109.075135 35.150514 
L 108.907633 35.381833 
L 108.743822 35.61578 
L 108.583743 35.852296 
L 108.427436 36.091322 
L 108.274942 36.332799 
L 108.126299 36.576664 
L 107.981543 36.822857 
L 107.840711 37.071316 
L 107.703839 37.321978 
L 107.570962 37.57478 
L 107.442112 37.829658 
L 107.317322 38.086549 
L 107.196624 38.345387 
L 107.080048 38.606108 
L 106.967623 38.868645 
L 106.859377 39.132933 
L 106.755339 39.398905 
L 106.655533 39.666495 
L 106.559985 39.935634 
L 106.46872 40.206255 
L 106.38176 40.47829 
L 106.299126 40.751671 
L 106.220841 41.026328 
L 106.146923 41.302193 
L 106.077392 41.579196 
L 106.012264 41.857268 
L 105.951556 42.136337 
L 105.895283 42.416335 
L 105.84346 42.69719 
L 105.7961 42.978832 
L 105.753214 43.26119 
L 105.714813 43.544193 
L 105.680908 43.82777 
L 105.651505 44.111848 
L 105.626614 44.396358 
L 105.60624 44.681227 
L 105.590388 44.966383 
L 105.579062 45.251754 
L 105.572266 45.53727 
L 105.57 45.822857 
L 105.57 45.822857 
L 105.572266 46.108444 
L 105.579062 46.39396 
L 105.590388 46.679332 
L 105.60624 46.964488 
L 105.626614 47.249356 
L 105.651505 47.533866 
L 105.680908 47.817945 
L 105.714813 48.101521 
L 105.753214 48.384524 
L 105.7961 48.666882 
L 105.84346 48.948524 
L 105.895283 49.22938 
L 105.951556 49.509377 
L 106.012264 49.788447 
L 106.077392 50.066518 
L 106.146923 50.343521 
L 106.220841 50.619386 
L 106.299126 50.894043 
L 106.38176 51.167424 
L 106.46872 51.439459 
L 106.559985 51.71008 
L 106.655533 51.97922 
L 106.755339 52.246809 
L 106.859377 52.512781 
L 106.967623 52.777069 
L 107.080048 53.039607 
L 107.196624 53.300327 
L 107.317322 53.559166 
L 107.442112 53.816056 
L 107.570962 54.070935 
L 107.703839 54.323736 
L 107.840711 54.574398 
L 107.981543 54.822857 
L 108.126299 55.06905 
L 108.274942 55.312916 
L 108.427436 55.554392 
L 108.583743 55.793418 
L 108.743822 56.029935 
L 108.907633 56.263882 
L 109.075135 56.4952 
L 109.246287 56.723832 
L 109.421044 56.949719 
L 109.599364 57.172805 
L 109.7812 57.393034 
L 109.966508 57.61035 
L 110.15524 57.824699 
L 110.347349 58.036027 
L 110.542787 58.244279 
L 110.741505 58.449405 
L 110.943452 58.651352 
L 111.148578 58.85007 
L 111.356831 59.045508 
L 111.568158 59.237617 
L 111.782507 59.426349 
L 111.999823 59.611657 
L 112.220052 59.793494 
L 112.443138 59.971813 
L 112.669026 60.14657 
L 112.897657 60.317722 
L 113.128976 60.485224 
L 113.362922 60.649036 
L 113.599439 60.809115 
L 113.838465 60.965421 
L 114.079942 61.117915 
L 114.323807 61.266559 
L 114.57 61.411314 
L 114.818459 61.552146 
L 115.069121 61.689018 
L 115.321923 61.821895 
L 115.576801 61.950745 
L 115.833692 62.075535 
L 116.09253 62.196233 
L 116.35325 62.312809 
L 116.615788 62.425234 
L 116.880076 62.53348 
L 117.146048 62.637519 
L 117.413637 62.737324 
L 117.682777 62.832872 
L 117.953398 62.924137 
L 118.225433 63.011097 
L 118.498814 63.093731 
L 118.773471 63.172016 
L 119.049336 63.245934 
L 119.326339 63.315465 
L 119.60441 63.380593 
L 119.88348 63.441301 
L 120.163478 63.497574 
L 120.444333 63.549397 
L 120.725975 63.596757 
L 121.008333 63.639643 
L 121.291336 63.678044 
L 121.574912 63.71195 
L 121.858991 63.741352 
L 122.143501 63.766243 
L 122.428369 63.786617 
L 122.713526 63.802469 
L 122.998897 63.813795 
L 123.284413 63.820591 
L 123.57 63.822857 
L 159.57 63.822857 
z
" clip-path="url(#p17892ba92d)" style="fill: none; stroke: #000000; stroke-linecap: round"/>
   </g>
   <g id="patch_3">
    <path d="M 78.57 168.222857 
L 141.57 150.222857 
L 204.57 168.222857 
L 141.57 186.222857 
L 78.57 168.222857 
z
" clip-path="url(#p17892ba92d)" style="fill: none; stroke: #000000; stroke-linecap: round"/>
   </g>
   <g id="patch_4">
    <path d="M 312.57 186.222857 
L 312.855587 186.220591 
L 313.141103 186.213795 
L 313.426474 186.202469 
L 313.711631 186.186617 
L 313.996499 186.166243 
L 314.281009 186.141352 
L 314.565088 186.11195 
L 314.848664 186.078044 
L 315.131667 186.039643 
L 315.414025 185.996757 
L 315.695667 185.949397 
L 315.976522 185.897574 
L 316.25652 185.841301 
L 316.53559 185.780593 
L 316.813661 185.715465 
L 317.090664 185.645934 
L 317.366529 185.572016 
L 317.641186 185.493731 
L 317.914567 185.411097 
L 318.186602 185.324137 
L 318.457223 185.232872 
L 318.726363 185.137324 
L 318.993952 185.037519 
L 319.259924 184.93348 
L 319.524212 184.825234 
L 319.78675 184.712809 
L 320.04747 184.596233 
L 320.306308 184.475535 
L 320.563199 184.350745 
L 320.818077 184.221895 
L 321.070879 184.089018 
L 321.321541 183.952146 
L 321.57 183.811314 
L 321.816193 183.666559 
L 322.060058 183.517915 
L 322.301535 183.365421 
L 322.540561 183.209115 
L 322.777078 183.049036 
L 323.011024 182.885224 
L 323.242343 182.717722 
L 323.470974 182.54657 
L 323.696862 182.371813 
L 323.919948 182.193494 
L 324.140177 182.011657 
L 324.357493 181.826349 
L 324.571842 181.637617 
L 324.783169 181.445508 
L 324.991422 181.25007 
L 325.196548 181.051352 
L 325.398495 180.849405 
L 325.597213 180.644279 
L 325.792651 180.436027 
L 325.98476 180.224699 
L 326.173492 180.01035 
L 326.3588 179.793034 
L 326.540636 179.572805 
L 326.718956 179.349719 
L 326.893713 179.123832 
L 327.064865 178.8952 
L 327.232367 178.663882 
L 327.396178 178.429935 
L 327.556257 178.193418 
L 327.712564 177.954392 
L 327.865058 177.712916 
L 328.013701 177.46905 
L 328.158457 177.222857 
L 328.299289 176.974398 
L 328.436161 176.723736 
L 328.569038 176.470935 
L 328.697888 176.216056 
L 328.822678 175.959166 
L 328.943376 175.700327 
L 329.059952 175.439607 
L 329.172377 175.177069 
L 329.280623 174.912781 
L 329.384661 174.646809 
L 329.484467 174.37922 
L 329.580015 174.11008 
L 329.67128 173.839459 
L 329.75824 173.567424 
L 329.840874 173.294043 
L 329.919159 173.019386 
L 329.993077 172.743521 
L 330.062608 172.466518 
L 330.127736 172.188447 
L 330.188444 171.909377 
L 330.244717 171.62938 
L 330.29654 171.348524 
L 330.3439 171.066882 
L 330.386786 170.784524 
L 330.425187 170.501521 
L 330.459092 170.217945 
L 330.488495 169.933866 
L 330.513386 169.649356 
L 330.53376 169.364488 
L 330.549612 169.079332 
L 330.560938 168.79396 
L 330.567734 168.508444 
L 330.57 168.222857 
L 330.57 168.222857 
L 330.567734 167.93727 
L 330.560938 167.651754 
L 330.549612 167.366383 
L 330.53376 167.081227 
L 330.513386 166.796358 
L 330.488495 166.511848 
L 330.459092 166.22777 
L 330.425187 165.944193 
L 330.386786 165.66119 
L 330.3439 165.378832 
L 330.29654 165.09719 
L 330.244717 164.816335 
L 330.188444 164.536337 
L 330.127736 164.257268 
L 330.062608 163.979196 
L 329.993077 163.702193 
L 329.919159 163.426328 
L 329.840874 163.151671 
L 329.75824 162.87829 
L 329.67128 162.606255 
L 329.580015 162.335634 
L 329.484467 162.066495 
L 329.384661 161.798905 
L 329.280623 161.532933 
L 329.172377 161.268645 
L 329.059952 161.006108 
L 328.943376 160.745387 
L 328.822678 160.486549 
L 328.697888 160.229658 
L 328.569038 159.97478 
L 328.436161 159.721978 
L 328.299289 159.471316 
L 328.158457 159.222857 
L 328.013701 158.976664 
L 327.865058 158.732799 
L 327.712564 158.491322 
L 327.556257 158.252296 
L 327.396178 158.01578 
L 327.232367 157.781833 
L 327.064865 157.550514 
L 326.893713 157.321883 
L 326.718956 157.095995 
L 326.540636 156.872909 
L 326.3588 156.65268 
L 326.173492 156.435364 
L 325.98476 156.221015 
L 325.792651 156.009688 
L 325.597213 155.801435 
L 325.398495 155.596309 
L 325.196548 155.394362 
L 324.991422 155.195644 
L 324.783169 155.000206 
L 324.571842 154.808097 
L 324.357493 154.619365 
L 324.140177 154.434057 
L 323.919948 154.252221 
L 323.696862 154.073901 
L 323.470974 153.899144 
L 323.242343 153.727993 
L 323.011024 153.56049 
L 322.777078 153.396679 
L 322.540561 153.2366 
L 322.301535 153.080294 
L 322.060058 152.927799 
L 321.816193 152.779156 
L 321.57 152.6344 
L 321.321541 152.493568 
L 321.070879 152.356697 
L 320.818077 152.223819 
L 320.563199 152.094969 
L 320.306308 151.970179 
L 320.04747 151.849481 
L 319.78675 151.732905 
L 319.524212 151.62048 
L 319.259924 151.512234 
L 318.993952 151.408196 
L 318.726363 151.30839 
L 318.457223 151.212842 
L 318.186602 151.121577 
L 317.914567 151.034617 
L 317.641186 150.951984 
L 317.366529 150.873698 
L 317.090664 150.799781 
L 316.813661 150.730249 
L 316.53559 150.665121 
L 316.25652 150.604413 
L 315.976522 150.548141 
L 315.695667 150.496318 
L 315.414025 150.448957 
L 315.131667 150.406071 
L 314.848664 150.367671 
L 314.565088 150.333765 
L 314.281009 150.304363 
L 313.996499 150.279471 
L 313.711631 150.259097 
L 313.426474 150.243245 
L 313.141103 150.231919 
L 312.855587 150.225123 
L 312.57 150.222857 
L 276.57 150.222857 
L 276.284413 150.225123 
L 275.998897 150.231919 
L 275.713526 150.243245 
L 275.428369 150.259097 
L 275.143501 150.279471 
L 274.858991 150.304363 
L 274.574912 150.333765 
L 274.291336 150.367671 
L 274.008333 150.406071 
L 273.725975 150.448957 
L 273.444333 150.496318 
L 273.163478 150.548141 
L 272.88348 150.604413 
L 272.60441 150.665121 
L 272.326339 150.730249 
L 272.049336 150.799781 
L 271.773471 150.873698 
L 271.498814 150.951984 
L 271.225433 151.034617 
L 270.953398 151.121577 
L 270.682777 151.212842 
L 270.413637 151.30839 
L 270.146048 151.408196 
L 269.880076 151.512234 
L 269.615788 151.62048 
L 269.35325 151.732905 
L 269.09253 151.849481 
L 268.833692 151.970179 
L 268.576801 152.094969 
L 268.321923 152.223819 
L 268.069121 152.356697 
L 267.818459 152.493568 
L 267.57 152.6344 
L 267.323807 152.779156 
L 267.079942 152.927799 
L 266.838465 153.080294 
L 266.599439 153.2366 
L 266.362922 153.396679 
L 266.128976 153.56049 
L 265.897657 153.727993 
L 265.669026 153.899144 
L 265.443138 154.073901 
L 265.220052 154.252221 
L 264.999823 154.434057 
L 264.782507 154.619365 
L 264.568158 154.808097 
L 264.356831 155.000206 
L 264.148578 155.195644 
L 263.943452 155.394362 
L 263.741505 155.596309 
L 263.542787 155.801435 
L 263.347349 156.009688 
L 263.15524 156.221015 
L 262.966508 156.435364 
L 262.7812 156.65268 
L 262.599364 156.872909 
L 262.421044 157.095995 
L 262.246287 157.321883 
L 262.075135 157.550514 
L 261.907633 157.781833 
L 261.743822 158.01578 
L 261.583743 158.252296 
L 261.427436 158.491322 
L 261.274942 158.732799 
L 261.126299 158.976664 
L 260.981543 159.222857 
L 260.840711 159.471316 
L 260.703839 159.721978 
L 260.570962 159.97478 
L 260.442112 160.229658 
L 260.317322 160.486549 
L 260.196624 160.745387 
L 260.080048 161.006108 
L 259.967623 161.268645 
L 259.859377 161.532933 
L 259.755339 161.798905 
L 259.655533 162.066495 
L 259.559985 162.335634 
L 259.46872 162.606255 
L 259.38176 162.87829 
L 259.299126 163.151671 
L 259.220841 163.426328 
L 259.146923 163.702193 
L 259.077392 163.979196 
L 259.012264 164.257268 
L 258.951556 164.536337 
L 258.895283 164.816335 
L 258.84346 165.09719 
L 258.7961 165.378832 
L 258.753214 165.66119 
L 258.714813 165.944193 
L 258.680908 166.22777 
L 258.651505 166.511848 
L 258.626614 166.796358 
L 258.60624 167.081227 
L 258.590388 167.366383 
L 258.579062 167.651754 
L 258.572266 167.93727 
L 258.57 168.222857 
L 258.57 168.222857 
L 258.572266 168.508444 
L 258.579062 168.79396 
L 258.590388 169.079332 
L 258.60624 169.364488 
L 258.626614 169.649356 
L 258.651505 169.933866 
L 258.680908 170.217945 
L 258.714813 170.501521 
L 258.753214 170.784524 
L 258.7961 171.066882 
L 258.84346 171.348524 
L 258.895283 171.62938 
L 258.951556 171.909377 
L 259.012264 172.188447 
L 259.077392 172.466518 
L 259.146923 172.743521 
L 259.220841 173.019386 
L 259.299126 173.294043 
L 259.38176 173.567424 
L 259.46872 173.839459 
L 259.559985 174.11008 
L 259.655533 174.37922 
L 259.755339 174.646809 
L 259.859377 174.912781 
L 259.967623 175.177069 
L 260.080048 175.439607 
L 260.196624 175.700327 
L 260.317322 175.959166 
L 260.442112 176.216056 
L 260.570962 176.470935 
L 260.703839 176.723736 
L 260.840711 176.974398 
L 260.981543 177.222857 
L 261.126299 177.46905 
L 261.274942 177.712916 
L 261.427436 177.954392 
L 261.583743 178.193418 
L 261.743822 178.429935 
L 261.907633 178.663882 
L 262.075135 178.8952 
L 262.246287 179.123832 
L 262.421044 179.349719 
L 262.599364 179.572805 
L 262.7812 179.793034 
L 262.966508 180.01035 
L 263.15524 180.224699 
L 263.347349 180.436027 
L 263.542787 180.644279 
L 263.741505 180.849405 
L 263.943452 181.051352 
L 264.148578 181.25007 
L 264.356831 181.445508 
L 264.568158 181.637617 
L 264.782507 181.826349 
L 264.999823 182.011657 
L 265.220052 182.193494 
L 265.443138 182.371813 
L 265.669026 182.54657 
L 265.897657 182.717722 
L 266.128976 182.885224 
L 266.362922 183.049036 
L 266.599439 183.209115 
L 266.838465 183.365421 
L 267.079942 183.517915 
L 267.323807 183.666559 
L 267.57 183.811314 
L 267.818459 183.952146 
L 268.069121 184.089018 
L 268.321923 184.221895 
L 268.576801 184.350745 
L 268.833692 184.475535 
L 269.09253 184.596233 
L 269.35325 184.712809 
L 269.615788 184.825234 
L 269.880076 184.93348 
L 270.146048 185.037519 
L 270.413637 185.137324 
L 270.682777 185.232872 
L 270.953398 185.324137 
L 271.225433 185.411097 
L 271.498814 185.493731 
L 271.773471 185.572016 
L 272.049336 185.645934 
L 272.326339 185.715465 
L 272.60441 185.780593 
L 272.88348 185.841301 
L 273.163478 185.897574 
L 273.444333 185.949397 
L 273.725975 185.996757 
L 274.008333 186.039643 
L 274.291336 186.078044 
L 274.574912 186.11195 
L 274.858991 186.141352 
L 275.143501 186.166243 
L 275.428369 186.186617 
L 275.713526 186.202469 
L 275.998897 186.213795 
L 276.284413 186.220591 
L 276.57 186.222857 
L 312.57 186.222857 
z
" clip-path="url(#p17892ba92d)" style="fill: none; stroke: #000000; stroke-linecap: round"/>
   </g>
   <g id="patch_5">
    <path d="M 73.17 294.222857 
L 141.57 272.622857 
L 209.97 294.222857 
L 141.57 315.822857 
L 73.17 294.222857 
z
" clip-path="url(#p17892ba92d)" style="fill: none; stroke: #000000; stroke-linecap: round"/>
   </g>
   <g id="patch_6">
    <path d="M 73.17 423.822857 
L 141.57 402.222857 
L 209.97 423.822857 
L 141.57 445.422857 
L 73.17 423.822857 
z
" clip-path="url(#p17892ba92d)" style="fill: none; stroke: #000000; stroke-linecap: round"/>
   </g>
   <g id="patch_7">
    <path d="M 159.57 512.28 
L 159.855587 512.277734 
L 160.141103 512.270938 
L 160.426474 512.259612 
L 160.711631 512.24376 
L 160.996499 512.223386 
L 161.281009 512.198495 
L 161.565088 512.169092 
L 161.848664 512.135187 
L 162.131667 512.096786 
L 162.414025 512.0539 
L 162.695667 512.00654 
L 162.976522 511.954717 
L 163.25652 511.898444 
L 163.53559 511.837736 
L 163.813661 511.772608 
L 164.090664 511.703077 
L 164.366529 511.629159 
L 164.641186 511.550874 
L 164.914567 511.46824 
L 165.186602 511.38128 
L 165.457223 511.290015 
L 165.726363 511.194467 
L 165.993952 511.094661 
L 166.259924 510.990623 
L 166.524212 510.882377 
L 166.78675 510.769952 
L 167.04747 510.653376 
L 167.306308 510.532678 
L 167.563199 510.407888 
L 167.818077 510.279038 
L 168.070879 510.146161 
L 168.321541 510.009289 
L 168.57 509.868457 
L 168.816193 509.723701 
L 169.060058 509.575058 
L 169.301535 509.422564 
L 169.540561 509.266257 
L 169.777078 509.106178 
L 170.011024 508.942367 
L 170.242343 508.774865 
L 170.470974 508.603713 
L 170.696862 508.428956 
L 170.919948 508.250636 
L 171.140177 508.0688 
L 171.357493 507.883492 
L 171.571842 507.69476 
L 171.783169 507.502651 
L 171.991422 507.307213 
L 172.196548 507.108495 
L 172.398495 506.906548 
L 172.597213 506.701422 
L 172.792651 506.493169 
L 172.98476 506.281842 
L 173.173492 506.067493 
L 173.3588 505.850177 
L 173.540636 505.629948 
L 173.718956 505.406862 
L 173.893713 505.180974 
L 174.064865 504.952343 
L 174.232367 504.721024 
L 174.396178 504.487078 
L 174.556257 504.250561 
L 174.712564 504.011535 
L 174.865058 503.770058 
L 175.013701 503.526193 
L 175.158457 503.28 
L 175.299289 503.031541 
L 175.436161 502.780879 
L 175.569038 502.528077 
L 175.697888 502.273199 
L 175.822678 502.016308 
L 175.943376 501.75747 
L 176.059952 501.49675 
L 176.172377 501.234212 
L 176.280623 500.969924 
L 176.384661 500.703952 
L 176.484467 500.436363 
L 176.580015 500.167223 
L 176.67128 499.896602 
L 176.75824 499.624567 
L 176.840874 499.351186 
L 176.919159 499.076529 
L 176.993077 498.800664 
L 177.062608 498.523661 
L 177.127736 498.24559 
L 177.188444 497.96652 
L 177.244717 497.686522 
L 177.29654 497.405667 
L 177.3439 497.124025 
L 177.386786 496.841667 
L 177.425187 496.558664 
L 177.459092 496.275088 
L 177.488495 495.991009 
L 177.513386 495.706499 
L 177.53376 495.421631 
L 177.549612 495.136474 
L 177.560938 494.851103 
L 177.567734 494.565587 
L 177.57 494.28 
L 177.57 494.28 
L 177.567734 493.994413 
L 177.560938 493.708897 
L 177.549612 493.423526 
L 177.53376 493.138369 
L 177.513386 492.853501 
L 177.488495 492.568991 
L 177.459092 492.284912 
L 177.425187 492.001336 
L 177.386786 491.718333 
L 177.3439 491.435975 
L 177.29654 491.154333 
L 177.244717 490.873478 
L 177.188444 490.59348 
L 177.127736 490.31441 
L 177.062608 490.036339 
L 176.993077 489.759336 
L 176.919159 489.483471 
L 176.840874 489.208814 
L 176.75824 488.935433 
L 176.67128 488.663398 
L 176.580015 488.392777 
L 176.484467 488.123637 
L 176.384661 487.856048 
L 176.280623 487.590076 
L 176.172377 487.325788 
L 176.059952 487.06325 
L 175.943376 486.80253 
L 175.822678 486.543692 
L 175.697888 486.286801 
L 175.569038 486.031923 
L 175.436161 485.779121 
L 175.299289 485.528459 
L 175.158457 485.28 
L 175.013701 485.033807 
L 174.865058 484.789942 
L 174.712564 484.548465 
L 174.556257 484.309439 
L 174.396178 484.072922 
L 174.232367 483.838976 
L 174.064865 483.607657 
L 173.893713 483.379026 
L 173.718956 483.153138 
L 173.540636 482.930052 
L 173.3588 482.709823 
L 173.173492 482.492507 
L 172.98476 482.278158 
L 172.792651 482.066831 
L 172.597213 481.858578 
L 172.398495 481.653452 
L 172.196548 481.451505 
L 171.991422 481.252787 
L 171.783169 481.057349 
L 171.571842 480.86524 
L 171.357493 480.676508 
L 171.140177 480.4912 
L 170.919948 480.309364 
L 170.696862 480.131044 
L 170.470974 479.956287 
L 170.242343 479.785135 
L 170.011024 479.617633 
L 169.777078 479.453822 
L 169.540561 479.293743 
L 169.301535 479.137436 
L 169.060058 478.984942 
L 168.816193 478.836299 
L 168.57 478.691543 
L 168.321541 478.550711 
L 168.070879 478.413839 
L 167.818077 478.280962 
L 167.563199 478.152112 
L 167.306308 478.027322 
L 167.04747 477.906624 
L 166.78675 477.790048 
L 166.524212 477.677623 
L 166.259924 477.569377 
L 165.993952 477.465339 
L 165.726363 477.365533 
L 165.457223 477.269985 
L 165.186602 477.17872 
L 164.914567 477.09176 
L 164.641186 477.009126 
L 164.366529 476.930841 
L 164.090664 476.856923 
L 163.813661 476.787392 
L 163.53559 476.722264 
L 163.25652 476.661556 
L 162.976522 476.605283 
L 162.695667 476.55346 
L 162.414025 476.5061 
L 162.131667 476.463214 
L 161.848664 476.424813 
L 161.565088 476.390908 
L 161.281009 476.361505 
L 160.996499 476.336614 
L 160.711631 476.31624 
L 160.426474 476.300388 
L 160.141103 476.289062 
L 159.855587 476.282266 
L 159.57 476.28 
L 123.57 476.28 
L 123.284413 476.282266 
L 122.998897 476.289062 
L 122.713526 476.300388 
L 122.428369 476.31624 
L 122.143501 476.336614 
L 121.858991 476.361505 
L 121.574912 476.390908 
L 121.291336 476.424813 
L 121.008333 476.463214 
L 120.725975 476.5061 
L 120.444333 476.55346 
L 120.163478 476.605283 
L 119.88348 476.661556 
L 119.60441 476.722264 
L 119.326339 476.787392 
L 119.049336 476.856923 
L 118.773471 476.930841 
L 118.498814 477.009126 
L 118.225433 477.09176 
L 117.953398 477.17872 
L 117.682777 477.269985 
L 117.413637 477.365533 
L 117.146048 477.465339 
L 116.880076 477.569377 
L 116.615788 477.677623 
L 116.35325 477.790048 
L 116.09253 477.906624 
L 115.833692 478.027322 
L 115.576801 478.152112 
L 115.321923 478.280962 
L 115.069121 478.413839 
L 114.818459 478.550711 
L 114.57 478.691543 
L 114.323807 478.836299 
L 114.079942 478.984942 
L 113.838465 479.137436 
L 113.599439 479.293743 
L 113.362922 479.453822 
L 113.128976 479.617633 
L 112.897657 479.785135 
L 112.669026 479.956287 
L 112.443138 480.131044 
L 112.220052 480.309364 
L 111.999823 480.4912 
L 111.782507 480.676508 
L 111.568158 480.86524 
L 111.356831 481.057349 
L 111.148578 481.252787 
L 110.943452 481.451505 
L 110.741505 481.653452 
L 110.542787 481.858578 
L 110.347349 482.066831 
L 110.15524 482.278158 
L 109.966508 482.492507 
L 109.7812 482.709823 
L 109.599364 482.930052 
L 109.421044 483.153138 
L 109.246287 483.379026 
L 109.075135 483.607657 
L 108.907633 483.838976 
L 108.743822 484.072922 
L 108.583743 484.309439 
L 108.427436 484.548465 
L 108.274942 484.789942 
L 108.126299 485.033807 
L 107.981543 485.28 
L 107.840711 485.528459 
L 107.703839 485.779121 
L 107.570962 486.031923 
L 107.442112 486.286801 
L 107.317322 486.543692 
L 107.196624 486.80253 
L 107.080048 487.06325 
L 106.967623 487.325788 
L 106.859377 487.590076 
L 106.755339 487.856048 
L 106.655533 488.123637 
L 106.559985 488.392777 
L 106.46872 488.663398 
L 106.38176 488.935433 
L 106.299126 489.208814 
L 106.220841 489.483471 
L 106.146923 489.759336 
L 106.077392 490.036339 
L 106.012264 490.31441 
L 105.951556 490.59348 
L 105.895283 490.873478 
L 105.84346 491.154333 
L 105.7961 491.435975 
L 105.753214 491.718333 
L 105.714813 492.001336 
L 105.680908 492.284912 
L 105.651505 492.568991 
L 105.626614 492.853501 
L 105.60624 493.138369 
L 105.590388 493.423526 
L 105.579062 493.708897 
L 105.572266 493.994413 
L 105.57 494.28 
L 105.57 494.28 
L 105.572266 494.565587 
L 105.579062 494.851103 
L 105.590388 495.136474 
L 105.60624 495.421631 
L 105.626614 495.706499 
L 105.651505 495.991009 
L 105.680908 496.275088 
L 105.714813 496.558664 
L 105.753214 496.841667 
L 105.7961 497.124025 
L 105.84346 497.405667 
L 105.895283 497.686522 
L 105.951556 497.96652 
L 106.012264 498.24559 
L 106.077392 498.523661 
L 106.146923 498.800664 
L 106.220841 499.076529 
L 106.299126 499.351186 
L 106.38176 499.624567 
L 106.46872 499.896602 
L 106.559985 500.167223 
L 106.655533 500.436363 
L 106.755339 500.703952 
L 106.859377 500.969924 
L 106.967623 501.234212 
L 107.080048 501.49675 
L 107.196624 501.75747 
L 107.317322 502.016308 
L 107.442112 502.273199 
L 107.570962 502.528077 
L 107.703839 502.780879 
L 107.840711 503.031541 
L 107.981543 503.28 
L 108.126299 503.526193 
L 108.274942 503.770058 
L 108.427436 504.011535 
L 108.583743 504.250561 
L 108.743822 504.487078 
L 108.907633 504.721024 
L 109.075135 504.952343 
L 109.246287 505.180974 
L 109.421044 505.406862 
L 109.599364 505.629948 
L 109.7812 505.850177 
L 109.966508 506.067493 
L 110.15524 506.281842 
L 110.347349 506.493169 
L 110.542787 506.701422 
L 110.741505 506.906548 
L 110.943452 507.108495 
L 111.148578 507.307213 
L 111.356831 507.502651 
L 111.568158 507.69476 
L 111.782507 507.883492 
L 111.999823 508.0688 
L 112.220052 508.250636 
L 112.443138 508.428956 
L 112.669026 508.603713 
L 112.897657 508.774865 
L 113.128976 508.942367 
L 113.362922 509.106178 
L 113.599439 509.266257 
L 113.838465 509.422564 
L 114.079942 509.575058 
L 114.323807 509.723701 
L 114.57 509.868457 
L 114.818459 510.009289 
L 115.069121 510.146161 
L 115.321923 510.279038 
L 115.576801 510.407888 
L 115.833692 510.532678 
L 116.09253 510.653376 
L 116.35325 510.769952 
L 116.615788 510.882377 
L 116.880076 510.990623 
L 117.146048 511.094661 
L 117.413637 511.194467 
L 117.682777 511.290015 
L 117.953398 511.38128 
L 118.225433 511.46824 
L 118.498814 511.550874 
L 118.773471 511.629159 
L 119.049336 511.703077 
L 119.326339 511.772608 
L 119.60441 511.837736 
L 119.88348 511.898444 
L 120.163478 511.954717 
L 120.444333 512.00654 
L 120.725975 512.0539 
L 121.008333 512.096786 
L 121.291336 512.135187 
L 121.574912 512.169092 
L 121.858991 512.198495 
L 122.143501 512.223386 
L 122.428369 512.24376 
L 122.713526 512.259612 
L 122.998897 512.270938 
L 123.284413 512.277734 
L 123.57 512.28 
L 159.57 512.28 
z
" clip-path="url(#p17892ba92d)" style="fill: none; stroke: #000000; stroke-linecap: round"/>
   </g>
   <g id="line2d_1">
    <path d="M 141.57 63.822857 
L 141.57 77.322857 
L 141.57 81.822857 
" clip-path="url(#p17892ba92d)" style="fill: none; stroke: #000000; stroke-linecap: round"/>
   </g>
   <g id="patch_8">
    <path d="M 144.27 81.822857 
L 141.57 90.822857 
L 138.87 81.822857 
z
" clip-path="url(#p17892ba92d)"/>
   </g>
   <g id="line2d_2">
    <path d="M 96.57 107.022857 
L 96.57 90.822857 
L 186.57 90.822857 
L 186.57 123.222857 
L 96.57 123.222857 
L 96.57 107.022857 
" clip-path="url(#p17892ba92d)" style="fill: none; stroke: #000000; stroke-linecap: round"/>
   </g>
   <g id="line2d_3">
    <path d="M 141.57 123.222857 
L 141.57 136.722857 
L 141.57 141.222857 
" clip-path="url(#p17892ba92d)" style="fill: none; stroke: #000000; stroke-linecap: round"/>
   </g>
   <g id="patch_9">
    <path d="M 144.27 141.222857 
L 141.57 150.222857 
L 138.87 141.222857 
z
" clip-path="url(#p17892ba92d)"/>
   </g>
   <g id="line2d_4">
    <path d="M 204.57 168.222857 
L 231.57 168.222857 
L 249.57 168.222857 
" clip-path="url(#p17892ba92d)" style="fill: none; stroke-dasharray: 3.7,1.6; stroke-dashoffset: 0; stroke: #000000"/>
   </g>
   <g id="patch_10">
    <path d="M 249.57 165.522857 
L 258.57 168.222857 
L 249.57 170.922857 
z
" clip-path="url(#p17892ba92d)"/>
   </g>
   <g id="line2d_5">
    <path d="M 141.57 186.222857 
L 141.57 199.722857 
L 141.57 204.222857 
" clip-path="url(#p17892ba92d)" style="fill: none; stroke: #000000; stroke-linecap: round"/>
   </g>
   <g id="patch_11">
    <path d="M 144.27 204.222857 
L 141.57 213.222857 
L 138.87 204.222857 
z
" clip-path="url(#p17892ba92d)"/>
   </g>
   <g id="line2d_6">
    <path d="M 96.57 229.422857 
L 96.57 213.222857 
L 186.57 213.222857 
L 186.57 245.622857 
L 96.57 245.622857 
L 96.57 229.422857 
" clip-path="url(#p17892ba92d)" style="fill: none; stroke: #000000; stroke-linecap: round"/>
   </g>
   <g id="line2d_7">
    <path d="M 141.57 245.622857 
L 141.57 259.122857 
L 141.57 263.622857 
" clip-path="url(#p17892ba92d)" style="fill: none; stroke: #000000; stroke-linecap: round"/>
   </g>
   <g id="patch_12">
    <path d="M 144.27 263.622857 
L 141.57 272.622857 
L 138.87 263.622857 
z
" clip-path="url(#p17892ba92d)"/>
   </g>
   <g id="line2d_8">
    <path d="M 73.17 294.222857 
L 46.17 294.222857 
L 28.17 294.222857 
" clip-path="url(#p17892ba92d)" style="fill: none; stroke: #000000; stroke-linecap: round"/>
   </g>
   <g id="patch_13">
    <path d="M 28.17 296.922857 
L 19.17 294.222857 
L 28.17 291.522857 
z
" clip-path="url(#p17892ba92d)"/>
   </g>
   <g id="line2d_9">
    <path d="M 141.57 315.822857 
L 141.57 329.322857 
L 141.57 333.822857 
" clip-path="url(#p17892ba92d)" style="fill: none; stroke: #000000; stroke-linecap: round"/>
   </g>
   <g id="patch_14">
    <path d="M 144.27 333.822857 
L 141.57 342.822857 
L 138.87 333.822857 
z
" clip-path="url(#p17892ba92d)"/>
   </g>
   <g id="line2d_10">
    <path d="M 87.57 359.022857 
L 87.57 342.822857 
L 195.57 342.822857 
L 195.57 375.222857 
L 87.57 375.222857 
L 87.57 359.022857 
" clip-path="url(#p17892ba92d)" style="fill: none; stroke: #000000; stroke-linecap: round"/>
   </g>
   <g id="line2d_11">
    <path d="M 141.57 375.222857 
L 141.57 388.722857 
L 141.57 393.222857 
" clip-path="url(#p17892ba92d)" style="fill: none; stroke: #000000; stroke-linecap: round"/>
   </g>
   <g id="patch_15">
    <path d="M 144.27 393.222857 
L 141.57 402.222857 
L 138.87 393.222857 
z
" clip-path="url(#p17892ba92d)"/>
   </g>
   <g id="line2d_12">
    <path d="M 141.57 445.422857 
L 141.57 460.851429 
L 141.57 467.28 
" clip-path="url(#p17892ba92d)" style="fill: none; stroke: #000000; stroke-linecap: round"/>
   </g>
   <g id="patch_16">
    <path d="M 144.27 467.28 
L 141.57 476.28 
L 138.87 467.28 
z
" clip-path="url(#p17892ba92d)"/>
   </g>
   <g id="line2d_13">
    <path d="M 73.17 423.822857 
L 19.17 423.822857 
L 19.17 168.222857 
L 69.57 168.222857 
" clip-path="url(#p17892ba92d)" style="fill: none; stroke: #000000; stroke-linecap: round"/>
   </g>
   <g id="patch_17">
    <path d="M 69.57 165.522857 
L 78.57 168.222857 
L 69.57 170.922857 
z
" clip-path="url(#p17892ba92d)"/>
   </g>
   <g id="text_1">
    <!-- START -->
    <g transform="translate(122.393242 49.316998) scale(0.125 -0.125)">
     <defs>
      <path id="IPAexGothic-53" d="M 2919 3641 
Q 2563 4259 1853 4259 
Q 1453 4259 1213 4009 
Q 1028 3803 1028 3534 
Q 1028 3238 1266 3047 
Q 1444 2913 1984 2688 
L 2200 2597 
Q 2925 2306 3191 1953 
Q 3422 1644 3422 1259 
Q 3422 644 2969 288 
Q 2559 -31 1931 -31 
Q 881 -31 313 766 
L 753 1100 
Q 1203 459 1938 459 
Q 2288 459 2534 625 
Q 2841 847 2841 1216 
Q 2841 1503 2616 1728 
Q 2375 1959 1728 2206 
L 1541 2278 
Q 453 2694 453 3481 
Q 453 4006 806 4347 
Q 1203 4725 1863 4725 
Q 2841 4725 3359 3956 
L 2919 3641 
z
" transform="scale(0.015625)"/>
      <path id="IPAexGothic-54" d="M 3866 4141 
L 2175 4141 
L 2175 63 
L 1606 63 
L 1606 4141 
L -31 4141 
L -31 4634 
L 3866 4634 
L 3866 4141 
z
" transform="scale(0.015625)"/>
      <path id="IPAexGothic-41" d="M 4056 63 
L 3444 63 
L 2938 1409 
L 1100 1409 
L 603 63 
L -6 63 
L 1806 4666 
L 2259 4666 
L 4056 63 
z
M 2778 1863 
L 2316 3078 
Q 2125 3588 2028 4000 
L 2009 4000 
Q 1897 3563 1716 3078 
L 1263 1863 
L 2778 1863 
z
" transform="scale(0.015625)"/>
      <path id="IPAexGothic-52" d="M 4072 63 
L 3394 63 
Q 3138 641 2828 1197 
Q 2584 1641 2344 1825 
Q 2050 2044 1625 2044 
L 1172 2044 
L 1172 63 
L 609 63 
L 609 4634 
L 2009 4634 
Q 2713 4634 3131 4378 
Q 3688 4044 3688 3381 
Q 3688 2784 3181 2459 
Q 2906 2272 2522 2216 
L 2522 2197 
Q 2941 2050 3247 1581 
Q 3516 1166 4072 63 
z
M 1172 2478 
L 1869 2478 
Q 3106 2478 3106 3369 
Q 3106 4181 1928 4181 
L 1172 4181 
L 1172 2478 
z
" transform="scale(0.015625)"/>
     </defs>
     <use xlink:href="#IPAexGothic-53"/>
     <use xlink:href="#IPAexGothic-54" x="58.496094"/>
     <use xlink:href="#IPAexGothic-41" x="118.408203"/>
     <use xlink:href="#IPAexGothic-52" x="182.128906"/>
     <use xlink:href="#IPAexGothic-54" x="246.923828"/>
    </g>
   </g>
   <g id="text_2">
    <!-- counter = 0 -->
    <g transform="translate(107.26043 110.516998) scale(0.125 -0.125)">
     <defs>
      <path id="IPAexGothic-63" d="M 3269 784 
Q 2834 -31 1900 -31 
Q 1228 -31 788 409 
Q 313 891 313 1663 
Q 313 2428 788 2913 
Q 1222 3347 1881 3347 
Q 2813 3347 3206 2541 
L 2763 2309 
Q 2484 2900 1900 2900 
Q 1516 2900 1234 2619 
Q 881 2266 881 1650 
Q 881 1069 1222 728 
Q 1522 428 1956 428 
Q 2547 428 2847 1016 
L 3269 784 
z
" transform="scale(0.015625)"/>
      <path id="IPAexGothic-6f" d="M 1919 3341 
Q 2594 3341 3056 2888 
Q 3531 2413 3531 1638 
Q 3531 888 3066 422 
Q 2609 -31 1919 -31 
Q 1228 -31 781 416 
Q 313 881 313 1656 
Q 313 2413 788 2888 
Q 1241 3341 1919 3341 
z
M 1919 2919 
Q 1519 2919 1241 2631 
Q 888 2278 888 1650 
Q 888 1031 1234 684 
Q 1516 403 1919 403 
Q 2331 403 2609 691 
Q 2956 1038 2956 1672 
Q 2956 2269 2603 2631 
Q 2316 2919 1919 2919 
z
" transform="scale(0.015625)"/>
      <path id="IPAexGothic-75" d="M 3284 63 
L 2772 63 
L 2772 644 
Q 2300 0 1625 0 
Q 1072 0 763 375 
Q 519 678 519 1241 
L 519 3250 
L 1069 3250 
L 1069 1259 
Q 1069 466 1734 466 
Q 2406 466 2734 1291 
L 2734 3250 
L 3284 3250 
L 3284 63 
z
" transform="scale(0.015625)"/>
      <path id="IPAexGothic-6e" d="M 3328 63 
L 2778 63 
L 2778 2041 
Q 2778 2853 2106 2853 
Q 1428 2853 1113 2041 
L 1113 63 
L 563 63 
L 563 3250 
L 1075 3250 
L 1075 2675 
Q 1525 3316 2222 3316 
Q 3328 3316 3328 2072 
L 3328 63 
z
" transform="scale(0.015625)"/>
      <path id="IPAexGothic-74" d="M 2125 241 
Q 1769 -6 1397 -6 
Q 653 -6 653 831 
L 653 2859 
L 219 2859 
L 219 3250 
L 653 3250 
L 653 3966 
L 1178 4228 
L 1178 3250 
L 2063 3250 
L 2063 2859 
L 1178 2859 
L 1178 906 
Q 1178 416 1513 416 
Q 1738 416 1941 588 
L 2125 241 
z
" transform="scale(0.015625)"/>
      <path id="IPAexGothic-65" d="M 863 1594 
Q 891 1041 1209 722 
Q 1534 397 1997 397 
Q 2606 397 2963 966 
L 3322 728 
Q 2869 -31 1931 -31 
Q 1222 -31 766 422 
Q 306 884 306 1641 
Q 306 2444 788 2925 
Q 1216 3353 1856 3353 
Q 2459 3353 2866 2956 
Q 3322 2494 3322 1722 
L 3322 1594 
L 863 1594 
z
M 2756 1997 
Q 2709 2431 2450 2681 
Q 2194 2938 1844 2938 
Q 1438 2938 1150 2591 
Q 953 2356 894 1997 
L 2756 1997 
z
" transform="scale(0.015625)"/>
      <path id="IPAexGothic-72" d="M 2309 3316 
L 2213 2769 
Q 2106 2791 2022 2791 
Q 1653 2791 1413 2444 
Q 1113 2006 1113 1675 
L 1113 63 
L 563 63 
L 563 3250 
L 1081 3250 
L 1056 2303 
L 1069 2303 
Q 1422 3341 2097 3341 
Q 2206 3341 2309 3316 
z
" transform="scale(0.015625)"/>
      <path id="IPAexGothic-20" transform="scale(0.015625)"/>
      <path id="IPAexGothic-3d" d="M 416 2803 
L 3922 2803 
L 3922 2438 
L 416 2438 
L 416 2803 
z
M 416 1625 
L 3922 1625 
L 3922 1259 
L 416 1259 
L 416 1625 
z
" transform="scale(0.015625)"/>
      <path id="IPAexGothic-30" d="M 2038 4725 
Q 2881 4725 3334 3944 
Q 3694 3325 3694 2344 
Q 3694 1372 3334 741 
Q 2888 -31 2016 -31 
Q 1147 -31 700 741 
Q 341 1372 341 2350 
Q 341 3713 1000 4334 
Q 1419 4725 2038 4725 
z
M 2016 4266 
Q 1516 4266 1228 3759 
Q 934 3247 934 2344 
Q 934 1456 1222 947 
Q 1513 447 2016 447 
Q 2619 447 2909 1153 
Q 3100 1622 3100 2375 
Q 3100 3256 2806 3759 
Q 2509 4266 2016 4266 
z
" transform="scale(0.015625)"/>
     </defs>
     <use xlink:href="#IPAexGothic-63"/>
     <use xlink:href="#IPAexGothic-6f" x="54.394531"/>
     <use xlink:href="#IPAexGothic-75" x="114.794922"/>
     <use xlink:href="#IPAexGothic-6e" x="175.195312"/>
     <use xlink:href="#IPAexGothic-74" x="235.595703"/>
     <use xlink:href="#IPAexGothic-65" x="270.214844"/>
     <use xlink:href="#IPAexGothic-72" x="327.099609"/>
     <use xlink:href="#IPAexGothic-20" x="364.111328"/>
     <use xlink:href="#IPAexGothic-3d" x="391.113281"/>
     <use xlink:href="#IPAexGothic-20" x="458.935547"/>
     <use xlink:href="#IPAexGothic-30" x="485.9375"/>
    </g>
   </g>
   <g id="text_3">
    <!-- True -->
    <g transform="translate(146.25 200.266138) scale(0.125 -0.125)">
     <use xlink:href="#IPAexGothic-54"/>
     <use xlink:href="#IPAexGothic-72" x="59.912109"/>
     <use xlink:href="#IPAexGothic-75" x="96.923828"/>
     <use xlink:href="#IPAexGothic-65" x="157.324219"/>
    </g>
   </g>
   <g id="text_4">
    <!-- False -->
    <g transform="translate(209.25 161.167857) scale(0.125 -0.125)">
     <defs>
      <path id="IPAexGothic-46" d="M 3469 4141 
L 1172 4141 
L 1172 2656 
L 3206 2656 
L 3206 2188 
L 1172 2188 
L 1172 63 
L 609 63 
L 609 4634 
L 3469 4634 
L 3469 4141 
z
" transform="scale(0.015625)"/>
      <path id="IPAexGothic-61" d="M 3156 63 
L 2672 63 
Q 2559 303 2531 556 
L 2509 556 
Q 2147 -25 1428 -25 
Q 934 -25 622 288 
Q 347 563 347 959 
Q 347 1947 2050 1997 
L 2478 2009 
L 2478 2175 
Q 2478 2509 2288 2700 
Q 2088 2900 1775 2900 
Q 1238 2900 969 2378 
L 494 2597 
Q 938 3328 1788 3328 
Q 2375 3328 2691 3000 
Q 2984 2706 2984 2169 
L 2984 997 
Q 2984 400 3156 63 
z
M 2491 1625 
L 2141 1619 
Q 903 1591 903 953 
Q 903 728 1050 581 
Q 1231 403 1525 403 
Q 1934 403 2234 703 
Q 2491 969 2491 1344 
L 2491 1625 
z
" transform="scale(0.015625)"/>
      <path id="IPAexGothic-6c" d="M 1131 63 
L 581 63 
L 581 4794 
L 1131 4794 
L 1131 63 
z
" transform="scale(0.015625)"/>
      <path id="IPAexGothic-73" d="M 2234 2547 
Q 1938 2931 1484 2931 
Q 891 2931 891 2475 
Q 891 2153 1531 1944 
L 1741 1875 
Q 2650 1578 2650 894 
Q 2650 434 2272 172 
Q 1972 -31 1497 -31 
Q 766 -31 256 503 
L 603 819 
Q 997 397 1516 397 
Q 2131 397 2131 875 
Q 2131 1238 1453 1478 
L 1234 1553 
Q 378 1853 378 2431 
Q 378 2797 628 3047 
Q 928 3347 1453 3347 
Q 2156 3347 2606 2859 
L 2234 2547 
z
" transform="scale(0.015625)"/>
     </defs>
     <use xlink:href="#IPAexGothic-46"/>
     <use xlink:href="#IPAexGothic-61" x="57.177734"/>
     <use xlink:href="#IPAexGothic-6c" x="112.158203"/>
     <use xlink:href="#IPAexGothic-73" x="139.160156"/>
     <use xlink:href="#IPAexGothic-65" x="185.351562"/>
    </g>
   </g>
   <g id="text_5">
    <!-- True ？ -->
    <g transform="translate(120.243828 171.716998) scale(0.125 -0.125)">
     <defs>
      <path id="IPAexGothic-ff1f" d="M 1503 3444 
Q 1550 4184 1963 4616 
Q 2466 5128 3272 5128 
Q 3888 5128 4313 4853 
Q 4909 4469 4909 3778 
Q 4909 3059 4116 2563 
Q 3628 2250 3506 1881 
Q 3422 1650 3422 1228 
L 2853 1228 
Q 2863 1869 3053 2197 
Q 3281 2588 3847 2950 
Q 4341 3269 4341 3778 
Q 4341 4231 3975 4463 
Q 3697 4634 3266 4634 
Q 2656 4634 2341 4225 
Q 2109 3928 2091 3444 
L 1503 3444 
z
M 2763 647 
L 3506 647 
L 3506 -97 
L 2763 -97 
L 2763 647 
z
" transform="scale(0.015625)"/>
     </defs>
     <use xlink:href="#IPAexGothic-54"/>
     <use xlink:href="#IPAexGothic-72" x="59.912109"/>
     <use xlink:href="#IPAexGothic-75" x="96.923828"/>
     <use xlink:href="#IPAexGothic-65" x="157.324219"/>
     <use xlink:href="#IPAexGothic-20" x="214.208984"/>
     <use xlink:href="#IPAexGothic-ff1f" x="241.210938"/>
    </g>
   </g>
   <g id="text_6">
    <!-- END -->
    <g transform="translate(281.370781 171.716998) scale(0.125 -0.125)">
     <defs>
      <path id="IPAexGothic-45" d="M 3547 63 
L 609 63 
L 609 4634 
L 3469 4634 
L 3469 4147 
L 1166 4147 
L 1166 2650 
L 3206 2650 
L 3206 2191 
L 1166 2191 
L 1166 556 
L 3547 556 
L 3547 63 
z
" transform="scale(0.015625)"/>
      <path id="IPAexGothic-4e" d="M 4244 63 
L 3731 63 
L 1697 3150 
Q 1466 3500 1141 4097 
L 1116 4097 
L 1128 3797 
Q 1159 2803 1159 2469 
L 1159 63 
L 609 63 
L 609 4634 
L 1366 4634 
L 3113 1978 
Q 3453 1447 3713 966 
L 3738 966 
Q 3694 1897 3694 2469 
L 3694 4634 
L 4244 4634 
L 4244 63 
z
" transform="scale(0.015625)"/>
      <path id="IPAexGothic-44" d="M 609 4634 
L 1984 4634 
Q 3159 4634 3791 4050 
Q 4456 3444 4456 2356 
Q 4456 1047 3516 441 
Q 2925 63 1941 63 
L 609 63 
L 609 4634 
z
M 1172 556 
L 1894 556 
Q 3853 556 3853 2356 
Q 3853 4147 1928 4147 
L 1172 4147 
L 1172 556 
z
" transform="scale(0.015625)"/>
     </defs>
     <use xlink:href="#IPAexGothic-45"/>
     <use xlink:href="#IPAexGothic-4e" x="59.521484"/>
     <use xlink:href="#IPAexGothic-44" x="135.498047"/>
    </g>
   </g>
   <g id="text_7">
    <!-- counter += 1 -->
    <g transform="translate(103.021172 232.916998) scale(0.125 -0.125)">
     <defs>
      <path id="IPAexGothic-2b" d="M 2369 1856 
L 2369 219 
L 1984 219 
L 1984 1856 
L 416 1856 
L 416 2216 
L 1984 2216 
L 1984 3725 
L 2369 3725 
L 2369 2216 
L 3922 2216 
L 3922 1856 
L 2369 1856 
z
" transform="scale(0.015625)"/>
      <path id="IPAexGothic-31" d="M 2463 63 
L 1900 63 
L 1900 4103 
Q 1372 3922 788 3797 
L 684 4231 
Q 1519 4441 2106 4731 
L 2463 4731 
L 2463 63 
z
" transform="scale(0.015625)"/>
     </defs>
     <use xlink:href="#IPAexGothic-63"/>
     <use xlink:href="#IPAexGothic-6f" x="54.394531"/>
     <use xlink:href="#IPAexGothic-75" x="114.794922"/>
     <use xlink:href="#IPAexGothic-6e" x="175.195312"/>
     <use xlink:href="#IPAexGothic-74" x="235.595703"/>
     <use xlink:href="#IPAexGothic-65" x="270.214844"/>
     <use xlink:href="#IPAexGothic-72" x="327.099609"/>
     <use xlink:href="#IPAexGothic-20" x="364.111328"/>
     <use xlink:href="#IPAexGothic-2b" x="391.113281"/>
     <use xlink:href="#IPAexGothic-3d" x="458.935547"/>
     <use xlink:href="#IPAexGothic-20" x="526.757812"/>
     <use xlink:href="#IPAexGothic-31" x="553.759766"/>
    </g>
   </g>
   <g id="text_8">
    <!-- False -->
    <g transform="translate(146.25 329.866138) scale(0.125 -0.125)">
     <use xlink:href="#IPAexGothic-46"/>
     <use xlink:href="#IPAexGothic-61" x="57.177734"/>
     <use xlink:href="#IPAexGothic-6c" x="112.158203"/>
     <use xlink:href="#IPAexGothic-73" x="139.160156"/>
     <use xlink:href="#IPAexGothic-65" x="185.351562"/>
    </g>
   </g>
   <g id="text_9">
    <!-- True -->
    <g transform="translate(41.712656 287.167857) scale(0.125 -0.125)">
     <use xlink:href="#IPAexGothic-54"/>
     <use xlink:href="#IPAexGothic-72" x="59.912109"/>
     <use xlink:href="#IPAexGothic-75" x="96.923828"/>
     <use xlink:href="#IPAexGothic-65" x="157.324219"/>
    </g>
   </g>
   <g id="text_10">
    <!-- counter == 3 ？ -->
    <g transform="translate(95.083672 297.716998) scale(0.125 -0.125)">
     <defs>
      <path id="IPAexGothic-33" d="M 2381 2419 
Q 3506 2216 3506 1278 
Q 3506 716 3128 356 
Q 2709 -31 1944 -31 
Q 797 -31 288 881 
L 756 1131 
Q 1109 441 1938 441 
Q 2425 441 2694 691 
Q 2950 928 2950 1291 
Q 2950 1719 2566 1978 
Q 2216 2213 1644 2213 
L 1363 2213 
L 1363 2669 
L 1656 2669 
Q 2231 2669 2534 2888 
Q 2859 3119 2859 3509 
Q 2859 3934 2494 4138 
Q 2259 4278 1931 4278 
Q 1238 4278 903 3578 
L 434 3803 
Q 897 4725 1938 4725 
Q 2597 4725 3006 4394 
Q 3416 4069 3416 3534 
Q 3416 3028 3019 2706 
Q 2763 2500 2381 2444 
L 2381 2419 
z
" transform="scale(0.015625)"/>
     </defs>
     <use xlink:href="#IPAexGothic-63"/>
     <use xlink:href="#IPAexGothic-6f" x="54.394531"/>
     <use xlink:href="#IPAexGothic-75" x="114.794922"/>
     <use xlink:href="#IPAexGothic-6e" x="175.195312"/>
     <use xlink:href="#IPAexGothic-74" x="235.595703"/>
     <use xlink:href="#IPAexGothic-65" x="270.214844"/>
     <use xlink:href="#IPAexGothic-72" x="327.099609"/>
     <use xlink:href="#IPAexGothic-20" x="364.111328"/>
     <use xlink:href="#IPAexGothic-3d" x="391.113281"/>
     <use xlink:href="#IPAexGothic-3d" x="458.935547"/>
     <use xlink:href="#IPAexGothic-20" x="526.757812"/>
     <use xlink:href="#IPAexGothic-33" x="553.759766"/>
     <use xlink:href="#IPAexGothic-20" x="616.748047"/>
     <use xlink:href="#IPAexGothic-ff1f" x="643.75"/>
    </g>
   </g>
   <g id="text_11">
    <!-- print(counter) -->
    <g transform="translate(100.826836 362.629302) scale(0.125 -0.125)">
     <defs>
      <path id="IPAexGothic-70" d="M 1075 2688 
Q 1525 3341 2206 3341 
Q 2769 3341 3172 2938 
Q 3641 2469 3641 1644 
Q 3641 841 3178 372 
Q 2775 -31 2200 -31 
Q 1569 -31 1106 497 
L 1106 -1216 
L 563 -1216 
L 563 3250 
L 1075 3250 
L 1075 2688 
z
M 1106 1950 
L 1106 1291 
Q 1106 897 1516 600 
Q 1791 403 2106 403 
Q 2469 403 2725 659 
Q 3066 997 3066 1631 
Q 3066 2200 2784 2559 
Q 2503 2900 2100 2900 
Q 1656 2900 1338 2484 
Q 1106 2184 1106 1950 
z
" transform="scale(0.015625)"/>
      <path id="IPAexGothic-69" d="M 1178 3928 
L 550 3928 
L 550 4569 
L 1178 4569 
L 1178 3928 
z
M 1138 63 
L 588 63 
L 588 3250 
L 1138 3250 
L 1138 63 
z
" transform="scale(0.015625)"/>
      <path id="IPAexGothic-28" d="M 1928 -1016 
L 1653 -1166 
Q 488 69 488 1875 
Q 488 3678 1653 4909 
L 1928 4763 
Q 1006 3522 1006 1881 
Q 1006 203 1928 -1016 
z
" transform="scale(0.015625)"/>
      <path id="IPAexGothic-29" d="M 466 4909 
Q 1638 3672 1638 1875 
Q 1638 75 466 -1166 
L 191 -1016 
Q 1119 216 1119 1881 
Q 1119 3509 191 4763 
L 466 4909 
z
" transform="scale(0.015625)"/>
     </defs>
     <use xlink:href="#IPAexGothic-70"/>
     <use xlink:href="#IPAexGothic-72" x="62.109375"/>
     <use xlink:href="#IPAexGothic-69" x="99.121094"/>
     <use xlink:href="#IPAexGothic-6e" x="126.123047"/>
     <use xlink:href="#IPAexGothic-74" x="186.523438"/>
     <use xlink:href="#IPAexGothic-28" x="221.142578"/>
     <use xlink:href="#IPAexGothic-63" x="254.443359"/>
     <use xlink:href="#IPAexGothic-6f" x="308.837891"/>
     <use xlink:href="#IPAexGothic-75" x="369.238281"/>
     <use xlink:href="#IPAexGothic-6e" x="429.638672"/>
     <use xlink:href="#IPAexGothic-74" x="490.039062"/>
     <use xlink:href="#IPAexGothic-65" x="524.658203"/>
     <use xlink:href="#IPAexGothic-72" x="581.542969"/>
     <use xlink:href="#IPAexGothic-29" x="618.554688"/>
    </g>
   </g>
   <g id="text_12">
    <!-- False -->
    <g transform="translate(146.25 459.466138) scale(0.125 -0.125)">
     <use xlink:href="#IPAexGothic-46"/>
     <use xlink:href="#IPAexGothic-61" x="57.177734"/>
     <use xlink:href="#IPAexGothic-6c" x="112.158203"/>
     <use xlink:href="#IPAexGothic-73" x="139.160156"/>
     <use xlink:href="#IPAexGothic-65" x="185.351562"/>
    </g>
   </g>
   <g id="text_13">
    <!-- True -->
    <g transform="translate(41.712656 416.767857) scale(0.125 -0.125)">
     <use xlink:href="#IPAexGothic-54"/>
     <use xlink:href="#IPAexGothic-72" x="59.912109"/>
     <use xlink:href="#IPAexGothic-75" x="96.923828"/>
     <use xlink:href="#IPAexGothic-65" x="157.324219"/>
    </g>
   </g>
   <g id="text_14">
    <!-- counter &gt;= 4 ？ -->
    <g transform="translate(95.083672 427.316998) scale(0.125 -0.125)">
     <defs>
      <path id="IPAexGothic-3e" d="M 3444 2028 
L 409 3450 
L 569 3794 
L 3928 2175 
L 3928 1881 
L 569 263 
L 409 609 
L 3444 2028 
z
" transform="scale(0.015625)"/>
      <path id="IPAexGothic-34" d="M 3813 1159 
L 3059 1159 
L 3059 63 
L 2547 63 
L 2547 1159 
L 197 1159 
L 197 1672 
L 2456 4678 
L 3059 4678 
L 3059 1634 
L 3813 1634 
L 3813 1159 
z
M 2578 4109 
L 2559 4109 
Q 2278 3656 2003 3284 
L 759 1634 
L 2547 1634 
L 2547 3144 
Q 2547 3481 2578 4109 
z
" transform="scale(0.015625)"/>
     </defs>
     <use xlink:href="#IPAexGothic-63"/>
     <use xlink:href="#IPAexGothic-6f" x="54.394531"/>
     <use xlink:href="#IPAexGothic-75" x="114.794922"/>
     <use xlink:href="#IPAexGothic-6e" x="175.195312"/>
     <use xlink:href="#IPAexGothic-74" x="235.595703"/>
     <use xlink:href="#IPAexGothic-65" x="270.214844"/>
     <use xlink:href="#IPAexGothic-72" x="327.099609"/>
     <use xlink:href="#IPAexGothic-20" x="364.111328"/>
     <use xlink:href="#IPAexGothic-3e" x="391.113281"/>
     <use xlink:href="#IPAexGothic-3d" x="458.935547"/>
     <use xlink:href="#IPAexGothic-20" x="526.757812"/>
     <use xlink:href="#IPAexGothic-34" x="553.759766"/>
     <use xlink:href="#IPAexGothic-20" x="616.748047"/>
     <use xlink:href="#IPAexGothic-ff1f" x="643.75"/>
    </g>
   </g>
   <g id="text_15">
    <!-- END -->
    <g transform="translate(128.370781 497.774141) scale(0.125 -0.125)">
     <use xlink:href="#IPAexGothic-45"/>
     <use xlink:href="#IPAexGothic-4e" x="59.521484"/>
     <use xlink:href="#IPAexGothic-44" x="135.498047"/>
    </g>
   </g>
  </g>
 </g>
 <defs>
  <clipPath id="p17892ba92d">
   <rect x="3.6" y="3.6" width="342.54" height="532.902857"/>
  </clipPath>
 </defs>
</svg>