<?xml version="1.0" encoding="utf-8" standalone="no"?>
<!DOCTYPE svg PUBLIC "-//W3C//DTD SVG 1.1//EN"
  "http://www.w3.org/Graphics/SVG/1.1/DTD/svg11.dtd">
<svg xmlns:xlink="http://www.w3.org/1999/xlink" width="333.9pt" height="363.6pt" viewBox="0 0 333.9 363.6" xmlns="http://www.w3.org/2000/svg" version="1.1">
 <metadata>
  <rdf:RDF xmlns:dc="http://purl.org/dc/elements/1.1/" xmlns:cc="http://creativecommons.org/ns#" xmlns:rdf="http://www.w3.org/1999/02/22-rdf-syntax-ns#">
   <cc:Work>
    <dc:type rdf:resource="http://purl.org/dc/dcmitype/StillImage"/>
    <dc:date>2024-03-09T08:19:50.001158</dc:date>
    <dc:format>image/svg+xml</dc:format>
    <dc:creator>
     <cc:Agent>
      <dc:title>Matplotlib v3.8.3, https://matplotlib.org/</dc:title>
     </cc:Agent>
    </dc:creator>
   </cc:Work>
  </rdf:RDF>
 </metadata>
 <defs>
  <style type="text/css">*{stroke-linejoin: round; stroke-linecap: butt}</style>
 </defs>
 <g id="figure_1">
  <g id="patch_1">
   <path d="M 0 363.6 
L 333.9 363.6 
L 333.9 -0 
L 0 -0 
z
" style="fill: #ffffff"/>
  </g>
  <g id="axes_1">
   <g id="patch_2">
    <path d="M 144.45 55.8 
L 144.735587 55.797734 
L 145.021103 55.790938 
L 145.306474 55.779612 
L 145.591631 55.76376 
L 145.876499 55.743386 
L 146.161009 55.718495 
L 146.445088 55.689092 
L 146.728664 55.655187 
L 147.011667 55.616786 
L 147.294025 55.5739 
L 147.575667 55.52654 
L 147.856522 55.474717 
L 148.13652 55.418444 
L 148.41559 55.357736 
L 148.693661 55.292608 
L 148.970664 55.223077 
L 149.246529 55.149159 
L 149.521186 55.070874 
L 149.794567 54.98824 
L 150.066602 54.90128 
L 150.337223 54.810015 
L 150.606363 54.714467 
L 150.873952 54.614661 
L 151.139924 54.510623 
L 151.404212 54.402377 
L 151.66675 54.289952 
L 151.92747 54.173376 
L 152.186308 54.052678 
L 152.443199 53.927888 
L 152.698077 53.799038 
L 152.950879 53.666161 
L 153.201541 53.529289 
L 153.45 53.388457 
L 153.696193 53.243701 
L 153.940058 53.095058 
L 154.181535 52.942564 
L 154.420561 52.786257 
L 154.657078 52.626178 
L 154.891024 52.462367 
L 155.122343 52.294865 
L 155.350974 52.123713 
L 155.576862 51.948956 
L 155.799948 51.770636 
L 156.020177 51.5888 
L 156.237493 51.403492 
L 156.451842 51.21476 
L 156.663169 51.022651 
L 156.871422 50.827213 
L 157.076548 50.628495 
L 157.278495 50.426548 
L 157.477213 50.221422 
L 157.672651 50.013169 
L 157.86476 49.801842 
L 158.053492 49.587493 
L 158.2388 49.370177 
L 158.420636 49.149948 
L 158.598956 48.926862 
L 158.773713 48.700974 
L 158.944865 48.472343 
L 159.112367 48.241024 
L 159.276178 48.007078 
L 159.436257 47.770561 
L 159.592564 47.531535 
L 159.745058 47.290058 
L 159.893701 47.046193 
L 160.038457 46.8 
L 160.179289 46.551541 
L 160.316161 46.300879 
L 160.449038 46.048077 
L 160.577888 45.793199 
L 160.702678 45.536308 
L 160.823376 45.27747 
L 160.939952 45.01675 
L 161.052377 44.754212 
L 161.160623 44.489924 
L 161.264661 44.223952 
L 161.364467 43.956363 
L 161.460015 43.687223 
L 161.55128 43.416602 
L 161.63824 43.144567 
L 161.720874 42.871186 
L 161.799159 42.596529 
L 161.873077 42.320664 
L 161.942608 42.043661 
L 162.007736 41.76559 
L 162.068444 41.48652 
L 162.124717 41.206522 
L 162.17654 40.925667 
L 162.2239 40.644025 
L 162.266786 40.361667 
L 162.305187 40.078664 
L 162.339092 39.795088 
L 162.368495 39.511009 
L 162.393386 39.226499 
L 162.41376 38.941631 
L 162.429612 38.656474 
L 162.440938 38.371103 
L 162.447734 38.085587 
L 162.45 37.8 
L 162.45 37.8 
L 162.447734 37.514413 
L 162.440938 37.228897 
L 162.429612 36.943526 
L 162.41376 36.658369 
L 162.393386 36.373501 
L 162.368495 36.088991 
L 162.339092 35.804912 
L 162.305187 35.521336 
L 162.266786 35.238333 
L 162.2239 34.955975 
L 162.17654 34.674333 
L 162.124717 34.393478 
L 162.068444 34.11348 
L 162.007736 33.83441 
L 161.942608 33.556339 
L 161.873077 33.279336 
L 161.799159 33.003471 
L 161.720874 32.728814 
L 161.63824 32.455433 
L 161.55128 32.183398 
L 161.460015 31.912777 
L 161.364467 31.643637 
L 161.264661 31.376048 
L 161.160623 31.110076 
L 161.052377 30.845788 
L 160.939952 30.58325 
L 160.823376 30.32253 
L 160.702678 30.063692 
L 160.577888 29.806801 
L 160.449038 29.551923 
L 160.316161 29.299121 
L 160.179289 29.048459 
L 160.038457 28.8 
L 159.893701 28.553807 
L 159.745058 28.309942 
L 159.592564 28.068465 
L 159.436257 27.829439 
L 159.276178 27.592922 
L 159.112367 27.358976 
L 158.944865 27.127657 
L 158.773713 26.899026 
L 158.598956 26.673138 
L 158.420636 26.450052 
L 158.2388 26.229823 
L 158.053492 26.012507 
L 157.86476 25.798158 
L 157.672651 25.586831 
L 157.477213 25.378578 
L 157.278495 25.173452 
L 157.076548 24.971505 
L 156.871422 24.772787 
L 156.663169 24.577349 
L 156.451842 24.38524 
L 156.237493 24.196508 
L 156.020177 24.0112 
L 155.799948 23.829364 
L 155.576862 23.651044 
L 155.350974 23.476287 
L 155.122343 23.305135 
L 154.891024 23.137633 
L 154.657078 22.973822 
L 154.420561 22.813743 
L 154.181535 22.657436 
L 153.940058 22.504942 
L 153.696193 22.356299 
L 153.45 22.211543 
L 153.201541 22.070711 
L 152.950879 21.933839 
L 152.698077 21.800962 
L 152.443199 21.672112 
L 152.186308 21.547322 
L 151.92747 21.426624 
L 151.66675 21.310048 
L 151.404212 21.197623 
L 151.139924 21.089377 
L 150.873952 20.985339 
L 150.606363 20.885533 
L 150.337223 20.789985 
L 150.066602 20.69872 
L 149.794567 20.61176 
L 149.521186 20.529126 
L 149.246529 20.450841 
L 148.970664 20.376923 
L 148.693661 20.307392 
L 148.41559 20.242264 
L 148.13652 20.181556 
L 147.856522 20.125283 
L 147.575667 20.07346 
L 147.294025 20.0261 
L 147.011667 19.983214 
L 146.728664 19.944813 
L 146.445088 19.910908 
L 146.161009 19.881505 
L 145.876499 19.856614 
L 145.591631 19.83624 
L 145.306474 19.820388 
L 145.021103 19.809062 
L 144.735587 19.802266 
L 144.45 19.8 
L 108.45 19.8 
L 108.164413 19.802266 
L 107.878897 19.809062 
L 107.593526 19.820388 
L 107.308369 19.83624 
L 107.023501 19.856614 
L 106.738991 19.881505 
L 106.454912 19.910908 
L 106.171336 19.944813 
L 105.888333 19.983214 
L 105.605975 20.0261 
L 105.324333 20.07346 
L 105.043478 20.125283 
L 104.76348 20.181556 
L 104.48441 20.242264 
L 104.206339 20.307392 
L 103.929336 20.376923 
L 103.653471 20.450841 
L 103.378814 20.529126 
L 103.105433 20.61176 
L 102.833398 20.69872 
L 102.562777 20.789985 
L 102.293637 20.885533 
L 102.026048 20.985339 
L 101.760076 21.089377 
L 101.495788 21.197623 
L 101.23325 21.310048 
L 100.97253 21.426624 
L 100.713692 21.547322 
L 100.456801 21.672112 
L 100.201923 21.800962 
L 99.949121 21.933839 
L 99.698459 22.070711 
L 99.45 22.211543 
L 99.203807 22.356299 
L 98.959942 22.504942 
L 98.718465 22.657436 
L 98.479439 22.813743 
L 98.242922 22.973822 
L 98.008976 23.137633 
L 97.777657 23.305135 
L 97.549026 23.476287 
L 97.323138 23.651044 
L 97.100052 23.829364 
L 96.879823 24.0112 
L 96.662507 24.196508 
L 96.448158 24.38524 
L 96.236831 24.577349 
L 96.028578 24.772787 
L 95.823452 24.971505 
L 95.621505 25.173452 
L 95.422787 25.378578 
L 95.227349 25.586831 
L 95.03524 25.798158 
L 94.846508 26.012507 
L 94.6612 26.229823 
L 94.479364 26.450052 
L 94.301044 26.673138 
L 94.126287 26.899026 
L 93.955135 27.127657 
L 93.787633 27.358976 
L 93.623822 27.592922 
L 93.463743 27.829439 
L 93.307436 28.068465 
L 93.154942 28.309942 
L 93.006299 28.553807 
L 92.861543 28.8 
L 92.720711 29.048459 
L 92.583839 29.299121 
L 92.450962 29.551923 
L 92.322112 29.806801 
L 92.197322 30.063692 
L 92.076624 30.32253 
L 91.960048 30.58325 
L 91.847623 30.845788 
L 91.739377 31.110076 
L 91.635339 31.376048 
L 91.535533 31.643637 
L 91.439985 31.912777 
L 91.34872 32.183398 
L 91.26176 32.455433 
L 91.179126 32.728814 
L 91.100841 33.003471 
L 91.026923 33.279336 
L 90.957392 33.556339 
L 90.892264 33.83441 
L 90.831556 34.11348 
L 90.775283 34.393478 
L 90.72346 34.674333 
L 90.6761 34.955975 
L 90.633214 35.238333 
L 90.594813 35.521336 
L 90.560908 35.804912 
L 90.531505 36.088991 
L 90.506614 36.373501 
L 90.48624 36.658369 
L 90.470388 36.943526 
L 90.459062 37.228897 
L 90.452266 37.514413 
L 90.45 37.8 
L 90.45 37.8 
L 90.452266 38.085587 
L 90.459062 38.371103 
L 90.470388 38.656474 
L 90.48624 38.941631 
L 90.506614 39.226499 
L 90.531505 39.511009 
L 90.560908 39.795088 
L 90.594813 40.078664 
L 90.633214 40.361667 
L 90.6761 40.644025 
L 90.72346 40.925667 
L 90.775283 41.206522 
L 90.831556 41.48652 
L 90.892264 41.76559 
L 90.957392 42.043661 
L 91.026923 42.320664 
L 91.100841 42.596529 
L 91.179126 42.871186 
L 91.26176 43.144567 
L 91.34872 43.416602 
L 91.439985 43.687223 
L 91.535533 43.956363 
L 91.635339 44.223952 
L 91.739377 44.489924 
L 91.847623 44.754212 
L 91.960048 45.01675 
L 92.076624 45.27747 
L 92.197322 45.536308 
L 92.322112 45.793199 
L 92.450962 46.048077 
L 92.583839 46.300879 
L 92.720711 46.551541 
L 92.861543 46.8 
L 93.006299 47.046193 
L 93.154942 47.290058 
L 93.307436 47.531535 
L 93.463743 47.770561 
L 93.623822 48.007078 
L 93.787633 48.241024 
L 93.955135 48.472343 
L 94.126287 48.700974 
L 94.301044 48.926862 
L 94.479364 49.149948 
L 94.6612 49.370177 
L 94.846508 49.587493 
L 95.03524 49.801842 
L 95.227349 50.013169 
L 95.422787 50.221422 
L 95.621505 50.426548 
L 95.823452 50.628495 
L 96.028578 50.827213 
L 96.236831 51.022651 
L 96.448158 51.21476 
L 96.662507 51.403492 
L 96.879823 51.5888 
L 97.100052 51.770636 
L 97.323138 51.948956 
L 97.549026 52.123713 
L 97.777657 52.294865 
L 98.008976 52.462367 
L 98.242922 52.626178 
L 98.479439 52.786257 
L 98.718465 52.942564 
L 98.959942 53.095058 
L 99.203807 53.243701 
L 99.45 53.388457 
L 99.698459 53.529289 
L 99.949121 53.666161 
L 100.201923 53.799038 
L 100.456801 53.927888 
L 100.713692 54.052678 
L 100.97253 54.173376 
L 101.23325 54.289952 
L 101.495788 54.402377 
L 101.760076 54.510623 
L 102.026048 54.614661 
L 102.293637 54.714467 
L 102.562777 54.810015 
L 102.833398 54.90128 
L 103.105433 54.98824 
L 103.378814 55.070874 
L 103.653471 55.149159 
L 103.929336 55.223077 
L 104.206339 55.292608 
L 104.48441 55.357736 
L 104.76348 55.418444 
L 105.043478 55.474717 
L 105.324333 55.52654 
L 105.605975 55.5739 
L 105.888333 55.616786 
L 106.171336 55.655187 
L 106.454912 55.689092 
L 106.738991 55.718495 
L 107.023501 55.743386 
L 107.308369 55.76376 
L 107.593526 55.779612 
L 107.878897 55.790938 
L 108.164413 55.797734 
L 108.45 55.8 
L 144.45 55.8 
z
" clip-path="url(#p937a2a55b4)" style="fill: none; stroke: #000000; stroke-linecap: round"/>
   </g>
   <g id="patch_3">
    <path d="M 63.45 172.8 
L 126.45 145.8 
L 189.45 172.8 
L 126.45 199.8 
L 63.45 172.8 
z
" clip-path="url(#p937a2a55b4)" style="fill: none; stroke: #000000; stroke-linecap: round"/>
   </g>
   <g id="patch_4">
    <path d="M 297.45 190.8 
L 297.735587 190.797734 
L 298.021103 190.790938 
L 298.306474 190.779612 
L 298.591631 190.76376 
L 298.876499 190.743386 
L 299.161009 190.718495 
L 299.445088 190.689092 
L 299.728664 190.655187 
L 300.011667 190.616786 
L 300.294025 190.5739 
L 300.575667 190.52654 
L 300.856522 190.474717 
L 301.13652 190.418444 
L 301.41559 190.357736 
L 301.693661 190.292608 
L 301.970664 190.223077 
L 302.246529 190.149159 
L 302.521186 190.070874 
L 302.794567 189.98824 
L 303.066602 189.90128 
L 303.337223 189.810015 
L 303.606363 189.714467 
L 303.873952 189.614661 
L 304.139924 189.510623 
L 304.404212 189.402377 
L 304.66675 189.289952 
L 304.92747 189.173376 
L 305.186308 189.052678 
L 305.443199 188.927888 
L 305.698077 188.799038 
L 305.950879 188.666161 
L 306.201541 188.529289 
L 306.45 188.388457 
L 306.696193 188.243701 
L 306.940058 188.095058 
L 307.181535 187.942564 
L 307.420561 187.786257 
L 307.657078 187.626178 
L 307.891024 187.462367 
L 308.122343 187.294865 
L 308.350974 187.123713 
L 308.576862 186.948956 
L 308.799948 186.770636 
L 309.020177 186.5888 
L 309.237493 186.403492 
L 309.451842 186.21476 
L 309.663169 186.022651 
L 309.871422 185.827213 
L 310.076548 185.628495 
L 310.278495 185.426548 
L 310.477213 185.221422 
L 310.672651 185.013169 
L 310.86476 184.801842 
L 311.053492 184.587493 
L 311.2388 184.370177 
L 311.420636 184.149948 
L 311.598956 183.926862 
L 311.773713 183.700974 
L 311.944865 183.472343 
L 312.112367 183.241024 
L 312.276178 183.007078 
L 312.436257 182.770561 
L 312.592564 182.531535 
L 312.745058 182.290058 
L 312.893701 182.046193 
L 313.038457 181.8 
L 313.179289 181.551541 
L 313.316161 181.300879 
L 313.449038 181.048077 
L 313.577888 180.793199 
L 313.702678 180.536308 
L 313.823376 180.27747 
L 313.939952 180.01675 
L 314.052377 179.754212 
L 314.160623 179.489924 
L 314.264661 179.223952 
L 314.364467 178.956363 
L 314.460015 178.687223 
L 314.55128 178.416602 
L 314.63824 178.144567 
L 314.720874 177.871186 
L 314.799159 177.596529 
L 314.873077 177.320664 
L 314.942608 177.043661 
L 315.007736 176.76559 
L 315.068444 176.48652 
L 315.124717 176.206522 
L 315.17654 175.925667 
L 315.2239 175.644025 
L 315.266786 175.361667 
L 315.305187 175.078664 
L 315.339092 174.795088 
L 315.368495 174.511009 
L 315.393386 174.226499 
L 315.41376 173.941631 
L 315.429612 173.656474 
L 315.440938 173.371103 
L 315.447734 173.085587 
L 315.45 172.8 
L 315.45 172.8 
L 315.447734 172.514413 
L 315.440938 172.228897 
L 315.429612 171.943526 
L 315.41376 171.658369 
L 315.393386 171.373501 
L 315.368495 171.088991 
L 315.339092 170.804912 
L 315.305187 170.521336 
L 315.266786 170.238333 
L 315.2239 169.955975 
L 315.17654 169.674333 
L 315.124717 169.393478 
L 315.068444 169.11348 
L 315.007736 168.83441 
L 314.942608 168.556339 
L 314.873077 168.279336 
L 314.799159 168.003471 
L 314.720874 167.728814 
L 314.63824 167.455433 
L 314.55128 167.183398 
L 314.460015 166.912777 
L 314.364467 166.643637 
L 314.264661 166.376048 
L 314.160623 166.110076 
L 314.052377 165.845788 
L 313.939952 165.58325 
L 313.823376 165.32253 
L 313.702678 165.063692 
L 313.577888 164.806801 
L 313.449038 164.551923 
L 313.316161 164.299121 
L 313.179289 164.048459 
L 313.038457 163.8 
L 312.893701 163.553807 
L 312.745058 163.309942 
L 312.592564 163.068465 
L 312.436257 162.829439 
L 312.276178 162.592922 
L 312.112367 162.358976 
L 311.944865 162.127657 
L 311.773713 161.899026 
L 311.598956 161.673138 
L 311.420636 161.450052 
L 311.2388 161.229823 
L 311.053492 161.012507 
L 310.86476 160.798158 
L 310.672651 160.586831 
L 310.477213 160.378578 
L 310.278495 160.173452 
L 310.076548 159.971505 
L 309.871422 159.772787 
L 309.663169 159.577349 
L 309.451842 159.38524 
L 309.237493 159.196508 
L 309.020177 159.0112 
L 308.799948 158.829364 
L 308.576862 158.651044 
L 308.350974 158.476287 
L 308.122343 158.305135 
L 307.891024 158.137633 
L 307.657078 157.973822 
L 307.420561 157.813743 
L 307.181535 157.657436 
L 306.940058 157.504942 
L 306.696193 157.356299 
L 306.45 157.211543 
L 306.201541 157.070711 
L 305.950879 156.933839 
L 305.698077 156.800962 
L 305.443199 156.672112 
L 305.186308 156.547322 
L 304.92747 156.426624 
L 304.66675 156.310048 
L 304.404212 156.197623 
L 304.139924 156.089377 
L 303.873952 155.985339 
L 303.606363 155.885533 
L 303.337223 155.789985 
L 303.066602 155.69872 
L 302.794567 155.61176 
L 302.521186 155.529126 
L 302.246529 155.450841 
L 301.970664 155.376923 
L 301.693661 155.307392 
L 301.41559 155.242264 
L 301.13652 155.181556 
L 300.856522 155.125283 
L 300.575667 155.07346 
L 300.294025 155.0261 
L 300.011667 154.983214 
L 299.728664 154.944813 
L 299.445088 154.910908 
L 299.161009 154.881505 
L 298.876499 154.856614 
L 298.591631 154.83624 
L 298.306474 154.820388 
L 298.021103 154.809062 
L 297.735587 154.802266 
L 297.45 154.8 
L 261.45 154.8 
L 261.164413 154.802266 
L 260.878897 154.809062 
L 260.593526 154.820388 
L 260.308369 154.83624 
L 260.023501 154.856614 
L 259.738991 154.881505 
L 259.454912 154.910908 
L 259.171336 154.944813 
L 258.888333 154.983214 
L 258.605975 155.0261 
L 258.324333 155.07346 
L 258.043478 155.125283 
L 257.76348 155.181556 
L 257.48441 155.242264 
L 257.206339 155.307392 
L 256.929336 155.376923 
L 256.653471 155.450841 
L 256.378814 155.529126 
L 256.105433 155.61176 
L 255.833398 155.69872 
L 255.562777 155.789985 
L 255.293637 155.885533 
L 255.026048 155.985339 
L 254.760076 156.089377 
L 254.495788 156.197623 
L 254.23325 156.310048 
L 253.97253 156.426624 
L 253.713692 156.547322 
L 253.456801 156.672112 
L 253.201923 156.800962 
L 252.949121 156.933839 
L 252.698459 157.070711 
L 252.45 157.211543 
L 252.203807 157.356299 
L 251.959942 157.504942 
L 251.718465 157.657436 
L 251.479439 157.813743 
L 251.242922 157.973822 
L 251.008976 158.137633 
L 250.777657 158.305135 
L 250.549026 158.476287 
L 250.323138 158.651044 
L 250.100052 158.829364 
L 249.879823 159.0112 
L 249.662507 159.196508 
L 249.448158 159.38524 
L 249.236831 159.577349 
L 249.028578 159.772787 
L 248.823452 159.971505 
L 248.621505 160.173452 
L 248.422787 160.378578 
L 248.227349 160.586831 
L 248.03524 160.798158 
L 247.846508 161.012507 
L 247.6612 161.229823 
L 247.479364 161.450052 
L 247.301044 161.673138 
L 247.126287 161.899026 
L 246.955135 162.127657 
L 246.787633 162.358976 
L 246.623822 162.592922 
L 246.463743 162.829439 
L 246.307436 163.068465 
L 246.154942 163.309942 
L 246.006299 163.553807 
L 245.861543 163.8 
L 245.720711 164.048459 
L 245.583839 164.299121 
L 245.450962 164.551923 
L 245.322112 164.806801 
L 245.197322 165.063692 
L 245.076624 165.32253 
L 244.960048 165.58325 
L 244.847623 165.845788 
L 244.739377 166.110076 
L 244.635339 166.376048 
L 244.535533 166.643637 
L 244.439985 166.912777 
L 244.34872 167.183398 
L 244.26176 167.455433 
L 244.179126 167.728814 
L 244.100841 168.003471 
L 244.026923 168.279336 
L 243.957392 168.556339 
L 243.892264 168.83441 
L 243.831556 169.11348 
L 243.775283 169.393478 
L 243.72346 169.674333 
L 243.6761 169.955975 
L 243.633214 170.238333 
L 243.594813 170.521336 
L 243.560908 170.804912 
L 243.531505 171.088991 
L 243.506614 171.373501 
L 243.48624 171.658369 
L 243.470388 171.943526 
L 243.459062 172.228897 
L 243.452266 172.514413 
L 243.45 172.8 
L 243.45 172.8 
L 243.452266 173.085587 
L 243.459062 173.371103 
L 243.470388 173.656474 
L 243.48624 173.941631 
L 243.506614 174.226499 
L 243.531505 174.511009 
L 243.560908 174.795088 
L 243.594813 175.078664 
L 243.633214 175.361667 
L 243.6761 175.644025 
L 243.72346 175.925667 
L 243.775283 176.206522 
L 243.831556 176.48652 
L 243.892264 176.76559 
L 243.957392 177.043661 
L 244.026923 177.320664 
L 244.100841 177.596529 
L 244.179126 177.871186 
L 244.26176 178.144567 
L 244.34872 178.416602 
L 244.439985 178.687223 
L 244.535533 178.956363 
L 244.635339 179.223952 
L 244.739377 179.489924 
L 244.847623 179.754212 
L 244.960048 180.01675 
L 245.076624 180.27747 
L 245.197322 180.536308 
L 245.322112 180.793199 
L 245.450962 181.048077 
L 245.583839 181.300879 
L 245.720711 181.551541 
L 245.861543 181.8 
L 246.006299 182.046193 
L 246.154942 182.290058 
L 246.307436 182.531535 
L 246.463743 182.770561 
L 246.623822 183.007078 
L 246.787633 183.241024 
L 246.955135 183.472343 
L 247.126287 183.700974 
L 247.301044 183.926862 
L 247.479364 184.149948 
L 247.6612 184.370177 
L 247.846508 184.587493 
L 248.03524 184.801842 
L 248.227349 185.013169 
L 248.422787 185.221422 
L 248.621505 185.426548 
L 248.823452 185.628495 
L 249.028578 185.827213 
L 249.236831 186.022651 
L 249.448158 186.21476 
L 249.662507 186.403492 
L 249.879823 186.5888 
L 250.100052 186.770636 
L 250.323138 186.948956 
L 250.549026 187.123713 
L 250.777657 187.294865 
L 251.008976 187.462367 
L 251.242922 187.626178 
L 251.479439 187.786257 
L 251.718465 187.942564 
L 251.959942 188.095058 
L 252.203807 188.243701 
L 252.45 188.388457 
L 252.698459 188.529289 
L 252.949121 188.666161 
L 253.201923 188.799038 
L 253.456801 188.927888 
L 253.713692 189.052678 
L 253.97253 189.173376 
L 254.23325 189.289952 
L 254.495788 189.402377 
L 254.760076 189.510623 
L 255.026048 189.614661 
L 255.293637 189.714467 
L 255.562777 189.810015 
L 255.833398 189.90128 
L 256.105433 189.98824 
L 256.378814 190.070874 
L 256.653471 190.149159 
L 256.929336 190.223077 
L 257.206339 190.292608 
L 257.48441 190.357736 
L 257.76348 190.418444 
L 258.043478 190.474717 
L 258.324333 190.52654 
L 258.605975 190.5739 
L 258.888333 190.616786 
L 259.171336 190.655187 
L 259.454912 190.689092 
L 259.738991 190.718495 
L 260.023501 190.743386 
L 260.308369 190.76376 
L 260.593526 190.779612 
L 260.878897 190.790938 
L 261.164413 190.797734 
L 261.45 190.8 
L 297.45 190.8 
z
" clip-path="url(#p937a2a55b4)" style="fill: none; stroke: #000000; stroke-linecap: round"/>
   </g>
   <g id="line2d_1">
    <path d="M 126.45 55.8 
L 126.45 69.3 
L 126.45 73.8 
" clip-path="url(#p937a2a55b4)" style="fill: none; stroke: #000000; stroke-linecap: round"/>
   </g>
   <g id="patch_5">
    <path d="M 129.15 73.8 
L 126.45 82.8 
L 123.75 73.8 
z
" clip-path="url(#p937a2a55b4)"/>
   </g>
   <g id="line2d_2">
    <path d="M 86.85 100.8 
L 86.85 82.8 
L 166.05 82.8 
L 166.05 118.8 
L 86.85 118.8 
L 86.85 100.8 
" clip-path="url(#p937a2a55b4)" style="fill: none; stroke: #000000; stroke-linecap: round"/>
   </g>
   <g id="line2d_3">
    <path d="M 126.45 118.8 
L 126.45 132.3 
L 126.45 136.8 
" clip-path="url(#p937a2a55b4)" style="fill: none; stroke: #000000; stroke-linecap: round"/>
   </g>
   <g id="patch_6">
    <path d="M 129.15 136.8 
L 126.45 145.8 
L 123.75 136.8 
z
" clip-path="url(#p937a2a55b4)"/>
   </g>
   <g id="line2d_4">
    <path d="M 189.45 172.8 
L 216.45 172.8 
L 234.45 172.8 
" clip-path="url(#p937a2a55b4)" style="fill: none; stroke: #000000; stroke-linecap: round"/>
   </g>
   <g id="patch_7">
    <path d="M 234.45 170.1 
L 243.45 172.8 
L 234.45 175.5 
z
" clip-path="url(#p937a2a55b4)"/>
   </g>
   <g id="line2d_5">
    <path d="M 126.45 199.8 
L 126.45 217.8 
L 126.45 226.8 
" clip-path="url(#p937a2a55b4)" style="fill: none; stroke: #000000; stroke-linecap: round"/>
   </g>
   <g id="patch_8">
    <path d="M 129.15 226.8 
L 126.45 235.8 
L 123.75 226.8 
z
" clip-path="url(#p937a2a55b4)"/>
   </g>
   <g id="line2d_6">
    <path d="M 67.05 253.8 
L 67.05 235.8 
L 185.85 235.8 
L 185.85 271.8 
L 67.05 271.8 
L 67.05 253.8 
" clip-path="url(#p937a2a55b4)" style="fill: none; stroke: #000000; stroke-linecap: round"/>
   </g>
   <g id="line2d_7">
    <path d="M 126.45 271.8 
L 126.45 289.8 
L 126.45 298.8 
" clip-path="url(#p937a2a55b4)" style="fill: none; stroke: #000000; stroke-linecap: round"/>
   </g>
   <g id="patch_9">
    <path d="M 129.15 298.8 
L 126.45 307.8 
L 123.75 298.8 
z
" clip-path="url(#p937a2a55b4)"/>
   </g>
   <g id="line2d_8">
    <path d="M 72.45 325.8 
L 72.45 307.8 
L 180.45 307.8 
L 180.45 343.8 
L 72.45 343.8 
L 72.45 325.8 
" clip-path="url(#p937a2a55b4)" style="fill: none; stroke: #000000; stroke-linecap: round"/>
   </g>
   <g id="line2d_9">
    <path d="M 72.45 325.8 
L 18.45 325.8 
L 18.45 172.8 
L 54.45 172.8 
" clip-path="url(#p937a2a55b4)" style="fill: none; stroke: #000000; stroke-linecap: round"/>
   </g>
   <g id="patch_10">
    <path d="M 54.45 170.1 
L 63.45 172.8 
L 54.45 175.5 
z
" clip-path="url(#p937a2a55b4)"/>
   </g>
   <g id="text_1">
    <!-- START -->
    <g transform="translate(107.273242 41.294141) scale(0.125 -0.125)">
     <defs>
      <path id="IPAexGothic-53" d="M 2919 3641 
Q 2563 4259 1853 4259 
Q 1453 4259 1213 4009 
Q 1028 3803 1028 3534 
Q 1028 3238 1266 3047 
Q 1444 2913 1984 2688 
L 2200 2597 
Q 2925 2306 3191 1953 
Q 3422 1644 3422 1259 
Q 3422 644 2969 288 
Q 2559 -31 1931 -31 
Q 881 -31 313 766 
L 753 1100 
Q 1203 459 1938 459 
Q 2288 459 2534 625 
Q 2841 847 2841 1216 
Q 2841 1503 2616 1728 
Q 2375 1959 1728 2206 
L 1541 2278 
Q 453 2694 453 3481 
Q 453 4006 806 4347 
Q 1203 4725 1863 4725 
Q 2841 4725 3359 3956 
L 2919 3641 
z
" transform="scale(0.015625)"/>
      <path id="IPAexGothic-54" d="M 3866 4141 
L 2175 4141 
L 2175 63 
L 1606 63 
L 1606 4141 
L -31 4141 
L -31 4634 
L 3866 4634 
L 3866 4141 
z
" transform="scale(0.015625)"/>
      <path id="IPAexGothic-41" d="M 4056 63 
L 3444 63 
L 2938 1409 
L 1100 1409 
L 603 63 
L -6 63 
L 1806 4666 
L 2259 4666 
L 4056 63 
z
M 2778 1863 
L 2316 3078 
Q 2125 3588 2028 4000 
L 2009 4000 
Q 1897 3563 1716 3078 
L 1263 1863 
L 2778 1863 
z
" transform="scale(0.015625)"/>
      <path id="IPAexGothic-52" d="M 4072 63 
L 3394 63 
Q 3138 641 2828 1197 
Q 2584 1641 2344 1825 
Q 2050 2044 1625 2044 
L 1172 2044 
L 1172 63 
L 609 63 
L 609 4634 
L 2009 4634 
Q 2713 4634 3131 4378 
Q 3688 4044 3688 3381 
Q 3688 2784 3181 2459 
Q 2906 2272 2522 2216 
L 2522 2197 
Q 2941 2050 3247 1581 
Q 3516 1166 4072 63 
z
M 1172 2478 
L 1869 2478 
Q 3106 2478 3106 3369 
Q 3106 4181 1928 4181 
L 1172 4181 
L 1172 2478 
z
" transform="scale(0.015625)"/>
     </defs>
     <use xlink:href="#IPAexGothic-53"/>
     <use xlink:href="#IPAexGothic-54" x="58.496094"/>
     <use xlink:href="#IPAexGothic-41" x="118.408203"/>
     <use xlink:href="#IPAexGothic-52" x="182.128906"/>
     <use xlink:href="#IPAexGothic-54" x="246.923828"/>
    </g>
   </g>
   <g id="text_2">
    <!-- counter = 0 -->
    <g transform="translate(92.14043 104.294141) scale(0.125 -0.125)">
     <defs>
      <path id="IPAexGothic-63" d="M 3269 784 
Q 2834 -31 1900 -31 
Q 1228 -31 788 409 
Q 313 891 313 1663 
Q 313 2428 788 2913 
Q 1222 3347 1881 3347 
Q 2813 3347 3206 2541 
L 2763 2309 
Q 2484 2900 1900 2900 
Q 1516 2900 1234 2619 
Q 881 2266 881 1650 
Q 881 1069 1222 728 
Q 1522 428 1956 428 
Q 2547 428 2847 1016 
L 3269 784 
z
" transform="scale(0.015625)"/>
      <path id="IPAexGothic-6f" d="M 1919 3341 
Q 2594 3341 3056 2888 
Q 3531 2413 3531 1638 
Q 3531 888 3066 422 
Q 2609 -31 1919 -31 
Q 1228 -31 781 416 
Q 313 881 313 1656 
Q 313 2413 788 2888 
Q 1241 3341 1919 3341 
z
M 1919 2919 
Q 1519 2919 1241 2631 
Q 888 2278 888 1650 
Q 888 1031 1234 684 
Q 1516 403 1919 403 
Q 2331 403 2609 691 
Q 2956 1038 2956 1672 
Q 2956 2269 2603 2631 
Q 2316 2919 1919 2919 
z
" transform="scale(0.015625)"/>
      <path id="IPAexGothic-75" d="M 3284 63 
L 2772 63 
L 2772 644 
Q 2300 0 1625 0 
Q 1072 0 763 375 
Q 519 678 519 1241 
L 519 3250 
L 1069 3250 
L 1069 1259 
Q 1069 466 1734 466 
Q 2406 466 2734 1291 
L 2734 3250 
L 3284 3250 
L 3284 63 
z
" transform="scale(0.015625)"/>
      <path id="IPAexGothic-6e" d="M 3328 63 
L 2778 63 
L 2778 2041 
Q 2778 2853 2106 2853 
Q 1428 2853 1113 2041 
L 1113 63 
L 563 63 
L 563 3250 
L 1075 3250 
L 1075 2675 
Q 1525 3316 2222 3316 
Q 3328 3316 3328 2072 
L 3328 63 
z
" transform="scale(0.015625)"/>
      <path id="IPAexGothic-74" d="M 2125 241 
Q 1769 -6 1397 -6 
Q 653 -6 653 831 
L 653 2859 
L 219 2859 
L 219 3250 
L 653 3250 
L 653 3966 
L 1178 4228 
L 1178 3250 
L 2063 3250 
L 2063 2859 
L 1178 2859 
L 1178 906 
Q 1178 416 1513 416 
Q 1738 416 1941 588 
L 2125 241 
z
" transform="scale(0.015625)"/>
      <path id="IPAexGothic-65" d="M 863 1594 
Q 891 1041 1209 722 
Q 1534 397 1997 397 
Q 2606 397 2963 966 
L 3322 728 
Q 2869 -31 1931 -31 
Q 1222 -31 766 422 
Q 306 884 306 1641 
Q 306 2444 788 2925 
Q 1216 3353 1856 3353 
Q 2459 3353 2866 2956 
Q 3322 2494 3322 1722 
L 3322 1594 
L 863 1594 
z
M 2756 1997 
Q 2709 2431 2450 2681 
Q 2194 2938 1844 2938 
Q 1438 2938 1150 2591 
Q 953 2356 894 1997 
L 2756 1997 
z
" transform="scale(0.015625)"/>
      <path id="IPAexGothic-72" d="M 2309 3316 
L 2213 2769 
Q 2106 2791 2022 2791 
Q 1653 2791 1413 2444 
Q 1113 2006 1113 1675 
L 1113 63 
L 563 63 
L 563 3250 
L 1081 3250 
L 1056 2303 
L 1069 2303 
Q 1422 3341 2097 3341 
Q 2206 3341 2309 3316 
z
" transform="scale(0.015625)"/>
      <path id="IPAexGothic-20" transform="scale(0.015625)"/>
      <path id="IPAexGothic-3d" d="M 416 2803 
L 3922 2803 
L 3922 2438 
L 416 2438 
L 416 2803 
z
M 416 1625 
L 3922 1625 
L 3922 1259 
L 416 1259 
L 416 1625 
z
" transform="scale(0.015625)"/>
      <path id="IPAexGothic-30" d="M 2038 4725 
Q 2881 4725 3334 3944 
Q 3694 3325 3694 2344 
Q 3694 1372 3334 741 
Q 2888 -31 2016 -31 
Q 1147 -31 700 741 
Q 341 1372 341 2350 
Q 341 3713 1000 4334 
Q 1419 4725 2038 4725 
z
M 2016 4266 
Q 1516 4266 1228 3759 
Q 934 3247 934 2344 
Q 934 1456 1222 947 
Q 1513 447 2016 447 
Q 2619 447 2909 1153 
Q 3100 1622 3100 2375 
Q 3100 3256 2806 3759 
Q 2509 4266 2016 4266 
z
" transform="scale(0.015625)"/>
     </defs>
     <use xlink:href="#IPAexGothic-63"/>
     <use xlink:href="#IPAexGothic-6f" x="54.394531"/>
     <use xlink:href="#IPAexGothic-75" x="114.794922"/>
     <use xlink:href="#IPAexGothic-6e" x="175.195312"/>
     <use xlink:href="#IPAexGothic-74" x="235.595703"/>
     <use xlink:href="#IPAexGothic-65" x="270.214844"/>
     <use xlink:href="#IPAexGothic-72" x="327.099609"/>
     <use xlink:href="#IPAexGothic-20" x="364.111328"/>
     <use xlink:href="#IPAexGothic-3d" x="391.113281"/>
     <use xlink:href="#IPAexGothic-20" x="458.935547"/>
     <use xlink:href="#IPAexGothic-30" x="485.9375"/>
    </g>
   </g>
   <g id="text_3">
    <!-- True -->
    <g transform="translate(131.13 213.843281) scale(0.125 -0.125)">
     <use xlink:href="#IPAexGothic-54"/>
     <use xlink:href="#IPAexGothic-72" x="59.912109"/>
     <use xlink:href="#IPAexGothic-75" x="96.923828"/>
     <use xlink:href="#IPAexGothic-65" x="157.324219"/>
    </g>
   </g>
   <g id="text_4">
    <!-- False -->
    <g transform="translate(194.13 165.745) scale(0.125 -0.125)">
     <defs>
      <path id="IPAexGothic-46" d="M 3469 4141 
L 1172 4141 
L 1172 2656 
L 3206 2656 
L 3206 2188 
L 1172 2188 
L 1172 63 
L 609 63 
L 609 4634 
L 3469 4634 
L 3469 4141 
z
" transform="scale(0.015625)"/>
      <path id="IPAexGothic-61" d="M 3156 63 
L 2672 63 
Q 2559 303 2531 556 
L 2509 556 
Q 2147 -25 1428 -25 
Q 934 -25 622 288 
Q 347 563 347 959 
Q 347 1947 2050 1997 
L 2478 2009 
L 2478 2175 
Q 2478 2509 2288 2700 
Q 2088 2900 1775 2900 
Q 1238 2900 969 2378 
L 494 2597 
Q 938 3328 1788 3328 
Q 2375 3328 2691 3000 
Q 2984 2706 2984 2169 
L 2984 997 
Q 2984 400 3156 63 
z
M 2491 1625 
L 2141 1619 
Q 903 1591 903 953 
Q 903 728 1050 581 
Q 1231 403 1525 403 
Q 1934 403 2234 703 
Q 2491 969 2491 1344 
L 2491 1625 
z
" transform="scale(0.015625)"/>
      <path id="IPAexGothic-6c" d="M 1131 63 
L 581 63 
L 581 4794 
L 1131 4794 
L 1131 63 
z
" transform="scale(0.015625)"/>
      <path id="IPAexGothic-73" d="M 2234 2547 
Q 1938 2931 1484 2931 
Q 891 2931 891 2475 
Q 891 2153 1531 1944 
L 1741 1875 
Q 2650 1578 2650 894 
Q 2650 434 2272 172 
Q 1972 -31 1497 -31 
Q 766 -31 256 503 
L 603 819 
Q 997 397 1516 397 
Q 2131 397 2131 875 
Q 2131 1238 1453 1478 
L 1234 1553 
Q 378 1853 378 2431 
Q 378 2797 628 3047 
Q 928 3347 1453 3347 
Q 2156 3347 2606 2859 
L 2234 2547 
z
" transform="scale(0.015625)"/>
     </defs>
     <use xlink:href="#IPAexGothic-46"/>
     <use xlink:href="#IPAexGothic-61" x="57.177734"/>
     <use xlink:href="#IPAexGothic-6c" x="112.158203"/>
     <use xlink:href="#IPAexGothic-73" x="139.160156"/>
     <use xlink:href="#IPAexGothic-65" x="185.351562"/>
    </g>
   </g>
   <g id="text_5">
    <!-- counter &lt; 3 ？ -->
    <g transform="translate(84.20293 176.294141) scale(0.125 -0.125)">
     <defs>
      <path id="IPAexGothic-3c" d="M 897 2028 
L 3928 609 
L 3769 263 
L 409 1881 
L 409 2175 
L 3769 3794 
L 3928 3450 
L 897 2028 
z
" transform="scale(0.015625)"/>
      <path id="IPAexGothic-33" d="M 2381 2419 
Q 3506 2216 3506 1278 
Q 3506 716 3128 356 
Q 2709 -31 1944 -31 
Q 797 -31 288 881 
L 756 1131 
Q 1109 441 1938 441 
Q 2425 441 2694 691 
Q 2950 928 2950 1291 
Q 2950 1719 2566 1978 
Q 2216 2213 1644 2213 
L 1363 2213 
L 1363 2669 
L 1656 2669 
Q 2231 2669 2534 2888 
Q 2859 3119 2859 3509 
Q 2859 3934 2494 4138 
Q 2259 4278 1931 4278 
Q 1238 4278 903 3578 
L 434 3803 
Q 897 4725 1938 4725 
Q 2597 4725 3006 4394 
Q 3416 4069 3416 3534 
Q 3416 3028 3019 2706 
Q 2763 2500 2381 2444 
L 2381 2419 
z
" transform="scale(0.015625)"/>
      <path id="IPAexGothic-ff1f" d="M 1503 3444 
Q 1550 4184 1963 4616 
Q 2466 5128 3272 5128 
Q 3888 5128 4313 4853 
Q 4909 4469 4909 3778 
Q 4909 3059 4116 2563 
Q 3628 2250 3506 1881 
Q 3422 1650 3422 1228 
L 2853 1228 
Q 2863 1869 3053 2197 
Q 3281 2588 3847 2950 
Q 4341 3269 4341 3778 
Q 4341 4231 3975 4463 
Q 3697 4634 3266 4634 
Q 2656 4634 2341 4225 
Q 2109 3928 2091 3444 
L 1503 3444 
z
M 2763 647 
L 3506 647 
L 3506 -97 
L 2763 -97 
L 2763 647 
z
" transform="scale(0.015625)"/>
     </defs>
     <use xlink:href="#IPAexGothic-63"/>
     <use xlink:href="#IPAexGothic-6f" x="54.394531"/>
     <use xlink:href="#IPAexGothic-75" x="114.794922"/>
     <use xlink:href="#IPAexGothic-6e" x="175.195312"/>
     <use xlink:href="#IPAexGothic-74" x="235.595703"/>
     <use xlink:href="#IPAexGothic-65" x="270.214844"/>
     <use xlink:href="#IPAexGothic-72" x="327.099609"/>
     <use xlink:href="#IPAexGothic-20" x="364.111328"/>
     <use xlink:href="#IPAexGothic-3c" x="391.113281"/>
     <use xlink:href="#IPAexGothic-20" x="458.935547"/>
     <use xlink:href="#IPAexGothic-33" x="485.9375"/>
     <use xlink:href="#IPAexGothic-20" x="548.925781"/>
     <use xlink:href="#IPAexGothic-ff1f" x="575.927734"/>
    </g>
   </g>
   <g id="text_6">
    <!-- END -->
    <g transform="translate(266.250781 176.294141) scale(0.125 -0.125)">
     <defs>
      <path id="IPAexGothic-45" d="M 3547 63 
L 609 63 
L 609 4634 
L 3469 4634 
L 3469 4147 
L 1166 4147 
L 1166 2650 
L 3206 2650 
L 3206 2191 
L 1166 2191 
L 1166 556 
L 3547 556 
L 3547 63 
z
" transform="scale(0.015625)"/>
      <path id="IPAexGothic-4e" d="M 4244 63 
L 3731 63 
L 1697 3150 
Q 1466 3500 1141 4097 
L 1116 4097 
L 1128 3797 
Q 1159 2803 1159 2469 
L 1159 63 
L 609 63 
L 609 4634 
L 1366 4634 
L 3113 1978 
Q 3453 1447 3713 966 
L 3738 966 
Q 3694 1897 3694 2469 
L 3694 4634 
L 4244 4634 
L 4244 63 
z
" transform="scale(0.015625)"/>
      <path id="IPAexGothic-44" d="M 609 4634 
L 1984 4634 
Q 3159 4634 3791 4050 
Q 4456 3444 4456 2356 
Q 4456 1047 3516 441 
Q 2925 63 1941 63 
L 609 63 
L 609 4634 
z
M 1172 556 
L 1894 556 
Q 3853 556 3853 2356 
Q 3853 4147 1928 4147 
L 1172 4147 
L 1172 556 
z
" transform="scale(0.015625)"/>
     </defs>
     <use xlink:href="#IPAexGothic-45"/>
     <use xlink:href="#IPAexGothic-4e" x="59.521484"/>
     <use xlink:href="#IPAexGothic-44" x="135.498047"/>
    </g>
   </g>
   <g id="text_7">
    <!-- print(counter) -->
    <g transform="translate(85.706836 257.406445) scale(0.125 -0.125)">
     <defs>
      <path id="IPAexGothic-70" d="M 1075 2688 
Q 1525 3341 2206 3341 
Q 2769 3341 3172 2938 
Q 3641 2469 3641 1644 
Q 3641 841 3178 372 
Q 2775 -31 2200 -31 
Q 1569 -31 1106 497 
L 1106 -1216 
L 563 -1216 
L 563 3250 
L 1075 3250 
L 1075 2688 
z
M 1106 1950 
L 1106 1291 
Q 1106 897 1516 600 
Q 1791 403 2106 403 
Q 2469 403 2725 659 
Q 3066 997 3066 1631 
Q 3066 2200 2784 2559 
Q 2503 2900 2100 2900 
Q 1656 2900 1338 2484 
Q 1106 2184 1106 1950 
z
" transform="scale(0.015625)"/>
      <path id="IPAexGothic-69" d="M 1178 3928 
L 550 3928 
L 550 4569 
L 1178 4569 
L 1178 3928 
z
M 1138 63 
L 588 63 
L 588 3250 
L 1138 3250 
L 1138 63 
z
" transform="scale(0.015625)"/>
      <path id="IPAexGothic-28" d="M 1928 -1016 
L 1653 -1166 
Q 488 69 488 1875 
Q 488 3678 1653 4909 
L 1928 4763 
Q 1006 3522 1006 1881 
Q 1006 203 1928 -1016 
z
" transform="scale(0.015625)"/>
      <path id="IPAexGothic-29" d="M 466 4909 
Q 1638 3672 1638 1875 
Q 1638 75 466 -1166 
L 191 -1016 
Q 1119 216 1119 1881 
Q 1119 3509 191 4763 
L 466 4909 
z
" transform="scale(0.015625)"/>
     </defs>
     <use xlink:href="#IPAexGothic-70"/>
     <use xlink:href="#IPAexGothic-72" x="62.109375"/>
     <use xlink:href="#IPAexGothic-69" x="99.121094"/>
     <use xlink:href="#IPAexGothic-6e" x="126.123047"/>
     <use xlink:href="#IPAexGothic-74" x="186.523438"/>
     <use xlink:href="#IPAexGothic-28" x="221.142578"/>
     <use xlink:href="#IPAexGothic-63" x="254.443359"/>
     <use xlink:href="#IPAexGothic-6f" x="308.837891"/>
     <use xlink:href="#IPAexGothic-75" x="369.238281"/>
     <use xlink:href="#IPAexGothic-6e" x="429.638672"/>
     <use xlink:href="#IPAexGothic-74" x="490.039062"/>
     <use xlink:href="#IPAexGothic-65" x="524.658203"/>
     <use xlink:href="#IPAexGothic-72" x="581.542969"/>
     <use xlink:href="#IPAexGothic-29" x="618.554688"/>
    </g>
   </g>
   <g id="text_8">
    <!-- counter += 1 -->
    <g transform="translate(87.901172 329.294141) scale(0.125 -0.125)">
     <defs>
      <path id="IPAexGothic-2b" d="M 2369 1856 
L 2369 219 
L 1984 219 
L 1984 1856 
L 416 1856 
L 416 2216 
L 1984 2216 
L 1984 3725 
L 2369 3725 
L 2369 2216 
L 3922 2216 
L 3922 1856 
L 2369 1856 
z
" transform="scale(0.015625)"/>
      <path id="IPAexGothic-31" d="M 2463 63 
L 1900 63 
L 1900 4103 
Q 1372 3922 788 3797 
L 684 4231 
Q 1519 4441 2106 4731 
L 2463 4731 
L 2463 63 
z
" transform="scale(0.015625)"/>
     </defs>
     <use xlink:href="#IPAexGothic-63"/>
     <use xlink:href="#IPAexGothic-6f" x="54.394531"/>
     <use xlink:href="#IPAexGothic-75" x="114.794922"/>
     <use xlink:href="#IPAexGothic-6e" x="175.195312"/>
     <use xlink:href="#IPAexGothic-74" x="235.595703"/>
     <use xlink:href="#IPAexGothic-65" x="270.214844"/>
     <use xlink:href="#IPAexGothic-72" x="327.099609"/>
     <use xlink:href="#IPAexGothic-20" x="364.111328"/>
     <use xlink:href="#IPAexGothic-2b" x="391.113281"/>
     <use xlink:href="#IPAexGothic-3d" x="458.935547"/>
     <use xlink:href="#IPAexGothic-20" x="526.757812"/>
     <use xlink:href="#IPAexGothic-31" x="553.759766"/>
    </g>
   </g>
  </g>
 </g>
 <defs>
  <clipPath id="p937a2a55b4">
   <rect x="3.6" y="3.6" width="326.7" height="356.4"/>
  </clipPath>
 </defs>
</svg>