<?xml version="1.0" encoding="utf-8" standalone="no"?>
<!DOCTYPE svg PUBLIC "-//W3C//DTD SVG 1.1//EN"
  "http://www.w3.org/Graphics/SVG/1.1/DTD/svg11.dtd">
<svg xmlns:xlink="http://www.w3.org/1999/xlink" width="214.56pt" height="340.56pt" viewBox="0 0 214.56 340.56" xmlns="http://www.w3.org/2000/svg" version="1.1">
 <metadata>
  <rdf:RDF xmlns:dc="http://purl.org/dc/elements/1.1/" xmlns:cc="http://creativecommons.org/ns#" xmlns:rdf="http://www.w3.org/1999/02/22-rdf-syntax-ns#">
   <cc:Work>
    <dc:type rdf:resource="http://purl.org/dc/dcmitype/StillImage"/>
    <dc:date>2025-03-08T02:26:36.368466</dc:date>
    <dc:format>image/svg+xml</dc:format>
    <dc:creator>
     <cc:Agent>
      <dc:title>Matplotlib v3.10.1, https://matplotlib.org/</dc:title>
     </cc:Agent>
    </dc:creator>
   </cc:Work>
  </rdf:RDF>
 </metadata>
 <defs>
  <style type="text/css">*{stroke-linejoin: round; stroke-linecap: butt}</style>
 </defs>
 <g id="figure_1">
  <g id="patch_1">
   <path d="M 0 340.56 
L 214.56 340.56 
L 214.56 0 
L 0 0 
z
" style="fill: #ffffff"/>
  </g>
  <g id="axes_1">
   <g id="patch_2">
    <path d="M 152.28 40.68 
L 152.565587 40.677734 
L 152.851103 40.670938 
L 153.136474 40.659612 
L 153.421631 40.64376 
L 153.706499 40.623386 
L 153.991009 40.598495 
L 154.275088 40.569092 
L 154.558664 40.535187 
L 154.841667 40.496786 
L 155.124025 40.4539 
L 155.405667 40.40654 
L 155.686522 40.354717 
L 155.96652 40.298444 
L 156.24559 40.237736 
L 156.523661 40.172608 
L 156.800664 40.103077 
L 157.076529 40.029159 
L 157.351186 39.950874 
L 157.624567 39.86824 
L 157.896602 39.78128 
L 158.167223 39.690015 
L 158.436363 39.594467 
L 158.703952 39.494661 
L 158.969924 39.390623 
L 159.234212 39.282377 
L 159.49675 39.169952 
L 159.75747 39.053376 
L 160.016308 38.932678 
L 160.273199 38.807888 
L 160.528077 38.679038 
L 160.780879 38.546161 
L 161.031541 38.409289 
L 161.28 38.268457 
L 161.526193 38.123701 
L 161.770058 37.975058 
L 162.011535 37.822564 
L 162.250561 37.666257 
L 162.487078 37.506178 
L 162.721024 37.342367 
L 162.952343 37.174865 
L 163.180974 37.003713 
L 163.406862 36.828956 
L 163.629948 36.650636 
L 163.850177 36.4688 
L 164.067493 36.283492 
L 164.281842 36.09476 
L 164.493169 35.902651 
L 164.701422 35.707213 
L 164.906548 35.508495 
L 165.108495 35.306548 
L 165.307213 35.101422 
L 165.502651 34.893169 
L 165.69476 34.681842 
L 165.883492 34.467493 
L 166.0688 34.250177 
L 166.250636 34.029948 
L 166.428956 33.806862 
L 166.603713 33.580974 
L 166.774865 33.352343 
L 166.942367 33.121024 
L 167.106178 32.887078 
L 167.266257 32.650561 
L 167.422564 32.411535 
L 167.575058 32.170058 
L 167.723701 31.926193 
L 167.868457 31.68 
L 168.009289 31.431541 
L 168.146161 31.180879 
L 168.279038 30.928077 
L 168.407888 30.673199 
L 168.532678 30.416308 
L 168.653376 30.15747 
L 168.769952 29.89675 
L 168.882377 29.634212 
L 168.990623 29.369924 
L 169.094661 29.103952 
L 169.194467 28.836363 
L 169.290015 28.567223 
L 169.38128 28.296602 
L 169.46824 28.024567 
L 169.550874 27.751186 
L 169.629159 27.476529 
L 169.703077 27.200664 
L 169.772608 26.923661 
L 169.837736 26.64559 
L 169.898444 26.36652 
L 169.954717 26.086522 
L 170.00654 25.805667 
L 170.0539 25.524025 
L 170.096786 25.241667 
L 170.135187 24.958664 
L 170.169092 24.675088 
L 170.198495 24.391009 
L 170.223386 24.106499 
L 170.24376 23.821631 
L 170.259612 23.536474 
L 170.270938 23.251103 
L 170.277734 22.965587 
L 170.28 22.68 
L 170.28 22.68 
L 170.277734 22.394413 
L 170.270938 22.108897 
L 170.259612 21.823526 
L 170.24376 21.538369 
L 170.223386 21.253501 
L 170.198495 20.968991 
L 170.169092 20.684912 
L 170.135187 20.401336 
L 170.096786 20.118333 
L 170.0539 19.835975 
L 170.00654 19.554333 
L 169.954717 19.273478 
L 169.898444 18.99348 
L 169.837736 18.71441 
L 169.772608 18.436339 
L 169.703077 18.159336 
L 169.629159 17.883471 
L 169.550874 17.608814 
L 169.46824 17.335433 
L 169.38128 17.063398 
L 169.290015 16.792777 
L 169.194467 16.523637 
L 169.094661 16.256048 
L 168.990623 15.990076 
L 168.882377 15.725788 
L 168.769952 15.46325 
L 168.653376 15.20253 
L 168.532678 14.943692 
L 168.407888 14.686801 
L 168.279038 14.431923 
L 168.146161 14.179121 
L 168.009289 13.928459 
L 167.868457 13.68 
L 167.723701 13.433807 
L 167.575058 13.189942 
L 167.422564 12.948465 
L 167.266257 12.709439 
L 167.106178 12.472922 
L 166.942367 12.238976 
L 166.774865 12.007657 
L 166.603713 11.779026 
L 166.428956 11.553138 
L 166.250636 11.330052 
L 166.0688 11.109823 
L 165.883492 10.892507 
L 165.69476 10.678158 
L 165.502651 10.466831 
L 165.307213 10.258578 
L 165.108495 10.053452 
L 164.906548 9.851505 
L 164.701422 9.652787 
L 164.493169 9.457349 
L 164.281842 9.26524 
L 164.067493 9.076508 
L 163.850177 8.8912 
L 163.629948 8.709364 
L 163.406862 8.531044 
L 163.180974 8.356287 
L 162.952343 8.185135 
L 162.721024 8.017633 
L 162.487078 7.853822 
L 162.250561 7.693743 
L 162.011535 7.537436 
L 161.770058 7.384942 
L 161.526193 7.236299 
L 161.28 7.091543 
L 161.031541 6.950711 
L 160.780879 6.813839 
L 160.528077 6.680962 
L 160.273199 6.552112 
L 160.016308 6.427322 
L 159.75747 6.306624 
L 159.49675 6.190048 
L 159.234212 6.077623 
L 158.969924 5.969377 
L 158.703952 5.865339 
L 158.436363 5.765533 
L 158.167223 5.669985 
L 157.896602 5.57872 
L 157.624567 5.49176 
L 157.351186 5.409126 
L 157.076529 5.330841 
L 156.800664 5.256923 
L 156.523661 5.187392 
L 156.24559 5.122264 
L 155.96652 5.061556 
L 155.686522 5.005283 
L 155.405667 4.95346 
L 155.124025 4.9061 
L 154.841667 4.863214 
L 154.558664 4.824813 
L 154.275088 4.790908 
L 153.991009 4.761505 
L 153.706499 4.736614 
L 153.421631 4.71624 
L 153.136474 4.700388 
L 152.851103 4.689062 
L 152.565587 4.682266 
L 152.28 4.68 
L 116.28 4.68 
L 115.994413 4.682266 
L 115.708897 4.689062 
L 115.423526 4.700388 
L 115.138369 4.71624 
L 114.853501 4.736614 
L 114.568991 4.761505 
L 114.284912 4.790908 
L 114.001336 4.824813 
L 113.718333 4.863214 
L 113.435975 4.9061 
L 113.154333 4.95346 
L 112.873478 5.005283 
L 112.59348 5.061556 
L 112.31441 5.122264 
L 112.036339 5.187392 
L 111.759336 5.256923 
L 111.483471 5.330841 
L 111.208814 5.409126 
L 110.935433 5.49176 
L 110.663398 5.57872 
L 110.392777 5.669985 
L 110.123637 5.765533 
L 109.856048 5.865339 
L 109.590076 5.969377 
L 109.325788 6.077623 
L 109.06325 6.190048 
L 108.80253 6.306624 
L 108.543692 6.427322 
L 108.286801 6.552112 
L 108.031923 6.680962 
L 107.779121 6.813839 
L 107.528459 6.950711 
L 107.28 7.091543 
L 107.033807 7.236299 
L 106.789942 7.384942 
L 106.548465 7.537436 
L 106.309439 7.693743 
L 106.072922 7.853822 
L 105.838976 8.017633 
L 105.607657 8.185135 
L 105.379026 8.356287 
L 105.153138 8.531044 
L 104.930052 8.709364 
L 104.709823 8.8912 
L 104.492507 9.076508 
L 104.278158 9.26524 
L 104.066831 9.457349 
L 103.858578 9.652787 
L 103.653452 9.851505 
L 103.451505 10.053452 
L 103.252787 10.258578 
L 103.057349 10.466831 
L 102.86524 10.678158 
L 102.676508 10.892507 
L 102.4912 11.109823 
L 102.309364 11.330052 
L 102.131044 11.553138 
L 101.956287 11.779026 
L 101.785135 12.007657 
L 101.617633 12.238976 
L 101.453822 12.472922 
L 101.293743 12.709439 
L 101.137436 12.948465 
L 100.984942 13.189942 
L 100.836299 13.433807 
L 100.691543 13.68 
L 100.550711 13.928459 
L 100.413839 14.179121 
L 100.280962 14.431923 
L 100.152112 14.686801 
L 100.027322 14.943692 
L 99.906624 15.20253 
L 99.790048 15.46325 
L 99.677623 15.725788 
L 99.569377 15.990076 
L 99.465339 16.256048 
L 99.365533 16.523637 
L 99.269985 16.792777 
L 99.17872 17.063398 
L 99.09176 17.335433 
L 99.009126 17.608814 
L 98.930841 17.883471 
L 98.856923 18.159336 
L 98.787392 18.436339 
L 98.722264 18.71441 
L 98.661556 18.99348 
L 98.605283 19.273478 
L 98.55346 19.554333 
L 98.5061 19.835975 
L 98.463214 20.118333 
L 98.424813 20.401336 
L 98.390908 20.684912 
L 98.361505 20.968991 
L 98.336614 21.253501 
L 98.31624 21.538369 
L 98.300388 21.823526 
L 98.289062 22.108897 
L 98.282266 22.394413 
L 98.28 22.68 
L 98.28 22.68 
L 98.282266 22.965587 
L 98.289062 23.251103 
L 98.300388 23.536474 
L 98.31624 23.821631 
L 98.336614 24.106499 
L 98.361505 24.391009 
L 98.390908 24.675088 
L 98.424813 24.958664 
L 98.463214 25.241667 
L 98.5061 25.524025 
L 98.55346 25.805667 
L 98.605283 26.086522 
L 98.661556 26.36652 
L 98.722264 26.64559 
L 98.787392 26.923661 
L 98.856923 27.200664 
L 98.930841 27.476529 
L 99.009126 27.751186 
L 99.09176 28.024567 
L 99.17872 28.296602 
L 99.269985 28.567223 
L 99.365533 28.836363 
L 99.465339 29.103952 
L 99.569377 29.369924 
L 99.677623 29.634212 
L 99.790048 29.89675 
L 99.906624 30.15747 
L 100.027322 30.416308 
L 100.152112 30.673199 
L 100.280962 30.928077 
L 100.413839 31.180879 
L 100.550711 31.431541 
L 100.691543 31.68 
L 100.836299 31.926193 
L 100.984942 32.170058 
L 101.137436 32.411535 
L 101.293743 32.650561 
L 101.453822 32.887078 
L 101.617633 33.121024 
L 101.785135 33.352343 
L 101.956287 33.580974 
L 102.131044 33.806862 
L 102.309364 34.029948 
L 102.4912 34.250177 
L 102.676508 34.467493 
L 102.86524 34.681842 
L 103.057349 34.893169 
L 103.252787 35.101422 
L 103.451505 35.306548 
L 103.653452 35.508495 
L 103.858578 35.707213 
L 104.066831 35.902651 
L 104.278158 36.09476 
L 104.492507 36.283492 
L 104.709823 36.4688 
L 104.930052 36.650636 
L 105.153138 36.828956 
L 105.379026 37.003713 
L 105.607657 37.174865 
L 105.838976 37.342367 
L 106.072922 37.506178 
L 106.309439 37.666257 
L 106.548465 37.822564 
L 106.789942 37.975058 
L 107.033807 38.123701 
L 107.28 38.268457 
L 107.528459 38.409289 
L 107.779121 38.546161 
L 108.031923 38.679038 
L 108.286801 38.807888 
L 108.543692 38.932678 
L 108.80253 39.053376 
L 109.06325 39.169952 
L 109.325788 39.282377 
L 109.590076 39.390623 
L 109.856048 39.494661 
L 110.123637 39.594467 
L 110.392777 39.690015 
L 110.663398 39.78128 
L 110.935433 39.86824 
L 111.208814 39.950874 
L 111.483471 40.029159 
L 111.759336 40.103077 
L 112.036339 40.172608 
L 112.31441 40.237736 
L 112.59348 40.298444 
L 112.873478 40.354717 
L 113.154333 40.40654 
L 113.435975 40.4539 
L 113.718333 40.496786 
L 114.001336 40.535187 
L 114.284912 40.569092 
L 114.568991 40.598495 
L 114.853501 40.623386 
L 115.138369 40.64376 
L 115.423526 40.659612 
L 115.708897 40.670938 
L 115.994413 40.677734 
L 116.28 40.68 
L 152.28 40.68 
z
" clip-path="url(#p5c72e863d5)" style="fill: none; stroke: #000000; stroke-linecap: round"/>
   </g>
   <g id="patch_3">
    <path d="M 58.68 224.28 
L 134.28 193.68 
L 209.88 224.28 
L 134.28 254.88 
L 58.68 224.28 
z
" clip-path="url(#p5c72e863d5)" style="fill: none; stroke: #000000; stroke-linecap: round"/>
   </g>
   <g id="patch_4">
    <path d="M 152.28 335.88 
L 152.565587 335.877734 
L 152.851103 335.870938 
L 153.136474 335.859612 
L 153.421631 335.84376 
L 153.706499 335.823386 
L 153.991009 335.798495 
L 154.275088 335.769092 
L 154.558664 335.735187 
L 154.841667 335.696786 
L 155.124025 335.6539 
L 155.405667 335.60654 
L 155.686522 335.554717 
L 155.96652 335.498444 
L 156.24559 335.437736 
L 156.523661 335.372608 
L 156.800664 335.303077 
L 157.076529 335.229159 
L 157.351186 335.150874 
L 157.624567 335.06824 
L 157.896602 334.98128 
L 158.167223 334.890015 
L 158.436363 334.794467 
L 158.703952 334.694661 
L 158.969924 334.590623 
L 159.234212 334.482377 
L 159.49675 334.369952 
L 159.75747 334.253376 
L 160.016308 334.132678 
L 160.273199 334.007888 
L 160.528077 333.879038 
L 160.780879 333.746161 
L 161.031541 333.609289 
L 161.28 333.468457 
L 161.526193 333.323701 
L 161.770058 333.175058 
L 162.011535 333.022564 
L 162.250561 332.866257 
L 162.487078 332.706178 
L 162.721024 332.542367 
L 162.952343 332.374865 
L 163.180974 332.203713 
L 163.406862 332.028956 
L 163.629948 331.850636 
L 163.850177 331.6688 
L 164.067493 331.483492 
L 164.281842 331.29476 
L 164.493169 331.102651 
L 164.701422 330.907213 
L 164.906548 330.708495 
L 165.108495 330.506548 
L 165.307213 330.301422 
L 165.502651 330.093169 
L 165.69476 329.881842 
L 165.883492 329.667493 
L 166.0688 329.450177 
L 166.250636 329.229948 
L 166.428956 329.006862 
L 166.603713 328.780974 
L 166.774865 328.552343 
L 166.942367 328.321024 
L 167.106178 328.087078 
L 167.266257 327.850561 
L 167.422564 327.611535 
L 167.575058 327.370058 
L 167.723701 327.126193 
L 167.868457 326.88 
L 168.009289 326.631541 
L 168.146161 326.380879 
L 168.279038 326.128077 
L 168.407888 325.873199 
L 168.532678 325.616308 
L 168.653376 325.35747 
L 168.769952 325.09675 
L 168.882377 324.834212 
L 168.990623 324.569924 
L 169.094661 324.303952 
L 169.194467 324.036363 
L 169.290015 323.767223 
L 169.38128 323.496602 
L 169.46824 323.224567 
L 169.550874 322.951186 
L 169.629159 322.676529 
L 169.703077 322.400664 
L 169.772608 322.123661 
L 169.837736 321.84559 
L 169.898444 321.56652 
L 169.954717 321.286522 
L 170.00654 321.005667 
L 170.0539 320.724025 
L 170.096786 320.441667 
L 170.135187 320.158664 
L 170.169092 319.875088 
L 170.198495 319.591009 
L 170.223386 319.306499 
L 170.24376 319.021631 
L 170.259612 318.736474 
L 170.270938 318.451103 
L 170.277734 318.165587 
L 170.28 317.88 
L 170.28 317.88 
L 170.277734 317.594413 
L 170.270938 317.308897 
L 170.259612 317.023526 
L 170.24376 316.738369 
L 170.223386 316.453501 
L 170.198495 316.168991 
L 170.169092 315.884912 
L 170.135187 315.601336 
L 170.096786 315.318333 
L 170.0539 315.035975 
L 170.00654 314.754333 
L 169.954717 314.473478 
L 169.898444 314.19348 
L 169.837736 313.91441 
L 169.772608 313.636339 
L 169.703077 313.359336 
L 169.629159 313.083471 
L 169.550874 312.808814 
L 169.46824 312.535433 
L 169.38128 312.263398 
L 169.290015 311.992777 
L 169.194467 311.723637 
L 169.094661 311.456048 
L 168.990623 311.190076 
L 168.882377 310.925788 
L 168.769952 310.66325 
L 168.653376 310.40253 
L 168.532678 310.143692 
L 168.407888 309.886801 
L 168.279038 309.631923 
L 168.146161 309.379121 
L 168.009289 309.128459 
L 167.868457 308.88 
L 167.723701 308.633807 
L 167.575058 308.389942 
L 167.422564 308.148465 
L 167.266257 307.909439 
L 167.106178 307.672922 
L 166.942367 307.438976 
L 166.774865 307.207657 
L 166.603713 306.979026 
L 166.428956 306.753138 
L 166.250636 306.530052 
L 166.0688 306.309823 
L 165.883492 306.092507 
L 165.69476 305.878158 
L 165.502651 305.666831 
L 165.307213 305.458578 
L 165.108495 305.253452 
L 164.906548 305.051505 
L 164.701422 304.852787 
L 164.493169 304.657349 
L 164.281842 304.46524 
L 164.067493 304.276508 
L 163.850177 304.0912 
L 163.629948 303.909364 
L 163.406862 303.731044 
L 163.180974 303.556287 
L 162.952343 303.385135 
L 162.721024 303.217633 
L 162.487078 303.053822 
L 162.250561 302.893743 
L 162.011535 302.737436 
L 161.770058 302.584942 
L 161.526193 302.436299 
L 161.28 302.291543 
L 161.031541 302.150711 
L 160.780879 302.013839 
L 160.528077 301.880962 
L 160.273199 301.752112 
L 160.016308 301.627322 
L 159.75747 301.506624 
L 159.49675 301.390048 
L 159.234212 301.277623 
L 158.969924 301.169377 
L 158.703952 301.065339 
L 158.436363 300.965533 
L 158.167223 300.869985 
L 157.896602 300.77872 
L 157.624567 300.69176 
L 157.351186 300.609126 
L 157.076529 300.530841 
L 156.800664 300.456923 
L 156.523661 300.387392 
L 156.24559 300.322264 
L 155.96652 300.261556 
L 155.686522 300.205283 
L 155.405667 300.15346 
L 155.124025 300.1061 
L 154.841667 300.063214 
L 154.558664 300.024813 
L 154.275088 299.990908 
L 153.991009 299.961505 
L 153.706499 299.936614 
L 153.421631 299.91624 
L 153.136474 299.900388 
L 152.851103 299.889062 
L 152.565587 299.882266 
L 152.28 299.88 
L 116.28 299.88 
L 115.994413 299.882266 
L 115.708897 299.889062 
L 115.423526 299.900388 
L 115.138369 299.91624 
L 114.853501 299.936614 
L 114.568991 299.961505 
L 114.284912 299.990908 
L 114.001336 300.024813 
L 113.718333 300.063214 
L 113.435975 300.1061 
L 113.154333 300.15346 
L 112.873478 300.205283 
L 112.59348 300.261556 
L 112.31441 300.322264 
L 112.036339 300.387392 
L 111.759336 300.456923 
L 111.483471 300.530841 
L 111.208814 300.609126 
L 110.935433 300.69176 
L 110.663398 300.77872 
L 110.392777 300.869985 
L 110.123637 300.965533 
L 109.856048 301.065339 
L 109.590076 301.169377 
L 109.325788 301.277623 
L 109.06325 301.390048 
L 108.80253 301.506624 
L 108.543692 301.627322 
L 108.286801 301.752112 
L 108.031923 301.880962 
L 107.779121 302.013839 
L 107.528459 302.150711 
L 107.28 302.291543 
L 107.033807 302.436299 
L 106.789942 302.584942 
L 106.548465 302.737436 
L 106.309439 302.893743 
L 106.072922 303.053822 
L 105.838976 303.217633 
L 105.607657 303.385135 
L 105.379026 303.556287 
L 105.153138 303.731044 
L 104.930052 303.909364 
L 104.709823 304.0912 
L 104.492507 304.276508 
L 104.278158 304.46524 
L 104.066831 304.657349 
L 103.858578 304.852787 
L 103.653452 305.051505 
L 103.451505 305.253452 
L 103.252787 305.458578 
L 103.057349 305.666831 
L 102.86524 305.878158 
L 102.676508 306.092507 
L 102.4912 306.309823 
L 102.309364 306.530052 
L 102.131044 306.753138 
L 101.956287 306.979026 
L 101.785135 307.207657 
L 101.617633 307.438976 
L 101.453822 307.672922 
L 101.293743 307.909439 
L 101.137436 308.148465 
L 100.984942 308.389942 
L 100.836299 308.633807 
L 100.691543 308.88 
L 100.550711 309.128459 
L 100.413839 309.379121 
L 100.280962 309.631923 
L 100.152112 309.886801 
L 100.027322 310.143692 
L 99.906624 310.40253 
L 99.790048 310.66325 
L 99.677623 310.925788 
L 99.569377 311.190076 
L 99.465339 311.456048 
L 99.365533 311.723637 
L 99.269985 311.992777 
L 99.17872 312.263398 
L 99.09176 312.535433 
L 99.009126 312.808814 
L 98.930841 313.083471 
L 98.856923 313.359336 
L 98.787392 313.636339 
L 98.722264 313.91441 
L 98.661556 314.19348 
L 98.605283 314.473478 
L 98.55346 314.754333 
L 98.5061 315.035975 
L 98.463214 315.318333 
L 98.424813 315.601336 
L 98.390908 315.884912 
L 98.361505 316.168991 
L 98.336614 316.453501 
L 98.31624 316.738369 
L 98.300388 317.023526 
L 98.289062 317.308897 
L 98.282266 317.594413 
L 98.28 317.88 
L 98.28 317.88 
L 98.282266 318.165587 
L 98.289062 318.451103 
L 98.300388 318.736474 
L 98.31624 319.021631 
L 98.336614 319.306499 
L 98.361505 319.591009 
L 98.390908 319.875088 
L 98.424813 320.158664 
L 98.463214 320.441667 
L 98.5061 320.724025 
L 98.55346 321.005667 
L 98.605283 321.286522 
L 98.661556 321.56652 
L 98.722264 321.84559 
L 98.787392 322.123661 
L 98.856923 322.400664 
L 98.930841 322.676529 
L 99.009126 322.951186 
L 99.09176 323.224567 
L 99.17872 323.496602 
L 99.269985 323.767223 
L 99.365533 324.036363 
L 99.465339 324.303952 
L 99.569377 324.569924 
L 99.677623 324.834212 
L 99.790048 325.09675 
L 99.906624 325.35747 
L 100.027322 325.616308 
L 100.152112 325.873199 
L 100.280962 326.128077 
L 100.413839 326.380879 
L 100.550711 326.631541 
L 100.691543 326.88 
L 100.836299 327.126193 
L 100.984942 327.370058 
L 101.137436 327.611535 
L 101.293743 327.850561 
L 101.453822 328.087078 
L 101.617633 328.321024 
L 101.785135 328.552343 
L 101.956287 328.780974 
L 102.131044 329.006862 
L 102.309364 329.229948 
L 102.4912 329.450177 
L 102.676508 329.667493 
L 102.86524 329.881842 
L 103.057349 330.093169 
L 103.252787 330.301422 
L 103.451505 330.506548 
L 103.653452 330.708495 
L 103.858578 330.907213 
L 104.066831 331.102651 
L 104.278158 331.29476 
L 104.492507 331.483492 
L 104.709823 331.6688 
L 104.930052 331.850636 
L 105.153138 332.028956 
L 105.379026 332.203713 
L 105.607657 332.374865 
L 105.838976 332.542367 
L 106.072922 332.706178 
L 106.309439 332.866257 
L 106.548465 333.022564 
L 106.789942 333.175058 
L 107.033807 333.323701 
L 107.28 333.468457 
L 107.528459 333.609289 
L 107.779121 333.746161 
L 108.031923 333.879038 
L 108.286801 334.007888 
L 108.543692 334.132678 
L 108.80253 334.253376 
L 109.06325 334.369952 
L 109.325788 334.482377 
L 109.590076 334.590623 
L 109.856048 334.694661 
L 110.123637 334.794467 
L 110.392777 334.890015 
L 110.663398 334.98128 
L 110.935433 335.06824 
L 111.208814 335.150874 
L 111.483471 335.229159 
L 111.759336 335.303077 
L 112.036339 335.372608 
L 112.31441 335.437736 
L 112.59348 335.498444 
L 112.873478 335.554717 
L 113.154333 335.60654 
L 113.435975 335.6539 
L 113.718333 335.696786 
L 114.001336 335.735187 
L 114.284912 335.769092 
L 114.568991 335.798495 
L 114.853501 335.823386 
L 115.138369 335.84376 
L 115.423526 335.859612 
L 115.708897 335.870938 
L 115.994413 335.877734 
L 116.28 335.88 
L 152.28 335.88 
z
" clip-path="url(#p5c72e863d5)" style="fill: none; stroke: #000000; stroke-linecap: round"/>
   </g>
   <g id="line2d_1">
    <path d="M 134.28 40.68 
L 134.28 54.18 
L 134.28 58.68 
" clip-path="url(#p5c72e863d5)" style="fill: none; stroke: #000000; stroke-linecap: round"/>
   </g>
   <g id="patch_5">
    <path d="M 136.98 58.68 
L 134.28 67.68 
L 131.58 58.68 
z
" clip-path="url(#p5c72e863d5)"/>
   </g>
   <g id="line2d_2">
    <path d="M 60.48 85.68 
L 60.48 67.68 
L 208.08 67.68 
L 208.08 103.68 
L 60.48 103.68 
L 60.48 85.68 
" clip-path="url(#p5c72e863d5)" style="fill: none; stroke: #000000; stroke-linecap: round"/>
   </g>
   <g id="line2d_3">
    <path d="M 134.28 103.68 
L 134.28 117.18 
L 134.28 121.68 
" clip-path="url(#p5c72e863d5)" style="fill: none; stroke: #000000; stroke-linecap: round"/>
   </g>
   <g id="patch_6">
    <path d="M 136.98 121.68 
L 134.28 130.68 
L 131.58 121.68 
z
" clip-path="url(#p5c72e863d5)"/>
   </g>
   <g id="line2d_4">
    <path d="M 76.68 148.68 
L 76.68 130.68 
L 191.88 130.68 
L 191.88 166.68 
L 76.68 166.68 
L 76.68 148.68 
" clip-path="url(#p5c72e863d5)" style="fill: none; stroke: #000000; stroke-linecap: round"/>
   </g>
   <g id="line2d_5">
    <path d="M 134.28 166.68 
L 134.28 180.18 
L 134.28 184.68 
" clip-path="url(#p5c72e863d5)" style="fill: none; stroke: #000000; stroke-linecap: round"/>
   </g>
   <g id="patch_7">
    <path d="M 136.98 184.68 
L 134.28 193.68 
L 131.58 184.68 
z
" clip-path="url(#p5c72e863d5)"/>
   </g>
   <g id="line2d_6">
    <path d="M 58.68 224.28 
L 4.68 224.28 
L 4.68 85.68 
L 51.48 85.68 
" clip-path="url(#p5c72e863d5)" style="fill: none; stroke: #000000; stroke-linecap: round"/>
   </g>
   <g id="patch_8">
    <path d="M 51.48 82.98 
L 60.48 85.68 
L 51.48 88.38 
z
" clip-path="url(#p5c72e863d5)"/>
   </g>
   <g id="line2d_7">
    <path d="M 134.28 254.88 
L 134.28 277.38 
L 134.28 290.88 
" clip-path="url(#p5c72e863d5)" style="fill: none; stroke: #000000; stroke-linecap: round"/>
   </g>
   <g id="patch_9">
    <path d="M 136.98 290.88 
L 134.28 299.88 
L 131.58 290.88 
z
" clip-path="url(#p5c72e863d5)"/>
   </g>
   <g id="text_1">
    <!-- START -->
    <g transform="translate(112.802031 26.593437) scale(0.14 -0.14)">
     <defs>
      <path id="IPAexGothic-53" d="M 2919 3641 
Q 2563 4259 1853 4259 
Q 1453 4259 1213 4009 
Q 1028 3803 1028 3534 
Q 1028 3238 1266 3047 
Q 1444 2913 1984 2688 
L 2200 2597 
Q 2925 2306 3191 1953 
Q 3422 1644 3422 1259 
Q 3422 644 2969 288 
Q 2559 -31 1931 -31 
Q 881 -31 313 766 
L 753 1100 
Q 1203 459 1938 459 
Q 2288 459 2534 625 
Q 2841 847 2841 1216 
Q 2841 1503 2616 1728 
Q 2375 1959 1728 2206 
L 1541 2278 
Q 453 2694 453 3481 
Q 453 4006 806 4347 
Q 1203 4725 1863 4725 
Q 2841 4725 3359 3956 
L 2919 3641 
z
" transform="scale(0.015625)"/>
      <path id="IPAexGothic-54" d="M 3866 4141 
L 2175 4141 
L 2175 63 
L 1606 63 
L 1606 4141 
L -31 4141 
L -31 4634 
L 3866 4634 
L 3866 4141 
z
" transform="scale(0.015625)"/>
      <path id="IPAexGothic-41" d="M 4056 63 
L 3444 63 
L 2938 1409 
L 1100 1409 
L 603 63 
L -6 63 
L 1806 4666 
L 2259 4666 
L 4056 63 
z
M 2778 1863 
L 2316 3078 
Q 2125 3588 2028 4000 
L 2009 4000 
Q 1897 3563 1716 3078 
L 1263 1863 
L 2778 1863 
z
" transform="scale(0.015625)"/>
      <path id="IPAexGothic-52" d="M 4072 63 
L 3394 63 
Q 3138 641 2828 1197 
Q 2584 1641 2344 1825 
Q 2050 2044 1625 2044 
L 1172 2044 
L 1172 63 
L 609 63 
L 609 4634 
L 2009 4634 
Q 2713 4634 3131 4378 
Q 3688 4044 3688 3381 
Q 3688 2784 3181 2459 
Q 2906 2272 2522 2216 
L 2522 2197 
Q 2941 2050 3247 1581 
Q 3516 1166 4072 63 
z
M 1172 2478 
L 1869 2478 
Q 3106 2478 3106 3369 
Q 3106 4181 1928 4181 
L 1172 4181 
L 1172 2478 
z
" transform="scale(0.015625)"/>
     </defs>
     <use xlink:href="#IPAexGothic-53"/>
     <use xlink:href="#IPAexGothic-54" transform="translate(58.496094 0)"/>
     <use xlink:href="#IPAexGothic-41" transform="translate(118.408203 0)"/>
     <use xlink:href="#IPAexGothic-52" transform="translate(182.128906 0)"/>
     <use xlink:href="#IPAexGothic-54" transform="translate(246.923828 0)"/>
    </g>
   </g>
   <g id="text_2">
    <!-- gdp_componentsの -->
    <g transform="translate(70.372188 82.979531) scale(0.14 -0.14)">
     <defs>
      <path id="IPAexGothic-67" d="M 1331 1150 
Q 1006 1122 1006 900 
Q 1006 613 1763 575 
L 2131 556 
Q 3303 497 3303 -294 
Q 3303 -700 2925 -959 
Q 2519 -1253 1794 -1253 
Q 1138 -1253 738 -1028 
Q 353 -809 353 -428 
Q 353 84 1075 247 
L 1075 269 
Q 506 413 506 778 
Q 506 1116 994 1297 
Q 456 1575 456 2181 
Q 456 2650 769 2963 
Q 1128 3322 1738 3322 
Q 2125 3322 2422 3153 
Q 2650 3453 3259 3463 
L 3259 3013 
Q 2838 3003 2703 2938 
Q 3034 2613 3034 2169 
Q 3034 1728 2734 1425 
Q 2400 1094 1813 1094 
Q 1563 1094 1331 1150 
z
M 1734 2919 
Q 1409 2919 1197 2706 
Q 988 2497 988 2181 
Q 988 1872 1184 1684 
Q 1397 1472 1756 1472 
Q 2094 1472 2297 1678 
Q 2503 1881 2503 2203 
Q 2503 2497 2297 2700 
Q 2081 2919 1734 2919 
z
M 1753 159 
Q 903 159 903 -366 
Q 903 -875 1800 -875 
Q 2378 -875 2638 -606 
Q 2772 -481 2772 -313 
Q 2772 159 1753 159 
z
" transform="scale(0.015625)"/>
      <path id="IPAexGothic-64" d="M 3391 63 
L 2891 63 
L 2891 619 
Q 2441 -31 1753 -31 
Q 1181 -31 788 372 
Q 313 844 313 1663 
Q 313 2466 772 2938 
Q 1169 3341 1753 3341 
Q 2384 3341 2847 2809 
L 2847 4794 
L 3391 4794 
L 3391 63 
z
M 2847 1303 
L 2847 2097 
Q 2847 2413 2456 2706 
Q 2181 2906 1853 2906 
Q 1484 2906 1228 2650 
Q 888 2309 888 1678 
Q 888 1109 1169 750 
Q 1441 409 1847 409 
Q 2322 409 2656 875 
Q 2847 1134 2847 1303 
z
" transform="scale(0.015625)"/>
      <path id="IPAexGothic-70" d="M 1075 2688 
Q 1525 3341 2206 3341 
Q 2769 3341 3172 2938 
Q 3641 2469 3641 1644 
Q 3641 841 3178 372 
Q 2775 -31 2200 -31 
Q 1569 -31 1106 497 
L 1106 -1216 
L 563 -1216 
L 563 3250 
L 1075 3250 
L 1075 2688 
z
M 1106 1950 
L 1106 1291 
Q 1106 897 1516 600 
Q 1791 403 2106 403 
Q 2469 403 2725 659 
Q 3066 997 3066 1631 
Q 3066 2200 2784 2559 
Q 2503 2900 2100 2900 
Q 1656 2900 1338 2484 
Q 1106 2184 1106 1950 
z
" transform="scale(0.015625)"/>
      <path id="IPAexGothic-5f" d="M 3200 -750 
L 0 -750 
L 0 -431 
L 3200 -431 
L 3200 -750 
z
" transform="scale(0.015625)"/>
      <path id="IPAexGothic-63" d="M 3269 784 
Q 2834 -31 1900 -31 
Q 1228 -31 788 409 
Q 313 891 313 1663 
Q 313 2428 788 2913 
Q 1222 3347 1881 3347 
Q 2813 3347 3206 2541 
L 2763 2309 
Q 2484 2900 1900 2900 
Q 1516 2900 1234 2619 
Q 881 2266 881 1650 
Q 881 1069 1222 728 
Q 1522 428 1956 428 
Q 2547 428 2847 1016 
L 3269 784 
z
" transform="scale(0.015625)"/>
      <path id="IPAexGothic-6f" d="M 1919 3341 
Q 2594 3341 3056 2888 
Q 3531 2413 3531 1638 
Q 3531 888 3066 422 
Q 2609 -31 1919 -31 
Q 1228 -31 781 416 
Q 313 881 313 1656 
Q 313 2413 788 2888 
Q 1241 3341 1919 3341 
z
M 1919 2919 
Q 1519 2919 1241 2631 
Q 888 2278 888 1650 
Q 888 1031 1234 684 
Q 1516 403 1919 403 
Q 2331 403 2609 691 
Q 2956 1038 2956 1672 
Q 2956 2269 2603 2631 
Q 2316 2919 1919 2919 
z
" transform="scale(0.015625)"/>
      <path id="IPAexGothic-6d" d="M 5022 63 
L 4472 63 
L 4472 2059 
Q 4472 2869 3847 2869 
Q 3550 2869 3303 2594 
Q 3128 2397 3059 2103 
L 3059 63 
L 2509 63 
L 2509 2066 
Q 2509 2869 1919 2869 
Q 1606 2869 1369 2594 
Q 1113 2306 1113 2041 
L 1113 63 
L 563 63 
L 563 3250 
L 1075 3250 
L 1075 2700 
Q 1391 3316 2028 3316 
Q 2725 3316 2956 2647 
Q 3303 3316 3953 3316 
Q 4478 3316 4772 2944 
Q 5022 2638 5022 2072 
L 5022 63 
z
" transform="scale(0.015625)"/>
      <path id="IPAexGothic-6e" d="M 3328 63 
L 2778 63 
L 2778 2041 
Q 2778 2853 2106 2853 
Q 1428 2853 1113 2041 
L 1113 63 
L 563 63 
L 563 3250 
L 1075 3250 
L 1075 2675 
Q 1525 3316 2222 3316 
Q 3328 3316 3328 2072 
L 3328 63 
z
" transform="scale(0.015625)"/>
      <path id="IPAexGothic-65" d="M 863 1594 
Q 891 1041 1209 722 
Q 1534 397 1997 397 
Q 2606 397 2963 966 
L 3322 728 
Q 2869 -31 1931 -31 
Q 1222 -31 766 422 
Q 306 884 306 1641 
Q 306 2444 788 2925 
Q 1216 3353 1856 3353 
Q 2459 3353 2866 2956 
Q 3322 2494 3322 1722 
L 3322 1594 
L 863 1594 
z
M 2756 1997 
Q 2709 2431 2450 2681 
Q 2194 2938 1844 2938 
Q 1438 2938 1150 2591 
Q 953 2356 894 1997 
L 2756 1997 
z
" transform="scale(0.015625)"/>
      <path id="IPAexGothic-74" d="M 2125 241 
Q 1769 -6 1397 -6 
Q 653 -6 653 831 
L 653 2859 
L 219 2859 
L 219 3250 
L 653 3250 
L 653 3966 
L 1178 4228 
L 1178 3250 
L 2063 3250 
L 2063 2859 
L 1178 2859 
L 1178 906 
Q 1178 416 1513 416 
Q 1738 416 1941 588 
L 2125 241 
z
" transform="scale(0.015625)"/>
      <path id="IPAexGothic-73" d="M 2234 2547 
Q 1938 2931 1484 2931 
Q 891 2931 891 2475 
Q 891 2153 1531 1944 
L 1741 1875 
Q 2650 1578 2650 894 
Q 2650 434 2272 172 
Q 1972 -31 1497 -31 
Q 766 -31 256 503 
L 603 819 
Q 997 397 1516 397 
Q 2131 397 2131 875 
Q 2131 1238 1453 1478 
L 1234 1553 
Q 378 1853 378 2431 
Q 378 2797 628 3047 
Q 928 3347 1453 3347 
Q 2156 3347 2606 2859 
L 2234 2547 
z
" transform="scale(0.015625)"/>
      <path id="IPAexGothic-306e" d="M 3119 469 
Q 5275 766 5275 2425 
Q 5275 3453 4413 3925 
Q 4041 4116 3547 4159 
Q 3394 2525 2850 1400 
Q 2322 306 1722 306 
Q 1384 306 1084 666 
Q 609 1244 609 2003 
Q 609 3025 1397 3794 
Q 2184 4563 3431 4563 
Q 4306 4563 4928 4122 
Q 5813 3506 5813 2425 
Q 5813 438 3431 6 
L 3119 469 
z
M 3053 4147 
Q 2378 4044 1891 3641 
Q 1097 2981 1097 1991 
Q 1097 1366 1434 978 
Q 1581 813 1719 813 
Q 2022 813 2416 1625 
Q 2909 2638 3053 4147 
z
" transform="scale(0.015625)"/>
     </defs>
     <use xlink:href="#IPAexGothic-67"/>
     <use xlink:href="#IPAexGothic-64" transform="translate(55.517578 0)"/>
     <use xlink:href="#IPAexGothic-70" transform="translate(117.919922 0)"/>
     <use xlink:href="#IPAexGothic-5f" transform="translate(180.029297 0)"/>
     <use xlink:href="#IPAexGothic-63" transform="translate(230.029297 0)"/>
     <use xlink:href="#IPAexGothic-6f" transform="translate(284.423828 0)"/>
     <use xlink:href="#IPAexGothic-6d" transform="translate(344.824219 0)"/>
     <use xlink:href="#IPAexGothic-70" transform="translate(431.933594 0)"/>
     <use xlink:href="#IPAexGothic-6f" transform="translate(494.042969 0)"/>
     <use xlink:href="#IPAexGothic-6e" transform="translate(554.443359 0)"/>
     <use xlink:href="#IPAexGothic-65" transform="translate(614.84375 0)"/>
     <use xlink:href="#IPAexGothic-6e" transform="translate(671.728516 0)"/>
     <use xlink:href="#IPAexGothic-74" transform="translate(732.128906 0)"/>
     <use xlink:href="#IPAexGothic-73" transform="translate(766.748047 0)"/>
     <use xlink:href="#IPAexGothic-306e" transform="translate(812.939453 0)"/>
    </g>
    <!-- 要素を $i$ に割り当てる -->
    <g transform="translate(65.54 96.207344) scale(0.14 -0.14)">
     <defs>
      <path id="IPAexGothic-8981" d="M 2278 4025 
L 2278 4581 
L 528 4581 
L 528 4978 
L 5856 4978 
L 5856 4581 
L 4081 4581 
L 4081 4025 
L 5522 4025 
L 5522 2547 
L 863 2547 
L 863 4025 
L 2278 4025 
z
M 2694 4025 
L 3659 4025 
L 3659 4581 
L 2694 4581 
L 2694 4025 
z
M 2278 3666 
L 1316 3666 
L 1316 2906 
L 2278 2906 
L 2278 3666 
z
M 2694 3666 
L 2694 2906 
L 3659 2906 
L 3659 3666 
L 2694 3666 
z
M 4081 3666 
L 4081 2906 
L 5075 2906 
L 5075 3666 
L 4081 3666 
z
M 3066 338 
Q 2547 503 1694 722 
L 1503 775 
Q 1816 1141 2066 1503 
L 447 1503 
L 447 1900 
L 2316 1900 
Q 2497 2225 2641 2516 
L 3084 2366 
Q 2984 2172 2834 1900 
L 5950 1900 
L 5950 1503 
L 4619 1503 
Q 4369 878 3988 484 
Q 4750 263 5797 -91 
L 5413 -488 
Q 4441 -100 3597 172 
Q 2706 -406 869 -531 
L 625 -97 
Q 2122 -28 3066 338 
z
M 3513 619 
Q 3934 1025 4134 1503 
L 2597 1503 
Q 2413 1213 2238 984 
L 2213 953 
Q 2656 853 3513 619 
z
" transform="scale(0.015625)"/>
      <path id="IPAexGothic-7d20" d="M 3419 1172 
L 3419 -450 
L 2931 -450 
L 2931 1144 
L 2553 1125 
Q 1875 1094 538 1063 
L 397 1497 
Q 1191 1497 2175 1509 
L 2350 1516 
Q 1784 2013 1350 2316 
L 1678 2584 
Q 2013 2347 2188 2206 
Q 2488 2456 2803 2841 
L 347 2841 
L 347 3213 
L 2944 3213 
L 2944 3603 
L 953 3603 
L 953 3956 
L 2944 3956 
L 2944 4313 
L 666 4313 
L 666 4678 
L 2944 4678 
L 2944 5313 
L 3413 5313 
L 3413 4678 
L 5728 4678 
L 5728 4313 
L 3413 4313 
L 3413 3956 
L 5441 3956 
L 5441 3603 
L 3413 3603 
L 3413 3213 
L 6050 3213 
L 6050 2841 
L 2931 2841 
L 3234 2656 
Q 2897 2309 2472 1963 
Q 2669 1800 2938 1541 
Q 3656 2131 4175 2669 
L 4591 2444 
Q 4069 1922 3541 1547 
Q 3719 1547 3809 1553 
L 4666 1588 
L 4781 1594 
L 5056 1606 
Q 4819 1819 4578 1997 
L 4916 2247 
Q 5531 1794 6056 1241 
L 5697 941 
Q 5506 1163 5378 1291 
Q 5319 1291 5275 1284 
Q 4719 1238 3663 1178 
L 3419 1172 
z
M 500 -13 
Q 1347 356 1947 966 
L 2375 750 
Q 1775 81 884 -384 
L 500 -13 
z
M 5581 -256 
Q 4844 369 4084 769 
L 4463 1044 
Q 5219 669 5991 109 
L 5581 -256 
z
" transform="scale(0.015625)"/>
      <path id="IPAexGothic-3092" d="M 1094 4263 
Q 1544 4222 2359 4222 
Q 2581 4734 2700 5163 
L 3175 5028 
Q 2997 4538 2859 4256 
Q 3516 4284 4294 4459 
L 4356 4019 
Q 3603 3869 2656 3819 
Q 2391 3284 2059 2797 
Q 2531 3200 2963 3200 
Q 3638 3200 3859 2378 
Q 4556 2681 5338 2950 
L 5575 2528 
Q 4641 2253 3941 1956 
Q 3981 1678 3994 1028 
L 3513 991 
Q 3513 1456 3494 1753 
Q 2388 1194 2388 716 
Q 2388 428 2753 328 
Q 3066 241 3806 241 
Q 4394 241 5178 344 
L 5216 -128 
Q 4434 -213 3653 -213 
Q 2656 -213 2244 41 
Q 1913 244 1913 631 
Q 1913 1094 2344 1497 
Q 2709 1841 3428 2181 
Q 3266 2797 2878 2797 
Q 2238 2797 1209 1419 
L 838 1694 
Q 1625 2716 2163 3800 
Q 1522 3800 1088 3825 
L 1094 4263 
z
" transform="scale(0.015625)"/>
      <path id="IPAexGothic-20" transform="scale(0.015625)"/>
      <path id="DejaVuSans-Oblique-69" d="M 1172 4863 
L 1747 4863 
L 1606 4134 
L 1031 4134 
L 1172 4863 
z
M 909 3500 
L 1484 3500 
L 800 0 
L 225 0 
L 909 3500 
z
" transform="scale(0.015625)"/>
      <path id="IPAexGothic-306b" d="M 1088 -38 
Q 922 1003 922 2081 
Q 922 3222 1331 4794 
L 1813 4684 
Q 1391 3113 1391 2003 
Q 1391 1441 1422 1147 
Q 1434 1181 1813 2016 
L 2125 1797 
Q 1800 1081 1691 763 
Q 1581 453 1581 269 
Q 1581 78 1588 6 
L 1088 -38 
z
M 2834 4038 
Q 3969 4213 5313 4172 
L 5338 3681 
Q 3959 3728 2869 3547 
L 2834 4038 
z
M 5650 256 
Q 5044 172 4372 172 
Q 3463 172 3047 434 
Q 2784 594 2675 841 
Q 2572 1075 2572 1447 
Q 2572 1563 2578 1656 
L 3053 1684 
Q 3050 1613 3044 1528 
Q 3041 1481 3041 1466 
Q 3041 1200 3119 1053 
Q 3178 944 3309 850 
Q 3569 678 4275 678 
Q 4891 678 5588 763 
L 5650 256 
z
" transform="scale(0.015625)"/>
      <path id="IPAexGothic-5272" d="M 2325 4209 
L 2325 3713 
L 3272 3713 
L 3272 3381 
L 2325 3381 
L 2325 2950 
L 3494 2950 
L 3494 2619 
L 2325 2619 
L 2325 2175 
L 3956 2175 
L 3956 1809 
L 353 1809 
L 353 2175 
L 1909 2175 
L 1909 2619 
L 753 2619 
L 753 2950 
L 1909 2950 
L 1909 3381 
L 984 3381 
L 984 3713 
L 1909 3713 
L 1909 4209 
L 838 4209 
L 838 3609 
L 409 3609 
L 409 4569 
L 1903 4569 
L 1903 5313 
L 2338 5313 
L 2338 4569 
L 3872 4569 
L 3872 3609 
L 3444 3609 
L 3444 4209 
L 2325 4209 
z
M 3388 1397 
L 3388 -384 
L 2966 -384 
L 2966 -122 
L 1269 -122 
L 1269 -447 
L 847 -447 
L 847 1397 
L 3388 1397 
z
M 1269 1038 
L 1269 238 
L 2966 238 
L 2966 1038 
L 1269 1038 
z
M 4259 4550 
L 4700 4550 
L 4700 953 
L 4259 953 
L 4259 4550 
z
M 5403 5081 
L 5844 5081 
L 5844 159 
Q 5844 -106 5747 -231 
Q 5634 -372 5263 -372 
Q 4763 -372 4391 -325 
L 4303 141 
Q 4803 75 5206 75 
Q 5403 75 5403 300 
L 5403 5081 
z
" transform="scale(0.015625)"/>
      <path id="IPAexGothic-308a" d="M 2878 2925 
Q 2503 2294 2372 2041 
Q 2222 1750 2163 1459 
L 1716 1503 
Q 1509 2131 1509 3091 
Q 1509 3744 1663 4872 
L 2181 4806 
Q 2003 3541 2003 3016 
Q 2003 2613 2028 2259 
Q 2109 2413 2313 2766 
Q 2484 3063 2578 3238 
L 2878 2925 
z
M 2488 128 
Q 3534 503 3928 1184 
Q 4234 1713 4234 2975 
Q 4234 3872 4122 4928 
L 4666 4928 
Q 4759 3794 4759 2975 
Q 4759 1516 4356 844 
Q 3913 103 2853 -288 
L 2488 128 
z
" transform="scale(0.015625)"/>
      <path id="IPAexGothic-5f53" d="M 3413 2931 
L 5466 2931 
L 5466 -447 
L 4991 -447 
L 4991 -128 
L 825 -128 
L 825 288 
L 4991 288 
L 4991 1241 
L 978 1241 
L 978 1650 
L 4991 1650 
L 4991 2528 
L 819 2528 
L 819 2931 
L 2938 2931 
L 2938 5147 
L 3413 5147 
L 3413 2931 
z
M 1716 3219 
Q 1375 3966 972 4506 
L 1388 4738 
Q 1800 4228 2175 3450 
L 1716 3219 
z
M 4088 3416 
Q 4531 4009 4916 4844 
L 5394 4625 
Q 4984 3828 4513 3194 
L 4088 3416 
z
" transform="scale(0.015625)"/>
      <path id="IPAexGothic-3066" d="M 581 4034 
Q 2978 4363 5466 4556 
L 5509 4097 
Q 4388 4031 3750 3572 
Q 2797 2878 2797 1913 
Q 2797 1169 3291 819 
Q 3778 484 4869 416 
L 4906 -116 
Q 2278 0 2278 1850 
Q 2278 3125 3691 4000 
Q 2066 3784 684 3553 
L 581 4034 
z
" transform="scale(0.015625)"/>
      <path id="IPAexGothic-308b" d="M 4391 4397 
L 2613 2588 
Q 3225 2809 3759 2809 
Q 4263 2809 4659 2625 
Q 5391 2269 5391 1484 
Q 5391 756 4706 275 
Q 4072 -166 3053 -166 
Q 2559 -166 2247 19 
Q 1863 250 1863 666 
Q 1863 934 2069 1141 
Q 2331 1403 2741 1403 
Q 3509 1403 4019 428 
Q 4872 784 4872 1491 
Q 4872 1981 4469 2222 
Q 4166 2406 3681 2406 
Q 2425 2406 1238 1209 
L 891 1581 
Q 2438 2934 3578 4281 
Q 2594 4125 1588 4066 
L 1478 4550 
Q 2594 4581 4109 4763 
L 4391 4397 
z
M 3591 303 
Q 3244 1025 2731 1025 
Q 2553 1025 2434 934 
Q 2316 844 2316 700 
Q 2316 250 3034 250 
Q 3275 250 3591 303 
z
" transform="scale(0.015625)"/>
     </defs>
     <use xlink:href="#IPAexGothic-8981" transform="translate(0 0.984375)"/>
     <use xlink:href="#IPAexGothic-7d20" transform="translate(100 0.984375)"/>
     <use xlink:href="#IPAexGothic-3092" transform="translate(200 0.984375)"/>
     <use xlink:href="#IPAexGothic-20" transform="translate(300 0.984375)"/>
     <use xlink:href="#DejaVuSans-Oblique-69" transform="translate(327.001953 0.984375)"/>
     <use xlink:href="#IPAexGothic-20" transform="translate(354.785156 0.984375)"/>
     <use xlink:href="#IPAexGothic-306b" transform="translate(381.787109 0.984375)"/>
     <use xlink:href="#IPAexGothic-5272" transform="translate(481.787109 0.984375)"/>
     <use xlink:href="#IPAexGothic-308a" transform="translate(581.787109 0.984375)"/>
     <use xlink:href="#IPAexGothic-5f53" transform="translate(681.787109 0.984375)"/>
     <use xlink:href="#IPAexGothic-3066" transform="translate(781.787109 0.984375)"/>
     <use xlink:href="#IPAexGothic-308b" transform="translate(881.787109 0.984375)"/>
    </g>
   </g>
   <g id="text_3">
    <!-- 毎回実行したい -->
    <g transform="translate(85.28 146.02) scale(0.14 -0.14)">
     <defs>
      <path id="IPAexGothic-6bce" d="M 1528 3675 
L 5169 3675 
Q 5169 3553 5131 2322 
L 6078 2322 
L 6078 1925 
L 5119 1925 
Q 5075 1194 5056 994 
L 5047 897 
L 5938 897 
L 5938 513 
L 5003 513 
Q 4947 -3 4838 -172 
Q 4684 -409 4263 -409 
Q 3797 -409 3397 -353 
L 3322 122 
Q 3928 31 4191 31 
Q 4416 31 4484 197 
Q 4506 250 4550 513 
L 1541 513 
Q 1531 475 1497 297 
Q 1463 116 1431 -25 
L 972 63 
Q 1194 1063 1316 1925 
L 319 1925 
L 319 2322 
L 1375 2322 
L 1381 2366 
Q 1466 2978 1528 3675 
z
M 3500 3291 
L 3488 3169 
Q 3453 2759 3409 2316 
L 4684 2316 
Q 4713 2934 4722 3291 
L 3500 3291 
z
M 3059 3291 
L 1919 3291 
Q 1919 3241 1913 3213 
Q 1903 2997 1816 2316 
L 2963 2316 
Q 3000 2625 3059 3291 
z
M 2925 1931 
L 1766 1931 
Q 1703 1400 1606 897 
L 2781 897 
Q 2844 1306 2909 1847 
L 2925 1931 
z
M 3372 1931 
Q 3275 1175 3238 897 
L 4594 897 
Q 4622 1241 4672 1931 
L 3372 1931 
z
M 1856 4628 
L 5816 4628 
L 5816 4231 
L 1669 4231 
Q 1325 3572 850 3041 
L 509 3369 
Q 1272 4175 1625 5350 
L 2084 5263 
Q 1959 4869 1856 4628 
z
" transform="scale(0.015625)"/>
      <path id="IPAexGothic-56de" d="M 4519 3647 
L 4519 1178 
L 1875 1178 
L 1875 3647 
L 4519 3647 
z
M 2328 3250 
L 2328 1575 
L 4066 1575 
L 4066 3250 
L 2328 3250 
z
M 5722 4891 
L 5722 -456 
L 5247 -456 
L 5247 -103 
L 1147 -103 
L 1147 -456 
L 672 -456 
L 672 4891 
L 5722 4891 
z
M 1147 4475 
L 1147 313 
L 5247 313 
L 5247 4475 
L 1147 4475 
z
" transform="scale(0.015625)"/>
      <path id="IPAexGothic-5b9f" d="M 3525 1275 
Q 4288 350 6022 91 
L 5738 -375 
Q 3953 -41 3219 1050 
Q 2731 -144 728 -472 
L 466 -44 
Q 2422 150 2872 1275 
L 384 1275 
L 384 1659 
L 2950 1659 
L 2950 2144 
L 966 2144 
L 966 2509 
L 2950 2509 
L 2950 2969 
L 1266 2969 
L 1266 3341 
L 2950 3341 
L 2950 3988 
L 3403 3988 
L 3403 3341 
L 5125 3341 
L 5125 2969 
L 3403 2969 
L 3403 2509 
L 5444 2509 
L 5444 2144 
L 3403 2144 
L 3403 1659 
L 6016 1659 
L 6016 1275 
L 3525 1275 
z
M 3413 4544 
L 5778 4544 
L 5778 3269 
L 5309 3269 
L 5309 4147 
L 1084 4147 
L 1084 3269 
L 616 3269 
L 616 4544 
L 2938 4544 
L 2938 5313 
L 3413 5313 
L 3413 4544 
z
" transform="scale(0.015625)"/>
      <path id="IPAexGothic-884c" d="M 1822 2753 
L 1822 -447 
L 1353 -447 
L 1353 2169 
Q 966 1744 622 1466 
L 316 1791 
Q 1294 2559 1969 3822 
L 2397 3634 
Q 2109 3138 1822 2753 
z
M 4975 2803 
L 4975 103 
Q 4975 -391 4369 -391 
Q 3925 -391 3356 -341 
L 3288 159 
Q 3775 78 4259 78 
Q 4516 78 4516 319 
L 4516 2803 
L 2384 2803 
L 2384 3225 
L 6013 3225 
L 6013 2803 
L 4975 2803 
z
M 384 3691 
Q 1231 4256 1756 5075 
L 2144 4850 
Q 1541 3947 666 3347 
L 384 3691 
z
M 2709 4794 
L 5659 4794 
L 5659 4378 
L 2709 4378 
L 2709 4794 
z
" transform="scale(0.015625)"/>
      <path id="IPAexGothic-3057" d="M 1750 4884 
L 2281 4884 
L 2238 1319 
Q 2228 809 2391 569 
Q 2594 281 3128 281 
Q 3772 281 4344 744 
Q 4822 1131 5156 1759 
L 5534 1369 
Q 5094 653 4534 263 
Q 3878 -206 3134 -206 
Q 2341 -206 1994 213 
Q 1697 575 1706 1269 
L 1750 4884 
z
" transform="scale(0.015625)"/>
      <path id="IPAexGothic-305f" d="M 684 3994 
Q 1138 3953 1556 3953 
Q 1797 3953 2106 3975 
Q 2266 4594 2369 5113 
L 2875 5025 
Q 2806 4731 2619 4013 
Q 3209 4084 3656 4191 
L 3688 3719 
Q 3109 3613 2497 3566 
Q 1822 1294 1153 -44 
L 653 172 
Q 1406 1500 1991 3531 
Q 1634 3513 1256 3513 
Q 1106 3513 697 3525 
L 684 3994 
z
M 5753 78 
Q 5059 -13 4597 -13 
Q 3619 -13 3206 334 
Q 2866 625 2766 1222 
L 3213 1388 
Q 3247 1069 3347 903 
Q 3425 775 3578 672 
Q 3866 481 4556 481 
Q 5009 481 5728 575 
L 5753 78 
z
M 3144 2859 
Q 4216 3147 5409 3072 
L 5381 2597 
L 5356 2597 
Q 4263 2663 3194 2419 
L 3144 2859 
z
" transform="scale(0.015625)"/>
      <path id="IPAexGothic-3044" d="M 3369 1447 
Q 2906 122 2278 122 
Q 1966 122 1647 481 
Q 1209 966 1044 1966 
Q 891 2888 891 4313 
L 1422 4313 
Q 1413 2444 1666 1550 
Q 1913 678 2278 678 
Q 2619 678 2925 1791 
L 3369 1447 
z
M 5378 1294 
Q 4928 2797 4034 3809 
L 4488 4031 
Q 5375 3000 5881 1563 
L 5378 1294 
z
" transform="scale(0.015625)"/>
     </defs>
     <use xlink:href="#IPAexGothic-6bce"/>
     <use xlink:href="#IPAexGothic-56de" transform="translate(100 0)"/>
     <use xlink:href="#IPAexGothic-5b9f" transform="translate(200 0)"/>
     <use xlink:href="#IPAexGothic-884c" transform="translate(300 0)"/>
     <use xlink:href="#IPAexGothic-3057" transform="translate(400 0)"/>
     <use xlink:href="#IPAexGothic-305f" transform="translate(500 0)"/>
     <use xlink:href="#IPAexGothic-3044" transform="translate(600 0)"/>
    </g>
    <!-- コードを実行 -->
    <g transform="translate(92.28 159.166875) scale(0.14 -0.14)">
     <defs>
      <path id="IPAexGothic-30b3" d="M 1134 4213 
L 5166 4213 
L 5166 153 
L 4653 153 
L 4653 594 
L 1063 594 
L 1063 1088 
L 4653 1088 
L 4653 3725 
L 1134 3725 
L 1134 4213 
z
" transform="scale(0.015625)"/>
      <path id="IPAexGothic-30fc" d="M 588 2688 
L 5809 2688 
L 5809 2175 
L 588 2175 
L 588 2688 
z
" transform="scale(0.015625)"/>
      <path id="IPAexGothic-30c9" d="M 2247 4959 
L 2766 4959 
L 2766 3169 
Q 4050 2581 5178 1850 
L 4841 1331 
Q 3781 2138 2766 2650 
L 2766 -225 
L 2247 -225 
L 2247 4959 
z
M 5263 3847 
Q 4900 4388 4506 4716 
L 4806 4947 
Q 5191 4638 5581 4122 
L 5263 3847 
z
M 4666 3378 
Q 4375 3869 3931 4269 
L 4244 4513 
Q 4616 4206 5000 3653 
L 4666 3378 
z
" transform="scale(0.015625)"/>
     </defs>
     <use xlink:href="#IPAexGothic-30b3"/>
     <use xlink:href="#IPAexGothic-30fc" transform="translate(100 0)"/>
     <use xlink:href="#IPAexGothic-30c9" transform="translate(200 0)"/>
     <use xlink:href="#IPAexGothic-3092" transform="translate(300 0)"/>
     <use xlink:href="#IPAexGothic-5b9f" transform="translate(400 0)"/>
     <use xlink:href="#IPAexGothic-884c" transform="translate(500 0)"/>
    </g>
   </g>
   <g id="text_4">
    <!-- True -->
    <g transform="translate(138.96 270.046875) scale(0.14 -0.14)">
     <defs>
      <path id="IPAexGothic-72" d="M 2309 3316 
L 2213 2769 
Q 2106 2791 2022 2791 
Q 1653 2791 1413 2444 
Q 1113 2006 1113 1675 
L 1113 63 
L 563 63 
L 563 3250 
L 1081 3250 
L 1056 2303 
L 1069 2303 
Q 1422 3341 2097 3341 
Q 2206 3341 2309 3316 
z
" transform="scale(0.015625)"/>
      <path id="IPAexGothic-75" d="M 3284 63 
L 2772 63 
L 2772 644 
Q 2300 0 1625 0 
Q 1072 0 763 375 
Q 519 678 519 1241 
L 519 3250 
L 1069 3250 
L 1069 1259 
Q 1069 466 1734 466 
Q 2406 466 2734 1291 
L 2734 3250 
L 3284 3250 
L 3284 63 
z
" transform="scale(0.015625)"/>
     </defs>
     <use xlink:href="#IPAexGothic-54"/>
     <use xlink:href="#IPAexGothic-72" transform="translate(59.912109 0)"/>
     <use xlink:href="#IPAexGothic-75" transform="translate(96.923828 0)"/>
     <use xlink:href="#IPAexGothic-65" transform="translate(157.324219 0)"/>
    </g>
   </g>
   <g id="text_5">
    <!-- False -->
    <g transform="translate(20.087188 216.94) scale(0.14 -0.14)">
     <defs>
      <path id="IPAexGothic-46" d="M 3469 4141 
L 1172 4141 
L 1172 2656 
L 3206 2656 
L 3206 2188 
L 1172 2188 
L 1172 63 
L 609 63 
L 609 4634 
L 3469 4634 
L 3469 4141 
z
" transform="scale(0.015625)"/>
      <path id="IPAexGothic-61" d="M 3156 63 
L 2672 63 
Q 2559 303 2531 556 
L 2509 556 
Q 2147 -25 1428 -25 
Q 934 -25 622 288 
Q 347 563 347 959 
Q 347 1947 2050 1997 
L 2478 2009 
L 2478 2175 
Q 2478 2509 2288 2700 
Q 2088 2900 1775 2900 
Q 1238 2900 969 2378 
L 494 2597 
Q 938 3328 1788 3328 
Q 2375 3328 2691 3000 
Q 2984 2706 2984 2169 
L 2984 997 
Q 2984 400 3156 63 
z
M 2491 1625 
L 2141 1619 
Q 903 1591 903 953 
Q 903 728 1050 581 
Q 1231 403 1525 403 
Q 1934 403 2234 703 
Q 2491 969 2491 1344 
L 2491 1625 
z
" transform="scale(0.015625)"/>
      <path id="IPAexGothic-6c" d="M 1131 63 
L 581 63 
L 581 4794 
L 1131 4794 
L 1131 63 
z
" transform="scale(0.015625)"/>
     </defs>
     <use xlink:href="#IPAexGothic-46"/>
     <use xlink:href="#IPAexGothic-61" transform="translate(57.177734 0)"/>
     <use xlink:href="#IPAexGothic-6c" transform="translate(112.158203 0)"/>
     <use xlink:href="#IPAexGothic-73" transform="translate(139.160156 0)"/>
     <use xlink:href="#IPAexGothic-65" transform="translate(185.351562 0)"/>
    </g>
   </g>
   <g id="text_6">
    <!-- 最後の要素？ -->
    <g transform="translate(92.28 228.193438) scale(0.14 -0.14)">
     <defs>
      <path id="IPAexGothic-6700" d="M 5106 5050 
L 5106 3275 
L 1284 3275 
L 1284 5050 
L 5106 5050 
z
M 1741 4697 
L 1741 4331 
L 4656 4331 
L 4656 4697 
L 1741 4697 
z
M 1741 4000 
L 1741 3622 
L 4656 3622 
L 4656 4000 
L 1741 4000 
z
M 2925 2528 
L 2925 -450 
L 2503 -450 
L 2503 228 
Q 1869 94 525 -78 
L 409 356 
Q 491 363 609 372 
Q 725 381 756 381 
L 994 403 
L 994 2528 
L 384 2528 
L 384 2900 
L 6016 2900 
L 6016 2528 
L 2925 2528 
z
M 2503 2528 
L 1400 2528 
L 1400 2088 
L 2503 2088 
L 2503 2528 
z
M 2503 1763 
L 1400 1763 
L 1400 1309 
L 2503 1309 
L 2503 1763 
z
M 2503 984 
L 1400 984 
L 1400 434 
L 1759 472 
Q 2159 500 2503 550 
L 2503 984 
z
M 4844 588 
Q 5350 225 6047 -9 
L 5753 -419 
Q 5066 -128 4556 288 
Q 4000 -241 3281 -534 
L 3006 -163 
Q 3734 84 4263 563 
Q 3722 1141 3463 1803 
L 3084 1803 
L 3084 2169 
L 5425 2169 
L 5656 1963 
Q 5328 1178 4881 638 
L 4844 588 
z
M 4538 850 
Q 4884 1275 5119 1803 
L 3872 1803 
Q 4113 1275 4538 850 
z
" transform="scale(0.015625)"/>
      <path id="IPAexGothic-5f8c" d="M 3309 2475 
Q 3184 2469 2291 2425 
L 2125 2859 
Q 2625 2859 2822 2866 
L 3169 2878 
L 3488 3194 
Q 2891 3844 2375 4238 
L 2700 4563 
Q 2878 4409 3097 4191 
Q 3563 4781 3828 5297 
L 4263 5075 
Q 3853 4431 3366 3916 
Q 3538 3744 3769 3475 
Q 4366 4109 4756 4647 
L 5178 4391 
Q 4525 3594 3719 2891 
L 4519 2925 
Q 5022 2950 5197 2963 
Q 4978 3316 4741 3591 
L 5106 3794 
Q 5606 3197 5972 2516 
L 5569 2259 
Q 5494 2428 5381 2638 
Q 5363 2631 5309 2628 
Q 5259 2625 5234 2622 
Q 4741 2566 3806 2509 
Q 3728 2338 3550 2041 
L 5050 2041 
L 5319 1791 
Q 4978 1122 4441 631 
Q 5069 256 5984 25 
L 5663 -419 
Q 4734 -106 4109 338 
Q 3372 -225 2194 -531 
L 1900 -116 
Q 3009 66 3775 594 
Q 3331 969 3053 1356 
Q 2663 900 2259 625 
L 1959 941 
Q 2838 1559 3309 2475 
z
M 4109 863 
Q 4528 1244 4728 1656 
L 3322 1656 
Q 3613 1263 4109 863 
z
M 1588 2753 
L 1588 -447 
L 1147 -447 
L 1147 2209 
Q 869 1891 550 1613 
L 250 1947 
Q 1216 2806 1803 3938 
L 2206 3738 
Q 1906 3188 1588 2753 
z
M 294 3716 
Q 1213 4375 1663 5209 
L 2078 4997 
Q 1475 4016 588 3372 
L 294 3716 
z
" transform="scale(0.015625)"/>
      <path id="IPAexGothic-ff1f" d="M 1503 3444 
Q 1550 4184 1963 4616 
Q 2466 5128 3272 5128 
Q 3888 5128 4313 4853 
Q 4909 4469 4909 3778 
Q 4909 3059 4116 2563 
Q 3628 2250 3506 1881 
Q 3422 1650 3422 1228 
L 2853 1228 
Q 2863 1869 3053 2197 
Q 3281 2588 3847 2950 
Q 4341 3269 4341 3778 
Q 4341 4231 3975 4463 
Q 3697 4634 3266 4634 
Q 2656 4634 2341 4225 
Q 2109 3928 2091 3444 
L 1503 3444 
z
M 2763 647 
L 3506 647 
L 3506 -97 
L 2763 -97 
L 2763 647 
z
" transform="scale(0.015625)"/>
     </defs>
     <use xlink:href="#IPAexGothic-6700"/>
     <use xlink:href="#IPAexGothic-5f8c" transform="translate(100 0)"/>
     <use xlink:href="#IPAexGothic-306e" transform="translate(200 0)"/>
     <use xlink:href="#IPAexGothic-8981" transform="translate(300 0)"/>
     <use xlink:href="#IPAexGothic-7d20" transform="translate(400 0)"/>
     <use xlink:href="#IPAexGothic-ff1f" transform="translate(500 0)"/>
    </g>
   </g>
   <g id="text_7">
    <!-- END -->
    <g transform="translate(119.496875 321.793437) scale(0.14 -0.14)">
     <defs>
      <path id="IPAexGothic-45" d="M 3547 63 
L 609 63 
L 609 4634 
L 3469 4634 
L 3469 4147 
L 1166 4147 
L 1166 2650 
L 3206 2650 
L 3206 2191 
L 1166 2191 
L 1166 556 
L 3547 556 
L 3547 63 
z
" transform="scale(0.015625)"/>
      <path id="IPAexGothic-4e" d="M 4244 63 
L 3731 63 
L 1697 3150 
Q 1466 3500 1141 4097 
L 1116 4097 
L 1128 3797 
Q 1159 2803 1159 2469 
L 1159 63 
L 609 63 
L 609 4634 
L 1366 4634 
L 3113 1978 
Q 3453 1447 3713 966 
L 3738 966 
Q 3694 1897 3694 2469 
L 3694 4634 
L 4244 4634 
L 4244 63 
z
" transform="scale(0.015625)"/>
      <path id="IPAexGothic-44" d="M 609 4634 
L 1984 4634 
Q 3159 4634 3791 4050 
Q 4456 3444 4456 2356 
Q 4456 1047 3516 441 
Q 2925 63 1941 63 
L 609 63 
L 609 4634 
z
M 1172 556 
L 1894 556 
Q 3853 556 3853 2356 
Q 3853 4147 1928 4147 
L 1172 4147 
L 1172 556 
z
" transform="scale(0.015625)"/>
     </defs>
     <use xlink:href="#IPAexGothic-45"/>
     <use xlink:href="#IPAexGothic-4e" transform="translate(59.521484 0)"/>
     <use xlink:href="#IPAexGothic-44" transform="translate(135.498047 0)"/>
    </g>
   </g>
  </g>
 </g>
 <defs>
  <clipPath id="p5c72e863d5">
   <rect x="0" y="0" width="214.56" height="340.56"/>
  </clipPath>
 </defs>
</svg>