<?xml version="1.0" encoding="utf-8" standalone="no"?>
<!DOCTYPE svg PUBLIC "-//W3C//DTD SVG 1.1//EN"
  "http://www.w3.org/Graphics/SVG/1.1/DTD/svg11.dtd">
<svg xmlns:xlink="http://www.w3.org/1999/xlink" width="315.36pt" height="254.16pt" viewBox="0 0 315.36 254.16" xmlns="http://www.w3.org/2000/svg" version="1.1">
 <metadata>
  <rdf:RDF xmlns:dc="http://purl.org/dc/elements/1.1/" xmlns:cc="http://creativecommons.org/ns#" xmlns:rdf="http://www.w3.org/1999/02/22-rdf-syntax-ns#">
   <cc:Work>
    <dc:type rdf:resource="http://purl.org/dc/dcmitype/StillImage"/>
    <dc:date>2025-09-20T03:45:04.213007</dc:date>
    <dc:format>image/svg+xml</dc:format>
    <dc:creator>
     <cc:Agent>
      <dc:title>Matplotlib v3.10.6, https://matplotlib.org/</dc:title>
     </cc:Agent>
    </dc:creator>
   </cc:Work>
  </rdf:RDF>
 </metadata>
 <defs>
  <style type="text/css">*{stroke-linejoin: round; stroke-linecap: butt}</style>
 </defs>
 <g id="figure_1">
  <g id="patch_1">
   <path d="M 0 254.16 
L 315.36 254.16 
L 315.36 0 
L 0 0 
z
" style="fill: #ffffff"/>
  </g>
  <g id="axes_1">
   <g id="patch_2">
    <path d="M 76.68 40.68 
L 76.965587 40.677734 
L 77.251103 40.670938 
L 77.536474 40.659612 
L 77.821631 40.64376 
L 78.106499 40.623386 
L 78.391009 40.598495 
L 78.675088 40.569092 
L 78.958664 40.535187 
L 79.241667 40.496786 
L 79.524025 40.4539 
L 79.805667 40.40654 
L 80.086522 40.354717 
L 80.36652 40.298444 
L 80.64559 40.237736 
L 80.923661 40.172608 
L 81.200664 40.103077 
L 81.476529 40.029159 
L 81.751186 39.950874 
L 82.024567 39.86824 
L 82.296602 39.78128 
L 82.567223 39.690015 
L 82.836363 39.594467 
L 83.103952 39.494661 
L 83.369924 39.390623 
L 83.634212 39.282377 
L 83.89675 39.169952 
L 84.15747 39.053376 
L 84.416308 38.932678 
L 84.673199 38.807888 
L 84.928077 38.679038 
L 85.180879 38.546161 
L 85.431541 38.409289 
L 85.68 38.268457 
L 85.926193 38.123701 
L 86.170058 37.975058 
L 86.411535 37.822564 
L 86.650561 37.666257 
L 86.887078 37.506178 
L 87.121024 37.342367 
L 87.352343 37.174865 
L 87.580974 37.003713 
L 87.806862 36.828956 
L 88.029948 36.650636 
L 88.250177 36.4688 
L 88.467493 36.283492 
L 88.681842 36.09476 
L 88.893169 35.902651 
L 89.101422 35.707213 
L 89.306548 35.508495 
L 89.508495 35.306548 
L 89.707213 35.101422 
L 89.902651 34.893169 
L 90.09476 34.681842 
L 90.283492 34.467493 
L 90.4688 34.250177 
L 90.650636 34.029948 
L 90.828956 33.806862 
L 91.003713 33.580974 
L 91.174865 33.352343 
L 91.342367 33.121024 
L 91.506178 32.887078 
L 91.666257 32.650561 
L 91.822564 32.411535 
L 91.975058 32.170058 
L 92.123701 31.926193 
L 92.268457 31.68 
L 92.409289 31.431541 
L 92.546161 31.180879 
L 92.679038 30.928077 
L 92.807888 30.673199 
L 92.932678 30.416308 
L 93.053376 30.15747 
L 93.169952 29.89675 
L 93.282377 29.634212 
L 93.390623 29.369924 
L 93.494661 29.103952 
L 93.594467 28.836363 
L 93.690015 28.567223 
L 93.78128 28.296602 
L 93.86824 28.024567 
L 93.950874 27.751186 
L 94.029159 27.476529 
L 94.103077 27.200664 
L 94.172608 26.923661 
L 94.237736 26.64559 
L 94.298444 26.36652 
L 94.354717 26.086522 
L 94.40654 25.805667 
L 94.4539 25.524025 
L 94.496786 25.241667 
L 94.535187 24.958664 
L 94.569092 24.675088 
L 94.598495 24.391009 
L 94.623386 24.106499 
L 94.64376 23.821631 
L 94.659612 23.536474 
L 94.670938 23.251103 
L 94.677734 22.965587 
L 94.68 22.68 
L 94.68 22.68 
L 94.677734 22.394413 
L 94.670938 22.108897 
L 94.659612 21.823526 
L 94.64376 21.538369 
L 94.623386 21.253501 
L 94.598495 20.968991 
L 94.569092 20.684912 
L 94.535187 20.401336 
L 94.496786 20.118333 
L 94.4539 19.835975 
L 94.40654 19.554333 
L 94.354717 19.273478 
L 94.298444 18.99348 
L 94.237736 18.71441 
L 94.172608 18.436339 
L 94.103077 18.159336 
L 94.029159 17.883471 
L 93.950874 17.608814 
L 93.86824 17.335433 
L 93.78128 17.063398 
L 93.690015 16.792777 
L 93.594467 16.523637 
L 93.494661 16.256048 
L 93.390623 15.990076 
L 93.282377 15.725788 
L 93.169952 15.46325 
L 93.053376 15.20253 
L 92.932678 14.943692 
L 92.807888 14.686801 
L 92.679038 14.431923 
L 92.546161 14.179121 
L 92.409289 13.928459 
L 92.268457 13.68 
L 92.123701 13.433807 
L 91.975058 13.189942 
L 91.822564 12.948465 
L 91.666257 12.709439 
L 91.506178 12.472922 
L 91.342367 12.238976 
L 91.174865 12.007657 
L 91.003713 11.779026 
L 90.828956 11.553138 
L 90.650636 11.330052 
L 90.4688 11.109823 
L 90.283492 10.892507 
L 90.09476 10.678158 
L 89.902651 10.466831 
L 89.707213 10.258578 
L 89.508495 10.053452 
L 89.306548 9.851505 
L 89.101422 9.652787 
L 88.893169 9.457349 
L 88.681842 9.26524 
L 88.467493 9.076508 
L 88.250177 8.8912 
L 88.029948 8.709364 
L 87.806862 8.531044 
L 87.580974 8.356287 
L 87.352343 8.185135 
L 87.121024 8.017633 
L 86.887078 7.853822 
L 86.650561 7.693743 
L 86.411535 7.537436 
L 86.170058 7.384942 
L 85.926193 7.236299 
L 85.68 7.091543 
L 85.431541 6.950711 
L 85.180879 6.813839 
L 84.928077 6.680962 
L 84.673199 6.552112 
L 84.416308 6.427322 
L 84.15747 6.306624 
L 83.89675 6.190048 
L 83.634212 6.077623 
L 83.369924 5.969377 
L 83.103952 5.865339 
L 82.836363 5.765533 
L 82.567223 5.669985 
L 82.296602 5.57872 
L 82.024567 5.49176 
L 81.751186 5.409126 
L 81.476529 5.330841 
L 81.200664 5.256923 
L 80.923661 5.187392 
L 80.64559 5.122264 
L 80.36652 5.061556 
L 80.086522 5.005283 
L 79.805667 4.95346 
L 79.524025 4.9061 
L 79.241667 4.863214 
L 78.958664 4.824813 
L 78.675088 4.790908 
L 78.391009 4.761505 
L 78.106499 4.736614 
L 77.821631 4.71624 
L 77.536474 4.700388 
L 77.251103 4.689062 
L 76.965587 4.682266 
L 76.68 4.68 
L 40.68 4.68 
L 40.394413 4.682266 
L 40.108897 4.689062 
L 39.823526 4.700388 
L 39.538369 4.71624 
L 39.253501 4.736614 
L 38.968991 4.761505 
L 38.684912 4.790908 
L 38.401336 4.824813 
L 38.118333 4.863214 
L 37.835975 4.9061 
L 37.554333 4.95346 
L 37.273478 5.005283 
L 36.99348 5.061556 
L 36.71441 5.122264 
L 36.436339 5.187392 
L 36.159336 5.256923 
L 35.883471 5.330841 
L 35.608814 5.409126 
L 35.335433 5.49176 
L 35.063398 5.57872 
L 34.792777 5.669985 
L 34.523637 5.765533 
L 34.256048 5.865339 
L 33.990076 5.969377 
L 33.725788 6.077623 
L 33.46325 6.190048 
L 33.20253 6.306624 
L 32.943692 6.427322 
L 32.686801 6.552112 
L 32.431923 6.680962 
L 32.179121 6.813839 
L 31.928459 6.950711 
L 31.68 7.091543 
L 31.433807 7.236299 
L 31.189942 7.384942 
L 30.948465 7.537436 
L 30.709439 7.693743 
L 30.472922 7.853822 
L 30.238976 8.017633 
L 30.007657 8.185135 
L 29.779026 8.356287 
L 29.553138 8.531044 
L 29.330052 8.709364 
L 29.109823 8.8912 
L 28.892507 9.076508 
L 28.678158 9.26524 
L 28.466831 9.457349 
L 28.258578 9.652787 
L 28.053452 9.851505 
L 27.851505 10.053452 
L 27.652787 10.258578 
L 27.457349 10.466831 
L 27.26524 10.678158 
L 27.076508 10.892507 
L 26.8912 11.109823 
L 26.709364 11.330052 
L 26.531044 11.553138 
L 26.356287 11.779026 
L 26.185135 12.007657 
L 26.017633 12.238976 
L 25.853822 12.472922 
L 25.693743 12.709439 
L 25.537436 12.948465 
L 25.384942 13.189942 
L 25.236299 13.433807 
L 25.091543 13.68 
L 24.950711 13.928459 
L 24.813839 14.179121 
L 24.680962 14.431923 
L 24.552112 14.686801 
L 24.427322 14.943692 
L 24.306624 15.20253 
L 24.190048 15.46325 
L 24.077623 15.725788 
L 23.969377 15.990076 
L 23.865339 16.256048 
L 23.765533 16.523637 
L 23.669985 16.792777 
L 23.57872 17.063398 
L 23.49176 17.335433 
L 23.409126 17.608814 
L 23.330841 17.883471 
L 23.256923 18.159336 
L 23.187392 18.436339 
L 23.122264 18.71441 
L 23.061556 18.99348 
L 23.005283 19.273478 
L 22.95346 19.554333 
L 22.9061 19.835975 
L 22.863214 20.118333 
L 22.824813 20.401336 
L 22.790908 20.684912 
L 22.761505 20.968991 
L 22.736614 21.253501 
L 22.71624 21.538369 
L 22.700388 21.823526 
L 22.689062 22.108897 
L 22.682266 22.394413 
L 22.68 22.68 
L 22.68 22.68 
L 22.682266 22.965587 
L 22.689062 23.251103 
L 22.700388 23.536474 
L 22.71624 23.821631 
L 22.736614 24.106499 
L 22.761505 24.391009 
L 22.790908 24.675088 
L 22.824813 24.958664 
L 22.863214 25.241667 
L 22.9061 25.524025 
L 22.95346 25.805667 
L 23.005283 26.086522 
L 23.061556 26.36652 
L 23.122264 26.64559 
L 23.187392 26.923661 
L 23.256923 27.200664 
L 23.330841 27.476529 
L 23.409126 27.751186 
L 23.49176 28.024567 
L 23.57872 28.296602 
L 23.669985 28.567223 
L 23.765533 28.836363 
L 23.865339 29.103952 
L 23.969377 29.369924 
L 24.077623 29.634212 
L 24.190048 29.89675 
L 24.306624 30.15747 
L 24.427322 30.416308 
L 24.552112 30.673199 
L 24.680962 30.928077 
L 24.813839 31.180879 
L 24.950711 31.431541 
L 25.091543 31.68 
L 25.236299 31.926193 
L 25.384942 32.170058 
L 25.537436 32.411535 
L 25.693743 32.650561 
L 25.853822 32.887078 
L 26.017633 33.121024 
L 26.185135 33.352343 
L 26.356287 33.580974 
L 26.531044 33.806862 
L 26.709364 34.029948 
L 26.8912 34.250177 
L 27.076508 34.467493 
L 27.26524 34.681842 
L 27.457349 34.893169 
L 27.652787 35.101422 
L 27.851505 35.306548 
L 28.053452 35.508495 
L 28.258578 35.707213 
L 28.466831 35.902651 
L 28.678158 36.09476 
L 28.892507 36.283492 
L 29.109823 36.4688 
L 29.330052 36.650636 
L 29.553138 36.828956 
L 29.779026 37.003713 
L 30.007657 37.174865 
L 30.238976 37.342367 
L 30.472922 37.506178 
L 30.709439 37.666257 
L 30.948465 37.822564 
L 31.189942 37.975058 
L 31.433807 38.123701 
L 31.68 38.268457 
L 31.928459 38.409289 
L 32.179121 38.546161 
L 32.431923 38.679038 
L 32.686801 38.807888 
L 32.943692 38.932678 
L 33.20253 39.053376 
L 33.46325 39.169952 
L 33.725788 39.282377 
L 33.990076 39.390623 
L 34.256048 39.494661 
L 34.523637 39.594467 
L 34.792777 39.690015 
L 35.063398 39.78128 
L 35.335433 39.86824 
L 35.608814 39.950874 
L 35.883471 40.029159 
L 36.159336 40.103077 
L 36.436339 40.172608 
L 36.71441 40.237736 
L 36.99348 40.298444 
L 37.273478 40.354717 
L 37.554333 40.40654 
L 37.835975 40.4539 
L 38.118333 40.496786 
L 38.401336 40.535187 
L 38.684912 40.569092 
L 38.968991 40.598495 
L 39.253501 40.623386 
L 39.538369 40.64376 
L 39.823526 40.659612 
L 40.108897 40.670938 
L 40.394413 40.677734 
L 40.68 40.68 
L 76.68 40.68 
z
" clip-path="url(#pd8b0d80c2d)" style="fill: none; stroke: #000000; stroke-linecap: round"/>
   </g>
   <g id="patch_3">
    <path d="M 4.68 154.08 
L 58.68 130.68 
L 112.68 154.08 
L 58.68 177.48 
L 4.68 154.08 
z
" clip-path="url(#pd8b0d80c2d)" style="fill: none; stroke: #000000; stroke-linecap: round"/>
   </g>
   <g id="patch_4">
    <path d="M 256.68 235.08 
L 256.965587 235.077734 
L 257.251103 235.070938 
L 257.536474 235.059612 
L 257.821631 235.04376 
L 258.106499 235.023386 
L 258.391009 234.998495 
L 258.675088 234.969092 
L 258.958664 234.935187 
L 259.241667 234.896786 
L 259.524025 234.8539 
L 259.805667 234.80654 
L 260.086522 234.754717 
L 260.36652 234.698444 
L 260.64559 234.637736 
L 260.923661 234.572608 
L 261.200664 234.503077 
L 261.476529 234.429159 
L 261.751186 234.350874 
L 262.024567 234.26824 
L 262.296602 234.18128 
L 262.567223 234.090015 
L 262.836363 233.994467 
L 263.103952 233.894661 
L 263.369924 233.790623 
L 263.634212 233.682377 
L 263.89675 233.569952 
L 264.15747 233.453376 
L 264.416308 233.332678 
L 264.673199 233.207888 
L 264.928077 233.079038 
L 265.180879 232.946161 
L 265.431541 232.809289 
L 265.68 232.668457 
L 265.926193 232.523701 
L 266.170058 232.375058 
L 266.411535 232.222564 
L 266.650561 232.066257 
L 266.887078 231.906178 
L 267.121024 231.742367 
L 267.352343 231.574865 
L 267.580974 231.403713 
L 267.806862 231.228956 
L 268.029948 231.050636 
L 268.250177 230.8688 
L 268.467493 230.683492 
L 268.681842 230.49476 
L 268.893169 230.302651 
L 269.101422 230.107213 
L 269.306548 229.908495 
L 269.508495 229.706548 
L 269.707213 229.501422 
L 269.902651 229.293169 
L 270.09476 229.081842 
L 270.283492 228.867493 
L 270.4688 228.650177 
L 270.650636 228.429948 
L 270.828956 228.206862 
L 271.003713 227.980974 
L 271.174865 227.752343 
L 271.342367 227.521024 
L 271.506178 227.287078 
L 271.666257 227.050561 
L 271.822564 226.811535 
L 271.975058 226.570058 
L 272.123701 226.326193 
L 272.268457 226.08 
L 272.409289 225.831541 
L 272.546161 225.580879 
L 272.679038 225.328077 
L 272.807888 225.073199 
L 272.932678 224.816308 
L 273.053376 224.55747 
L 273.169952 224.29675 
L 273.282377 224.034212 
L 273.390623 223.769924 
L 273.494661 223.503952 
L 273.594467 223.236363 
L 273.690015 222.967223 
L 273.78128 222.696602 
L 273.86824 222.424567 
L 273.950874 222.151186 
L 274.029159 221.876529 
L 274.103077 221.600664 
L 274.172608 221.323661 
L 274.237736 221.04559 
L 274.298444 220.76652 
L 274.354717 220.486522 
L 274.40654 220.205667 
L 274.4539 219.924025 
L 274.496786 219.641667 
L 274.535187 219.358664 
L 274.569092 219.075088 
L 274.598495 218.791009 
L 274.623386 218.506499 
L 274.64376 218.221631 
L 274.659612 217.936474 
L 274.670938 217.651103 
L 274.677734 217.365587 
L 274.68 217.08 
L 274.68 217.08 
L 274.677734 216.794413 
L 274.670938 216.508897 
L 274.659612 216.223526 
L 274.64376 215.938369 
L 274.623386 215.653501 
L 274.598495 215.368991 
L 274.569092 215.084912 
L 274.535187 214.801336 
L 274.496786 214.518333 
L 274.4539 214.235975 
L 274.40654 213.954333 
L 274.354717 213.673478 
L 274.298444 213.39348 
L 274.237736 213.11441 
L 274.172608 212.836339 
L 274.103077 212.559336 
L 274.029159 212.283471 
L 273.950874 212.008814 
L 273.86824 211.735433 
L 273.78128 211.463398 
L 273.690015 211.192777 
L 273.594467 210.923637 
L 273.494661 210.656048 
L 273.390623 210.390076 
L 273.282377 210.125788 
L 273.169952 209.86325 
L 273.053376 209.60253 
L 272.932678 209.343692 
L 272.807888 209.086801 
L 272.679038 208.831923 
L 272.546161 208.579121 
L 272.409289 208.328459 
L 272.268457 208.08 
L 272.123701 207.833807 
L 271.975058 207.589942 
L 271.822564 207.348465 
L 271.666257 207.109439 
L 271.506178 206.872922 
L 271.342367 206.638976 
L 271.174865 206.407657 
L 271.003713 206.179026 
L 270.828956 205.953138 
L 270.650636 205.730052 
L 270.4688 205.509823 
L 270.283492 205.292507 
L 270.09476 205.078158 
L 269.902651 204.866831 
L 269.707213 204.658578 
L 269.508495 204.453452 
L 269.306548 204.251505 
L 269.101422 204.052787 
L 268.893169 203.857349 
L 268.681842 203.66524 
L 268.467493 203.476508 
L 268.250177 203.2912 
L 268.029948 203.109364 
L 267.806862 202.931044 
L 267.580974 202.756287 
L 267.352343 202.585135 
L 267.121024 202.417633 
L 266.887078 202.253822 
L 266.650561 202.093743 
L 266.411535 201.937436 
L 266.170058 201.784942 
L 265.926193 201.636299 
L 265.68 201.491543 
L 265.431541 201.350711 
L 265.180879 201.213839 
L 264.928077 201.080962 
L 264.673199 200.952112 
L 264.416308 200.827322 
L 264.15747 200.706624 
L 263.89675 200.590048 
L 263.634212 200.477623 
L 263.369924 200.369377 
L 263.103952 200.265339 
L 262.836363 200.165533 
L 262.567223 200.069985 
L 262.296602 199.97872 
L 262.024567 199.89176 
L 261.751186 199.809126 
L 261.476529 199.730841 
L 261.200664 199.656923 
L 260.923661 199.587392 
L 260.64559 199.522264 
L 260.36652 199.461556 
L 260.086522 199.405283 
L 259.805667 199.35346 
L 259.524025 199.3061 
L 259.241667 199.263214 
L 258.958664 199.224813 
L 258.675088 199.190908 
L 258.391009 199.161505 
L 258.106499 199.136614 
L 257.821631 199.11624 
L 257.536474 199.100388 
L 257.251103 199.089062 
L 256.965587 199.082266 
L 256.68 199.08 
L 220.68 199.08 
L 220.394413 199.082266 
L 220.108897 199.089062 
L 219.823526 199.100388 
L 219.538369 199.11624 
L 219.253501 199.136614 
L 218.968991 199.161505 
L 218.684912 199.190908 
L 218.401336 199.224813 
L 218.118333 199.263214 
L 217.835975 199.3061 
L 217.554333 199.35346 
L 217.273478 199.405283 
L 216.99348 199.461556 
L 216.71441 199.522264 
L 216.436339 199.587392 
L 216.159336 199.656923 
L 215.883471 199.730841 
L 215.608814 199.809126 
L 215.335433 199.89176 
L 215.063398 199.97872 
L 214.792777 200.069985 
L 214.523637 200.165533 
L 214.256048 200.265339 
L 213.990076 200.369377 
L 213.725788 200.477623 
L 213.46325 200.590048 
L 213.20253 200.706624 
L 212.943692 200.827322 
L 212.686801 200.952112 
L 212.431923 201.080962 
L 212.179121 201.213839 
L 211.928459 201.350711 
L 211.68 201.491543 
L 211.433807 201.636299 
L 211.189942 201.784942 
L 210.948465 201.937436 
L 210.709439 202.093743 
L 210.472922 202.253822 
L 210.238976 202.417633 
L 210.007657 202.585135 
L 209.779026 202.756287 
L 209.553138 202.931044 
L 209.330052 203.109364 
L 209.109823 203.2912 
L 208.892507 203.476508 
L 208.678158 203.66524 
L 208.466831 203.857349 
L 208.258578 204.052787 
L 208.053452 204.251505 
L 207.851505 204.453452 
L 207.652787 204.658578 
L 207.457349 204.866831 
L 207.26524 205.078158 
L 207.076508 205.292507 
L 206.8912 205.509823 
L 206.709364 205.730052 
L 206.531044 205.953138 
L 206.356287 206.179026 
L 206.185135 206.407657 
L 206.017633 206.638976 
L 205.853822 206.872922 
L 205.693743 207.109439 
L 205.537436 207.348465 
L 205.384942 207.589942 
L 205.236299 207.833807 
L 205.091543 208.08 
L 204.950711 208.328459 
L 204.813839 208.579121 
L 204.680962 208.831923 
L 204.552112 209.086801 
L 204.427322 209.343692 
L 204.306624 209.60253 
L 204.190048 209.86325 
L 204.077623 210.125788 
L 203.969377 210.390076 
L 203.865339 210.656048 
L 203.765533 210.923637 
L 203.669985 211.192777 
L 203.57872 211.463398 
L 203.49176 211.735433 
L 203.409126 212.008814 
L 203.330841 212.283471 
L 203.256923 212.559336 
L 203.187392 212.836339 
L 203.122264 213.11441 
L 203.061556 213.39348 
L 203.005283 213.673478 
L 202.95346 213.954333 
L 202.9061 214.235975 
L 202.863214 214.518333 
L 202.824813 214.801336 
L 202.790908 215.084912 
L 202.761505 215.368991 
L 202.736614 215.653501 
L 202.71624 215.938369 
L 202.700388 216.223526 
L 202.689062 216.508897 
L 202.682266 216.794413 
L 202.68 217.08 
L 202.68 217.08 
L 202.682266 217.365587 
L 202.689062 217.651103 
L 202.700388 217.936474 
L 202.71624 218.221631 
L 202.736614 218.506499 
L 202.761505 218.791009 
L 202.790908 219.075088 
L 202.824813 219.358664 
L 202.863214 219.641667 
L 202.9061 219.924025 
L 202.95346 220.205667 
L 203.005283 220.486522 
L 203.061556 220.76652 
L 203.122264 221.04559 
L 203.187392 221.323661 
L 203.256923 221.600664 
L 203.330841 221.876529 
L 203.409126 222.151186 
L 203.49176 222.424567 
L 203.57872 222.696602 
L 203.669985 222.967223 
L 203.765533 223.236363 
L 203.865339 223.503952 
L 203.969377 223.769924 
L 204.077623 224.034212 
L 204.190048 224.29675 
L 204.306624 224.55747 
L 204.427322 224.816308 
L 204.552112 225.073199 
L 204.680962 225.328077 
L 204.813839 225.580879 
L 204.950711 225.831541 
L 205.091543 226.08 
L 205.236299 226.326193 
L 205.384942 226.570058 
L 205.537436 226.811535 
L 205.693743 227.050561 
L 205.853822 227.287078 
L 206.017633 227.521024 
L 206.185135 227.752343 
L 206.356287 227.980974 
L 206.531044 228.206862 
L 206.709364 228.429948 
L 206.8912 228.650177 
L 207.076508 228.867493 
L 207.26524 229.081842 
L 207.457349 229.293169 
L 207.652787 229.501422 
L 207.851505 229.706548 
L 208.053452 229.908495 
L 208.258578 230.107213 
L 208.466831 230.302651 
L 208.678158 230.49476 
L 208.892507 230.683492 
L 209.109823 230.8688 
L 209.330052 231.050636 
L 209.553138 231.228956 
L 209.779026 231.403713 
L 210.007657 231.574865 
L 210.238976 231.742367 
L 210.472922 231.906178 
L 210.709439 232.066257 
L 210.948465 232.222564 
L 211.189942 232.375058 
L 211.433807 232.523701 
L 211.68 232.668457 
L 211.928459 232.809289 
L 212.179121 232.946161 
L 212.431923 233.079038 
L 212.686801 233.207888 
L 212.943692 233.332678 
L 213.20253 233.453376 
L 213.46325 233.569952 
L 213.725788 233.682377 
L 213.990076 233.790623 
L 214.256048 233.894661 
L 214.523637 233.994467 
L 214.792777 234.090015 
L 215.063398 234.18128 
L 215.335433 234.26824 
L 215.608814 234.350874 
L 215.883471 234.429159 
L 216.159336 234.503077 
L 216.436339 234.572608 
L 216.71441 234.637736 
L 216.99348 234.698444 
L 217.273478 234.754717 
L 217.554333 234.80654 
L 217.835975 234.8539 
L 218.118333 234.896786 
L 218.401336 234.935187 
L 218.684912 234.969092 
L 218.968991 234.998495 
L 219.253501 235.023386 
L 219.538369 235.04376 
L 219.823526 235.059612 
L 220.108897 235.070938 
L 220.394413 235.077734 
L 220.68 235.08 
L 256.68 235.08 
z
" clip-path="url(#pd8b0d80c2d)" style="fill: none; stroke: #000000; stroke-linecap: round"/>
   </g>
   <g id="patch_5">
    <path d="M 76.68 249.48 
L 76.965587 249.477734 
L 77.251103 249.470938 
L 77.536474 249.459612 
L 77.821631 249.44376 
L 78.106499 249.423386 
L 78.391009 249.398495 
L 78.675088 249.369092 
L 78.958664 249.335187 
L 79.241667 249.296786 
L 79.524025 249.2539 
L 79.805667 249.20654 
L 80.086522 249.154717 
L 80.36652 249.098444 
L 80.64559 249.037736 
L 80.923661 248.972608 
L 81.200664 248.903077 
L 81.476529 248.829159 
L 81.751186 248.750874 
L 82.024567 248.66824 
L 82.296602 248.58128 
L 82.567223 248.490015 
L 82.836363 248.394467 
L 83.103952 248.294661 
L 83.369924 248.190623 
L 83.634212 248.082377 
L 83.89675 247.969952 
L 84.15747 247.853376 
L 84.416308 247.732678 
L 84.673199 247.607888 
L 84.928077 247.479038 
L 85.180879 247.346161 
L 85.431541 247.209289 
L 85.68 247.068457 
L 85.926193 246.923701 
L 86.170058 246.775058 
L 86.411535 246.622564 
L 86.650561 246.466257 
L 86.887078 246.306178 
L 87.121024 246.142367 
L 87.352343 245.974865 
L 87.580974 245.803713 
L 87.806862 245.628956 
L 88.029948 245.450636 
L 88.250177 245.2688 
L 88.467493 245.083492 
L 88.681842 244.89476 
L 88.893169 244.702651 
L 89.101422 244.507213 
L 89.306548 244.308495 
L 89.508495 244.106548 
L 89.707213 243.901422 
L 89.902651 243.693169 
L 90.09476 243.481842 
L 90.283492 243.267493 
L 90.4688 243.050177 
L 90.650636 242.829948 
L 90.828956 242.606862 
L 91.003713 242.380974 
L 91.174865 242.152343 
L 91.342367 241.921024 
L 91.506178 241.687078 
L 91.666257 241.450561 
L 91.822564 241.211535 
L 91.975058 240.970058 
L 92.123701 240.726193 
L 92.268457 240.48 
L 92.409289 240.231541 
L 92.546161 239.980879 
L 92.679038 239.728077 
L 92.807888 239.473199 
L 92.932678 239.216308 
L 93.053376 238.95747 
L 93.169952 238.69675 
L 93.282377 238.434212 
L 93.390623 238.169924 
L 93.494661 237.903952 
L 93.594467 237.636363 
L 93.690015 237.367223 
L 93.78128 237.096602 
L 93.86824 236.824567 
L 93.950874 236.551186 
L 94.029159 236.276529 
L 94.103077 236.000664 
L 94.172608 235.723661 
L 94.237736 235.44559 
L 94.298444 235.16652 
L 94.354717 234.886522 
L 94.40654 234.605667 
L 94.4539 234.324025 
L 94.496786 234.041667 
L 94.535187 233.758664 
L 94.569092 233.475088 
L 94.598495 233.191009 
L 94.623386 232.906499 
L 94.64376 232.621631 
L 94.659612 232.336474 
L 94.670938 232.051103 
L 94.677734 231.765587 
L 94.68 231.48 
L 94.68 231.48 
L 94.677734 231.194413 
L 94.670938 230.908897 
L 94.659612 230.623526 
L 94.64376 230.338369 
L 94.623386 230.053501 
L 94.598495 229.768991 
L 94.569092 229.484912 
L 94.535187 229.201336 
L 94.496786 228.918333 
L 94.4539 228.635975 
L 94.40654 228.354333 
L 94.354717 228.073478 
L 94.298444 227.79348 
L 94.237736 227.51441 
L 94.172608 227.236339 
L 94.103077 226.959336 
L 94.029159 226.683471 
L 93.950874 226.408814 
L 93.86824 226.135433 
L 93.78128 225.863398 
L 93.690015 225.592777 
L 93.594467 225.323637 
L 93.494661 225.056048 
L 93.390623 224.790076 
L 93.282377 224.525788 
L 93.169952 224.26325 
L 93.053376 224.00253 
L 92.932678 223.743692 
L 92.807888 223.486801 
L 92.679038 223.231923 
L 92.546161 222.979121 
L 92.409289 222.728459 
L 92.268457 222.48 
L 92.123701 222.233807 
L 91.975058 221.989942 
L 91.822564 221.748465 
L 91.666257 221.509439 
L 91.506178 221.272922 
L 91.342367 221.038976 
L 91.174865 220.807657 
L 91.003713 220.579026 
L 90.828956 220.353138 
L 90.650636 220.130052 
L 90.4688 219.909823 
L 90.283492 219.692507 
L 90.09476 219.478158 
L 89.902651 219.266831 
L 89.707213 219.058578 
L 89.508495 218.853452 
L 89.306548 218.651505 
L 89.101422 218.452787 
L 88.893169 218.257349 
L 88.681842 218.06524 
L 88.467493 217.876508 
L 88.250177 217.6912 
L 88.029948 217.509364 
L 87.806862 217.331044 
L 87.580974 217.156287 
L 87.352343 216.985135 
L 87.121024 216.817633 
L 86.887078 216.653822 
L 86.650561 216.493743 
L 86.411535 216.337436 
L 86.170058 216.184942 
L 85.926193 216.036299 
L 85.68 215.891543 
L 85.431541 215.750711 
L 85.180879 215.613839 
L 84.928077 215.480962 
L 84.673199 215.352112 
L 84.416308 215.227322 
L 84.15747 215.106624 
L 83.89675 214.990048 
L 83.634212 214.877623 
L 83.369924 214.769377 
L 83.103952 214.665339 
L 82.836363 214.565533 
L 82.567223 214.469985 
L 82.296602 214.37872 
L 82.024567 214.29176 
L 81.751186 214.209126 
L 81.476529 214.130841 
L 81.200664 214.056923 
L 80.923661 213.987392 
L 80.64559 213.922264 
L 80.36652 213.861556 
L 80.086522 213.805283 
L 79.805667 213.75346 
L 79.524025 213.7061 
L 79.241667 213.663214 
L 78.958664 213.624813 
L 78.675088 213.590908 
L 78.391009 213.561505 
L 78.106499 213.536614 
L 77.821631 213.51624 
L 77.536474 213.500388 
L 77.251103 213.489062 
L 76.965587 213.482266 
L 76.68 213.48 
L 40.68 213.48 
L 40.394413 213.482266 
L 40.108897 213.489062 
L 39.823526 213.500388 
L 39.538369 213.51624 
L 39.253501 213.536614 
L 38.968991 213.561505 
L 38.684912 213.590908 
L 38.401336 213.624813 
L 38.118333 213.663214 
L 37.835975 213.7061 
L 37.554333 213.75346 
L 37.273478 213.805283 
L 36.99348 213.861556 
L 36.71441 213.922264 
L 36.436339 213.987392 
L 36.159336 214.056923 
L 35.883471 214.130841 
L 35.608814 214.209126 
L 35.335433 214.29176 
L 35.063398 214.37872 
L 34.792777 214.469985 
L 34.523637 214.565533 
L 34.256048 214.665339 
L 33.990076 214.769377 
L 33.725788 214.877623 
L 33.46325 214.990048 
L 33.20253 215.106624 
L 32.943692 215.227322 
L 32.686801 215.352112 
L 32.431923 215.480962 
L 32.179121 215.613839 
L 31.928459 215.750711 
L 31.68 215.891543 
L 31.433807 216.036299 
L 31.189942 216.184942 
L 30.948465 216.337436 
L 30.709439 216.493743 
L 30.472922 216.653822 
L 30.238976 216.817633 
L 30.007657 216.985135 
L 29.779026 217.156287 
L 29.553138 217.331044 
L 29.330052 217.509364 
L 29.109823 217.6912 
L 28.892507 217.876508 
L 28.678158 218.06524 
L 28.466831 218.257349 
L 28.258578 218.452787 
L 28.053452 218.651505 
L 27.851505 218.853452 
L 27.652787 219.058578 
L 27.457349 219.266831 
L 27.26524 219.478158 
L 27.076508 219.692507 
L 26.8912 219.909823 
L 26.709364 220.130052 
L 26.531044 220.353138 
L 26.356287 220.579026 
L 26.185135 220.807657 
L 26.017633 221.038976 
L 25.853822 221.272922 
L 25.693743 221.509439 
L 25.537436 221.748465 
L 25.384942 221.989942 
L 25.236299 222.233807 
L 25.091543 222.48 
L 24.950711 222.728459 
L 24.813839 222.979121 
L 24.680962 223.231923 
L 24.552112 223.486801 
L 24.427322 223.743692 
L 24.306624 224.00253 
L 24.190048 224.26325 
L 24.077623 224.525788 
L 23.969377 224.790076 
L 23.865339 225.056048 
L 23.765533 225.323637 
L 23.669985 225.592777 
L 23.57872 225.863398 
L 23.49176 226.135433 
L 23.409126 226.408814 
L 23.330841 226.683471 
L 23.256923 226.959336 
L 23.187392 227.236339 
L 23.122264 227.51441 
L 23.061556 227.79348 
L 23.005283 228.073478 
L 22.95346 228.354333 
L 22.9061 228.635975 
L 22.863214 228.918333 
L 22.824813 229.201336 
L 22.790908 229.484912 
L 22.761505 229.768991 
L 22.736614 230.053501 
L 22.71624 230.338369 
L 22.700388 230.623526 
L 22.689062 230.908897 
L 22.682266 231.194413 
L 22.68 231.48 
L 22.68 231.48 
L 22.682266 231.765587 
L 22.689062 232.051103 
L 22.700388 232.336474 
L 22.71624 232.621631 
L 22.736614 232.906499 
L 22.761505 233.191009 
L 22.790908 233.475088 
L 22.824813 233.758664 
L 22.863214 234.041667 
L 22.9061 234.324025 
L 22.95346 234.605667 
L 23.005283 234.886522 
L 23.061556 235.16652 
L 23.122264 235.44559 
L 23.187392 235.723661 
L 23.256923 236.000664 
L 23.330841 236.276529 
L 23.409126 236.551186 
L 23.49176 236.824567 
L 23.57872 237.096602 
L 23.669985 237.367223 
L 23.765533 237.636363 
L 23.865339 237.903952 
L 23.969377 238.169924 
L 24.077623 238.434212 
L 24.190048 238.69675 
L 24.306624 238.95747 
L 24.427322 239.216308 
L 24.552112 239.473199 
L 24.680962 239.728077 
L 24.813839 239.980879 
L 24.950711 240.231541 
L 25.091543 240.48 
L 25.236299 240.726193 
L 25.384942 240.970058 
L 25.537436 241.211535 
L 25.693743 241.450561 
L 25.853822 241.687078 
L 26.017633 241.921024 
L 26.185135 242.152343 
L 26.356287 242.380974 
L 26.531044 242.606862 
L 26.709364 242.829948 
L 26.8912 243.050177 
L 27.076508 243.267493 
L 27.26524 243.481842 
L 27.457349 243.693169 
L 27.652787 243.901422 
L 27.851505 244.106548 
L 28.053452 244.308495 
L 28.258578 244.507213 
L 28.466831 244.702651 
L 28.678158 244.89476 
L 28.892507 245.083492 
L 29.109823 245.2688 
L 29.330052 245.450636 
L 29.553138 245.628956 
L 29.779026 245.803713 
L 30.007657 245.974865 
L 30.238976 246.142367 
L 30.472922 246.306178 
L 30.709439 246.466257 
L 30.948465 246.622564 
L 31.189942 246.775058 
L 31.433807 246.923701 
L 31.68 247.068457 
L 31.928459 247.209289 
L 32.179121 247.346161 
L 32.431923 247.479038 
L 32.686801 247.607888 
L 32.943692 247.732678 
L 33.20253 247.853376 
L 33.46325 247.969952 
L 33.725788 248.082377 
L 33.990076 248.190623 
L 34.256048 248.294661 
L 34.523637 248.394467 
L 34.792777 248.490015 
L 35.063398 248.58128 
L 35.335433 248.66824 
L 35.608814 248.750874 
L 35.883471 248.829159 
L 36.159336 248.903077 
L 36.436339 248.972608 
L 36.71441 249.037736 
L 36.99348 249.098444 
L 37.273478 249.154717 
L 37.554333 249.20654 
L 37.835975 249.2539 
L 38.118333 249.296786 
L 38.401336 249.335187 
L 38.684912 249.369092 
L 38.968991 249.398495 
L 39.253501 249.423386 
L 39.538369 249.44376 
L 39.823526 249.459612 
L 40.108897 249.470938 
L 40.394413 249.477734 
L 40.68 249.48 
L 76.68 249.48 
z
" clip-path="url(#pd8b0d80c2d)" style="fill: none; stroke: #000000; stroke-linecap: round"/>
   </g>
   <g id="line2d_1">
    <path d="M 58.68 40.68 
L 58.68 54.18 
L 58.68 58.68 
" clip-path="url(#pd8b0d80c2d)" style="fill: none; stroke: #000000; stroke-linecap: round"/>
   </g>
   <g id="patch_6">
    <path d="M 61.38 58.68 
L 58.68 67.68 
L 55.98 58.68 
z
" clip-path="url(#pd8b0d80c2d)"/>
   </g>
   <g id="line2d_2">
    <path d="M 22.68 85.68 
L 22.68 67.68 
L 94.68 67.68 
L 94.68 103.68 
L 22.68 103.68 
L 22.68 85.68 
" clip-path="url(#pd8b0d80c2d)" style="fill: none; stroke: #000000; stroke-linecap: round"/>
   </g>
   <g id="line2d_3">
    <path d="M 58.68 103.68 
L 58.68 117.18 
L 58.68 121.68 
" clip-path="url(#pd8b0d80c2d)" style="fill: none; stroke: #000000; stroke-linecap: round"/>
   </g>
   <g id="patch_7">
    <path d="M 61.38 121.68 
L 58.68 130.68 
L 55.98 121.68 
z
" clip-path="url(#pd8b0d80c2d)"/>
   </g>
   <g id="line2d_4">
    <path d="M 112.68 154.08 
L 139.68 154.08 
L 157.68 154.08 
" clip-path="url(#pd8b0d80c2d)" style="fill: none; stroke: #000000; stroke-linecap: round"/>
   </g>
   <g id="patch_8">
    <path d="M 157.68 151.38 
L 166.68 154.08 
L 157.68 156.78 
z
" clip-path="url(#pd8b0d80c2d)"/>
   </g>
   <g id="line2d_5">
    <path d="M 166.68 154.08 
L 166.68 136.08 
L 310.68 136.08 
L 310.68 172.08 
L 166.68 172.08 
L 166.68 154.08 
" clip-path="url(#pd8b0d80c2d)" style="fill: none; stroke: #000000; stroke-linecap: round"/>
   </g>
   <g id="line2d_6">
    <path d="M 238.68 172.08 
L 238.68 185.58 
L 238.68 190.08 
" clip-path="url(#pd8b0d80c2d)" style="fill: none; stroke: #000000; stroke-linecap: round"/>
   </g>
   <g id="patch_9">
    <path d="M 241.38 190.08 
L 238.68 199.08 
L 235.98 190.08 
z
" clip-path="url(#pd8b0d80c2d)"/>
   </g>
   <g id="line2d_7">
    <path d="M 58.68 177.48 
L 58.68 195.48 
L 58.68 204.48 
" clip-path="url(#pd8b0d80c2d)" style="fill: none; stroke: #000000; stroke-linecap: round"/>
   </g>
   <g id="patch_10">
    <path d="M 61.38 204.48 
L 58.68 213.48 
L 55.98 204.48 
z
" clip-path="url(#pd8b0d80c2d)"/>
   </g>
   <g id="text_1">
    <!-- START -->
    <g transform="translate(37.202031 26.593438) scale(0.14 -0.14)">
     <defs>
      <path id="IPAexGothic-53" d="M 2919 3641 
Q 2563 4259 1853 4259 
Q 1453 4259 1213 4009 
Q 1028 3803 1028 3534 
Q 1028 3238 1266 3047 
Q 1444 2913 1984 2688 
L 2200 2597 
Q 2925 2306 3191 1953 
Q 3422 1644 3422 1259 
Q 3422 644 2969 288 
Q 2559 -31 1931 -31 
Q 881 -31 313 766 
L 753 1100 
Q 1203 459 1938 459 
Q 2288 459 2534 625 
Q 2841 847 2841 1216 
Q 2841 1503 2616 1728 
Q 2375 1959 1728 2206 
L 1541 2278 
Q 453 2694 453 3481 
Q 453 4006 806 4347 
Q 1203 4725 1863 4725 
Q 2841 4725 3359 3956 
L 2919 3641 
z
" transform="scale(0.015625)"/>
      <path id="IPAexGothic-54" d="M 3866 4141 
L 2175 4141 
L 2175 63 
L 1606 63 
L 1606 4141 
L -31 4141 
L -31 4634 
L 3866 4634 
L 3866 4141 
z
" transform="scale(0.015625)"/>
      <path id="IPAexGothic-41" d="M 4056 63 
L 3444 63 
L 2938 1409 
L 1100 1409 
L 603 63 
L -6 63 
L 1806 4666 
L 2259 4666 
L 4056 63 
z
M 2778 1863 
L 2316 3078 
Q 2125 3588 2028 4000 
L 2009 4000 
Q 1897 3563 1716 3078 
L 1263 1863 
L 2778 1863 
z
" transform="scale(0.015625)"/>
      <path id="IPAexGothic-52" d="M 4072 63 
L 3394 63 
Q 3138 641 2828 1197 
Q 2584 1641 2344 1825 
Q 2050 2044 1625 2044 
L 1172 2044 
L 1172 63 
L 609 63 
L 609 4634 
L 2009 4634 
Q 2713 4634 3131 4378 
Q 3688 4044 3688 3381 
Q 3688 2784 3181 2459 
Q 2906 2272 2522 2216 
L 2522 2197 
Q 2941 2050 3247 1581 
Q 3516 1166 4072 63 
z
M 1172 2478 
L 1869 2478 
Q 3106 2478 3106 3369 
Q 3106 4181 1928 4181 
L 1172 4181 
L 1172 2478 
z
" transform="scale(0.015625)"/>
     </defs>
     <use xlink:href="#IPAexGothic-53"/>
     <use xlink:href="#IPAexGothic-54" transform="translate(58.496094 0)"/>
     <use xlink:href="#IPAexGothic-41" transform="translate(118.408203 0)"/>
     <use xlink:href="#IPAexGothic-52" transform="translate(182.128906 0)"/>
     <use xlink:href="#IPAexGothic-54" transform="translate(246.923828 0)"/>
    </g>
   </g>
   <g id="text_2">
    <!-- x = 10 -->
    <g transform="translate(37.912969 89.593438) scale(0.14 -0.14)">
     <defs>
      <path id="IPAexGothic-78" d="M 3050 63 
L 2419 63 
L 1547 1338 
L 691 63 
L 56 63 
L 1247 1675 
L 106 3250 
L 747 3250 
L 1578 2016 
L 2413 3250 
L 3019 3250 
L 1875 1681 
L 3050 63 
z
" transform="scale(0.015625)"/>
      <path id="IPAexGothic-20" transform="scale(0.015625)"/>
      <path id="IPAexGothic-3d" d="M 416 2803 
L 3922 2803 
L 3922 2438 
L 416 2438 
L 416 2803 
z
M 416 1625 
L 3922 1625 
L 3922 1259 
L 416 1259 
L 416 1625 
z
" transform="scale(0.015625)"/>
      <path id="IPAexGothic-31" d="M 2463 63 
L 1900 63 
L 1900 4103 
Q 1372 3922 788 3797 
L 684 4231 
Q 1519 4441 2106 4731 
L 2463 4731 
L 2463 63 
z
" transform="scale(0.015625)"/>
      <path id="IPAexGothic-30" d="M 2038 4725 
Q 2881 4725 3334 3944 
Q 3694 3325 3694 2344 
Q 3694 1372 3334 741 
Q 2888 -31 2016 -31 
Q 1147 -31 700 741 
Q 341 1372 341 2350 
Q 341 3713 1000 4334 
Q 1419 4725 2038 4725 
z
M 2016 4266 
Q 1516 4266 1228 3759 
Q 934 3247 934 2344 
Q 934 1456 1222 947 
Q 1513 447 2016 447 
Q 2619 447 2909 1153 
Q 3100 1622 3100 2375 
Q 3100 3256 2806 3759 
Q 2509 4266 2016 4266 
z
" transform="scale(0.015625)"/>
     </defs>
     <use xlink:href="#IPAexGothic-78"/>
     <use xlink:href="#IPAexGothic-20" transform="translate(48.876953 0)"/>
     <use xlink:href="#IPAexGothic-3d" transform="translate(75.878906 0)"/>
     <use xlink:href="#IPAexGothic-20" transform="translate(143.701172 0)"/>
     <use xlink:href="#IPAexGothic-31" transform="translate(170.703125 0)"/>
     <use xlink:href="#IPAexGothic-30" transform="translate(233.691406 0)"/>
    </g>
   </g>
   <g id="text_3">
    <!-- False -->
    <g transform="translate(63.36 192.646875) scale(0.14 -0.14)">
     <defs>
      <path id="IPAexGothic-46" d="M 3469 4141 
L 1172 4141 
L 1172 2656 
L 3206 2656 
L 3206 2188 
L 1172 2188 
L 1172 63 
L 609 63 
L 609 4634 
L 3469 4634 
L 3469 4141 
z
" transform="scale(0.015625)"/>
      <path id="IPAexGothic-61" d="M 3156 63 
L 2672 63 
Q 2559 303 2531 556 
L 2509 556 
Q 2147 -25 1428 -25 
Q 934 -25 622 288 
Q 347 563 347 959 
Q 347 1947 2050 1997 
L 2478 2009 
L 2478 2175 
Q 2478 2509 2288 2700 
Q 2088 2900 1775 2900 
Q 1238 2900 969 2378 
L 494 2597 
Q 938 3328 1788 3328 
Q 2375 3328 2691 3000 
Q 2984 2706 2984 2169 
L 2984 997 
Q 2984 400 3156 63 
z
M 2491 1625 
L 2141 1619 
Q 903 1591 903 953 
Q 903 728 1050 581 
Q 1231 403 1525 403 
Q 1934 403 2234 703 
Q 2491 969 2491 1344 
L 2491 1625 
z
" transform="scale(0.015625)"/>
      <path id="IPAexGothic-6c" d="M 1131 63 
L 581 63 
L 581 4794 
L 1131 4794 
L 1131 63 
z
" transform="scale(0.015625)"/>
      <path id="IPAexGothic-73" d="M 2234 2547 
Q 1938 2931 1484 2931 
Q 891 2931 891 2475 
Q 891 2153 1531 1944 
L 1741 1875 
Q 2650 1578 2650 894 
Q 2650 434 2272 172 
Q 1972 -31 1497 -31 
Q 766 -31 256 503 
L 603 819 
Q 997 397 1516 397 
Q 2131 397 2131 875 
Q 2131 1238 1453 1478 
L 1234 1553 
Q 378 1853 378 2431 
Q 378 2797 628 3047 
Q 928 3347 1453 3347 
Q 2156 3347 2606 2859 
L 2234 2547 
z
" transform="scale(0.015625)"/>
      <path id="IPAexGothic-65" d="M 863 1594 
Q 891 1041 1209 722 
Q 1534 397 1997 397 
Q 2606 397 2963 966 
L 3322 728 
Q 2869 -31 1931 -31 
Q 1222 -31 766 422 
Q 306 884 306 1641 
Q 306 2444 788 2925 
Q 1216 3353 1856 3353 
Q 2459 3353 2866 2956 
Q 3322 2494 3322 1722 
L 3322 1594 
L 863 1594 
z
M 2756 1997 
Q 2709 2431 2450 2681 
Q 2194 2938 1844 2938 
Q 1438 2938 1150 2591 
Q 953 2356 894 1997 
L 2756 1997 
z
" transform="scale(0.015625)"/>
     </defs>
     <use xlink:href="#IPAexGothic-46"/>
     <use xlink:href="#IPAexGothic-61" transform="translate(57.177734 0)"/>
     <use xlink:href="#IPAexGothic-6c" transform="translate(112.158203 0)"/>
     <use xlink:href="#IPAexGothic-73" transform="translate(139.160156 0)"/>
     <use xlink:href="#IPAexGothic-65" transform="translate(185.351562 0)"/>
    </g>
   </g>
   <g id="text_4">
    <!-- True -->
    <g transform="translate(117.36 146.74) scale(0.14 -0.14)">
     <defs>
      <path id="IPAexGothic-72" d="M 2309 3316 
L 2213 2769 
Q 2106 2791 2022 2791 
Q 1653 2791 1413 2444 
Q 1113 2006 1113 1675 
L 1113 63 
L 563 63 
L 563 3250 
L 1081 3250 
L 1056 2303 
L 1069 2303 
Q 1422 3341 2097 3341 
Q 2206 3341 2309 3316 
z
" transform="scale(0.015625)"/>
      <path id="IPAexGothic-75" d="M 3284 63 
L 2772 63 
L 2772 644 
Q 2300 0 1625 0 
Q 1072 0 763 375 
Q 519 678 519 1241 
L 519 3250 
L 1069 3250 
L 1069 1259 
Q 1069 466 1734 466 
Q 2406 466 2734 1291 
L 2734 3250 
L 3284 3250 
L 3284 63 
z
" transform="scale(0.015625)"/>
     </defs>
     <use xlink:href="#IPAexGothic-54"/>
     <use xlink:href="#IPAexGothic-72" transform="translate(59.912109 0)"/>
     <use xlink:href="#IPAexGothic-75" transform="translate(96.923828 0)"/>
     <use xlink:href="#IPAexGothic-65" transform="translate(157.324219 0)"/>
    </g>
   </g>
   <g id="text_5">
    <!-- x = 10 ? -->
    <g transform="translate(32.1675 157.993438) scale(0.14 -0.14)">
     <defs>
      <path id="IPAexGothic-3f" d="M 225 3425 
Q 503 4725 1763 4725 
Q 2413 4725 2803 4334 
Q 3144 3994 3144 3516 
Q 3144 3081 2838 2716 
Q 2703 2563 2344 2266 
L 2216 2156 
Q 1888 1878 1888 1363 
L 1888 1209 
L 1422 1209 
L 1422 1422 
Q 1422 2050 1881 2491 
L 2022 2625 
L 2075 2669 
Q 2575 3122 2575 3516 
Q 2575 3822 2363 4041 
Q 2128 4278 1763 4278 
Q 963 4278 725 3309 
L 225 3425 
z
M 1978 63 
L 1325 63 
L 1325 728 
L 1978 728 
L 1978 63 
z
" transform="scale(0.015625)"/>
     </defs>
     <use xlink:href="#IPAexGothic-78"/>
     <use xlink:href="#IPAexGothic-20" transform="translate(48.876953 0)"/>
     <use xlink:href="#IPAexGothic-3d" transform="translate(75.878906 0)"/>
     <use xlink:href="#IPAexGothic-20" transform="translate(143.701172 0)"/>
     <use xlink:href="#IPAexGothic-31" transform="translate(170.703125 0)"/>
     <use xlink:href="#IPAexGothic-30" transform="translate(233.691406 0)"/>
     <use xlink:href="#IPAexGothic-20" transform="translate(296.679688 0)"/>
     <use xlink:href="#IPAexGothic-3f" transform="translate(323.681641 0)"/>
    </g>
   </g>
   <g id="text_6">
    <!-- print('条件はTrueです') -->
    <g transform="translate(165.842813 158.553438) scale(0.14 -0.14)">
     <defs>
      <path id="IPAexGothic-70" d="M 1075 2688 
Q 1525 3341 2206 3341 
Q 2769 3341 3172 2938 
Q 3641 2469 3641 1644 
Q 3641 841 3178 372 
Q 2775 -31 2200 -31 
Q 1569 -31 1106 497 
L 1106 -1216 
L 563 -1216 
L 563 3250 
L 1075 3250 
L 1075 2688 
z
M 1106 1950 
L 1106 1291 
Q 1106 897 1516 600 
Q 1791 403 2106 403 
Q 2469 403 2725 659 
Q 3066 997 3066 1631 
Q 3066 2200 2784 2559 
Q 2503 2900 2100 2900 
Q 1656 2900 1338 2484 
Q 1106 2184 1106 1950 
z
" transform="scale(0.015625)"/>
      <path id="IPAexGothic-69" d="M 1178 3928 
L 550 3928 
L 550 4569 
L 1178 4569 
L 1178 3928 
z
M 1138 63 
L 588 63 
L 588 3250 
L 1138 3250 
L 1138 63 
z
" transform="scale(0.015625)"/>
      <path id="IPAexGothic-6e" d="M 3328 63 
L 2778 63 
L 2778 2041 
Q 2778 2853 2106 2853 
Q 1428 2853 1113 2041 
L 1113 63 
L 563 63 
L 563 3250 
L 1075 3250 
L 1075 2675 
Q 1525 3316 2222 3316 
Q 3328 3316 3328 2072 
L 3328 63 
z
" transform="scale(0.015625)"/>
      <path id="IPAexGothic-74" d="M 2125 241 
Q 1769 -6 1397 -6 
Q 653 -6 653 831 
L 653 2859 
L 219 2859 
L 219 3250 
L 653 3250 
L 653 3966 
L 1178 4228 
L 1178 3250 
L 2063 3250 
L 2063 2859 
L 1178 2859 
L 1178 906 
Q 1178 416 1513 416 
Q 1738 416 1941 588 
L 2125 241 
z
" transform="scale(0.015625)"/>
      <path id="IPAexGothic-28" d="M 1928 -1016 
L 1653 -1166 
Q 488 69 488 1875 
Q 488 3678 1653 4909 
L 1928 4763 
Q 1006 3522 1006 1881 
Q 1006 203 1928 -1016 
z
" transform="scale(0.015625)"/>
      <path id="IPAexGothic-27" d="M 900 4794 
L 806 3084 
L 422 3084 
L 325 4794 
L 900 4794 
z
" transform="scale(0.015625)"/>
      <path id="IPAexGothic-6761" d="M 3406 1475 
L 3406 -447 
L 2953 -447 
L 2953 1422 
Q 2147 306 641 -331 
L 334 59 
Q 1738 569 2563 1538 
L 488 1538 
L 488 1941 
L 2953 1941 
L 2953 2691 
L 3406 2691 
L 3406 1941 
L 5928 1941 
L 5928 1538 
L 3847 1538 
Q 4597 769 6063 238 
L 5759 -203 
Q 4256 400 3406 1475 
z
M 3738 3419 
Q 4619 2991 5959 2772 
L 5684 2356 
Q 4216 2631 3353 3150 
Q 2350 2494 813 2175 
L 531 2566 
Q 2063 2825 2997 3391 
Q 2494 3763 2163 4219 
Q 1694 3747 1038 3359 
L 725 3688 
Q 1897 4319 2466 5306 
L 2900 5203 
Q 2784 5003 2713 4903 
L 4641 4903 
L 4872 4691 
Q 4384 3938 3738 3419 
z
M 3353 3634 
Q 3919 4075 4219 4531 
L 2438 4531 
L 2425 4513 
Q 2838 3956 3353 3634 
z
" transform="scale(0.015625)"/>
      <path id="IPAexGothic-4ef6" d="M 3903 3425 
L 2906 3425 
Q 2697 2825 2309 2247 
L 1991 2572 
Q 2588 3497 2803 4788 
L 3256 4713 
Q 3175 4313 3041 3834 
L 3903 3834 
L 3903 5250 
L 4356 5250 
L 4356 3834 
L 5731 3834 
L 5731 3425 
L 4356 3425 
L 4356 2009 
L 6041 2009 
L 6041 1594 
L 4356 1594 
L 4356 -447 
L 3903 -447 
L 3903 1594 
L 2078 1594 
L 2078 2009 
L 3903 2009 
L 3903 3425 
z
M 1638 3681 
L 1638 -447 
L 1169 -447 
L 1169 2753 
Q 881 2272 575 1863 
L 313 2253 
Q 1238 3463 1650 5184 
L 2125 5069 
Q 1909 4316 1638 3681 
z
" transform="scale(0.015625)"/>
      <path id="IPAexGothic-306f" d="M 4066 4875 
L 4538 4875 
L 4556 3769 
Q 5003 3816 5581 3941 
L 5619 3469 
Q 5256 3394 4563 3322 
L 4597 1441 
Q 5100 1284 5934 756 
L 5656 313 
Q 5066 772 4609 978 
Q 4609 441 4384 225 
Q 4128 -13 3634 -13 
Q 2991 -13 2669 231 
Q 2388 444 2388 831 
Q 2388 1225 2772 1484 
Q 3050 1669 3534 1669 
Q 3759 1669 4134 1594 
L 4097 3288 
Q 3697 3269 3359 3269 
Q 2925 3269 2484 3300 
L 2466 3763 
Q 2953 3716 3456 3716 
Q 3738 3716 4091 3738 
L 4066 4875 
z
M 4141 1153 
Q 3753 1259 3513 1259 
Q 2841 1259 2841 850 
Q 2841 422 3634 422 
Q 3888 422 4022 569 
Q 4141 700 4141 922 
Q 4141 1088 4141 1153 
z
M 1000 -50 
Q 794 1072 794 1931 
Q 794 3153 1247 4884 
L 1728 4763 
Q 1269 3044 1269 1900 
Q 1269 1569 1306 1106 
Q 1591 1706 1753 1997 
L 2075 1806 
Q 1484 716 1484 141 
Q 1484 72 1491 0 
L 1000 -50 
z
" transform="scale(0.015625)"/>
      <path id="IPAexGothic-3067" d="M 581 4034 
Q 2978 4363 5466 4556 
L 5509 4097 
Q 4388 4031 3750 3572 
Q 2797 2878 2797 1913 
Q 2797 1169 3291 819 
Q 3778 484 4869 416 
L 4906 -116 
Q 2278 0 2278 1850 
Q 2278 3125 3691 4000 
Q 2066 3784 684 3553 
L 581 4034 
z
M 5631 2522 
Q 5269 3063 4875 3391 
L 5175 3622 
Q 5559 3313 5950 2797 
L 5631 2522 
z
M 5034 2053 
Q 4747 2544 4300 2944 
L 4613 3184 
Q 4984 2878 5369 2328 
L 5034 2053 
z
" transform="scale(0.015625)"/>
      <path id="IPAexGothic-3059" d="M 3322 5075 
L 3816 5075 
L 3816 4063 
Q 4131 4075 5756 4116 
L 5756 3669 
Q 5431 3672 3816 3653 
L 3816 2463 
Q 3956 2125 3956 1741 
Q 3956 922 3519 397 
Q 3128 -72 2309 -409 
L 1941 -31 
Q 3263 453 3488 1363 
Q 3250 1031 2809 1031 
Q 2441 1031 2150 1313 
Q 1875 1588 1875 2050 
Q 1875 2475 2166 2769 
Q 2431 3041 2822 3041 
Q 3088 3041 3322 2881 
L 3322 3641 
Q 3000 3634 609 3547 
L 609 3988 
Q 1197 4000 2106 4022 
Q 3066 4047 3322 4050 
L 3322 5075 
z
M 3372 2044 
Q 3372 2300 3194 2478 
Q 3050 2613 2869 2613 
Q 2622 2613 2463 2406 
Q 2344 2250 2344 2088 
Q 2344 1797 2484 1622 
Q 2625 1453 2859 1453 
Q 3372 1453 3372 2044 
z
" transform="scale(0.015625)"/>
      <path id="IPAexGothic-29" d="M 466 4909 
Q 1638 3672 1638 1875 
Q 1638 75 466 -1166 
L 191 -1016 
Q 1119 216 1119 1881 
Q 1119 3509 191 4763 
L 466 4909 
z
" transform="scale(0.015625)"/>
     </defs>
     <use xlink:href="#IPAexGothic-70"/>
     <use xlink:href="#IPAexGothic-72" transform="translate(62.109375 0)"/>
     <use xlink:href="#IPAexGothic-69" transform="translate(99.121094 0)"/>
     <use xlink:href="#IPAexGothic-6e" transform="translate(126.123047 0)"/>
     <use xlink:href="#IPAexGothic-74" transform="translate(186.523438 0)"/>
     <use xlink:href="#IPAexGothic-28" transform="translate(221.142578 0)"/>
     <use xlink:href="#IPAexGothic-27" transform="translate(254.443359 0)"/>
     <use xlink:href="#IPAexGothic-6761" transform="translate(273.730469 0)"/>
     <use xlink:href="#IPAexGothic-4ef6" transform="translate(373.730469 0)"/>
     <use xlink:href="#IPAexGothic-306f" transform="translate(473.730469 0)"/>
     <use xlink:href="#IPAexGothic-54" transform="translate(573.730469 0)"/>
     <use xlink:href="#IPAexGothic-72" transform="translate(633.642578 0)"/>
     <use xlink:href="#IPAexGothic-75" transform="translate(670.654297 0)"/>
     <use xlink:href="#IPAexGothic-65" transform="translate(731.054688 0)"/>
     <use xlink:href="#IPAexGothic-3067" transform="translate(787.939453 0)"/>
     <use xlink:href="#IPAexGothic-3059" transform="translate(887.939453 0)"/>
     <use xlink:href="#IPAexGothic-27" transform="translate(987.939453 0)"/>
     <use xlink:href="#IPAexGothic-29" transform="translate(1007.226562 0)"/>
    </g>
   </g>
   <g id="text_7">
    <!-- END -->
    <g transform="translate(223.896875 220.993438) scale(0.14 -0.14)">
     <defs>
      <path id="IPAexGothic-45" d="M 3547 63 
L 609 63 
L 609 4634 
L 3469 4634 
L 3469 4147 
L 1166 4147 
L 1166 2650 
L 3206 2650 
L 3206 2191 
L 1166 2191 
L 1166 556 
L 3547 556 
L 3547 63 
z
" transform="scale(0.015625)"/>
      <path id="IPAexGothic-4e" d="M 4244 63 
L 3731 63 
L 1697 3150 
Q 1466 3500 1141 4097 
L 1116 4097 
L 1128 3797 
Q 1159 2803 1159 2469 
L 1159 63 
L 609 63 
L 609 4634 
L 1366 4634 
L 3113 1978 
Q 3453 1447 3713 966 
L 3738 966 
Q 3694 1897 3694 2469 
L 3694 4634 
L 4244 4634 
L 4244 63 
z
" transform="scale(0.015625)"/>
      <path id="IPAexGothic-44" d="M 609 4634 
L 1984 4634 
Q 3159 4634 3791 4050 
Q 4456 3444 4456 2356 
Q 4456 1047 3516 441 
Q 2925 63 1941 63 
L 609 63 
L 609 4634 
z
M 1172 556 
L 1894 556 
Q 3853 556 3853 2356 
Q 3853 4147 1928 4147 
L 1172 4147 
L 1172 556 
z
" transform="scale(0.015625)"/>
     </defs>
     <use xlink:href="#IPAexGothic-45"/>
     <use xlink:href="#IPAexGothic-4e" transform="translate(59.521484 0)"/>
     <use xlink:href="#IPAexGothic-44" transform="translate(135.498047 0)"/>
    </g>
   </g>
   <g id="text_8">
    <!-- END -->
    <g transform="translate(43.896875 235.393438) scale(0.14 -0.14)">
     <use xlink:href="#IPAexGothic-45"/>
     <use xlink:href="#IPAexGothic-4e" transform="translate(59.521484 0)"/>
     <use xlink:href="#IPAexGothic-44" transform="translate(135.498047 0)"/>
    </g>
   </g>
  </g>
 </g>
 <defs>
  <clipPath id="pd8b0d80c2d">
   <rect x="0" y="0" width="315.36" height="254.16"/>
  </clipPath>
 </defs>
</svg>