<?xml version="1.0" encoding="utf-8" standalone="no"?>
<!DOCTYPE svg PUBLIC "-//W3C//DTD SVG 1.1//EN"
  "http://www.w3.org/Graphics/SVG/1.1/DTD/svg11.dtd">
<svg xmlns:xlink="http://www.w3.org/1999/xlink" width="393.3pt" height="355.68pt" viewBox="0 0 393.3 355.68" xmlns="http://www.w3.org/2000/svg" version="1.1">
 <metadata>
  <rdf:RDF xmlns:dc="http://purl.org/dc/elements/1.1/" xmlns:cc="http://creativecommons.org/ns#" xmlns:rdf="http://www.w3.org/1999/02/22-rdf-syntax-ns#">
   <cc:Work>
    <dc:type rdf:resource="http://purl.org/dc/dcmitype/StillImage"/>
    <dc:date>2024-03-09T02:32:50.112514</dc:date>
    <dc:format>image/svg+xml</dc:format>
    <dc:creator>
     <cc:Agent>
      <dc:title>Matplotlib v3.8.3, https://matplotlib.org/</dc:title>
     </cc:Agent>
    </dc:creator>
   </cc:Work>
  </rdf:RDF>
 </metadata>
 <defs>
  <style type="text/css">*{stroke-linejoin: round; stroke-linecap: butt}</style>
 </defs>
 <g id="figure_1">
  <g id="patch_1">
   <path d="M 0 355.68 
L 393.3 355.68 
L 393.3 0 
L 0 0 
z
" style="fill: #ffffff"/>
  </g>
  <g id="axes_1">
   <g id="patch_2">
    <path d="M 102.15 55.44 
L 102.435587 55.437734 
L 102.721103 55.430938 
L 103.006474 55.419612 
L 103.291631 55.40376 
L 103.576499 55.383386 
L 103.861009 55.358495 
L 104.145088 55.329092 
L 104.428664 55.295187 
L 104.711667 55.256786 
L 104.994025 55.2139 
L 105.275667 55.16654 
L 105.556522 55.114717 
L 105.83652 55.058444 
L 106.11559 54.997736 
L 106.393661 54.932608 
L 106.670664 54.863077 
L 106.946529 54.789159 
L 107.221186 54.710874 
L 107.494567 54.62824 
L 107.766602 54.54128 
L 108.037223 54.450015 
L 108.306363 54.354467 
L 108.573952 54.254661 
L 108.839924 54.150623 
L 109.104212 54.042377 
L 109.36675 53.929952 
L 109.62747 53.813376 
L 109.886308 53.692678 
L 110.143199 53.567888 
L 110.398077 53.439038 
L 110.650879 53.306161 
L 110.901541 53.169289 
L 111.15 53.028457 
L 111.396193 52.883701 
L 111.640058 52.735058 
L 111.881535 52.582564 
L 112.120561 52.426257 
L 112.357078 52.266178 
L 112.591024 52.102367 
L 112.822343 51.934865 
L 113.050974 51.763713 
L 113.276862 51.588956 
L 113.499948 51.410636 
L 113.720177 51.2288 
L 113.937493 51.043492 
L 114.151842 50.85476 
L 114.363169 50.662651 
L 114.571422 50.467213 
L 114.776548 50.268495 
L 114.978495 50.066548 
L 115.177213 49.861422 
L 115.372651 49.653169 
L 115.56476 49.441842 
L 115.753492 49.227493 
L 115.9388 49.010177 
L 116.120636 48.789948 
L 116.298956 48.566862 
L 116.473713 48.340974 
L 116.644865 48.112343 
L 116.812367 47.881024 
L 116.976178 47.647078 
L 117.136257 47.410561 
L 117.292564 47.171535 
L 117.445058 46.930058 
L 117.593701 46.686193 
L 117.738457 46.44 
L 117.879289 46.191541 
L 118.016161 45.940879 
L 118.149038 45.688077 
L 118.277888 45.433199 
L 118.402678 45.176308 
L 118.523376 44.91747 
L 118.639952 44.65675 
L 118.752377 44.394212 
L 118.860623 44.129924 
L 118.964661 43.863952 
L 119.064467 43.596363 
L 119.160015 43.327223 
L 119.25128 43.056602 
L 119.33824 42.784567 
L 119.420874 42.511186 
L 119.499159 42.236529 
L 119.573077 41.960664 
L 119.642608 41.683661 
L 119.707736 41.40559 
L 119.768444 41.12652 
L 119.824717 40.846522 
L 119.87654 40.565667 
L 119.9239 40.284025 
L 119.966786 40.001667 
L 120.005187 39.718664 
L 120.039092 39.435088 
L 120.068495 39.151009 
L 120.093386 38.866499 
L 120.11376 38.581631 
L 120.129612 38.296474 
L 120.140938 38.011103 
L 120.147734 37.725587 
L 120.15 37.44 
L 120.15 37.44 
L 120.147734 37.154413 
L 120.140938 36.868897 
L 120.129612 36.583526 
L 120.11376 36.298369 
L 120.093386 36.013501 
L 120.068495 35.728991 
L 120.039092 35.444912 
L 120.005187 35.161336 
L 119.966786 34.878333 
L 119.9239 34.595975 
L 119.87654 34.314333 
L 119.824717 34.033478 
L 119.768444 33.75348 
L 119.707736 33.47441 
L 119.642608 33.196339 
L 119.573077 32.919336 
L 119.499159 32.643471 
L 119.420874 32.368814 
L 119.33824 32.095433 
L 119.25128 31.823398 
L 119.160015 31.552777 
L 119.064467 31.283637 
L 118.964661 31.016048 
L 118.860623 30.750076 
L 118.752377 30.485788 
L 118.639952 30.22325 
L 118.523376 29.96253 
L 118.402678 29.703692 
L 118.277888 29.446801 
L 118.149038 29.191923 
L 118.016161 28.939121 
L 117.879289 28.688459 
L 117.738457 28.44 
L 117.593701 28.193807 
L 117.445058 27.949942 
L 117.292564 27.708465 
L 117.136257 27.469439 
L 116.976178 27.232922 
L 116.812367 26.998976 
L 116.644865 26.767657 
L 116.473713 26.539026 
L 116.298956 26.313138 
L 116.120636 26.090052 
L 115.9388 25.869823 
L 115.753492 25.652507 
L 115.56476 25.438158 
L 115.372651 25.226831 
L 115.177213 25.018578 
L 114.978495 24.813452 
L 114.776548 24.611505 
L 114.571422 24.412787 
L 114.363169 24.217349 
L 114.151842 24.02524 
L 113.937493 23.836508 
L 113.720177 23.6512 
L 113.499948 23.469364 
L 113.276862 23.291044 
L 113.050974 23.116287 
L 112.822343 22.945135 
L 112.591024 22.777633 
L 112.357078 22.613822 
L 112.120561 22.453743 
L 111.881535 22.297436 
L 111.640058 22.144942 
L 111.396193 21.996299 
L 111.15 21.851543 
L 110.901541 21.710711 
L 110.650879 21.573839 
L 110.398077 21.440962 
L 110.143199 21.312112 
L 109.886308 21.187322 
L 109.62747 21.066624 
L 109.36675 20.950048 
L 109.104212 20.837623 
L 108.839924 20.729377 
L 108.573952 20.625339 
L 108.306363 20.525533 
L 108.037223 20.429985 
L 107.766602 20.33872 
L 107.494567 20.25176 
L 107.221186 20.169126 
L 106.946529 20.090841 
L 106.670664 20.016923 
L 106.393661 19.947392 
L 106.11559 19.882264 
L 105.83652 19.821556 
L 105.556522 19.765283 
L 105.275667 19.71346 
L 104.994025 19.6661 
L 104.711667 19.623214 
L 104.428664 19.584813 
L 104.145088 19.550908 
L 103.861009 19.521505 
L 103.576499 19.496614 
L 103.291631 19.47624 
L 103.006474 19.460388 
L 102.721103 19.449062 
L 102.435587 19.442266 
L 102.15 19.44 
L 66.15 19.44 
L 65.864413 19.442266 
L 65.578897 19.449062 
L 65.293526 19.460388 
L 65.008369 19.47624 
L 64.723501 19.496614 
L 64.438991 19.521505 
L 64.154912 19.550908 
L 63.871336 19.584813 
L 63.588333 19.623214 
L 63.305975 19.6661 
L 63.024333 19.71346 
L 62.743478 19.765283 
L 62.46348 19.821556 
L 62.18441 19.882264 
L 61.906339 19.947392 
L 61.629336 20.016923 
L 61.353471 20.090841 
L 61.078814 20.169126 
L 60.805433 20.25176 
L 60.533398 20.33872 
L 60.262777 20.429985 
L 59.993637 20.525533 
L 59.726048 20.625339 
L 59.460076 20.729377 
L 59.195788 20.837623 
L 58.93325 20.950048 
L 58.67253 21.066624 
L 58.413692 21.187322 
L 58.156801 21.312112 
L 57.901923 21.440962 
L 57.649121 21.573839 
L 57.398459 21.710711 
L 57.15 21.851543 
L 56.903807 21.996299 
L 56.659942 22.144942 
L 56.418465 22.297436 
L 56.179439 22.453743 
L 55.942922 22.613822 
L 55.708976 22.777633 
L 55.477657 22.945135 
L 55.249026 23.116287 
L 55.023138 23.291044 
L 54.800052 23.469364 
L 54.579823 23.6512 
L 54.362507 23.836508 
L 54.148158 24.02524 
L 53.936831 24.217349 
L 53.728578 24.412787 
L 53.523452 24.611505 
L 53.321505 24.813452 
L 53.122787 25.018578 
L 52.927349 25.226831 
L 52.73524 25.438158 
L 52.546508 25.652507 
L 52.3612 25.869823 
L 52.179364 26.090052 
L 52.001044 26.313138 
L 51.826287 26.539026 
L 51.655135 26.767657 
L 51.487633 26.998976 
L 51.323822 27.232922 
L 51.163743 27.469439 
L 51.007436 27.708465 
L 50.854942 27.949942 
L 50.706299 28.193807 
L 50.561543 28.44 
L 50.420711 28.688459 
L 50.283839 28.939121 
L 50.150962 29.191923 
L 50.022112 29.446801 
L 49.897322 29.703692 
L 49.776624 29.96253 
L 49.660048 30.22325 
L 49.547623 30.485788 
L 49.439377 30.750076 
L 49.335339 31.016048 
L 49.235533 31.283637 
L 49.139985 31.552777 
L 49.04872 31.823398 
L 48.96176 32.095433 
L 48.879126 32.368814 
L 48.800841 32.643471 
L 48.726923 32.919336 
L 48.657392 33.196339 
L 48.592264 33.47441 
L 48.531556 33.75348 
L 48.475283 34.033478 
L 48.42346 34.314333 
L 48.3761 34.595975 
L 48.333214 34.878333 
L 48.294813 35.161336 
L 48.260908 35.444912 
L 48.231505 35.728991 
L 48.206614 36.013501 
L 48.18624 36.298369 
L 48.170388 36.583526 
L 48.159062 36.868897 
L 48.152266 37.154413 
L 48.15 37.44 
L 48.15 37.44 
L 48.152266 37.725587 
L 48.159062 38.011103 
L 48.170388 38.296474 
L 48.18624 38.581631 
L 48.206614 38.866499 
L 48.231505 39.151009 
L 48.260908 39.435088 
L 48.294813 39.718664 
L 48.333214 40.001667 
L 48.3761 40.284025 
L 48.42346 40.565667 
L 48.475283 40.846522 
L 48.531556 41.12652 
L 48.592264 41.40559 
L 48.657392 41.683661 
L 48.726923 41.960664 
L 48.800841 42.236529 
L 48.879126 42.511186 
L 48.96176 42.784567 
L 49.04872 43.056602 
L 49.139985 43.327223 
L 49.235533 43.596363 
L 49.335339 43.863952 
L 49.439377 44.129924 
L 49.547623 44.394212 
L 49.660048 44.65675 
L 49.776624 44.91747 
L 49.897322 45.176308 
L 50.022112 45.433199 
L 50.150962 45.688077 
L 50.283839 45.940879 
L 50.420711 46.191541 
L 50.561543 46.44 
L 50.706299 46.686193 
L 50.854942 46.930058 
L 51.007436 47.171535 
L 51.163743 47.410561 
L 51.323822 47.647078 
L 51.487633 47.881024 
L 51.655135 48.112343 
L 51.826287 48.340974 
L 52.001044 48.566862 
L 52.179364 48.789948 
L 52.3612 49.010177 
L 52.546508 49.227493 
L 52.73524 49.441842 
L 52.927349 49.653169 
L 53.122787 49.861422 
L 53.321505 50.066548 
L 53.523452 50.268495 
L 53.728578 50.467213 
L 53.936831 50.662651 
L 54.148158 50.85476 
L 54.362507 51.043492 
L 54.579823 51.2288 
L 54.800052 51.410636 
L 55.023138 51.588956 
L 55.249026 51.763713 
L 55.477657 51.934865 
L 55.708976 52.102367 
L 55.942922 52.266178 
L 56.179439 52.426257 
L 56.418465 52.582564 
L 56.659942 52.735058 
L 56.903807 52.883701 
L 57.15 53.028457 
L 57.398459 53.169289 
L 57.649121 53.306161 
L 57.901923 53.439038 
L 58.156801 53.567888 
L 58.413692 53.692678 
L 58.67253 53.813376 
L 58.93325 53.929952 
L 59.195788 54.042377 
L 59.460076 54.150623 
L 59.726048 54.254661 
L 59.993637 54.354467 
L 60.262777 54.450015 
L 60.533398 54.54128 
L 60.805433 54.62824 
L 61.078814 54.710874 
L 61.353471 54.789159 
L 61.629336 54.863077 
L 61.906339 54.932608 
L 62.18441 54.997736 
L 62.46348 55.058444 
L 62.743478 55.114717 
L 63.024333 55.16654 
L 63.305975 55.2139 
L 63.588333 55.256786 
L 63.871336 55.295187 
L 64.154912 55.329092 
L 64.438991 55.358495 
L 64.723501 55.383386 
L 65.008369 55.40376 
L 65.293526 55.419612 
L 65.578897 55.430938 
L 65.864413 55.437734 
L 66.15 55.44 
L 102.15 55.44 
z
" clip-path="url(#p3133609fd1)" style="fill: none; stroke: #000000; stroke-linecap: round"/>
   </g>
   <g id="patch_3">
    <path d="M 21.15 104.04 
L 84.15 82.44 
L 147.15 104.04 
L 84.15 125.64 
L 21.15 104.04 
z
" clip-path="url(#p3133609fd1)" style="fill: none; stroke: #000000; stroke-linecap: round"/>
   </g>
   <g id="patch_4">
    <path d="M 354.15 122.04 
L 354.435587 122.037734 
L 354.721103 122.030938 
L 355.006474 122.019612 
L 355.291631 122.00376 
L 355.576499 121.983386 
L 355.861009 121.958495 
L 356.145088 121.929092 
L 356.428664 121.895187 
L 356.711667 121.856786 
L 356.994025 121.8139 
L 357.275667 121.76654 
L 357.556522 121.714717 
L 357.83652 121.658444 
L 358.11559 121.597736 
L 358.393661 121.532608 
L 358.670664 121.463077 
L 358.946529 121.389159 
L 359.221186 121.310874 
L 359.494567 121.22824 
L 359.766602 121.14128 
L 360.037223 121.050015 
L 360.306363 120.954467 
L 360.573952 120.854661 
L 360.839924 120.750623 
L 361.104212 120.642377 
L 361.36675 120.529952 
L 361.62747 120.413376 
L 361.886308 120.292678 
L 362.143199 120.167888 
L 362.398077 120.039038 
L 362.650879 119.906161 
L 362.901541 119.769289 
L 363.15 119.628457 
L 363.396193 119.483701 
L 363.640058 119.335058 
L 363.881535 119.182564 
L 364.120561 119.026257 
L 364.357078 118.866178 
L 364.591024 118.702367 
L 364.822343 118.534865 
L 365.050974 118.363713 
L 365.276862 118.188956 
L 365.499948 118.010636 
L 365.720177 117.8288 
L 365.937493 117.643492 
L 366.151842 117.45476 
L 366.363169 117.262651 
L 366.571422 117.067213 
L 366.776548 116.868495 
L 366.978495 116.666548 
L 367.177213 116.461422 
L 367.372651 116.253169 
L 367.56476 116.041842 
L 367.753492 115.827493 
L 367.9388 115.610177 
L 368.120636 115.389948 
L 368.298956 115.166862 
L 368.473713 114.940974 
L 368.644865 114.712343 
L 368.812367 114.481024 
L 368.976178 114.247078 
L 369.136257 114.010561 
L 369.292564 113.771535 
L 369.445058 113.530058 
L 369.593701 113.286193 
L 369.738457 113.04 
L 369.879289 112.791541 
L 370.016161 112.540879 
L 370.149038 112.288077 
L 370.277888 112.033199 
L 370.402678 111.776308 
L 370.523376 111.51747 
L 370.639952 111.25675 
L 370.752377 110.994212 
L 370.860623 110.729924 
L 370.964661 110.463952 
L 371.064467 110.196363 
L 371.160015 109.927223 
L 371.25128 109.656602 
L 371.33824 109.384567 
L 371.420874 109.111186 
L 371.499159 108.836529 
L 371.573077 108.560664 
L 371.642608 108.283661 
L 371.707736 108.00559 
L 371.768444 107.72652 
L 371.824717 107.446522 
L 371.87654 107.165667 
L 371.9239 106.884025 
L 371.966786 106.601667 
L 372.005187 106.318664 
L 372.039092 106.035088 
L 372.068495 105.751009 
L 372.093386 105.466499 
L 372.11376 105.181631 
L 372.129612 104.896474 
L 372.140938 104.611103 
L 372.147734 104.325587 
L 372.15 104.04 
L 372.15 104.04 
L 372.147734 103.754413 
L 372.140938 103.468897 
L 372.129612 103.183526 
L 372.11376 102.898369 
L 372.093386 102.613501 
L 372.068495 102.328991 
L 372.039092 102.044912 
L 372.005187 101.761336 
L 371.966786 101.478333 
L 371.9239 101.195975 
L 371.87654 100.914333 
L 371.824717 100.633478 
L 371.768444 100.35348 
L 371.707736 100.07441 
L 371.642608 99.796339 
L 371.573077 99.519336 
L 371.499159 99.243471 
L 371.420874 98.968814 
L 371.33824 98.695433 
L 371.25128 98.423398 
L 371.160015 98.152777 
L 371.064467 97.883637 
L 370.964661 97.616048 
L 370.860623 97.350076 
L 370.752377 97.085788 
L 370.639952 96.82325 
L 370.523376 96.56253 
L 370.402678 96.303692 
L 370.277888 96.046801 
L 370.149038 95.791923 
L 370.016161 95.539121 
L 369.879289 95.288459 
L 369.738457 95.04 
L 369.593701 94.793807 
L 369.445058 94.549942 
L 369.292564 94.308465 
L 369.136257 94.069439 
L 368.976178 93.832922 
L 368.812367 93.598976 
L 368.644865 93.367657 
L 368.473713 93.139026 
L 368.298956 92.913138 
L 368.120636 92.690052 
L 367.9388 92.469823 
L 367.753492 92.252507 
L 367.56476 92.038158 
L 367.372651 91.826831 
L 367.177213 91.618578 
L 366.978495 91.413452 
L 366.776548 91.211505 
L 366.571422 91.012787 
L 366.363169 90.817349 
L 366.151842 90.62524 
L 365.937493 90.436508 
L 365.720177 90.2512 
L 365.499948 90.069364 
L 365.276862 89.891044 
L 365.050974 89.716287 
L 364.822343 89.545135 
L 364.591024 89.377633 
L 364.357078 89.213822 
L 364.120561 89.053743 
L 363.881535 88.897436 
L 363.640058 88.744942 
L 363.396193 88.596299 
L 363.15 88.451543 
L 362.901541 88.310711 
L 362.650879 88.173839 
L 362.398077 88.040962 
L 362.143199 87.912112 
L 361.886308 87.787322 
L 361.62747 87.666624 
L 361.36675 87.550048 
L 361.104212 87.437623 
L 360.839924 87.329377 
L 360.573952 87.225339 
L 360.306363 87.125533 
L 360.037223 87.029985 
L 359.766602 86.93872 
L 359.494567 86.85176 
L 359.221186 86.769126 
L 358.946529 86.690841 
L 358.670664 86.616923 
L 358.393661 86.547392 
L 358.11559 86.482264 
L 357.83652 86.421556 
L 357.556522 86.365283 
L 357.275667 86.31346 
L 356.994025 86.2661 
L 356.711667 86.223214 
L 356.428664 86.184813 
L 356.145088 86.150908 
L 355.861009 86.121505 
L 355.576499 86.096614 
L 355.291631 86.07624 
L 355.006474 86.060388 
L 354.721103 86.049062 
L 354.435587 86.042266 
L 354.15 86.04 
L 318.15 86.04 
L 317.864413 86.042266 
L 317.578897 86.049062 
L 317.293526 86.060388 
L 317.008369 86.07624 
L 316.723501 86.096614 
L 316.438991 86.121505 
L 316.154912 86.150908 
L 315.871336 86.184813 
L 315.588333 86.223214 
L 315.305975 86.2661 
L 315.024333 86.31346 
L 314.743478 86.365283 
L 314.46348 86.421556 
L 314.18441 86.482264 
L 313.906339 86.547392 
L 313.629336 86.616923 
L 313.353471 86.690841 
L 313.078814 86.769126 
L 312.805433 86.85176 
L 312.533398 86.93872 
L 312.262777 87.029985 
L 311.993637 87.125533 
L 311.726048 87.225339 
L 311.460076 87.329377 
L 311.195788 87.437623 
L 310.93325 87.550048 
L 310.67253 87.666624 
L 310.413692 87.787322 
L 310.156801 87.912112 
L 309.901923 88.040962 
L 309.649121 88.173839 
L 309.398459 88.310711 
L 309.15 88.451543 
L 308.903807 88.596299 
L 308.659942 88.744942 
L 308.418465 88.897436 
L 308.179439 89.053743 
L 307.942922 89.213822 
L 307.708976 89.377633 
L 307.477657 89.545135 
L 307.249026 89.716287 
L 307.023138 89.891044 
L 306.800052 90.069364 
L 306.579823 90.2512 
L 306.362507 90.436508 
L 306.148158 90.62524 
L 305.936831 90.817349 
L 305.728578 91.012787 
L 305.523452 91.211505 
L 305.321505 91.413452 
L 305.122787 91.618578 
L 304.927349 91.826831 
L 304.73524 92.038158 
L 304.546508 92.252507 
L 304.3612 92.469823 
L 304.179364 92.690052 
L 304.001044 92.913138 
L 303.826287 93.139026 
L 303.655135 93.367657 
L 303.487633 93.598976 
L 303.323822 93.832922 
L 303.163743 94.069439 
L 303.007436 94.308465 
L 302.854942 94.549942 
L 302.706299 94.793807 
L 302.561543 95.04 
L 302.420711 95.288459 
L 302.283839 95.539121 
L 302.150962 95.791923 
L 302.022112 96.046801 
L 301.897322 96.303692 
L 301.776624 96.56253 
L 301.660048 96.82325 
L 301.547623 97.085788 
L 301.439377 97.350076 
L 301.335339 97.616048 
L 301.235533 97.883637 
L 301.139985 98.152777 
L 301.04872 98.423398 
L 300.96176 98.695433 
L 300.879126 98.968814 
L 300.800841 99.243471 
L 300.726923 99.519336 
L 300.657392 99.796339 
L 300.592264 100.07441 
L 300.531556 100.35348 
L 300.475283 100.633478 
L 300.42346 100.914333 
L 300.3761 101.195975 
L 300.333214 101.478333 
L 300.294813 101.761336 
L 300.260908 102.044912 
L 300.231505 102.328991 
L 300.206614 102.613501 
L 300.18624 102.898369 
L 300.170388 103.183526 
L 300.159062 103.468897 
L 300.152266 103.754413 
L 300.15 104.04 
L 300.15 104.04 
L 300.152266 104.325587 
L 300.159062 104.611103 
L 300.170388 104.896474 
L 300.18624 105.181631 
L 300.206614 105.466499 
L 300.231505 105.751009 
L 300.260908 106.035088 
L 300.294813 106.318664 
L 300.333214 106.601667 
L 300.3761 106.884025 
L 300.42346 107.165667 
L 300.475283 107.446522 
L 300.531556 107.72652 
L 300.592264 108.00559 
L 300.657392 108.283661 
L 300.726923 108.560664 
L 300.800841 108.836529 
L 300.879126 109.111186 
L 300.96176 109.384567 
L 301.04872 109.656602 
L 301.139985 109.927223 
L 301.235533 110.196363 
L 301.335339 110.463952 
L 301.439377 110.729924 
L 301.547623 110.994212 
L 301.660048 111.25675 
L 301.776624 111.51747 
L 301.897322 111.776308 
L 302.022112 112.033199 
L 302.150962 112.288077 
L 302.283839 112.540879 
L 302.420711 112.791541 
L 302.561543 113.04 
L 302.706299 113.286193 
L 302.854942 113.530058 
L 303.007436 113.771535 
L 303.163743 114.010561 
L 303.323822 114.247078 
L 303.487633 114.481024 
L 303.655135 114.712343 
L 303.826287 114.940974 
L 304.001044 115.166862 
L 304.179364 115.389948 
L 304.3612 115.610177 
L 304.546508 115.827493 
L 304.73524 116.041842 
L 304.927349 116.253169 
L 305.122787 116.461422 
L 305.321505 116.666548 
L 305.523452 116.868495 
L 305.728578 117.067213 
L 305.936831 117.262651 
L 306.148158 117.45476 
L 306.362507 117.643492 
L 306.579823 117.8288 
L 306.800052 118.010636 
L 307.023138 118.188956 
L 307.249026 118.363713 
L 307.477657 118.534865 
L 307.708976 118.702367 
L 307.942922 118.866178 
L 308.179439 119.026257 
L 308.418465 119.182564 
L 308.659942 119.335058 
L 308.903807 119.483701 
L 309.15 119.628457 
L 309.398459 119.769289 
L 309.649121 119.906161 
L 309.901923 120.039038 
L 310.156801 120.167888 
L 310.413692 120.292678 
L 310.67253 120.413376 
L 310.93325 120.529952 
L 311.195788 120.642377 
L 311.460076 120.750623 
L 311.726048 120.854661 
L 311.993637 120.954467 
L 312.262777 121.050015 
L 312.533398 121.14128 
L 312.805433 121.22824 
L 313.078814 121.310874 
L 313.353471 121.389159 
L 313.629336 121.463077 
L 313.906339 121.532608 
L 314.18441 121.597736 
L 314.46348 121.658444 
L 314.743478 121.714717 
L 315.024333 121.76654 
L 315.305975 121.8139 
L 315.588333 121.856786 
L 315.871336 121.895187 
L 316.154912 121.929092 
L 316.438991 121.958495 
L 316.723501 121.983386 
L 317.008369 122.00376 
L 317.293526 122.019612 
L 317.578897 122.030938 
L 317.864413 122.037734 
L 318.15 122.04 
L 354.15 122.04 
z
" clip-path="url(#p3133609fd1)" style="fill: none; stroke: #000000; stroke-linecap: round"/>
   </g>
   <g id="patch_5">
    <path d="M 21.15 183.24 
L 84.15 161.64 
L 147.15 183.24 
L 84.15 204.84 
L 21.15 183.24 
z
" clip-path="url(#p3133609fd1)" style="fill: none; stroke: #000000; stroke-linecap: round"/>
   </g>
   <g id="patch_6">
    <path d="M 354.15 201.24 
L 354.435587 201.237734 
L 354.721103 201.230938 
L 355.006474 201.219612 
L 355.291631 201.20376 
L 355.576499 201.183386 
L 355.861009 201.158495 
L 356.145088 201.129092 
L 356.428664 201.095187 
L 356.711667 201.056786 
L 356.994025 201.0139 
L 357.275667 200.96654 
L 357.556522 200.914717 
L 357.83652 200.858444 
L 358.11559 200.797736 
L 358.393661 200.732608 
L 358.670664 200.663077 
L 358.946529 200.589159 
L 359.221186 200.510874 
L 359.494567 200.42824 
L 359.766602 200.34128 
L 360.037223 200.250015 
L 360.306363 200.154467 
L 360.573952 200.054661 
L 360.839924 199.950623 
L 361.104212 199.842377 
L 361.36675 199.729952 
L 361.62747 199.613376 
L 361.886308 199.492678 
L 362.143199 199.367888 
L 362.398077 199.239038 
L 362.650879 199.106161 
L 362.901541 198.969289 
L 363.15 198.828457 
L 363.396193 198.683701 
L 363.640058 198.535058 
L 363.881535 198.382564 
L 364.120561 198.226257 
L 364.357078 198.066178 
L 364.591024 197.902367 
L 364.822343 197.734865 
L 365.050974 197.563713 
L 365.276862 197.388956 
L 365.499948 197.210636 
L 365.720177 197.0288 
L 365.937493 196.843492 
L 366.151842 196.65476 
L 366.363169 196.462651 
L 366.571422 196.267213 
L 366.776548 196.068495 
L 366.978495 195.866548 
L 367.177213 195.661422 
L 367.372651 195.453169 
L 367.56476 195.241842 
L 367.753492 195.027493 
L 367.9388 194.810177 
L 368.120636 194.589948 
L 368.298956 194.366862 
L 368.473713 194.140974 
L 368.644865 193.912343 
L 368.812367 193.681024 
L 368.976178 193.447078 
L 369.136257 193.210561 
L 369.292564 192.971535 
L 369.445058 192.730058 
L 369.593701 192.486193 
L 369.738457 192.24 
L 369.879289 191.991541 
L 370.016161 191.740879 
L 370.149038 191.488077 
L 370.277888 191.233199 
L 370.402678 190.976308 
L 370.523376 190.71747 
L 370.639952 190.45675 
L 370.752377 190.194212 
L 370.860623 189.929924 
L 370.964661 189.663952 
L 371.064467 189.396363 
L 371.160015 189.127223 
L 371.25128 188.856602 
L 371.33824 188.584567 
L 371.420874 188.311186 
L 371.499159 188.036529 
L 371.573077 187.760664 
L 371.642608 187.483661 
L 371.707736 187.20559 
L 371.768444 186.92652 
L 371.824717 186.646522 
L 371.87654 186.365667 
L 371.9239 186.084025 
L 371.966786 185.801667 
L 372.005187 185.518664 
L 372.039092 185.235088 
L 372.068495 184.951009 
L 372.093386 184.666499 
L 372.11376 184.381631 
L 372.129612 184.096474 
L 372.140938 183.811103 
L 372.147734 183.525587 
L 372.15 183.24 
L 372.15 183.24 
L 372.147734 182.954413 
L 372.140938 182.668897 
L 372.129612 182.383526 
L 372.11376 182.098369 
L 372.093386 181.813501 
L 372.068495 181.528991 
L 372.039092 181.244912 
L 372.005187 180.961336 
L 371.966786 180.678333 
L 371.9239 180.395975 
L 371.87654 180.114333 
L 371.824717 179.833478 
L 371.768444 179.55348 
L 371.707736 179.27441 
L 371.642608 178.996339 
L 371.573077 178.719336 
L 371.499159 178.443471 
L 371.420874 178.168814 
L 371.33824 177.895433 
L 371.25128 177.623398 
L 371.160015 177.352777 
L 371.064467 177.083637 
L 370.964661 176.816048 
L 370.860623 176.550076 
L 370.752377 176.285788 
L 370.639952 176.02325 
L 370.523376 175.76253 
L 370.402678 175.503692 
L 370.277888 175.246801 
L 370.149038 174.991923 
L 370.016161 174.739121 
L 369.879289 174.488459 
L 369.738457 174.24 
L 369.593701 173.993807 
L 369.445058 173.749942 
L 369.292564 173.508465 
L 369.136257 173.269439 
L 368.976178 173.032922 
L 368.812367 172.798976 
L 368.644865 172.567657 
L 368.473713 172.339026 
L 368.298956 172.113138 
L 368.120636 171.890052 
L 367.9388 171.669823 
L 367.753492 171.452507 
L 367.56476 171.238158 
L 367.372651 171.026831 
L 367.177213 170.818578 
L 366.978495 170.613452 
L 366.776548 170.411505 
L 366.571422 170.212787 
L 366.363169 170.017349 
L 366.151842 169.82524 
L 365.937493 169.636508 
L 365.720177 169.4512 
L 365.499948 169.269364 
L 365.276862 169.091044 
L 365.050974 168.916287 
L 364.822343 168.745135 
L 364.591024 168.577633 
L 364.357078 168.413822 
L 364.120561 168.253743 
L 363.881535 168.097436 
L 363.640058 167.944942 
L 363.396193 167.796299 
L 363.15 167.651543 
L 362.901541 167.510711 
L 362.650879 167.373839 
L 362.398077 167.240962 
L 362.143199 167.112112 
L 361.886308 166.987322 
L 361.62747 166.866624 
L 361.36675 166.750048 
L 361.104212 166.637623 
L 360.839924 166.529377 
L 360.573952 166.425339 
L 360.306363 166.325533 
L 360.037223 166.229985 
L 359.766602 166.13872 
L 359.494567 166.05176 
L 359.221186 165.969126 
L 358.946529 165.890841 
L 358.670664 165.816923 
L 358.393661 165.747392 
L 358.11559 165.682264 
L 357.83652 165.621556 
L 357.556522 165.565283 
L 357.275667 165.51346 
L 356.994025 165.4661 
L 356.711667 165.423214 
L 356.428664 165.384813 
L 356.145088 165.350908 
L 355.861009 165.321505 
L 355.576499 165.296614 
L 355.291631 165.27624 
L 355.006474 165.260388 
L 354.721103 165.249062 
L 354.435587 165.242266 
L 354.15 165.24 
L 318.15 165.24 
L 317.864413 165.242266 
L 317.578897 165.249062 
L 317.293526 165.260388 
L 317.008369 165.27624 
L 316.723501 165.296614 
L 316.438991 165.321505 
L 316.154912 165.350908 
L 315.871336 165.384813 
L 315.588333 165.423214 
L 315.305975 165.4661 
L 315.024333 165.51346 
L 314.743478 165.565283 
L 314.46348 165.621556 
L 314.18441 165.682264 
L 313.906339 165.747392 
L 313.629336 165.816923 
L 313.353471 165.890841 
L 313.078814 165.969126 
L 312.805433 166.05176 
L 312.533398 166.13872 
L 312.262777 166.229985 
L 311.993637 166.325533 
L 311.726048 166.425339 
L 311.460076 166.529377 
L 311.195788 166.637623 
L 310.93325 166.750048 
L 310.67253 166.866624 
L 310.413692 166.987322 
L 310.156801 167.112112 
L 309.901923 167.240962 
L 309.649121 167.373839 
L 309.398459 167.510711 
L 309.15 167.651543 
L 308.903807 167.796299 
L 308.659942 167.944942 
L 308.418465 168.097436 
L 308.179439 168.253743 
L 307.942922 168.413822 
L 307.708976 168.577633 
L 307.477657 168.745135 
L 307.249026 168.916287 
L 307.023138 169.091044 
L 306.800052 169.269364 
L 306.579823 169.4512 
L 306.362507 169.636508 
L 306.148158 169.82524 
L 305.936831 170.017349 
L 305.728578 170.212787 
L 305.523452 170.411505 
L 305.321505 170.613452 
L 305.122787 170.818578 
L 304.927349 171.026831 
L 304.73524 171.238158 
L 304.546508 171.452507 
L 304.3612 171.669823 
L 304.179364 171.890052 
L 304.001044 172.113138 
L 303.826287 172.339026 
L 303.655135 172.567657 
L 303.487633 172.798976 
L 303.323822 173.032922 
L 303.163743 173.269439 
L 303.007436 173.508465 
L 302.854942 173.749942 
L 302.706299 173.993807 
L 302.561543 174.24 
L 302.420711 174.488459 
L 302.283839 174.739121 
L 302.150962 174.991923 
L 302.022112 175.246801 
L 301.897322 175.503692 
L 301.776624 175.76253 
L 301.660048 176.02325 
L 301.547623 176.285788 
L 301.439377 176.550076 
L 301.335339 176.816048 
L 301.235533 177.083637 
L 301.139985 177.352777 
L 301.04872 177.623398 
L 300.96176 177.895433 
L 300.879126 178.168814 
L 300.800841 178.443471 
L 300.726923 178.719336 
L 300.657392 178.996339 
L 300.592264 179.27441 
L 300.531556 179.55348 
L 300.475283 179.833478 
L 300.42346 180.114333 
L 300.3761 180.395975 
L 300.333214 180.678333 
L 300.294813 180.961336 
L 300.260908 181.244912 
L 300.231505 181.528991 
L 300.206614 181.813501 
L 300.18624 182.098369 
L 300.170388 182.383526 
L 300.159062 182.668897 
L 300.152266 182.954413 
L 300.15 183.24 
L 300.15 183.24 
L 300.152266 183.525587 
L 300.159062 183.811103 
L 300.170388 184.096474 
L 300.18624 184.381631 
L 300.206614 184.666499 
L 300.231505 184.951009 
L 300.260908 185.235088 
L 300.294813 185.518664 
L 300.333214 185.801667 
L 300.3761 186.084025 
L 300.42346 186.365667 
L 300.475283 186.646522 
L 300.531556 186.92652 
L 300.592264 187.20559 
L 300.657392 187.483661 
L 300.726923 187.760664 
L 300.800841 188.036529 
L 300.879126 188.311186 
L 300.96176 188.584567 
L 301.04872 188.856602 
L 301.139985 189.127223 
L 301.235533 189.396363 
L 301.335339 189.663952 
L 301.439377 189.929924 
L 301.547623 190.194212 
L 301.660048 190.45675 
L 301.776624 190.71747 
L 301.897322 190.976308 
L 302.022112 191.233199 
L 302.150962 191.488077 
L 302.283839 191.740879 
L 302.420711 191.991541 
L 302.561543 192.24 
L 302.706299 192.486193 
L 302.854942 192.730058 
L 303.007436 192.971535 
L 303.163743 193.210561 
L 303.323822 193.447078 
L 303.487633 193.681024 
L 303.655135 193.912343 
L 303.826287 194.140974 
L 304.001044 194.366862 
L 304.179364 194.589948 
L 304.3612 194.810177 
L 304.546508 195.027493 
L 304.73524 195.241842 
L 304.927349 195.453169 
L 305.122787 195.661422 
L 305.321505 195.866548 
L 305.523452 196.068495 
L 305.728578 196.267213 
L 305.936831 196.462651 
L 306.148158 196.65476 
L 306.362507 196.843492 
L 306.579823 197.0288 
L 306.800052 197.210636 
L 307.023138 197.388956 
L 307.249026 197.563713 
L 307.477657 197.734865 
L 307.708976 197.902367 
L 307.942922 198.066178 
L 308.179439 198.226257 
L 308.418465 198.382564 
L 308.659942 198.535058 
L 308.903807 198.683701 
L 309.15 198.828457 
L 309.398459 198.969289 
L 309.649121 199.106161 
L 309.901923 199.239038 
L 310.156801 199.367888 
L 310.413692 199.492678 
L 310.67253 199.613376 
L 310.93325 199.729952 
L 311.195788 199.842377 
L 311.460076 199.950623 
L 311.726048 200.054661 
L 311.993637 200.154467 
L 312.262777 200.250015 
L 312.533398 200.34128 
L 312.805433 200.42824 
L 313.078814 200.510874 
L 313.353471 200.589159 
L 313.629336 200.663077 
L 313.906339 200.732608 
L 314.18441 200.797736 
L 314.46348 200.858444 
L 314.743478 200.914717 
L 315.024333 200.96654 
L 315.305975 201.0139 
L 315.588333 201.056786 
L 315.871336 201.095187 
L 316.154912 201.129092 
L 316.438991 201.158495 
L 316.723501 201.183386 
L 317.008369 201.20376 
L 317.293526 201.219612 
L 317.578897 201.230938 
L 317.864413 201.237734 
L 318.15 201.24 
L 354.15 201.24 
z
" clip-path="url(#p3133609fd1)" style="fill: none; stroke: #000000; stroke-linecap: round"/>
   </g>
   <g id="patch_7">
    <path d="M 102.15 336.24 
L 102.435587 336.237734 
L 102.721103 336.230938 
L 103.006474 336.219612 
L 103.291631 336.20376 
L 103.576499 336.183386 
L 103.861009 336.158495 
L 104.145088 336.129092 
L 104.428664 336.095187 
L 104.711667 336.056786 
L 104.994025 336.0139 
L 105.275667 335.96654 
L 105.556522 335.914717 
L 105.83652 335.858444 
L 106.11559 335.797736 
L 106.393661 335.732608 
L 106.670664 335.663077 
L 106.946529 335.589159 
L 107.221186 335.510874 
L 107.494567 335.42824 
L 107.766602 335.34128 
L 108.037223 335.250015 
L 108.306363 335.154467 
L 108.573952 335.054661 
L 108.839924 334.950623 
L 109.104212 334.842377 
L 109.36675 334.729952 
L 109.62747 334.613376 
L 109.886308 334.492678 
L 110.143199 334.367888 
L 110.398077 334.239038 
L 110.650879 334.106161 
L 110.901541 333.969289 
L 111.15 333.828457 
L 111.396193 333.683701 
L 111.640058 333.535058 
L 111.881535 333.382564 
L 112.120561 333.226257 
L 112.357078 333.066178 
L 112.591024 332.902367 
L 112.822343 332.734865 
L 113.050974 332.563713 
L 113.276862 332.388956 
L 113.499948 332.210636 
L 113.720177 332.0288 
L 113.937493 331.843492 
L 114.151842 331.65476 
L 114.363169 331.462651 
L 114.571422 331.267213 
L 114.776548 331.068495 
L 114.978495 330.866548 
L 115.177213 330.661422 
L 115.372651 330.453169 
L 115.56476 330.241842 
L 115.753492 330.027493 
L 115.9388 329.810177 
L 116.120636 329.589948 
L 116.298956 329.366862 
L 116.473713 329.140974 
L 116.644865 328.912343 
L 116.812367 328.681024 
L 116.976178 328.447078 
L 117.136257 328.210561 
L 117.292564 327.971535 
L 117.445058 327.730058 
L 117.593701 327.486193 
L 117.738457 327.24 
L 117.879289 326.991541 
L 118.016161 326.740879 
L 118.149038 326.488077 
L 118.277888 326.233199 
L 118.402678 325.976308 
L 118.523376 325.71747 
L 118.639952 325.45675 
L 118.752377 325.194212 
L 118.860623 324.929924 
L 118.964661 324.663952 
L 119.064467 324.396363 
L 119.160015 324.127223 
L 119.25128 323.856602 
L 119.33824 323.584567 
L 119.420874 323.311186 
L 119.499159 323.036529 
L 119.573077 322.760664 
L 119.642608 322.483661 
L 119.707736 322.20559 
L 119.768444 321.92652 
L 119.824717 321.646522 
L 119.87654 321.365667 
L 119.9239 321.084025 
L 119.966786 320.801667 
L 120.005187 320.518664 
L 120.039092 320.235088 
L 120.068495 319.951009 
L 120.093386 319.666499 
L 120.11376 319.381631 
L 120.129612 319.096474 
L 120.140938 318.811103 
L 120.147734 318.525587 
L 120.15 318.24 
L 120.15 318.24 
L 120.147734 317.954413 
L 120.140938 317.668897 
L 120.129612 317.383526 
L 120.11376 317.098369 
L 120.093386 316.813501 
L 120.068495 316.528991 
L 120.039092 316.244912 
L 120.005187 315.961336 
L 119.966786 315.678333 
L 119.9239 315.395975 
L 119.87654 315.114333 
L 119.824717 314.833478 
L 119.768444 314.55348 
L 119.707736 314.27441 
L 119.642608 313.996339 
L 119.573077 313.719336 
L 119.499159 313.443471 
L 119.420874 313.168814 
L 119.33824 312.895433 
L 119.25128 312.623398 
L 119.160015 312.352777 
L 119.064467 312.083637 
L 118.964661 311.816048 
L 118.860623 311.550076 
L 118.752377 311.285788 
L 118.639952 311.02325 
L 118.523376 310.76253 
L 118.402678 310.503692 
L 118.277888 310.246801 
L 118.149038 309.991923 
L 118.016161 309.739121 
L 117.879289 309.488459 
L 117.738457 309.24 
L 117.593701 308.993807 
L 117.445058 308.749942 
L 117.292564 308.508465 
L 117.136257 308.269439 
L 116.976178 308.032922 
L 116.812367 307.798976 
L 116.644865 307.567657 
L 116.473713 307.339026 
L 116.298956 307.113138 
L 116.120636 306.890052 
L 115.9388 306.669823 
L 115.753492 306.452507 
L 115.56476 306.238158 
L 115.372651 306.026831 
L 115.177213 305.818578 
L 114.978495 305.613452 
L 114.776548 305.411505 
L 114.571422 305.212787 
L 114.363169 305.017349 
L 114.151842 304.82524 
L 113.937493 304.636508 
L 113.720177 304.4512 
L 113.499948 304.269364 
L 113.276862 304.091044 
L 113.050974 303.916287 
L 112.822343 303.745135 
L 112.591024 303.577633 
L 112.357078 303.413822 
L 112.120561 303.253743 
L 111.881535 303.097436 
L 111.640058 302.944942 
L 111.396193 302.796299 
L 111.15 302.651543 
L 110.901541 302.510711 
L 110.650879 302.373839 
L 110.398077 302.240962 
L 110.143199 302.112112 
L 109.886308 301.987322 
L 109.62747 301.866624 
L 109.36675 301.750048 
L 109.104212 301.637623 
L 108.839924 301.529377 
L 108.573952 301.425339 
L 108.306363 301.325533 
L 108.037223 301.229985 
L 107.766602 301.13872 
L 107.494567 301.05176 
L 107.221186 300.969126 
L 106.946529 300.890841 
L 106.670664 300.816923 
L 106.393661 300.747392 
L 106.11559 300.682264 
L 105.83652 300.621556 
L 105.556522 300.565283 
L 105.275667 300.51346 
L 104.994025 300.4661 
L 104.711667 300.423214 
L 104.428664 300.384813 
L 104.145088 300.350908 
L 103.861009 300.321505 
L 103.576499 300.296614 
L 103.291631 300.27624 
L 103.006474 300.260388 
L 102.721103 300.249062 
L 102.435587 300.242266 
L 102.15 300.24 
L 66.15 300.24 
L 65.864413 300.242266 
L 65.578897 300.249062 
L 65.293526 300.260388 
L 65.008369 300.27624 
L 64.723501 300.296614 
L 64.438991 300.321505 
L 64.154912 300.350908 
L 63.871336 300.384813 
L 63.588333 300.423214 
L 63.305975 300.4661 
L 63.024333 300.51346 
L 62.743478 300.565283 
L 62.46348 300.621556 
L 62.18441 300.682264 
L 61.906339 300.747392 
L 61.629336 300.816923 
L 61.353471 300.890841 
L 61.078814 300.969126 
L 60.805433 301.05176 
L 60.533398 301.13872 
L 60.262777 301.229985 
L 59.993637 301.325533 
L 59.726048 301.425339 
L 59.460076 301.529377 
L 59.195788 301.637623 
L 58.93325 301.750048 
L 58.67253 301.866624 
L 58.413692 301.987322 
L 58.156801 302.112112 
L 57.901923 302.240962 
L 57.649121 302.373839 
L 57.398459 302.510711 
L 57.15 302.651543 
L 56.903807 302.796299 
L 56.659942 302.944942 
L 56.418465 303.097436 
L 56.179439 303.253743 
L 55.942922 303.413822 
L 55.708976 303.577633 
L 55.477657 303.745135 
L 55.249026 303.916287 
L 55.023138 304.091044 
L 54.800052 304.269364 
L 54.579823 304.4512 
L 54.362507 304.636508 
L 54.148158 304.82524 
L 53.936831 305.017349 
L 53.728578 305.212787 
L 53.523452 305.411505 
L 53.321505 305.613452 
L 53.122787 305.818578 
L 52.927349 306.026831 
L 52.73524 306.238158 
L 52.546508 306.452507 
L 52.3612 306.669823 
L 52.179364 306.890052 
L 52.001044 307.113138 
L 51.826287 307.339026 
L 51.655135 307.567657 
L 51.487633 307.798976 
L 51.323822 308.032922 
L 51.163743 308.269439 
L 51.007436 308.508465 
L 50.854942 308.749942 
L 50.706299 308.993807 
L 50.561543 309.24 
L 50.420711 309.488459 
L 50.283839 309.739121 
L 50.150962 309.991923 
L 50.022112 310.246801 
L 49.897322 310.503692 
L 49.776624 310.76253 
L 49.660048 311.02325 
L 49.547623 311.285788 
L 49.439377 311.550076 
L 49.335339 311.816048 
L 49.235533 312.083637 
L 49.139985 312.352777 
L 49.04872 312.623398 
L 48.96176 312.895433 
L 48.879126 313.168814 
L 48.800841 313.443471 
L 48.726923 313.719336 
L 48.657392 313.996339 
L 48.592264 314.27441 
L 48.531556 314.55348 
L 48.475283 314.833478 
L 48.42346 315.114333 
L 48.3761 315.395975 
L 48.333214 315.678333 
L 48.294813 315.961336 
L 48.260908 316.244912 
L 48.231505 316.528991 
L 48.206614 316.813501 
L 48.18624 317.098369 
L 48.170388 317.383526 
L 48.159062 317.668897 
L 48.152266 317.954413 
L 48.15 318.24 
L 48.15 318.24 
L 48.152266 318.525587 
L 48.159062 318.811103 
L 48.170388 319.096474 
L 48.18624 319.381631 
L 48.206614 319.666499 
L 48.231505 319.951009 
L 48.260908 320.235088 
L 48.294813 320.518664 
L 48.333214 320.801667 
L 48.3761 321.084025 
L 48.42346 321.365667 
L 48.475283 321.646522 
L 48.531556 321.92652 
L 48.592264 322.20559 
L 48.657392 322.483661 
L 48.726923 322.760664 
L 48.800841 323.036529 
L 48.879126 323.311186 
L 48.96176 323.584567 
L 49.04872 323.856602 
L 49.139985 324.127223 
L 49.235533 324.396363 
L 49.335339 324.663952 
L 49.439377 324.929924 
L 49.547623 325.194212 
L 49.660048 325.45675 
L 49.776624 325.71747 
L 49.897322 325.976308 
L 50.022112 326.233199 
L 50.150962 326.488077 
L 50.283839 326.740879 
L 50.420711 326.991541 
L 50.561543 327.24 
L 50.706299 327.486193 
L 50.854942 327.730058 
L 51.007436 327.971535 
L 51.163743 328.210561 
L 51.323822 328.447078 
L 51.487633 328.681024 
L 51.655135 328.912343 
L 51.826287 329.140974 
L 52.001044 329.366862 
L 52.179364 329.589948 
L 52.3612 329.810177 
L 52.546508 330.027493 
L 52.73524 330.241842 
L 52.927349 330.453169 
L 53.122787 330.661422 
L 53.321505 330.866548 
L 53.523452 331.068495 
L 53.728578 331.267213 
L 53.936831 331.462651 
L 54.148158 331.65476 
L 54.362507 331.843492 
L 54.579823 332.0288 
L 54.800052 332.210636 
L 55.023138 332.388956 
L 55.249026 332.563713 
L 55.477657 332.734865 
L 55.708976 332.902367 
L 55.942922 333.066178 
L 56.179439 333.226257 
L 56.418465 333.382564 
L 56.659942 333.535058 
L 56.903807 333.683701 
L 57.15 333.828457 
L 57.398459 333.969289 
L 57.649121 334.106161 
L 57.901923 334.239038 
L 58.156801 334.367888 
L 58.413692 334.492678 
L 58.67253 334.613376 
L 58.93325 334.729952 
L 59.195788 334.842377 
L 59.460076 334.950623 
L 59.726048 335.054661 
L 59.993637 335.154467 
L 60.262777 335.250015 
L 60.533398 335.34128 
L 60.805433 335.42824 
L 61.078814 335.510874 
L 61.353471 335.589159 
L 61.629336 335.663077 
L 61.906339 335.732608 
L 62.18441 335.797736 
L 62.46348 335.858444 
L 62.743478 335.914717 
L 63.024333 335.96654 
L 63.305975 336.0139 
L 63.588333 336.056786 
L 63.871336 336.095187 
L 64.154912 336.129092 
L 64.438991 336.158495 
L 64.723501 336.183386 
L 65.008369 336.20376 
L 65.293526 336.219612 
L 65.578897 336.230938 
L 65.864413 336.237734 
L 66.15 336.24 
L 102.15 336.24 
z
" clip-path="url(#p3133609fd1)" style="fill: none; stroke: #000000; stroke-linecap: round"/>
   </g>
   <g id="line2d_1">
    <path d="M 84.15 55.44 
L 84.15 68.94 
L 84.15 73.44 
" clip-path="url(#p3133609fd1)" style="fill: none; stroke: #000000; stroke-linecap: round"/>
   </g>
   <g id="patch_8">
    <path d="M 86.85 73.44 
L 84.15 82.44 
L 81.45 73.44 
z
" clip-path="url(#p3133609fd1)"/>
   </g>
   <g id="line2d_2">
    <path d="M 147.15 104.04 
L 174.15 104.04 
L 192.15 104.04 
" clip-path="url(#p3133609fd1)" style="fill: none; stroke: #000000; stroke-linecap: round"/>
   </g>
   <g id="patch_9">
    <path d="M 192.15 101.34 
L 201.15 104.04 
L 192.15 106.74 
z
" clip-path="url(#p3133609fd1)"/>
   </g>
   <g id="line2d_3">
    <path d="M 201.15 104.04 
L 201.15 87.84 
L 273.15 87.84 
L 273.15 120.24 
L 201.15 120.24 
L 201.15 104.04 
" clip-path="url(#p3133609fd1)" style="fill: none; stroke: #000000; stroke-linecap: round"/>
   </g>
   <g id="line2d_4">
    <path d="M 273.15 104.04 
L 286.65 104.04 
L 291.15 104.04 
" clip-path="url(#p3133609fd1)" style="fill: none; stroke: #000000; stroke-linecap: round"/>
   </g>
   <g id="patch_10">
    <path d="M 291.15 101.34 
L 300.15 104.04 
L 291.15 106.74 
z
" clip-path="url(#p3133609fd1)"/>
   </g>
   <g id="line2d_5">
    <path d="M 84.15 125.64 
L 84.15 143.64 
L 84.15 152.64 
" clip-path="url(#p3133609fd1)" style="fill: none; stroke: #000000; stroke-linecap: round"/>
   </g>
   <g id="patch_11">
    <path d="M 86.85 152.64 
L 84.15 161.64 
L 81.45 152.64 
z
" clip-path="url(#p3133609fd1)"/>
   </g>
   <g id="line2d_6">
    <path d="M 147.15 183.24 
L 174.15 183.24 
L 192.15 183.24 
" clip-path="url(#p3133609fd1)" style="fill: none; stroke: #000000; stroke-linecap: round"/>
   </g>
   <g id="patch_12">
    <path d="M 192.15 180.54 
L 201.15 183.24 
L 192.15 185.94 
z
" clip-path="url(#p3133609fd1)"/>
   </g>
   <g id="line2d_7">
    <path d="M 201.15 183.24 
L 201.15 167.04 
L 273.15 167.04 
L 273.15 199.44 
L 201.15 199.44 
L 201.15 183.24 
" clip-path="url(#p3133609fd1)" style="fill: none; stroke: #000000; stroke-linecap: round"/>
   </g>
   <g id="line2d_8">
    <path d="M 273.15 183.24 
L 286.65 183.24 
L 291.15 183.24 
" clip-path="url(#p3133609fd1)" style="fill: none; stroke: #000000; stroke-linecap: round"/>
   </g>
   <g id="patch_13">
    <path d="M 291.15 180.54 
L 300.15 183.24 
L 291.15 185.94 
z
" clip-path="url(#p3133609fd1)"/>
   </g>
   <g id="line2d_9">
    <path d="M 84.15 204.84 
L 84.15 222.84 
L 84.15 231.84 
" clip-path="url(#p3133609fd1)" style="fill: none; stroke: #000000; stroke-linecap: round"/>
   </g>
   <g id="patch_14">
    <path d="M 86.85 231.84 
L 84.15 240.84 
L 81.45 231.84 
z
" clip-path="url(#p3133609fd1)"/>
   </g>
   <g id="line2d_10">
    <path d="M 48.15 257.04 
L 48.15 240.84 
L 120.15 240.84 
L 120.15 273.24 
L 48.15 273.24 
L 48.15 257.04 
" clip-path="url(#p3133609fd1)" style="fill: none; stroke: #000000; stroke-linecap: round"/>
   </g>
   <g id="line2d_11">
    <path d="M 84.15 273.24 
L 84.15 286.74 
L 84.15 291.24 
" clip-path="url(#p3133609fd1)" style="fill: none; stroke: #000000; stroke-linecap: round"/>
   </g>
   <g id="patch_15">
    <path d="M 86.85 291.24 
L 84.15 300.24 
L 81.45 291.24 
z
" clip-path="url(#p3133609fd1)"/>
   </g>
   <g id="text_1">
    <!-- START -->
    <g transform="translate(64.973242 40.934141) scale(0.125 -0.125)">
     <defs>
      <path id="IPAexGothic-53" d="M 2919 3641 
Q 2563 4259 1853 4259 
Q 1453 4259 1213 4009 
Q 1028 3803 1028 3534 
Q 1028 3238 1266 3047 
Q 1444 2913 1984 2688 
L 2200 2597 
Q 2925 2306 3191 1953 
Q 3422 1644 3422 1259 
Q 3422 644 2969 288 
Q 2559 -31 1931 -31 
Q 881 -31 313 766 
L 753 1100 
Q 1203 459 1938 459 
Q 2288 459 2534 625 
Q 2841 847 2841 1216 
Q 2841 1503 2616 1728 
Q 2375 1959 1728 2206 
L 1541 2278 
Q 453 2694 453 3481 
Q 453 4006 806 4347 
Q 1203 4725 1863 4725 
Q 2841 4725 3359 3956 
L 2919 3641 
z
" transform="scale(0.015625)"/>
      <path id="IPAexGothic-54" d="M 3866 4141 
L 2175 4141 
L 2175 63 
L 1606 63 
L 1606 4141 
L -31 4141 
L -31 4634 
L 3866 4634 
L 3866 4141 
z
" transform="scale(0.015625)"/>
      <path id="IPAexGothic-41" d="M 4056 63 
L 3444 63 
L 2938 1409 
L 1100 1409 
L 603 63 
L -6 63 
L 1806 4666 
L 2259 4666 
L 4056 63 
z
M 2778 1863 
L 2316 3078 
Q 2125 3588 2028 4000 
L 2009 4000 
Q 1897 3563 1716 3078 
L 1263 1863 
L 2778 1863 
z
" transform="scale(0.015625)"/>
      <path id="IPAexGothic-52" d="M 4072 63 
L 3394 63 
Q 3138 641 2828 1197 
Q 2584 1641 2344 1825 
Q 2050 2044 1625 2044 
L 1172 2044 
L 1172 63 
L 609 63 
L 609 4634 
L 2009 4634 
Q 2713 4634 3131 4378 
Q 3688 4044 3688 3381 
Q 3688 2784 3181 2459 
Q 2906 2272 2522 2216 
L 2522 2197 
Q 2941 2050 3247 1581 
Q 3516 1166 4072 63 
z
M 1172 2478 
L 1869 2478 
Q 3106 2478 3106 3369 
Q 3106 4181 1928 4181 
L 1172 4181 
L 1172 2478 
z
" transform="scale(0.015625)"/>
     </defs>
     <use xlink:href="#IPAexGothic-53"/>
     <use xlink:href="#IPAexGothic-54" x="58.496094"/>
     <use xlink:href="#IPAexGothic-41" x="118.408203"/>
     <use xlink:href="#IPAexGothic-52" x="182.128906"/>
     <use xlink:href="#IPAexGothic-54" x="246.923828"/>
    </g>
   </g>
   <g id="text_2">
    <!-- False -->
    <g transform="translate(88.83 139.683281) scale(0.125 -0.125)">
     <defs>
      <path id="IPAexGothic-46" d="M 3469 4141 
L 1172 4141 
L 1172 2656 
L 3206 2656 
L 3206 2188 
L 1172 2188 
L 1172 63 
L 609 63 
L 609 4634 
L 3469 4634 
L 3469 4141 
z
" transform="scale(0.015625)"/>
      <path id="IPAexGothic-61" d="M 3156 63 
L 2672 63 
Q 2559 303 2531 556 
L 2509 556 
Q 2147 -25 1428 -25 
Q 934 -25 622 288 
Q 347 563 347 959 
Q 347 1947 2050 1997 
L 2478 2009 
L 2478 2175 
Q 2478 2509 2288 2700 
Q 2088 2900 1775 2900 
Q 1238 2900 969 2378 
L 494 2597 
Q 938 3328 1788 3328 
Q 2375 3328 2691 3000 
Q 2984 2706 2984 2169 
L 2984 997 
Q 2984 400 3156 63 
z
M 2491 1625 
L 2141 1619 
Q 903 1591 903 953 
Q 903 728 1050 581 
Q 1231 403 1525 403 
Q 1934 403 2234 703 
Q 2491 969 2491 1344 
L 2491 1625 
z
" transform="scale(0.015625)"/>
      <path id="IPAexGothic-6c" d="M 1131 63 
L 581 63 
L 581 4794 
L 1131 4794 
L 1131 63 
z
" transform="scale(0.015625)"/>
      <path id="IPAexGothic-73" d="M 2234 2547 
Q 1938 2931 1484 2931 
Q 891 2931 891 2475 
Q 891 2153 1531 1944 
L 1741 1875 
Q 2650 1578 2650 894 
Q 2650 434 2272 172 
Q 1972 -31 1497 -31 
Q 766 -31 256 503 
L 603 819 
Q 997 397 1516 397 
Q 2131 397 2131 875 
Q 2131 1238 1453 1478 
L 1234 1553 
Q 378 1853 378 2431 
Q 378 2797 628 3047 
Q 928 3347 1453 3347 
Q 2156 3347 2606 2859 
L 2234 2547 
z
" transform="scale(0.015625)"/>
      <path id="IPAexGothic-65" d="M 863 1594 
Q 891 1041 1209 722 
Q 1534 397 1997 397 
Q 2606 397 2963 966 
L 3322 728 
Q 2869 -31 1931 -31 
Q 1222 -31 766 422 
Q 306 884 306 1641 
Q 306 2444 788 2925 
Q 1216 3353 1856 3353 
Q 2459 3353 2866 2956 
Q 3322 2494 3322 1722 
L 3322 1594 
L 863 1594 
z
M 2756 1997 
Q 2709 2431 2450 2681 
Q 2194 2938 1844 2938 
Q 1438 2938 1150 2591 
Q 953 2356 894 1997 
L 2756 1997 
z
" transform="scale(0.015625)"/>
     </defs>
     <use xlink:href="#IPAexGothic-46"/>
     <use xlink:href="#IPAexGothic-61" x="57.177734"/>
     <use xlink:href="#IPAexGothic-6c" x="112.158203"/>
     <use xlink:href="#IPAexGothic-73" x="139.160156"/>
     <use xlink:href="#IPAexGothic-65" x="185.351562"/>
    </g>
   </g>
   <g id="text_3">
    <!-- True -->
    <g transform="translate(151.83 96.985) scale(0.125 -0.125)">
     <defs>
      <path id="IPAexGothic-72" d="M 2309 3316 
L 2213 2769 
Q 2106 2791 2022 2791 
Q 1653 2791 1413 2444 
Q 1113 2006 1113 1675 
L 1113 63 
L 563 63 
L 563 3250 
L 1081 3250 
L 1056 2303 
L 1069 2303 
Q 1422 3341 2097 3341 
Q 2206 3341 2309 3316 
z
" transform="scale(0.015625)"/>
      <path id="IPAexGothic-75" d="M 3284 63 
L 2772 63 
L 2772 644 
Q 2300 0 1625 0 
Q 1072 0 763 375 
Q 519 678 519 1241 
L 519 3250 
L 1069 3250 
L 1069 1259 
Q 1069 466 1734 466 
Q 2406 466 2734 1291 
L 2734 3250 
L 3284 3250 
L 3284 63 
z
" transform="scale(0.015625)"/>
     </defs>
     <use xlink:href="#IPAexGothic-54"/>
     <use xlink:href="#IPAexGothic-72" x="59.912109"/>
     <use xlink:href="#IPAexGothic-75" x="96.923828"/>
     <use xlink:href="#IPAexGothic-65" x="157.324219"/>
    </g>
   </g>
   <g id="text_4">
    <!-- $x=0$ ? -->
    <g transform="translate(63.65 107.534141) scale(0.125 -0.125)">
     <defs>
      <path id="DejaVuSans-Oblique-78" d="M 3841 3500 
L 2234 1784 
L 3219 0 
L 2559 0 
L 1819 1388 
L 531 0 
L -166 0 
L 1556 1844 
L 641 3500 
L 1300 3500 
L 1972 2234 
L 3144 3500 
L 3841 3500 
z
" transform="scale(0.015625)"/>
      <path id="DejaVuSans-3d" d="M 678 2906 
L 4684 2906 
L 4684 2381 
L 678 2381 
L 678 2906 
z
M 678 1631 
L 4684 1631 
L 4684 1100 
L 678 1100 
L 678 1631 
z
" transform="scale(0.015625)"/>
      <path id="DejaVuSans-30" d="M 2034 4250 
Q 1547 4250 1301 3770 
Q 1056 3291 1056 2328 
Q 1056 1369 1301 889 
Q 1547 409 2034 409 
Q 2525 409 2770 889 
Q 3016 1369 3016 2328 
Q 3016 3291 2770 3770 
Q 2525 4250 2034 4250 
z
M 2034 4750 
Q 2819 4750 3233 4129 
Q 3647 3509 3647 2328 
Q 3647 1150 3233 529 
Q 2819 -91 2034 -91 
Q 1250 -91 836 529 
Q 422 1150 422 2328 
Q 422 3509 836 4129 
Q 1250 4750 2034 4750 
z
" transform="scale(0.015625)"/>
      <path id="IPAexGothic-20" transform="scale(0.015625)"/>
      <path id="IPAexGothic-3f" d="M 225 3425 
Q 503 4725 1763 4725 
Q 2413 4725 2803 4334 
Q 3144 3994 3144 3516 
Q 3144 3081 2838 2716 
Q 2703 2563 2344 2266 
L 2216 2156 
Q 1888 1878 1888 1363 
L 1888 1209 
L 1422 1209 
L 1422 1422 
Q 1422 2050 1881 2491 
L 2022 2625 
L 2075 2669 
Q 2575 3122 2575 3516 
Q 2575 3822 2363 4041 
Q 2128 4278 1763 4278 
Q 963 4278 725 3309 
L 225 3425 
z
M 1978 63 
L 1325 63 
L 1325 728 
L 1978 728 
L 1978 63 
z
" transform="scale(0.015625)"/>
     </defs>
     <use xlink:href="#DejaVuSans-Oblique-78" transform="translate(0 0.78125)"/>
     <use xlink:href="#DejaVuSans-3d" transform="translate(78.662109 0.78125)"/>
     <use xlink:href="#DejaVuSans-30" transform="translate(181.933594 0.78125)"/>
     <use xlink:href="#IPAexGothic-20" transform="translate(245.556641 0.78125)"/>
     <use xlink:href="#IPAexGothic-3f" transform="translate(272.558594 0.78125)"/>
    </g>
   </g>
   <g id="text_5">
    <!-- $0$ -->
    <g transform="translate(233.15 107.534141) scale(0.125 -0.125)">
     <use xlink:href="#DejaVuSans-30" transform="translate(0 0.78125)"/>
    </g>
   </g>
   <g id="text_6">
    <!-- END -->
    <g transform="translate(322.950781 107.534141) scale(0.125 -0.125)">
     <defs>
      <path id="IPAexGothic-45" d="M 3547 63 
L 609 63 
L 609 4634 
L 3469 4634 
L 3469 4147 
L 1166 4147 
L 1166 2650 
L 3206 2650 
L 3206 2191 
L 1166 2191 
L 1166 556 
L 3547 556 
L 3547 63 
z
" transform="scale(0.015625)"/>
      <path id="IPAexGothic-4e" d="M 4244 63 
L 3731 63 
L 1697 3150 
Q 1466 3500 1141 4097 
L 1116 4097 
L 1128 3797 
Q 1159 2803 1159 2469 
L 1159 63 
L 609 63 
L 609 4634 
L 1366 4634 
L 3113 1978 
Q 3453 1447 3713 966 
L 3738 966 
Q 3694 1897 3694 2469 
L 3694 4634 
L 4244 4634 
L 4244 63 
z
" transform="scale(0.015625)"/>
      <path id="IPAexGothic-44" d="M 609 4634 
L 1984 4634 
Q 3159 4634 3791 4050 
Q 4456 3444 4456 2356 
Q 4456 1047 3516 441 
Q 2925 63 1941 63 
L 609 63 
L 609 4634 
z
M 1172 556 
L 1894 556 
Q 3853 556 3853 2356 
Q 3853 4147 1928 4147 
L 1172 4147 
L 1172 556 
z
" transform="scale(0.015625)"/>
     </defs>
     <use xlink:href="#IPAexGothic-45"/>
     <use xlink:href="#IPAexGothic-4e" x="59.521484"/>
     <use xlink:href="#IPAexGothic-44" x="135.498047"/>
    </g>
   </g>
   <g id="text_7">
    <!-- False -->
    <g transform="translate(88.83 218.883281) scale(0.125 -0.125)">
     <use xlink:href="#IPAexGothic-46"/>
     <use xlink:href="#IPAexGothic-61" x="57.177734"/>
     <use xlink:href="#IPAexGothic-6c" x="112.158203"/>
     <use xlink:href="#IPAexGothic-73" x="139.160156"/>
     <use xlink:href="#IPAexGothic-65" x="185.351562"/>
    </g>
   </g>
   <g id="text_8">
    <!-- True -->
    <g transform="translate(151.83 176.185) scale(0.125 -0.125)">
     <use xlink:href="#IPAexGothic-54"/>
     <use xlink:href="#IPAexGothic-72" x="59.912109"/>
     <use xlink:href="#IPAexGothic-75" x="96.923828"/>
     <use xlink:href="#IPAexGothic-65" x="157.324219"/>
    </g>
   </g>
   <g id="text_9">
    <!-- $x&gt;0$ ? -->
    <g transform="translate(63.65 186.734141) scale(0.125 -0.125)">
     <defs>
      <path id="DejaVuSans-3e" d="M 678 3150 
L 678 3719 
L 4684 2266 
L 4684 1747 
L 678 294 
L 678 863 
L 3897 2003 
L 678 3150 
z
" transform="scale(0.015625)"/>
     </defs>
     <use xlink:href="#DejaVuSans-Oblique-78" transform="translate(0 0.78125)"/>
     <use xlink:href="#DejaVuSans-3e" transform="translate(78.662109 0.78125)"/>
     <use xlink:href="#DejaVuSans-30" transform="translate(181.933594 0.78125)"/>
     <use xlink:href="#IPAexGothic-20" transform="translate(245.556641 0.78125)"/>
     <use xlink:href="#IPAexGothic-3f" transform="translate(272.558594 0.78125)"/>
    </g>
   </g>
   <g id="text_10">
    <!-- $x$ -->
    <g transform="translate(233.4 186.734141) scale(0.125 -0.125)">
     <use xlink:href="#DejaVuSans-Oblique-78" transform="translate(0 0.3125)"/>
    </g>
   </g>
   <g id="text_11">
    <!-- END -->
    <g transform="translate(322.950781 186.734141) scale(0.125 -0.125)">
     <use xlink:href="#IPAexGothic-45"/>
     <use xlink:href="#IPAexGothic-4e" x="59.521484"/>
     <use xlink:href="#IPAexGothic-44" x="135.498047"/>
    </g>
   </g>
   <g id="text_12">
    <!-- $-x$ -->
    <g transform="translate(75.2125 260.534141) scale(0.125 -0.125)">
     <defs>
      <path id="DejaVuSans-2212" d="M 678 2272 
L 4684 2272 
L 4684 1741 
L 678 1741 
L 678 2272 
z
" transform="scale(0.015625)"/>
     </defs>
     <use xlink:href="#DejaVuSans-2212" transform="translate(0 0.3125)"/>
     <use xlink:href="#DejaVuSans-Oblique-78" transform="translate(83.789062 0.3125)"/>
    </g>
   </g>
   <g id="text_13">
    <!-- END -->
    <g transform="translate(70.950781 321.734141) scale(0.125 -0.125)">
     <use xlink:href="#IPAexGothic-45"/>
     <use xlink:href="#IPAexGothic-4e" x="59.521484"/>
     <use xlink:href="#IPAexGothic-44" x="135.498047"/>
    </g>
   </g>
  </g>
 </g>
 <defs>
  <clipPath id="p3133609fd1">
   <rect x="3.6" y="3.6" width="386.1" height="348.48"/>
  </clipPath>
 </defs>
</svg>