<?xml version="1.0" encoding="utf-8" standalone="no"?>
<!DOCTYPE svg PUBLIC "-//W3C//DTD SVG 1.1//EN"
  "http://www.w3.org/Graphics/SVG/1.1/DTD/svg11.dtd">
<svg xmlns:xlink="http://www.w3.org/1999/xlink" width="288.36pt" height="198.36pt" viewBox="0 0 288.36 198.36" xmlns="http://www.w3.org/2000/svg" version="1.1">
 <metadata>
  <rdf:RDF xmlns:dc="http://purl.org/dc/elements/1.1/" xmlns:cc="http://creativecommons.org/ns#" xmlns:rdf="http://www.w3.org/1999/02/22-rdf-syntax-ns#">
   <cc:Work>
    <dc:type rdf:resource="http://purl.org/dc/dcmitype/StillImage"/>
    <dc:date>2025-09-20T03:45:05.096477</dc:date>
    <dc:format>image/svg+xml</dc:format>
    <dc:creator>
     <cc:Agent>
      <dc:title>Matplotlib v3.10.6, https://matplotlib.org/</dc:title>
     </cc:Agent>
    </dc:creator>
   </cc:Work>
  </rdf:RDF>
 </metadata>
 <defs>
  <style type="text/css">*{stroke-linejoin: round; stroke-linecap: butt}</style>
 </defs>
 <g id="figure_1">
  <g id="patch_1">
   <path d="M 0 198.36 
L 288.36 198.36 
L 288.36 0 
L 0 0 
z
" style="fill: #ffffff"/>
  </g>
  <g id="axes_1">
   <g id="patch_2">
    <path d="M 112.68 40.68 
L 112.965587 40.677734 
L 113.251103 40.670938 
L 113.536474 40.659612 
L 113.821631 40.64376 
L 114.106499 40.623386 
L 114.391009 40.598495 
L 114.675088 40.569092 
L 114.958664 40.535187 
L 115.241667 40.496786 
L 115.524025 40.4539 
L 115.805667 40.40654 
L 116.086522 40.354717 
L 116.36652 40.298444 
L 116.64559 40.237736 
L 116.923661 40.172608 
L 117.200664 40.103077 
L 117.476529 40.029159 
L 117.751186 39.950874 
L 118.024567 39.86824 
L 118.296602 39.78128 
L 118.567223 39.690015 
L 118.836363 39.594467 
L 119.103952 39.494661 
L 119.369924 39.390623 
L 119.634212 39.282377 
L 119.89675 39.169952 
L 120.15747 39.053376 
L 120.416308 38.932678 
L 120.673199 38.807888 
L 120.928077 38.679038 
L 121.180879 38.546161 
L 121.431541 38.409289 
L 121.68 38.268457 
L 121.926193 38.123701 
L 122.170058 37.975058 
L 122.411535 37.822564 
L 122.650561 37.666257 
L 122.887078 37.506178 
L 123.121024 37.342367 
L 123.352343 37.174865 
L 123.580974 37.003713 
L 123.806862 36.828956 
L 124.029948 36.650636 
L 124.250177 36.4688 
L 124.467493 36.283492 
L 124.681842 36.09476 
L 124.893169 35.902651 
L 125.101422 35.707213 
L 125.306548 35.508495 
L 125.508495 35.306548 
L 125.707213 35.101422 
L 125.902651 34.893169 
L 126.09476 34.681842 
L 126.283492 34.467493 
L 126.4688 34.250177 
L 126.650636 34.029948 
L 126.828956 33.806862 
L 127.003713 33.580974 
L 127.174865 33.352343 
L 127.342367 33.121024 
L 127.506178 32.887078 
L 127.666257 32.650561 
L 127.822564 32.411535 
L 127.975058 32.170058 
L 128.123701 31.926193 
L 128.268457 31.68 
L 128.409289 31.431541 
L 128.546161 31.180879 
L 128.679038 30.928077 
L 128.807888 30.673199 
L 128.932678 30.416308 
L 129.053376 30.15747 
L 129.169952 29.89675 
L 129.282377 29.634212 
L 129.390623 29.369924 
L 129.494661 29.103952 
L 129.594467 28.836363 
L 129.690015 28.567223 
L 129.78128 28.296602 
L 129.86824 28.024567 
L 129.950874 27.751186 
L 130.029159 27.476529 
L 130.103077 27.200664 
L 130.172608 26.923661 
L 130.237736 26.64559 
L 130.298444 26.36652 
L 130.354717 26.086522 
L 130.40654 25.805667 
L 130.4539 25.524025 
L 130.496786 25.241667 
L 130.535187 24.958664 
L 130.569092 24.675088 
L 130.598495 24.391009 
L 130.623386 24.106499 
L 130.64376 23.821631 
L 130.659612 23.536474 
L 130.670938 23.251103 
L 130.677734 22.965587 
L 130.68 22.68 
L 130.68 22.68 
L 130.677734 22.394413 
L 130.670938 22.108897 
L 130.659612 21.823526 
L 130.64376 21.538369 
L 130.623386 21.253501 
L 130.598495 20.968991 
L 130.569092 20.684912 
L 130.535187 20.401336 
L 130.496786 20.118333 
L 130.4539 19.835975 
L 130.40654 19.554333 
L 130.354717 19.273478 
L 130.298444 18.99348 
L 130.237736 18.71441 
L 130.172608 18.436339 
L 130.103077 18.159336 
L 130.029159 17.883471 
L 129.950874 17.608814 
L 129.86824 17.335433 
L 129.78128 17.063398 
L 129.690015 16.792777 
L 129.594467 16.523637 
L 129.494661 16.256048 
L 129.390623 15.990076 
L 129.282377 15.725788 
L 129.169952 15.46325 
L 129.053376 15.20253 
L 128.932678 14.943692 
L 128.807888 14.686801 
L 128.679038 14.431923 
L 128.546161 14.179121 
L 128.409289 13.928459 
L 128.268457 13.68 
L 128.123701 13.433807 
L 127.975058 13.189942 
L 127.822564 12.948465 
L 127.666257 12.709439 
L 127.506178 12.472922 
L 127.342367 12.238976 
L 127.174865 12.007657 
L 127.003713 11.779026 
L 126.828956 11.553138 
L 126.650636 11.330052 
L 126.4688 11.109823 
L 126.283492 10.892507 
L 126.09476 10.678158 
L 125.902651 10.466831 
L 125.707213 10.258578 
L 125.508495 10.053452 
L 125.306548 9.851505 
L 125.101422 9.652787 
L 124.893169 9.457349 
L 124.681842 9.26524 
L 124.467493 9.076508 
L 124.250177 8.8912 
L 124.029948 8.709364 
L 123.806862 8.531044 
L 123.580974 8.356287 
L 123.352343 8.185135 
L 123.121024 8.017633 
L 122.887078 7.853822 
L 122.650561 7.693743 
L 122.411535 7.537436 
L 122.170058 7.384942 
L 121.926193 7.236299 
L 121.68 7.091543 
L 121.431541 6.950711 
L 121.180879 6.813839 
L 120.928077 6.680962 
L 120.673199 6.552112 
L 120.416308 6.427322 
L 120.15747 6.306624 
L 119.89675 6.190048 
L 119.634212 6.077623 
L 119.369924 5.969377 
L 119.103952 5.865339 
L 118.836363 5.765533 
L 118.567223 5.669985 
L 118.296602 5.57872 
L 118.024567 5.49176 
L 117.751186 5.409126 
L 117.476529 5.330841 
L 117.200664 5.256923 
L 116.923661 5.187392 
L 116.64559 5.122264 
L 116.36652 5.061556 
L 116.086522 5.005283 
L 115.805667 4.95346 
L 115.524025 4.9061 
L 115.241667 4.863214 
L 114.958664 4.824813 
L 114.675088 4.790908 
L 114.391009 4.761505 
L 114.106499 4.736614 
L 113.821631 4.71624 
L 113.536474 4.700388 
L 113.251103 4.689062 
L 112.965587 4.682266 
L 112.68 4.68 
L 76.68 4.68 
L 76.394413 4.682266 
L 76.108897 4.689062 
L 75.823526 4.700388 
L 75.538369 4.71624 
L 75.253501 4.736614 
L 74.968991 4.761505 
L 74.684912 4.790908 
L 74.401336 4.824813 
L 74.118333 4.863214 
L 73.835975 4.9061 
L 73.554333 4.95346 
L 73.273478 5.005283 
L 72.99348 5.061556 
L 72.71441 5.122264 
L 72.436339 5.187392 
L 72.159336 5.256923 
L 71.883471 5.330841 
L 71.608814 5.409126 
L 71.335433 5.49176 
L 71.063398 5.57872 
L 70.792777 5.669985 
L 70.523637 5.765533 
L 70.256048 5.865339 
L 69.990076 5.969377 
L 69.725788 6.077623 
L 69.46325 6.190048 
L 69.20253 6.306624 
L 68.943692 6.427322 
L 68.686801 6.552112 
L 68.431923 6.680962 
L 68.179121 6.813839 
L 67.928459 6.950711 
L 67.68 7.091543 
L 67.433807 7.236299 
L 67.189942 7.384942 
L 66.948465 7.537436 
L 66.709439 7.693743 
L 66.472922 7.853822 
L 66.238976 8.017633 
L 66.007657 8.185135 
L 65.779026 8.356287 
L 65.553138 8.531044 
L 65.330052 8.709364 
L 65.109823 8.8912 
L 64.892507 9.076508 
L 64.678158 9.26524 
L 64.466831 9.457349 
L 64.258578 9.652787 
L 64.053452 9.851505 
L 63.851505 10.053452 
L 63.652787 10.258578 
L 63.457349 10.466831 
L 63.26524 10.678158 
L 63.076508 10.892507 
L 62.8912 11.109823 
L 62.709364 11.330052 
L 62.531044 11.553138 
L 62.356287 11.779026 
L 62.185135 12.007657 
L 62.017633 12.238976 
L 61.853822 12.472922 
L 61.693743 12.709439 
L 61.537436 12.948465 
L 61.384942 13.189942 
L 61.236299 13.433807 
L 61.091543 13.68 
L 60.950711 13.928459 
L 60.813839 14.179121 
L 60.680962 14.431923 
L 60.552112 14.686801 
L 60.427322 14.943692 
L 60.306624 15.20253 
L 60.190048 15.46325 
L 60.077623 15.725788 
L 59.969377 15.990076 
L 59.865339 16.256048 
L 59.765533 16.523637 
L 59.669985 16.792777 
L 59.57872 17.063398 
L 59.49176 17.335433 
L 59.409126 17.608814 
L 59.330841 17.883471 
L 59.256923 18.159336 
L 59.187392 18.436339 
L 59.122264 18.71441 
L 59.061556 18.99348 
L 59.005283 19.273478 
L 58.95346 19.554333 
L 58.9061 19.835975 
L 58.863214 20.118333 
L 58.824813 20.401336 
L 58.790908 20.684912 
L 58.761505 20.968991 
L 58.736614 21.253501 
L 58.71624 21.538369 
L 58.700388 21.823526 
L 58.689062 22.108897 
L 58.682266 22.394413 
L 58.68 22.68 
L 58.68 22.68 
L 58.682266 22.965587 
L 58.689062 23.251103 
L 58.700388 23.536474 
L 58.71624 23.821631 
L 58.736614 24.106499 
L 58.761505 24.391009 
L 58.790908 24.675088 
L 58.824813 24.958664 
L 58.863214 25.241667 
L 58.9061 25.524025 
L 58.95346 25.805667 
L 59.005283 26.086522 
L 59.061556 26.36652 
L 59.122264 26.64559 
L 59.187392 26.923661 
L 59.256923 27.200664 
L 59.330841 27.476529 
L 59.409126 27.751186 
L 59.49176 28.024567 
L 59.57872 28.296602 
L 59.669985 28.567223 
L 59.765533 28.836363 
L 59.865339 29.103952 
L 59.969377 29.369924 
L 60.077623 29.634212 
L 60.190048 29.89675 
L 60.306624 30.15747 
L 60.427322 30.416308 
L 60.552112 30.673199 
L 60.680962 30.928077 
L 60.813839 31.180879 
L 60.950711 31.431541 
L 61.091543 31.68 
L 61.236299 31.926193 
L 61.384942 32.170058 
L 61.537436 32.411535 
L 61.693743 32.650561 
L 61.853822 32.887078 
L 62.017633 33.121024 
L 62.185135 33.352343 
L 62.356287 33.580974 
L 62.531044 33.806862 
L 62.709364 34.029948 
L 62.8912 34.250177 
L 63.076508 34.467493 
L 63.26524 34.681842 
L 63.457349 34.893169 
L 63.652787 35.101422 
L 63.851505 35.306548 
L 64.053452 35.508495 
L 64.258578 35.707213 
L 64.466831 35.902651 
L 64.678158 36.09476 
L 64.892507 36.283492 
L 65.109823 36.4688 
L 65.330052 36.650636 
L 65.553138 36.828956 
L 65.779026 37.003713 
L 66.007657 37.174865 
L 66.238976 37.342367 
L 66.472922 37.506178 
L 66.709439 37.666257 
L 66.948465 37.822564 
L 67.189942 37.975058 
L 67.433807 38.123701 
L 67.68 38.268457 
L 67.928459 38.409289 
L 68.179121 38.546161 
L 68.431923 38.679038 
L 68.686801 38.807888 
L 68.943692 38.932678 
L 69.20253 39.053376 
L 69.46325 39.169952 
L 69.725788 39.282377 
L 69.990076 39.390623 
L 70.256048 39.494661 
L 70.523637 39.594467 
L 70.792777 39.690015 
L 71.063398 39.78128 
L 71.335433 39.86824 
L 71.608814 39.950874 
L 71.883471 40.029159 
L 72.159336 40.103077 
L 72.436339 40.172608 
L 72.71441 40.237736 
L 72.99348 40.298444 
L 73.273478 40.354717 
L 73.554333 40.40654 
L 73.835975 40.4539 
L 74.118333 40.496786 
L 74.401336 40.535187 
L 74.684912 40.569092 
L 74.968991 40.598495 
L 75.253501 40.623386 
L 75.538369 40.64376 
L 75.823526 40.659612 
L 76.108897 40.670938 
L 76.394413 40.677734 
L 76.68 40.68 
L 112.68 40.68 
z
" clip-path="url(#p1a4a3d0c71)" style="fill: none; stroke: #000000; stroke-linecap: round"/>
   </g>
   <g id="patch_3">
    <path d="M 31.68 94.68 
L 94.68 67.68 
L 157.68 94.68 
L 94.68 121.68 
L 31.68 94.68 
z
" clip-path="url(#p1a4a3d0c71)" style="fill: none; stroke: #000000; stroke-linecap: round"/>
   </g>
   <g id="patch_4">
    <path d="M 265.68 112.68 
L 265.965587 112.677734 
L 266.251103 112.670938 
L 266.536474 112.659612 
L 266.821631 112.64376 
L 267.106499 112.623386 
L 267.391009 112.598495 
L 267.675088 112.569092 
L 267.958664 112.535187 
L 268.241667 112.496786 
L 268.524025 112.4539 
L 268.805667 112.40654 
L 269.086522 112.354717 
L 269.36652 112.298444 
L 269.64559 112.237736 
L 269.923661 112.172608 
L 270.200664 112.103077 
L 270.476529 112.029159 
L 270.751186 111.950874 
L 271.024567 111.86824 
L 271.296602 111.78128 
L 271.567223 111.690015 
L 271.836363 111.594467 
L 272.103952 111.494661 
L 272.369924 111.390623 
L 272.634212 111.282377 
L 272.89675 111.169952 
L 273.15747 111.053376 
L 273.416308 110.932678 
L 273.673199 110.807888 
L 273.928077 110.679038 
L 274.180879 110.546161 
L 274.431541 110.409289 
L 274.68 110.268457 
L 274.926193 110.123701 
L 275.170058 109.975058 
L 275.411535 109.822564 
L 275.650561 109.666257 
L 275.887078 109.506178 
L 276.121024 109.342367 
L 276.352343 109.174865 
L 276.580974 109.003713 
L 276.806862 108.828956 
L 277.029948 108.650636 
L 277.250177 108.4688 
L 277.467493 108.283492 
L 277.681842 108.09476 
L 277.893169 107.902651 
L 278.101422 107.707213 
L 278.306548 107.508495 
L 278.508495 107.306548 
L 278.707213 107.101422 
L 278.902651 106.893169 
L 279.09476 106.681842 
L 279.283492 106.467493 
L 279.4688 106.250177 
L 279.650636 106.029948 
L 279.828956 105.806862 
L 280.003713 105.580974 
L 280.174865 105.352343 
L 280.342367 105.121024 
L 280.506178 104.887078 
L 280.666257 104.650561 
L 280.822564 104.411535 
L 280.975058 104.170058 
L 281.123701 103.926193 
L 281.268457 103.68 
L 281.409289 103.431541 
L 281.546161 103.180879 
L 281.679038 102.928077 
L 281.807888 102.673199 
L 281.932678 102.416308 
L 282.053376 102.15747 
L 282.169952 101.89675 
L 282.282377 101.634212 
L 282.390623 101.369924 
L 282.494661 101.103952 
L 282.594467 100.836363 
L 282.690015 100.567223 
L 282.78128 100.296602 
L 282.86824 100.024567 
L 282.950874 99.751186 
L 283.029159 99.476529 
L 283.103077 99.200664 
L 283.172608 98.923661 
L 283.237736 98.64559 
L 283.298444 98.36652 
L 283.354717 98.086522 
L 283.40654 97.805667 
L 283.4539 97.524025 
L 283.496786 97.241667 
L 283.535187 96.958664 
L 283.569092 96.675088 
L 283.598495 96.391009 
L 283.623386 96.106499 
L 283.64376 95.821631 
L 283.659612 95.536474 
L 283.670938 95.251103 
L 283.677734 94.965587 
L 283.68 94.68 
L 283.68 94.68 
L 283.677734 94.394413 
L 283.670938 94.108897 
L 283.659612 93.823526 
L 283.64376 93.538369 
L 283.623386 93.253501 
L 283.598495 92.968991 
L 283.569092 92.684912 
L 283.535187 92.401336 
L 283.496786 92.118333 
L 283.4539 91.835975 
L 283.40654 91.554333 
L 283.354717 91.273478 
L 283.298444 90.99348 
L 283.237736 90.71441 
L 283.172608 90.436339 
L 283.103077 90.159336 
L 283.029159 89.883471 
L 282.950874 89.608814 
L 282.86824 89.335433 
L 282.78128 89.063398 
L 282.690015 88.792777 
L 282.594467 88.523637 
L 282.494661 88.256048 
L 282.390623 87.990076 
L 282.282377 87.725788 
L 282.169952 87.46325 
L 282.053376 87.20253 
L 281.932678 86.943692 
L 281.807888 86.686801 
L 281.679038 86.431923 
L 281.546161 86.179121 
L 281.409289 85.928459 
L 281.268457 85.68 
L 281.123701 85.433807 
L 280.975058 85.189942 
L 280.822564 84.948465 
L 280.666257 84.709439 
L 280.506178 84.472922 
L 280.342367 84.238976 
L 280.174865 84.007657 
L 280.003713 83.779026 
L 279.828956 83.553138 
L 279.650636 83.330052 
L 279.4688 83.109823 
L 279.283492 82.892507 
L 279.09476 82.678158 
L 278.902651 82.466831 
L 278.707213 82.258578 
L 278.508495 82.053452 
L 278.306548 81.851505 
L 278.101422 81.652787 
L 277.893169 81.457349 
L 277.681842 81.26524 
L 277.467493 81.076508 
L 277.250177 80.8912 
L 277.029948 80.709364 
L 276.806862 80.531044 
L 276.580974 80.356287 
L 276.352343 80.185135 
L 276.121024 80.017633 
L 275.887078 79.853822 
L 275.650561 79.693743 
L 275.411535 79.537436 
L 275.170058 79.384942 
L 274.926193 79.236299 
L 274.68 79.091543 
L 274.431541 78.950711 
L 274.180879 78.813839 
L 273.928077 78.680962 
L 273.673199 78.552112 
L 273.416308 78.427322 
L 273.15747 78.306624 
L 272.89675 78.190048 
L 272.634212 78.077623 
L 272.369924 77.969377 
L 272.103952 77.865339 
L 271.836363 77.765533 
L 271.567223 77.669985 
L 271.296602 77.57872 
L 271.024567 77.49176 
L 270.751186 77.409126 
L 270.476529 77.330841 
L 270.200664 77.256923 
L 269.923661 77.187392 
L 269.64559 77.122264 
L 269.36652 77.061556 
L 269.086522 77.005283 
L 268.805667 76.95346 
L 268.524025 76.9061 
L 268.241667 76.863214 
L 267.958664 76.824813 
L 267.675088 76.790908 
L 267.391009 76.761505 
L 267.106499 76.736614 
L 266.821631 76.71624 
L 266.536474 76.700388 
L 266.251103 76.689062 
L 265.965587 76.682266 
L 265.68 76.68 
L 229.68 76.68 
L 229.394413 76.682266 
L 229.108897 76.689062 
L 228.823526 76.700388 
L 228.538369 76.71624 
L 228.253501 76.736614 
L 227.968991 76.761505 
L 227.684912 76.790908 
L 227.401336 76.824813 
L 227.118333 76.863214 
L 226.835975 76.9061 
L 226.554333 76.95346 
L 226.273478 77.005283 
L 225.99348 77.061556 
L 225.71441 77.122264 
L 225.436339 77.187392 
L 225.159336 77.256923 
L 224.883471 77.330841 
L 224.608814 77.409126 
L 224.335433 77.49176 
L 224.063398 77.57872 
L 223.792777 77.669985 
L 223.523637 77.765533 
L 223.256048 77.865339 
L 222.990076 77.969377 
L 222.725788 78.077623 
L 222.46325 78.190048 
L 222.20253 78.306624 
L 221.943692 78.427322 
L 221.686801 78.552112 
L 221.431923 78.680962 
L 221.179121 78.813839 
L 220.928459 78.950711 
L 220.68 79.091543 
L 220.433807 79.236299 
L 220.189942 79.384942 
L 219.948465 79.537436 
L 219.709439 79.693743 
L 219.472922 79.853822 
L 219.238976 80.017633 
L 219.007657 80.185135 
L 218.779026 80.356287 
L 218.553138 80.531044 
L 218.330052 80.709364 
L 218.109823 80.8912 
L 217.892507 81.076508 
L 217.678158 81.26524 
L 217.466831 81.457349 
L 217.258578 81.652787 
L 217.053452 81.851505 
L 216.851505 82.053452 
L 216.652787 82.258578 
L 216.457349 82.466831 
L 216.26524 82.678158 
L 216.076508 82.892507 
L 215.8912 83.109823 
L 215.709364 83.330052 
L 215.531044 83.553138 
L 215.356287 83.779026 
L 215.185135 84.007657 
L 215.017633 84.238976 
L 214.853822 84.472922 
L 214.693743 84.709439 
L 214.537436 84.948465 
L 214.384942 85.189942 
L 214.236299 85.433807 
L 214.091543 85.68 
L 213.950711 85.928459 
L 213.813839 86.179121 
L 213.680962 86.431923 
L 213.552112 86.686801 
L 213.427322 86.943692 
L 213.306624 87.20253 
L 213.190048 87.46325 
L 213.077623 87.725788 
L 212.969377 87.990076 
L 212.865339 88.256048 
L 212.765533 88.523637 
L 212.669985 88.792777 
L 212.57872 89.063398 
L 212.49176 89.335433 
L 212.409126 89.608814 
L 212.330841 89.883471 
L 212.256923 90.159336 
L 212.187392 90.436339 
L 212.122264 90.71441 
L 212.061556 90.99348 
L 212.005283 91.273478 
L 211.95346 91.554333 
L 211.9061 91.835975 
L 211.863214 92.118333 
L 211.824813 92.401336 
L 211.790908 92.684912 
L 211.761505 92.968991 
L 211.736614 93.253501 
L 211.71624 93.538369 
L 211.700388 93.823526 
L 211.689062 94.108897 
L 211.682266 94.394413 
L 211.68 94.68 
L 211.68 94.68 
L 211.682266 94.965587 
L 211.689062 95.251103 
L 211.700388 95.536474 
L 211.71624 95.821631 
L 211.736614 96.106499 
L 211.761505 96.391009 
L 211.790908 96.675088 
L 211.824813 96.958664 
L 211.863214 97.241667 
L 211.9061 97.524025 
L 211.95346 97.805667 
L 212.005283 98.086522 
L 212.061556 98.36652 
L 212.122264 98.64559 
L 212.187392 98.923661 
L 212.256923 99.200664 
L 212.330841 99.476529 
L 212.409126 99.751186 
L 212.49176 100.024567 
L 212.57872 100.296602 
L 212.669985 100.567223 
L 212.765533 100.836363 
L 212.865339 101.103952 
L 212.969377 101.369924 
L 213.077623 101.634212 
L 213.190048 101.89675 
L 213.306624 102.15747 
L 213.427322 102.416308 
L 213.552112 102.673199 
L 213.680962 102.928077 
L 213.813839 103.180879 
L 213.950711 103.431541 
L 214.091543 103.68 
L 214.236299 103.926193 
L 214.384942 104.170058 
L 214.537436 104.411535 
L 214.693743 104.650561 
L 214.853822 104.887078 
L 215.017633 105.121024 
L 215.185135 105.352343 
L 215.356287 105.580974 
L 215.531044 105.806862 
L 215.709364 106.029948 
L 215.8912 106.250177 
L 216.076508 106.467493 
L 216.26524 106.681842 
L 216.457349 106.893169 
L 216.652787 107.101422 
L 216.851505 107.306548 
L 217.053452 107.508495 
L 217.258578 107.707213 
L 217.466831 107.902651 
L 217.678158 108.09476 
L 217.892507 108.283492 
L 218.109823 108.4688 
L 218.330052 108.650636 
L 218.553138 108.828956 
L 218.779026 109.003713 
L 219.007657 109.174865 
L 219.238976 109.342367 
L 219.472922 109.506178 
L 219.709439 109.666257 
L 219.948465 109.822564 
L 220.189942 109.975058 
L 220.433807 110.123701 
L 220.68 110.268457 
L 220.928459 110.409289 
L 221.179121 110.546161 
L 221.431923 110.679038 
L 221.686801 110.807888 
L 221.943692 110.932678 
L 222.20253 111.053376 
L 222.46325 111.169952 
L 222.725788 111.282377 
L 222.990076 111.390623 
L 223.256048 111.494661 
L 223.523637 111.594467 
L 223.792777 111.690015 
L 224.063398 111.78128 
L 224.335433 111.86824 
L 224.608814 111.950874 
L 224.883471 112.029159 
L 225.159336 112.103077 
L 225.436339 112.172608 
L 225.71441 112.237736 
L 225.99348 112.298444 
L 226.273478 112.354717 
L 226.554333 112.40654 
L 226.835975 112.4539 
L 227.118333 112.496786 
L 227.401336 112.535187 
L 227.684912 112.569092 
L 227.968991 112.598495 
L 228.253501 112.623386 
L 228.538369 112.64376 
L 228.823526 112.659612 
L 229.108897 112.670938 
L 229.394413 112.677734 
L 229.68 112.68 
L 265.68 112.68 
z
" clip-path="url(#p1a4a3d0c71)" style="fill: none; stroke: #000000; stroke-linecap: round"/>
   </g>
   <g id="line2d_1">
    <path d="M 94.68 40.68 
L 94.68 54.18 
L 94.68 58.68 
" clip-path="url(#p1a4a3d0c71)" style="fill: none; stroke: #000000; stroke-linecap: round"/>
   </g>
   <g id="patch_5">
    <path d="M 97.38 58.68 
L 94.68 67.68 
L 91.98 58.68 
z
" clip-path="url(#p1a4a3d0c71)"/>
   </g>
   <g id="line2d_2">
    <path d="M 157.68 94.68 
L 184.68 94.68 
L 202.68 94.68 
" clip-path="url(#p1a4a3d0c71)" style="fill: none; stroke-dasharray: 3.7,1.6; stroke-dashoffset: 0; stroke: #000000"/>
   </g>
   <g id="patch_6">
    <path d="M 202.68 91.98 
L 211.68 94.68 
L 202.68 97.38 
z
" clip-path="url(#p1a4a3d0c71)"/>
   </g>
   <g id="line2d_3">
    <path d="M 94.68 121.68 
L 94.68 139.68 
L 94.68 148.68 
" clip-path="url(#p1a4a3d0c71)" style="fill: none; stroke: #000000; stroke-linecap: round"/>
   </g>
   <g id="patch_7">
    <path d="M 97.38 148.68 
L 94.68 157.68 
L 91.98 148.68 
z
" clip-path="url(#p1a4a3d0c71)"/>
   </g>
   <g id="line2d_4">
    <path d="M 58.68 175.68 
L 58.68 157.68 
L 130.68 157.68 
L 130.68 193.68 
L 58.68 193.68 
L 58.68 175.68 
" clip-path="url(#p1a4a3d0c71)" style="fill: none; stroke: #000000; stroke-linecap: round"/>
   </g>
   <g id="line2d_5">
    <path d="M 58.68 175.68 
L 4.68 175.68 
L 4.68 94.68 
L 22.68 94.68 
" clip-path="url(#p1a4a3d0c71)" style="fill: none; stroke: #000000; stroke-linecap: round"/>
   </g>
   <g id="patch_8">
    <path d="M 22.68 91.98 
L 31.68 94.68 
L 22.68 97.38 
z
" clip-path="url(#p1a4a3d0c71)"/>
   </g>
   <g id="text_1">
    <!-- START -->
    <g transform="translate(73.202031 26.593437) scale(0.14 -0.14)">
     <defs>
      <path id="IPAexGothic-53" d="M 2919 3641 
Q 2563 4259 1853 4259 
Q 1453 4259 1213 4009 
Q 1028 3803 1028 3534 
Q 1028 3238 1266 3047 
Q 1444 2913 1984 2688 
L 2200 2597 
Q 2925 2306 3191 1953 
Q 3422 1644 3422 1259 
Q 3422 644 2969 288 
Q 2559 -31 1931 -31 
Q 881 -31 313 766 
L 753 1100 
Q 1203 459 1938 459 
Q 2288 459 2534 625 
Q 2841 847 2841 1216 
Q 2841 1503 2616 1728 
Q 2375 1959 1728 2206 
L 1541 2278 
Q 453 2694 453 3481 
Q 453 4006 806 4347 
Q 1203 4725 1863 4725 
Q 2841 4725 3359 3956 
L 2919 3641 
z
" transform="scale(0.015625)"/>
      <path id="IPAexGothic-54" d="M 3866 4141 
L 2175 4141 
L 2175 63 
L 1606 63 
L 1606 4141 
L -31 4141 
L -31 4634 
L 3866 4634 
L 3866 4141 
z
" transform="scale(0.015625)"/>
      <path id="IPAexGothic-41" d="M 4056 63 
L 3444 63 
L 2938 1409 
L 1100 1409 
L 603 63 
L -6 63 
L 1806 4666 
L 2259 4666 
L 4056 63 
z
M 2778 1863 
L 2316 3078 
Q 2125 3588 2028 4000 
L 2009 4000 
Q 1897 3563 1716 3078 
L 1263 1863 
L 2778 1863 
z
" transform="scale(0.015625)"/>
      <path id="IPAexGothic-52" d="M 4072 63 
L 3394 63 
Q 3138 641 2828 1197 
Q 2584 1641 2344 1825 
Q 2050 2044 1625 2044 
L 1172 2044 
L 1172 63 
L 609 63 
L 609 4634 
L 2009 4634 
Q 2713 4634 3131 4378 
Q 3688 4044 3688 3381 
Q 3688 2784 3181 2459 
Q 2906 2272 2522 2216 
L 2522 2197 
Q 2941 2050 3247 1581 
Q 3516 1166 4072 63 
z
M 1172 2478 
L 1869 2478 
Q 3106 2478 3106 3369 
Q 3106 4181 1928 4181 
L 1172 4181 
L 1172 2478 
z
" transform="scale(0.015625)"/>
     </defs>
     <use xlink:href="#IPAexGothic-53"/>
     <use xlink:href="#IPAexGothic-54" transform="translate(58.496094 0)"/>
     <use xlink:href="#IPAexGothic-41" transform="translate(118.408203 0)"/>
     <use xlink:href="#IPAexGothic-52" transform="translate(182.128906 0)"/>
     <use xlink:href="#IPAexGothic-54" transform="translate(246.923828 0)"/>
    </g>
   </g>
   <g id="text_2">
    <!-- True -->
    <g transform="translate(99.36 136.846875) scale(0.14 -0.14)">
     <defs>
      <path id="IPAexGothic-72" d="M 2309 3316 
L 2213 2769 
Q 2106 2791 2022 2791 
Q 1653 2791 1413 2444 
Q 1113 2006 1113 1675 
L 1113 63 
L 563 63 
L 563 3250 
L 1081 3250 
L 1056 2303 
L 1069 2303 
Q 1422 3341 2097 3341 
Q 2206 3341 2309 3316 
z
" transform="scale(0.015625)"/>
      <path id="IPAexGothic-75" d="M 3284 63 
L 2772 63 
L 2772 644 
Q 2300 0 1625 0 
Q 1072 0 763 375 
Q 519 678 519 1241 
L 519 3250 
L 1069 3250 
L 1069 1259 
Q 1069 466 1734 466 
Q 2406 466 2734 1291 
L 2734 3250 
L 3284 3250 
L 3284 63 
z
" transform="scale(0.015625)"/>
      <path id="IPAexGothic-65" d="M 863 1594 
Q 891 1041 1209 722 
Q 1534 397 1997 397 
Q 2606 397 2963 966 
L 3322 728 
Q 2869 -31 1931 -31 
Q 1222 -31 766 422 
Q 306 884 306 1641 
Q 306 2444 788 2925 
Q 1216 3353 1856 3353 
Q 2459 3353 2866 2956 
Q 3322 2494 3322 1722 
L 3322 1594 
L 863 1594 
z
M 2756 1997 
Q 2709 2431 2450 2681 
Q 2194 2938 1844 2938 
Q 1438 2938 1150 2591 
Q 953 2356 894 1997 
L 2756 1997 
z
" transform="scale(0.015625)"/>
     </defs>
     <use xlink:href="#IPAexGothic-54"/>
     <use xlink:href="#IPAexGothic-72" transform="translate(59.912109 0)"/>
     <use xlink:href="#IPAexGothic-75" transform="translate(96.923828 0)"/>
     <use xlink:href="#IPAexGothic-65" transform="translate(157.324219 0)"/>
    </g>
   </g>
   <g id="text_3">
    <!-- False -->
    <g transform="translate(162.36 87.34) scale(0.14 -0.14)">
     <defs>
      <path id="IPAexGothic-46" d="M 3469 4141 
L 1172 4141 
L 1172 2656 
L 3206 2656 
L 3206 2188 
L 1172 2188 
L 1172 63 
L 609 63 
L 609 4634 
L 3469 4634 
L 3469 4141 
z
" transform="scale(0.015625)"/>
      <path id="IPAexGothic-61" d="M 3156 63 
L 2672 63 
Q 2559 303 2531 556 
L 2509 556 
Q 2147 -25 1428 -25 
Q 934 -25 622 288 
Q 347 563 347 959 
Q 347 1947 2050 1997 
L 2478 2009 
L 2478 2175 
Q 2478 2509 2288 2700 
Q 2088 2900 1775 2900 
Q 1238 2900 969 2378 
L 494 2597 
Q 938 3328 1788 3328 
Q 2375 3328 2691 3000 
Q 2984 2706 2984 2169 
L 2984 997 
Q 2984 400 3156 63 
z
M 2491 1625 
L 2141 1619 
Q 903 1591 903 953 
Q 903 728 1050 581 
Q 1231 403 1525 403 
Q 1934 403 2234 703 
Q 2491 969 2491 1344 
L 2491 1625 
z
" transform="scale(0.015625)"/>
      <path id="IPAexGothic-6c" d="M 1131 63 
L 581 63 
L 581 4794 
L 1131 4794 
L 1131 63 
z
" transform="scale(0.015625)"/>
      <path id="IPAexGothic-73" d="M 2234 2547 
Q 1938 2931 1484 2931 
Q 891 2931 891 2475 
Q 891 2153 1531 1944 
L 1741 1875 
Q 2650 1578 2650 894 
Q 2650 434 2272 172 
Q 1972 -31 1497 -31 
Q 766 -31 256 503 
L 603 819 
Q 997 397 1516 397 
Q 2131 397 2131 875 
Q 2131 1238 1453 1478 
L 1234 1553 
Q 378 1853 378 2431 
Q 378 2797 628 3047 
Q 928 3347 1453 3347 
Q 2156 3347 2606 2859 
L 2234 2547 
z
" transform="scale(0.015625)"/>
     </defs>
     <use xlink:href="#IPAexGothic-46"/>
     <use xlink:href="#IPAexGothic-61" transform="translate(57.177734 0)"/>
     <use xlink:href="#IPAexGothic-6c" transform="translate(112.158203 0)"/>
     <use xlink:href="#IPAexGothic-73" transform="translate(139.160156 0)"/>
     <use xlink:href="#IPAexGothic-65" transform="translate(185.351562 0)"/>
    </g>
   </g>
   <g id="text_4">
    <!-- True ？ -->
    <g transform="translate(70.794687 98.593437) scale(0.14 -0.14)">
     <defs>
      <path id="IPAexGothic-20" transform="scale(0.015625)"/>
      <path id="IPAexGothic-ff1f" d="M 1503 3444 
Q 1550 4184 1963 4616 
Q 2466 5128 3272 5128 
Q 3888 5128 4313 4853 
Q 4909 4469 4909 3778 
Q 4909 3059 4116 2563 
Q 3628 2250 3506 1881 
Q 3422 1650 3422 1228 
L 2853 1228 
Q 2863 1869 3053 2197 
Q 3281 2588 3847 2950 
Q 4341 3269 4341 3778 
Q 4341 4231 3975 4463 
Q 3697 4634 3266 4634 
Q 2656 4634 2341 4225 
Q 2109 3928 2091 3444 
L 1503 3444 
z
M 2763 647 
L 3506 647 
L 3506 -97 
L 2763 -97 
L 2763 647 
z
" transform="scale(0.015625)"/>
     </defs>
     <use xlink:href="#IPAexGothic-54"/>
     <use xlink:href="#IPAexGothic-72" transform="translate(59.912109 0)"/>
     <use xlink:href="#IPAexGothic-75" transform="translate(96.923828 0)"/>
     <use xlink:href="#IPAexGothic-65" transform="translate(157.324219 0)"/>
     <use xlink:href="#IPAexGothic-20" transform="translate(214.208984 0)"/>
     <use xlink:href="#IPAexGothic-ff1f" transform="translate(241.210938 0)"/>
    </g>
   </g>
   <g id="text_5">
    <!-- END -->
    <g transform="translate(232.896875 98.593437) scale(0.14 -0.14)">
     <defs>
      <path id="IPAexGothic-45" d="M 3547 63 
L 609 63 
L 609 4634 
L 3469 4634 
L 3469 4147 
L 1166 4147 
L 1166 2650 
L 3206 2650 
L 3206 2191 
L 1166 2191 
L 1166 556 
L 3547 556 
L 3547 63 
z
" transform="scale(0.015625)"/>
      <path id="IPAexGothic-4e" d="M 4244 63 
L 3731 63 
L 1697 3150 
Q 1466 3500 1141 4097 
L 1116 4097 
L 1128 3797 
Q 1159 2803 1159 2469 
L 1159 63 
L 609 63 
L 609 4634 
L 1366 4634 
L 3113 1978 
Q 3453 1447 3713 966 
L 3738 966 
Q 3694 1897 3694 2469 
L 3694 4634 
L 4244 4634 
L 4244 63 
z
" transform="scale(0.015625)"/>
      <path id="IPAexGothic-44" d="M 609 4634 
L 1984 4634 
Q 3159 4634 3791 4050 
Q 4456 3444 4456 2356 
Q 4456 1047 3516 441 
Q 2925 63 1941 63 
L 609 63 
L 609 4634 
z
M 1172 556 
L 1894 556 
Q 3853 556 3853 2356 
Q 3853 4147 1928 4147 
L 1172 4147 
L 1172 556 
z
" transform="scale(0.015625)"/>
     </defs>
     <use xlink:href="#IPAexGothic-45"/>
     <use xlink:href="#IPAexGothic-4e" transform="translate(59.521484 0)"/>
     <use xlink:href="#IPAexGothic-44" transform="translate(135.498047 0)"/>
    </g>
   </g>
   <g id="text_6">
    <!-- 実行コード -->
    <g transform="translate(59.68 179.593437) scale(0.14 -0.14)">
     <defs>
      <path id="IPAexGothic-5b9f" d="M 3525 1275 
Q 4288 350 6022 91 
L 5738 -375 
Q 3953 -41 3219 1050 
Q 2731 -144 728 -472 
L 466 -44 
Q 2422 150 2872 1275 
L 384 1275 
L 384 1659 
L 2950 1659 
L 2950 2144 
L 966 2144 
L 966 2509 
L 2950 2509 
L 2950 2969 
L 1266 2969 
L 1266 3341 
L 2950 3341 
L 2950 3988 
L 3403 3988 
L 3403 3341 
L 5125 3341 
L 5125 2969 
L 3403 2969 
L 3403 2509 
L 5444 2509 
L 5444 2144 
L 3403 2144 
L 3403 1659 
L 6016 1659 
L 6016 1275 
L 3525 1275 
z
M 3413 4544 
L 5778 4544 
L 5778 3269 
L 5309 3269 
L 5309 4147 
L 1084 4147 
L 1084 3269 
L 616 3269 
L 616 4544 
L 2938 4544 
L 2938 5313 
L 3413 5313 
L 3413 4544 
z
" transform="scale(0.015625)"/>
      <path id="IPAexGothic-884c" d="M 1822 2753 
L 1822 -447 
L 1353 -447 
L 1353 2169 
Q 966 1744 622 1466 
L 316 1791 
Q 1294 2559 1969 3822 
L 2397 3634 
Q 2109 3138 1822 2753 
z
M 4975 2803 
L 4975 103 
Q 4975 -391 4369 -391 
Q 3925 -391 3356 -341 
L 3288 159 
Q 3775 78 4259 78 
Q 4516 78 4516 319 
L 4516 2803 
L 2384 2803 
L 2384 3225 
L 6013 3225 
L 6013 2803 
L 4975 2803 
z
M 384 3691 
Q 1231 4256 1756 5075 
L 2144 4850 
Q 1541 3947 666 3347 
L 384 3691 
z
M 2709 4794 
L 5659 4794 
L 5659 4378 
L 2709 4378 
L 2709 4794 
z
" transform="scale(0.015625)"/>
      <path id="IPAexGothic-30b3" d="M 1134 4213 
L 5166 4213 
L 5166 153 
L 4653 153 
L 4653 594 
L 1063 594 
L 1063 1088 
L 4653 1088 
L 4653 3725 
L 1134 3725 
L 1134 4213 
z
" transform="scale(0.015625)"/>
      <path id="IPAexGothic-30fc" d="M 588 2688 
L 5809 2688 
L 5809 2175 
L 588 2175 
L 588 2688 
z
" transform="scale(0.015625)"/>
      <path id="IPAexGothic-30c9" d="M 2247 4959 
L 2766 4959 
L 2766 3169 
Q 4050 2581 5178 1850 
L 4841 1331 
Q 3781 2138 2766 2650 
L 2766 -225 
L 2247 -225 
L 2247 4959 
z
M 5263 3847 
Q 4900 4388 4506 4716 
L 4806 4947 
Q 5191 4638 5581 4122 
L 5263 3847 
z
M 4666 3378 
Q 4375 3869 3931 4269 
L 4244 4513 
Q 4616 4206 5000 3653 
L 4666 3378 
z
" transform="scale(0.015625)"/>
     </defs>
     <use xlink:href="#IPAexGothic-5b9f"/>
     <use xlink:href="#IPAexGothic-884c" transform="translate(100 0)"/>
     <use xlink:href="#IPAexGothic-30b3" transform="translate(200 0)"/>
     <use xlink:href="#IPAexGothic-30fc" transform="translate(300 0)"/>
     <use xlink:href="#IPAexGothic-30c9" transform="translate(400 0)"/>
    </g>
   </g>
  </g>
 </g>
 <defs>
  <clipPath id="p1a4a3d0c71">
   <rect x="0" y="-0" width="288.36" height="198.36"/>
  </clipPath>
 </defs>
</svg>