<?xml version="1.0" encoding="utf-8" standalone="no"?>
<!DOCTYPE svg PUBLIC "-//W3C//DTD SVG 1.1//EN"
  "http://www.w3.org/Graphics/SVG/1.1/DTD/svg11.dtd">
<svg xmlns:xlink="http://www.w3.org/1999/xlink" width="343.8pt" height="276.48pt" viewBox="0 0 343.8 276.48" xmlns="http://www.w3.org/2000/svg" version="1.1">
 <metadata>
  <rdf:RDF xmlns:dc="http://purl.org/dc/elements/1.1/" xmlns:cc="http://creativecommons.org/ns#" xmlns:rdf="http://www.w3.org/1999/02/22-rdf-syntax-ns#">
   <cc:Work>
    <dc:type rdf:resource="http://purl.org/dc/dcmitype/StillImage"/>
    <dc:date>2024-03-16T03:50:57.306814</dc:date>
    <dc:format>image/svg+xml</dc:format>
    <dc:creator>
     <cc:Agent>
      <dc:title>Matplotlib v3.8.3, https://matplotlib.org/</dc:title>
     </cc:Agent>
    </dc:creator>
   </cc:Work>
  </rdf:RDF>
 </metadata>
 <defs>
  <style type="text/css">*{stroke-linejoin: round; stroke-linecap: butt}</style>
 </defs>
 <g id="figure_1">
  <g id="patch_1">
   <path d="M 0 276.48 
L 343.8 276.48 
L 343.8 0 
L 0 0 
z
" style="fill: #ffffff"/>
  </g>
  <g id="axes_1">
   <g id="patch_2">
    <path d="M 90.9 51.84 
L 91.185587 51.837734 
L 91.471103 51.830938 
L 91.756474 51.819612 
L 92.041631 51.80376 
L 92.326499 51.783386 
L 92.611009 51.758495 
L 92.895088 51.729092 
L 93.178664 51.695187 
L 93.461667 51.656786 
L 93.744025 51.6139 
L 94.025667 51.56654 
L 94.306522 51.514717 
L 94.58652 51.458444 
L 94.86559 51.397736 
L 95.143661 51.332608 
L 95.420664 51.263077 
L 95.696529 51.189159 
L 95.971186 51.110874 
L 96.244567 51.02824 
L 96.516602 50.94128 
L 96.787223 50.850015 
L 97.056363 50.754467 
L 97.323952 50.654661 
L 97.589924 50.550623 
L 97.854212 50.442377 
L 98.11675 50.329952 
L 98.37747 50.213376 
L 98.636308 50.092678 
L 98.893199 49.967888 
L 99.148077 49.839038 
L 99.400879 49.706161 
L 99.651541 49.569289 
L 99.9 49.428457 
L 100.146193 49.283701 
L 100.390058 49.135058 
L 100.631535 48.982564 
L 100.870561 48.826257 
L 101.107078 48.666178 
L 101.341024 48.502367 
L 101.572343 48.334865 
L 101.800974 48.163713 
L 102.026862 47.988956 
L 102.249948 47.810636 
L 102.470177 47.6288 
L 102.687493 47.443492 
L 102.901842 47.25476 
L 103.113169 47.062651 
L 103.321422 46.867213 
L 103.526548 46.668495 
L 103.728495 46.466548 
L 103.927213 46.261422 
L 104.122651 46.053169 
L 104.31476 45.841842 
L 104.503492 45.627493 
L 104.6888 45.410177 
L 104.870636 45.189948 
L 105.048956 44.966862 
L 105.223713 44.740974 
L 105.394865 44.512343 
L 105.562367 44.281024 
L 105.726178 44.047078 
L 105.886257 43.810561 
L 106.042564 43.571535 
L 106.195058 43.330058 
L 106.343701 43.086193 
L 106.488457 42.84 
L 106.629289 42.591541 
L 106.766161 42.340879 
L 106.899038 42.088077 
L 107.027888 41.833199 
L 107.152678 41.576308 
L 107.273376 41.31747 
L 107.389952 41.05675 
L 107.502377 40.794212 
L 107.610623 40.529924 
L 107.714661 40.263952 
L 107.814467 39.996363 
L 107.910015 39.727223 
L 108.00128 39.456602 
L 108.08824 39.184567 
L 108.170874 38.911186 
L 108.249159 38.636529 
L 108.323077 38.360664 
L 108.392608 38.083661 
L 108.457736 37.80559 
L 108.518444 37.52652 
L 108.574717 37.246522 
L 108.62654 36.965667 
L 108.6739 36.684025 
L 108.716786 36.401667 
L 108.755187 36.118664 
L 108.789092 35.835088 
L 108.818495 35.551009 
L 108.843386 35.266499 
L 108.86376 34.981631 
L 108.879612 34.696474 
L 108.890938 34.411103 
L 108.897734 34.125587 
L 108.9 33.84 
L 108.9 33.84 
L 108.897734 33.554413 
L 108.890938 33.268897 
L 108.879612 32.983526 
L 108.86376 32.698369 
L 108.843386 32.413501 
L 108.818495 32.128991 
L 108.789092 31.844912 
L 108.755187 31.561336 
L 108.716786 31.278333 
L 108.6739 30.995975 
L 108.62654 30.714333 
L 108.574717 30.433478 
L 108.518444 30.15348 
L 108.457736 29.87441 
L 108.392608 29.596339 
L 108.323077 29.319336 
L 108.249159 29.043471 
L 108.170874 28.768814 
L 108.08824 28.495433 
L 108.00128 28.223398 
L 107.910015 27.952777 
L 107.814467 27.683637 
L 107.714661 27.416048 
L 107.610623 27.150076 
L 107.502377 26.885788 
L 107.389952 26.62325 
L 107.273376 26.36253 
L 107.152678 26.103692 
L 107.027888 25.846801 
L 106.899038 25.591923 
L 106.766161 25.339121 
L 106.629289 25.088459 
L 106.488457 24.84 
L 106.343701 24.593807 
L 106.195058 24.349942 
L 106.042564 24.108465 
L 105.886257 23.869439 
L 105.726178 23.632922 
L 105.562367 23.398976 
L 105.394865 23.167657 
L 105.223713 22.939026 
L 105.048956 22.713138 
L 104.870636 22.490052 
L 104.6888 22.269823 
L 104.503492 22.052507 
L 104.31476 21.838158 
L 104.122651 21.626831 
L 103.927213 21.418578 
L 103.728495 21.213452 
L 103.526548 21.011505 
L 103.321422 20.812787 
L 103.113169 20.617349 
L 102.901842 20.42524 
L 102.687493 20.236508 
L 102.470177 20.0512 
L 102.249948 19.869364 
L 102.026862 19.691044 
L 101.800974 19.516287 
L 101.572343 19.345135 
L 101.341024 19.177633 
L 101.107078 19.013822 
L 100.870561 18.853743 
L 100.631535 18.697436 
L 100.390058 18.544942 
L 100.146193 18.396299 
L 99.9 18.251543 
L 99.651541 18.110711 
L 99.400879 17.973839 
L 99.148077 17.840962 
L 98.893199 17.712112 
L 98.636308 17.587322 
L 98.37747 17.466624 
L 98.11675 17.350048 
L 97.854212 17.237623 
L 97.589924 17.129377 
L 97.323952 17.025339 
L 97.056363 16.925533 
L 96.787223 16.829985 
L 96.516602 16.73872 
L 96.244567 16.65176 
L 95.971186 16.569126 
L 95.696529 16.490841 
L 95.420664 16.416923 
L 95.143661 16.347392 
L 94.86559 16.282264 
L 94.58652 16.221556 
L 94.306522 16.165283 
L 94.025667 16.11346 
L 93.744025 16.0661 
L 93.461667 16.023214 
L 93.178664 15.984813 
L 92.895088 15.950908 
L 92.611009 15.921505 
L 92.326499 15.896614 
L 92.041631 15.87624 
L 91.756474 15.860388 
L 91.471103 15.849062 
L 91.185587 15.842266 
L 90.9 15.84 
L 54.9 15.84 
L 54.614413 15.842266 
L 54.328897 15.849062 
L 54.043526 15.860388 
L 53.758369 15.87624 
L 53.473501 15.896614 
L 53.188991 15.921505 
L 52.904912 15.950908 
L 52.621336 15.984813 
L 52.338333 16.023214 
L 52.055975 16.0661 
L 51.774333 16.11346 
L 51.493478 16.165283 
L 51.21348 16.221556 
L 50.93441 16.282264 
L 50.656339 16.347392 
L 50.379336 16.416923 
L 50.103471 16.490841 
L 49.828814 16.569126 
L 49.555433 16.65176 
L 49.283398 16.73872 
L 49.012777 16.829985 
L 48.743637 16.925533 
L 48.476048 17.025339 
L 48.210076 17.129377 
L 47.945788 17.237623 
L 47.68325 17.350048 
L 47.42253 17.466624 
L 47.163692 17.587322 
L 46.906801 17.712112 
L 46.651923 17.840962 
L 46.399121 17.973839 
L 46.148459 18.110711 
L 45.9 18.251543 
L 45.653807 18.396299 
L 45.409942 18.544942 
L 45.168465 18.697436 
L 44.929439 18.853743 
L 44.692922 19.013822 
L 44.458976 19.177633 
L 44.227657 19.345135 
L 43.999026 19.516287 
L 43.773138 19.691044 
L 43.550052 19.869364 
L 43.329823 20.0512 
L 43.112507 20.236508 
L 42.898158 20.42524 
L 42.686831 20.617349 
L 42.478578 20.812787 
L 42.273452 21.011505 
L 42.071505 21.213452 
L 41.872787 21.418578 
L 41.677349 21.626831 
L 41.48524 21.838158 
L 41.296508 22.052507 
L 41.1112 22.269823 
L 40.929364 22.490052 
L 40.751044 22.713138 
L 40.576287 22.939026 
L 40.405135 23.167657 
L 40.237633 23.398976 
L 40.073822 23.632922 
L 39.913743 23.869439 
L 39.757436 24.108465 
L 39.604942 24.349942 
L 39.456299 24.593807 
L 39.311543 24.84 
L 39.170711 25.088459 
L 39.033839 25.339121 
L 38.900962 25.591923 
L 38.772112 25.846801 
L 38.647322 26.103692 
L 38.526624 26.36253 
L 38.410048 26.62325 
L 38.297623 26.885788 
L 38.189377 27.150076 
L 38.085339 27.416048 
L 37.985533 27.683637 
L 37.889985 27.952777 
L 37.79872 28.223398 
L 37.71176 28.495433 
L 37.629126 28.768814 
L 37.550841 29.043471 
L 37.476923 29.319336 
L 37.407392 29.596339 
L 37.342264 29.87441 
L 37.281556 30.15348 
L 37.225283 30.433478 
L 37.17346 30.714333 
L 37.1261 30.995975 
L 37.083214 31.278333 
L 37.044813 31.561336 
L 37.010908 31.844912 
L 36.981505 32.128991 
L 36.956614 32.413501 
L 36.93624 32.698369 
L 36.920388 32.983526 
L 36.909062 33.268897 
L 36.902266 33.554413 
L 36.9 33.84 
L 36.9 33.84 
L 36.902266 34.125587 
L 36.909062 34.411103 
L 36.920388 34.696474 
L 36.93624 34.981631 
L 36.956614 35.266499 
L 36.981505 35.551009 
L 37.010908 35.835088 
L 37.044813 36.118664 
L 37.083214 36.401667 
L 37.1261 36.684025 
L 37.17346 36.965667 
L 37.225283 37.246522 
L 37.281556 37.52652 
L 37.342264 37.80559 
L 37.407392 38.083661 
L 37.476923 38.360664 
L 37.550841 38.636529 
L 37.629126 38.911186 
L 37.71176 39.184567 
L 37.79872 39.456602 
L 37.889985 39.727223 
L 37.985533 39.996363 
L 38.085339 40.263952 
L 38.189377 40.529924 
L 38.297623 40.794212 
L 38.410048 41.05675 
L 38.526624 41.31747 
L 38.647322 41.576308 
L 38.772112 41.833199 
L 38.900962 42.088077 
L 39.033839 42.340879 
L 39.170711 42.591541 
L 39.311543 42.84 
L 39.456299 43.086193 
L 39.604942 43.330058 
L 39.757436 43.571535 
L 39.913743 43.810561 
L 40.073822 44.047078 
L 40.237633 44.281024 
L 40.405135 44.512343 
L 40.576287 44.740974 
L 40.751044 44.966862 
L 40.929364 45.189948 
L 41.1112 45.410177 
L 41.296508 45.627493 
L 41.48524 45.841842 
L 41.677349 46.053169 
L 41.872787 46.261422 
L 42.071505 46.466548 
L 42.273452 46.668495 
L 42.478578 46.867213 
L 42.686831 47.062651 
L 42.898158 47.25476 
L 43.112507 47.443492 
L 43.329823 47.6288 
L 43.550052 47.810636 
L 43.773138 47.988956 
L 43.999026 48.163713 
L 44.227657 48.334865 
L 44.458976 48.502367 
L 44.692922 48.666178 
L 44.929439 48.826257 
L 45.168465 48.982564 
L 45.409942 49.135058 
L 45.653807 49.283701 
L 45.9 49.428457 
L 46.148459 49.569289 
L 46.399121 49.706161 
L 46.651923 49.839038 
L 46.906801 49.967888 
L 47.163692 50.092678 
L 47.42253 50.213376 
L 47.68325 50.329952 
L 47.945788 50.442377 
L 48.210076 50.550623 
L 48.476048 50.654661 
L 48.743637 50.754467 
L 49.012777 50.850015 
L 49.283398 50.94128 
L 49.555433 51.02824 
L 49.828814 51.110874 
L 50.103471 51.189159 
L 50.379336 51.263077 
L 50.656339 51.332608 
L 50.93441 51.397736 
L 51.21348 51.458444 
L 51.493478 51.514717 
L 51.774333 51.56654 
L 52.055975 51.6139 
L 52.338333 51.656786 
L 52.621336 51.695187 
L 52.904912 51.729092 
L 53.188991 51.758495 
L 53.473501 51.783386 
L 53.758369 51.80376 
L 54.043526 51.819612 
L 54.328897 51.830938 
L 54.614413 51.837734 
L 54.9 51.84 
L 90.9 51.84 
z
" clip-path="url(#p45fc146bf6)" style="fill: none; stroke: #000000; stroke-linecap: round"/>
   </g>
   <g id="patch_3">
    <path d="M 18.9 165.24 
L 72.9 141.84 
L 126.9 165.24 
L 72.9 188.64 
L 18.9 165.24 
z
" clip-path="url(#p45fc146bf6)" style="fill: none; stroke: #000000; stroke-linecap: round"/>
   </g>
   <g id="patch_4">
    <path d="M 270.9 246.24 
L 271.185587 246.237734 
L 271.471103 246.230938 
L 271.756474 246.219612 
L 272.041631 246.20376 
L 272.326499 246.183386 
L 272.611009 246.158495 
L 272.895088 246.129092 
L 273.178664 246.095187 
L 273.461667 246.056786 
L 273.744025 246.0139 
L 274.025667 245.96654 
L 274.306522 245.914717 
L 274.58652 245.858444 
L 274.86559 245.797736 
L 275.143661 245.732608 
L 275.420664 245.663077 
L 275.696529 245.589159 
L 275.971186 245.510874 
L 276.244567 245.42824 
L 276.516602 245.34128 
L 276.787223 245.250015 
L 277.056363 245.154467 
L 277.323952 245.054661 
L 277.589924 244.950623 
L 277.854212 244.842377 
L 278.11675 244.729952 
L 278.37747 244.613376 
L 278.636308 244.492678 
L 278.893199 244.367888 
L 279.148077 244.239038 
L 279.400879 244.106161 
L 279.651541 243.969289 
L 279.9 243.828457 
L 280.146193 243.683701 
L 280.390058 243.535058 
L 280.631535 243.382564 
L 280.870561 243.226257 
L 281.107078 243.066178 
L 281.341024 242.902367 
L 281.572343 242.734865 
L 281.800974 242.563713 
L 282.026862 242.388956 
L 282.249948 242.210636 
L 282.470177 242.0288 
L 282.687493 241.843492 
L 282.901842 241.65476 
L 283.113169 241.462651 
L 283.321422 241.267213 
L 283.526548 241.068495 
L 283.728495 240.866548 
L 283.927213 240.661422 
L 284.122651 240.453169 
L 284.31476 240.241842 
L 284.503492 240.027493 
L 284.6888 239.810177 
L 284.870636 239.589948 
L 285.048956 239.366862 
L 285.223713 239.140974 
L 285.394865 238.912343 
L 285.562367 238.681024 
L 285.726178 238.447078 
L 285.886257 238.210561 
L 286.042564 237.971535 
L 286.195058 237.730058 
L 286.343701 237.486193 
L 286.488457 237.24 
L 286.629289 236.991541 
L 286.766161 236.740879 
L 286.899038 236.488077 
L 287.027888 236.233199 
L 287.152678 235.976308 
L 287.273376 235.71747 
L 287.389952 235.45675 
L 287.502377 235.194212 
L 287.610623 234.929924 
L 287.714661 234.663952 
L 287.814467 234.396363 
L 287.910015 234.127223 
L 288.00128 233.856602 
L 288.08824 233.584567 
L 288.170874 233.311186 
L 288.249159 233.036529 
L 288.323077 232.760664 
L 288.392608 232.483661 
L 288.457736 232.20559 
L 288.518444 231.92652 
L 288.574717 231.646522 
L 288.62654 231.365667 
L 288.6739 231.084025 
L 288.716786 230.801667 
L 288.755187 230.518664 
L 288.789092 230.235088 
L 288.818495 229.951009 
L 288.843386 229.666499 
L 288.86376 229.381631 
L 288.879612 229.096474 
L 288.890938 228.811103 
L 288.897734 228.525587 
L 288.9 228.24 
L 288.9 228.24 
L 288.897734 227.954413 
L 288.890938 227.668897 
L 288.879612 227.383526 
L 288.86376 227.098369 
L 288.843386 226.813501 
L 288.818495 226.528991 
L 288.789092 226.244912 
L 288.755187 225.961336 
L 288.716786 225.678333 
L 288.6739 225.395975 
L 288.62654 225.114333 
L 288.574717 224.833478 
L 288.518444 224.55348 
L 288.457736 224.27441 
L 288.392608 223.996339 
L 288.323077 223.719336 
L 288.249159 223.443471 
L 288.170874 223.168814 
L 288.08824 222.895433 
L 288.00128 222.623398 
L 287.910015 222.352777 
L 287.814467 222.083637 
L 287.714661 221.816048 
L 287.610623 221.550076 
L 287.502377 221.285788 
L 287.389952 221.02325 
L 287.273376 220.76253 
L 287.152678 220.503692 
L 287.027888 220.246801 
L 286.899038 219.991923 
L 286.766161 219.739121 
L 286.629289 219.488459 
L 286.488457 219.24 
L 286.343701 218.993807 
L 286.195058 218.749942 
L 286.042564 218.508465 
L 285.886257 218.269439 
L 285.726178 218.032922 
L 285.562367 217.798976 
L 285.394865 217.567657 
L 285.223713 217.339026 
L 285.048956 217.113138 
L 284.870636 216.890052 
L 284.6888 216.669823 
L 284.503492 216.452507 
L 284.31476 216.238158 
L 284.122651 216.026831 
L 283.927213 215.818578 
L 283.728495 215.613452 
L 283.526548 215.411505 
L 283.321422 215.212787 
L 283.113169 215.017349 
L 282.901842 214.82524 
L 282.687493 214.636508 
L 282.470177 214.4512 
L 282.249948 214.269364 
L 282.026862 214.091044 
L 281.800974 213.916287 
L 281.572343 213.745135 
L 281.341024 213.577633 
L 281.107078 213.413822 
L 280.870561 213.253743 
L 280.631535 213.097436 
L 280.390058 212.944942 
L 280.146193 212.796299 
L 279.9 212.651543 
L 279.651541 212.510711 
L 279.400879 212.373839 
L 279.148077 212.240962 
L 278.893199 212.112112 
L 278.636308 211.987322 
L 278.37747 211.866624 
L 278.11675 211.750048 
L 277.854212 211.637623 
L 277.589924 211.529377 
L 277.323952 211.425339 
L 277.056363 211.325533 
L 276.787223 211.229985 
L 276.516602 211.13872 
L 276.244567 211.05176 
L 275.971186 210.969126 
L 275.696529 210.890841 
L 275.420664 210.816923 
L 275.143661 210.747392 
L 274.86559 210.682264 
L 274.58652 210.621556 
L 274.306522 210.565283 
L 274.025667 210.51346 
L 273.744025 210.4661 
L 273.461667 210.423214 
L 273.178664 210.384813 
L 272.895088 210.350908 
L 272.611009 210.321505 
L 272.326499 210.296614 
L 272.041631 210.27624 
L 271.756474 210.260388 
L 271.471103 210.249062 
L 271.185587 210.242266 
L 270.9 210.24 
L 234.9 210.24 
L 234.614413 210.242266 
L 234.328897 210.249062 
L 234.043526 210.260388 
L 233.758369 210.27624 
L 233.473501 210.296614 
L 233.188991 210.321505 
L 232.904912 210.350908 
L 232.621336 210.384813 
L 232.338333 210.423214 
L 232.055975 210.4661 
L 231.774333 210.51346 
L 231.493478 210.565283 
L 231.21348 210.621556 
L 230.93441 210.682264 
L 230.656339 210.747392 
L 230.379336 210.816923 
L 230.103471 210.890841 
L 229.828814 210.969126 
L 229.555433 211.05176 
L 229.283398 211.13872 
L 229.012777 211.229985 
L 228.743637 211.325533 
L 228.476048 211.425339 
L 228.210076 211.529377 
L 227.945788 211.637623 
L 227.68325 211.750048 
L 227.42253 211.866624 
L 227.163692 211.987322 
L 226.906801 212.112112 
L 226.651923 212.240962 
L 226.399121 212.373839 
L 226.148459 212.510711 
L 225.9 212.651543 
L 225.653807 212.796299 
L 225.409942 212.944942 
L 225.168465 213.097436 
L 224.929439 213.253743 
L 224.692922 213.413822 
L 224.458976 213.577633 
L 224.227657 213.745135 
L 223.999026 213.916287 
L 223.773138 214.091044 
L 223.550052 214.269364 
L 223.329823 214.4512 
L 223.112507 214.636508 
L 222.898158 214.82524 
L 222.686831 215.017349 
L 222.478578 215.212787 
L 222.273452 215.411505 
L 222.071505 215.613452 
L 221.872787 215.818578 
L 221.677349 216.026831 
L 221.48524 216.238158 
L 221.296508 216.452507 
L 221.1112 216.669823 
L 220.929364 216.890052 
L 220.751044 217.113138 
L 220.576287 217.339026 
L 220.405135 217.567657 
L 220.237633 217.798976 
L 220.073822 218.032922 
L 219.913743 218.269439 
L 219.757436 218.508465 
L 219.604942 218.749942 
L 219.456299 218.993807 
L 219.311543 219.24 
L 219.170711 219.488459 
L 219.033839 219.739121 
L 218.900962 219.991923 
L 218.772112 220.246801 
L 218.647322 220.503692 
L 218.526624 220.76253 
L 218.410048 221.02325 
L 218.297623 221.285788 
L 218.189377 221.550076 
L 218.085339 221.816048 
L 217.985533 222.083637 
L 217.889985 222.352777 
L 217.79872 222.623398 
L 217.71176 222.895433 
L 217.629126 223.168814 
L 217.550841 223.443471 
L 217.476923 223.719336 
L 217.407392 223.996339 
L 217.342264 224.27441 
L 217.281556 224.55348 
L 217.225283 224.833478 
L 217.17346 225.114333 
L 217.1261 225.395975 
L 217.083214 225.678333 
L 217.044813 225.961336 
L 217.010908 226.244912 
L 216.981505 226.528991 
L 216.956614 226.813501 
L 216.93624 227.098369 
L 216.920388 227.383526 
L 216.909062 227.668897 
L 216.902266 227.954413 
L 216.9 228.24 
L 216.9 228.24 
L 216.902266 228.525587 
L 216.909062 228.811103 
L 216.920388 229.096474 
L 216.93624 229.381631 
L 216.956614 229.666499 
L 216.981505 229.951009 
L 217.010908 230.235088 
L 217.044813 230.518664 
L 217.083214 230.801667 
L 217.1261 231.084025 
L 217.17346 231.365667 
L 217.225283 231.646522 
L 217.281556 231.92652 
L 217.342264 232.20559 
L 217.407392 232.483661 
L 217.476923 232.760664 
L 217.550841 233.036529 
L 217.629126 233.311186 
L 217.71176 233.584567 
L 217.79872 233.856602 
L 217.889985 234.127223 
L 217.985533 234.396363 
L 218.085339 234.663952 
L 218.189377 234.929924 
L 218.297623 235.194212 
L 218.410048 235.45675 
L 218.526624 235.71747 
L 218.647322 235.976308 
L 218.772112 236.233199 
L 218.900962 236.488077 
L 219.033839 236.740879 
L 219.170711 236.991541 
L 219.311543 237.24 
L 219.456299 237.486193 
L 219.604942 237.730058 
L 219.757436 237.971535 
L 219.913743 238.210561 
L 220.073822 238.447078 
L 220.237633 238.681024 
L 220.405135 238.912343 
L 220.576287 239.140974 
L 220.751044 239.366862 
L 220.929364 239.589948 
L 221.1112 239.810177 
L 221.296508 240.027493 
L 221.48524 240.241842 
L 221.677349 240.453169 
L 221.872787 240.661422 
L 222.071505 240.866548 
L 222.273452 241.068495 
L 222.478578 241.267213 
L 222.686831 241.462651 
L 222.898158 241.65476 
L 223.112507 241.843492 
L 223.329823 242.0288 
L 223.550052 242.210636 
L 223.773138 242.388956 
L 223.999026 242.563713 
L 224.227657 242.734865 
L 224.458976 242.902367 
L 224.692922 243.066178 
L 224.929439 243.226257 
L 225.168465 243.382564 
L 225.409942 243.535058 
L 225.653807 243.683701 
L 225.9 243.828457 
L 226.148459 243.969289 
L 226.399121 244.106161 
L 226.651923 244.239038 
L 226.906801 244.367888 
L 227.163692 244.492678 
L 227.42253 244.613376 
L 227.68325 244.729952 
L 227.945788 244.842377 
L 228.210076 244.950623 
L 228.476048 245.054661 
L 228.743637 245.154467 
L 229.012777 245.250015 
L 229.283398 245.34128 
L 229.555433 245.42824 
L 229.828814 245.510874 
L 230.103471 245.589159 
L 230.379336 245.663077 
L 230.656339 245.732608 
L 230.93441 245.797736 
L 231.21348 245.858444 
L 231.493478 245.914717 
L 231.774333 245.96654 
L 232.055975 246.0139 
L 232.338333 246.056786 
L 232.621336 246.095187 
L 232.904912 246.129092 
L 233.188991 246.158495 
L 233.473501 246.183386 
L 233.758369 246.20376 
L 234.043526 246.219612 
L 234.328897 246.230938 
L 234.614413 246.237734 
L 234.9 246.24 
L 270.9 246.24 
z
" clip-path="url(#p45fc146bf6)" style="fill: none; stroke: #000000; stroke-linecap: round"/>
   </g>
   <g id="patch_5">
    <path d="M 90.9 260.64 
L 91.185587 260.637734 
L 91.471103 260.630938 
L 91.756474 260.619612 
L 92.041631 260.60376 
L 92.326499 260.583386 
L 92.611009 260.558495 
L 92.895088 260.529092 
L 93.178664 260.495187 
L 93.461667 260.456786 
L 93.744025 260.4139 
L 94.025667 260.36654 
L 94.306522 260.314717 
L 94.58652 260.258444 
L 94.86559 260.197736 
L 95.143661 260.132608 
L 95.420664 260.063077 
L 95.696529 259.989159 
L 95.971186 259.910874 
L 96.244567 259.82824 
L 96.516602 259.74128 
L 96.787223 259.650015 
L 97.056363 259.554467 
L 97.323952 259.454661 
L 97.589924 259.350623 
L 97.854212 259.242377 
L 98.11675 259.129952 
L 98.37747 259.013376 
L 98.636308 258.892678 
L 98.893199 258.767888 
L 99.148077 258.639038 
L 99.400879 258.506161 
L 99.651541 258.369289 
L 99.9 258.228457 
L 100.146193 258.083701 
L 100.390058 257.935058 
L 100.631535 257.782564 
L 100.870561 257.626257 
L 101.107078 257.466178 
L 101.341024 257.302367 
L 101.572343 257.134865 
L 101.800974 256.963713 
L 102.026862 256.788956 
L 102.249948 256.610636 
L 102.470177 256.4288 
L 102.687493 256.243492 
L 102.901842 256.05476 
L 103.113169 255.862651 
L 103.321422 255.667213 
L 103.526548 255.468495 
L 103.728495 255.266548 
L 103.927213 255.061422 
L 104.122651 254.853169 
L 104.31476 254.641842 
L 104.503492 254.427493 
L 104.6888 254.210177 
L 104.870636 253.989948 
L 105.048956 253.766862 
L 105.223713 253.540974 
L 105.394865 253.312343 
L 105.562367 253.081024 
L 105.726178 252.847078 
L 105.886257 252.610561 
L 106.042564 252.371535 
L 106.195058 252.130058 
L 106.343701 251.886193 
L 106.488457 251.64 
L 106.629289 251.391541 
L 106.766161 251.140879 
L 106.899038 250.888077 
L 107.027888 250.633199 
L 107.152678 250.376308 
L 107.273376 250.11747 
L 107.389952 249.85675 
L 107.502377 249.594212 
L 107.610623 249.329924 
L 107.714661 249.063952 
L 107.814467 248.796363 
L 107.910015 248.527223 
L 108.00128 248.256602 
L 108.08824 247.984567 
L 108.170874 247.711186 
L 108.249159 247.436529 
L 108.323077 247.160664 
L 108.392608 246.883661 
L 108.457736 246.60559 
L 108.518444 246.32652 
L 108.574717 246.046522 
L 108.62654 245.765667 
L 108.6739 245.484025 
L 108.716786 245.201667 
L 108.755187 244.918664 
L 108.789092 244.635088 
L 108.818495 244.351009 
L 108.843386 244.066499 
L 108.86376 243.781631 
L 108.879612 243.496474 
L 108.890938 243.211103 
L 108.897734 242.925587 
L 108.9 242.64 
L 108.9 242.64 
L 108.897734 242.354413 
L 108.890938 242.068897 
L 108.879612 241.783526 
L 108.86376 241.498369 
L 108.843386 241.213501 
L 108.818495 240.928991 
L 108.789092 240.644912 
L 108.755187 240.361336 
L 108.716786 240.078333 
L 108.6739 239.795975 
L 108.62654 239.514333 
L 108.574717 239.233478 
L 108.518444 238.95348 
L 108.457736 238.67441 
L 108.392608 238.396339 
L 108.323077 238.119336 
L 108.249159 237.843471 
L 108.170874 237.568814 
L 108.08824 237.295433 
L 108.00128 237.023398 
L 107.910015 236.752777 
L 107.814467 236.483637 
L 107.714661 236.216048 
L 107.610623 235.950076 
L 107.502377 235.685788 
L 107.389952 235.42325 
L 107.273376 235.16253 
L 107.152678 234.903692 
L 107.027888 234.646801 
L 106.899038 234.391923 
L 106.766161 234.139121 
L 106.629289 233.888459 
L 106.488457 233.64 
L 106.343701 233.393807 
L 106.195058 233.149942 
L 106.042564 232.908465 
L 105.886257 232.669439 
L 105.726178 232.432922 
L 105.562367 232.198976 
L 105.394865 231.967657 
L 105.223713 231.739026 
L 105.048956 231.513138 
L 104.870636 231.290052 
L 104.6888 231.069823 
L 104.503492 230.852507 
L 104.31476 230.638158 
L 104.122651 230.426831 
L 103.927213 230.218578 
L 103.728495 230.013452 
L 103.526548 229.811505 
L 103.321422 229.612787 
L 103.113169 229.417349 
L 102.901842 229.22524 
L 102.687493 229.036508 
L 102.470177 228.8512 
L 102.249948 228.669364 
L 102.026862 228.491044 
L 101.800974 228.316287 
L 101.572343 228.145135 
L 101.341024 227.977633 
L 101.107078 227.813822 
L 100.870561 227.653743 
L 100.631535 227.497436 
L 100.390058 227.344942 
L 100.146193 227.196299 
L 99.9 227.051543 
L 99.651541 226.910711 
L 99.400879 226.773839 
L 99.148077 226.640962 
L 98.893199 226.512112 
L 98.636308 226.387322 
L 98.37747 226.266624 
L 98.11675 226.150048 
L 97.854212 226.037623 
L 97.589924 225.929377 
L 97.323952 225.825339 
L 97.056363 225.725533 
L 96.787223 225.629985 
L 96.516602 225.53872 
L 96.244567 225.45176 
L 95.971186 225.369126 
L 95.696529 225.290841 
L 95.420664 225.216923 
L 95.143661 225.147392 
L 94.86559 225.082264 
L 94.58652 225.021556 
L 94.306522 224.965283 
L 94.025667 224.91346 
L 93.744025 224.8661 
L 93.461667 224.823214 
L 93.178664 224.784813 
L 92.895088 224.750908 
L 92.611009 224.721505 
L 92.326499 224.696614 
L 92.041631 224.67624 
L 91.756474 224.660388 
L 91.471103 224.649062 
L 91.185587 224.642266 
L 90.9 224.64 
L 54.9 224.64 
L 54.614413 224.642266 
L 54.328897 224.649062 
L 54.043526 224.660388 
L 53.758369 224.67624 
L 53.473501 224.696614 
L 53.188991 224.721505 
L 52.904912 224.750908 
L 52.621336 224.784813 
L 52.338333 224.823214 
L 52.055975 224.8661 
L 51.774333 224.91346 
L 51.493478 224.965283 
L 51.21348 225.021556 
L 50.93441 225.082264 
L 50.656339 225.147392 
L 50.379336 225.216923 
L 50.103471 225.290841 
L 49.828814 225.369126 
L 49.555433 225.45176 
L 49.283398 225.53872 
L 49.012777 225.629985 
L 48.743637 225.725533 
L 48.476048 225.825339 
L 48.210076 225.929377 
L 47.945788 226.037623 
L 47.68325 226.150048 
L 47.42253 226.266624 
L 47.163692 226.387322 
L 46.906801 226.512112 
L 46.651923 226.640962 
L 46.399121 226.773839 
L 46.148459 226.910711 
L 45.9 227.051543 
L 45.653807 227.196299 
L 45.409942 227.344942 
L 45.168465 227.497436 
L 44.929439 227.653743 
L 44.692922 227.813822 
L 44.458976 227.977633 
L 44.227657 228.145135 
L 43.999026 228.316287 
L 43.773138 228.491044 
L 43.550052 228.669364 
L 43.329823 228.8512 
L 43.112507 229.036508 
L 42.898158 229.22524 
L 42.686831 229.417349 
L 42.478578 229.612787 
L 42.273452 229.811505 
L 42.071505 230.013452 
L 41.872787 230.218578 
L 41.677349 230.426831 
L 41.48524 230.638158 
L 41.296508 230.852507 
L 41.1112 231.069823 
L 40.929364 231.290052 
L 40.751044 231.513138 
L 40.576287 231.739026 
L 40.405135 231.967657 
L 40.237633 232.198976 
L 40.073822 232.432922 
L 39.913743 232.669439 
L 39.757436 232.908465 
L 39.604942 233.149942 
L 39.456299 233.393807 
L 39.311543 233.64 
L 39.170711 233.888459 
L 39.033839 234.139121 
L 38.900962 234.391923 
L 38.772112 234.646801 
L 38.647322 234.903692 
L 38.526624 235.16253 
L 38.410048 235.42325 
L 38.297623 235.685788 
L 38.189377 235.950076 
L 38.085339 236.216048 
L 37.985533 236.483637 
L 37.889985 236.752777 
L 37.79872 237.023398 
L 37.71176 237.295433 
L 37.629126 237.568814 
L 37.550841 237.843471 
L 37.476923 238.119336 
L 37.407392 238.396339 
L 37.342264 238.67441 
L 37.281556 238.95348 
L 37.225283 239.233478 
L 37.17346 239.514333 
L 37.1261 239.795975 
L 37.083214 240.078333 
L 37.044813 240.361336 
L 37.010908 240.644912 
L 36.981505 240.928991 
L 36.956614 241.213501 
L 36.93624 241.498369 
L 36.920388 241.783526 
L 36.909062 242.068897 
L 36.902266 242.354413 
L 36.9 242.64 
L 36.9 242.64 
L 36.902266 242.925587 
L 36.909062 243.211103 
L 36.920388 243.496474 
L 36.93624 243.781631 
L 36.956614 244.066499 
L 36.981505 244.351009 
L 37.010908 244.635088 
L 37.044813 244.918664 
L 37.083214 245.201667 
L 37.1261 245.484025 
L 37.17346 245.765667 
L 37.225283 246.046522 
L 37.281556 246.32652 
L 37.342264 246.60559 
L 37.407392 246.883661 
L 37.476923 247.160664 
L 37.550841 247.436529 
L 37.629126 247.711186 
L 37.71176 247.984567 
L 37.79872 248.256602 
L 37.889985 248.527223 
L 37.985533 248.796363 
L 38.085339 249.063952 
L 38.189377 249.329924 
L 38.297623 249.594212 
L 38.410048 249.85675 
L 38.526624 250.11747 
L 38.647322 250.376308 
L 38.772112 250.633199 
L 38.900962 250.888077 
L 39.033839 251.140879 
L 39.170711 251.391541 
L 39.311543 251.64 
L 39.456299 251.886193 
L 39.604942 252.130058 
L 39.757436 252.371535 
L 39.913743 252.610561 
L 40.073822 252.847078 
L 40.237633 253.081024 
L 40.405135 253.312343 
L 40.576287 253.540974 
L 40.751044 253.766862 
L 40.929364 253.989948 
L 41.1112 254.210177 
L 41.296508 254.427493 
L 41.48524 254.641842 
L 41.677349 254.853169 
L 41.872787 255.061422 
L 42.071505 255.266548 
L 42.273452 255.468495 
L 42.478578 255.667213 
L 42.686831 255.862651 
L 42.898158 256.05476 
L 43.112507 256.243492 
L 43.329823 256.4288 
L 43.550052 256.610636 
L 43.773138 256.788956 
L 43.999026 256.963713 
L 44.227657 257.134865 
L 44.458976 257.302367 
L 44.692922 257.466178 
L 44.929439 257.626257 
L 45.168465 257.782564 
L 45.409942 257.935058 
L 45.653807 258.083701 
L 45.9 258.228457 
L 46.148459 258.369289 
L 46.399121 258.506161 
L 46.651923 258.639038 
L 46.906801 258.767888 
L 47.163692 258.892678 
L 47.42253 259.013376 
L 47.68325 259.129952 
L 47.945788 259.242377 
L 48.210076 259.350623 
L 48.476048 259.454661 
L 48.743637 259.554467 
L 49.012777 259.650015 
L 49.283398 259.74128 
L 49.555433 259.82824 
L 49.828814 259.910874 
L 50.103471 259.989159 
L 50.379336 260.063077 
L 50.656339 260.132608 
L 50.93441 260.197736 
L 51.21348 260.258444 
L 51.493478 260.314717 
L 51.774333 260.36654 
L 52.055975 260.4139 
L 52.338333 260.456786 
L 52.621336 260.495187 
L 52.904912 260.529092 
L 53.188991 260.558495 
L 53.473501 260.583386 
L 53.758369 260.60376 
L 54.043526 260.619612 
L 54.328897 260.630938 
L 54.614413 260.637734 
L 54.9 260.64 
L 90.9 260.64 
z
" clip-path="url(#p45fc146bf6)" style="fill: none; stroke: #000000; stroke-linecap: round"/>
   </g>
   <g id="line2d_1">
    <path d="M 72.9 51.84 
L 72.9 65.34 
L 72.9 69.84 
" clip-path="url(#p45fc146bf6)" style="fill: none; stroke: #000000; stroke-linecap: round"/>
   </g>
   <g id="patch_6">
    <path d="M 75.6 69.84 
L 72.9 78.84 
L 70.2 69.84 
z
" clip-path="url(#p45fc146bf6)"/>
   </g>
   <g id="line2d_2">
    <path d="M 36.9 96.84 
L 36.9 78.84 
L 108.9 78.84 
L 108.9 114.84 
L 36.9 114.84 
L 36.9 96.84 
" clip-path="url(#p45fc146bf6)" style="fill: none; stroke: #000000; stroke-linecap: round"/>
   </g>
   <g id="line2d_3">
    <path d="M 72.9 114.84 
L 72.9 128.34 
L 72.9 132.84 
" clip-path="url(#p45fc146bf6)" style="fill: none; stroke: #000000; stroke-linecap: round"/>
   </g>
   <g id="patch_7">
    <path d="M 75.6 132.84 
L 72.9 141.84 
L 70.2 132.84 
z
" clip-path="url(#p45fc146bf6)"/>
   </g>
   <g id="line2d_4">
    <path d="M 126.9 165.24 
L 153.9 165.24 
L 171.9 165.24 
" clip-path="url(#p45fc146bf6)" style="fill: none; stroke: #000000; stroke-linecap: round"/>
   </g>
   <g id="patch_8">
    <path d="M 171.9 162.54 
L 180.9 165.24 
L 171.9 167.94 
z
" clip-path="url(#p45fc146bf6)"/>
   </g>
   <g id="line2d_5">
    <path d="M 180.9 165.24 
L 180.9 147.24 
L 324.9 147.24 
L 324.9 183.24 
L 180.9 183.24 
L 180.9 165.24 
" clip-path="url(#p45fc146bf6)" style="fill: none; stroke: #000000; stroke-linecap: round"/>
   </g>
   <g id="line2d_6">
    <path d="M 252.9 183.24 
L 252.9 196.74 
L 252.9 201.24 
" clip-path="url(#p45fc146bf6)" style="fill: none; stroke: #000000; stroke-linecap: round"/>
   </g>
   <g id="patch_9">
    <path d="M 255.6 201.24 
L 252.9 210.24 
L 250.2 201.24 
z
" clip-path="url(#p45fc146bf6)"/>
   </g>
   <g id="line2d_7">
    <path d="M 72.9 188.64 
L 72.9 206.64 
L 72.9 215.64 
" clip-path="url(#p45fc146bf6)" style="fill: none; stroke: #000000; stroke-linecap: round"/>
   </g>
   <g id="patch_10">
    <path d="M 75.6 215.64 
L 72.9 224.64 
L 70.2 215.64 
z
" clip-path="url(#p45fc146bf6)"/>
   </g>
   <g id="text_1">
    <!-- START -->
    <g transform="translate(53.723242 37.334141) scale(0.125 -0.125)">
     <defs>
      <path id="IPAexGothic-53" d="M 2919 3641 
Q 2563 4259 1853 4259 
Q 1453 4259 1213 4009 
Q 1028 3803 1028 3534 
Q 1028 3238 1266 3047 
Q 1444 2913 1984 2688 
L 2200 2597 
Q 2925 2306 3191 1953 
Q 3422 1644 3422 1259 
Q 3422 644 2969 288 
Q 2559 -31 1931 -31 
Q 881 -31 313 766 
L 753 1100 
Q 1203 459 1938 459 
Q 2288 459 2534 625 
Q 2841 847 2841 1216 
Q 2841 1503 2616 1728 
Q 2375 1959 1728 2206 
L 1541 2278 
Q 453 2694 453 3481 
Q 453 4006 806 4347 
Q 1203 4725 1863 4725 
Q 2841 4725 3359 3956 
L 2919 3641 
z
" transform="scale(0.015625)"/>
      <path id="IPAexGothic-54" d="M 3866 4141 
L 2175 4141 
L 2175 63 
L 1606 63 
L 1606 4141 
L -31 4141 
L -31 4634 
L 3866 4634 
L 3866 4141 
z
" transform="scale(0.015625)"/>
      <path id="IPAexGothic-41" d="M 4056 63 
L 3444 63 
L 2938 1409 
L 1100 1409 
L 603 63 
L -6 63 
L 1806 4666 
L 2259 4666 
L 4056 63 
z
M 2778 1863 
L 2316 3078 
Q 2125 3588 2028 4000 
L 2009 4000 
Q 1897 3563 1716 3078 
L 1263 1863 
L 2778 1863 
z
" transform="scale(0.015625)"/>
      <path id="IPAexGothic-52" d="M 4072 63 
L 3394 63 
Q 3138 641 2828 1197 
Q 2584 1641 2344 1825 
Q 2050 2044 1625 2044 
L 1172 2044 
L 1172 63 
L 609 63 
L 609 4634 
L 2009 4634 
Q 2713 4634 3131 4378 
Q 3688 4044 3688 3381 
Q 3688 2784 3181 2459 
Q 2906 2272 2522 2216 
L 2522 2197 
Q 2941 2050 3247 1581 
Q 3516 1166 4072 63 
z
M 1172 2478 
L 1869 2478 
Q 3106 2478 3106 3369 
Q 3106 4181 1928 4181 
L 1172 4181 
L 1172 2478 
z
" transform="scale(0.015625)"/>
     </defs>
     <use xlink:href="#IPAexGothic-53"/>
     <use xlink:href="#IPAexGothic-54" x="58.496094"/>
     <use xlink:href="#IPAexGothic-41" x="118.408203"/>
     <use xlink:href="#IPAexGothic-52" x="182.128906"/>
     <use xlink:href="#IPAexGothic-54" x="246.923828"/>
    </g>
   </g>
   <g id="text_2">
    <!-- x = 10 -->
    <g transform="translate(54.358008 100.334141) scale(0.125 -0.125)">
     <defs>
      <path id="IPAexGothic-78" d="M 3050 63 
L 2419 63 
L 1547 1338 
L 691 63 
L 56 63 
L 1247 1675 
L 106 3250 
L 747 3250 
L 1578 2016 
L 2413 3250 
L 3019 3250 
L 1875 1681 
L 3050 63 
z
" transform="scale(0.015625)"/>
      <path id="IPAexGothic-20" transform="scale(0.015625)"/>
      <path id="IPAexGothic-3d" d="M 416 2803 
L 3922 2803 
L 3922 2438 
L 416 2438 
L 416 2803 
z
M 416 1625 
L 3922 1625 
L 3922 1259 
L 416 1259 
L 416 1625 
z
" transform="scale(0.015625)"/>
      <path id="IPAexGothic-31" d="M 2463 63 
L 1900 63 
L 1900 4103 
Q 1372 3922 788 3797 
L 684 4231 
Q 1519 4441 2106 4731 
L 2463 4731 
L 2463 63 
z
" transform="scale(0.015625)"/>
      <path id="IPAexGothic-30" d="M 2038 4725 
Q 2881 4725 3334 3944 
Q 3694 3325 3694 2344 
Q 3694 1372 3334 741 
Q 2888 -31 2016 -31 
Q 1147 -31 700 741 
Q 341 1372 341 2350 
Q 341 3713 1000 4334 
Q 1419 4725 2038 4725 
z
M 2016 4266 
Q 1516 4266 1228 3759 
Q 934 3247 934 2344 
Q 934 1456 1222 947 
Q 1513 447 2016 447 
Q 2619 447 2909 1153 
Q 3100 1622 3100 2375 
Q 3100 3256 2806 3759 
Q 2509 4266 2016 4266 
z
" transform="scale(0.015625)"/>
     </defs>
     <use xlink:href="#IPAexGothic-78"/>
     <use xlink:href="#IPAexGothic-20" x="48.876953"/>
     <use xlink:href="#IPAexGothic-3d" x="75.878906"/>
     <use xlink:href="#IPAexGothic-20" x="143.701172"/>
     <use xlink:href="#IPAexGothic-31" x="170.703125"/>
     <use xlink:href="#IPAexGothic-30" x="233.691406"/>
    </g>
   </g>
   <g id="text_3">
    <!-- False -->
    <g transform="translate(77.58 202.683281) scale(0.125 -0.125)">
     <defs>
      <path id="IPAexGothic-46" d="M 3469 4141 
L 1172 4141 
L 1172 2656 
L 3206 2656 
L 3206 2188 
L 1172 2188 
L 1172 63 
L 609 63 
L 609 4634 
L 3469 4634 
L 3469 4141 
z
" transform="scale(0.015625)"/>
      <path id="IPAexGothic-61" d="M 3156 63 
L 2672 63 
Q 2559 303 2531 556 
L 2509 556 
Q 2147 -25 1428 -25 
Q 934 -25 622 288 
Q 347 563 347 959 
Q 347 1947 2050 1997 
L 2478 2009 
L 2478 2175 
Q 2478 2509 2288 2700 
Q 2088 2900 1775 2900 
Q 1238 2900 969 2378 
L 494 2597 
Q 938 3328 1788 3328 
Q 2375 3328 2691 3000 
Q 2984 2706 2984 2169 
L 2984 997 
Q 2984 400 3156 63 
z
M 2491 1625 
L 2141 1619 
Q 903 1591 903 953 
Q 903 728 1050 581 
Q 1231 403 1525 403 
Q 1934 403 2234 703 
Q 2491 969 2491 1344 
L 2491 1625 
z
" transform="scale(0.015625)"/>
      <path id="IPAexGothic-6c" d="M 1131 63 
L 581 63 
L 581 4794 
L 1131 4794 
L 1131 63 
z
" transform="scale(0.015625)"/>
      <path id="IPAexGothic-73" d="M 2234 2547 
Q 1938 2931 1484 2931 
Q 891 2931 891 2475 
Q 891 2153 1531 1944 
L 1741 1875 
Q 2650 1578 2650 894 
Q 2650 434 2272 172 
Q 1972 -31 1497 -31 
Q 766 -31 256 503 
L 603 819 
Q 997 397 1516 397 
Q 2131 397 2131 875 
Q 2131 1238 1453 1478 
L 1234 1553 
Q 378 1853 378 2431 
Q 378 2797 628 3047 
Q 928 3347 1453 3347 
Q 2156 3347 2606 2859 
L 2234 2547 
z
" transform="scale(0.015625)"/>
      <path id="IPAexGothic-65" d="M 863 1594 
Q 891 1041 1209 722 
Q 1534 397 1997 397 
Q 2606 397 2963 966 
L 3322 728 
Q 2869 -31 1931 -31 
Q 1222 -31 766 422 
Q 306 884 306 1641 
Q 306 2444 788 2925 
Q 1216 3353 1856 3353 
Q 2459 3353 2866 2956 
Q 3322 2494 3322 1722 
L 3322 1594 
L 863 1594 
z
M 2756 1997 
Q 2709 2431 2450 2681 
Q 2194 2938 1844 2938 
Q 1438 2938 1150 2591 
Q 953 2356 894 1997 
L 2756 1997 
z
" transform="scale(0.015625)"/>
     </defs>
     <use xlink:href="#IPAexGothic-46"/>
     <use xlink:href="#IPAexGothic-61" x="57.177734"/>
     <use xlink:href="#IPAexGothic-6c" x="112.158203"/>
     <use xlink:href="#IPAexGothic-73" x="139.160156"/>
     <use xlink:href="#IPAexGothic-65" x="185.351562"/>
    </g>
   </g>
   <g id="text_4">
    <!-- True -->
    <g transform="translate(131.58 158.185) scale(0.125 -0.125)">
     <defs>
      <path id="IPAexGothic-72" d="M 2309 3316 
L 2213 2769 
Q 2106 2791 2022 2791 
Q 1653 2791 1413 2444 
Q 1113 2006 1113 1675 
L 1113 63 
L 563 63 
L 563 3250 
L 1081 3250 
L 1056 2303 
L 1069 2303 
Q 1422 3341 2097 3341 
Q 2206 3341 2309 3316 
z
" transform="scale(0.015625)"/>
      <path id="IPAexGothic-75" d="M 3284 63 
L 2772 63 
L 2772 644 
Q 2300 0 1625 0 
Q 1072 0 763 375 
Q 519 678 519 1241 
L 519 3250 
L 1069 3250 
L 1069 1259 
Q 1069 466 1734 466 
Q 2406 466 2734 1291 
L 2734 3250 
L 3284 3250 
L 3284 63 
z
" transform="scale(0.015625)"/>
     </defs>
     <use xlink:href="#IPAexGothic-54"/>
     <use xlink:href="#IPAexGothic-72" x="59.912109"/>
     <use xlink:href="#IPAexGothic-75" x="96.923828"/>
     <use xlink:href="#IPAexGothic-65" x="157.324219"/>
    </g>
   </g>
   <g id="text_5">
    <!-- x = 10 ? -->
    <g transform="translate(49.228125 168.734141) scale(0.125 -0.125)">
     <defs>
      <path id="IPAexGothic-3f" d="M 225 3425 
Q 503 4725 1763 4725 
Q 2413 4725 2803 4334 
Q 3144 3994 3144 3516 
Q 3144 3081 2838 2716 
Q 2703 2563 2344 2266 
L 2216 2156 
Q 1888 1878 1888 1363 
L 1888 1209 
L 1422 1209 
L 1422 1422 
Q 1422 2050 1881 2491 
L 2022 2625 
L 2075 2669 
Q 2575 3122 2575 3516 
Q 2575 3822 2363 4041 
Q 2128 4278 1763 4278 
Q 963 4278 725 3309 
L 225 3425 
z
M 1978 63 
L 1325 63 
L 1325 728 
L 1978 728 
L 1978 63 
z
" transform="scale(0.015625)"/>
     </defs>
     <use xlink:href="#IPAexGothic-78"/>
     <use xlink:href="#IPAexGothic-20" x="48.876953"/>
     <use xlink:href="#IPAexGothic-3d" x="75.878906"/>
     <use xlink:href="#IPAexGothic-20" x="143.701172"/>
     <use xlink:href="#IPAexGothic-31" x="170.703125"/>
     <use xlink:href="#IPAexGothic-30" x="233.691406"/>
     <use xlink:href="#IPAexGothic-20" x="296.679688"/>
     <use xlink:href="#IPAexGothic-3f" x="323.681641"/>
    </g>
   </g>
   <g id="text_6">
    <!-- print('条件はTrueです') -->
    <g transform="translate(187.866797 169.234141) scale(0.125 -0.125)">
     <defs>
      <path id="IPAexGothic-70" d="M 1075 2688 
Q 1525 3341 2206 3341 
Q 2769 3341 3172 2938 
Q 3641 2469 3641 1644 
Q 3641 841 3178 372 
Q 2775 -31 2200 -31 
Q 1569 -31 1106 497 
L 1106 -1216 
L 563 -1216 
L 563 3250 
L 1075 3250 
L 1075 2688 
z
M 1106 1950 
L 1106 1291 
Q 1106 897 1516 600 
Q 1791 403 2106 403 
Q 2469 403 2725 659 
Q 3066 997 3066 1631 
Q 3066 2200 2784 2559 
Q 2503 2900 2100 2900 
Q 1656 2900 1338 2484 
Q 1106 2184 1106 1950 
z
" transform="scale(0.015625)"/>
      <path id="IPAexGothic-69" d="M 1178 3928 
L 550 3928 
L 550 4569 
L 1178 4569 
L 1178 3928 
z
M 1138 63 
L 588 63 
L 588 3250 
L 1138 3250 
L 1138 63 
z
" transform="scale(0.015625)"/>
      <path id="IPAexGothic-6e" d="M 3328 63 
L 2778 63 
L 2778 2041 
Q 2778 2853 2106 2853 
Q 1428 2853 1113 2041 
L 1113 63 
L 563 63 
L 563 3250 
L 1075 3250 
L 1075 2675 
Q 1525 3316 2222 3316 
Q 3328 3316 3328 2072 
L 3328 63 
z
" transform="scale(0.015625)"/>
      <path id="IPAexGothic-74" d="M 2125 241 
Q 1769 -6 1397 -6 
Q 653 -6 653 831 
L 653 2859 
L 219 2859 
L 219 3250 
L 653 3250 
L 653 3966 
L 1178 4228 
L 1178 3250 
L 2063 3250 
L 2063 2859 
L 1178 2859 
L 1178 906 
Q 1178 416 1513 416 
Q 1738 416 1941 588 
L 2125 241 
z
" transform="scale(0.015625)"/>
      <path id="IPAexGothic-28" d="M 1928 -1016 
L 1653 -1166 
Q 488 69 488 1875 
Q 488 3678 1653 4909 
L 1928 4763 
Q 1006 3522 1006 1881 
Q 1006 203 1928 -1016 
z
" transform="scale(0.015625)"/>
      <path id="IPAexGothic-27" d="M 900 4794 
L 806 3084 
L 422 3084 
L 325 4794 
L 900 4794 
z
" transform="scale(0.015625)"/>
      <path id="IPAexGothic-6761" d="M 3406 1475 
L 3406 -447 
L 2953 -447 
L 2953 1422 
Q 2147 306 641 -331 
L 334 59 
Q 1738 569 2563 1538 
L 488 1538 
L 488 1941 
L 2953 1941 
L 2953 2691 
L 3406 2691 
L 3406 1941 
L 5928 1941 
L 5928 1538 
L 3847 1538 
Q 4597 769 6063 238 
L 5759 -203 
Q 4256 400 3406 1475 
z
M 3738 3419 
Q 4619 2991 5959 2772 
L 5684 2356 
Q 4216 2631 3353 3150 
Q 2350 2494 813 2175 
L 531 2566 
Q 2063 2825 2997 3391 
Q 2494 3763 2163 4219 
Q 1694 3747 1038 3359 
L 725 3688 
Q 1897 4319 2466 5306 
L 2900 5203 
Q 2784 5003 2713 4903 
L 4641 4903 
L 4872 4691 
Q 4384 3938 3738 3419 
z
M 3353 3634 
Q 3919 4075 4219 4531 
L 2438 4531 
L 2425 4513 
Q 2838 3956 3353 3634 
z
" transform="scale(0.015625)"/>
      <path id="IPAexGothic-4ef6" d="M 3903 3425 
L 2906 3425 
Q 2697 2825 2309 2247 
L 1991 2572 
Q 2588 3497 2803 4788 
L 3256 4713 
Q 3175 4313 3041 3834 
L 3903 3834 
L 3903 5250 
L 4356 5250 
L 4356 3834 
L 5731 3834 
L 5731 3425 
L 4356 3425 
L 4356 2009 
L 6041 2009 
L 6041 1594 
L 4356 1594 
L 4356 -447 
L 3903 -447 
L 3903 1594 
L 2078 1594 
L 2078 2009 
L 3903 2009 
L 3903 3425 
z
M 1638 3681 
L 1638 -447 
L 1169 -447 
L 1169 2753 
Q 881 2272 575 1863 
L 313 2253 
Q 1238 3463 1650 5184 
L 2125 5069 
Q 1909 4316 1638 3681 
z
" transform="scale(0.015625)"/>
      <path id="IPAexGothic-306f" d="M 4066 4875 
L 4538 4875 
L 4556 3769 
Q 5003 3816 5581 3941 
L 5619 3469 
Q 5256 3394 4563 3322 
L 4597 1441 
Q 5100 1284 5934 756 
L 5656 313 
Q 5066 772 4609 978 
Q 4609 441 4384 225 
Q 4128 -13 3634 -13 
Q 2991 -13 2669 231 
Q 2388 444 2388 831 
Q 2388 1225 2772 1484 
Q 3050 1669 3534 1669 
Q 3759 1669 4134 1594 
L 4097 3288 
Q 3697 3269 3359 3269 
Q 2925 3269 2484 3300 
L 2466 3763 
Q 2953 3716 3456 3716 
Q 3738 3716 4091 3738 
L 4066 4875 
z
M 4141 1153 
Q 3753 1259 3513 1259 
Q 2841 1259 2841 850 
Q 2841 422 3634 422 
Q 3888 422 4022 569 
Q 4141 700 4141 922 
Q 4141 1088 4141 1153 
z
M 1000 -50 
Q 794 1072 794 1931 
Q 794 3153 1247 4884 
L 1728 4763 
Q 1269 3044 1269 1900 
Q 1269 1569 1306 1106 
Q 1591 1706 1753 1997 
L 2075 1806 
Q 1484 716 1484 141 
Q 1484 72 1491 0 
L 1000 -50 
z
" transform="scale(0.015625)"/>
      <path id="IPAexGothic-3067" d="M 581 4034 
Q 2978 4363 5466 4556 
L 5509 4097 
Q 4388 4031 3750 3572 
Q 2797 2878 2797 1913 
Q 2797 1169 3291 819 
Q 3778 484 4869 416 
L 4906 -116 
Q 2278 0 2278 1850 
Q 2278 3125 3691 4000 
Q 2066 3784 684 3553 
L 581 4034 
z
M 5631 2522 
Q 5269 3063 4875 3391 
L 5175 3622 
Q 5559 3313 5950 2797 
L 5631 2522 
z
M 5034 2053 
Q 4747 2544 4300 2944 
L 4613 3184 
Q 4984 2878 5369 2328 
L 5034 2053 
z
" transform="scale(0.015625)"/>
      <path id="IPAexGothic-3059" d="M 3322 5075 
L 3816 5075 
L 3816 4063 
Q 4131 4075 5756 4116 
L 5756 3669 
Q 5431 3672 3816 3653 
L 3816 2463 
Q 3956 2125 3956 1741 
Q 3956 922 3519 397 
Q 3128 -72 2309 -409 
L 1941 -31 
Q 3263 453 3488 1363 
Q 3250 1031 2809 1031 
Q 2441 1031 2150 1313 
Q 1875 1588 1875 2050 
Q 1875 2475 2166 2769 
Q 2431 3041 2822 3041 
Q 3088 3041 3322 2881 
L 3322 3641 
Q 3000 3634 609 3547 
L 609 3988 
Q 1197 4000 2106 4022 
Q 3066 4047 3322 4050 
L 3322 5075 
z
M 3372 2044 
Q 3372 2300 3194 2478 
Q 3050 2613 2869 2613 
Q 2622 2613 2463 2406 
Q 2344 2250 2344 2088 
Q 2344 1797 2484 1622 
Q 2625 1453 2859 1453 
Q 3372 1453 3372 2044 
z
" transform="scale(0.015625)"/>
      <path id="IPAexGothic-29" d="M 466 4909 
Q 1638 3672 1638 1875 
Q 1638 75 466 -1166 
L 191 -1016 
Q 1119 216 1119 1881 
Q 1119 3509 191 4763 
L 466 4909 
z
" transform="scale(0.015625)"/>
     </defs>
     <use xlink:href="#IPAexGothic-70"/>
     <use xlink:href="#IPAexGothic-72" x="62.109375"/>
     <use xlink:href="#IPAexGothic-69" x="99.121094"/>
     <use xlink:href="#IPAexGothic-6e" x="126.123047"/>
     <use xlink:href="#IPAexGothic-74" x="186.523438"/>
     <use xlink:href="#IPAexGothic-28" x="221.142578"/>
     <use xlink:href="#IPAexGothic-27" x="254.443359"/>
     <use xlink:href="#IPAexGothic-6761" x="273.730469"/>
     <use xlink:href="#IPAexGothic-4ef6" x="373.730469"/>
     <use xlink:href="#IPAexGothic-306f" x="473.730469"/>
     <use xlink:href="#IPAexGothic-54" x="573.730469"/>
     <use xlink:href="#IPAexGothic-72" x="633.642578"/>
     <use xlink:href="#IPAexGothic-75" x="670.654297"/>
     <use xlink:href="#IPAexGothic-65" x="731.054688"/>
     <use xlink:href="#IPAexGothic-3067" x="787.939453"/>
     <use xlink:href="#IPAexGothic-3059" x="887.939453"/>
     <use xlink:href="#IPAexGothic-27" x="987.939453"/>
     <use xlink:href="#IPAexGothic-29" x="1007.226562"/>
    </g>
   </g>
   <g id="text_7">
    <!-- END -->
    <g transform="translate(239.700781 231.734141) scale(0.125 -0.125)">
     <defs>
      <path id="IPAexGothic-45" d="M 3547 63 
L 609 63 
L 609 4634 
L 3469 4634 
L 3469 4147 
L 1166 4147 
L 1166 2650 
L 3206 2650 
L 3206 2191 
L 1166 2191 
L 1166 556 
L 3547 556 
L 3547 63 
z
" transform="scale(0.015625)"/>
      <path id="IPAexGothic-4e" d="M 4244 63 
L 3731 63 
L 1697 3150 
Q 1466 3500 1141 4097 
L 1116 4097 
L 1128 3797 
Q 1159 2803 1159 2469 
L 1159 63 
L 609 63 
L 609 4634 
L 1366 4634 
L 3113 1978 
Q 3453 1447 3713 966 
L 3738 966 
Q 3694 1897 3694 2469 
L 3694 4634 
L 4244 4634 
L 4244 63 
z
" transform="scale(0.015625)"/>
      <path id="IPAexGothic-44" d="M 609 4634 
L 1984 4634 
Q 3159 4634 3791 4050 
Q 4456 3444 4456 2356 
Q 4456 1047 3516 441 
Q 2925 63 1941 63 
L 609 63 
L 609 4634 
z
M 1172 556 
L 1894 556 
Q 3853 556 3853 2356 
Q 3853 4147 1928 4147 
L 1172 4147 
L 1172 556 
z
" transform="scale(0.015625)"/>
     </defs>
     <use xlink:href="#IPAexGothic-45"/>
     <use xlink:href="#IPAexGothic-4e" x="59.521484"/>
     <use xlink:href="#IPAexGothic-44" x="135.498047"/>
    </g>
   </g>
   <g id="text_8">
    <!-- END -->
    <g transform="translate(59.700781 246.134141) scale(0.125 -0.125)">
     <use xlink:href="#IPAexGothic-45"/>
     <use xlink:href="#IPAexGothic-4e" x="59.521484"/>
     <use xlink:href="#IPAexGothic-44" x="135.498047"/>
    </g>
   </g>
  </g>
 </g>
 <defs>
  <clipPath id="p45fc146bf6">
   <rect x="3.6" y="3.6" width="336.6" height="269.28"/>
  </clipPath>
 </defs>
</svg>