<?xml version="1.0" encoding="utf-8" standalone="no"?>
<!DOCTYPE svg PUBLIC "-//W3C//DTD SVG 1.1//EN"
  "http://www.w3.org/Graphics/SVG/1.1/DTD/svg11.dtd">
<svg xmlns:xlink="http://www.w3.org/1999/xlink" width="365.58pt" height="345.78pt" viewBox="0 0 365.58 345.78" xmlns="http://www.w3.org/2000/svg" version="1.1">
 <metadata>
  <rdf:RDF xmlns:dc="http://purl.org/dc/elements/1.1/" xmlns:cc="http://creativecommons.org/ns#" xmlns:rdf="http://www.w3.org/1999/02/22-rdf-syntax-ns#">
   <cc:Work>
    <dc:type rdf:resource="http://purl.org/dc/dcmitype/StillImage"/>
    <dc:date>2024-03-07T00:27:57.124237</dc:date>
    <dc:format>image/svg+xml</dc:format>
    <dc:creator>
     <cc:Agent>
      <dc:title>Matplotlib v3.8.3, https://matplotlib.org/</dc:title>
     </cc:Agent>
    </dc:creator>
   </cc:Work>
  </rdf:RDF>
 </metadata>
 <defs>
  <style type="text/css">*{stroke-linejoin: round; stroke-linecap: butt}</style>
 </defs>
 <g id="figure_1">
  <g id="patch_1">
   <path d="M 0 345.78 
L 365.58 345.78 
L 365.58 0 
L 0 0 
z
" style="fill: #ffffff"/>
  </g>
  <g id="axes_1">
   <g id="patch_2">
    <path d="M 104.49 54.99 
L 104.775587 54.987734 
L 105.061103 54.980938 
L 105.346474 54.969612 
L 105.631631 54.95376 
L 105.916499 54.933386 
L 106.201009 54.908495 
L 106.485088 54.879092 
L 106.768664 54.845187 
L 107.051667 54.806786 
L 107.334025 54.7639 
L 107.615667 54.71654 
L 107.896522 54.664717 
L 108.17652 54.608444 
L 108.45559 54.547736 
L 108.733661 54.482608 
L 109.010664 54.413077 
L 109.286529 54.339159 
L 109.561186 54.260874 
L 109.834567 54.17824 
L 110.106602 54.09128 
L 110.377223 54.000015 
L 110.646363 53.904467 
L 110.913952 53.804661 
L 111.179924 53.700623 
L 111.444212 53.592377 
L 111.70675 53.479952 
L 111.96747 53.363376 
L 112.226308 53.242678 
L 112.483199 53.117888 
L 112.738077 52.989038 
L 112.990879 52.856161 
L 113.241541 52.719289 
L 113.49 52.578457 
L 113.736193 52.433701 
L 113.980058 52.285058 
L 114.221535 52.132564 
L 114.460561 51.976257 
L 114.697078 51.816178 
L 114.931024 51.652367 
L 115.162343 51.484865 
L 115.390974 51.313713 
L 115.616862 51.138956 
L 115.839948 50.960636 
L 116.060177 50.7788 
L 116.277493 50.593492 
L 116.491842 50.40476 
L 116.703169 50.212651 
L 116.911422 50.017213 
L 117.116548 49.818495 
L 117.318495 49.616548 
L 117.517213 49.411422 
L 117.712651 49.203169 
L 117.90476 48.991842 
L 118.093492 48.777493 
L 118.2788 48.560177 
L 118.460636 48.339948 
L 118.638956 48.116862 
L 118.813713 47.890974 
L 118.984865 47.662343 
L 119.152367 47.431024 
L 119.316178 47.197078 
L 119.476257 46.960561 
L 119.632564 46.721535 
L 119.785058 46.480058 
L 119.933701 46.236193 
L 120.078457 45.99 
L 120.219289 45.741541 
L 120.356161 45.490879 
L 120.489038 45.238077 
L 120.617888 44.983199 
L 120.742678 44.726308 
L 120.863376 44.46747 
L 120.979952 44.20675 
L 121.092377 43.944212 
L 121.200623 43.679924 
L 121.304661 43.413952 
L 121.404467 43.146363 
L 121.500015 42.877223 
L 121.59128 42.606602 
L 121.67824 42.334567 
L 121.760874 42.061186 
L 121.839159 41.786529 
L 121.913077 41.510664 
L 121.982608 41.233661 
L 122.047736 40.95559 
L 122.108444 40.67652 
L 122.164717 40.396522 
L 122.21654 40.115667 
L 122.2639 39.834025 
L 122.306786 39.551667 
L 122.345187 39.268664 
L 122.379092 38.985088 
L 122.408495 38.701009 
L 122.433386 38.416499 
L 122.45376 38.131631 
L 122.469612 37.846474 
L 122.480938 37.561103 
L 122.487734 37.275587 
L 122.49 36.99 
L 122.49 36.99 
L 122.487734 36.704413 
L 122.480938 36.418897 
L 122.469612 36.133526 
L 122.45376 35.848369 
L 122.433386 35.563501 
L 122.408495 35.278991 
L 122.379092 34.994912 
L 122.345187 34.711336 
L 122.306786 34.428333 
L 122.2639 34.145975 
L 122.21654 33.864333 
L 122.164717 33.583478 
L 122.108444 33.30348 
L 122.047736 33.02441 
L 121.982608 32.746339 
L 121.913077 32.469336 
L 121.839159 32.193471 
L 121.760874 31.918814 
L 121.67824 31.645433 
L 121.59128 31.373398 
L 121.500015 31.102777 
L 121.404467 30.833637 
L 121.304661 30.566048 
L 121.200623 30.300076 
L 121.092377 30.035788 
L 120.979952 29.77325 
L 120.863376 29.51253 
L 120.742678 29.253692 
L 120.617888 28.996801 
L 120.489038 28.741923 
L 120.356161 28.489121 
L 120.219289 28.238459 
L 120.078457 27.99 
L 119.933701 27.743807 
L 119.785058 27.499942 
L 119.632564 27.258465 
L 119.476257 27.019439 
L 119.316178 26.782922 
L 119.152367 26.548976 
L 118.984865 26.317657 
L 118.813713 26.089026 
L 118.638956 25.863138 
L 118.460636 25.640052 
L 118.2788 25.419823 
L 118.093492 25.202507 
L 117.90476 24.988158 
L 117.712651 24.776831 
L 117.517213 24.568578 
L 117.318495 24.363452 
L 117.116548 24.161505 
L 116.911422 23.962787 
L 116.703169 23.767349 
L 116.491842 23.57524 
L 116.277493 23.386508 
L 116.060177 23.2012 
L 115.839948 23.019364 
L 115.616862 22.841044 
L 115.390974 22.666287 
L 115.162343 22.495135 
L 114.931024 22.327633 
L 114.697078 22.163822 
L 114.460561 22.003743 
L 114.221535 21.847436 
L 113.980058 21.694942 
L 113.736193 21.546299 
L 113.49 21.401543 
L 113.241541 21.260711 
L 112.990879 21.123839 
L 112.738077 20.990962 
L 112.483199 20.862112 
L 112.226308 20.737322 
L 111.96747 20.616624 
L 111.70675 20.500048 
L 111.444212 20.387623 
L 111.179924 20.279377 
L 110.913952 20.175339 
L 110.646363 20.075533 
L 110.377223 19.979985 
L 110.106602 19.88872 
L 109.834567 19.80176 
L 109.561186 19.719126 
L 109.286529 19.640841 
L 109.010664 19.566923 
L 108.733661 19.497392 
L 108.45559 19.432264 
L 108.17652 19.371556 
L 107.896522 19.315283 
L 107.615667 19.26346 
L 107.334025 19.2161 
L 107.051667 19.173214 
L 106.768664 19.134813 
L 106.485088 19.100908 
L 106.201009 19.071505 
L 105.916499 19.046614 
L 105.631631 19.02624 
L 105.346474 19.010388 
L 105.061103 18.999062 
L 104.775587 18.992266 
L 104.49 18.99 
L 68.49 18.99 
L 68.204413 18.992266 
L 67.918897 18.999062 
L 67.633526 19.010388 
L 67.348369 19.02624 
L 67.063501 19.046614 
L 66.778991 19.071505 
L 66.494912 19.100908 
L 66.211336 19.134813 
L 65.928333 19.173214 
L 65.645975 19.2161 
L 65.364333 19.26346 
L 65.083478 19.315283 
L 64.80348 19.371556 
L 64.52441 19.432264 
L 64.246339 19.497392 
L 63.969336 19.566923 
L 63.693471 19.640841 
L 63.418814 19.719126 
L 63.145433 19.80176 
L 62.873398 19.88872 
L 62.602777 19.979985 
L 62.333637 20.075533 
L 62.066048 20.175339 
L 61.800076 20.279377 
L 61.535788 20.387623 
L 61.27325 20.500048 
L 61.01253 20.616624 
L 60.753692 20.737322 
L 60.496801 20.862112 
L 60.241923 20.990962 
L 59.989121 21.123839 
L 59.738459 21.260711 
L 59.49 21.401543 
L 59.243807 21.546299 
L 58.999942 21.694942 
L 58.758465 21.847436 
L 58.519439 22.003743 
L 58.282922 22.163822 
L 58.048976 22.327633 
L 57.817657 22.495135 
L 57.589026 22.666287 
L 57.363138 22.841044 
L 57.140052 23.019364 
L 56.919823 23.2012 
L 56.702507 23.386508 
L 56.488158 23.57524 
L 56.276831 23.767349 
L 56.068578 23.962787 
L 55.863452 24.161505 
L 55.661505 24.363452 
L 55.462787 24.568578 
L 55.267349 24.776831 
L 55.07524 24.988158 
L 54.886508 25.202507 
L 54.7012 25.419823 
L 54.519364 25.640052 
L 54.341044 25.863138 
L 54.166287 26.089026 
L 53.995135 26.317657 
L 53.827633 26.548976 
L 53.663822 26.782922 
L 53.503743 27.019439 
L 53.347436 27.258465 
L 53.194942 27.499942 
L 53.046299 27.743807 
L 52.901543 27.99 
L 52.760711 28.238459 
L 52.623839 28.489121 
L 52.490962 28.741923 
L 52.362112 28.996801 
L 52.237322 29.253692 
L 52.116624 29.51253 
L 52.000048 29.77325 
L 51.887623 30.035788 
L 51.779377 30.300076 
L 51.675339 30.566048 
L 51.575533 30.833637 
L 51.479985 31.102777 
L 51.38872 31.373398 
L 51.30176 31.645433 
L 51.219126 31.918814 
L 51.140841 32.193471 
L 51.066923 32.469336 
L 50.997392 32.746339 
L 50.932264 33.02441 
L 50.871556 33.30348 
L 50.815283 33.583478 
L 50.76346 33.864333 
L 50.7161 34.145975 
L 50.673214 34.428333 
L 50.634813 34.711336 
L 50.600908 34.994912 
L 50.571505 35.278991 
L 50.546614 35.563501 
L 50.52624 35.848369 
L 50.510388 36.133526 
L 50.499062 36.418897 
L 50.492266 36.704413 
L 50.49 36.99 
L 50.49 36.99 
L 50.492266 37.275587 
L 50.499062 37.561103 
L 50.510388 37.846474 
L 50.52624 38.131631 
L 50.546614 38.416499 
L 50.571505 38.701009 
L 50.600908 38.985088 
L 50.634813 39.268664 
L 50.673214 39.551667 
L 50.7161 39.834025 
L 50.76346 40.115667 
L 50.815283 40.396522 
L 50.871556 40.67652 
L 50.932264 40.95559 
L 50.997392 41.233661 
L 51.066923 41.510664 
L 51.140841 41.786529 
L 51.219126 42.061186 
L 51.30176 42.334567 
L 51.38872 42.606602 
L 51.479985 42.877223 
L 51.575533 43.146363 
L 51.675339 43.413952 
L 51.779377 43.679924 
L 51.887623 43.944212 
L 52.000048 44.20675 
L 52.116624 44.46747 
L 52.237322 44.726308 
L 52.362112 44.983199 
L 52.490962 45.238077 
L 52.623839 45.490879 
L 52.760711 45.741541 
L 52.901543 45.99 
L 53.046299 46.236193 
L 53.194942 46.480058 
L 53.347436 46.721535 
L 53.503743 46.960561 
L 53.663822 47.197078 
L 53.827633 47.431024 
L 53.995135 47.662343 
L 54.166287 47.890974 
L 54.341044 48.116862 
L 54.519364 48.339948 
L 54.7012 48.560177 
L 54.886508 48.777493 
L 55.07524 48.991842 
L 55.267349 49.203169 
L 55.462787 49.411422 
L 55.661505 49.616548 
L 55.863452 49.818495 
L 56.068578 50.017213 
L 56.276831 50.212651 
L 56.488158 50.40476 
L 56.702507 50.593492 
L 56.919823 50.7788 
L 57.140052 50.960636 
L 57.363138 51.138956 
L 57.589026 51.313713 
L 57.817657 51.484865 
L 58.048976 51.652367 
L 58.282922 51.816178 
L 58.519439 51.976257 
L 58.758465 52.132564 
L 58.999942 52.285058 
L 59.243807 52.433701 
L 59.49 52.578457 
L 59.738459 52.719289 
L 59.989121 52.856161 
L 60.241923 52.989038 
L 60.496801 53.117888 
L 60.753692 53.242678 
L 61.01253 53.363376 
L 61.27325 53.479952 
L 61.535788 53.592377 
L 61.800076 53.700623 
L 62.066048 53.804661 
L 62.333637 53.904467 
L 62.602777 54.000015 
L 62.873398 54.09128 
L 63.145433 54.17824 
L 63.418814 54.260874 
L 63.693471 54.339159 
L 63.969336 54.413077 
L 64.246339 54.482608 
L 64.52441 54.547736 
L 64.80348 54.608444 
L 65.083478 54.664717 
L 65.364333 54.71654 
L 65.645975 54.7639 
L 65.928333 54.806786 
L 66.211336 54.845187 
L 66.494912 54.879092 
L 66.778991 54.908495 
L 67.063501 54.933386 
L 67.348369 54.95376 
L 67.633526 54.969612 
L 67.918897 54.980938 
L 68.204413 54.987734 
L 68.49 54.99 
L 104.49 54.99 
z
" clip-path="url(#p8d1fcc9b85)" style="fill: none; stroke: #000000; stroke-linecap: round"/>
   </g>
   <g id="patch_3">
    <path d="M 32.49 168.39 
L 86.49 144.99 
L 140.49 168.39 
L 86.49 191.79 
L 32.49 168.39 
z
" clip-path="url(#p8d1fcc9b85)" style="fill: none; stroke: #000000; stroke-linecap: round"/>
   </g>
   <g id="patch_4">
    <path d="M 297.09 249.39 
L 297.375587 249.387734 
L 297.661103 249.380938 
L 297.946474 249.369612 
L 298.231631 249.35376 
L 298.516499 249.333386 
L 298.801009 249.308495 
L 299.085088 249.279092 
L 299.368664 249.245187 
L 299.651667 249.206786 
L 299.934025 249.1639 
L 300.215667 249.11654 
L 300.496522 249.064717 
L 300.77652 249.008444 
L 301.05559 248.947736 
L 301.333661 248.882608 
L 301.610664 248.813077 
L 301.886529 248.739159 
L 302.161186 248.660874 
L 302.434567 248.57824 
L 302.706602 248.49128 
L 302.977223 248.400015 
L 303.246363 248.304467 
L 303.513952 248.204661 
L 303.779924 248.100623 
L 304.044212 247.992377 
L 304.30675 247.879952 
L 304.56747 247.763376 
L 304.826308 247.642678 
L 305.083199 247.517888 
L 305.338077 247.389038 
L 305.590879 247.256161 
L 305.841541 247.119289 
L 306.09 246.978457 
L 306.336193 246.833701 
L 306.580058 246.685058 
L 306.821535 246.532564 
L 307.060561 246.376257 
L 307.297078 246.216178 
L 307.531024 246.052367 
L 307.762343 245.884865 
L 307.990974 245.713713 
L 308.216862 245.538956 
L 308.439948 245.360636 
L 308.660177 245.1788 
L 308.877493 244.993492 
L 309.091842 244.80476 
L 309.303169 244.612651 
L 309.511422 244.417213 
L 309.716548 244.218495 
L 309.918495 244.016548 
L 310.117213 243.811422 
L 310.312651 243.603169 
L 310.50476 243.391842 
L 310.693492 243.177493 
L 310.8788 242.960177 
L 311.060636 242.739948 
L 311.238956 242.516862 
L 311.413713 242.290974 
L 311.584865 242.062343 
L 311.752367 241.831024 
L 311.916178 241.597078 
L 312.076257 241.360561 
L 312.232564 241.121535 
L 312.385058 240.880058 
L 312.533701 240.636193 
L 312.678457 240.39 
L 312.819289 240.141541 
L 312.956161 239.890879 
L 313.089038 239.638077 
L 313.217888 239.383199 
L 313.342678 239.126308 
L 313.463376 238.86747 
L 313.579952 238.60675 
L 313.692377 238.344212 
L 313.800623 238.079924 
L 313.904661 237.813952 
L 314.004467 237.546363 
L 314.100015 237.277223 
L 314.19128 237.006602 
L 314.27824 236.734567 
L 314.360874 236.461186 
L 314.439159 236.186529 
L 314.513077 235.910664 
L 314.582608 235.633661 
L 314.647736 235.35559 
L 314.708444 235.07652 
L 314.764717 234.796522 
L 314.81654 234.515667 
L 314.8639 234.234025 
L 314.906786 233.951667 
L 314.945187 233.668664 
L 314.979092 233.385088 
L 315.008495 233.101009 
L 315.033386 232.816499 
L 315.05376 232.531631 
L 315.069612 232.246474 
L 315.080938 231.961103 
L 315.087734 231.675587 
L 315.09 231.39 
L 315.09 231.39 
L 315.087734 231.104413 
L 315.080938 230.818897 
L 315.069612 230.533526 
L 315.05376 230.248369 
L 315.033386 229.963501 
L 315.008495 229.678991 
L 314.979092 229.394912 
L 314.945187 229.111336 
L 314.906786 228.828333 
L 314.8639 228.545975 
L 314.81654 228.264333 
L 314.764717 227.983478 
L 314.708444 227.70348 
L 314.647736 227.42441 
L 314.582608 227.146339 
L 314.513077 226.869336 
L 314.439159 226.593471 
L 314.360874 226.318814 
L 314.27824 226.045433 
L 314.19128 225.773398 
L 314.100015 225.502777 
L 314.004467 225.233637 
L 313.904661 224.966048 
L 313.800623 224.700076 
L 313.692377 224.435788 
L 313.579952 224.17325 
L 313.463376 223.91253 
L 313.342678 223.653692 
L 313.217888 223.396801 
L 313.089038 223.141923 
L 312.956161 222.889121 
L 312.819289 222.638459 
L 312.678457 222.39 
L 312.533701 222.143807 
L 312.385058 221.899942 
L 312.232564 221.658465 
L 312.076257 221.419439 
L 311.916178 221.182922 
L 311.752367 220.948976 
L 311.584865 220.717657 
L 311.413713 220.489026 
L 311.238956 220.263138 
L 311.060636 220.040052 
L 310.8788 219.819823 
L 310.693492 219.602507 
L 310.50476 219.388158 
L 310.312651 219.176831 
L 310.117213 218.968578 
L 309.918495 218.763452 
L 309.716548 218.561505 
L 309.511422 218.362787 
L 309.303169 218.167349 
L 309.091842 217.97524 
L 308.877493 217.786508 
L 308.660177 217.6012 
L 308.439948 217.419364 
L 308.216862 217.241044 
L 307.990974 217.066287 
L 307.762343 216.895135 
L 307.531024 216.727633 
L 307.297078 216.563822 
L 307.060561 216.403743 
L 306.821535 216.247436 
L 306.580058 216.094942 
L 306.336193 215.946299 
L 306.09 215.801543 
L 305.841541 215.660711 
L 305.590879 215.523839 
L 305.338077 215.390962 
L 305.083199 215.262112 
L 304.826308 215.137322 
L 304.56747 215.016624 
L 304.30675 214.900048 
L 304.044212 214.787623 
L 303.779924 214.679377 
L 303.513952 214.575339 
L 303.246363 214.475533 
L 302.977223 214.379985 
L 302.706602 214.28872 
L 302.434567 214.20176 
L 302.161186 214.119126 
L 301.886529 214.040841 
L 301.610664 213.966923 
L 301.333661 213.897392 
L 301.05559 213.832264 
L 300.77652 213.771556 
L 300.496522 213.715283 
L 300.215667 213.66346 
L 299.934025 213.6161 
L 299.651667 213.573214 
L 299.368664 213.534813 
L 299.085088 213.500908 
L 298.801009 213.471505 
L 298.516499 213.446614 
L 298.231631 213.42624 
L 297.946474 213.410388 
L 297.661103 213.399062 
L 297.375587 213.392266 
L 297.09 213.39 
L 261.09 213.39 
L 260.804413 213.392266 
L 260.518897 213.399062 
L 260.233526 213.410388 
L 259.948369 213.42624 
L 259.663501 213.446614 
L 259.378991 213.471505 
L 259.094912 213.500908 
L 258.811336 213.534813 
L 258.528333 213.573214 
L 258.245975 213.6161 
L 257.964333 213.66346 
L 257.683478 213.715283 
L 257.40348 213.771556 
L 257.12441 213.832264 
L 256.846339 213.897392 
L 256.569336 213.966923 
L 256.293471 214.040841 
L 256.018814 214.119126 
L 255.745433 214.20176 
L 255.473398 214.28872 
L 255.202777 214.379985 
L 254.933637 214.475533 
L 254.666048 214.575339 
L 254.400076 214.679377 
L 254.135788 214.787623 
L 253.87325 214.900048 
L 253.61253 215.016624 
L 253.353692 215.137322 
L 253.096801 215.262112 
L 252.841923 215.390962 
L 252.589121 215.523839 
L 252.338459 215.660711 
L 252.09 215.801543 
L 251.843807 215.946299 
L 251.599942 216.094942 
L 251.358465 216.247436 
L 251.119439 216.403743 
L 250.882922 216.563822 
L 250.648976 216.727633 
L 250.417657 216.895135 
L 250.189026 217.066287 
L 249.963138 217.241044 
L 249.740052 217.419364 
L 249.519823 217.6012 
L 249.302507 217.786508 
L 249.088158 217.97524 
L 248.876831 218.167349 
L 248.668578 218.362787 
L 248.463452 218.561505 
L 248.261505 218.763452 
L 248.062787 218.968578 
L 247.867349 219.176831 
L 247.67524 219.388158 
L 247.486508 219.602507 
L 247.3012 219.819823 
L 247.119364 220.040052 
L 246.941044 220.263138 
L 246.766287 220.489026 
L 246.595135 220.717657 
L 246.427633 220.948976 
L 246.263822 221.182922 
L 246.103743 221.419439 
L 245.947436 221.658465 
L 245.794942 221.899942 
L 245.646299 222.143807 
L 245.501543 222.39 
L 245.360711 222.638459 
L 245.223839 222.889121 
L 245.090962 223.141923 
L 244.962112 223.396801 
L 244.837322 223.653692 
L 244.716624 223.91253 
L 244.600048 224.17325 
L 244.487623 224.435788 
L 244.379377 224.700076 
L 244.275339 224.966048 
L 244.175533 225.233637 
L 244.079985 225.502777 
L 243.98872 225.773398 
L 243.90176 226.045433 
L 243.819126 226.318814 
L 243.740841 226.593471 
L 243.666923 226.869336 
L 243.597392 227.146339 
L 243.532264 227.42441 
L 243.471556 227.70348 
L 243.415283 227.983478 
L 243.36346 228.264333 
L 243.3161 228.545975 
L 243.273214 228.828333 
L 243.234813 229.111336 
L 243.200908 229.394912 
L 243.171505 229.678991 
L 243.146614 229.963501 
L 243.12624 230.248369 
L 243.110388 230.533526 
L 243.099062 230.818897 
L 243.092266 231.104413 
L 243.09 231.39 
L 243.09 231.39 
L 243.092266 231.675587 
L 243.099062 231.961103 
L 243.110388 232.246474 
L 243.12624 232.531631 
L 243.146614 232.816499 
L 243.171505 233.101009 
L 243.200908 233.385088 
L 243.234813 233.668664 
L 243.273214 233.951667 
L 243.3161 234.234025 
L 243.36346 234.515667 
L 243.415283 234.796522 
L 243.471556 235.07652 
L 243.532264 235.35559 
L 243.597392 235.633661 
L 243.666923 235.910664 
L 243.740841 236.186529 
L 243.819126 236.461186 
L 243.90176 236.734567 
L 243.98872 237.006602 
L 244.079985 237.277223 
L 244.175533 237.546363 
L 244.275339 237.813952 
L 244.379377 238.079924 
L 244.487623 238.344212 
L 244.600048 238.60675 
L 244.716624 238.86747 
L 244.837322 239.126308 
L 244.962112 239.383199 
L 245.090962 239.638077 
L 245.223839 239.890879 
L 245.360711 240.141541 
L 245.501543 240.39 
L 245.646299 240.636193 
L 245.794942 240.880058 
L 245.947436 241.121535 
L 246.103743 241.360561 
L 246.263822 241.597078 
L 246.427633 241.831024 
L 246.595135 242.062343 
L 246.766287 242.290974 
L 246.941044 242.516862 
L 247.119364 242.739948 
L 247.3012 242.960177 
L 247.486508 243.177493 
L 247.67524 243.391842 
L 247.867349 243.603169 
L 248.062787 243.811422 
L 248.261505 244.016548 
L 248.463452 244.218495 
L 248.668578 244.417213 
L 248.876831 244.612651 
L 249.088158 244.80476 
L 249.302507 244.993492 
L 249.519823 245.1788 
L 249.740052 245.360636 
L 249.963138 245.538956 
L 250.189026 245.713713 
L 250.417657 245.884865 
L 250.648976 246.052367 
L 250.882922 246.216178 
L 251.119439 246.376257 
L 251.358465 246.532564 
L 251.599942 246.685058 
L 251.843807 246.833701 
L 252.09 246.978457 
L 252.338459 247.119289 
L 252.589121 247.256161 
L 252.841923 247.389038 
L 253.096801 247.517888 
L 253.353692 247.642678 
L 253.61253 247.763376 
L 253.87325 247.879952 
L 254.135788 247.992377 
L 254.400076 248.100623 
L 254.666048 248.204661 
L 254.933637 248.304467 
L 255.202777 248.400015 
L 255.473398 248.49128 
L 255.745433 248.57824 
L 256.018814 248.660874 
L 256.293471 248.739159 
L 256.569336 248.813077 
L 256.846339 248.882608 
L 257.12441 248.947736 
L 257.40348 249.008444 
L 257.683478 249.064717 
L 257.964333 249.11654 
L 258.245975 249.1639 
L 258.528333 249.206786 
L 258.811336 249.245187 
L 259.094912 249.279092 
L 259.378991 249.308495 
L 259.663501 249.333386 
L 259.948369 249.35376 
L 260.233526 249.369612 
L 260.518897 249.380938 
L 260.804413 249.387734 
L 261.09 249.39 
L 297.09 249.39 
z
" clip-path="url(#p8d1fcc9b85)" style="fill: none; stroke: #000000; stroke-linecap: round"/>
   </g>
   <g id="patch_5">
    <path d="M 104.49 326.79 
L 104.775587 326.787734 
L 105.061103 326.780938 
L 105.346474 326.769612 
L 105.631631 326.75376 
L 105.916499 326.733386 
L 106.201009 326.708495 
L 106.485088 326.679092 
L 106.768664 326.645187 
L 107.051667 326.606786 
L 107.334025 326.5639 
L 107.615667 326.51654 
L 107.896522 326.464717 
L 108.17652 326.408444 
L 108.45559 326.347736 
L 108.733661 326.282608 
L 109.010664 326.213077 
L 109.286529 326.139159 
L 109.561186 326.060874 
L 109.834567 325.97824 
L 110.106602 325.89128 
L 110.377223 325.800015 
L 110.646363 325.704467 
L 110.913952 325.604661 
L 111.179924 325.500623 
L 111.444212 325.392377 
L 111.70675 325.279952 
L 111.96747 325.163376 
L 112.226308 325.042678 
L 112.483199 324.917888 
L 112.738077 324.789038 
L 112.990879 324.656161 
L 113.241541 324.519289 
L 113.49 324.378457 
L 113.736193 324.233701 
L 113.980058 324.085058 
L 114.221535 323.932564 
L 114.460561 323.776257 
L 114.697078 323.616178 
L 114.931024 323.452367 
L 115.162343 323.284865 
L 115.390974 323.113713 
L 115.616862 322.938956 
L 115.839948 322.760636 
L 116.060177 322.5788 
L 116.277493 322.393492 
L 116.491842 322.20476 
L 116.703169 322.012651 
L 116.911422 321.817213 
L 117.116548 321.618495 
L 117.318495 321.416548 
L 117.517213 321.211422 
L 117.712651 321.003169 
L 117.90476 320.791842 
L 118.093492 320.577493 
L 118.2788 320.360177 
L 118.460636 320.139948 
L 118.638956 319.916862 
L 118.813713 319.690974 
L 118.984865 319.462343 
L 119.152367 319.231024 
L 119.316178 318.997078 
L 119.476257 318.760561 
L 119.632564 318.521535 
L 119.785058 318.280058 
L 119.933701 318.036193 
L 120.078457 317.79 
L 120.219289 317.541541 
L 120.356161 317.290879 
L 120.489038 317.038077 
L 120.617888 316.783199 
L 120.742678 316.526308 
L 120.863376 316.26747 
L 120.979952 316.00675 
L 121.092377 315.744212 
L 121.200623 315.479924 
L 121.304661 315.213952 
L 121.404467 314.946363 
L 121.500015 314.677223 
L 121.59128 314.406602 
L 121.67824 314.134567 
L 121.760874 313.861186 
L 121.839159 313.586529 
L 121.913077 313.310664 
L 121.982608 313.033661 
L 122.047736 312.75559 
L 122.108444 312.47652 
L 122.164717 312.196522 
L 122.21654 311.915667 
L 122.2639 311.634025 
L 122.306786 311.351667 
L 122.345187 311.068664 
L 122.379092 310.785088 
L 122.408495 310.501009 
L 122.433386 310.216499 
L 122.45376 309.931631 
L 122.469612 309.646474 
L 122.480938 309.361103 
L 122.487734 309.075587 
L 122.49 308.79 
L 122.49 308.79 
L 122.487734 308.504413 
L 122.480938 308.218897 
L 122.469612 307.933526 
L 122.45376 307.648369 
L 122.433386 307.363501 
L 122.408495 307.078991 
L 122.379092 306.794912 
L 122.345187 306.511336 
L 122.306786 306.228333 
L 122.2639 305.945975 
L 122.21654 305.664333 
L 122.164717 305.383478 
L 122.108444 305.10348 
L 122.047736 304.82441 
L 121.982608 304.546339 
L 121.913077 304.269336 
L 121.839159 303.993471 
L 121.760874 303.718814 
L 121.67824 303.445433 
L 121.59128 303.173398 
L 121.500015 302.902777 
L 121.404467 302.633637 
L 121.304661 302.366048 
L 121.200623 302.100076 
L 121.092377 301.835788 
L 120.979952 301.57325 
L 120.863376 301.31253 
L 120.742678 301.053692 
L 120.617888 300.796801 
L 120.489038 300.541923 
L 120.356161 300.289121 
L 120.219289 300.038459 
L 120.078457 299.79 
L 119.933701 299.543807 
L 119.785058 299.299942 
L 119.632564 299.058465 
L 119.476257 298.819439 
L 119.316178 298.582922 
L 119.152367 298.348976 
L 118.984865 298.117657 
L 118.813713 297.889026 
L 118.638956 297.663138 
L 118.460636 297.440052 
L 118.2788 297.219823 
L 118.093492 297.002507 
L 117.90476 296.788158 
L 117.712651 296.576831 
L 117.517213 296.368578 
L 117.318495 296.163452 
L 117.116548 295.961505 
L 116.911422 295.762787 
L 116.703169 295.567349 
L 116.491842 295.37524 
L 116.277493 295.186508 
L 116.060177 295.0012 
L 115.839948 294.819364 
L 115.616862 294.641044 
L 115.390974 294.466287 
L 115.162343 294.295135 
L 114.931024 294.127633 
L 114.697078 293.963822 
L 114.460561 293.803743 
L 114.221535 293.647436 
L 113.980058 293.494942 
L 113.736193 293.346299 
L 113.49 293.201543 
L 113.241541 293.060711 
L 112.990879 292.923839 
L 112.738077 292.790962 
L 112.483199 292.662112 
L 112.226308 292.537322 
L 111.96747 292.416624 
L 111.70675 292.300048 
L 111.444212 292.187623 
L 111.179924 292.079377 
L 110.913952 291.975339 
L 110.646363 291.875533 
L 110.377223 291.779985 
L 110.106602 291.68872 
L 109.834567 291.60176 
L 109.561186 291.519126 
L 109.286529 291.440841 
L 109.010664 291.366923 
L 108.733661 291.297392 
L 108.45559 291.232264 
L 108.17652 291.171556 
L 107.896522 291.115283 
L 107.615667 291.06346 
L 107.334025 291.0161 
L 107.051667 290.973214 
L 106.768664 290.934813 
L 106.485088 290.900908 
L 106.201009 290.871505 
L 105.916499 290.846614 
L 105.631631 290.82624 
L 105.346474 290.810388 
L 105.061103 290.799062 
L 104.775587 290.792266 
L 104.49 290.79 
L 68.49 290.79 
L 68.204413 290.792266 
L 67.918897 290.799062 
L 67.633526 290.810388 
L 67.348369 290.82624 
L 67.063501 290.846614 
L 66.778991 290.871505 
L 66.494912 290.900908 
L 66.211336 290.934813 
L 65.928333 290.973214 
L 65.645975 291.0161 
L 65.364333 291.06346 
L 65.083478 291.115283 
L 64.80348 291.171556 
L 64.52441 291.232264 
L 64.246339 291.297392 
L 63.969336 291.366923 
L 63.693471 291.440841 
L 63.418814 291.519126 
L 63.145433 291.60176 
L 62.873398 291.68872 
L 62.602777 291.779985 
L 62.333637 291.875533 
L 62.066048 291.975339 
L 61.800076 292.079377 
L 61.535788 292.187623 
L 61.27325 292.300048 
L 61.01253 292.416624 
L 60.753692 292.537322 
L 60.496801 292.662112 
L 60.241923 292.790962 
L 59.989121 292.923839 
L 59.738459 293.060711 
L 59.49 293.201543 
L 59.243807 293.346299 
L 58.999942 293.494942 
L 58.758465 293.647436 
L 58.519439 293.803743 
L 58.282922 293.963822 
L 58.048976 294.127633 
L 57.817657 294.295135 
L 57.589026 294.466287 
L 57.363138 294.641044 
L 57.140052 294.819364 
L 56.919823 295.0012 
L 56.702507 295.186508 
L 56.488158 295.37524 
L 56.276831 295.567349 
L 56.068578 295.762787 
L 55.863452 295.961505 
L 55.661505 296.163452 
L 55.462787 296.368578 
L 55.267349 296.576831 
L 55.07524 296.788158 
L 54.886508 297.002507 
L 54.7012 297.219823 
L 54.519364 297.440052 
L 54.341044 297.663138 
L 54.166287 297.889026 
L 53.995135 298.117657 
L 53.827633 298.348976 
L 53.663822 298.582922 
L 53.503743 298.819439 
L 53.347436 299.058465 
L 53.194942 299.299942 
L 53.046299 299.543807 
L 52.901543 299.79 
L 52.760711 300.038459 
L 52.623839 300.289121 
L 52.490962 300.541923 
L 52.362112 300.796801 
L 52.237322 301.053692 
L 52.116624 301.31253 
L 52.000048 301.57325 
L 51.887623 301.835788 
L 51.779377 302.100076 
L 51.675339 302.366048 
L 51.575533 302.633637 
L 51.479985 302.902777 
L 51.38872 303.173398 
L 51.30176 303.445433 
L 51.219126 303.718814 
L 51.140841 303.993471 
L 51.066923 304.269336 
L 50.997392 304.546339 
L 50.932264 304.82441 
L 50.871556 305.10348 
L 50.815283 305.383478 
L 50.76346 305.664333 
L 50.7161 305.945975 
L 50.673214 306.228333 
L 50.634813 306.511336 
L 50.600908 306.794912 
L 50.571505 307.078991 
L 50.546614 307.363501 
L 50.52624 307.648369 
L 50.510388 307.933526 
L 50.499062 308.218897 
L 50.492266 308.504413 
L 50.49 308.79 
L 50.49 308.79 
L 50.492266 309.075587 
L 50.499062 309.361103 
L 50.510388 309.646474 
L 50.52624 309.931631 
L 50.546614 310.216499 
L 50.571505 310.501009 
L 50.600908 310.785088 
L 50.634813 311.068664 
L 50.673214 311.351667 
L 50.7161 311.634025 
L 50.76346 311.915667 
L 50.815283 312.196522 
L 50.871556 312.47652 
L 50.932264 312.75559 
L 50.997392 313.033661 
L 51.066923 313.310664 
L 51.140841 313.586529 
L 51.219126 313.861186 
L 51.30176 314.134567 
L 51.38872 314.406602 
L 51.479985 314.677223 
L 51.575533 314.946363 
L 51.675339 315.213952 
L 51.779377 315.479924 
L 51.887623 315.744212 
L 52.000048 316.00675 
L 52.116624 316.26747 
L 52.237322 316.526308 
L 52.362112 316.783199 
L 52.490962 317.038077 
L 52.623839 317.290879 
L 52.760711 317.541541 
L 52.901543 317.79 
L 53.046299 318.036193 
L 53.194942 318.280058 
L 53.347436 318.521535 
L 53.503743 318.760561 
L 53.663822 318.997078 
L 53.827633 319.231024 
L 53.995135 319.462343 
L 54.166287 319.690974 
L 54.341044 319.916862 
L 54.519364 320.139948 
L 54.7012 320.360177 
L 54.886508 320.577493 
L 55.07524 320.791842 
L 55.267349 321.003169 
L 55.462787 321.211422 
L 55.661505 321.416548 
L 55.863452 321.618495 
L 56.068578 321.817213 
L 56.276831 322.012651 
L 56.488158 322.20476 
L 56.702507 322.393492 
L 56.919823 322.5788 
L 57.140052 322.760636 
L 57.363138 322.938956 
L 57.589026 323.113713 
L 57.817657 323.284865 
L 58.048976 323.452367 
L 58.282922 323.616178 
L 58.519439 323.776257 
L 58.758465 323.932564 
L 58.999942 324.085058 
L 59.243807 324.233701 
L 59.49 324.378457 
L 59.738459 324.519289 
L 59.989121 324.656161 
L 60.241923 324.789038 
L 60.496801 324.917888 
L 60.753692 325.042678 
L 61.01253 325.163376 
L 61.27325 325.279952 
L 61.535788 325.392377 
L 61.800076 325.500623 
L 62.066048 325.604661 
L 62.333637 325.704467 
L 62.602777 325.800015 
L 62.873398 325.89128 
L 63.145433 325.97824 
L 63.418814 326.060874 
L 63.693471 326.139159 
L 63.969336 326.213077 
L 64.246339 326.282608 
L 64.52441 326.347736 
L 64.80348 326.408444 
L 65.083478 326.464717 
L 65.364333 326.51654 
L 65.645975 326.5639 
L 65.928333 326.606786 
L 66.211336 326.645187 
L 66.494912 326.679092 
L 66.778991 326.708495 
L 67.063501 326.733386 
L 67.348369 326.75376 
L 67.633526 326.769612 
L 67.918897 326.780938 
L 68.204413 326.787734 
L 68.49 326.79 
L 104.49 326.79 
z
" clip-path="url(#p8d1fcc9b85)" style="fill: none; stroke: #000000; stroke-linecap: round"/>
   </g>
   <g id="line2d_1">
    <path d="M 86.49 54.99 
L 86.49 68.49 
L 86.49 72.99 
" clip-path="url(#p8d1fcc9b85)" style="fill: none; stroke: #000000; stroke-linecap: round"/>
   </g>
   <g id="patch_6">
    <path d="M 89.19 72.99 
L 86.49 81.99 
L 83.79 72.99 
z
" clip-path="url(#p8d1fcc9b85)"/>
   </g>
   <g id="line2d_2">
    <path d="M 50.49 99.99 
L 50.49 81.99 
L 122.49 81.99 
L 122.49 117.99 
L 50.49 117.99 
L 50.49 99.99 
" clip-path="url(#p8d1fcc9b85)" style="fill: none; stroke: #000000; stroke-linecap: round"/>
   </g>
   <g id="line2d_3">
    <path d="M 86.49 117.99 
L 86.49 131.49 
L 86.49 135.99 
" clip-path="url(#p8d1fcc9b85)" style="fill: none; stroke: #000000; stroke-linecap: round"/>
   </g>
   <g id="patch_7">
    <path d="M 89.19 135.99 
L 86.49 144.99 
L 83.79 135.99 
z
" clip-path="url(#p8d1fcc9b85)"/>
   </g>
   <g id="line2d_4">
    <path d="M 140.49 168.39 
L 176.49 168.39 
L 203.49 168.39 
" clip-path="url(#p8d1fcc9b85)" style="fill: none; stroke: #000000; stroke-linecap: round"/>
   </g>
   <g id="patch_8">
    <path d="M 203.49 165.69 
L 212.49 168.39 
L 203.49 171.09 
z
" clip-path="url(#p8d1fcc9b85)"/>
   </g>
   <g id="line2d_5">
    <path d="M 212.49 168.39 
L 212.49 150.39 
L 345.69 150.39 
L 345.69 186.39 
L 212.49 186.39 
L 212.49 168.39 
" clip-path="url(#p8d1fcc9b85)" style="fill: none; stroke: #000000; stroke-linecap: round"/>
   </g>
   <g id="line2d_6">
    <path d="M 279.09 186.39 
L 279.09 199.89 
L 279.09 204.39 
" clip-path="url(#p8d1fcc9b85)" style="fill: none; stroke: #000000; stroke-linecap: round"/>
   </g>
   <g id="patch_9">
    <path d="M 281.79 204.39 
L 279.09 213.39 
L 276.39 204.39 
z
" clip-path="url(#p8d1fcc9b85)"/>
   </g>
   <g id="line2d_7">
    <path d="M 86.49 191.79 
L 86.49 209.79 
L 86.49 218.79 
" clip-path="url(#p8d1fcc9b85)" style="fill: none; stroke: #000000; stroke-linecap: round"/>
   </g>
   <g id="patch_10">
    <path d="M 89.19 218.79 
L 86.49 227.79 
L 83.79 218.79 
z
" clip-path="url(#p8d1fcc9b85)"/>
   </g>
   <g id="line2d_8">
    <path d="M 19.89 245.79 
L 19.89 227.79 
L 153.09 227.79 
L 153.09 263.79 
L 19.89 263.79 
L 19.89 245.79 
" clip-path="url(#p8d1fcc9b85)" style="fill: none; stroke: #000000; stroke-linecap: round"/>
   </g>
   <g id="line2d_9">
    <path d="M 86.49 263.79 
L 86.49 277.29 
L 86.49 281.79 
" clip-path="url(#p8d1fcc9b85)" style="fill: none; stroke: #000000; stroke-linecap: round"/>
   </g>
   <g id="patch_11">
    <path d="M 89.19 281.79 
L 86.49 290.79 
L 83.79 281.79 
z
" clip-path="url(#p8d1fcc9b85)"/>
   </g>
   <g id="text_1">
    <!-- START -->
    <g transform="translate(67.313242 40.484141) scale(0.125 -0.125)">
     <defs>
      <path id="IPAexGothic-53" d="M 2919 3641 
Q 2563 4259 1853 4259 
Q 1453 4259 1213 4009 
Q 1028 3803 1028 3534 
Q 1028 3238 1266 3047 
Q 1444 2913 1984 2688 
L 2200 2597 
Q 2925 2306 3191 1953 
Q 3422 1644 3422 1259 
Q 3422 644 2969 288 
Q 2559 -31 1931 -31 
Q 881 -31 313 766 
L 753 1100 
Q 1203 459 1938 459 
Q 2288 459 2534 625 
Q 2841 847 2841 1216 
Q 2841 1503 2616 1728 
Q 2375 1959 1728 2206 
L 1541 2278 
Q 453 2694 453 3481 
Q 453 4006 806 4347 
Q 1203 4725 1863 4725 
Q 2841 4725 3359 3956 
L 2919 3641 
z
" transform="scale(0.015625)"/>
      <path id="IPAexGothic-54" d="M 3866 4141 
L 2175 4141 
L 2175 63 
L 1606 63 
L 1606 4141 
L -31 4141 
L -31 4634 
L 3866 4634 
L 3866 4141 
z
" transform="scale(0.015625)"/>
      <path id="IPAexGothic-41" d="M 4056 63 
L 3444 63 
L 2938 1409 
L 1100 1409 
L 603 63 
L -6 63 
L 1806 4666 
L 2259 4666 
L 4056 63 
z
M 2778 1863 
L 2316 3078 
Q 2125 3588 2028 4000 
L 2009 4000 
Q 1897 3563 1716 3078 
L 1263 1863 
L 2778 1863 
z
" transform="scale(0.015625)"/>
      <path id="IPAexGothic-52" d="M 4072 63 
L 3394 63 
Q 3138 641 2828 1197 
Q 2584 1641 2344 1825 
Q 2050 2044 1625 2044 
L 1172 2044 
L 1172 63 
L 609 63 
L 609 4634 
L 2009 4634 
Q 2713 4634 3131 4378 
Q 3688 4044 3688 3381 
Q 3688 2784 3181 2459 
Q 2906 2272 2522 2216 
L 2522 2197 
Q 2941 2050 3247 1581 
Q 3516 1166 4072 63 
z
M 1172 2478 
L 1869 2478 
Q 3106 2478 3106 3369 
Q 3106 4181 1928 4181 
L 1172 4181 
L 1172 2478 
z
" transform="scale(0.015625)"/>
     </defs>
     <use xlink:href="#IPAexGothic-53"/>
     <use xlink:href="#IPAexGothic-54" x="58.496094"/>
     <use xlink:href="#IPAexGothic-41" x="118.408203"/>
     <use xlink:href="#IPAexGothic-52" x="182.128906"/>
     <use xlink:href="#IPAexGothic-54" x="246.923828"/>
    </g>
   </g>
   <g id="text_2">
    <!-- x = 10 -->
    <g transform="translate(67.948008 103.484141) scale(0.125 -0.125)">
     <defs>
      <path id="IPAexGothic-78" d="M 3050 63 
L 2419 63 
L 1547 1338 
L 691 63 
L 56 63 
L 1247 1675 
L 106 3250 
L 747 3250 
L 1578 2016 
L 2413 3250 
L 3019 3250 
L 1875 1681 
L 3050 63 
z
" transform="scale(0.015625)"/>
      <path id="IPAexGothic-20" transform="scale(0.015625)"/>
      <path id="IPAexGothic-3d" d="M 416 2803 
L 3922 2803 
L 3922 2438 
L 416 2438 
L 416 2803 
z
M 416 1625 
L 3922 1625 
L 3922 1259 
L 416 1259 
L 416 1625 
z
" transform="scale(0.015625)"/>
      <path id="IPAexGothic-31" d="M 2463 63 
L 1900 63 
L 1900 4103 
Q 1372 3922 788 3797 
L 684 4231 
Q 1519 4441 2106 4731 
L 2463 4731 
L 2463 63 
z
" transform="scale(0.015625)"/>
      <path id="IPAexGothic-30" d="M 2038 4725 
Q 2881 4725 3334 3944 
Q 3694 3325 3694 2344 
Q 3694 1372 3334 741 
Q 2888 -31 2016 -31 
Q 1147 -31 700 741 
Q 341 1372 341 2350 
Q 341 3713 1000 4334 
Q 1419 4725 2038 4725 
z
M 2016 4266 
Q 1516 4266 1228 3759 
Q 934 3247 934 2344 
Q 934 1456 1222 947 
Q 1513 447 2016 447 
Q 2619 447 2909 1153 
Q 3100 1622 3100 2375 
Q 3100 3256 2806 3759 
Q 2509 4266 2016 4266 
z
" transform="scale(0.015625)"/>
     </defs>
     <use xlink:href="#IPAexGothic-78"/>
     <use xlink:href="#IPAexGothic-20" x="48.876953"/>
     <use xlink:href="#IPAexGothic-3d" x="75.878906"/>
     <use xlink:href="#IPAexGothic-20" x="143.701172"/>
     <use xlink:href="#IPAexGothic-31" x="170.703125"/>
     <use xlink:href="#IPAexGothic-30" x="233.691406"/>
    </g>
   </g>
   <g id="text_3">
    <!-- False -->
    <g transform="translate(91.17 205.833281) scale(0.125 -0.125)">
     <defs>
      <path id="IPAexGothic-46" d="M 3469 4141 
L 1172 4141 
L 1172 2656 
L 3206 2656 
L 3206 2188 
L 1172 2188 
L 1172 63 
L 609 63 
L 609 4634 
L 3469 4634 
L 3469 4141 
z
" transform="scale(0.015625)"/>
      <path id="IPAexGothic-61" d="M 3156 63 
L 2672 63 
Q 2559 303 2531 556 
L 2509 556 
Q 2147 -25 1428 -25 
Q 934 -25 622 288 
Q 347 563 347 959 
Q 347 1947 2050 1997 
L 2478 2009 
L 2478 2175 
Q 2478 2509 2288 2700 
Q 2088 2900 1775 2900 
Q 1238 2900 969 2378 
L 494 2597 
Q 938 3328 1788 3328 
Q 2375 3328 2691 3000 
Q 2984 2706 2984 2169 
L 2984 997 
Q 2984 400 3156 63 
z
M 2491 1625 
L 2141 1619 
Q 903 1591 903 953 
Q 903 728 1050 581 
Q 1231 403 1525 403 
Q 1934 403 2234 703 
Q 2491 969 2491 1344 
L 2491 1625 
z
" transform="scale(0.015625)"/>
      <path id="IPAexGothic-6c" d="M 1131 63 
L 581 63 
L 581 4794 
L 1131 4794 
L 1131 63 
z
" transform="scale(0.015625)"/>
      <path id="IPAexGothic-73" d="M 2234 2547 
Q 1938 2931 1484 2931 
Q 891 2931 891 2475 
Q 891 2153 1531 1944 
L 1741 1875 
Q 2650 1578 2650 894 
Q 2650 434 2272 172 
Q 1972 -31 1497 -31 
Q 766 -31 256 503 
L 603 819 
Q 997 397 1516 397 
Q 2131 397 2131 875 
Q 2131 1238 1453 1478 
L 1234 1553 
Q 378 1853 378 2431 
Q 378 2797 628 3047 
Q 928 3347 1453 3347 
Q 2156 3347 2606 2859 
L 2234 2547 
z
" transform="scale(0.015625)"/>
      <path id="IPAexGothic-65" d="M 863 1594 
Q 891 1041 1209 722 
Q 1534 397 1997 397 
Q 2606 397 2963 966 
L 3322 728 
Q 2869 -31 1931 -31 
Q 1222 -31 766 422 
Q 306 884 306 1641 
Q 306 2444 788 2925 
Q 1216 3353 1856 3353 
Q 2459 3353 2866 2956 
Q 3322 2494 3322 1722 
L 3322 1594 
L 863 1594 
z
M 2756 1997 
Q 2709 2431 2450 2681 
Q 2194 2938 1844 2938 
Q 1438 2938 1150 2591 
Q 953 2356 894 1997 
L 2756 1997 
z
" transform="scale(0.015625)"/>
     </defs>
     <use xlink:href="#IPAexGothic-46"/>
     <use xlink:href="#IPAexGothic-61" x="57.177734"/>
     <use xlink:href="#IPAexGothic-6c" x="112.158203"/>
     <use xlink:href="#IPAexGothic-73" x="139.160156"/>
     <use xlink:href="#IPAexGothic-65" x="185.351562"/>
    </g>
   </g>
   <g id="text_4">
    <!-- True -->
    <g transform="translate(145.17 161.335) scale(0.125 -0.125)">
     <defs>
      <path id="IPAexGothic-72" d="M 2309 3316 
L 2213 2769 
Q 2106 2791 2022 2791 
Q 1653 2791 1413 2444 
Q 1113 2006 1113 1675 
L 1113 63 
L 563 63 
L 563 3250 
L 1081 3250 
L 1056 2303 
L 1069 2303 
Q 1422 3341 2097 3341 
Q 2206 3341 2309 3316 
z
" transform="scale(0.015625)"/>
      <path id="IPAexGothic-75" d="M 3284 63 
L 2772 63 
L 2772 644 
Q 2300 0 1625 0 
Q 1072 0 763 375 
Q 519 678 519 1241 
L 519 3250 
L 1069 3250 
L 1069 1259 
Q 1069 466 1734 466 
Q 2406 466 2734 1291 
L 2734 3250 
L 3284 3250 
L 3284 63 
z
" transform="scale(0.015625)"/>
     </defs>
     <use xlink:href="#IPAexGothic-54"/>
     <use xlink:href="#IPAexGothic-72" x="59.912109"/>
     <use xlink:href="#IPAexGothic-75" x="96.923828"/>
     <use xlink:href="#IPAexGothic-65" x="157.324219"/>
    </g>
   </g>
   <g id="text_5">
    <!-- x = 10 ? -->
    <g transform="translate(62.818125 171.884141) scale(0.125 -0.125)">
     <defs>
      <path id="IPAexGothic-3f" d="M 225 3425 
Q 503 4725 1763 4725 
Q 2413 4725 2803 4334 
Q 3144 3994 3144 3516 
Q 3144 3081 2838 2716 
Q 2703 2563 2344 2266 
L 2216 2156 
Q 1888 1878 1888 1363 
L 1888 1209 
L 1422 1209 
L 1422 1422 
Q 1422 2050 1881 2491 
L 2022 2625 
L 2075 2669 
Q 2575 3122 2575 3516 
Q 2575 3822 2363 4041 
Q 2128 4278 1763 4278 
Q 963 4278 725 3309 
L 225 3425 
z
M 1978 63 
L 1325 63 
L 1325 728 
L 1978 728 
L 1978 63 
z
" transform="scale(0.015625)"/>
     </defs>
     <use xlink:href="#IPAexGothic-78"/>
     <use xlink:href="#IPAexGothic-20" x="48.876953"/>
     <use xlink:href="#IPAexGothic-3d" x="75.878906"/>
     <use xlink:href="#IPAexGothic-20" x="143.701172"/>
     <use xlink:href="#IPAexGothic-31" x="170.703125"/>
     <use xlink:href="#IPAexGothic-30" x="233.691406"/>
     <use xlink:href="#IPAexGothic-20" x="296.679688"/>
     <use xlink:href="#IPAexGothic-3f" x="323.681641"/>
    </g>
   </g>
   <g id="text_6">
    <!-- 「条件はTrueです。」 -->
    <g transform="translate(215.701328 171.884141) scale(0.125 -0.125)">
     <defs>
      <path id="IPAexGothic-300c" d="M 4134 5300 
L 5875 5300 
L 5875 4853 
L 4581 4853 
L 4581 656 
L 4134 656 
L 4134 5300 
z
" transform="scale(0.015625)"/>
      <path id="IPAexGothic-6761" d="M 3406 1475 
L 3406 -447 
L 2953 -447 
L 2953 1422 
Q 2147 306 641 -331 
L 334 59 
Q 1738 569 2563 1538 
L 488 1538 
L 488 1941 
L 2953 1941 
L 2953 2691 
L 3406 2691 
L 3406 1941 
L 5928 1941 
L 5928 1538 
L 3847 1538 
Q 4597 769 6063 238 
L 5759 -203 
Q 4256 400 3406 1475 
z
M 3738 3419 
Q 4619 2991 5959 2772 
L 5684 2356 
Q 4216 2631 3353 3150 
Q 2350 2494 813 2175 
L 531 2566 
Q 2063 2825 2997 3391 
Q 2494 3763 2163 4219 
Q 1694 3747 1038 3359 
L 725 3688 
Q 1897 4319 2466 5306 
L 2900 5203 
Q 2784 5003 2713 4903 
L 4641 4903 
L 4872 4691 
Q 4384 3938 3738 3419 
z
M 3353 3634 
Q 3919 4075 4219 4531 
L 2438 4531 
L 2425 4513 
Q 2838 3956 3353 3634 
z
" transform="scale(0.015625)"/>
      <path id="IPAexGothic-4ef6" d="M 3903 3425 
L 2906 3425 
Q 2697 2825 2309 2247 
L 1991 2572 
Q 2588 3497 2803 4788 
L 3256 4713 
Q 3175 4313 3041 3834 
L 3903 3834 
L 3903 5250 
L 4356 5250 
L 4356 3834 
L 5731 3834 
L 5731 3425 
L 4356 3425 
L 4356 2009 
L 6041 2009 
L 6041 1594 
L 4356 1594 
L 4356 -447 
L 3903 -447 
L 3903 1594 
L 2078 1594 
L 2078 2009 
L 3903 2009 
L 3903 3425 
z
M 1638 3681 
L 1638 -447 
L 1169 -447 
L 1169 2753 
Q 881 2272 575 1863 
L 313 2253 
Q 1238 3463 1650 5184 
L 2125 5069 
Q 1909 4316 1638 3681 
z
" transform="scale(0.015625)"/>
      <path id="IPAexGothic-306f" d="M 4066 4875 
L 4538 4875 
L 4556 3769 
Q 5003 3816 5581 3941 
L 5619 3469 
Q 5256 3394 4563 3322 
L 4597 1441 
Q 5100 1284 5934 756 
L 5656 313 
Q 5066 772 4609 978 
Q 4609 441 4384 225 
Q 4128 -13 3634 -13 
Q 2991 -13 2669 231 
Q 2388 444 2388 831 
Q 2388 1225 2772 1484 
Q 3050 1669 3534 1669 
Q 3759 1669 4134 1594 
L 4097 3288 
Q 3697 3269 3359 3269 
Q 2925 3269 2484 3300 
L 2466 3763 
Q 2953 3716 3456 3716 
Q 3738 3716 4091 3738 
L 4066 4875 
z
M 4141 1153 
Q 3753 1259 3513 1259 
Q 2841 1259 2841 850 
Q 2841 422 3634 422 
Q 3888 422 4022 569 
Q 4141 700 4141 922 
Q 4141 1088 4141 1153 
z
M 1000 -50 
Q 794 1072 794 1931 
Q 794 3153 1247 4884 
L 1728 4763 
Q 1269 3044 1269 1900 
Q 1269 1569 1306 1106 
Q 1591 1706 1753 1997 
L 2075 1806 
Q 1484 716 1484 141 
Q 1484 72 1491 0 
L 1000 -50 
z
" transform="scale(0.015625)"/>
      <path id="IPAexGothic-3067" d="M 581 4034 
Q 2978 4363 5466 4556 
L 5509 4097 
Q 4388 4031 3750 3572 
Q 2797 2878 2797 1913 
Q 2797 1169 3291 819 
Q 3778 484 4869 416 
L 4906 -116 
Q 2278 0 2278 1850 
Q 2278 3125 3691 4000 
Q 2066 3784 684 3553 
L 581 4034 
z
M 5631 2522 
Q 5269 3063 4875 3391 
L 5175 3622 
Q 5559 3313 5950 2797 
L 5631 2522 
z
M 5034 2053 
Q 4747 2544 4300 2944 
L 4613 3184 
Q 4984 2878 5369 2328 
L 5034 2053 
z
" transform="scale(0.015625)"/>
      <path id="IPAexGothic-3059" d="M 3322 5075 
L 3816 5075 
L 3816 4063 
Q 4131 4075 5756 4116 
L 5756 3669 
Q 5431 3672 3816 3653 
L 3816 2463 
Q 3956 2125 3956 1741 
Q 3956 922 3519 397 
Q 3128 -72 2309 -409 
L 1941 -31 
Q 3263 453 3488 1363 
Q 3250 1031 2809 1031 
Q 2441 1031 2150 1313 
Q 1875 1588 1875 2050 
Q 1875 2475 2166 2769 
Q 2431 3041 2822 3041 
Q 3088 3041 3322 2881 
L 3322 3641 
Q 3000 3634 609 3547 
L 609 3988 
Q 1197 4000 2106 4022 
Q 3066 4047 3322 4050 
L 3322 5075 
z
M 3372 2044 
Q 3372 2300 3194 2478 
Q 3050 2613 2869 2613 
Q 2622 2613 2463 2406 
Q 2344 2250 2344 2088 
Q 2344 1797 2484 1622 
Q 2625 1453 2859 1453 
Q 3372 1453 3372 2044 
z
" transform="scale(0.015625)"/>
      <path id="IPAexGothic-3002" d="M 1166 1241 
Q 1366 1241 1563 1138 
Q 2009 900 2009 391 
Q 2009 188 1913 6 
Q 1675 -459 1159 -459 
Q 941 -459 753 -356 
Q 306 -119 306 397 
Q 306 744 569 1003 
Q 806 1241 1166 1241 
z
M 1159 916 
Q 953 916 797 781 
Q 631 625 631 391 
Q 631 278 681 166 
Q 819 -134 1159 -134 
Q 1309 -134 1434 -56 
Q 1684 88 1684 391 
Q 1684 722 1397 866 
Q 1281 916 1159 916 
z
" transform="scale(0.015625)"/>
      <path id="IPAexGothic-300d" d="M 1819 4209 
L 2266 4209 
L 2266 -434 
L 525 -434 
L 525 13 
L 1819 13 
L 1819 4209 
z
" transform="scale(0.015625)"/>
     </defs>
     <use xlink:href="#IPAexGothic-300c"/>
     <use xlink:href="#IPAexGothic-6761" x="100"/>
     <use xlink:href="#IPAexGothic-4ef6" x="200"/>
     <use xlink:href="#IPAexGothic-306f" x="300"/>
     <use xlink:href="#IPAexGothic-54" x="400"/>
     <use xlink:href="#IPAexGothic-72" x="459.912109"/>
     <use xlink:href="#IPAexGothic-75" x="496.923828"/>
     <use xlink:href="#IPAexGothic-65" x="557.324219"/>
     <use xlink:href="#IPAexGothic-3067" x="614.208984"/>
     <use xlink:href="#IPAexGothic-3059" x="714.208984"/>
     <use xlink:href="#IPAexGothic-3002" x="814.208984"/>
     <use xlink:href="#IPAexGothic-300d" x="914.208984"/>
    </g>
   </g>
   <g id="text_7">
    <!-- END -->
    <g transform="translate(265.890781 234.884141) scale(0.125 -0.125)">
     <defs>
      <path id="IPAexGothic-45" d="M 3547 63 
L 609 63 
L 609 4634 
L 3469 4634 
L 3469 4147 
L 1166 4147 
L 1166 2650 
L 3206 2650 
L 3206 2191 
L 1166 2191 
L 1166 556 
L 3547 556 
L 3547 63 
z
" transform="scale(0.015625)"/>
      <path id="IPAexGothic-4e" d="M 4244 63 
L 3731 63 
L 1697 3150 
Q 1466 3500 1141 4097 
L 1116 4097 
L 1128 3797 
Q 1159 2803 1159 2469 
L 1159 63 
L 609 63 
L 609 4634 
L 1366 4634 
L 3113 1978 
Q 3453 1447 3713 966 
L 3738 966 
Q 3694 1897 3694 2469 
L 3694 4634 
L 4244 4634 
L 4244 63 
z
" transform="scale(0.015625)"/>
      <path id="IPAexGothic-44" d="M 609 4634 
L 1984 4634 
Q 3159 4634 3791 4050 
Q 4456 3444 4456 2356 
Q 4456 1047 3516 441 
Q 2925 63 1941 63 
L 609 63 
L 609 4634 
z
M 1172 556 
L 1894 556 
Q 3853 556 3853 2356 
Q 3853 4147 1928 4147 
L 1172 4147 
L 1172 556 
z
" transform="scale(0.015625)"/>
     </defs>
     <use xlink:href="#IPAexGothic-45"/>
     <use xlink:href="#IPAexGothic-4e" x="59.521484"/>
     <use xlink:href="#IPAexGothic-44" x="135.498047"/>
    </g>
   </g>
   <g id="text_8">
    <!-- 「条件はFalseです。」 -->
    <g transform="translate(21.350352 249.284141) scale(0.125 -0.125)">
     <use xlink:href="#IPAexGothic-300c"/>
     <use xlink:href="#IPAexGothic-6761" x="100"/>
     <use xlink:href="#IPAexGothic-4ef6" x="200"/>
     <use xlink:href="#IPAexGothic-306f" x="300"/>
     <use xlink:href="#IPAexGothic-46" x="400"/>
     <use xlink:href="#IPAexGothic-61" x="457.177734"/>
     <use xlink:href="#IPAexGothic-6c" x="512.158203"/>
     <use xlink:href="#IPAexGothic-73" x="539.160156"/>
     <use xlink:href="#IPAexGothic-65" x="585.351562"/>
     <use xlink:href="#IPAexGothic-3067" x="642.236328"/>
     <use xlink:href="#IPAexGothic-3059" x="742.236328"/>
     <use xlink:href="#IPAexGothic-3002" x="842.236328"/>
     <use xlink:href="#IPAexGothic-300d" x="942.236328"/>
    </g>
   </g>
   <g id="text_9">
    <!-- END -->
    <g transform="translate(73.290781 312.284141) scale(0.125 -0.125)">
     <use xlink:href="#IPAexGothic-45"/>
     <use xlink:href="#IPAexGothic-4e" x="59.521484"/>
     <use xlink:href="#IPAexGothic-44" x="135.498047"/>
    </g>
   </g>
  </g>
 </g>
 <defs>
  <clipPath id="p8d1fcc9b85">
   <rect x="3.6" y="3.6" width="358.38" height="338.58"/>
  </clipPath>
 </defs>
</svg>